<?xml version="1.0" standalone="no"?>
<!DOCTYPE svg PUBLIC "-//W3C//DTD SVG 1.1//EN" "http://www.w3.org/Graphics/SVG/1.1/DTD/svg11.dtd" >
<svg xmlns="http://www.w3.org/2000/svg" xmlns:xlink="http://www.w3.org/1999/xlink" version="1.1">
<metadata>
Created by FontForge 20170731 at Wed Jul 26 14:47:48 2017
 By Aleksey,,,
Copyright (c) 2014 by Luzi Gantenbein. All rights reserved.
</metadata>
<defs>
<font id="BuenosAiresTTF-RegularItalic" horiz-adv-x="808" >
  <font-face 
    font-family="Buenos Aires TTF"
    font-weight="400"
    font-style="italic"
    font-stretch="normal"
    units-per-em="1000"
    panose-1="0 0 5 0 0 0 0 0 0 0"
    ascent="757"
    descent="-243"
    x-height="504"
    cap-height="700"
    bbox="-367 -374 1468 1089"
    underline-thickness="50"
    underline-position="-150"
    slope="-13"
    unicode-range="U+000D-FB03"
  />
<missing-glyph horiz-adv-x="319" 
 />
    <glyph glyph-name="ff" unicode="ff" horiz-adv-x="754" 
d="M680.5 601.5q-23.5 -19.5 -32.5 -55.5l-10 -42h131l-23 -102h-131l-93 -402h-110l92 402h-240l-93 -402h-110l92 402h-98l24 102h98l18 75q17 72 68.5 105.5t116.5 33.5q74 0 125 -43l-61 -77q-27 23 -61 23q-30 0 -53.5 -19.5t-32.5 -55.5l-10 -42h241l18 75
q17 72 68.5 105.5t116.5 33.5q75 0 126 -43l-62 -77q-27 23 -61 23q-30 0 -53.5 -19.5z" />
    <glyph glyph-name="fi" unicode="fi" horiz-adv-x="639" 
d="M520 0h-110l93 402h-239l-93 -402h-110l92 402h-98l24 102h98l18 75q17 72 68.5 105.5t116.5 33.5q74 0 125 -43l-61 -77q-27 23 -61 23q-30 0 -53.5 -19.5t-32.5 -55.5l-10 -42h350z" />
    <glyph glyph-name="ffi" unicode="ffi" horiz-adv-x="992" 
d="M873 0h-111l94 402h-241l-93 -402h-110l92 402h-240l-93 -402h-110l92 402h-98l24 102h98l18 75q17 72 68.5 105.5t116.5 33.5q74 0 125 -43l-61 -77q-27 23 -61 23q-30 0 -53.5 -19.5t-32.5 -55.5l-10 -42h241l18 75q17 72 68.5 105.5t116.5 33.5q75 0 126 -43l-62 -77
q-27 23 -61 23q-30 0 -53.5 -19.5t-32.5 -55.5l-10 -42h352z" />
    <glyph glyph-name="f_f_t" unicode="fft" horiz-adv-x="1126" 
d="M910 163q-3 -13 -3 -25q0 -26 15 -39t41 -13q33 0 72 18l28 -80q-28 -17 -61 -25.5t-63 -8.5q-64 0 -104 34.5t-40 98.5q0 22 6 47l54 232h-240l-93 -402h-110l92 402h-240l-93 -402h-110l92 402h-98l24 102h98l18 75q17 72 68.5 105.5t116.5 33.5q74 0 125 -43l-61 -77
q-27 23 -61 23q-30 0 -53.5 -19.5t-32.5 -55.5l-10 -42h241l18 75q17 72 68.5 105.5t116.5 33.5q74 0 125 -43l-61 -77q-27 23 -61 23q-30 0 -53.5 -19.5t-32.5 -55.5l-10 -42h240l30 129h110l-29 -129h141l-24 -102h-141z" />
    <glyph glyph-name="f_t" unicode="ft" horiz-adv-x="775" 
d="M559 163q-3 -13 -3 -25q0 -26 15 -39t41 -13q33 0 72 18l28 -80q-28 -17 -61 -25.5t-63 -8.5q-64 0 -104 34.5t-40 98.5q0 22 6 47l54 232h-240l-93 -402h-110l92 402h-98l24 102h98l18 75q17 72 68.5 105.5t116.5 33.5q74 0 125 -43l-61 -77q-27 23 -61 23
q-30 0 -53.5 -19.5t-32.5 -55.5l-10 -42h240l30 129h110l-29 -129h141l-24 -102h-141z" />
    <glyph glyph-name="t_t" unicode="tt" horiz-adv-x="782" 
d="M566 163q-3 -13 -3 -25q0 -26 15 -39t41 -13q33 0 72 18l28 -80q-28 -17 -61 -25.5t-63 -8.5q-64 0 -104 34.5t-40 98.5q0 22 6 47l54 232h-242l-55 -239q-3 -13 -3 -25q0 -26 15 -39t41 -13q33 0 72 18l28 -80q-28 -17 -61 -25.5t-63 -8.5q-64 0 -104 34.5t-40 98.5
q0 22 6 47l54 232h-109l23 102h109l30 129h110l-29 -129h241l30 129h110l-29 -129h141l-24 -102h-141z" />
    <glyph glyph-name=".notdef" horiz-adv-x="319" 
 />
    <glyph glyph-name=".null" horiz-adv-x="0" 
 />
    <glyph glyph-name="nonmarkingreturn" unicode="&#xd;" horiz-adv-x="298" 
 />
    <glyph glyph-name="space" unicode=" " horiz-adv-x="265" 
 />
    <glyph glyph-name="exclam" unicode="!" horiz-adv-x="341" 
d="M108 212l109 524h122l-134 -524h-97zM72 123.5q22 22.5 55 22.5q34 0 56.5 -22.5t22.5 -56.5q0 -33 -22.5 -55.5t-56.5 -22.5q-33 0 -55 22.5t-22 55.5q0 34 22 56.5z" />
    <glyph glyph-name="quotedbl" unicode="&#x22;" horiz-adv-x="341" 
d="M192 484h-103l54 234h103zM360 484h-105l54 234h105z" />
    <glyph glyph-name="numbersign" unicode="#" horiz-adv-x="796" 
d="M613 448l-27 -178h127v-98h-143l-21 -139h-98l22 139h-155l-22 -139h-97l22 139h-116v98h131l28 178h-131v98h146l22 140h97l-22 -140h156l22 140h96l-22 -140h121v-98h-136zM516 448h-155l-28 -178h155z" />
    <glyph glyph-name="dollar" unicode="$" horiz-adv-x="571" 
d="M450.5 338.5q30.5 -20.5 51.5 -55t21 -85.5q0 -68 -36.5 -116.5t-96 -73t-127.5 -24.5h-4l-21 -88h-82l23 98q-51 12 -92.5 37.5t-67.5 63.5l87 77q24 -40 72 -61.5t98 -21.5q54 0 93 25t39 71q0 28 -15.5 48t-38.5 34t-63 32q-54 25 -89 48t-58.5 61.5t-23.5 95.5
q0 66 31.5 112.5t83 71t112.5 27.5l20 92h82l-22 -97q45 -9 82.5 -28.5t62.5 -50.5l-73 -77q-24 30 -61.5 46.5t-77.5 16.5q-53 0 -89.5 -26t-36.5 -76q0 -34 18 -57t43 -37.5t77 -38.5q48 -23 78.5 -43.5z" />
    <glyph glyph-name="percent" unicode="%" horiz-adv-x="1111" 
d="M286 46l556 670l60 -45l-557 -671zM159.5 625q24.5 43 66.5 68t93 25t94 -25t68 -68t25 -94t-25 -93t-68 -66.5t-94 -24.5t-93 24.5t-66.5 66.5t-24.5 93t24.5 94zM260 469.5q24 -23.5 60 -23.5q35 0 58 23.5t23 60.5t-23 61t-58 24q-36 0 -60 -24t-24 -61t24 -60.5z
M695.5 262q24.5 43 66.5 68t93 25t94 -25t68 -68t25 -94t-25 -93t-68 -66.5t-94 -24.5t-93 24.5t-66.5 66.5t-24.5 93t24.5 94zM796 106.5q24 -23.5 60 -23.5q35 0 58 23.5t23 60.5t-23 61t-58 24q-36 0 -60 -24t-24 -61t24 -60.5z" />
    <glyph glyph-name="ampersand" unicode="&#x26;" horiz-adv-x="691" 
d="M601.5 214.5q-19.5 -29.5 -50.5 -68.5l68 -96l-90 -63l-59 84q-51 -44 -106.5 -65.5t-106.5 -21.5q-57 0 -103.5 24.5t-73 69t-26.5 101.5q0 75 48.5 131t146.5 78q-22 36 -32.5 65t-10.5 67q0 64 28 108t72.5 66t93.5 22q46 0 87.5 -19.5t66.5 -56.5t25 -86
q0 -61 -41.5 -113t-131.5 -84l92 -135q33 43 57 98l85 -36q-19 -40 -38.5 -69.5zM340.5 598.5q-27.5 -24.5 -27.5 -67.5q0 -27 12 -53.5t36 -56.5q62 19 88 52.5t26 72.5q0 37 -21 57t-51 20q-35 0 -62.5 -24.5zM351 100q39 15 69 43l-123 179q-66 -11 -99 -48.5t-33 -85.5
q0 -49 31.5 -76t80.5 -27q35 0 74 15z" />
    <glyph glyph-name="quotesingle" unicode="'" horiz-adv-x="178" 
d="M197 484h-108l54 234h108z" />
    <glyph glyph-name="parenleft" unicode="(" horiz-adv-x="323" 
d="M275.5 585q-64.5 -80 -97.5 -168.5t-33 -195.5q0 -92 24 -171.5t74 -152.5l-93 -54q-116 156 -116 367q0 182 87 338.5t258 283.5l65 -77q-104 -90 -168.5 -170z" />
    <glyph glyph-name="parenright" unicode=")" horiz-adv-x="328" 
d="M86.5 90q64.5 80 97.5 168.5t33 195.5q0 92 -24 171.5t-74 152.5l93 54q116 -156 116 -367q0 -182 -87 -338.5t-258 -283.5l-65 77q104 90 168.5 170z" />
    <glyph glyph-name="asterisk" unicode="*" horiz-adv-x="495" 
d="M436 392l-89 -43l-48 109l-97 -110l-70 64l101 92l-110 42l45 82l114 -39l28 129h96l-37 -129l131 39l8 -82l-130 -42z" />
    <glyph glyph-name="plus" unicode="+" horiz-adv-x="457" 
d="M170 225h-131l24 101h131l31 134h104l-31 -134h131l-23 -101h-131l-31 -135h-104z" />
    <glyph glyph-name="comma" unicode="," horiz-adv-x="270" 
d="M95 139l110 -66l-180 -260l-81 44z" />
    <glyph glyph-name="hyphen" unicode="-" horiz-adv-x="405" 
d="M367 327l-23 -102h-295l24 102h294z" />
    <glyph glyph-name="period" unicode="." horiz-adv-x="271" 
d="M47 123.5q22 22.5 55 22.5q34 0 56.5 -22.5t22.5 -56.5q0 -33 -22.5 -55.5t-56.5 -22.5q-33 0 -55 22.5t-22 55.5q0 34 22 56.5z" />
    <glyph glyph-name="slash" unicode="/" horiz-adv-x="382" 
d="M38 -16l-82 54l440 699l81 -53z" />
    <glyph glyph-name="zero" unicode="0" horiz-adv-x="629" 
d="M123 55.5q-57 71.5 -57 199.5q0 106 37.5 212.5t114.5 177.5t187 71q108 0 165.5 -71.5t57.5 -198.5q0 -106 -38 -213t-115 -178t-187 -71q-108 0 -165 71.5zM423.5 145q46.5 55 68.5 134t22 152q0 84 -31.5 131.5t-95.5 47.5q-70 0 -117 -55t-68.5 -134t-21.5 -152
q0 -85 32 -132t95 -47q70 0 116.5 55z" />
    <glyph glyph-name="one" unicode="1" horiz-adv-x="346" 
d="M220 599h-95l24 101h205l-162 -700h-110z" />
    <glyph glyph-name="two" unicode="2" horiz-adv-x="529" 
d="M475 105l-24 -105h-458l24 105l288 216q57 43 98.5 94.5t41.5 100.5q0 42 -28 70.5t-73 28.5q-46 0 -92 -26t-68 -76l-88 47q38 79 110 117.5t149 38.5q57 0 103 -22.5t73 -64.5t27 -98q0 -139 -180 -271l-212 -155h309z" />
    <glyph glyph-name="three" unicode="3" horiz-adv-x="525" 
d="M448.5 300q27.5 -40 27.5 -90q0 -55 -33 -107.5t-93.5 -85.5t-139.5 -33q-72 0 -128 30.5t-90 92.5l92 64q14 -39 50 -61.5t82 -22.5q37 0 71 14.5t55.5 42t21.5 63.5q0 52 -47 75t-136 23l25 104q66 0 112 17.5t69 46t23 63.5q0 37 -26 57t-67 20q-36 0 -74 -16.5
t-66 -49.5l-71 66q40 51 102.5 77t126.5 26q82 0 138 -41.5t56 -115.5q0 -62 -41 -117.5t-121 -82.5q54 -19 81.5 -59z" />
    <glyph glyph-name="four" unicode="4" horiz-adv-x="582" 
d="M455 273h107l-24 -105h-107l-39 -168h-110l38 168h-319l24 105l396 427h132zM152 273h192l64 277z" />
    <glyph glyph-name="five" unicode="5" horiz-adv-x="572" 
d="M227 426q25 19 53 28.5t65 9.5q93 0 142.5 -56t49.5 -144q0 -82 -39 -146t-103 -99t-135 -35q-75 0 -138.5 38t-93.5 111l98 48q13 -45 53 -69.5t88 -24.5q42 0 78.5 20t58.5 57t22 86q0 53 -29.5 85t-84.5 32q-36 0 -71.5 -14.5t-66.5 -41.5h-79l91 389h401l-25 -105
h-295z" />
    <glyph glyph-name="six" unicode="6" horiz-adv-x="601" 
d="M539 106q-38 -59 -99 -90.5t-129 -31.5q-65 0 -122.5 30.5t-93 93.5t-35.5 157q0 114 55 218t166 169.5t271 65.5l-7 -101q-147 2 -235.5 -62t-125.5 -178q33 43 79.5 64.5t98.5 21.5q57 0 106.5 -26t79 -75.5t29.5 -118.5q0 -78 -38 -137zM430 331.5q-36 31.5 -90 31.5
q-41 0 -77.5 -18t-59.5 -53t-23 -82q0 -62 37.5 -93.5t90.5 -31.5q40 0 76 18.5t59 53.5t23 82q0 61 -36 92.5z" />
    <glyph glyph-name="seven" unicode="7" horiz-adv-x="521" 
d="M573 591l-430 -591h-128l438 590h-380l26 110h500z" />
    <glyph glyph-name="eight" unicode="8" horiz-adv-x="583" 
d="M516 311q28 -34 28 -95q0 -72 -41 -124.5t-107 -80t-138 -27.5q-61 0 -111.5 20t-81 60.5t-30.5 99.5q0 77 53 134.5t132 77.5q-34 24 -55 55.5t-21 78.5q0 64 35 111t92 71t121 24q82 0 139 -41t57 -116q0 -61 -40 -111.5t-106 -78.5q46 -24 74 -58zM292 593
q-39 -29 -39 -79q0 -42 27 -62t78 -37q52 15 84.5 48.5t32.5 77.5q0 38 -26 59.5t-67 21.5q-51 0 -90 -29zM386 114q45 32 45 87q0 46 -34 76t-97 49q-61 -8 -105.5 -44.5t-44.5 -99.5q0 -55 36 -77.5t89 -22.5q66 0 111 32z" />
    <glyph glyph-name="nine" unicode="9" horiz-adv-x="617" 
d="M138 594q38 59 99 90.5t129 31.5q65 0 122.5 -30.5t93 -93.5t35.5 -157q0 -114 -55 -218t-166 -169.5t-271 -65.5l7 101q147 -2 235.5 62t125.5 178q-33 -43 -79.5 -64.5t-98.5 -21.5q-57 0 -106.5 26t-79 75.5t-29.5 118.5q0 78 38 137zM247 368.5q36 -31.5 90 -31.5
q41 0 77.5 18t59.5 53t23 82q0 62 -37.5 93.5t-90.5 31.5q-40 0 -76 -18.5t-59 -53.5t-23 -82q0 -61 36 -92.5z" />
    <glyph glyph-name="colon" unicode=":" horiz-adv-x="286" 
d="M138 494.5q22 22.5 55 22.5q34 0 56.5 -22.5t22.5 -56.5q0 -33 -22.5 -55.5t-56.5 -22.5q-33 0 -55 22.5t-22 55.5q0 34 22 56.5zM52 123.5q22 22.5 55 22.5q34 0 56.5 -22.5t22.5 -56.5q0 -33 -22.5 -55.5t-56.5 -22.5q-33 0 -55 22.5t-22 55.5q0 34 22 56.5z" />
    <glyph glyph-name="semicolon" unicode=";" horiz-adv-x="308" 
d="M95 139l110 -66l-180 -260l-81 44zM160 494.5q22 22.5 55 22.5q34 0 56.5 -22.5t22.5 -56.5q0 -33 -22.5 -55.5t-56.5 -22.5q-33 0 -55 22.5t-22 55.5q0 34 22 56.5z" />
    <glyph glyph-name="less" unicode="&#x3c;" horiz-adv-x="422" 
d="M414 439l-226 -199l124 -188l-91 -68l-181 269l305 269z" />
    <glyph glyph-name="equal" unicode="=" horiz-adv-x="457" 
d="M83 416h366l-23 -101h-366zM42 235h366l-24 -101h-366z" />
    <glyph glyph-name="greater" unicode="&#x3e;" horiz-adv-x="421" 
d="M2 67l226 199l-124 188l91 68l181 -269l-305 -269z" />
    <glyph glyph-name="question" unicode="?" horiz-adv-x="537" 
d="M281 221h-112l41 174h58q55 0 95 20t60 50.5t20 63.5q0 37 -25 61t-71 24q-39 0 -80 -18t-67 -52l-73 64q45 54 105.5 82t125.5 28q62 0 106.5 -24t67.5 -64t23 -86q0 -52 -29 -100.5t-86 -81.5t-136 -40zM141 123.5q22 22.5 56 22.5t56.5 -22.5t22.5 -56.5
q0 -33 -22.5 -55.5t-56.5 -22.5t-56 22.5t-22 55.5q0 34 22 56.5z" />
    <glyph glyph-name="at" unicode="@" horiz-adv-x="785" 
d="M561 566q76 -36 122.5 -105t46.5 -163q0 -59 -19 -104t-53 -69.5t-77 -24.5t-71.5 21.5t-35.5 57.5q-23 -39 -61.5 -61t-82.5 -22q-66 0 -102 44.5t-36 108.5q0 47 20.5 89.5t61.5 69.5t99 27q48 0 73 -18t38 -47l8 52h83l-31 -187q-2 -14 -2 -19q0 -26 14.5 -38
t36.5 -12q32 0 52 30.5t20 87.5q0 78 -37.5 134.5t-98.5 86t-130 29.5q-91 0 -154.5 -40.5t-95.5 -104.5t-32 -136q0 -65 27.5 -121.5t80.5 -91.5t127 -35q43 0 79.5 11.5t63.5 32.5l38 -52q-29 -26 -77.5 -43.5t-107.5 -17.5q-98 0 -166.5 45t-103 118t-34.5 157
q0 89 41 168t121.5 128.5t192.5 49.5q86 0 162 -36zM420.5 203q28.5 33 28.5 79q0 36 -19 57t-55 21q-47 0 -73.5 -34t-26.5 -75q0 -35 19.5 -58t54.5 -23q43 0 71.5 33z" />
    <glyph glyph-name="A" unicode="A" horiz-adv-x="698" 
d="M490 177h-288l-106 -177h-129l434 700h117l112 -700h-116zM475 282l-40 282l-170 -282h210z" />
    <glyph glyph-name="B" unicode="B" horiz-adv-x="603" 
d="M533 304q23 -43 23 -88q0 -56 -35 -105.5t-99.5 -80t-148.5 -30.5h-246l161 700h233q60 0 100.5 -22.5t59 -57.5t18.5 -74t-18 -77.5t-48.5 -66.5t-66.5 -37q44 -18 67 -61zM346 415q40 0 70 15.5t46 40t16 52.5q0 32 -22 52t-62 20h-115l-41 -180h108zM367.5 121.5
q34.5 16.5 52.5 42.5t18 55q0 38 -27 65t-77 27h-121l-48 -206h122q46 0 80.5 16.5z" />
    <glyph glyph-name="C" unicode="C" horiz-adv-x="758" 
d="M521.5 135.5q66.5 41.5 111.5 121.5l90 -54q-66 -109 -161 -164t-193 -55q-96 0 -163.5 44t-101.5 117.5t-34 159.5q0 103 48 197.5t141.5 154t224.5 59.5q82 0 149 -30.5t116 -89.5l-83 -77q-31 42 -83 65t-112 23q-91 0 -155.5 -42t-97.5 -108.5t-33 -138.5
q0 -60 23 -111t67.5 -82t107.5 -31q72 0 138.5 41.5z" />
    <glyph glyph-name="D" unicode="D" horiz-adv-x="725" 
d="M189 700h205q105 0 177 -41.5t107.5 -110t35.5 -149.5q0 -101 -53 -193t-155.5 -149t-243.5 -57h-235zM279 595l-113 -490h123q94 0 163.5 43t106 110.5t36.5 138.5q0 54 -22 99t-67 72t-110 27h-117z" />
    <glyph glyph-name="E" unicode="E" horiz-adv-x="541" 
d="M279 595l-44 -193h238l-25 -105h-237l-45 -192h306l-25 -105h-420l162 700h411l-24 -105h-297z" />
    <glyph glyph-name="F" unicode="F" horiz-adv-x="532" 
d="M142 0h-115l162 700h411l-24 -105h-297l-44 -193h238l-25 -105h-237z" />
    <glyph glyph-name="G" unicode="G" horiz-adv-x="760" 
d="M719 380l-72 -311q-58 -42 -124 -63.5t-131 -21.5q-104 0 -176.5 45t-109 119t-36.5 161q0 102 48 195.5t141.5 152.5t221.5 59q88 0 154 -30t116 -90l-83 -77q-32 44 -84 66t-114 22q-88 0 -153 -42t-98.5 -109t-33.5 -139q0 -60 24 -111.5t73 -82.5t118 -31
q78 0 146 39l34 142h-162l25 107h276z" />
    <glyph glyph-name="H" unicode="H" horiz-adv-x="724" 
d="M189 700h113l-68 -296h336l68 296h114l-162 -700h-114l69 298h-335l-69 -298h-114z" />
    <glyph glyph-name="I" unicode="I" horiz-adv-x="285" 
d="M193 700h115l-161 -700h-115z" />
    <glyph glyph-name="J" unicode="J" horiz-adv-x="527" 
d="M437 192q-25 -107 -88.5 -157.5t-146.5 -50.5q-51 0 -95.5 21.5t-72 63t-29.5 97.5l113 24q2 -46 28.5 -70.5t62.5 -24.5q43 0 74 27.5t43 78.5l115 499h114z" />
    <glyph glyph-name="K" unicode="K" horiz-adv-x="642" 
d="M582 0h-149l-221 303l-70 -303h-115l162 700h115l-69 -297l353 297h167l-429 -354z" />
    <glyph glyph-name="L" unicode="L" horiz-adv-x="498" 
d="M304 700l-138 -595h293l-25 -105h-407l162 700h115z" />
    <glyph glyph-name="M" unicode="M" horiz-adv-x="871" 
d="M899 700l-161 -700h-115l109 472l-254 -315h-104l-115 345l-117 -502h-115l162 700h127l134 -399l322 399h127z" />
    <glyph glyph-name="N" unicode="N" horiz-adv-x="741" 
d="M608 0h-115l-232 519l-119 -519h-115l161 700h115l234 -510l117 510h115z" />
    <glyph glyph-name="O" unicode="O" 
d="M645.5 674.5q71.5 -41.5 110.5 -115t39 -165.5q0 -112 -55.5 -206t-149 -149t-203.5 -55q-95 0 -167 41.5t-111 115t-39 166.5q0 111 55 205t149 149t204 55q96 0 167.5 -41.5zM325 568q-64 -38 -101.5 -104t-37.5 -145q0 -66 26.5 -117t75 -79.5t112.5 -28.5
q75 0 138.5 38t101.5 104t38 145q0 66 -26.5 117t-75.5 79.5t-113 28.5q-74 0 -138 -38z" />
    <glyph glyph-name="P" unicode="P" horiz-adv-x="568" 
d="M508 676.5q44 -23.5 68 -64t24 -89.5q0 -55 -30 -109t-88.5 -89.5t-141.5 -35.5h-131l-67 -289h-115l162 700h216q59 0 103 -23.5zM350 393q42 0 72.5 17t46 44t15.5 56q0 36 -24.5 60.5t-70.5 24.5h-110l-47 -202h118z" />
    <glyph glyph-name="Q" unicode="Q" 
d="M728 169q-67 -101 -175 -150q19 -28 48.5 -45.5t67.5 -29.5l-66 -105q-53 19 -96.5 55.5t-62.5 93.5q-25 -4 -57 -4q-95 0 -167 41.5t-111 115t-39 166.5q0 111 55 205t149 149t204 55q96 0 167.5 -41.5t110.5 -115t39 -165.5q0 -124 -67 -225zM538.5 132
q63.5 38 101.5 104t38 145q0 66 -26.5 117t-75.5 79.5t-113 28.5q-74 0 -138 -38t-101.5 -104t-37.5 -145q0 -66 26.5 -117t75 -79.5t112.5 -28.5q75 0 138.5 38z" />
    <glyph glyph-name="R" unicode="R" horiz-adv-x="595" 
d="M577.5 433q-19.5 -43 -60 -76t-100.5 -46l105 -311h-127l-94 289h-92l-67 -289h-115l162 700h217q60 0 103.5 -24.5t65.5 -65.5t22 -89q0 -45 -19.5 -88zM417 410.5q30 16.5 46 43t16 54.5q0 36 -25.5 61.5t-72.5 25.5h-102l-46 -201h113q41 0 71 16.5z" />
    <glyph glyph-name="S" unicode="S" horiz-adv-x="571" 
d="M252 458q18 -23 43 -37.5t77 -38.5q48 -23 78.5 -43.5t51.5 -55t21 -85.5q0 -68 -36.5 -116.5t-96 -73t-127.5 -24.5q-74 0 -140.5 28.5t-103.5 82.5l87 77q24 -40 72 -61.5t98 -21.5q54 0 93 25t39 71q0 28 -15.5 48t-38.5 34t-63 32q-54 25 -89 48t-58.5 61.5
t-23.5 95.5q0 70 34.5 118t90.5 71t121 23q62 0 117 -22t89 -63l-73 -77q-24 30 -61.5 46.5t-77.5 16.5q-53 0 -89.5 -26t-36.5 -76q0 -34 18 -57z" />
    <glyph glyph-name="T" unicode="T" horiz-adv-x="608" 
d="M300 0h-115l137 595h-228l24 105h573l-25 -105h-229z" />
    <glyph glyph-name="U" unicode="U" horiz-adv-x="681" 
d="M178 700h115l-100 -431q-6 -28 -6 -51q0 -59 34.5 -91.5t88.5 -32.5q41 0 80.5 19.5t69 56.5t41.5 89l103 441h115l-106 -455q-18 -81 -65.5 -140.5t-112.5 -90t-136 -30.5q-63 0 -115 25t-83 73t-31 115q0 34 9 74z" />
    <glyph glyph-name="V" unicode="V" horiz-adv-x="665" 
d="M320 0h-109l-103 700h116l74 -539l321 539h134z" />
    <glyph glyph-name="W" unicode="W" horiz-adv-x="1024" 
d="M717 0h-109l-44 500l-276 -500h-109l-71 700h120l41 -504l275 504h119l42 -504l274 504h133z" />
    <glyph glyph-name="X" unicode="X" horiz-adv-x="706" 
d="M624 0h-137l-126 259l-247 -259h-157l350 361l-173 339h135l125 -258l247 258h148l-343 -355z" />
    <glyph glyph-name="Y" unicode="Y" horiz-adv-x="646" 
d="M321 0h-115l71 302l-169 398h130l114 -288l245 288h147l-352 -399z" />
    <glyph glyph-name="Z" unicode="Z" horiz-adv-x="595" 
d="M10 95l450 500h-327l25 105h478l-21 -94l-451 -501h352l-24 -105h-505z" />
    <glyph glyph-name="bracketleft" unicode="[" horiz-adv-x="300" 
d="M-29 -156l218 944h205l-24 -102h-96l-171 -739h96l-24 -103h-204z" />
    <glyph glyph-name="backslash" unicode="\" horiz-adv-x="370" 
d="M307 2l-85 -18l-117 700l87 17z" />
    <glyph glyph-name="bracketright" unicode="]" horiz-adv-x="310" 
d="M369 788l-218 -944h-205l24 102h96l171 739h-96l24 103h204z" />
    <glyph glyph-name="asciicircum" unicode="^" horiz-adv-x="526" 
d="M459 403l-111 152l-200 -168l-70 93l298 238l175 -249z" />
    <glyph glyph-name="underscore" unicode="_" horiz-adv-x="493" 
d="M403 102l-23 -102h-383l23 102h383z" />
    <glyph glyph-name="grave" unicode="`" horiz-adv-x="276" 
d="M348 599l-250 76l27 97l253 -77z" />
    <glyph glyph-name="a" unicode="a" horiz-adv-x="673" 
d="M593 101l26 -81q-19 -14 -44.5 -22t-50.5 -8q-38 0 -66 22t-33 65q-37 -48 -89 -68t-101 -20q-64 0 -109 31.5t-68 83.5t-23 113q0 77 35 146t99.5 111.5t148.5 42.5q61 0 105 -23.5t59 -62.5l16 73h109l-83 -361q-2 -7 -2 -19q0 -17 9 -25.5t23 -8.5q15 0 39 11z
M362 119q41 29 63 74.5t22 93.5q0 56 -31 93.5t-92 37.5q-54 0 -94.5 -29t-62 -75t-21.5 -94q0 -56 30.5 -93t91.5 -37q53 0 94 29z" />
    <glyph glyph-name="b" unicode="b" horiz-adv-x="623" 
d="M501 487.5q47 -29.5 71 -79.5t24 -109q0 -75 -35.5 -146.5t-101 -117.5t-151.5 -46q-57 0 -102.5 21.5t-67.5 63.5l-18 -74h-108l162 700h110l-57 -248q63 65 161 65q66 0 113 -29.5zM401.5 117.5q40.5 27.5 62 72t21.5 92.5q0 57 -32.5 96.5t-90.5 39.5q-48 0 -90.5 -24
t-69 -68t-26.5 -101q0 -69 36.5 -102t94.5 -33q54 0 94.5 27.5z" />
    <glyph glyph-name="c" unicode="c" horiz-adv-x="551" 
d="M226 388.5q-39 -26.5 -58.5 -68.5t-20.5 -88q0 -58 34 -98t95 -40q43 0 85 21.5t72 68.5l78 -60q-41 -65 -109.5 -100t-141.5 -35q-71 0 -121.5 33.5t-75.5 88.5t-25 119q0 72 33 138t98 107.5t155 41.5q132 0 201 -101l-82 -69q-18 35 -50.5 51.5t-73.5 16.5
q-54 0 -93 -26.5z" />
    <glyph glyph-name="d" unicode="d" horiz-adv-x="621" 
d="M493 0h-109l15 65q-34 -42 -77 -59t-87 -17q-64 0 -109 31.5t-68 83.5t-23 113q0 77 35 146t99.5 111.5t148.5 42.5q60 0 104 -22t60 -63l62 268h110zM362 119q41 29 63 74.5t22 93.5q0 56 -31 93.5t-92 37.5q-54 0 -94.5 -29t-62 -75t-21.5 -94q0 -56 30.5 -93t91.5 -37
q53 0 94 29z" />
    <glyph glyph-name="e" unicode="e" horiz-adv-x="566" 
d="M364 110.5q40 17.5 70 53.5l65 -72q-50 -52 -110 -77.5t-125 -25.5q-74 0 -125 32.5t-76.5 86.5t-25.5 118q0 73 33 140t96 109t149 42q59 0 108 -23t78.5 -70.5t29.5 -116.5q0 -32 -3.5 -50.5t-7.5 -32.5l-6 -21h-365q2 -55 40 -82.5t92 -27.5q43 0 83 17.5zM215.5 386
q-43.5 -32 -57.5 -91h262q1 7 1 19q0 51 -31.5 77.5t-78.5 26.5q-52 0 -95.5 -32z" />
    <glyph glyph-name="f" unicode="f" horiz-adv-x="402" 
d="M263.5 684.5q51.5 33.5 116.5 33.5q74 0 125 -43l-61 -77q-27 23 -61 23q-30 0 -53.5 -19.5t-32.5 -55.5l-10 -42h131l-23 -102h-131l-93 -402h-110l92 402h-98l24 102h98l18 75q17 72 68.5 105.5z" />
    <glyph glyph-name="g" unicode="g" horiz-adv-x="622" 
d="M501 -9q-18 -76 -62.5 -126.5t-102.5 -75t-119 -24.5q-92 0 -155 52t-77 139l91 37q7 -63 49 -94.5t100 -31.5q65 0 111 38.5t62 110.5l14 60q-64 -61 -154 -61q-69 0 -118 32.5t-74 85t-25 113.5q0 69 32 131t92.5 101t143.5 39q57 0 105 -20.5t79 -66.5l16 74h112z
M366 137.5q42 21.5 68 61t26 91.5q0 65 -39 96.5t-97 31.5q-54 0 -93.5 -25t-60 -64t-20.5 -81q0 -55 34.5 -93.5t95.5 -38.5q44 0 86 21.5z" />
    <glyph glyph-name="h" unicode="h" horiz-adv-x="575" 
d="M498.5 482q45.5 -35 45.5 -100q0 -26 -5 -49l-77 -333h-111l71 300q3 13 5 35q0 37 -20.5 56.5t-57.5 19.5q-53 0 -100.5 -38.5t-65.5 -111.5l-60 -261h-111l161 700h110l-61 -266q30 41 75 62t92 21q64 0 109.5 -35z" />
    <glyph glyph-name="i" unicode="i" horiz-adv-x="274" 
d="M168.5 716.5q22.5 22.5 56.5 22.5t57.5 -22.5t23.5 -56.5t-23.5 -56.5t-57.5 -22.5t-56.5 22.5t-22.5 56.5t22.5 56.5zM142 504h110l-117 -504h-110z" />
    <glyph glyph-name="j" unicode="j" horiz-adv-x="303" 
d="M188.5 716.5q22.5 22.5 56.5 22.5t57 -22.5t23 -56.5t-23 -56.5t-57 -22.5t-56.5 22.5t-22.5 56.5t22.5 56.5zM138 -78q-18 -80 -63.5 -118t-107.5 -38q-60 0 -112 30l45 88q25 -21 59 -21q54 0 72 74l131 567h110z" />
    <glyph glyph-name="k" unicode="k" horiz-adv-x="559" 
d="M506 0h-142l-188 228l-53 -228h-111l162 700h110l-94 -408l265 212h163l-322 -252z" />
    <glyph glyph-name="l" unicode="l" horiz-adv-x="324" 
d="M176 -9q-59 0 -98 32t-39 94q0 19 7 52l122 531h111l-124 -536q-4 -15 -4 -28q0 -26 15 -38t40 -12q20 0 41 9l22 -83q-45 -21 -93 -21z" />
    <glyph glyph-name="m" unicode="m" horiz-adv-x="841" 
d="M728 0h-111l71 301q4 19 4 39q0 34 -19.5 52.5t-49.5 18.5q-47 0 -82.5 -33.5t-49.5 -95.5l-65 -282h-111l70 303q4 19 4 38q0 32 -19 51t-49 19q-47 0 -83 -33.5t-49 -92.5l-66 -285h-111l116 504h109l-15 -67q26 38 66 59t82 21q45 0 79.5 -24.5t46.5 -69.5
q25 45 71 69.5t97 24.5q61 0 104 -35.5t43 -99.5q0 -22 -6 -48z" />
    <glyph glyph-name="n" unicode="n" horiz-adv-x="575" 
d="M499.5 481q45.5 -36 45.5 -103q0 -21 -6 -45l-77 -333h-111l71 300q5 22 5 36q0 37 -20.5 56t-57.5 19q-53 0 -100.5 -38.5t-65.5 -111.5l-60 -261h-111l116 504h109l-17 -72q29 42 74.5 63.5t94.5 21.5q65 0 110.5 -36z" />
    <glyph glyph-name="o" unicode="o" horiz-adv-x="598" 
d="M459 487q53 -30 81 -82.5t28 -118.5q0 -81 -41 -149t-110.5 -108t-150.5 -40q-69 0 -121.5 30t-81 82.5t-28.5 118.5q0 81 40.5 149t110 108t150.5 40q70 0 123 -30zM234.5 391q-40.5 -24 -64.5 -66t-24 -92q0 -62 36.5 -101t98.5 -39q48 0 89 24t64.5 66t23.5 92
q0 63 -36.5 101.5t-98.5 38.5q-48 0 -88.5 -24z" />
    <glyph glyph-name="p" unicode="p" horiz-adv-x="622" 
d="M499.5 483.5q47.5 -29.5 71.5 -78.5t24 -106q0 -75 -35.5 -146.5t-101 -117.5t-151.5 -46q-57 0 -101.5 21t-66.5 64l-67 -295h-111l167 725h109l-15 -64q30 37 70.5 55t94.5 18q65 0 112.5 -29.5zM400.5 117.5q40.5 27.5 62 72t21.5 92.5q0 55 -32.5 93.5t-90.5 38.5
q-57 0 -99.5 -27.5t-65 -70.5t-22.5 -89q0 -58 33.5 -97.5t98.5 -39.5q54 0 94.5 27.5z" />
    <glyph glyph-name="q" unicode="q" horiz-adv-x="622" 
d="M443 -221h-111l64 276q-60 -66 -161 -66q-64 0 -109 31.5t-68 83.5t-23 113q0 75 35 143t99.5 110.5t148.5 42.5q64 0 107 -24.5t57 -68.5l18 84h109zM362 119q41 29 63 74.5t22 93.5q0 53 -31 90t-92 37q-54 0 -94.5 -29t-62 -74t-21.5 -91q0 -56 30.5 -93t91.5 -37
q53 0 94 29z" />
    <glyph glyph-name="r" unicode="r" horiz-adv-x="382" 
d="M429 499l-50 -112q-27 13 -61 13q-46 0 -81.5 -29.5t-49.5 -91.5l-64 -279h-111l116 504h109l-14 -61q26 35 64.5 51.5t78.5 16.5q34 0 63 -12z" />
    <glyph glyph-name="s" unicode="s" horiz-adv-x="490" 
d="M417.5 67.5q-32.5 -38.5 -85.5 -58.5t-113 -20q-68 0 -127.5 25.5t-94.5 72.5l81 78q24 -37 68 -57t91 -20q41 0 69.5 14.5t28.5 40.5q0 16 -12 26.5t-27.5 15.5t-54.5 16q-75 20 -120 53.5t-45 105.5q0 78 56.5 117.5t141.5 39.5q54 0 104.5 -15t87.5 -43l-59 -86
q-23 22 -58 34.5t-72 12.5q-39 0 -64.5 -14.5t-25.5 -43.5q0 -21 15 -34.5t35.5 -20t63.5 -17.5q47 -11 77 -23.5t51 -38t21 -68.5q0 -54 -32.5 -92.5z" />
    <glyph glyph-name="t" unicode="t" horiz-adv-x="430" 
d="M306 -1.5q-33 -8.5 -63 -8.5q-64 0 -104 34.5t-40 98.5q0 22 6 47l54 232h-109l23 102h109l30 129h110l-29 -129h141l-24 -102h-141l-55 -239q-3 -13 -3 -25q0 -26 15 -39t41 -13q33 0 72 18l28 -80q-28 -17 -61 -25.5z" />
    <glyph glyph-name="u" unicode="u" horiz-adv-x="569" 
d="M451 0h-108l16 69q-56 -80 -150 -80q-69 0 -114.5 44t-45.5 119q0 30 7 58l67 294h109l-67 -292q-4 -17 -4 -34q0 -38 22.5 -57.5t60.5 -19.5q52 0 95 37t59 109l60 257h109z" />
    <glyph glyph-name="v" unicode="v" horiz-adv-x="532" 
d="M268 0h-108l-87 504h115l54 -366l215 366h128z" />
    <glyph glyph-name="w" unicode="w" horiz-adv-x="876" 
d="M620 0h-108l-52 330l-203 -330h-109l-70 504h114l40 -348l206 348h113l48 -348l194 348h131z" />
    <glyph glyph-name="x" unicode="x" horiz-adv-x="604" 
d="M529 0h-141l-93 169l-172 -169h-156l276 263l-144 241h142l91 -162l166 162h149l-265 -252z" />
    <glyph glyph-name="y" unicode="y" horiz-adv-x="601" 
d="M480 -9q-18 -76 -60 -126.5t-97 -74.5t-112 -24t-107.5 23t-84 66.5t-42.5 100.5l101 37q10 -59 47 -92t89 -33q60 0 102.5 35.5t59.5 106.5l17 72q-29 -40 -72.5 -58.5t-89.5 -18.5q-67 0 -113 41.5t-46 117.5q0 30 7 61l65 279h110l-60 -262q-6 -27 -6 -48
q0 -40 21 -61t58 -21q55 0 102.5 40t63.5 110l57 242h109z" />
    <glyph glyph-name="z" unicode="z" horiz-adv-x="536" 
d="M21 104l343 296h-263l25 104h417l-25 -105l-339 -295h287l-23 -104h-445z" />
    <glyph glyph-name="braceleft" unicode="{" horiz-adv-x="358" 
d="M274 746.5q60 35.5 128 35.5l-9 -94q-29 0 -55.5 -16.5t-34.5 -50.5l-45 -195q-10 -46 -43.5 -75t-70.5 -35q28 -5 47.5 -26t19.5 -56q0 -13 -3 -28l-46 -195q-2 -6 -2 -17q0 -25 17.5 -37.5t42.5 -12.5l-32 -86q-58 0 -99 27t-41 84q0 19 4 38l44 193q4 20 4 26
q0 45 -61 45l23 98q74 0 89 71l45 193q18 78 78 113.5z" />
    <glyph glyph-name="bar" unicode="|" horiz-adv-x="298" 
d="M114 -135h-108l203 880h108z" />
    <glyph glyph-name="braceright" unicode="}" horiz-adv-x="364" 
d="M116 -105.5q-60 -35.5 -128 -35.5l9 94q29 0 55.5 16.5t34.5 50.5l45 195q10 46 43.5 75t70.5 35q-28 5 -47.5 26t-19.5 56q0 13 3 28l46 195q2 6 2 17q0 25 -17.5 37.5t-42.5 12.5l32 86q58 0 99 -27t41 -84q0 -19 -4 -38l-44 -193q-4 -20 -4 -26q0 -45 61 -45l-23 -98
q-74 0 -89 -71l-45 -193q-18 -78 -78 -113.5z" />
    <glyph glyph-name="asciitilde" unicode="~" horiz-adv-x="637" 
d="M112.5 372.5q48.5 40.5 110.5 40.5q36 0 67 -12.5t75 -37.5q30 -18 50.5 -27t38.5 -9q23 0 42 17t36 55l92 -53q-21 -62 -66.5 -105t-109.5 -43q-36 0 -66 13t-69 38q-29 19 -49.5 28.5t-40.5 9.5q-51 0 -94 -76l-91 56q26 65 74.5 105.5z" />
    <glyph glyph-name="exclamdown" unicode="&#xa1;" horiz-adv-x="331" 
d="M284 488.5q-22 -22.5 -55 -22.5q-34 0 -56.5 22.5t-22.5 56.5q0 33 22.5 55.5t56.5 22.5q33 0 55 -22.5t22 -55.5q0 -34 -22 -56.5zM248 400l-109 -524h-122l134 524h97z" />
    <glyph glyph-name="cent" unicode="&#xa2;" horiz-adv-x="551" 
d="M361 115.5q42 21.5 72 68.5l78 -60q-40 -63 -105 -98t-136 -37l-22 -93h-82l25 103q-74 22 -113.5 86t-39.5 145q0 70 31.5 135t93 107t147.5 45l20 87h82l-22 -94q86 -21 135 -94l-82 -69q-18 35 -50.5 51.5t-73.5 16.5q-54 0 -93 -26.5t-58.5 -68.5t-20.5 -88
q0 -58 34 -98t95 -40q43 0 85 21.5z" />
    <glyph glyph-name="sterling" unicode="&#xa3;" horiz-adv-x="682" 
d="M571 176l77 -50q-41 -70 -92 -106t-107 -36q-40 0 -78 19t-76 56q-29 -37 -62 -56t-75 -19q-63 0 -97.5 38t-34.5 90q0 34 15.5 65t46.5 50t73 19q30 0 58.5 -9.5t48.5 -27.5q12 27 21 71q1 5 5 22l22 100h-98l24 102h98l18 75q17 72 68.5 105.5t116.5 33.5q74 0 125 -43
l-61 -77q-27 23 -61 23q-31 0 -54.5 -20t-31.5 -55l-10 -42h131l-23 -102h-131l-33 -140q-10 -40 -19.5 -69t-23.5 -51q6 -5 26 -21t39 -24t38 -8q65 0 117 87zM207 93.5q20 14.5 32 37.5q-14 16 -32 24t-34 8q-23 0 -36.5 -13.5t-13.5 -30.5q0 -16 11 -28t31 -12
q22 0 42 14.5z" />
    <glyph glyph-name="currency" unicode="&#xa4;" horiz-adv-x="715" 
d="M533 159l99 -114l-64 -57l-96 114q-64 -42 -139 -42q-71 0 -121 41l-129 -113l-52 61l132 115q-20 43 -20 95q0 89 55 160l-99 114l65 56l96 -113q63 41 137 41q72 0 122 -42l130 114l51 -60l-133 -117q20 -42 20 -94q0 -89 -54 -159zM420.5 176.5q33.5 19.5 53.5 53.5
t20 75q0 50 -30.5 82t-80.5 32q-40 0 -73.5 -19.5t-53 -53.5t-19.5 -75q0 -50 30 -82t80 -32q40 0 73.5 19.5z" />
    <glyph glyph-name="yen" unicode="&#xa5;" horiz-adv-x="646" 
d="M396 306h150l-18 -79h-153l-19 -80h154l-18 -80h-155l-16 -67h-115l16 67h-152l18 80h153l18 80h-153l18 79h151l-167 394h130l114 -288l245 288h147z" />
    <glyph glyph-name="brokenbar" unicode="&#xa6;" horiz-adv-x="300" 
d="M228 354h-108l90 391h109zM115 -135h-108l89 390h109z" />
    <glyph glyph-name="section" unicode="&#xa7;" horiz-adv-x="580" 
d="M520 274q13 -28 13 -69q0 -69 -36 -119t-95.5 -76t-128.5 -26q-71 0 -137.5 26.5t-107.5 75.5l85 85q25 -44 73.5 -68t100.5 -24q57 0 96 28t39 77q0 26 -14 45q-47 -33 -99 -33q-60 0 -100.5 37.5t-40.5 94.5q0 18 2 27l4 18q-28 25 -41.5 54.5t-13.5 72.5
q0 71 34.5 120t90.5 73.5t120 24.5q60 0 114 -21t90 -59l-68 -75q-23 31 -63 49t-81 18q-55 0 -93 -29.5t-38 -86.5q0 -25 9 -45q24 20 54.5 32.5t63.5 12.5q61 0 99.5 -40.5t38.5 -103.5q0 -29 -9 -45q26 -23 39 -51zM275 301.5q18 -18.5 45 -18.5q32 0 57 24t25 57
q0 27 -17.5 45t-44.5 18q-33 0 -58 -24t-25 -56q0 -27 18 -45.5z" />
    <glyph glyph-name="dieresis" unicode="&#xa8;" horiz-adv-x="380" 
d="M223 623q-21 -21 -51 -21q-31 0 -52 21t-21 51t21 51t52 21q30 0 51 -21t21 -51t-21 -51zM453.5 623q-21.5 -21 -52.5 -21q-30 0 -51 21t-21 51t21 51t51 21q31 0 52.5 -21t21.5 -51t-21.5 -51z" />
    <glyph glyph-name="copyright" unicode="&#xa9;" horiz-adv-x="842" 
d="M638.5 679.5q84.5 -48.5 132.5 -134t48 -191.5t-48 -191t-132.5 -133.5t-188.5 -48.5t-188 48.5t-132.5 133.5t-48.5 191t48.5 191.5t132.5 134t188 48.5t188.5 -48.5zM604.5 79.5q69.5 40.5 109.5 112.5t40 162t-40 162t-109.5 112.5t-154.5 40.5q-84 0 -153.5 -40.5
t-109.5 -112.5t-40 -162t40 -162t109.5 -112.5t153.5 -40.5q85 0 154.5 40.5zM549.5 189q-46.5 -27 -98.5 -27q-48 0 -91.5 23t-70 67.5t-26.5 105.5q0 62 27 106t71 66.5t94 22.5q43 0 83.5 -19t68.5 -55l-56 -52q-16 26 -40.5 38t-52.5 12q-46 0 -80 -31.5t-34 -86.5
q0 -56 33.5 -88t78.5 -32q30 0 59 16t46 51l61 -41q-26 -49 -72.5 -76z" />
    <glyph glyph-name="ordfeminine" unicode="&#xaa;" horiz-adv-x="599" 
d="M565 410l27 -78q-17 -18 -45 -28t-55 -10q-35 0 -60 18.5t-27 54.5q-17 -30 -56 -51t-87 -21q-51 0 -89.5 26t-59 69.5t-20.5 92.5q0 59 29 113t85 88t133 34q40 0 68 -11.5t47 -37.5l9 43h105l-62 -272q-2 -10 -2 -13q0 -14 8 -21t20 -7q18 0 32 11zM356.5 414.5
q29.5 20.5 46.5 52.5t17 66q0 39 -22.5 63.5t-69.5 24.5q-41 0 -70.5 -18.5t-44.5 -48t-15 -61.5q0 -41 23.5 -70t68.5 -29q37 0 66.5 20.5z" />
    <glyph glyph-name="guillemotleft" unicode="&#xab;" horiz-adv-x="600" 
d="M247 116l-91 -64l-140 226l244 225l73 -76l-176 -164zM513 116l-91 -64l-140 226l244 225l73 -76l-176 -164z" />
    <glyph glyph-name="logicalnot" unicode="&#xac;" horiz-adv-x="494" 
d="M456 327l-46 -199h-106l23 98h-278l24 101h383z" />
    <glyph glyph-name="registered" unicode="&#xae;" horiz-adv-x="842" 
d="M638.5 679.5q84.5 -48.5 132.5 -134t48 -191.5t-48 -191t-132.5 -133.5t-188.5 -48.5t-188 48.5t-132.5 133.5t-48.5 191t48.5 191.5t132.5 134t188 48.5t188.5 -48.5zM604.5 79.5q69.5 40.5 109.5 112.5t40 162t-40 162t-109.5 112.5t-154.5 40.5q-84 0 -153.5 -40.5
t-109.5 -112.5t-40 -162t40 -162t109.5 -112.5t153.5 -40.5q85 0 154.5 40.5zM571 360q-19 -29 -56 -40l87 -132h-88l-70 112h-44v-112h-73v348h139q58 0 91 -33t33 -78q0 -36 -19 -65zM504.5 386q12.5 14 12.5 34q0 19 -12.5 32.5t-37.5 13.5h-67v-94h66q26 0 38.5 14z" />
    <glyph glyph-name="macron" unicode="&#xaf;" horiz-adv-x="297" 
d="M400 699l-23 -99h-296l22 99h297z" />
    <glyph glyph-name="degree" unicode="&#xb0;" horiz-adv-x="472" 
d="M139.5 625q24.5 43 66.5 68t93 25t94 -25t68 -68t25 -94t-25 -93t-68 -66.5t-94 -24.5t-93 24.5t-66.5 66.5t-24.5 93t24.5 94zM240 469.5q24 -23.5 60 -23.5q35 0 58 23.5t23 60.5t-23 61t-58 24q-36 0 -60 -24t-24 -61t24 -60.5z" />
    <glyph glyph-name="plusminus" unicode="&#xb1;" horiz-adv-x="460" 
d="M36 177h366l-23 -101h-367zM217 406h-131l24 101h131l31 134h104l-31 -134h131l-23 -101h-131l-31 -135h-104z" />
    <glyph glyph-name="acute" unicode="&#xb4;" horiz-adv-x="284" 
d="M353 762l27 -97l-250 -76l-30 96z" />
    <glyph glyph-name="paragraph" unicode="&#xb6;" horiz-adv-x="585" 
d="M452 0h-80l138 595h-71l-137 -595h-80l67 289h-13q-61 0 -104.5 25.5t-66 67.5t-22.5 91q0 57 28.5 109t84 85t131.5 33h287zM360 595h-42q-54 0 -84.5 -31.5t-30.5 -76.5q0 -39 24 -66.5t68 -27.5h18z" />
    <glyph glyph-name="periodcentered" unicode="&#xb7;" horiz-adv-x="237" 
d="M195.5 393.5q23.5 -23.5 23.5 -58.5q0 -34 -24 -58t-58 -24q-33 0 -57 24t-24 58t24 58t57 24q35 0 58.5 -23.5z" />
    <glyph glyph-name="cedilla" unicode="&#xb8;" horiz-adv-x="261" 
d="M137.5 -78.5q29.5 -29.5 29.5 -67.5q0 -28 -16 -53t-46 -40.5t-70 -15.5q-38 0 -75 16t-63 45l48 51q20 -22 43 -33.5t45 -11.5q26 0 44.5 12.5t18.5 35.5q0 31 -33 45t-80 19l36 115h60l-27 -79q56 -9 85.5 -38.5z" />
    <glyph glyph-name="ordmasculine" unicode="&#xba;" horiz-adv-x="503" 
d="M436 693.5q43 -24.5 66.5 -67.5t23.5 -96q0 -64 -34 -119.5t-90 -88t-121 -32.5q-56 0 -98.5 24.5t-66 68t-23.5 96.5q0 64 33.5 119t90 87.5t120.5 32.5q56 0 99 -24.5zM262 601q-29 -17 -46 -46t-17 -64q0 -44 26 -71.5t70 -27.5q33 0 61.5 17t45.5 46t17 64
q0 44 -25.5 71.5t-68.5 27.5q-34 0 -63 -17z" />
    <glyph glyph-name="guillemotright" unicode="&#xbb;" horiz-adv-x="618" 
d="M93 439l91 64l140 -226l-244 -225l-73 76l176 164zM359 439l91 64l140 -226l-244 -225l-73 76l176 164z" />
    <glyph glyph-name="onequarter" unicode="&#xbc;" horiz-adv-x="925" 
d="M165 46l556 670l60 -45l-557 -671zM222 616h-53l19 83h145l-98 -424h-92zM813 95h-61l-21 -95h-93l22 95h-182l18 78l236 251h96l-57 -248h61zM600 176h79l26 111z" />
    <glyph glyph-name="onehalf" unicode="&#xbd;" horiz-adv-x="957" 
d="M823 0h-295l17 73l181 149q34 28 49.5 49.5t15.5 42.5q0 18 -12.5 31t-31.5 13q-23 0 -44 -16t-31 -42l-72 33q19 48 64 77.5t99 29.5q56 0 92.5 -32t36.5 -81q0 -48 -31.5 -88.5t-82.5 -79.5l-99 -78h164zM165 46l556 670l60 -45l-557 -671zM222 616h-53l19 83h145
l-98 -424h-92z" />
    <glyph glyph-name="threequarters" unicode="&#xbe;" horiz-adv-x="1047" 
d="M420 411q0 -38 -23 -71t-62 -52t-84 -19q-51 0 -89 26t-51 69l81 42q1 -25 19 -40.5t46 -15.5q29 0 49.5 16.5t20.5 40.5q0 26 -27 39t-79 12l19 79l17 -1q44 0 70.5 17t26.5 45q0 17 -10.5 27t-28.5 10q-21 0 -42.5 -14t-34.5 -36l-65 45q22 40 64 63t91 23q54 0 88 -27
t34 -71q0 -38 -23.5 -70.5t-62.5 -48.5q56 -27 56 -88zM284 46l556 670l60 -45l-557 -671zM935 95h-61l-21 -95h-93l22 95h-182l18 78l236 251h96l-57 -248h61zM722 176h79l26 111z" />
    <glyph glyph-name="questiondown" unicode="&#xbf;" horiz-adv-x="522" 
d="M397 470.5q-22 -22.5 -56 -22.5t-56.5 22.5t-22.5 56.5q0 33 22.5 55.5t56.5 22.5t56 -22.5t22 -55.5q0 -34 -22 -56.5zM257 373h112l-41 -174h-58q-55 0 -95 -20t-60 -50.5t-20 -63.5q0 -36 25 -60.5t71 -24.5q39 0 80 18t67 52l73 -64q-45 -54 -105.5 -82t-125.5 -28
q-62 0 -106.5 24t-67.5 64t-23 86q0 52 29 100.5t86 81.5t136 40z" />
    <glyph glyph-name="Agrave" unicode="&#xc0;" horiz-adv-x="698" 
d="M490 177h-288l-106 -177h-129l434 700h117l112 -700h-116zM475 282l-40 282l-170 -282h210zM544 759l-250 76l27 97l253 -77z" />
    <glyph glyph-name="Aacute" unicode="&#xc1;" horiz-adv-x="698" 
d="M490 177h-288l-106 -177h-129l434 700h117l112 -700h-116zM475 282l-40 282l-170 -282h210zM615 933l27 -97l-250 -76l-30 96z" />
    <glyph glyph-name="Acircumflex" unicode="&#xc2;" horiz-adv-x="698" 
d="M490 177h-288l-106 -177h-129l434 700h117l112 -700h-116zM475 282l-40 282l-170 -282h210zM581 750l-92 81l-137 -81l-58 72l209 122l149 -129z" />
    <glyph glyph-name="Atilde" unicode="&#xc3;" horiz-adv-x="698" 
d="M490 177h-288l-106 -177h-129l434 700h117l112 -700h-116zM475 282l-40 282l-170 -282h210zM608.5 786.5q-25.5 -25.5 -57.5 -25.5q-17 0 -33.5 8t-36.5 22q-18 12 -29 17.5t-22 5.5q-15 0 -31 -13t-37 -37l-64 53q22 35 57 65.5t74 30.5q18 0 33.5 -7t38.5 -21
q18 -11 28 -15.5t20 -4.5q14 0 25.5 11t26.5 31l62 -49q-29 -46 -54.5 -71.5z" />
    <glyph glyph-name="Adieresis" unicode="&#xc4;" horiz-adv-x="698" 
d="M490 177h-288l-106 -177h-129l434 700h117l112 -700h-116zM475 282l-40 282l-170 -282h210zM415 782q-21 -21 -51 -21q-31 0 -52 21t-21 51t21 51t52 21q30 0 51 -21t21 -51t-21 -51zM645.5 782q-21.5 -21 -52.5 -21q-30 0 -51 21t-21 51t21 51t51 21q31 0 52.5 -21
t21.5 -51t-21.5 -51z" />
    <glyph glyph-name="Aring" unicode="&#xc5;" horiz-adv-x="698" 
d="M490 177h-288l-106 -177h-129l434 700h117l112 -700h-116zM475 282l-40 282l-170 -282h210zM401 918q31 32 78 32q46 0 79 -32.5t33 -77.5q0 -47 -32.5 -78.5t-79.5 -31.5t-78 31.5t-31 78.5q0 46 31 78zM444 802.5q13 -14.5 35 -14.5t35.5 14.5t13.5 36.5t-13.5 36.5
t-35.5 14.5t-35 -14.5t-13 -36.5t13 -36.5z" />
    <glyph glyph-name="AE" unicode="&#xc6;" horiz-adv-x="938" 
d="M687 595l-43 -193h226l-24 -105h-227l-44 -192h294l-24 -105h-410l41 177h-255l-117 -177h-137l478 700h553l-24 -105h-287zM500 282l74 317h-73l-210 -317h209z" />
    <glyph glyph-name="Ccedilla" unicode="&#xc7;" horiz-adv-x="758" 
d="M521.5 135.5q66.5 41.5 111.5 121.5l90 -54q-64 -106 -157 -161.5t-189 -57.5l-12 -35q56 -9 85.5 -38.5t29.5 -67.5q0 -28 -16 -53t-46 -40.5t-70 -15.5q-38 0 -75 16t-63 45l48 51q20 -22 43 -33.5t45 -11.5q26 0 44.5 12.5t18.5 35.5q0 31 -33 45t-80 19l23 74
q-80 12 -136 58t-84.5 114t-28.5 146q0 103 48 197.5t141.5 154t224.5 59.5q82 0 149 -30.5t116 -89.5l-83 -77q-31 42 -83 65t-112 23q-91 0 -155.5 -42t-97.5 -108.5t-33 -138.5q0 -60 23 -111t67.5 -82t107.5 -31q72 0 138.5 41.5z" />
    <glyph glyph-name="Egrave" unicode="&#xc8;" horiz-adv-x="541" 
d="M279 595l-44 -193h238l-25 -105h-237l-45 -192h306l-25 -105h-420l162 700h411l-24 -105h-297zM502 759l-250 76l27 97l253 -77z" />
    <glyph glyph-name="Eacute" unicode="&#xc9;" horiz-adv-x="541" 
d="M279 595l-44 -193h238l-25 -105h-237l-45 -192h306l-25 -105h-420l162 700h411l-24 -105h-297zM573 933l27 -97l-250 -76l-30 96z" />
    <glyph glyph-name="Ecircumflex" unicode="&#xca;" horiz-adv-x="541" 
d="M279 595l-44 -193h238l-25 -105h-237l-45 -192h306l-25 -105h-420l162 700h411l-24 -105h-297zM517 750l-92 81l-137 -81l-58 72l209 122l149 -129z" />
    <glyph glyph-name="Edieresis" unicode="&#xcb;" horiz-adv-x="541" 
d="M279 595l-44 -193h238l-25 -105h-237l-45 -192h306l-25 -105h-420l162 700h411l-24 -105h-297zM356 782q-21 -21 -51 -21q-31 0 -52 21t-21 51t21 51t52 21q30 0 51 -21t21 -51t-21 -51zM586.5 782q-21.5 -21 -52.5 -21q-30 0 -51 21t-21 51t21 51t51 21q31 0 52.5 -21
t21.5 -51t-21.5 -51z" />
    <glyph glyph-name="Igrave" unicode="&#xcc;" horiz-adv-x="285" 
d="M193 700h115l-161 -700h-115zM334 759l-250 76l27 97l253 -77z" />
    <glyph glyph-name="Iacute" unicode="&#xcd;" horiz-adv-x="285" 
d="M193 700h115l-161 -700h-115zM411 933l27 -97l-250 -76l-30 96z" />
    <glyph glyph-name="Icircumflex" unicode="&#xce;" horiz-adv-x="285" 
d="M193 700h115l-161 -700h-115zM380 750l-92 81l-137 -81l-58 72l209 122l149 -129z" />
    <glyph glyph-name="Idieresis" unicode="&#xcf;" horiz-adv-x="285" 
d="M193 700h115l-161 -700h-115zM214 782q-21 -21 -51 -21q-31 0 -52 21t-21 51t21 51t52 21q30 0 51 -21t21 -51t-21 -51zM444.5 782q-21.5 -21 -52.5 -21q-30 0 -51 21t-21 51t21 51t51 21q31 0 52.5 -21t21.5 -51t-21.5 -51z" />
    <glyph glyph-name="Eth" unicode="&#xd0;" horiz-adv-x="729" 
d="M575 658.5q72 -41.5 107.5 -110t35.5 -149.5q0 -101 -53 -193t-155.5 -149t-243.5 -57h-235l72 311h-125l19 79h124l72 310h205q105 0 177 -41.5zM456.5 148q69.5 43 106 110.5t36.5 138.5q0 54 -22 99t-67 72t-110 27h-117l-47 -205h149l-19 -79h-148l-48 -206h123
q94 0 163.5 43z" />
    <glyph glyph-name="Ntilde" unicode="&#xd1;" horiz-adv-x="741" 
d="M608 0h-115l-232 519l-119 -519h-115l161 700h115l234 -510l117 510h115zM636.5 786.5q-25.5 -25.5 -57.5 -25.5q-17 0 -33.5 8t-36.5 22q-18 12 -29 17.5t-22 5.5q-15 0 -31 -13t-37 -37l-64 53q22 35 57 65.5t74 30.5q18 0 33.5 -7t38.5 -21q18 -11 28 -15.5t20 -4.5
q14 0 25.5 11t26.5 31l62 -49q-29 -46 -54.5 -71.5z" />
    <glyph glyph-name="Ograve" unicode="&#xd2;" 
d="M645.5 674.5q71.5 -41.5 110.5 -115t39 -165.5q0 -112 -55.5 -206t-149 -149t-203.5 -55q-95 0 -167 41.5t-111 115t-39 166.5q0 111 55 205t149 149t204 55q96 0 167.5 -41.5zM325 568q-64 -38 -101.5 -104t-37.5 -145q0 -66 26.5 -117t75 -79.5t112.5 -28.5
q75 0 138.5 38t101.5 104t38 145q0 66 -26.5 117t-75.5 79.5t-113 28.5q-74 0 -138 -38zM613 759l-250 76l27 97l253 -77z" />
    <glyph glyph-name="Oacute" unicode="&#xd3;" 
d="M645.5 674.5q71.5 -41.5 110.5 -115t39 -165.5q0 -112 -55.5 -206t-149 -149t-203.5 -55q-95 0 -167 41.5t-111 115t-39 166.5q0 111 55 205t149 149t204 55q96 0 167.5 -41.5zM325 568q-64 -38 -101.5 -104t-37.5 -145q0 -66 26.5 -117t75 -79.5t112.5 -28.5
q75 0 138.5 38t101.5 104t38 145q0 66 -26.5 117t-75.5 79.5t-113 28.5q-74 0 -138 -38zM711 933l27 -97l-250 -76l-30 96z" />
    <glyph glyph-name="Ocircumflex" unicode="&#xd4;" 
d="M645.5 674.5q71.5 -41.5 110.5 -115t39 -165.5q0 -112 -55.5 -206t-149 -149t-203.5 -55q-95 0 -167 41.5t-111 115t-39 166.5q0 111 55 205t149 149t204 55q96 0 167.5 -41.5zM325 568q-64 -38 -101.5 -104t-37.5 -145q0 -66 26.5 -117t75 -79.5t112.5 -28.5
q75 0 138.5 38t101.5 104t38 145q0 66 -26.5 117t-75.5 79.5t-113 28.5q-74 0 -138 -38zM625 750l-92 81l-137 -81l-58 72l209 122l149 -129z" />
    <glyph glyph-name="Otilde" unicode="&#xd5;" 
d="M645.5 674.5q71.5 -41.5 110.5 -115t39 -165.5q0 -112 -55.5 -206t-149 -149t-203.5 -55q-95 0 -167 41.5t-111 115t-39 166.5q0 111 55 205t149 149t204 55q96 0 167.5 -41.5zM325 568q-64 -38 -101.5 -104t-37.5 -145q0 -66 26.5 -117t75 -79.5t112.5 -28.5
q75 0 138.5 38t101.5 104t38 145q0 66 -26.5 117t-75.5 79.5t-113 28.5q-74 0 -138 -38zM652.5 786.5q-25.5 -25.5 -57.5 -25.5q-17 0 -33.5 8t-36.5 22q-18 12 -29 17.5t-22 5.5q-15 0 -31 -13t-37 -37l-64 53q22 35 57 65.5t74 30.5q18 0 33.5 -7t38.5 -21
q18 -11 28 -15.5t20 -4.5q14 0 25.5 11t26.5 31l62 -49q-29 -46 -54.5 -71.5z" />
    <glyph glyph-name="Odieresis" unicode="&#xd6;" 
d="M645.5 674.5q71.5 -41.5 110.5 -115t39 -165.5q0 -112 -55.5 -206t-149 -149t-203.5 -55q-95 0 -167 41.5t-111 115t-39 166.5q0 111 55 205t149 149t204 55q96 0 167.5 -41.5zM325 568q-64 -38 -101.5 -104t-37.5 -145q0 -66 26.5 -117t75 -79.5t112.5 -28.5
q75 0 138.5 38t101.5 104t38 145q0 66 -26.5 117t-75.5 79.5t-113 28.5q-74 0 -138 -38zM444 782q-21 -21 -51 -21q-31 0 -52 21t-21 51t21 51t52 21q30 0 51 -21t21 -51t-21 -51zM674.5 782q-21.5 -21 -52.5 -21q-30 0 -51 21t-21 51t21 51t51 21q31 0 52.5 -21t21.5 -51
t-21.5 -51z" />
    <glyph glyph-name="multiply" unicode="&#xd7;" horiz-adv-x="404" 
d="M277 264l70 -94l-82 -63l-71 93l-118 -97l-58 74l118 96l-71 93l82 63l70 -92l121 99l57 -73z" />
    <glyph glyph-name="Oslash" unicode="&#xd8;" 
d="M741.5 584q53.5 -81 53.5 -190q0 -112 -55.5 -206t-149 -149t-203.5 -55q-35 0 -67 6l-42 -108l-65 25l40 103q-86 35 -134.5 114t-48.5 183q0 111 55 205t149 149t204 55q25 0 47 -3l38 98l65 -26l-34 -87q94 -33 147.5 -114zM215 198.5q29 -52.5 80 -79.5l188 486
q-6 1 -20 1q-74 0 -138 -38t-101.5 -104t-37.5 -145q0 -68 29 -120.5zM538.5 132q63.5 38 101.5 104t38 145q0 74 -33.5 129t-92.5 79l-191 -492q20 -3 39 -3q75 0 138.5 38z" />
    <glyph glyph-name="Ugrave" unicode="&#xd9;" horiz-adv-x="681" 
d="M178 700h115l-100 -431q-6 -28 -6 -51q0 -59 34.5 -91.5t88.5 -32.5q41 0 80.5 19.5t69 56.5t41.5 89l103 441h115l-106 -455q-18 -81 -65.5 -140.5t-112.5 -90t-136 -30.5q-63 0 -115 25t-83 73t-31 115q0 34 9 74zM514 759l-250 76l27 97l253 -77z" />
    <glyph glyph-name="Uacute" unicode="&#xda;" horiz-adv-x="681" 
d="M178 700h115l-100 -431q-6 -28 -6 -51q0 -59 34.5 -91.5t88.5 -32.5q41 0 80.5 19.5t69 56.5t41.5 89l103 441h115l-106 -455q-18 -81 -65.5 -140.5t-112.5 -90t-136 -30.5q-63 0 -115 25t-83 73t-31 115q0 34 9 74zM623 933l27 -97l-250 -76l-30 96z" />
    <glyph glyph-name="Ucircumflex" unicode="&#xdb;" horiz-adv-x="681" 
d="M178 700h115l-100 -431q-6 -28 -6 -51q0 -59 34.5 -91.5t88.5 -32.5q41 0 80.5 19.5t69 56.5t41.5 89l103 441h115l-106 -455q-18 -81 -65.5 -140.5t-112.5 -90t-136 -30.5q-63 0 -115 25t-83 73t-31 115q0 34 9 74zM566 750l-92 81l-137 -81l-58 72l209 122l149 -129z
" />
    <glyph glyph-name="Udieresis" unicode="&#xdc;" horiz-adv-x="681" 
d="M178 700h115l-100 -431q-6 -28 -6 -51q0 -59 34.5 -91.5t88.5 -32.5q41 0 80.5 19.5t69 56.5t41.5 89l103 441h115l-106 -455q-18 -81 -65.5 -140.5t-112.5 -90t-136 -30.5q-63 0 -115 25t-83 73t-31 115q0 34 9 74zM410 782q-21 -21 -51 -21q-31 0 -52 21t-21 51t21 51
t52 21q30 0 51 -21t21 -51t-21 -51zM640.5 782q-21.5 -21 -52.5 -21q-30 0 -51 21t-21 51t21 51t51 21q31 0 52.5 -21t21.5 -51t-21.5 -51z" />
    <glyph glyph-name="Yacute" unicode="&#xdd;" horiz-adv-x="646" 
d="M321 0h-115l71 302l-169 398h130l114 -288l245 288h147l-352 -399zM585 933l27 -97l-250 -76l-30 96z" />
    <glyph glyph-name="Thorn" unicode="&#xde;" horiz-adv-x="568" 
d="M483.5 570.5q44.5 -23.5 68.5 -64t24 -89.5q0 -55 -30 -109t-89 -89.5t-142 -35.5h-131l-42 -183h-115l163 700h115l-25 -106h100q59 0 103.5 -23.5zM397.5 303q30.5 17 46.5 44t16 56q0 36 -25 60.5t-71 24.5h-108l-47 -202h117q41 0 71.5 17z" />
    <glyph glyph-name="germandbls" unicode="&#xdf;" horiz-adv-x="573" 
d="M503 306.5q24 -39.5 24 -86.5q0 -54 -31 -104.5t-90.5 -83t-139.5 -32.5h-75l23 100h66q42 0 73.5 17t47.5 44t16 56q0 40 -29.5 68.5t-82.5 28.5h-31l21 94h21q37 0 69 18.5t51 48t19 61.5q0 38 -27 61t-66 23q-40 0 -73 -24t-44 -70l-122 -526h-111l127 541
q13 57 49.5 97t86 60t101.5 20q51 0 95 -19t70.5 -56.5t26.5 -89.5q0 -56 -34 -104.5t-101 -82.5q46 -20 70 -59.5z" />
    <glyph glyph-name="agrave" unicode="&#xe0;" horiz-adv-x="673" 
d="M593 101l26 -81q-19 -14 -44.5 -22t-50.5 -8q-38 0 -66 22t-33 65q-37 -48 -89 -68t-101 -20q-64 0 -109 31.5t-68 83.5t-23 113q0 77 35 146t99.5 111.5t148.5 42.5q61 0 105 -23.5t59 -62.5l16 73h109l-83 -361q-2 -7 -2 -19q0 -17 9 -25.5t23 -8.5q15 0 39 11z
M362 119q41 29 63 74.5t22 93.5q0 56 -31 93.5t-92 37.5q-54 0 -94.5 -29t-62 -75t-21.5 -94q0 -56 30.5 -93t91.5 -37q53 0 94 29zM449 599l-250 76l27 97l253 -77z" />
    <glyph glyph-name="aacute" unicode="&#xe1;" horiz-adv-x="673" 
d="M593 101l26 -81q-19 -14 -44.5 -22t-50.5 -8q-38 0 -66 22t-33 65q-37 -48 -89 -68t-101 -20q-64 0 -109 31.5t-68 83.5t-23 113q0 77 35 146t99.5 111.5t148.5 42.5q61 0 105 -23.5t59 -62.5l16 73h109l-83 -361q-2 -7 -2 -19q0 -17 9 -25.5t23 -8.5q15 0 39 11z
M362 119q41 29 63 74.5t22 93.5q0 56 -31 93.5t-92 37.5q-54 0 -94.5 -29t-62 -75t-21.5 -94q0 -56 30.5 -93t91.5 -37q53 0 94 29zM556 762l27 -97l-250 -76l-30 96z" />
    <glyph glyph-name="acircumflex" unicode="&#xe2;" horiz-adv-x="673" 
d="M593 101l26 -81q-19 -14 -44.5 -22t-50.5 -8q-38 0 -66 22t-33 65q-37 -48 -89 -68t-101 -20q-64 0 -109 31.5t-68 83.5t-23 113q0 77 35 146t99.5 111.5t148.5 42.5q61 0 105 -23.5t59 -62.5l16 73h109l-83 -361q-2 -7 -2 -19q0 -17 9 -25.5t23 -8.5q15 0 39 11z
M362 119q41 29 63 74.5t22 93.5q0 56 -31 93.5t-92 37.5q-54 0 -94.5 -29t-62 -75t-21.5 -94q0 -56 30.5 -93t91.5 -37q53 0 94 29zM473 592l-92 81l-137 -81l-58 72l209 122l149 -129z" />
    <glyph glyph-name="atilde" unicode="&#xe3;" horiz-adv-x="673" 
d="M593 101l26 -81q-19 -14 -44.5 -22t-50.5 -8q-38 0 -66 22t-33 65q-37 -48 -89 -68t-101 -20q-64 0 -109 31.5t-68 83.5t-23 113q0 77 35 146t99.5 111.5t148.5 42.5q61 0 105 -23.5t59 -62.5l16 73h109l-83 -361q-2 -7 -2 -19q0 -17 9 -25.5t23 -8.5q15 0 39 11z
M362 119q41 29 63 74.5t22 93.5q0 56 -31 93.5t-92 37.5q-54 0 -94.5 -29t-62 -75t-21.5 -94q0 -56 30.5 -93t91.5 -37q53 0 94 29zM510.5 625.5q-25.5 -25.5 -57.5 -25.5q-17 0 -33.5 8t-36.5 22q-18 12 -29 17.5t-22 5.5q-15 0 -31 -13t-37 -37l-64 53q22 35 57 65.5
t74 30.5q18 0 33.5 -7t38.5 -21q18 -11 28 -15.5t20 -4.5q14 0 25.5 11t26.5 31l62 -49q-29 -46 -54.5 -71.5z" />
    <glyph glyph-name="adieresis" unicode="&#xe4;" horiz-adv-x="673" 
d="M593 101l26 -81q-19 -14 -44.5 -22t-50.5 -8q-38 0 -66 22t-33 65q-37 -48 -89 -68t-101 -20q-64 0 -109 31.5t-68 83.5t-23 113q0 77 35 146t99.5 111.5t148.5 42.5q61 0 105 -23.5t59 -62.5l16 73h109l-83 -361q-2 -7 -2 -19q0 -17 9 -25.5t23 -8.5q15 0 39 11z
M362 119q41 29 63 74.5t22 93.5q0 56 -31 93.5t-92 37.5q-54 0 -94.5 -29t-62 -75t-21.5 -94q0 -56 30.5 -93t91.5 -37q53 0 94 29zM314 623q-21 -21 -51 -21q-31 0 -52 21t-21 51t21 51t52 21q30 0 51 -21t21 -51t-21 -51zM544.5 623q-21.5 -21 -52.5 -21q-30 0 -51 21
t-21 51t21 51t51 21q31 0 52.5 -21t21.5 -51t-21.5 -51z" />
    <glyph glyph-name="aring" unicode="&#xe5;" horiz-adv-x="673" 
d="M289 812.5q36 36.5 89 36.5q34 0 63 -17t46 -45.5t17 -62.5q0 -53 -37 -88.5t-89 -35.5q-54 0 -89.5 35.5t-35.5 88.5q0 52 36 88.5zM337 682q16 -17 41 -17q24 0 40 17t16 42q0 24 -16 41t-40 17t-40.5 -17t-16.5 -41q0 -25 16 -42zM593 101l26 -81q-19 -14 -44.5 -22
t-50.5 -8q-38 0 -66 22t-33 65q-37 -48 -89 -68t-101 -20q-64 0 -109 31.5t-68 83.5t-23 113q0 77 35 146t99.5 111.5t148.5 42.5q61 0 105 -23.5t59 -62.5l16 73h109l-83 -361q-2 -7 -2 -19q0 -17 9 -25.5t23 -8.5q15 0 39 11zM362 119q41 29 63 74.5t22 93.5
q0 56 -31 93.5t-92 37.5q-54 0 -94.5 -29t-62 -75t-21.5 -94q0 -56 30.5 -93t91.5 -37q53 0 94 29z" />
    <glyph glyph-name="ae" unicode="&#xe6;" horiz-adv-x="924" 
d="M723.5 110.5q39.5 17.5 70.5 53.5l63 -71q-49 -52 -110.5 -78t-122.5 -26q-74 0 -130.5 35t-80.5 97q-40 -61 -97.5 -96.5t-131.5 -35.5q-82 0 -125.5 44t-43.5 109q0 89 67.5 132t187.5 43h120q1 51 -29 76t-86 25q-36 0 -73 -15.5t-67 -46.5l-57 74q50 42 107.5 64.5
t112.5 22.5q61 0 109 -27t67 -77q41 55 97 79.5t116 24.5q91 0 147.5 -53.5t56.5 -156.5q0 -32 -3.5 -50.5t-7.5 -32.5l-6 -21h-363q4 -56 40.5 -83t89.5 -27q43 0 82.5 17.5zM578.5 386q-42.5 -32 -58.5 -91h260q1 7 1 19q0 50 -31 77t-77 27q-52 0 -94.5 -32zM277.5 105
q37.5 16 64 49t33.5 79h-146q-51 0 -78 -22t-27 -59q0 -28 20.5 -45.5t58.5 -17.5q37 0 74.5 16z" />
    <glyph glyph-name="ccedilla" unicode="&#xe7;" horiz-adv-x="551" 
d="M361 115.5q42 21.5 72 68.5l78 -60q-41 -65 -109.5 -100t-141.5 -35h-13l-10 -29q56 -9 85.5 -38.5t29.5 -67.5q0 -28 -16 -53t-46 -40.5t-70 -15.5q-38 0 -75 16t-63 45l48 51q20 -22 43 -33.5t45 -11.5q26 0 44.5 12.5t18.5 35.5q0 31 -33 45t-80 19l23 74
q-74 22 -113.5 86.5t-39.5 145.5q0 72 33 138t98 107.5t155 41.5q132 0 201 -101l-82 -69q-18 35 -50.5 51.5t-73.5 16.5q-54 0 -93 -26.5t-58.5 -68.5t-20.5 -88q0 -58 34 -98t95 -40q43 0 85 21.5z" />
    <glyph glyph-name="egrave" unicode="&#xe8;" horiz-adv-x="566" 
d="M364 110.5q40 17.5 70 53.5l65 -72q-50 -52 -110 -77.5t-125 -25.5q-74 0 -125 32.5t-76.5 86.5t-25.5 118q0 73 33 140t96 109t149 42q59 0 108 -23t78.5 -70.5t29.5 -116.5q0 -32 -3.5 -50.5t-7.5 -32.5l-6 -21h-365q2 -55 40 -82.5t92 -27.5q43 0 83 17.5zM215.5 386
q-43.5 -32 -57.5 -91h262q1 7 1 19q0 51 -31.5 77.5t-78.5 26.5q-52 0 -95.5 -32zM423 599l-250 76l27 97l253 -77z" />
    <glyph glyph-name="eacute" unicode="&#xe9;" horiz-adv-x="566" 
d="M364 110.5q40 17.5 70 53.5l65 -72q-50 -52 -110 -77.5t-125 -25.5q-74 0 -125 32.5t-76.5 86.5t-25.5 118q0 73 33 140t96 109t149 42q59 0 108 -23t78.5 -70.5t29.5 -116.5q0 -32 -3.5 -50.5t-7.5 -32.5l-6 -21h-365q2 -55 40 -82.5t92 -27.5q43 0 83 17.5zM215.5 386
q-43.5 -32 -57.5 -91h262q1 7 1 19q0 51 -31.5 77.5t-78.5 26.5q-52 0 -95.5 -32zM527 762l27 -97l-250 -76l-30 96z" />
    <glyph glyph-name="ecircumflex" unicode="&#xea;" horiz-adv-x="566" 
d="M364 110.5q40 17.5 70 53.5l65 -72q-50 -52 -110 -77.5t-125 -25.5q-74 0 -125 32.5t-76.5 86.5t-25.5 118q0 73 33 140t96 109t149 42q59 0 108 -23t78.5 -70.5t29.5 -116.5q0 -32 -3.5 -50.5t-7.5 -32.5l-6 -21h-365q2 -55 40 -82.5t92 -27.5q43 0 83 17.5zM215.5 386
q-43.5 -32 -57.5 -91h262q1 7 1 19q0 51 -31.5 77.5t-78.5 26.5q-52 0 -95.5 -32zM478 592l-92 81l-137 -81l-58 72l209 122l149 -129z" />
    <glyph glyph-name="edieresis" unicode="&#xeb;" horiz-adv-x="566" 
d="M364 110.5q40 17.5 70 53.5l65 -72q-50 -52 -110 -77.5t-125 -25.5q-74 0 -125 32.5t-76.5 86.5t-25.5 118q0 73 33 140t96 109t149 42q59 0 108 -23t78.5 -70.5t29.5 -116.5q0 -32 -3.5 -50.5t-7.5 -32.5l-6 -21h-365q2 -55 40 -82.5t92 -27.5q43 0 83 17.5zM215.5 386
q-43.5 -32 -57.5 -91h262q1 7 1 19q0 51 -31.5 77.5t-78.5 26.5q-52 0 -95.5 -32zM296 623q-21 -21 -51 -21q-31 0 -52 21t-21 51t21 51t52 21q30 0 51 -21t21 -51t-21 -51zM526.5 623q-21.5 -21 -52.5 -21q-30 0 -51 21t-21 51t21 51t51 21q31 0 52.5 -21t21.5 -51
t-21.5 -51z" />
    <glyph glyph-name="igrave" unicode="&#xec;" horiz-adv-x="274" 
d="M142 504h110l-117 -504h-110zM277 599l-250 76l27 97l253 -77z" />
    <glyph glyph-name="iacute" unicode="&#xed;" horiz-adv-x="274" 
d="M142 504h110l-117 -504h-110zM377 762l27 -97l-250 -76l-30 96z" />
    <glyph glyph-name="icircumflex" unicode="&#xee;" horiz-adv-x="274" 
d="M142 504h110l-117 -504h-110zM316 592l-92 81l-137 -81l-58 72l209 122l149 -129z" />
    <glyph glyph-name="idieresis" unicode="&#xef;" horiz-adv-x="274" 
d="M142 504h110l-117 -504h-110zM164 623q-21 -21 -51 -21q-31 0 -52 21t-21 51t21 51t52 21q30 0 51 -21t21 -51t-21 -51zM394.5 623q-21.5 -21 -52.5 -21q-30 0 -51 21t-21 51t21 51t51 21q31 0 52.5 -21t21.5 -51t-21.5 -51z" />
    <glyph glyph-name="eth" unicode="&#xf0;" horiz-adv-x="592" 
d="M529.5 555.5q40.5 -83.5 40.5 -187.5t-39 -192t-111.5 -140t-167.5 -52q-75 0 -124.5 31.5t-73 81.5t-23.5 107q0 67 31.5 126.5t91 96t139.5 36.5q72 0 110.5 -27.5t54.5 -62.5q1 78 -25.5 131t-76.5 81l-32 -62l-56 21l32 63q-37 10 -85 10l20 101q63 0 114 -15l34 67
l59 -20l-36 -69q83 -42 123.5 -125.5zM351 108q36 23 55 59.5t19 75.5q0 51 -32.5 85.5t-94.5 34.5q-49 0 -84.5 -22.5t-53 -58.5t-17.5 -75q0 -51 31 -86.5t92 -35.5q49 0 85 23z" />
    <glyph glyph-name="ntilde" unicode="&#xf1;" horiz-adv-x="575" 
d="M499.5 481q45.5 -36 45.5 -103q0 -21 -6 -45l-77 -333h-111l71 300q5 22 5 36q0 37 -20.5 56t-57.5 19q-53 0 -100.5 -38.5t-65.5 -111.5l-60 -261h-111l116 504h109l-17 -72q29 42 74.5 63.5t94.5 21.5q65 0 110.5 -36zM523.5 625.5q-25.5 -25.5 -57.5 -25.5
q-17 0 -33.5 8t-36.5 22q-18 12 -29 17.5t-22 5.5q-15 0 -31 -13t-37 -37l-64 53q22 35 57 65.5t74 30.5q18 0 33.5 -7t38.5 -21q18 -11 28 -15.5t20 -4.5q14 0 25.5 11t26.5 31l62 -49q-29 -46 -54.5 -71.5z" />
    <glyph glyph-name="ograve" unicode="&#xf2;" horiz-adv-x="598" 
d="M459 487q53 -30 81 -82.5t28 -118.5q0 -81 -41 -149t-110.5 -108t-150.5 -40q-69 0 -121.5 30t-81 82.5t-28.5 118.5q0 81 40.5 149t110 108t150.5 40q70 0 123 -30zM234.5 391q-40.5 -24 -64.5 -66t-24 -92q0 -62 36.5 -101t98.5 -39q48 0 89 24t64.5 66t23.5 92
q0 63 -36.5 101.5t-98.5 38.5q-48 0 -88.5 -24zM445 599l-250 76l27 97l253 -77z" />
    <glyph glyph-name="oacute" unicode="&#xf3;" horiz-adv-x="598" 
d="M459 487q53 -30 81 -82.5t28 -118.5q0 -81 -41 -149t-110.5 -108t-150.5 -40q-69 0 -121.5 30t-81 82.5t-28.5 118.5q0 81 40.5 149t110 108t150.5 40q70 0 123 -30zM234.5 391q-40.5 -24 -64.5 -66t-24 -92q0 -62 36.5 -101t98.5 -39q48 0 89 24t64.5 66t23.5 92
q0 63 -36.5 101.5t-98.5 38.5q-48 0 -88.5 -24zM525 762l27 -97l-250 -76l-30 96z" />
    <glyph glyph-name="ocircumflex" unicode="&#xf4;" horiz-adv-x="598" 
d="M459 487q53 -30 81 -82.5t28 -118.5q0 -81 -41 -149t-110.5 -108t-150.5 -40q-69 0 -121.5 30t-81 82.5t-28.5 118.5q0 81 40.5 149t110 108t150.5 40q70 0 123 -30zM234.5 391q-40.5 -24 -64.5 -66t-24 -92q0 -62 36.5 -101t98.5 -39q48 0 89 24t64.5 66t23.5 92
q0 63 -36.5 101.5t-98.5 38.5q-48 0 -88.5 -24zM480 592l-92 81l-137 -81l-58 72l209 122l149 -129z" />
    <glyph glyph-name="otilde" unicode="&#xf5;" horiz-adv-x="598" 
d="M459 487q53 -30 81 -82.5t28 -118.5q0 -81 -41 -149t-110.5 -108t-150.5 -40q-69 0 -121.5 30t-81 82.5t-28.5 118.5q0 81 40.5 149t110 108t150.5 40q70 0 123 -30zM234.5 391q-40.5 -24 -64.5 -66t-24 -92q0 -62 36.5 -101t98.5 -39q48 0 89 24t64.5 66t23.5 92
q0 63 -36.5 101.5t-98.5 38.5q-48 0 -88.5 -24zM492.5 625.5q-25.5 -25.5 -57.5 -25.5q-17 0 -33.5 8t-36.5 22q-18 12 -29 17.5t-22 5.5q-15 0 -31 -13t-37 -37l-64 53q22 35 57 65.5t74 30.5q18 0 33.5 -7t38.5 -21q18 -11 28 -15.5t20 -4.5q14 0 25.5 11t26.5 31l62 -49
q-29 -46 -54.5 -71.5z" />
    <glyph glyph-name="odieresis" unicode="&#xf6;" horiz-adv-x="598" 
d="M459 487q53 -30 81 -82.5t28 -118.5q0 -81 -41 -149t-110.5 -108t-150.5 -40q-69 0 -121.5 30t-81 82.5t-28.5 118.5q0 81 40.5 149t110 108t150.5 40q70 0 123 -30zM234.5 391q-40.5 -24 -64.5 -66t-24 -92q0 -62 36.5 -101t98.5 -39q48 0 89 24t64.5 66t23.5 92
q0 63 -36.5 101.5t-98.5 38.5q-48 0 -88.5 -24zM319 623q-21 -21 -51 -21q-31 0 -52 21t-21 51t21 51t52 21q30 0 51 -21t21 -51t-21 -51zM549.5 623q-21.5 -21 -52.5 -21q-30 0 -51 21t-21 51t21 51t51 21q31 0 52.5 -21t21.5 -51t-21.5 -51z" />
    <glyph glyph-name="divide" unicode="&#xf7;" horiz-adv-x="457" 
d="M69 332h366l-23 -101h-367zM218 516.5q22 22.5 55 22.5q34 0 56.5 -22.5t22.5 -56.5q0 -33 -22.5 -55.5t-56.5 -22.5q-33 0 -55 22.5t-22 55.5q0 34 22 56.5zM159 154.5q22 22.5 55 22.5q34 0 56.5 -22.5t22.5 -56.5q0 -33 -22.5 -55.5t-56.5 -22.5q-33 0 -55 22.5
t-22 55.5q0 34 22 56.5z" />
    <glyph glyph-name="oslash" unicode="&#xf8;" horiz-adv-x="598" 
d="M534 415q34 -56 34 -129q0 -81 -41 -149t-110.5 -108t-150.5 -40q-16 0 -24 1l-42 -108l-65 25l38 98q-65 25 -101.5 82t-36.5 133q0 81 40.5 149t110 108t150.5 40q13 0 35 -2l43 111l65 -26l-40 -103q61 -26 95 -82zM163.5 157.5q17.5 -32.5 49.5 -48.5l119 306h-9
q-48 0 -88.5 -24t-64.5 -66t-24 -92q0 -43 17.5 -75.5zM370.5 117.5q40.5 24.5 64 66t23.5 91.5q0 40 -15.5 71t-43.5 49l-117 -302q48 0 88.5 24.5z" />
    <glyph glyph-name="ugrave" unicode="&#xf9;" horiz-adv-x="569" 
d="M451 0h-108l16 69q-56 -80 -150 -80q-69 0 -114.5 44t-45.5 119q0 30 7 58l67 294h109l-67 -292q-4 -17 -4 -34q0 -38 22.5 -57.5t60.5 -19.5q52 0 95 37t59 109l60 257h109zM434 599l-250 76l27 97l253 -77z" />
    <glyph glyph-name="uacute" unicode="&#xfa;" horiz-adv-x="569" 
d="M451 0h-108l16 69q-56 -80 -150 -80q-69 0 -114.5 44t-45.5 119q0 30 7 58l67 294h109l-67 -292q-4 -17 -4 -34q0 -38 22.5 -57.5t60.5 -19.5q52 0 95 37t59 109l60 257h109zM536 762l27 -97l-250 -76l-30 96z" />
    <glyph glyph-name="ucircumflex" unicode="&#xfb;" horiz-adv-x="569" 
d="M451 0h-108l16 69q-56 -80 -150 -80q-69 0 -114.5 44t-45.5 119q0 30 7 58l67 294h109l-67 -292q-4 -17 -4 -34q0 -38 22.5 -57.5t60.5 -19.5q52 0 95 37t59 109l60 257h109zM460 592l-92 81l-137 -81l-58 72l209 122l149 -129z" />
    <glyph glyph-name="udieresis" unicode="&#xfc;" horiz-adv-x="569" 
d="M451 0h-108l16 69q-56 -80 -150 -80q-69 0 -114.5 44t-45.5 119q0 30 7 58l67 294h109l-67 -292q-4 -17 -4 -34q0 -38 22.5 -57.5t60.5 -19.5q52 0 95 37t59 109l60 257h109zM304 623q-21 -21 -51 -21q-31 0 -52 21t-21 51t21 51t52 21q30 0 51 -21t21 -51t-21 -51z
M534.5 623q-21.5 -21 -52.5 -21q-30 0 -51 21t-21 51t21 51t51 21q31 0 52.5 -21t21.5 -51t-21.5 -51z" />
    <glyph glyph-name="yacute" unicode="&#xfd;" horiz-adv-x="601" 
d="M480 -9q-18 -76 -60 -126.5t-97 -74.5t-112 -24t-107.5 23t-84 66.5t-42.5 100.5l101 37q10 -59 47 -92t89 -33q60 0 102.5 35.5t59.5 106.5l17 72q-29 -40 -72.5 -58.5t-89.5 -18.5q-67 0 -113 41.5t-46 117.5q0 30 7 61l65 279h110l-60 -262q-6 -27 -6 -48
q0 -40 21 -61t58 -21q55 0 102.5 40t63.5 110l57 242h109zM543 762l27 -97l-250 -76l-30 96z" />
    <glyph glyph-name="thorn" unicode="&#xfe;" horiz-adv-x="617" 
d="M494.5 483.5q47.5 -29.5 71.5 -78.5t24 -106q0 -75 -35.5 -146.5t-101 -117.5t-151.5 -46q-57 0 -101.5 21t-66.5 64l-67 -295h-111l213 921h108l-60 -260q30 37 70.5 55t94.5 18q65 0 112.5 -29.5zM395.5 117.5q40.5 27.5 62 72t21.5 92.5q0 55 -32.5 93.5t-90.5 38.5
q-57 0 -99.5 -27.5t-65 -70.5t-22.5 -89q0 -58 33.5 -97.5t98.5 -39.5q54 0 94.5 27.5z" />
    <glyph glyph-name="ydieresis" unicode="&#xff;" horiz-adv-x="601" 
d="M480 -9q-18 -76 -60 -126.5t-97 -74.5t-112 -24t-107.5 23t-84 66.5t-42.5 100.5l101 37q10 -59 47 -92t89 -33q60 0 102.5 35.5t59.5 106.5l17 72q-29 -40 -72.5 -58.5t-89.5 -18.5q-67 0 -113 41.5t-46 117.5q0 30 7 61l65 279h110l-60 -262q-6 -27 -6 -48
q0 -40 21 -61t58 -21q55 0 102.5 40t63.5 110l57 242h109zM329 623q-21 -21 -51 -21q-31 0 -52 21t-21 51t21 51t52 21q30 0 51 -21t21 -51t-21 -51zM559.5 623q-21.5 -21 -52.5 -21q-30 0 -51 21t-21 51t21 51t51 21q31 0 52.5 -21t21.5 -51t-21.5 -51z" />
    <glyph glyph-name="Amacron" unicode="&#x100;" horiz-adv-x="698" 
d="M490 177h-288l-106 -177h-129l434 700h117l112 -700h-116zM475 282l-40 282l-170 -282h210zM644 869l-26 -109h-296l25 109h297z" />
    <glyph glyph-name="amacron" unicode="&#x101;" horiz-adv-x="673" 
d="M593 101l26 -81q-19 -14 -44.5 -22t-50.5 -8q-38 0 -66 22t-33 65q-37 -48 -89 -68t-101 -20q-64 0 -109 31.5t-68 83.5t-23 113q0 77 35 146t99.5 111.5t148.5 42.5q61 0 105 -23.5t59 -62.5l16 73h109l-83 -361q-2 -7 -2 -19q0 -17 9 -25.5t23 -8.5q15 0 39 11z
M362 119q41 29 63 74.5t22 93.5q0 56 -31 93.5t-92 37.5q-54 0 -94.5 -29t-62 -75t-21.5 -94q0 -56 30.5 -93t91.5 -37q53 0 94 29zM542 699l-23 -99h-296l22 99h297z" />
    <glyph glyph-name="Abreve" unicode="&#x102;" horiz-adv-x="698" 
d="M490 177h-288l-106 -177h-129l434 700h117l112 -700h-116zM475 282l-40 282l-170 -282h210zM630 906q0 -63 -35.5 -106t-109.5 -43t-109.5 43t-35.5 106h83q0 -68 60 -68q64 0 64 68h83z" />
    <glyph glyph-name="abreve" unicode="&#x103;" horiz-adv-x="673" 
d="M593 101l26 -81q-19 -14 -44.5 -22t-50.5 -8q-38 0 -66 22t-33 65q-37 -48 -89 -68t-101 -20q-64 0 -109 31.5t-68 83.5t-23 113q0 77 35 146t99.5 111.5t148.5 42.5q61 0 105 -23.5t59 -62.5l16 73h109l-83 -361q-2 -7 -2 -19q0 -17 9 -25.5t23 -8.5q15 0 39 11z
M362 119q41 29 63 74.5t22 93.5q0 56 -31 93.5t-92 37.5q-54 0 -94.5 -29t-62 -75t-21.5 -94q0 -56 30.5 -93t91.5 -37q53 0 94 29zM526 749q0 -63 -35.5 -106t-109.5 -43t-109.5 43t-35.5 106h83q0 -68 60 -68q64 0 64 68h83z" />
    <glyph glyph-name="Aogonek" unicode="&#x104;" horiz-adv-x="698" 
d="M508.5 -121q18.5 -11 53.5 -10l-17 -74q-65 3 -100.5 25.5t-35.5 59.5q0 34 26.5 67t77.5 57l-23 173h-288l-106 -177h-129l434 700h117l112 -700h-53q-38 -15 -62.5 -40t-24.5 -50q0 -20 18.5 -31zM475 282l-40 282l-170 -282h210z" />
    <glyph glyph-name="aogonek" unicode="&#x105;" horiz-adv-x="673" 
d="M467 -47.5q-18 -21.5 -18 -42.5q0 -20 18.5 -31t53.5 -10l-17 -74q-65 3 -100.5 25.5t-35.5 59.5q0 33 26.5 66.5t76.5 57.5q-40 22 -46 73q-37 -48 -89 -68t-101 -20q-64 0 -109 31.5t-68 83.5t-23 113q0 77 35 146t99.5 111.5t148.5 42.5q61 0 105 -23.5t59 -62.5
l16 73h109l-83 -361q-2 -7 -2 -19q0 -17 9 -25.5t23 -8.5q15 0 39 11l26 -81q-19 -14 -44.5 -22t-50.5 -8h-9q-30 -16 -48 -37.5zM362 119q41 29 63 74.5t22 93.5q0 56 -31 93.5t-92 37.5q-54 0 -94.5 -29t-62 -75t-21.5 -94q0 -56 30.5 -93t91.5 -37q53 0 94 29z" />
    <glyph glyph-name="Cacute" unicode="&#x106;" horiz-adv-x="758" 
d="M521.5 135.5q66.5 41.5 111.5 121.5l90 -54q-66 -109 -161 -164t-193 -55q-96 0 -163.5 44t-101.5 117.5t-34 159.5q0 103 48 197.5t141.5 154t224.5 59.5q82 0 149 -30.5t116 -89.5l-83 -77q-31 42 -83 65t-112 23q-91 0 -155.5 -42t-97.5 -108.5t-33 -138.5
q0 -60 23 -111t67.5 -82t107.5 -31q72 0 138.5 41.5zM706 933l27 -97l-250 -76l-30 96z" />
    <glyph glyph-name="cacute" unicode="&#x107;" horiz-adv-x="551" 
d="M226 388.5q-39 -26.5 -58.5 -68.5t-20.5 -88q0 -58 34 -98t95 -40q43 0 85 21.5t72 68.5l78 -60q-41 -65 -109.5 -100t-141.5 -35q-71 0 -121.5 33.5t-75.5 88.5t-25 119q0 72 33 138t98 107.5t155 41.5q132 0 201 -101l-82 -69q-18 35 -50.5 51.5t-73.5 16.5
q-54 0 -93 -26.5zM533 762l27 -97l-250 -76l-30 96z" />
    <glyph glyph-name="Ccircumflex" unicode="&#x108;" horiz-adv-x="758" 
d="M521.5 135.5q66.5 41.5 111.5 121.5l90 -54q-66 -109 -161 -164t-193 -55q-96 0 -163.5 44t-101.5 117.5t-34 159.5q0 103 48 197.5t141.5 154t224.5 59.5q82 0 149 -30.5t116 -89.5l-83 -77q-31 42 -83 65t-112 23q-91 0 -155.5 -42t-97.5 -108.5t-33 -138.5
q0 -60 23 -111t67.5 -82t107.5 -31q72 0 138.5 41.5zM635 750l-92 81l-137 -81l-58 72l209 122l149 -129z" />
    <glyph glyph-name="ccircumflex" unicode="&#x109;" horiz-adv-x="551" 
d="M226 388.5q-39 -26.5 -58.5 -68.5t-20.5 -88q0 -58 34 -98t95 -40q43 0 85 21.5t72 68.5l78 -60q-41 -65 -109.5 -100t-141.5 -35q-71 0 -121.5 33.5t-75.5 88.5t-25 119q0 72 33 138t98 107.5t155 41.5q132 0 201 -101l-82 -69q-18 35 -50.5 51.5t-73.5 16.5
q-54 0 -93 -26.5zM478 592l-92 81l-137 -81l-58 72l209 122l149 -129z" />
    <glyph glyph-name="Cdotaccent" unicode="&#x10a;" horiz-adv-x="758" 
d="M521.5 135.5q66.5 41.5 111.5 121.5l90 -54q-66 -109 -161 -164t-193 -55q-96 0 -163.5 44t-101.5 117.5t-34 159.5q0 103 48 197.5t141.5 154t224.5 59.5q82 0 149 -30.5t116 -89.5l-83 -77q-31 42 -83 65t-112 23q-91 0 -155.5 -42t-97.5 -108.5t-33 -138.5
q0 -60 23 -111t67.5 -82t107.5 -31q72 0 138.5 41.5zM464.5 883q20.5 21 50.5 21q31 0 52 -21t21 -52q0 -30 -21 -50.5t-52 -20.5q-30 0 -50.5 20.5t-20.5 50.5q0 31 20.5 52z" />
    <glyph glyph-name="cdotaccent" unicode="&#x10b;" horiz-adv-x="551" 
d="M226 388.5q-39 -26.5 -58.5 -68.5t-20.5 -88q0 -58 34 -98t95 -40q43 0 85 21.5t72 68.5l78 -60q-41 -65 -109.5 -100t-141.5 -35q-71 0 -121.5 33.5t-75.5 88.5t-25 119q0 72 33 138t98 107.5t155 41.5q132 0 201 -101l-82 -69q-18 35 -50.5 51.5t-73.5 16.5
q-54 0 -93 -26.5zM427 623q-21 -21 -52 -21t-52 21t-21 51t21 51t52 21t52 -21t21 -51t-21 -51z" />
    <glyph glyph-name="Ccaron" unicode="&#x10c;" horiz-adv-x="758" 
d="M521.5 135.5q66.5 41.5 111.5 121.5l90 -54q-66 -109 -161 -164t-193 -55q-96 0 -163.5 44t-101.5 117.5t-34 159.5q0 103 48 197.5t141.5 154t224.5 59.5q82 0 149 -30.5t116 -89.5l-83 -77q-31 42 -83 65t-112 23q-91 0 -155.5 -42t-97.5 -108.5t-33 -138.5
q0 -60 23 -111t67.5 -82t107.5 -31q72 0 138.5 41.5zM421 944l107 -83l145 83l44 -73l-204 -118l-153 124z" />
    <glyph glyph-name="ccaron" unicode="&#x10d;" horiz-adv-x="551" 
d="M226 388.5q-39 -26.5 -58.5 -68.5t-20.5 -88q0 -58 34 -98t95 -40q43 0 85 21.5t72 68.5l78 -60q-41 -65 -109.5 -100t-141.5 -35q-71 0 -121.5 33.5t-75.5 88.5t-25 119q0 72 33 138t98 107.5t155 41.5q132 0 201 -101l-82 -69q-18 35 -50.5 51.5t-73.5 16.5
q-54 0 -93 -26.5zM271 782l107 -83l145 83l44 -73l-204 -118l-153 124z" />
    <glyph glyph-name="Dcaron" unicode="&#x10e;" horiz-adv-x="725" 
d="M189 700h205q105 0 177 -41.5t107.5 -110t35.5 -149.5q0 -101 -53 -193t-155.5 -149t-243.5 -57h-235zM279 595l-113 -490h123q94 0 163.5 43t106 110.5t36.5 138.5q0 54 -22 99t-67 72t-110 27h-117zM329 944l107 -83l145 83l44 -73l-204 -118l-153 124z" />
    <glyph glyph-name="dcaron" unicode="&#x10f;" horiz-adv-x="892" 
d="M493 0h-109l15 65q-34 -42 -77 -59t-87 -17q-64 0 -109 31.5t-68 83.5t-23 113q0 77 35 146t99.5 111.5t148.5 42.5q60 0 104 -22t60 -63l62 268h110zM362 119q41 29 63 74.5t22 93.5q0 56 -31 93.5t-92 37.5q-54 0 -94.5 -29t-62 -75t-21.5 -94q0 -56 30.5 -93t91.5 -37
q53 0 94 29zM844 716l110 -66l-180 -260l-81 44z" />
    <glyph glyph-name="Dcroat" unicode="&#x110;" horiz-adv-x="729" 
d="M575 658.5q72 -41.5 107.5 -110t35.5 -149.5q0 -101 -53 -193t-155.5 -149t-243.5 -57h-235l72 311h-125l19 79h124l72 310h205q105 0 177 -41.5zM456.5 148q69.5 43 106 110.5t36.5 138.5q0 54 -22 99t-67 72t-110 27h-117l-47 -205h149l-19 -79h-148l-48 -206h123
q94 0 163.5 43z" />
    <glyph glyph-name="dcroat" unicode="&#x111;" horiz-adv-x="671" 
d="M727 580h-101l-133 -580h-109l15 65q-34 -42 -77 -59t-87 -17q-64 0 -109 31.5t-68 83.5t-23 113q0 77 35 146t99.5 111.5t148.5 42.5q60 0 104 -22t60 -63l34 148h-99l11 52h100l16 68h110l-16 -68h100zM362 119q41 29 63 74.5t22 93.5q0 56 -31 93.5t-92 37.5
q-54 0 -94.5 -29t-62 -75t-21.5 -94q0 -56 30.5 -93t91.5 -37q53 0 94 29z" />
    <glyph glyph-name="Emacron" unicode="&#x112;" horiz-adv-x="541" 
d="M279 595l-44 -193h238l-25 -105h-237l-45 -192h306l-25 -105h-420l162 700h411l-24 -105h-297zM578 869l-26 -109h-296l25 109h297z" />
    <glyph glyph-name="emacron" unicode="&#x113;" horiz-adv-x="566" 
d="M364 110.5q40 17.5 70 53.5l65 -72q-50 -52 -110 -77.5t-125 -25.5q-74 0 -125 32.5t-76.5 86.5t-25.5 118q0 73 33 140t96 109t149 42q59 0 108 -23t78.5 -70.5t29.5 -116.5q0 -32 -3.5 -50.5t-7.5 -32.5l-6 -21h-365q2 -55 40 -82.5t92 -27.5q43 0 83 17.5zM215.5 386
q-43.5 -32 -57.5 -91h262q1 7 1 19q0 51 -31.5 77.5t-78.5 26.5q-52 0 -95.5 -32zM519 699l-23 -99h-296l22 99h297z" />
    <glyph glyph-name="Ebreve" unicode="&#x114;" horiz-adv-x="541" 
d="M279 595l-44 -193h238l-25 -105h-237l-45 -192h306l-25 -105h-420l162 700h411l-24 -105h-297zM571 906q0 -63 -35.5 -106t-109.5 -43t-109.5 43t-35.5 106h83q0 -68 60 -68q64 0 64 68h83z" />
    <glyph glyph-name="ebreve" unicode="&#x115;" horiz-adv-x="566" 
d="M364 110.5q40 17.5 70 53.5l65 -72q-50 -52 -110 -77.5t-125 -25.5q-74 0 -125 32.5t-76.5 86.5t-25.5 118q0 73 33 140t96 109t149 42q59 0 108 -23t78.5 -70.5t29.5 -116.5q0 -32 -3.5 -50.5t-7.5 -32.5l-6 -21h-365q2 -55 40 -82.5t92 -27.5q43 0 83 17.5zM215.5 386
q-43.5 -32 -57.5 -91h262q1 7 1 19q0 51 -31.5 77.5t-78.5 26.5q-52 0 -95.5 -32zM526 749q0 -63 -35.5 -106t-109.5 -43t-109.5 43t-35.5 106h83q0 -68 60 -68q64 0 64 68h83z" />
    <glyph glyph-name="Edotaccent" unicode="&#x116;" horiz-adv-x="541" 
d="M279 595l-44 -193h238l-25 -105h-237l-45 -192h306l-25 -105h-420l162 700h411l-24 -105h-297zM373.5 883q20.5 21 50.5 21q31 0 52 -21t21 -52q0 -30 -21 -50.5t-52 -20.5q-30 0 -50.5 20.5t-20.5 50.5q0 31 20.5 52z" />
    <glyph glyph-name="edotaccent" unicode="&#x117;" horiz-adv-x="566" 
d="M364 110.5q40 17.5 70 53.5l65 -72q-50 -52 -110 -77.5t-125 -25.5q-74 0 -125 32.5t-76.5 86.5t-25.5 118q0 73 33 140t96 109t149 42q59 0 108 -23t78.5 -70.5t29.5 -116.5q0 -32 -3.5 -50.5t-7.5 -32.5l-6 -21h-365q2 -55 40 -82.5t92 -27.5q43 0 83 17.5zM215.5 386
q-43.5 -32 -57.5 -91h262q1 7 1 19q0 51 -31.5 77.5t-78.5 26.5q-52 0 -95.5 -32zM421 623q-21 -21 -52 -21t-52 21t-21 51t21 51t52 21t52 -21t21 -51t-21 -51z" />
    <glyph glyph-name="Eogonek" unicode="&#x118;" horiz-adv-x="541" 
d="M279 595l-44 -193h238l-25 -105h-237l-45 -192h306l-25 -105h-20q-38 -15 -62.5 -40t-24.5 -50q0 -20 18.5 -31t53.5 -10l-17 -74q-65 3 -100.5 25.5t-35.5 59.5q0 32 24.5 64t70.5 56h-327l162 700h411l-24 -105h-297z" />
    <glyph glyph-name="eogonek" unicode="&#x119;" horiz-adv-x="566" 
d="M527.5 256.5q-3.5 -18.5 -7.5 -32.5l-6 -21h-365q2 -55 40 -82.5t92 -27.5q43 0 83 17.5t70 53.5l65 -72q-48 -50 -106.5 -75.5t-121.5 -27.5q-29 -16 -46.5 -37t-17.5 -42q0 -20 18.5 -31t53.5 -10l-17 -74q-65 3 -100.5 25.5t-35.5 59.5q0 30 21.5 60.5t62.5 53.5
q-84 16 -128.5 81t-44.5 151q0 73 33 140t96 109t149 42q59 0 108 -23t78.5 -70.5t29.5 -116.5q0 -32 -3.5 -50.5zM421 314q0 51 -31.5 77.5t-78.5 26.5q-52 0 -95.5 -32t-57.5 -91h262q1 7 1 19z" />
    <glyph glyph-name="Ecaron" unicode="&#x11a;" horiz-adv-x="541" 
d="M279 595l-44 -193h238l-25 -105h-237l-45 -192h306l-25 -105h-420l162 700h411l-24 -105h-297zM311 944l107 -83l145 83l44 -73l-204 -118l-153 124z" />
    <glyph glyph-name="ecaron" unicode="&#x11b;" horiz-adv-x="566" 
d="M364 110.5q40 17.5 70 53.5l65 -72q-50 -52 -110 -77.5t-125 -25.5q-74 0 -125 32.5t-76.5 86.5t-25.5 118q0 73 33 140t96 109t149 42q59 0 108 -23t78.5 -70.5t29.5 -116.5q0 -32 -3.5 -50.5t-7.5 -32.5l-6 -21h-365q2 -55 40 -82.5t92 -27.5q43 0 83 17.5zM215.5 386
q-43.5 -32 -57.5 -91h262q1 7 1 19q0 51 -31.5 77.5t-78.5 26.5q-52 0 -95.5 -32zM265 782l107 -83l145 83l44 -73l-204 -118l-153 124z" />
    <glyph glyph-name="Gcircumflex" unicode="&#x11c;" horiz-adv-x="760" 
d="M719 380l-72 -311q-58 -42 -124 -63.5t-131 -21.5q-104 0 -176.5 45t-109 119t-36.5 161q0 102 48 195.5t141.5 152.5t221.5 59q88 0 154 -30t116 -90l-83 -77q-32 44 -84 66t-114 22q-88 0 -153 -42t-98.5 -109t-33.5 -139q0 -60 24 -111.5t73 -82.5t118 -31
q78 0 146 39l34 142h-162l25 107h276zM625 750l-92 81l-137 -81l-58 72l209 122l149 -129z" />
    <glyph glyph-name="gcircumflex" unicode="&#x11d;" horiz-adv-x="622" 
d="M501 -9q-18 -76 -62.5 -126.5t-102.5 -75t-119 -24.5q-92 0 -155 52t-77 139l91 37q7 -63 49 -94.5t100 -31.5q65 0 111 38.5t62 110.5l14 60q-64 -61 -154 -61q-69 0 -118 32.5t-74 85t-25 113.5q0 69 32 131t92.5 101t143.5 39q57 0 105 -20.5t79 -66.5l16 74h112z
M366 137.5q42 21.5 68 61t26 91.5q0 65 -39 96.5t-97 31.5q-54 0 -93.5 -25t-60 -64t-20.5 -81q0 -55 34.5 -93.5t95.5 -38.5q44 0 86 21.5zM493 592l-92 81l-137 -81l-58 72l209 122l149 -129z" />
    <glyph glyph-name="Gbreve" unicode="&#x11e;" horiz-adv-x="760" 
d="M719 380l-72 -311q-58 -42 -124 -63.5t-131 -21.5q-104 0 -176.5 45t-109 119t-36.5 161q0 102 48 195.5t141.5 152.5t221.5 59q88 0 154 -30t116 -90l-83 -77q-32 44 -84 66t-114 22q-88 0 -153 -42t-98.5 -109t-33.5 -139q0 -60 24 -111.5t73 -82.5t118 -31
q78 0 146 39l34 142h-162l25 107h276zM665 906q0 -63 -35.5 -106t-109.5 -43t-109.5 43t-35.5 106h83q0 -68 60 -68q64 0 64 68h83z" />
    <glyph glyph-name="gbreve" unicode="&#x11f;" horiz-adv-x="622" 
d="M501 -9q-18 -76 -62.5 -126.5t-102.5 -75t-119 -24.5q-92 0 -155 52t-77 139l91 37q7 -63 49 -94.5t100 -31.5q65 0 111 38.5t62 110.5l14 60q-64 -61 -154 -61q-69 0 -118 32.5t-74 85t-25 113.5q0 69 32 131t92.5 101t143.5 39q57 0 105 -20.5t79 -66.5l16 74h112z
M366 137.5q42 21.5 68 61t26 91.5q0 65 -39 96.5t-97 31.5q-54 0 -93.5 -25t-60 -64t-20.5 -81q0 -55 34.5 -93.5t95.5 -38.5q44 0 86 21.5zM545 749q0 -63 -35.5 -106t-109.5 -43t-109.5 43t-35.5 106h83q0 -68 60 -68q64 0 64 68h83z" />
    <glyph glyph-name="Gdotaccent" unicode="&#x120;" horiz-adv-x="760" 
d="M719 380l-72 -311q-58 -42 -124 -63.5t-131 -21.5q-104 0 -176.5 45t-109 119t-36.5 161q0 102 48 195.5t141.5 152.5t221.5 59q88 0 154 -30t116 -90l-83 -77q-32 44 -84 66t-114 22q-88 0 -153 -42t-98.5 -109t-33.5 -139q0 -60 24 -111.5t73 -82.5t118 -31
q78 0 146 39l34 142h-162l25 107h276zM467.5 883q20.5 21 50.5 21q31 0 52 -21t21 -52q0 -30 -21 -50.5t-52 -20.5q-30 0 -50.5 20.5t-20.5 50.5q0 31 20.5 52z" />
    <glyph glyph-name="gdotaccent" unicode="&#x121;" horiz-adv-x="622" 
d="M501 -9q-18 -76 -62.5 -126.5t-102.5 -75t-119 -24.5q-92 0 -155 52t-77 139l91 37q7 -63 49 -94.5t100 -31.5q65 0 111 38.5t62 110.5l14 60q-64 -61 -154 -61q-69 0 -118 32.5t-74 85t-25 113.5q0 69 32 131t92.5 101t143.5 39q57 0 105 -20.5t79 -66.5l16 74h112z
M366 137.5q42 21.5 68 61t26 91.5q0 65 -39 96.5t-97 31.5q-54 0 -93.5 -25t-60 -64t-20.5 -81q0 -55 34.5 -93.5t95.5 -38.5q44 0 86 21.5zM444 623q-21 -21 -52 -21t-52 21t-21 51t21 51t52 21t52 -21t21 -51t-21 -51z" />
    <glyph glyph-name="Gcommaaccent" unicode="&#x122;" horiz-adv-x="760" 
d="M719 380l-72 -311q-58 -42 -124 -63.5t-131 -21.5q-104 0 -176.5 45t-109 119t-36.5 161q0 102 48 195.5t141.5 152.5t221.5 59q88 0 154 -30t116 -90l-83 -77q-32 44 -84 66t-114 22q-88 0 -153 -42t-98.5 -109t-33.5 -139q0 -60 24 -111.5t73 -82.5t118 -31
q78 0 146 39l34 142h-162l25 107h276zM312 -38l110 -66l-180 -260l-81 44z" />
    <glyph glyph-name="gcommaaccent" unicode="&#x123;" horiz-adv-x="622" 
d="M379 582l-110 66l180 260l81 -44zM501 -9q-18 -76 -62.5 -126.5t-102.5 -75t-119 -24.5q-92 0 -155 52t-77 139l91 37q7 -63 49 -94.5t100 -31.5q65 0 111 38.5t62 110.5l14 60q-64 -61 -154 -61q-69 0 -118 32.5t-74 85t-25 113.5q0 69 32 131t92.5 101t143.5 39
q57 0 105 -20.5t79 -66.5l16 74h112zM366 137.5q42 21.5 68 61t26 91.5q0 65 -39 96.5t-97 31.5q-54 0 -93.5 -25t-60 -64t-20.5 -81q0 -55 34.5 -93.5t95.5 -38.5q44 0 86 21.5z" />
    <glyph glyph-name="Hcircumflex" unicode="&#x124;" horiz-adv-x="724" 
d="M189 700h113l-68 -296h336l68 296h114l-162 -700h-114l69 298h-335l-69 -298h-114zM577 750l-92 81l-137 -81l-58 72l209 122l149 -129z" />
    <glyph glyph-name="hcircumflex" unicode="&#x125;" horiz-adv-x="609" 
d="M498.5 482q45.5 -35 45.5 -100q0 -26 -5 -49l-77 -333h-111l71 300q3 13 5 35q0 37 -20.5 56.5t-57.5 19.5q-53 0 -100.5 -38.5t-65.5 -111.5l-60 -261h-111l161 700h110l-61 -266q30 41 75 62t92 21q64 0 109.5 -35zM577 592l-92 81l-137 -81l-58 72l209 122l149 -129z
" />
    <glyph glyph-name="Hbar" unicode="&#x126;" horiz-adv-x="754" 
d="M790 493h-76l-114 -493h-114l69 298h-335l-69 -298h-114l114 493h-75l11 49h75l37 158h113l-36 -158h336l36 158h114l-37 -158h75zM600 493h-336l-20 -89h336z" />
    <glyph glyph-name="hbar" unicode="&#x127;" horiz-adv-x="611" 
d="M534.5 482q45.5 -35 45.5 -100q0 -26 -5 -49l-77 -333h-111l71 300q3 13 5 35q0 37 -20.5 56.5t-57.5 19.5q-53 0 -100.5 -38.5t-65.5 -111.5l-60 -261h-111l133 580h-85l12 52h85l16 68h110l-16 -68h116l-13 -52h-115l-33 -146q30 41 75 62t92 21q64 0 109.5 -35z" />
    <glyph glyph-name="Itilde" unicode="&#x128;" horiz-adv-x="285" 
d="M193 700h115l-161 -700h-115zM398.5 786.5q-25.5 -25.5 -57.5 -25.5q-17 0 -33.5 8t-36.5 22q-18 12 -29 17.5t-22 5.5q-15 0 -31 -13t-37 -37l-64 53q22 35 57 65.5t74 30.5q18 0 33.5 -7t38.5 -21q18 -11 28 -15.5t20 -4.5q14 0 25.5 11t26.5 31l62 -49
q-29 -46 -54.5 -71.5z" />
    <glyph glyph-name="itilde" unicode="&#x129;" horiz-adv-x="274" 
d="M142 504h110l-117 -504h-110zM340.5 625.5q-25.5 -25.5 -57.5 -25.5q-17 0 -33.5 8t-36.5 22q-18 12 -29 17.5t-22 5.5q-15 0 -31 -13t-37 -37l-64 53q22 35 57 65.5t74 30.5q18 0 33.5 -7t38.5 -21q18 -11 28 -15.5t20 -4.5q14 0 25.5 11t26.5 31l62 -49
q-29 -46 -54.5 -71.5z" />
    <glyph glyph-name="Imacron" unicode="&#x12a;" horiz-adv-x="285" 
d="M193 700h115l-161 -700h-115zM433 869l-26 -109h-296l25 109h297z" />
    <glyph glyph-name="imacron" unicode="&#x12b;" horiz-adv-x="274" 
d="M142 504h110l-117 -504h-110zM375 699l-23 -99h-296l22 99h297z" />
    <glyph glyph-name="ibreve" unicode="&#x12d;" horiz-adv-x="274" 
d="M142 504h110l-117 -504h-110zM397 749q0 -63 -35.5 -106t-109.5 -43t-109.5 43t-35.5 106h83q0 -68 60 -68q64 0 64 68h83z" />
    <glyph glyph-name="Iogonek" unicode="&#x12e;" horiz-adv-x="285" 
d="M33.5 -40q-24.5 -25 -24.5 -50q0 -20 18.5 -31t53.5 -10l-17 -74q-65 3 -100.5 25.5t-35.5 59.5q0 34 27 67.5t78 57.5l160 695h115l-161 -700h-51q-38 -15 -62.5 -40z" />
    <glyph glyph-name="iogonek" unicode="&#x12f;" horiz-adv-x="274" 
d="M282.5 716.5q23.5 -22.5 23.5 -56.5t-23.5 -56.5t-57.5 -22.5t-56.5 22.5t-22.5 56.5t22.5 56.5t56.5 22.5t57.5 -22.5zM142 504h110l-117 -504h-49q-38 -15 -62.5 -40t-24.5 -50q0 -20 18.5 -31t53.5 -10l-17 -74q-65 3 -100.5 25.5t-35.5 59.5q0 34 28 68t80 58z" />
    <glyph glyph-name="Idotaccent" unicode="&#x130;" horiz-adv-x="285" 
d="M193 700h115l-161 -700h-115zM221.5 883q20.5 21 50.5 21q31 0 52 -21t21 -52q0 -30 -21 -50.5t-52 -20.5q-30 0 -50.5 20.5t-20.5 50.5q0 31 20.5 52z" />
    <glyph glyph-name="dotlessi" unicode="&#x131;" horiz-adv-x="274" 
d="M142 504h110l-117 -504h-110z" />
    <glyph glyph-name="IJ" unicode="&#x132;" horiz-adv-x="772" 
d="M153 700h115l-161 -700h-115zM682 192q-25 -107 -88.5 -157.5t-146.5 -50.5q-51 0 -95.5 21.5t-72 63t-29.5 97.5l113 24q2 -46 28.5 -70.5t62.5 -24.5q43 0 74 27.5t43 78.5l115 499h114z" />
    <glyph glyph-name="ij" unicode="&#x133;" horiz-adv-x="576" 
d="M168.5 716.5q22.5 22.5 56.5 22.5t57.5 -22.5t23.5 -56.5t-23.5 -56.5t-57.5 -22.5t-56.5 22.5t-22.5 56.5t22.5 56.5zM142 504h110l-117 -504h-110zM461.5 716.5q22.5 22.5 56.5 22.5t57 -22.5t23 -56.5t-23 -56.5t-57 -22.5t-56.5 22.5t-22.5 56.5t22.5 56.5zM411 -78
q-18 -80 -63.5 -118t-107.5 -38q-60 0 -112 30l45 88q25 -21 59 -21q54 0 72 74l131 567h110z" />
    <glyph glyph-name="Jcircumflex" unicode="&#x134;" horiz-adv-x="526" 
d="M437 192q-25 -107 -88.5 -157.5t-146.5 -50.5q-51 0 -95.5 21.5t-72 63t-29.5 97.5l113 24q2 -46 28.5 -70.5t62.5 -24.5q43 0 74 27.5t43 78.5l115 499h114zM614 750l-92 81l-137 -81l-58 72l209 122l149 -129z" />
    <glyph glyph-name="jcircumflex" unicode="&#x135;" horiz-adv-x="303" 
d="M344 592l-92 81l-137 -81l-58 72l209 122l149 -129zM138 -78q-18 -80 -63.5 -118t-107.5 -38q-60 0 -112 30l45 88q25 -21 59 -21q54 0 72 74l131 567h110z" />
    <glyph glyph-name="Kcommaaccent" unicode="&#x136;" horiz-adv-x="642" 
d="M582 0h-149l-221 303l-70 -303h-115l162 700h115l-69 -297l353 297h167l-429 -354zM253 -38l110 -66l-180 -260l-81 44z" />
    <glyph glyph-name="kcommaaccent" unicode="&#x137;" horiz-adv-x="559" 
d="M506 0h-142l-188 228l-53 -228h-111l162 700h110l-94 -408l265 212h163l-322 -252zM207 -28l110 -66l-180 -260l-81 44z" />
    <glyph glyph-name="kgreenlandic" unicode="&#x138;" horiz-adv-x="559" 
d="M506 0h-142l-188 228l-53 -228h-111l117 504h110l-49 -212l265 212h163l-322 -252z" />
    <glyph glyph-name="Lacute" unicode="&#x139;" horiz-adv-x="498" 
d="M304 700l-138 -595h293l-25 -105h-407l162 700h115zM487 933l27 -97l-250 -76l-30 96z" />
    <glyph glyph-name="lacute" unicode="&#x13a;" horiz-adv-x="327" 
d="M179 -9q-59 0 -98 32t-39 94q0 19 7 52l122 531h111l-124 -536q-4 -15 -4 -28q0 -26 15 -38t40 -12q20 0 41 9l22 -83q-45 -21 -93 -21zM472 933l27 -97l-250 -76l-30 96z" />
    <glyph glyph-name="Lcommaaccent" unicode="&#x13b;" horiz-adv-x="498" 
d="M304 700l-138 -595h293l-25 -105h-407l162 700h115zM229 -38l110 -66l-180 -260l-81 44z" />
    <glyph glyph-name="lcommaaccent" unicode="&#x13c;" horiz-adv-x="324" 
d="M176 -9q-59 0 -98 32t-39 94q0 19 7 52l122 531h111l-124 -536q-4 -15 -4 -28q0 -26 15 -38t40 -12q20 0 41 9l22 -83q-45 -21 -93 -21zM65 -48l110 -66l-180 -260l-81 44z" />
    <glyph glyph-name="Lcaron" unicode="&#x13d;" horiz-adv-x="660" 
d="M304 700l-138 -595h293l-25 -105h-407l162 700h115zM620 752l110 -66l-180 -260l-81 44z" />
    <glyph glyph-name="lcaron" unicode="&#x13e;" horiz-adv-x="516" 
d="M176 -9q-59 0 -98 32t-39 94q0 19 7 52l122 531h111l-124 -536q-4 -15 -4 -28q0 -26 15 -38t40 -12q20 0 41 9l22 -83q-45 -21 -93 -21zM468 717l110 -66l-180 -260l-81 44z" />
    <glyph glyph-name="Ldot" unicode="&#x13f;" horiz-adv-x="544" 
d="M304 700l-138 -595h293l-25 -105h-407l162 700h115zM570 436q-21 -21 -52 -21t-52 21t-21 51t21 51t52 21t52 -21t21 -51t-21 -51z" />
    <glyph glyph-name="ldot" unicode="&#x140;" horiz-adv-x="435" 
d="M176 -9q-59 0 -98 32t-39 94q0 19 7 52l122 531h111l-124 -536q-4 -15 -4 -28q0 -26 15 -38t40 -12q20 0 41 9l22 -83q-45 -21 -93 -21zM422 375q-21 -21 -52 -21t-52 21t-21 51t21 51t52 21t52 -21t21 -51t-21 -51z" />
    <glyph glyph-name="Lslash" unicode="&#x141;" horiz-adv-x="504" 
d="M465 105l-25 -105h-407l71 309l-69 -40l-36 65l128 72l68 294h115l-51 -219l85 48l35 -64l-142 -81l-65 -279h293z" />
    <glyph glyph-name="lslash" unicode="&#x142;" horiz-adv-x="331" 
d="M254 95l22 -83q-45 -21 -93 -21q-59 0 -98 32t-39 94q0 19 7 52l31 133l-59 -33l-36 65l117 66l69 300h111l-53 -228l101 57l35 -64l-158 -90l-49 -211q-4 -15 -4 -28q0 -26 15 -38t40 -12q20 0 41 9z" />
    <glyph glyph-name="Nacute" unicode="&#x143;" horiz-adv-x="741" 
d="M608 0h-115l-232 519l-119 -519h-115l161 700h115l234 -510l117 510h115zM666 933l27 -97l-250 -76l-30 96z" />
    <glyph glyph-name="nacute" unicode="&#x144;" horiz-adv-x="575" 
d="M499.5 481q45.5 -36 45.5 -103q0 -21 -6 -45l-77 -333h-111l71 300q5 22 5 36q0 37 -20.5 56t-57.5 19q-53 0 -100.5 -38.5t-65.5 -111.5l-60 -261h-111l116 504h109l-17 -72q29 42 74.5 63.5t94.5 21.5q65 0 110.5 -36zM578 762l27 -97l-250 -76l-30 96z" />
    <glyph glyph-name="Ncommaaccent" unicode="&#x145;" horiz-adv-x="741" 
d="M608 0h-115l-232 519l-119 -519h-115l161 700h115l234 -510l117 510h115zM284 -8l110 -66l-180 -260l-81 44z" />
    <glyph glyph-name="ncommaaccent" unicode="&#x146;" horiz-adv-x="575" 
d="M499.5 481q45.5 -36 45.5 -103q0 -21 -6 -45l-77 -333h-111l71 300q5 22 5 36q0 37 -20.5 56t-57.5 19q-53 0 -100.5 -38.5t-65.5 -111.5l-60 -261h-111l116 504h109l-17 -72q29 42 74.5 63.5t94.5 21.5q65 0 110.5 -36zM215 -28l110 -66l-180 -260l-81 44z" />
    <glyph glyph-name="Ncaron" unicode="&#x147;" horiz-adv-x="741" 
d="M608 0h-115l-232 519l-119 -519h-115l161 700h115l234 -510l117 510h115zM397 944l107 -83l145 83l44 -73l-204 -118l-153 124z" />
    <glyph glyph-name="ncaron" unicode="&#x148;" horiz-adv-x="575" 
d="M499.5 481q45.5 -36 45.5 -103q0 -21 -6 -45l-77 -333h-111l71 300q5 22 5 36q0 37 -20.5 56t-57.5 19q-53 0 -100.5 -38.5t-65.5 -111.5l-60 -261h-111l116 504h109l-17 -72q29 42 74.5 63.5t94.5 21.5q65 0 110.5 -36zM294 782l107 -83l145 83l44 -73l-204 -118
l-153 124z" />
    <glyph glyph-name="napostrophe" unicode="&#x149;" horiz-adv-x="768" 
d="M692.5 481q45.5 -36 45.5 -103q0 -21 -6 -45l-77 -333h-111l71 300q5 22 5 36q0 37 -20.5 56t-57.5 19q-53 0 -100.5 -38.5t-65.5 -111.5l-60 -261h-111l116 504h109l-17 -72q29 42 74.5 63.5t94.5 21.5q65 0 110.5 -36zM213 717l110 -66l-180 -260l-81 44z" />
    <glyph glyph-name="Eng" unicode="&#x14a;" horiz-adv-x="741" 
d="M590 -78q-19 -80 -64 -118t-107 -38q-60 0 -112 30l45 88q25 -21 59 -21q54 0 72 74l13 56l-235 526l-119 -519h-115l161 700h115l234 -510l117 510h115z" />
    <glyph glyph-name="eng" unicode="&#x14b;" horiz-adv-x="590" 
d="M539 333l-95 -411q-19 -80 -64 -118t-107 -38q-60 0 -112 30l45 88q25 -21 59 -21q54 0 72 74l85 363q5 22 5 36q0 37 -20.5 56t-57.5 19q-53 0 -100.5 -38.5t-65.5 -111.5l-60 -261h-111l116 504h109l-17 -72q29 42 74.5 63.5t94.5 21.5q65 0 110.5 -36t45.5 -103
q0 -21 -6 -45z" />
    <glyph glyph-name="Omacron" unicode="&#x14c;" 
d="M645.5 674.5q71.5 -41.5 110.5 -115t39 -165.5q0 -112 -55.5 -206t-149 -149t-203.5 -55q-95 0 -167 41.5t-111 115t-39 166.5q0 111 55 205t149 149t204 55q96 0 167.5 -41.5zM325 568q-64 -38 -101.5 -104t-37.5 -145q0 -66 26.5 -117t75 -79.5t112.5 -28.5
q75 0 138.5 38t101.5 104t38 145q0 66 -26.5 117t-75.5 79.5t-113 28.5q-74 0 -138 -38zM683 869l-26 -109h-296l25 109h297z" />
    <glyph glyph-name="omacron" unicode="&#x14d;" horiz-adv-x="598" 
d="M459 487q53 -30 81 -82.5t28 -118.5q0 -81 -41 -149t-110.5 -108t-150.5 -40q-69 0 -121.5 30t-81 82.5t-28.5 118.5q0 81 40.5 149t110 108t150.5 40q70 0 123 -30zM234.5 391q-40.5 -24 -64.5 -66t-24 -92q0 -62 36.5 -101t98.5 -39q48 0 89 24t64.5 66t23.5 92
q0 63 -36.5 101.5t-98.5 38.5q-48 0 -88.5 -24zM531 699l-23 -99h-296l22 99h297z" />
    <glyph glyph-name="Obreve" unicode="&#x14e;" 
d="M645.5 674.5q71.5 -41.5 110.5 -115t39 -165.5q0 -112 -55.5 -206t-149 -149t-203.5 -55q-95 0 -167 41.5t-111 115t-39 166.5q0 111 55 205t149 149t204 55q96 0 167.5 -41.5zM325 568q-64 -38 -101.5 -104t-37.5 -145q0 -66 26.5 -117t75 -79.5t112.5 -28.5
q75 0 138.5 38t101.5 104t38 145q0 66 -26.5 117t-75.5 79.5t-113 28.5q-74 0 -138 -38zM683 906q0 -63 -35.5 -106t-109.5 -43t-109.5 43t-35.5 106h83q0 -68 60 -68q64 0 64 68h83z" />
    <glyph glyph-name="obreve" unicode="&#x14f;" horiz-adv-x="598" 
d="M459 487q53 -30 81 -82.5t28 -118.5q0 -81 -41 -149t-110.5 -108t-150.5 -40q-69 0 -121.5 30t-81 82.5t-28.5 118.5q0 81 40.5 149t110 108t150.5 40q70 0 123 -30zM234.5 391q-40.5 -24 -64.5 -66t-24 -92q0 -62 36.5 -101t98.5 -39q48 0 89 24t64.5 66t23.5 92
q0 63 -36.5 101.5t-98.5 38.5q-48 0 -88.5 -24zM547 749q0 -63 -35.5 -106t-109.5 -43t-109.5 43t-35.5 106h83q0 -68 60 -68q64 0 64 68h83z" />
    <glyph glyph-name="Ohungarumlaut" unicode="&#x150;" 
d="M645.5 674.5q71.5 -41.5 110.5 -115t39 -165.5q0 -112 -55.5 -206t-149 -149t-203.5 -55q-95 0 -167 41.5t-111 115t-39 166.5q0 111 55 205t149 149t204 55q96 0 167.5 -41.5zM325 568q-64 -38 -101.5 -104t-37.5 -145q0 -66 26.5 -117t75 -79.5t112.5 -28.5
q75 0 138.5 38t101.5 104t38 145q0 66 -26.5 117t-75.5 79.5t-113 28.5q-74 0 -138 -38zM459 769h-83l55 131h108zM601 769h-85l78 131h108z" />
    <glyph glyph-name="ohungarumlaut" unicode="&#x151;" horiz-adv-x="598" 
d="M459 487q53 -30 81 -82.5t28 -118.5q0 -81 -41 -149t-110.5 -108t-150.5 -40q-69 0 -121.5 30t-81 82.5t-28.5 118.5q0 81 40.5 149t110 108t150.5 40q70 0 123 -30zM234.5 391q-40.5 -24 -64.5 -66t-24 -92q0 -62 36.5 -101t98.5 -39q48 0 89 24t64.5 66t23.5 92
q0 63 -36.5 101.5t-98.5 38.5q-48 0 -88.5 -24zM327 600h-83l55 131h108zM469 600h-85l78 131h108z" />
    <glyph glyph-name="OE" unicode="&#x152;" horiz-adv-x="903" 
d="M810 0h-446q-98 0 -165 40t-100 107t-33 147q0 99 49 193t142.5 153.5t219.5 59.5h486l-24 -105h-287l-44 -193h226l-24 -105h-227l-43 -192h294zM538 595h-70q-87 0 -152 -43.5t-99 -111.5t-34 -139q0 -54 21.5 -98.5t64.5 -71t106 -26.5h50z" />
    <glyph glyph-name="oe" unicode="&#x153;" horiz-adv-x="984" 
d="M945.5 253.5q-3.5 -19.5 -8 -32.5t-5.5 -18h-365q2 -55 40 -82.5t92 -27.5q43 0 82.5 17.5t70.5 53.5l65 -72q-50 -52 -110 -77.5t-125 -25.5q-134 0 -189 114q-41 -54 -99.5 -84t-128.5 -30q-68 0 -120.5 30t-81 82.5t-28.5 117.5q0 82 40.5 150.5t110 108t152.5 39.5
q66 0 113 -28t75 -78q75 106 207 106q59 0 108 -23t78.5 -70.5t29.5 -116.5q0 -34 -3.5 -53.5zM840 312q0 51 -32 78.5t-79 27.5q-52 0 -95.5 -32t-57.5 -91h263q1 6 1 17zM369 117q41 24 65 66t24 94q0 60 -36.5 99t-96.5 39q-49 0 -90 -24t-65 -66t-24 -93
q0 -61 36.5 -100t96.5 -39q49 0 90 24z" />
    <glyph glyph-name="Racute" unicode="&#x154;" horiz-adv-x="595" 
d="M577.5 433q-19.5 -43 -60 -76t-100.5 -46l105 -311h-127l-94 289h-92l-67 -289h-115l162 700h217q60 0 103.5 -24.5t65.5 -65.5t22 -89q0 -45 -19.5 -88zM417 410.5q30 16.5 46 43t16 54.5q0 36 -25.5 61.5t-72.5 25.5h-102l-46 -201h113q41 0 71 16.5zM604 933l27 -97
l-250 -76l-30 96z" />
    <glyph glyph-name="racute" unicode="&#x155;" horiz-adv-x="446" 
d="M429 499l-50 -112q-27 13 -61 13q-46 0 -81.5 -29.5t-49.5 -91.5l-64 -279h-111l116 504h109l-14 -61q26 35 64.5 51.5t78.5 16.5q34 0 63 -12zM504 762l27 -97l-250 -76l-30 96z" />
    <glyph glyph-name="Rcommaaccent" unicode="&#x156;" horiz-adv-x="595" 
d="M577.5 433q-19.5 -43 -60 -76t-100.5 -46l105 -311h-127l-94 289h-92l-67 -289h-115l162 700h217q60 0 103.5 -24.5t65.5 -65.5t22 -89q0 -45 -19.5 -88zM417 410.5q30 16.5 46 43t16 54.5q0 36 -25.5 61.5t-72.5 25.5h-102l-46 -201h113q41 0 71 16.5zM241 -8l110 -66
l-180 -260l-81 44z" />
    <glyph glyph-name="rcommaaccent" unicode="&#x157;" horiz-adv-x="382" 
d="M429 499l-50 -112q-27 13 -61 13q-46 0 -81.5 -29.5t-49.5 -91.5l-64 -279h-111l116 504h109l-14 -61q26 35 64.5 51.5t78.5 16.5q34 0 63 -12zM39 -38l110 -66l-180 -260l-81 44z" />
    <glyph glyph-name="Rcaron" unicode="&#x158;" horiz-adv-x="595" 
d="M577.5 433q-19.5 -43 -60 -76t-100.5 -46l105 -311h-127l-94 289h-92l-67 -289h-115l162 700h217q60 0 103.5 -24.5t65.5 -65.5t22 -89q0 -45 -19.5 -88zM417 410.5q30 16.5 46 43t16 54.5q0 36 -25.5 61.5t-72.5 25.5h-102l-46 -201h113q41 0 71 16.5zM296 944l107 -83
l145 83l44 -73l-204 -118l-153 124z" />
    <glyph glyph-name="rcaron" unicode="&#x159;" horiz-adv-x="438" 
d="M448 499l-50 -112q-27 13 -61 13q-46 0 -81.5 -29.5t-49.5 -91.5l-64 -279h-111l116 504h109l-14 -61q26 35 64.5 51.5t78.5 16.5q34 0 63 -12zM238 782l107 -83l145 83l44 -73l-204 -118l-153 124z" />
    <glyph glyph-name="Sacute" unicode="&#x15a;" horiz-adv-x="571" 
d="M252 458q18 -23 43 -37.5t77 -38.5q48 -23 78.5 -43.5t51.5 -55t21 -85.5q0 -68 -36.5 -116.5t-96 -73t-127.5 -24.5q-74 0 -140.5 28.5t-103.5 82.5l87 77q24 -40 72 -61.5t98 -21.5q54 0 93 25t39 71q0 28 -15.5 48t-38.5 34t-63 32q-54 25 -89 48t-58.5 61.5
t-23.5 95.5q0 70 34.5 118t90.5 71t121 23q62 0 117 -22t89 -63l-73 -77q-24 30 -61.5 46.5t-77.5 16.5q-53 0 -89.5 -26t-36.5 -76q0 -34 18 -57zM574 933l27 -97l-250 -76l-30 96z" />
    <glyph glyph-name="sacute" unicode="&#x15b;" horiz-adv-x="490" 
d="M417.5 67.5q-32.5 -38.5 -85.5 -58.5t-113 -20q-68 0 -127.5 25.5t-94.5 72.5l81 78q24 -37 68 -57t91 -20q41 0 69.5 14.5t28.5 40.5q0 16 -12 26.5t-27.5 15.5t-54.5 16q-75 20 -120 53.5t-45 105.5q0 78 56.5 117.5t141.5 39.5q54 0 104.5 -15t87.5 -43l-59 -86
q-23 22 -58 34.5t-72 12.5q-39 0 -64.5 -14.5t-25.5 -43.5q0 -21 15 -34.5t35.5 -20t63.5 -17.5q47 -11 77 -23.5t51 -38t21 -68.5q0 -54 -32.5 -92.5zM503 762l27 -97l-250 -76l-30 96z" />
    <glyph glyph-name="Scircumflex" unicode="&#x15c;" horiz-adv-x="571" 
d="M252 458q18 -23 43 -37.5t77 -38.5q48 -23 78.5 -43.5t51.5 -55t21 -85.5q0 -68 -36.5 -116.5t-96 -73t-127.5 -24.5q-74 0 -140.5 28.5t-103.5 82.5l87 77q24 -40 72 -61.5t98 -21.5q54 0 93 25t39 71q0 28 -15.5 48t-38.5 34t-63 32q-54 25 -89 48t-58.5 61.5
t-23.5 95.5q0 70 34.5 118t90.5 71t121 23q62 0 117 -22t89 -63l-73 -77q-24 30 -61.5 46.5t-77.5 16.5q-53 0 -89.5 -26t-36.5 -76q0 -34 18 -57zM502 750l-92 81l-137 -81l-58 72l209 122l149 -129z" />
    <glyph glyph-name="scircumflex" unicode="&#x15d;" horiz-adv-x="490" 
d="M417.5 67.5q-32.5 -38.5 -85.5 -58.5t-113 -20q-68 0 -127.5 25.5t-94.5 72.5l81 78q24 -37 68 -57t91 -20q41 0 69.5 14.5t28.5 40.5q0 16 -12 26.5t-27.5 15.5t-54.5 16q-75 20 -120 53.5t-45 105.5q0 78 56.5 117.5t141.5 39.5q54 0 104.5 -15t87.5 -43l-59 -86
q-23 22 -58 34.5t-72 12.5q-39 0 -64.5 -14.5t-25.5 -43.5q0 -21 15 -34.5t35.5 -20t63.5 -17.5q47 -11 77 -23.5t51 -38t21 -68.5q0 -54 -32.5 -92.5zM437 592l-92 81l-137 -81l-58 72l209 122l149 -129z" />
    <glyph glyph-name="Scedilla" unicode="&#x15e;" horiz-adv-x="571" 
d="M450.5 338.5q30.5 -20.5 51.5 -55t21 -85.5q0 -66 -33.5 -113t-89.5 -72.5t-121 -28.5l-8 -24q56 -9 85.5 -38.5t29.5 -67.5q0 -28 -16 -53t-46 -40.5t-70 -15.5q-38 0 -75 16t-63 45l48 51q20 -22 43 -33.5t45 -11.5q26 0 44.5 12.5t18.5 35.5q0 31 -33 45t-80 19l20 62
q-63 7 -117 35t-86 74l87 77q24 -40 72 -61.5t98 -21.5q54 0 93 25t39 71q0 28 -15.5 48t-38.5 34t-63 32q-54 25 -89 48t-58.5 61.5t-23.5 95.5q0 70 34.5 118t90.5 71t121 23q62 0 117 -22t89 -63l-73 -77q-24 30 -61.5 46.5t-77.5 16.5q-53 0 -89.5 -26t-36.5 -76
q0 -34 18 -57t43 -37.5t77 -38.5q48 -23 78.5 -43.5z" />
    <glyph glyph-name="scedilla" unicode="&#x15f;" horiz-adv-x="490" 
d="M378 266.5q30 -12.5 51 -38t21 -68.5q0 -53 -31.5 -91.5t-82.5 -58.5t-110 -21l-10 -29q56 -9 85.5 -38.5t29.5 -67.5q0 -28 -16 -53t-46 -40.5t-70 -15.5q-38 0 -75 16t-63 45l48 51q20 -22 43 -33.5t45 -11.5q26 0 44.5 12.5t18.5 35.5q0 31 -33 45t-80 19l22 69
q-54 8 -98.5 32t-73.5 62l81 78q24 -37 68 -57t91 -20q41 0 69.5 14.5t28.5 40.5q0 16 -12 26.5t-27.5 15.5t-54.5 16q-75 20 -120 53.5t-45 105.5q0 78 56.5 117.5t141.5 39.5q54 0 104.5 -15t87.5 -43l-59 -86q-23 22 -58 34.5t-72 12.5q-39 0 -64.5 -14.5t-25.5 -43.5
q0 -21 15 -34.5t35.5 -20t63.5 -17.5q47 -11 77 -23.5z" />
    <glyph glyph-name="Scaron" unicode="&#x160;" horiz-adv-x="571" 
d="M252 458q18 -23 43 -37.5t77 -38.5q48 -23 78.5 -43.5t51.5 -55t21 -85.5q0 -68 -36.5 -116.5t-96 -73t-127.5 -24.5q-74 0 -140.5 28.5t-103.5 82.5l87 77q24 -40 72 -61.5t98 -21.5q54 0 93 25t39 71q0 28 -15.5 48t-38.5 34t-63 32q-54 25 -89 48t-58.5 61.5
t-23.5 95.5q0 70 34.5 118t90.5 71t121 23q62 0 117 -22t89 -63l-73 -77q-24 30 -61.5 46.5t-77.5 16.5q-53 0 -89.5 -26t-36.5 -76q0 -34 18 -57zM298 944l107 -83l145 83l44 -73l-204 -118l-153 124z" />
    <glyph glyph-name="scaron" unicode="&#x161;" horiz-adv-x="490" 
d="M417.5 67.5q-32.5 -38.5 -85.5 -58.5t-113 -20q-68 0 -127.5 25.5t-94.5 72.5l81 78q24 -37 68 -57t91 -20q41 0 69.5 14.5t28.5 40.5q0 16 -12 26.5t-27.5 15.5t-54.5 16q-75 20 -120 53.5t-45 105.5q0 78 56.5 117.5t141.5 39.5q54 0 104.5 -15t87.5 -43l-59 -86
q-23 22 -58 34.5t-72 12.5q-39 0 -64.5 -14.5t-25.5 -43.5q0 -21 15 -34.5t35.5 -20t63.5 -17.5q47 -11 77 -23.5t51 -38t21 -68.5q0 -54 -32.5 -92.5zM229 782l107 -83l145 83l44 -73l-204 -118l-153 124z" />
    <glyph glyph-name="uni0162" unicode="&#x162;" horiz-adv-x="608" 
d="M691 700l-25 -105h-229l-137 -595h-56l-14 -40q56 -9 85.5 -38.5t29.5 -67.5q0 -28 -16 -53t-46 -40.5t-70 -15.5q-38 0 -75 16t-63 45l48 51q20 -22 43 -33.5t45 -11.5q26 0 44.5 12.5t18.5 35.5q0 31 -33 45t-80 19l25 79l136 592h-228l24 105h573z" />
    <glyph glyph-name="uni0163" unicode="&#x163;" horiz-adv-x="430" 
d="M214 163q-3 -13 -3 -25q0 -26 15 -39t41 -13q33 0 72 18l28 -80q-28 -17 -61 -25.5t-63 -8.5q-22 0 -47 5l-12 -35q56 -9 85.5 -38.5t29.5 -67.5q0 -28 -16 -53t-46 -40.5t-70 -15.5q-38 0 -75 16t-63 45l48 51q20 -22 43 -33.5t45 -11.5q26 0 44.5 12.5t18.5 35.5
q0 31 -33 45t-80 19l30 96q-46 36 -46 103q0 22 6 47l54 232h-109l23 102h109l30 129h110l-29 -129h141l-24 -102h-141z" />
    <glyph glyph-name="Tcaron" unicode="&#x164;" horiz-adv-x="608" 
d="M300 0h-115l137 595h-228l24 105h573l-25 -105h-229zM322 944l107 -83l145 83l44 -73l-204 -118l-153 124z" />
    <glyph glyph-name="tcaron" unicode="&#x165;" horiz-adv-x="686" 
d="M306 -1.5q-33 -8.5 -63 -8.5q-64 0 -104 34.5t-40 98.5q0 22 6 47l54 232h-109l23 102h109l30 129h110l-29 -129h141l-24 -102h-141l-55 -239q-3 -13 -3 -25q0 -26 15 -39t41 -13q33 0 72 18l28 -80q-28 -17 -61 -25.5zM638 717l110 -66l-180 -260l-81 44z" />
    <glyph glyph-name="Tbar" unicode="&#x166;" horiz-adv-x="608" 
d="M437 595l-34 -146h160l-12 -50h-159l-92 -399h-115l92 399h-159l12 50h158l34 146h-228l24 105h573l-25 -105h-229z" />
    <glyph glyph-name="tbar" unicode="&#x167;" horiz-adv-x="430" 
d="M269 402l-17 -75h131l-23 -102h-132l-14 -62q-3 -13 -3 -25q0 -26 15 -39t41 -13q33 0 72 18l28 -80q-28 -17 -61 -25.5t-63 -8.5q-64 0 -104 34.5t-40 98.5q0 22 6 47l13 55h-108l23 102h109l17 75h-109l23 102h109l30 129h110l-29 -129h141l-24 -102h-141z" />
    <glyph glyph-name="Utilde" unicode="&#x168;" horiz-adv-x="681" 
d="M178 700h115l-100 -431q-6 -28 -6 -51q0 -59 34.5 -91.5t88.5 -32.5q41 0 80.5 19.5t69 56.5t41.5 89l103 441h115l-106 -455q-18 -81 -65.5 -140.5t-112.5 -90t-136 -30.5q-63 0 -115 25t-83 73t-31 115q0 34 9 74zM590.5 786.5q-25.5 -25.5 -57.5 -25.5q-17 0 -33.5 8
t-36.5 22q-18 12 -29 17.5t-22 5.5q-15 0 -31 -13t-37 -37l-64 53q22 35 57 65.5t74 30.5q18 0 33.5 -7t38.5 -21q18 -11 28 -15.5t20 -4.5q14 0 25.5 11t26.5 31l62 -49q-29 -46 -54.5 -71.5z" />
    <glyph glyph-name="utilde" unicode="&#x169;" horiz-adv-x="569" 
d="M451 0h-108l16 69q-56 -80 -150 -80q-69 0 -114.5 44t-45.5 119q0 30 7 58l67 294h109l-67 -292q-4 -17 -4 -34q0 -38 22.5 -57.5t60.5 -19.5q52 0 95 37t59 109l60 257h109zM492.5 625.5q-25.5 -25.5 -57.5 -25.5q-17 0 -33.5 8t-36.5 22q-18 12 -29 17.5t-22 5.5
q-15 0 -31 -13t-37 -37l-64 53q22 35 57 65.5t74 30.5q18 0 33.5 -7t38.5 -21q18 -11 28 -15.5t20 -4.5q14 0 25.5 11t26.5 31l62 -49q-29 -46 -54.5 -71.5z" />
    <glyph glyph-name="Umacron" unicode="&#x16a;" horiz-adv-x="681" 
d="M178 700h115l-100 -431q-6 -28 -6 -51q0 -59 34.5 -91.5t88.5 -32.5q41 0 80.5 19.5t69 56.5t41.5 89l103 441h115l-106 -455q-18 -81 -65.5 -140.5t-112.5 -90t-136 -30.5q-63 0 -115 25t-83 73t-31 115q0 34 9 74zM628 869l-26 -109h-296l25 109h297z" />
    <glyph glyph-name="umacron" unicode="&#x16b;" horiz-adv-x="569" 
d="M451 0h-108l16 69q-56 -80 -150 -80q-69 0 -114.5 44t-45.5 119q0 30 7 58l67 294h109l-67 -292q-4 -17 -4 -34q0 -38 22.5 -57.5t60.5 -19.5q52 0 95 37t59 109l60 257h109zM521 699l-23 -99h-296l22 99h297z" />
    <glyph glyph-name="Ubreve" unicode="&#x16c;" horiz-adv-x="681" 
d="M178 700h115l-100 -431q-6 -28 -6 -51q0 -59 34.5 -91.5t88.5 -32.5q41 0 80.5 19.5t69 56.5t41.5 89l103 441h115l-106 -455q-18 -81 -65.5 -140.5t-112.5 -90t-136 -30.5q-63 0 -115 25t-83 73t-31 115q0 34 9 74zM622 906q0 -63 -35.5 -106t-109.5 -43t-109.5 43
t-35.5 106h83q0 -68 60 -68q64 0 64 68h83z" />
    <glyph glyph-name="ubreve" unicode="&#x16d;" horiz-adv-x="569" 
d="M451 0h-108l16 69q-56 -80 -150 -80q-69 0 -114.5 44t-45.5 119q0 30 7 58l67 294h109l-67 -292q-4 -17 -4 -34q0 -38 22.5 -57.5t60.5 -19.5q52 0 95 37t59 109l60 257h109zM525 749q0 -63 -35.5 -106t-109.5 -43t-109.5 43t-35.5 106h83q0 -68 60 -68q64 0 64 68h83z
" />
    <glyph glyph-name="Uring" unicode="&#x16e;" horiz-adv-x="681" 
d="M178 700h115l-100 -431q-6 -28 -6 -51q0 -59 34.5 -91.5t88.5 -32.5q41 0 80.5 19.5t69 56.5t41.5 89l103 441h115l-106 -455q-18 -81 -65.5 -140.5t-112.5 -90t-136 -30.5q-63 0 -115 25t-83 73t-31 115q0 34 9 74zM373 918q31 32 78 32q46 0 79 -32.5t33 -77.5
q0 -47 -32.5 -78.5t-79.5 -31.5t-78 31.5t-31 78.5q0 46 31 78zM416 802.5q13 -14.5 35 -14.5t35.5 14.5t13.5 36.5t-13.5 36.5t-35.5 14.5t-35 -14.5t-13 -36.5t13 -36.5z" />
    <glyph glyph-name="uring" unicode="&#x16f;" horiz-adv-x="569" 
d="M451 0h-108l16 69q-56 -80 -150 -80q-69 0 -114.5 44t-45.5 119q0 30 7 58l67 294h109l-67 -292q-4 -17 -4 -34q0 -38 22.5 -57.5t60.5 -19.5q52 0 95 37t59 109l60 257h109zM287 812.5q36 36.5 89 36.5q34 0 63 -17t46 -45.5t17 -62.5q0 -53 -37 -88.5t-89 -35.5
q-54 0 -89.5 35.5t-35.5 88.5q0 52 36 88.5zM335 682q16 -17 41 -17q24 0 40 17t16 42q0 24 -16 41t-40 17t-40.5 -17t-16.5 -41q0 -25 16 -42z" />
    <glyph glyph-name="Uhungarumlaut" unicode="&#x170;" horiz-adv-x="681" 
d="M178 700h115l-100 -431q-6 -28 -6 -51q0 -59 34.5 -91.5t88.5 -32.5q41 0 80.5 19.5t69 56.5t41.5 89l103 441h115l-106 -455q-18 -81 -65.5 -140.5t-112.5 -90t-136 -30.5q-63 0 -115 25t-83 73t-31 115q0 34 9 74zM423 769h-83l55 131h108zM565 769h-85l78 131h108z
" />
    <glyph glyph-name="uhungarumlaut" unicode="&#x171;" horiz-adv-x="569" 
d="M451 0h-108l16 69q-56 -80 -150 -80q-69 0 -114.5 44t-45.5 119q0 30 7 58l67 294h109l-67 -292q-4 -17 -4 -34q0 -38 22.5 -57.5t60.5 -19.5q52 0 95 37t59 109l60 257h109zM308 600h-83l55 131h108zM450 600h-85l78 131h108z" />
    <glyph glyph-name="Uogonek" unicode="&#x172;" horiz-adv-x="681" 
d="M719 700l-106 -455q-17 -77 -60.5 -134t-103.5 -89t-126 -37q-26 -16 -41.5 -36t-15.5 -39q0 -20 18.5 -31t53.5 -10l-17 -74q-65 3 -100.5 25.5t-35.5 59.5q0 28 18.5 56t54.5 51q-82 12 -135 66.5t-53 142.5q0 35 9 75l99 429h115l-100 -431q-6 -28 -6 -51
q0 -59 34.5 -91.5t88.5 -32.5q41 0 80.5 19.5t69 56.5t41.5 89l103 441h115z" />
    <glyph glyph-name="uogonek" unicode="&#x173;" horiz-adv-x="569" 
d="M348.5 -40q-24.5 -25 -24.5 -50q0 -20 18.5 -31t53.5 -10l-17 -74q-65 3 -100.5 25.5t-35.5 59.5q0 33 26 66t75 57l15 66q-56 -80 -150 -80q-69 0 -114.5 44t-45.5 119q0 30 7 58l67 294h109l-67 -292q-4 -17 -4 -34q0 -38 22.5 -57.5t60.5 -19.5q52 0 95 37t59 109
l60 257h109l-116 -504h-40q-38 -15 -62.5 -40z" />
    <glyph glyph-name="Wcircumflex" unicode="&#x174;" horiz-adv-x="1024" 
d="M717 0h-109l-44 500l-276 -500h-109l-71 700h120l41 -504l275 504h119l42 -504l274 504h133zM725 750l-92 81l-137 -81l-58 72l209 122l149 -129z" />
    <glyph glyph-name="wcircumflex" unicode="&#x175;" horiz-adv-x="876" 
d="M620 0h-108l-52 330l-203 -330h-109l-70 504h114l40 -348l206 348h113l48 -348l194 348h131zM614 592l-92 81l-137 -81l-58 72l209 122l149 -129z" />
    <glyph glyph-name="Ycircumflex" unicode="&#x176;" horiz-adv-x="646" 
d="M321 0h-115l71 302l-169 398h130l114 -288l245 288h147l-352 -399zM534 750l-92 81l-137 -81l-58 72l209 122l149 -129z" />
    <glyph glyph-name="ycircumflex" unicode="&#x177;" horiz-adv-x="601" 
d="M480 -9q-18 -76 -60 -126.5t-97 -74.5t-112 -24t-107.5 23t-84 66.5t-42.5 100.5l101 37q10 -59 47 -92t89 -33q60 0 102.5 35.5t59.5 106.5l17 72q-29 -40 -72.5 -58.5t-89.5 -18.5q-67 0 -113 41.5t-46 117.5q0 30 7 61l65 279h110l-60 -262q-6 -27 -6 -48
q0 -40 21 -61t58 -21q55 0 102.5 40t63.5 110l57 242h109zM475 592l-92 81l-137 -81l-58 72l209 122l149 -129z" />
    <glyph glyph-name="Ydieresis" unicode="&#x178;" horiz-adv-x="646" 
d="M321 0h-115l71 302l-169 398h130l114 -288l245 288h147l-352 -399zM368 782q-21 -21 -51 -21q-31 0 -52 21t-21 51t21 51t52 21q30 0 51 -21t21 -51t-21 -51zM598.5 782q-21.5 -21 -52.5 -21q-30 0 -51 21t-21 51t21 51t51 21q31 0 52.5 -21t21.5 -51t-21.5 -51z" />
    <glyph glyph-name="Zacute" unicode="&#x179;" horiz-adv-x="595" 
d="M10 95l450 500h-327l25 105h478l-21 -94l-451 -501h352l-24 -105h-505zM595 933l27 -97l-250 -76l-30 96z" />
    <glyph glyph-name="zacute" unicode="&#x17a;" horiz-adv-x="536" 
d="M21 104l343 296h-263l25 104h417l-25 -105l-339 -295h287l-23 -104h-445zM513 762l27 -97l-250 -76l-30 96z" />
    <glyph glyph-name="Zdotaccent" unicode="&#x17b;" horiz-adv-x="595" 
d="M10 95l450 500h-327l25 105h478l-21 -94l-451 -501h352l-24 -105h-505zM354.5 883q20.5 21 50.5 21q31 0 52 -21t21 -52q0 -30 -21 -50.5t-52 -20.5q-30 0 -50.5 20.5t-20.5 50.5q0 31 20.5 52z" />
    <glyph glyph-name="zdotaccent" unicode="&#x17c;" horiz-adv-x="536" 
d="M21 104l343 296h-263l25 104h417l-25 -105l-339 -295h287l-23 -104h-445zM417 623q-21 -21 -52 -21t-52 21t-21 51t21 51t52 21t52 -21t21 -51t-21 -51z" />
    <glyph glyph-name="Zcaron" unicode="&#x17d;" horiz-adv-x="595" 
d="M10 95l450 500h-327l25 105h478l-21 -94l-451 -501h352l-24 -105h-505zM308 944l107 -83l145 83l44 -73l-204 -118l-153 124z" />
    <glyph glyph-name="zcaron" unicode="&#x17e;" horiz-adv-x="536" 
d="M21 104l343 296h-263l25 104h417l-25 -105l-339 -295h287l-23 -104h-445zM241 782l107 -83l145 83l44 -73l-204 -118l-153 124z" />
    <glyph glyph-name="longs" unicode="&#x17f;" horiz-adv-x="402" 
d="M263.5 684.5q51.5 33.5 116.5 33.5q74 0 125 -43l-61 -77q-27 23 -61 23q-30 0 -53.5 -19.5t-32.5 -55.5l-126 -546h-110l92 402h-98l24 102h98l18 75q17 72 68.5 105.5z" />
    <glyph glyph-name="florin" unicode="&#x192;" horiz-adv-x="387" 
d="M313.5 601.5q-23.5 -19.5 -31.5 -55.5l-10 -42h131l-23 -102h-131l-111 -480q-18 -80 -63.5 -118t-107.5 -38q-60 0 -112 30l45 88q25 -21 59 -21q54 0 72 74l107 465h-98l24 102h98l18 75q17 72 68.5 105.5t116.5 33.5q74 0 125 -43l-61 -77q-29 23 -61 23
q-31 0 -54.5 -19.5z" />
    <glyph glyph-name="Ohorn" unicode="&#x1a0;" 
d="M772 525.5q23 -60.5 23 -131.5q0 -112 -55.5 -206t-149 -149t-203.5 -55q-95 0 -167 41.5t-111 115t-39 166.5q0 111 55 205t149 149t204 55q72 0 133 -25q51 4 79 37.5t37 76.5l96 -25q-7 -47 -38.5 -88.5t-79.5 -62.5q44 -43 67 -103.5zM538.5 132q63.5 38 101.5 104
t38 145q0 66 -26.5 117t-75.5 79.5t-113 28.5q-74 0 -138 -38t-101.5 -104t-37.5 -145q0 -66 26.5 -117t75 -79.5t112.5 -28.5q75 0 138.5 38z" />
    <glyph glyph-name="ohorn" unicode="&#x1a1;" horiz-adv-x="598" 
d="M608.5 488.5q-32.5 -41.5 -81.5 -62.5q41 -58 41 -140q0 -81 -41 -149t-110.5 -108t-150.5 -40q-69 0 -121.5 30t-81 82.5t-28.5 118.5q0 81 40.5 149t110 108t150.5 40q65 0 115 -26q44 9 68.5 41t32.5 71l96 -25q-7 -48 -39.5 -89.5zM370 117q41 24 64.5 66t23.5 92
q0 63 -36.5 101.5t-98.5 38.5q-48 0 -88.5 -24t-64.5 -66t-24 -92q0 -62 36.5 -101t98.5 -39q48 0 89 24z" />
    <glyph glyph-name="Uhorn" unicode="&#x1af;" horiz-adv-x="743" 
d="M793 695q-36 -44 -90 -62l-90 -388q-18 -81 -65.5 -140.5t-112.5 -90t-136 -30.5q-63 0 -115 25t-83 73t-31 115q0 34 9 74l99 429h115l-100 -431q-6 -28 -6 -51q0 -59 34.5 -91.5t88.5 -32.5q41 0 80.5 19.5t69 56.5t41.5 89l103 441h9q56 0 87 34.5t40 79.5l96 -25
q-7 -50 -43 -94z" />
    <glyph glyph-name="uhorn" unicode="&#x1b0;" horiz-adv-x="624" 
d="M640 499.5q-35 -43.5 -88 -61.5l-101 -438h-108l16 69q-56 -80 -150 -80q-69 0 -114.5 44t-45.5 119q0 30 7 58l67 294h109l-67 -292q-4 -17 -4 -34q0 -38 22.5 -57.5t60.5 -19.5q52 0 95 37t59 109l60 257h1q56 0 87 34.5t40 79.5l96 -25q-7 -50 -42 -93.5z" />
    <glyph glyph-name="uni01CD" unicode="&#x1cd;" horiz-adv-x="698" 
d="M373 944l107 -83l145 83l44 -73l-204 -118l-153 124zM490 177h-288l-106 -177h-129l434 700h117l112 -700h-116zM475 282l-40 282l-170 -282h210z" />
    <glyph glyph-name="uni01CE" unicode="&#x1ce;" horiz-adv-x="673" 
d="M593 101l26 -81q-19 -14 -44.5 -22t-50.5 -8q-38 0 -66 22t-33 65q-37 -48 -89 -68t-101 -20q-64 0 -109 31.5t-68 83.5t-23 113q0 77 35 146t99.5 111.5t148.5 42.5q61 0 105 -23.5t59 -62.5l16 73h109l-83 -361q-2 -7 -2 -19q0 -17 9 -25.5t23 -8.5q15 0 39 11z
M362 119q41 29 63 74.5t22 93.5q0 56 -31 93.5t-92 37.5q-54 0 -94.5 -29t-62 -75t-21.5 -94q0 -56 30.5 -93t91.5 -37q53 0 94 29zM278 782l107 -83l145 83l44 -73l-204 -118l-153 124z" />
    <glyph glyph-name="uni01CF" unicode="&#x1cf;" horiz-adv-x="285" 
d="M193 700h115l-161 -700h-115zM165 944l107 -83l145 83l44 -73l-204 -118l-153 124z" />
    <glyph glyph-name="uni01D0" unicode="&#x1d0;" horiz-adv-x="273" 
d="M141 504h110l-117 -504h-110zM123 782l107 -83l145 83l44 -73l-204 -118l-153 124z" />
    <glyph glyph-name="uni01D1" unicode="&#x1d1;" 
d="M645.5 674.5q71.5 -41.5 110.5 -115t39 -165.5q0 -112 -55.5 -206t-149 -149t-203.5 -55q-95 0 -167 41.5t-111 115t-39 166.5q0 111 55 205t149 149t204 55q96 0 167.5 -41.5zM325 568q-64 -38 -101.5 -104t-37.5 -145q0 -66 26.5 -117t75 -79.5t112.5 -28.5
q75 0 138.5 38t101.5 104t38 145q0 66 -26.5 117t-75.5 79.5t-113 28.5q-74 0 -138 -38zM434 944l107 -83l145 83l44 -73l-204 -118l-153 124z" />
    <glyph glyph-name="uni01D2" unicode="&#x1d2;" horiz-adv-x="598" 
d="M459 487q53 -30 81 -82.5t28 -118.5q0 -81 -41 -149t-110.5 -108t-150.5 -40q-69 0 -121.5 30t-81 82.5t-28.5 118.5q0 81 40.5 149t110 108t150.5 40q70 0 123 -30zM234.5 391q-40.5 -24 -64.5 -66t-24 -92q0 -62 36.5 -101t98.5 -39q48 0 89 24t64.5 66t23.5 92
q0 63 -36.5 101.5t-98.5 38.5q-48 0 -88.5 -24zM287 782l107 -83l145 83l44 -73l-204 -118l-153 124z" />
    <glyph glyph-name="uni01D3" unicode="&#x1d3;" horiz-adv-x="681" 
d="M178 700h115l-100 -431q-6 -28 -6 -51q0 -59 34.5 -91.5t88.5 -32.5q41 0 80.5 19.5t69 56.5t41.5 89l103 441h115l-106 -455q-18 -81 -65.5 -140.5t-112.5 -90t-136 -30.5q-63 0 -115 25t-83 73t-31 115q0 34 9 74zM370 944l107 -83l145 83l44 -73l-204 -118l-153 124z
" />
    <glyph glyph-name="uni01D4" unicode="&#x1d4;" horiz-adv-x="569" 
d="M451 0h-108l16 69q-56 -80 -150 -80q-69 0 -114.5 44t-45.5 119q0 30 7 58l67 294h109l-67 -292q-4 -17 -4 -34q0 -38 22.5 -57.5t60.5 -19.5q52 0 95 37t59 109l60 257h109zM278 782l107 -83l145 83l44 -73l-204 -118l-153 124z" />
    <glyph glyph-name="uni01D5" unicode="&#x1d5;" horiz-adv-x="681" 
d="M178 700h115l-100 -431q-6 -28 -6 -51q0 -59 34.5 -91.5t88.5 -32.5q41 0 80.5 19.5t69 56.5t41.5 89l103 441h115l-106 -455q-18 -81 -65.5 -140.5t-112.5 -90t-136 -30.5q-63 0 -115 25t-83 73t-31 115q0 34 9 74zM408 772q-21 -21 -51 -21q-31 0 -52 21t-21 51t21 51
t52 21q30 0 51 -21t21 -51t-21 -51zM638.5 772q-21.5 -21 -52.5 -21q-30 0 -51 21t-21 51t21 51t51 21q31 0 52.5 -21t21.5 -51t-21.5 -51zM657 1039l-23 -99h-296l22 99h297z" />
    <glyph glyph-name="uni01D6" unicode="&#x1d6;" horiz-adv-x="569" 
d="M451 0h-108l16 69q-56 -80 -150 -80q-69 0 -114.5 44t-45.5 119q0 30 7 58l67 294h109l-67 -292q-4 -17 -4 -34q0 -38 22.5 -57.5t60.5 -19.5q52 0 95 37t59 109l60 257h109zM314 603q-21 -21 -51 -21q-31 0 -52 21t-21 51t21 51t52 21q30 0 51 -21t21 -51t-21 -51z
M544.5 603q-21.5 -21 -52.5 -21q-30 0 -51 21t-21 51t21 51t51 21q31 0 52.5 -21t21.5 -51t-21.5 -51zM563 870l-23 -99h-296l22 99h297z" />
    <glyph glyph-name="uni01D7" unicode="&#x1d7;" horiz-adv-x="681" 
d="M428 978l164 69l32 -78l-163 -67zM410 772q-21 -21 -51 -21q-31 0 -52 21t-21 51t21 51t52 21q30 0 51 -21t21 -51t-21 -51zM640.5 772q-21.5 -21 -52.5 -21q-30 0 -51 21t-21 51t21 51t51 21q31 0 52.5 -21t21.5 -51t-21.5 -51zM178 700h115l-100 -431q-6 -28 -6 -51
q0 -59 34.5 -91.5t88.5 -32.5q41 0 80.5 19.5t69 56.5t41.5 89l103 441h115l-106 -455q-18 -81 -65.5 -140.5t-112.5 -90t-136 -30.5q-63 0 -115 25t-83 73t-31 115q0 34 9 74z" />
    <glyph glyph-name="uni01D8" unicode="&#x1d8;" horiz-adv-x="569" 
d="M312 809l164 69l32 -78l-163 -67zM294 603q-21 -21 -51 -21q-31 0 -52 21t-21 51t21 51t52 21q30 0 51 -21t21 -51t-21 -51zM524.5 603q-21.5 -21 -52.5 -21q-30 0 -51 21t-21 51t21 51t51 21q31 0 52.5 -21t21.5 -51t-21.5 -51zM451 0h-108l16 69q-56 -80 -150 -80
q-69 0 -114.5 44t-45.5 119q0 30 7 58l67 294h109l-67 -292q-4 -17 -4 -34q0 -38 22.5 -57.5t60.5 -19.5q52 0 95 37t59 109l60 257h109z" />
    <glyph glyph-name="uni01D9" unicode="&#x1d9;" horiz-adv-x="681" 
d="M429 1044l58 -45l79 46l44 -73l-138 -81l-104 86zM178 700h115l-100 -431q-6 -28 -6 -51q0 -59 34.5 -91.5t88.5 -32.5q41 0 80.5 19.5t69 56.5t41.5 89l103 441h115l-106 -455q-18 -81 -65.5 -140.5t-112.5 -90t-136 -30.5q-63 0 -115 25t-83 73t-31 115q0 34 9 74z
M410 772q-21 -21 -51 -21q-31 0 -52 21t-21 51t21 51t52 21q30 0 51 -21t21 -51t-21 -51zM640.5 772q-21.5 -21 -52.5 -21q-30 0 -51 21t-21 51t21 51t51 21q31 0 52.5 -21t21.5 -51t-21.5 -51z" />
    <glyph glyph-name="uni01DA" unicode="&#x1da;" horiz-adv-x="569" 
d="M451 0h-108l16 69q-56 -80 -150 -80q-69 0 -114.5 44t-45.5 119q0 30 7 58l67 294h109l-67 -292q-4 -17 -4 -34q0 -38 22.5 -57.5t60.5 -19.5q52 0 95 37t59 109l60 257h109zM294 603q-21 -21 -51 -21q-31 0 -52 21t-21 51t21 51t52 21q30 0 51 -21t21 -51t-21 -51z
M524.5 603q-21.5 -21 -52.5 -21q-30 0 -51 21t-21 51t21 51t51 21q31 0 52.5 -21t21.5 -51t-21.5 -51zM313 875l58 -45l79 46l44 -73l-138 -81l-104 86z" />
    <glyph glyph-name="uni01DB" unicode="&#x1db;" horiz-adv-x="681" 
d="M328 969l32 78l164 -68l-33 -77zM410 772q-21 -21 -51 -21q-31 0 -52 21t-21 51t21 51t52 21q30 0 51 -21t21 -51t-21 -51zM640.5 772q-21.5 -21 -52.5 -21q-30 0 -51 21t-21 51t21 51t51 21q31 0 52.5 -21t21.5 -51t-21.5 -51zM178 700h115l-100 -431q-6 -28 -6 -51
q0 -59 34.5 -91.5t88.5 -32.5q41 0 80.5 19.5t69 56.5t41.5 89l103 441h115l-106 -455q-18 -81 -65.5 -140.5t-112.5 -90t-136 -30.5q-63 0 -115 25t-83 73t-31 115q0 34 9 74z" />
    <glyph glyph-name="uni01DC" unicode="&#x1dc;" horiz-adv-x="569" 
d="M212 800l32 78l164 -68l-33 -77zM294 603q-21 -21 -51 -21q-31 0 -52 21t-21 51t21 51t52 21q30 0 51 -21t21 -51t-21 -51zM524.5 603q-21.5 -21 -52.5 -21q-30 0 -51 21t-21 51t21 51t51 21q31 0 52.5 -21t21.5 -51t-21.5 -51zM451 0h-108l16 69q-56 -80 -150 -80
q-69 0 -114.5 44t-45.5 119q0 30 7 58l67 294h109l-67 -292q-4 -17 -4 -34q0 -38 22.5 -57.5t60.5 -19.5q52 0 95 37t59 109l60 257h109z" />
    <glyph glyph-name="Scommaaccent" unicode="&#x218;" horiz-adv-x="571" 
d="M252 458q18 -23 43 -37.5t77 -38.5q48 -23 78.5 -43.5t51.5 -55t21 -85.5q0 -68 -36.5 -116.5t-96 -73t-127.5 -24.5q-74 0 -140.5 28.5t-103.5 82.5l87 77q24 -40 72 -61.5t98 -21.5q54 0 93 25t39 71q0 28 -15.5 48t-38.5 34t-63 32q-54 25 -89 48t-58.5 61.5
t-23.5 95.5q0 70 34.5 118t90.5 71t121 23q62 0 117 -22t89 -63l-73 -77q-24 30 -61.5 46.5t-77.5 16.5q-53 0 -89.5 -26t-36.5 -76q0 -34 18 -57zM257 -38l110 -66l-180 -260l-81 44z" />
    <glyph glyph-name="scommaaccent" unicode="&#x219;" horiz-adv-x="490" 
d="M417.5 67.5q-32.5 -38.5 -85.5 -58.5t-113 -20q-68 0 -127.5 25.5t-94.5 72.5l81 78q24 -37 68 -57t91 -20q41 0 69.5 14.5t28.5 40.5q0 16 -12 26.5t-27.5 15.5t-54.5 16q-75 20 -120 53.5t-45 105.5q0 78 56.5 117.5t141.5 39.5q54 0 104.5 -15t87.5 -43l-59 -86
q-23 22 -58 34.5t-72 12.5q-39 0 -64.5 -14.5t-25.5 -43.5q0 -21 15 -34.5t35.5 -20t63.5 -17.5q47 -11 77 -23.5t51 -38t21 -68.5q0 -54 -32.5 -92.5zM167 -38l110 -66l-180 -260l-81 44z" />
    <glyph glyph-name="uni021A" unicode="&#x21a;" horiz-adv-x="608" 
d="M300 0h-115l137 595h-228l24 105h573l-25 -105h-229zM200 -38l110 -66l-180 -260l-81 44z" />
    <glyph glyph-name="uni021B" unicode="&#x21b;" horiz-adv-x="430" 
d="M306 -1.5q-33 -8.5 -63 -8.5q-64 0 -104 34.5t-40 98.5q0 22 6 47l54 232h-109l23 102h109l30 129h110l-29 -129h141l-24 -102h-141l-55 -239q-3 -13 -3 -25q0 -26 15 -39t41 -13q33 0 72 18l28 -80q-28 -17 -61 -25.5zM157 -38l110 -66l-180 -260l-81 44z" />
    <glyph glyph-name="uni0233" unicode="&#x233;" horiz-adv-x="601" 
d="M480 -9q-18 -76 -60 -126.5t-97 -74.5t-112 -24t-107.5 23t-84 66.5t-42.5 100.5l101 37q10 -59 47 -92t89 -33q60 0 102.5 35.5t59.5 106.5l17 72q-29 -40 -72.5 -58.5t-89.5 -18.5q-67 0 -113 41.5t-46 117.5q0 30 7 61l65 279h110l-60 -262q-6 -27 -6 -48
q0 -40 21 -61t58 -21q55 0 102.5 40t63.5 110l57 242h109zM567 699l-23 -99h-296l22 99h297z" />
    <glyph glyph-name="uni0268" unicode="&#x268;" horiz-adv-x="274" 
d="M168.5 603.5q-22.5 22.5 -22.5 56.5t22.5 56.5t56.5 22.5t57.5 -22.5t23.5 -56.5t-23.5 -56.5t-57.5 -22.5t-56.5 22.5zM286 252h-92l-59 -252h-110l59 252h-95l22 92h94l37 160h110l-37 -160h93z" />
    <glyph glyph-name="circumflex" unicode="&#x2c6;" horiz-adv-x="359" 
d="M382 592l-92 81l-137 -81l-58 72l209 122l149 -129z" />
    <glyph glyph-name="caron" unicode="&#x2c7;" horiz-adv-x="358" 
d="M168 782l107 -83l145 83l44 -73l-204 -118l-153 124z" />
    <glyph glyph-name="breve" unicode="&#x2d8;" horiz-adv-x="296" 
d="M405 749q0 -63 -35.5 -106t-109.5 -43t-109.5 43t-35.5 106h83q0 -68 60 -68q64 0 64 68h83z" />
    <glyph glyph-name="dotaccent" unicode="&#x2d9;" horiz-adv-x="150" 
d="M224 623q-21 -21 -52 -21t-52 21t-21 51t21 51t52 21t52 -21t21 -51t-21 -51z" />
    <glyph glyph-name="ring" unicode="&#x2da;" horiz-adv-x="257" 
d="M148 812.5q36 36.5 89 36.5q34 0 63 -17t46 -45.5t17 -62.5q0 -53 -37 -88.5t-89 -35.5q-54 0 -89.5 35.5t-35.5 88.5q0 52 36 88.5zM196 682q16 -17 41 -17q24 0 40 17t16 42q0 24 -16 41t-40 17t-40.5 -17t-16.5 -41q0 -25 16 -42z" />
    <glyph glyph-name="ogonek" unicode="&#x2db;" horiz-adv-x="161" 
d="M15.5 -121q18.5 -11 53.5 -10l-17 -74q-65 3 -100.5 25.5t-35.5 59.5q0 35 28.5 69t81.5 58h78q-46 -13 -76.5 -41t-30.5 -56q0 -20 18.5 -31z" />
    <glyph glyph-name="tilde" unicode="&#x2dc;" horiz-adv-x="355" 
d="M403.5 625.5q-25.5 -25.5 -57.5 -25.5q-17 0 -33.5 8t-36.5 22q-18 12 -29 17.5t-22 5.5q-15 0 -31 -13t-37 -37l-64 53q22 35 57 65.5t74 30.5q18 0 33.5 -7t38.5 -21q18 -11 28 -15.5t20 -4.5q14 0 25.5 11t26.5 31l62 -49q-29 -46 -54.5 -71.5z" />
    <glyph glyph-name="hungarumlaut" unicode="&#x2dd;" horiz-adv-x="295" 
d="M163 600h-83l55 131h108zM305 600h-85l78 131h108z" />
    <glyph glyph-name="gravecomb" unicode="&#x300;" horiz-adv-x="0" 
d="M109 759l-250 76l27 97l253 -77z" />
    <glyph glyph-name="acutecomb" unicode="&#x301;" horiz-adv-x="0" 
d="M109 933l26 -97l-250 -76l-30 96z" />
    <glyph glyph-name="uni0302" unicode="&#x302;" horiz-adv-x="0" 
d="M59 750l-92 81l-137 -81l-58 72l209 122l149 -129z" />
    <glyph glyph-name="tildecomb" unicode="&#x303;" horiz-adv-x="0" 
d="M85.5 786.5q-25.5 -25.5 -57.5 -25.5q-17 0 -33.5 8t-36.5 22q-18 12 -29 17.5t-22 5.5q-15 0 -31 -13t-37 -37l-64 53q22 35 57 65.5t74 30.5q18 0 33.5 -7t38.5 -21q18 -11 28 -15.5t20 -4.5q14 0 25.5 11t26.5 31l62 -49q-29 -46 -54.5 -71.5z" />
    <glyph glyph-name="uni0304" unicode="&#x304;" horiz-adv-x="0" 
d="M250 769l-26 -109h-260l26 109h260z" />
    <glyph glyph-name="uni0306" unicode="&#x306;" horiz-adv-x="0" 
d="M146 906q0 -63 -35.5 -106t-109.5 -43t-109.5 43t-35.5 106h83q0 -68 60 -68q64 0 64 68h83z" />
    <glyph glyph-name="uni0307" unicode="&#x307;" horiz-adv-x="0" 
d="M111 783q-21 -21 -52 -21t-52 21t-21 51t21 51t52 21t52 -21t21 -51t-21 -51z" />
    <glyph glyph-name="uni0308" unicode="&#x308;" horiz-adv-x="0" 
d="M-120 782q-21 -21 -51 -21q-31 0 -52 21t-21 51t21 51t52 21q30 0 51 -21t21 -51t-21 -51zM110.5 782q-21.5 -21 -52.5 -21q-30 0 -51 21t-21 51t21 51t51 21q31 0 52.5 -21t21.5 -51t-21.5 -51z" />
    <glyph glyph-name="hookabovecomb" unicode="&#x309;" horiz-adv-x="0" 
d="M151.5 828q10.5 9 11.5 25q0 15 -9.5 23.5t-24.5 8.5q-21 0 -43 -12l-25 57q45 20 80 20q43 0 67.5 -26.5t24.5 -61.5q0 -38 -27.5 -65t-66.5 -40l-21 51q23 11 33.5 20z" />
    <glyph glyph-name="uni030A" unicode="&#x30a;" horiz-adv-x="0" 
d="M-57 918q31 32 78 32q46 0 79 -32.5t33 -77.5q0 -47 -32.5 -78.5t-79.5 -31.5t-78 31.5t-31 78.5q0 46 31 78zM-14 802.5q13 -14.5 35 -14.5t35.5 14.5t13.5 36.5t-13.5 36.5t-35.5 14.5t-35 -14.5t-13 -36.5t13 -36.5z" />
    <glyph glyph-name="uni030B" unicode="&#x30b;" horiz-adv-x="0" 
d="M-93 769h-83l55 131h108zM49 769h-85l78 131h108z" />
    <glyph glyph-name="uni030C" unicode="&#x30c;" horiz-adv-x="0" 
d="M-153 944l107 -83l145 83l44 -73l-204 -118l-153 124z" />
    <glyph glyph-name="uni031B" unicode="&#x31b;" horiz-adv-x="0" 
d="M157.5 761.5q19.5 37.5 16.5 79.5h91q1 -6 1 -18q0 -57 -36.5 -108t-100.5 -68q-7 -2 -23 -4l-18 67q50 14 69.5 51.5z" />
    <glyph glyph-name="dotbelowcomb" unicode="&#x323;" horiz-adv-x="0" 
d="M-228 -90.5q22 22.5 55 22.5q34 0 56.5 -22.5t22.5 -56.5q0 -33 -22.5 -55.5t-56.5 -22.5q-33 0 -55 22.5t-22 55.5q0 34 22 56.5z" />
    <glyph glyph-name="uni0326" unicode="&#x326;" horiz-adv-x="0" 
d="M-177 29l110 -66l-180 -260l-81 44z" />
    <glyph glyph-name="uni0327" unicode="&#x327;" horiz-adv-x="0" 
d="M-126.5 -89.5q29.5 -29.5 29.5 -67.5q0 -28 -16 -53t-46 -40.5t-70 -15.5q-38 0 -75 16t-63 45l48 51q20 -22 43 -33.5t45 -11.5q26 0 44.5 12.5t18.5 35.5q0 31 -33 45t-80 19l36 115h60l-27 -79q56 -9 85.5 -38.5z" />
    <glyph glyph-name="uni0328" unicode="&#x328;" horiz-adv-x="0" 
d="M-145.5 -121q18.5 -11 53.5 -10l-17 -74q-65 3 -100.5 25.5t-35.5 59.5q0 35 28.5 69t81.5 58h78q-46 -13 -76.5 -41t-30.5 -56q0 -20 18.5 -31z" />
    <glyph glyph-name="uni0329" unicode="&#x329;" horiz-adv-x="0" 
d="M-157 -233l39 167h90l-39 -167h-90z" />
    <glyph glyph-name="uni0394" unicode="&#x394;" horiz-adv-x="698" 
d="M630 0h-663l434 700h117zM499 105l-64 459l-276 -459h340z" />
    <glyph glyph-name="uni03A9" unicode="&#x3a9;" horiz-adv-x="724" 
d="M663 275q-65 -75 -163 -106l-15 -65h151l-25 -104h-252l57 243q90 16 143 71.5t53 134.5q0 77 -49.5 117t-132.5 40q-64 0 -115 -23.5t-80 -67.5t-29 -103q0 -67 40.5 -112.5t125.5 -56.5l-57 -243h-252l25 104h151l15 65q-75 27 -120 86t-45 147q0 91 47.5 162.5
t127 111t171.5 39.5q82 0 149 -32.5t105.5 -91.5t38.5 -137q0 -104 -65 -179z" />
    <glyph glyph-name="uni03BC" unicode="&#x3bc;" horiz-adv-x="576" 
d="M458 0h-109l16 69q-56 -80 -150 -80q-61 0 -85 45l-58 -255h-111l167 725h111l-67 -292q-4 -17 -4 -34q0 -38 22 -57.5t60 -19.5q52 0 95 37t60 109l59 257h110z" />
    <glyph glyph-name="pi" unicode="&#x3c0;" horiz-adv-x="863" 
d="M602 163q-3 -15 -3 -26q0 -26 15 -38.5t41 -12.5q33 0 72 18l28 -80q-28 -17 -61 -25.5t-63 -8.5q-63 0 -103.5 33.5t-40.5 96.5q0 23 6 50l54 232h-231l-92 -402h-111l92 402h-100l23 102h684l-24 -102h-131z" />
    <glyph glyph-name="uni0E3F" unicode="&#xe3f;" horiz-adv-x="603" 
d="M533 304q23 -43 23 -88q0 -56 -35 -105.5t-99.5 -80t-148.5 -30.5h-20l-25 -104h-82l25 104h-144l161 700h145l24 107h82l-25 -107h7q60 0 100.5 -22.5t59 -57.5t18.5 -74t-18 -77.5t-48.5 -66.5t-66.5 -37q44 -18 67 -61zM416 430.5q30 15.5 46 40t16 52.5q0 32 -22 52
t-62 20h-115l-41 -180h108q40 0 70 15.5zM367.5 121.5q34.5 16.5 52.5 42.5t18 55q0 38 -27 65t-77 27h-121l-48 -206h122q46 0 80.5 16.5z" />
    <glyph glyph-name="uni1E02" unicode="&#x1e02;" horiz-adv-x="603" 
d="M533 304q23 -43 23 -88q0 -56 -35 -105.5t-99.5 -80t-148.5 -30.5h-246l161 700h233q60 0 100.5 -22.5t59 -57.5t18.5 -74t-18 -77.5t-48.5 -66.5t-66.5 -37q44 -18 67 -61zM346 415q40 0 70 15.5t46 40t16 52.5q0 32 -22 52t-62 20h-115l-41 -180h108zM367.5 121.5
q34.5 16.5 52.5 42.5t18 55q0 38 -27 65t-77 27h-121l-48 -206h122q46 0 80.5 16.5zM356.5 883q20.5 21 50.5 21q31 0 52 -21t21 -52q0 -30 -21 -50.5t-52 -20.5q-30 0 -50.5 20.5t-20.5 50.5q0 31 20.5 52z" />
    <glyph glyph-name="uni1E03" unicode="&#x1e03;" horiz-adv-x="623" 
d="M501 487.5q47 -29.5 71 -79.5t24 -109q0 -75 -35.5 -146.5t-101 -117.5t-151.5 -46q-57 0 -102.5 21.5t-67.5 63.5l-18 -74h-108l162 700h110l-57 -248q63 65 161 65q66 0 113 -29.5zM401.5 117.5q40.5 27.5 62 72t21.5 92.5q0 57 -32.5 96.5t-90.5 39.5q-48 0 -90.5 -24
t-69 -68t-26.5 -101q0 -69 36.5 -102t94.5 -33q54 0 94.5 27.5zM504 623q-21 -21 -52 -21t-52 21t-21 51t21 51t52 21t52 -21t21 -51t-21 -51z" />
    <glyph glyph-name="uni1E0A" unicode="&#x1e0a;" horiz-adv-x="725" 
d="M189 700h205q105 0 177 -41.5t107.5 -110t35.5 -149.5q0 -101 -53 -193t-155.5 -149t-243.5 -57h-235zM279 595l-113 -490h123q94 0 163.5 43t106 110.5t36.5 138.5q0 54 -22 99t-67 72t-110 27h-117zM358.5 883q20.5 21 50.5 21q31 0 52 -21t21 -52q0 -30 -21 -50.5
t-52 -20.5q-30 0 -50.5 20.5t-20.5 50.5q0 31 20.5 52z" />
    <glyph glyph-name="uni1E0B" unicode="&#x1e0b;" horiz-adv-x="621" 
d="M493 0h-109l15 65q-34 -42 -77 -59t-87 -17q-64 0 -109 31.5t-68 83.5t-23 113q0 77 35 146t99.5 111.5t148.5 42.5q60 0 104 -22t60 -63l62 268h110zM362 119q41 29 63 74.5t22 93.5q0 56 -31 93.5t-92 37.5q-54 0 -94.5 -29t-62 -75t-21.5 -94q0 -56 30.5 -93t91.5 -37
q53 0 94 29zM407 623q-21 -21 -52 -21t-52 21t-21 51t21 51t52 21t52 -21t21 -51t-21 -51z" />
    <glyph glyph-name="uni1E0D" unicode="&#x1e0d;" horiz-adv-x="621" 
d="M160 -90.5q22 22.5 55 22.5q34 0 56.5 -22.5t22.5 -56.5q0 -33 -22.5 -55.5t-56.5 -22.5q-33 0 -55 22.5t-22 55.5q0 34 22 56.5zM493 0h-109l15 65q-34 -42 -77 -59t-87 -17q-64 0 -109 31.5t-68 83.5t-23 113q0 77 35 146t99.5 111.5t148.5 42.5q60 0 104 -22t60 -63
l62 268h110zM362 119q41 29 63 74.5t22 93.5q0 56 -31 93.5t-92 37.5q-54 0 -94.5 -29t-62 -75t-21.5 -94q0 -56 30.5 -93t91.5 -37q53 0 94 29z" />
    <glyph glyph-name="uni1E1E" unicode="&#x1e1e;" horiz-adv-x="532" 
d="M142 0h-115l162 700h411l-24 -105h-297l-44 -193h238l-25 -105h-237zM355.5 883q20.5 21 50.5 21q31 0 52 -21t21 -52q0 -30 -21 -50.5t-52 -20.5q-30 0 -50.5 20.5t-20.5 50.5q0 31 20.5 52z" />
    <glyph glyph-name="uni1E1F" unicode="&#x1e1f;" horiz-adv-x="402" 
d="M263.5 684.5q51.5 33.5 116.5 33.5q74 0 125 -43l-61 -77q-27 23 -61 23q-30 0 -53.5 -19.5t-32.5 -55.5l-10 -42h131l-23 -102h-131l-93 -402h-110l92 402h-98l24 102h98l18 75q17 72 68.5 105.5zM349.5 883q20.5 21 50.5 21q31 0 52 -21t21 -52q0 -30 -21 -50.5
t-52 -20.5q-30 0 -50.5 20.5t-20.5 50.5q0 31 20.5 52z" />
    <glyph glyph-name="uni1E25" unicode="&#x1e25;" horiz-adv-x="575" 
d="M498.5 482q45.5 -35 45.5 -100q0 -26 -5 -49l-77 -333h-111l71 300q3 13 5 35q0 37 -20.5 56.5t-57.5 19.5q-53 0 -100.5 -38.5t-65.5 -111.5l-60 -261h-111l161 700h110l-61 -266q30 41 75 62t92 21q64 0 109.5 -35zM160 -90.5q22 22.5 55 22.5q34 0 56.5 -22.5
t22.5 -56.5q0 -33 -22.5 -55.5t-56.5 -22.5q-33 0 -55 22.5t-22 55.5q0 34 22 56.5z" />
    <glyph glyph-name="uni1E33" unicode="&#x1e33;" horiz-adv-x="559" 
d="M506 0h-142l-188 228l-53 -228h-111l162 700h110l-94 -408l265 212h163l-322 -252zM147 -90.5q22 22.5 55 22.5q34 0 56.5 -22.5t22.5 -56.5q0 -33 -22.5 -55.5t-56.5 -22.5q-33 0 -55 22.5t-22 55.5q0 34 22 56.5z" />
    <glyph glyph-name="uni1E34" unicode="&#x1e34;" horiz-adv-x="642" 
d="M582 0h-149l-221 303l-70 -303h-115l162 700h115l-69 -297l353 297h167l-429 -354zM440 -81l-23 -99h-296l22 99h297z" />
    <glyph glyph-name="uni1E35" unicode="&#x1e35;" horiz-adv-x="559" 
d="M506 0h-142l-188 228l-53 -228h-111l162 700h110l-94 -408l265 212h163l-322 -252zM380 -81l-23 -99h-296l22 99h297z" />
    <glyph glyph-name="uni1E37" unicode="&#x1e37;" horiz-adv-x="429" 
d="M201 -9q-59 0 -98 32t-39 94q0 19 7 52l122 531h111l-124 -536q-4 -15 -4 -28q0 -26 15 -38t40 -12q20 0 41 9l22 -83q-45 -21 -93 -21zM75 -90.5q22 22.5 55 22.5q34 0 56.5 -22.5t22.5 -56.5q0 -33 -22.5 -55.5t-56.5 -22.5q-33 0 -55 22.5t-22 55.5q0 34 22 56.5z" />
    <glyph glyph-name="uni1E39" unicode="&#x1e39;" horiz-adv-x="324" 
d="M176 -9q-59 0 -98 32t-39 94q0 19 7 52l122 531h111l-124 -536q-4 -15 -4 -28q0 -26 15 -38t40 -12q20 0 41 9l22 -83q-45 -21 -93 -21zM50 -90.5q22 22.5 55 22.5q34 0 56.5 -22.5t22.5 -56.5q0 -33 -22.5 -55.5t-56.5 -22.5q-33 0 -55 22.5t-22 55.5q0 34 22 56.5z
M452 859l-23 -99h-296l22 99h297z" />
    <glyph glyph-name="uni1E40" unicode="&#x1e40;" horiz-adv-x="871" 
d="M899 700l-161 -700h-115l109 472l-254 -315h-104l-115 345l-117 -502h-115l162 700h127l134 -399l322 399h127zM496.5 883q20.5 21 50.5 21q31 0 52 -21t21 -52q0 -30 -21 -50.5t-52 -20.5q-30 0 -50.5 20.5t-20.5 50.5q0 31 20.5 52z" />
    <glyph glyph-name="uni1E41" unicode="&#x1e41;" horiz-adv-x="841" 
d="M728 0h-111l71 301q4 19 4 39q0 34 -19.5 52.5t-49.5 18.5q-47 0 -82.5 -33.5t-49.5 -95.5l-65 -282h-111l70 303q4 19 4 38q0 32 -19 51t-49 19q-47 0 -83 -33.5t-49 -92.5l-66 -285h-111l116 504h109l-15 -67q26 38 66 59t82 21q45 0 79.5 -24.5t46.5 -69.5
q25 45 71 69.5t97 24.5q61 0 104 -35.5t43 -99.5q0 -22 -6 -48zM567 623q-21 -21 -52 -21t-52 21t-21 51t21 51t52 21t52 -21t21 -51t-21 -51z" />
    <glyph glyph-name="uni1E43" unicode="&#x1e43;" horiz-adv-x="841" 
d="M728 0h-111l71 301q4 19 4 39q0 34 -19.5 52.5t-49.5 18.5q-47 0 -82.5 -33.5t-49.5 -95.5l-65 -282h-111l70 303q4 19 4 38q0 32 -19 51t-49 19q-47 0 -83 -33.5t-49 -92.5l-66 -285h-111l116 504h109l-15 -67q26 38 66 59t82 21q45 0 79.5 -24.5t46.5 -69.5
q25 45 71 69.5t97 24.5q61 0 104 -35.5t43 -99.5q0 -22 -6 -48zM290 -90.5q22 22.5 55 22.5q34 0 56.5 -22.5t22.5 -56.5q0 -33 -22.5 -55.5t-56.5 -22.5q-33 0 -55 22.5t-22 55.5q0 34 22 56.5z" />
    <glyph glyph-name="uni1E47" unicode="&#x1e47;" horiz-adv-x="575" 
d="M499.5 481q45.5 -36 45.5 -103q0 -21 -6 -45l-77 -333h-111l71 300q5 22 5 36q0 37 -20.5 56t-57.5 19q-53 0 -100.5 -38.5t-65.5 -111.5l-60 -261h-111l116 504h109l-17 -72q29 42 74.5 63.5t94.5 21.5q65 0 110.5 -36zM169 -90.5q22 22.5 55 22.5q34 0 56.5 -22.5
t22.5 -56.5q0 -33 -22.5 -55.5t-56.5 -22.5q-33 0 -55 22.5t-22 55.5q0 34 22 56.5z" />
    <glyph glyph-name="uni1E56" unicode="&#x1e56;" horiz-adv-x="568" 
d="M508 676.5q44 -23.5 68 -64t24 -89.5q0 -55 -30 -109t-88.5 -89.5t-141.5 -35.5h-131l-67 -289h-115l162 700h216q59 0 103 -23.5zM350 393q42 0 72.5 17t46 44t15.5 56q0 36 -24.5 60.5t-70.5 24.5h-110l-47 -202h118zM358.5 883q20.5 21 50.5 21q31 0 52 -21t21 -52
q0 -30 -21 -50.5t-52 -20.5q-30 0 -50.5 20.5t-20.5 50.5q0 31 20.5 52z" />
    <glyph glyph-name="uni1E57" unicode="&#x1e57;" horiz-adv-x="622" 
d="M499.5 483.5q47.5 -29.5 71.5 -78.5t24 -106q0 -75 -35.5 -146.5t-101 -117.5t-151.5 -46q-57 0 -101.5 21t-66.5 64l-67 -295h-111l167 725h109l-15 -64q30 37 70.5 55t94.5 18q65 0 112.5 -29.5zM400.5 117.5q40.5 27.5 62 72t21.5 92.5q0 55 -32.5 93.5t-90.5 38.5
q-57 0 -99.5 -27.5t-65 -70.5t-22.5 -89q0 -58 33.5 -97.5t98.5 -39.5q54 0 94.5 27.5zM489 623q-21 -21 -52 -21t-52 21t-21 51t21 51t52 21t52 -21t21 -51t-21 -51z" />
    <glyph glyph-name="uni1E5B" unicode="&#x1e5b;" horiz-adv-x="382" 
d="M429 499l-50 -112q-27 13 -61 13q-46 0 -81.5 -29.5t-49.5 -91.5l-64 -279h-111l116 504h109l-14 -61q26 35 64.5 51.5t78.5 16.5q34 0 63 -12zM-11 -90.5q22 22.5 55 22.5q34 0 56.5 -22.5t22.5 -56.5q0 -33 -22.5 -55.5t-56.5 -22.5q-33 0 -55 22.5t-22 55.5
q0 34 22 56.5z" />
    <glyph glyph-name="uni1E5D" unicode="&#x1e5d;" horiz-adv-x="382" 
d="M429 499l-50 -112q-27 13 -61 13q-46 0 -81.5 -29.5t-49.5 -91.5l-64 -279h-111l116 504h109l-14 -61q26 35 64.5 51.5t78.5 16.5q34 0 63 -12zM-11 -90.5q22 22.5 55 22.5q34 0 56.5 -22.5t22.5 -56.5q0 -33 -22.5 -55.5t-56.5 -22.5q-33 0 -55 22.5t-22 55.5
q0 34 22 56.5zM462 699l-23 -99h-296l22 99h297z" />
    <glyph glyph-name="uni1E60" unicode="&#x1e60;" horiz-adv-x="571" 
d="M252 458q18 -23 43 -37.5t77 -38.5q48 -23 78.5 -43.5t51.5 -55t21 -85.5q0 -68 -36.5 -116.5t-96 -73t-127.5 -24.5q-74 0 -140.5 28.5t-103.5 82.5l87 77q24 -40 72 -61.5t98 -21.5q54 0 93 25t39 71q0 28 -15.5 48t-38.5 34t-63 32q-54 25 -89 48t-58.5 61.5
t-23.5 95.5q0 70 34.5 118t90.5 71t121 23q62 0 117 -22t89 -63l-73 -77q-24 30 -61.5 46.5t-77.5 16.5q-53 0 -89.5 -26t-36.5 -76q0 -34 18 -57zM333.5 883q20.5 21 50.5 21q31 0 52 -21t21 -52q0 -30 -21 -50.5t-52 -20.5q-30 0 -50.5 20.5t-20.5 50.5q0 31 20.5 52z" />
    <glyph glyph-name="uni1E61" unicode="&#x1e61;" horiz-adv-x="490" 
d="M417.5 67.5q-32.5 -38.5 -85.5 -58.5t-113 -20q-68 0 -127.5 25.5t-94.5 72.5l81 78q24 -37 68 -57t91 -20q41 0 69.5 14.5t28.5 40.5q0 16 -12 26.5t-27.5 15.5t-54.5 16q-75 20 -120 53.5t-45 105.5q0 78 56.5 117.5t141.5 39.5q54 0 104.5 -15t87.5 -43l-59 -86
q-23 22 -58 34.5t-72 12.5q-39 0 -64.5 -14.5t-25.5 -43.5q0 -21 15 -34.5t35.5 -20t63.5 -17.5q47 -11 77 -23.5t51 -38t21 -68.5q0 -54 -32.5 -92.5zM379 623q-21 -21 -52 -21t-52 21t-21 51t21 51t52 21t52 -21t21 -51t-21 -51z" />
    <glyph glyph-name="uni1E63" unicode="&#x1e63;" horiz-adv-x="490" 
d="M417.5 67.5q-32.5 -38.5 -85.5 -58.5t-113 -20q-68 0 -127.5 25.5t-94.5 72.5l81 78q24 -37 68 -57t91 -20q41 0 69.5 14.5t28.5 40.5q0 16 -12 26.5t-27.5 15.5t-54.5 16q-75 20 -120 53.5t-45 105.5q0 78 56.5 117.5t141.5 39.5q54 0 104.5 -15t87.5 -43l-59 -86
q-23 22 -58 34.5t-72 12.5q-39 0 -64.5 -14.5t-25.5 -43.5q0 -21 15 -34.5t35.5 -20t63.5 -17.5q47 -11 77 -23.5t51 -38t21 -68.5q0 -54 -32.5 -92.5zM119 -90.5q22 22.5 55 22.5q34 0 56.5 -22.5t22.5 -56.5q0 -33 -22.5 -55.5t-56.5 -22.5q-33 0 -55 22.5t-22 55.5
q0 34 22 56.5z" />
    <glyph glyph-name="uni1E6A" unicode="&#x1e6a;" horiz-adv-x="608" 
d="M300 0h-115l137 595h-228l24 105h573l-25 -105h-229zM372.5 883q20.5 21 50.5 21q31 0 52 -21t21 -52q0 -30 -21 -50.5t-52 -20.5q-30 0 -50.5 20.5t-20.5 50.5q0 31 20.5 52z" />
    <glyph glyph-name="uni1E6B" unicode="&#x1e6b;" horiz-adv-x="430" 
d="M306 -1.5q-33 -8.5 -63 -8.5q-64 0 -104 34.5t-40 98.5q0 22 6 47l54 232h-109l23 102h109l30 129h110l-29 -129h141l-24 -102h-141l-55 -239q-3 -13 -3 -25q0 -26 15 -39t41 -13q33 0 72 18l28 -80q-28 -17 -61 -25.5zM239 823.5q22 22.5 55 22.5q34 0 56.5 -22.5
t22.5 -56.5q0 -33 -22.5 -55.5t-56.5 -22.5q-33 0 -55 22.5t-22 55.5q0 34 22 56.5z" />
    <glyph glyph-name="uni1E6D" unicode="&#x1e6d;" horiz-adv-x="430" 
d="M306 -1.5q-33 -8.5 -63 -8.5q-64 0 -104 34.5t-40 98.5q0 22 6 47l54 232h-109l23 102h109l30 129h110l-29 -129h141l-24 -102h-141l-55 -239q-3 -13 -3 -25q0 -26 15 -39t41 -13q33 0 72 18l28 -80q-28 -17 -61 -25.5zM119 -90.5q22 22.5 55 22.5q34 0 56.5 -22.5
t22.5 -56.5q0 -33 -22.5 -55.5t-56.5 -22.5q-33 0 -55 22.5t-22 55.5q0 34 22 56.5z" />
    <glyph glyph-name="uni1E6F" unicode="&#x1e6f;" horiz-adv-x="430" 
d="M306 -1.5q-33 -8.5 -63 -8.5q-64 0 -104 34.5t-40 98.5q0 22 6 47l54 232h-109l23 102h109l30 129h110l-29 -129h141l-24 -102h-141l-55 -239q-3 -13 -3 -25q0 -26 15 -39t41 -13q33 0 72 18l28 -80q-28 -17 -61 -25.5zM331 -81l-23 -99h-296l22 99h297z" />
    <glyph glyph-name="Wgrave" unicode="&#x1e80;" horiz-adv-x="1024" 
d="M717 0h-109l-44 500l-276 -500h-109l-71 700h120l41 -504l275 504h119l42 -504l274 504h133zM677 759l-250 76l27 97l253 -77z" />
    <glyph glyph-name="wgrave" unicode="&#x1e81;" horiz-adv-x="876" 
d="M620 0h-108l-52 330l-203 -330h-109l-70 504h114l40 -348l206 348h113l48 -348l194 348h131zM582 599l-250 76l27 97l253 -77z" />
    <glyph glyph-name="Wacute" unicode="&#x1e82;" horiz-adv-x="1024" 
d="M717 0h-109l-44 500l-276 -500h-109l-71 700h120l41 -504l275 504h119l42 -504l274 504h133zM770 933l27 -97l-250 -76l-30 96z" />
    <glyph glyph-name="wacute" unicode="&#x1e83;" horiz-adv-x="876" 
d="M620 0h-108l-52 330l-203 -330h-109l-70 504h114l40 -348l206 348h113l48 -348l194 348h131zM671 762l27 -97l-250 -76l-30 96z" />
    <glyph glyph-name="Wdieresis" unicode="&#x1e84;" horiz-adv-x="1024" 
d="M717 0h-109l-44 500l-276 -500h-109l-71 700h120l41 -504l275 504h119l42 -504l274 504h133zM549 782q-21 -21 -51 -21q-31 0 -52 21t-21 51t21 51t52 21q30 0 51 -21t21 -51t-21 -51zM779.5 782q-21.5 -21 -52.5 -21q-30 0 -51 21t-21 51t21 51t51 21q31 0 52.5 -21
t21.5 -51t-21.5 -51z" />
    <glyph glyph-name="wdieresis" unicode="&#x1e85;" horiz-adv-x="876" 
d="M620 0h-108l-52 330l-203 -330h-109l-70 504h114l40 -348l206 348h113l48 -348l194 348h131zM453 623q-21 -21 -51 -21q-31 0 -52 21t-21 51t21 51t52 21q30 0 51 -21t21 -51t-21 -51zM683.5 623q-21.5 -21 -52.5 -21q-30 0 -51 21t-21 51t21 51t51 21q31 0 52.5 -21
t21.5 -51t-21.5 -51z" />
    <glyph glyph-name="uni1E8F" unicode="&#x1e8f;" horiz-adv-x="601" 
d="M480 -9q-18 -76 -60 -126.5t-97 -74.5t-112 -24t-107.5 23t-84 66.5t-42.5 100.5l101 37q10 -59 47 -92t89 -33q60 0 102.5 35.5t59.5 106.5l17 72q-29 -40 -72.5 -58.5t-89.5 -18.5q-67 0 -113 41.5t-46 117.5q0 30 7 61l65 279h110l-60 -262q-6 -27 -6 -48
q0 -40 21 -61t58 -21q55 0 102.5 40t63.5 110l57 242h109zM447 623q-21 -21 -52 -21t-52 21t-21 51t21 51t52 21t52 -21t21 -51t-21 -51z" />
    <glyph glyph-name="uni1EA0" unicode="&#x1ea0;" horiz-adv-x="698" 
d="M490 177h-288l-106 -177h-129l434 700h117l112 -700h-116zM475 282l-40 282l-170 -282h210zM233 -90.5q22 22.5 55 22.5q34 0 56.5 -22.5t22.5 -56.5q0 -33 -22.5 -55.5t-56.5 -22.5q-33 0 -55 22.5t-22 55.5q0 34 22 56.5z" />
    <glyph glyph-name="uni1EA1" unicode="&#x1ea1;" horiz-adv-x="673" 
d="M166 -90.5q22 22.5 55 22.5q34 0 56.5 -22.5t22.5 -56.5q0 -33 -22.5 -55.5t-56.5 -22.5q-33 0 -55 22.5t-22 55.5q0 34 22 56.5zM593 101l26 -81q-19 -14 -44.5 -22t-50.5 -8q-38 0 -66 22t-33 65q-37 -48 -89 -68t-101 -20q-64 0 -109 31.5t-68 83.5t-23 113
q0 77 35 146t99.5 111.5t148.5 42.5q61 0 105 -23.5t59 -62.5l16 73h109l-83 -361q-2 -7 -2 -19q0 -17 9 -25.5t23 -8.5q15 0 39 11zM362 119q41 29 63 74.5t22 93.5q0 56 -31 93.5t-92 37.5q-54 0 -94.5 -29t-62 -75t-21.5 -94q0 -56 30.5 -93t91.5 -37q53 0 94 29z" />
    <glyph glyph-name="uni1EA2" unicode="&#x1ea2;" horiz-adv-x="698" 
d="M467 838.5q12 10.5 13 28.5q0 17 -11 27t-28 10q-23 0 -49 -14l-29 65q51 23 92 23q49 0 77.5 -30t28.5 -71q0 -44 -31.5 -75t-76.5 -45l-24 58q26 13 38 23.5zM490 177h-288l-106 -177h-129l434 700h117l112 -700h-116zM475 282l-40 282l-170 -282h210z" />
    <glyph glyph-name="uni1EA3" unicode="&#x1ea3;" horiz-adv-x="673" 
d="M375.5 654.5q11.5 10.5 12.5 28.5q0 17 -11 27t-28 10q-23 0 -49 -14l-29 65q51 23 92 23q49 0 77.5 -30t28.5 -71q0 -44 -31.5 -75t-76.5 -45l-24 58q27 13 38.5 23.5zM593 101l26 -81q-19 -14 -44.5 -22t-50.5 -8q-38 0 -66 22t-33 65q-37 -48 -89 -68t-101 -20
q-64 0 -109 31.5t-68 83.5t-23 113q0 77 35 146t99.5 111.5t148.5 42.5q61 0 105 -23.5t59 -62.5l16 73h109l-83 -361q-2 -7 -2 -19q0 -17 9 -25.5t23 -8.5q15 0 39 11zM362 119q41 29 63 74.5t22 93.5q0 56 -31 93.5t-92 37.5q-54 0 -94.5 -29t-62 -75t-21.5 -94
q0 -56 30.5 -93t91.5 -37q53 0 94 29z" />
    <glyph glyph-name="uni1EA4" unicode="&#x1ea4;" horiz-adv-x="698" 
d="M284 943l130 120l57 -62l-130 -119zM581 740l-92 81l-137 -81l-58 72l209 122l149 -129zM490 177h-288l-106 -177h-129l434 700h117l112 -700h-116zM475 282l-40 282l-170 -282h210z" />
    <glyph glyph-name="uni1EA5" unicode="&#x1ea5;" horiz-adv-x="673" 
d="M176 755l130 120l57 -62l-130 -119zM473 552l-92 81l-137 -81l-58 72l209 122l149 -129zM593 101l26 -81q-19 -14 -44.5 -22t-50.5 -8q-38 0 -66 22t-33 65q-37 -48 -89 -68t-101 -20q-64 0 -109 31.5t-68 83.5t-23 113q0 77 35 146t99.5 111.5t148.5 42.5
q61 0 105 -23.5t59 -62.5l16 73h109l-83 -361q-2 -7 -2 -19q0 -17 9 -25.5t23 -8.5q15 0 39 11zM362 119q41 29 63 74.5t22 93.5q0 56 -31 93.5t-92 37.5q-54 0 -94.5 -29t-62 -75t-21.5 -94q0 -56 30.5 -93t91.5 -37q53 0 94 29z" />
    <glyph glyph-name="uni1EA6" unicode="&#x1ea6;" horiz-adv-x="698" 
d="M502 1027l67 51l108 -141l-67 -50zM490 177h-288l-106 -177h-129l434 700h117l112 -700h-116zM475 282l-40 282l-170 -282h210zM581 740l-92 81l-137 -81l-58 72l209 122l149 -129z" />
    <glyph glyph-name="uni1EA7" unicode="&#x1ea7;" horiz-adv-x="673" 
d="M593 101l26 -81q-19 -14 -44.5 -22t-50.5 -8q-38 0 -66 22t-33 65q-37 -48 -89 -68t-101 -20q-64 0 -109 31.5t-68 83.5t-23 113q0 77 35 146t99.5 111.5t148.5 42.5q61 0 105 -23.5t59 -62.5l16 73h109l-83 -361q-2 -7 -2 -19q0 -17 9 -25.5t23 -8.5q15 0 39 11z
M362 119q41 29 63 74.5t22 93.5q0 56 -31 93.5t-92 37.5q-54 0 -94.5 -29t-62 -75t-21.5 -94q0 -56 30.5 -93t91.5 -37q53 0 94 29zM473 552l-92 81l-137 -81l-58 72l209 122l149 -129zM394 839l67 51l108 -141l-67 -50z" />
    <glyph glyph-name="uni1EA8" unicode="&#x1ea8;" horiz-adv-x="698" 
d="M490 177h-288l-106 -177h-129l434 700h117l112 -700h-116zM475 282l-40 282l-170 -282h210zM581 740l-92 81l-137 -81l-58 72l209 122l149 -129zM615.5 946q10.5 9 11.5 25q0 15 -9.5 23.5t-24.5 8.5q-21 0 -43 -12l-25 57q45 20 80 20q43 0 67.5 -26.5t24.5 -61.5
q0 -38 -27.5 -65t-66.5 -40l-21 51q23 11 33.5 20z" />
    <glyph glyph-name="uni1EA9" unicode="&#x1ea9;" horiz-adv-x="673" 
d="M593 101l26 -81q-19 -14 -44.5 -22t-50.5 -8q-38 0 -66 22t-33 65q-37 -48 -89 -68t-101 -20q-64 0 -109 31.5t-68 83.5t-23 113q0 77 35 146t99.5 111.5t148.5 42.5q61 0 105 -23.5t59 -62.5l16 73h109l-83 -361q-2 -7 -2 -19q0 -17 9 -25.5t23 -8.5q15 0 39 11z
M362 119q41 29 63 74.5t22 93.5q0 56 -31 93.5t-92 37.5q-54 0 -94.5 -29t-62 -75t-21.5 -94q0 -56 30.5 -93t91.5 -37q53 0 94 29zM473 552l-92 81l-137 -81l-58 72l209 122l149 -129zM507.5 758q10.5 9 11.5 25q0 15 -9.5 23.5t-24.5 8.5q-21 0 -43 -12l-25 57
q45 20 80 20q43 0 67.5 -26.5t24.5 -61.5q0 -38 -27.5 -65t-66.5 -40l-21 51q23 11 33.5 20z" />
    <glyph glyph-name="uni1EAA" unicode="&#x1eaa;" horiz-adv-x="698" 
d="M490 177h-288l-106 -177h-129l434 700h117l112 -700h-116zM475 282l-40 282l-170 -282h210zM581 740l-92 81l-137 -81l-58 72l209 122l149 -129zM531.5 953.5q-13.5 5.5 -30.5 15.5q-9 5 -18.5 9.5t-16.5 4.5q-12 0 -21.5 -9t-28.5 -32l-54 45q23 33 46 53.5t56 20.5
q14 0 27.5 -4.5t24 -10t13.5 -6.5q24 -13 33 -13q11 0 22 12.5t18 26.5l57 -32q-22 -38 -45 -62t-54 -24q-15 0 -28.5 5.5z" />
    <glyph glyph-name="uni1EAB" unicode="&#x1eab;" horiz-adv-x="673" 
d="M593 101l26 -81q-19 -14 -44.5 -22t-50.5 -8q-38 0 -66 22t-33 65q-37 -48 -89 -68t-101 -20q-64 0 -109 31.5t-68 83.5t-23 113q0 77 35 146t99.5 111.5t148.5 42.5q61 0 105 -23.5t59 -62.5l16 73h109l-83 -361q-2 -7 -2 -19q0 -17 9 -25.5t23 -8.5q15 0 39 11z
M362 119q41 29 63 74.5t22 93.5q0 56 -31 93.5t-92 37.5q-54 0 -94.5 -29t-62 -75t-21.5 -94q0 -56 30.5 -93t91.5 -37q53 0 94 29zM473 552l-92 81l-137 -81l-58 72l209 122l149 -129zM423.5 785.5q-13.5 5.5 -30.5 15.5q-9 5 -18.5 9.5t-16.5 4.5q-12 0 -21.5 -9
t-28.5 -32l-54 45q23 33 46 53.5t56 20.5q14 0 27.5 -4.5t24 -10t13.5 -6.5q24 -13 33 -13q11 0 22 12.5t18 26.5l57 -32q-22 -38 -45 -62t-54 -24q-15 0 -28.5 5.5z" />
    <glyph glyph-name="uni1EAC" unicode="&#x1eac;" horiz-adv-x="698" 
d="M581 750l-92 81l-137 -81l-58 72l209 122l149 -129zM490 177h-288l-106 -177h-129l434 700h117l112 -700h-116zM475 282l-40 282l-170 -282h210zM233 -90.5q22 22.5 55 22.5q34 0 56.5 -22.5t22.5 -56.5q0 -33 -22.5 -55.5t-56.5 -22.5q-33 0 -55 22.5t-22 55.5
q0 34 22 56.5z" />
    <glyph glyph-name="uni1EAD" unicode="&#x1ead;" horiz-adv-x="673" 
d="M166 -90.5q22 22.5 55 22.5q34 0 56.5 -22.5t22.5 -56.5q0 -33 -22.5 -55.5t-56.5 -22.5q-33 0 -55 22.5t-22 55.5q0 34 22 56.5zM593 101l26 -81q-19 -14 -44.5 -22t-50.5 -8q-38 0 -66 22t-33 65q-37 -48 -89 -68t-101 -20q-64 0 -109 31.5t-68 83.5t-23 113
q0 77 35 146t99.5 111.5t148.5 42.5q61 0 105 -23.5t59 -62.5l16 73h109l-83 -361q-2 -7 -2 -19q0 -17 9 -25.5t23 -8.5q15 0 39 11zM362 119q41 29 63 74.5t22 93.5q0 56 -31 93.5t-92 37.5q-54 0 -94.5 -29t-62 -75t-21.5 -94q0 -56 30.5 -93t91.5 -37q53 0 94 29z
M471 592l-92 81l-137 -81l-58 72l209 122l149 -129z" />
    <glyph glyph-name="uni1EAE" unicode="&#x1eae;" horiz-adv-x="698" 
d="M444 986l164 69l32 -78l-163 -67zM630 896q0 -63 -35.5 -106t-109.5 -43t-109.5 43t-35.5 106h83q0 -68 60 -68q64 0 64 68h83zM490 177h-288l-106 -177h-129l434 700h117l112 -700h-116zM475 282l-40 282l-170 -282h210z" />
    <glyph glyph-name="uni1EAF" unicode="&#x1eaf;" horiz-adv-x="673" 
d="M340 819l164 69l32 -78l-163 -67zM526 729q0 -63 -35.5 -106t-109.5 -43t-109.5 43t-35.5 106h83q0 -68 60 -68q64 0 64 68h83zM593 101l26 -81q-19 -14 -44.5 -22t-50.5 -8q-38 0 -66 22t-33 65q-37 -48 -89 -68t-101 -20q-64 0 -109 31.5t-68 83.5t-23 113q0 77 35 146
t99.5 111.5t148.5 42.5q61 0 105 -23.5t59 -62.5l16 73h109l-83 -361q-2 -7 -2 -19q0 -17 9 -25.5t23 -8.5q15 0 39 11zM362 119q41 29 63 74.5t22 93.5q0 56 -31 93.5t-92 37.5q-54 0 -94.5 -29t-62 -75t-21.5 -94q0 -56 30.5 -93t91.5 -37q53 0 94 29z" />
    <glyph glyph-name="uni1EB0" unicode="&#x1eb0;" horiz-adv-x="698" 
d="M349 977l32 78l164 -68l-33 -77zM638 896q0 -63 -35.5 -106t-109.5 -43t-109.5 43t-35.5 106h83q0 -68 60 -68q64 0 64 68h83zM490 177h-288l-106 -177h-129l434 700h117l112 -700h-116zM475 282l-40 282l-170 -282h210z" />
    <glyph glyph-name="uni1EB1" unicode="&#x1eb1;" horiz-adv-x="673" 
d="M237 810l32 78l164 -68l-33 -77zM526 729q0 -63 -35.5 -106t-109.5 -43t-109.5 43t-35.5 106h83q0 -68 60 -68q64 0 64 68h83zM593 101l26 -81q-19 -14 -44.5 -22t-50.5 -8q-38 0 -66 22t-33 65q-37 -48 -89 -68t-101 -20q-64 0 -109 31.5t-68 83.5t-23 113q0 77 35 146
t99.5 111.5t148.5 42.5q61 0 105 -23.5t59 -62.5l16 73h109l-83 -361q-2 -7 -2 -19q0 -17 9 -25.5t23 -8.5q15 0 39 11zM362 119q41 29 63 74.5t22 93.5q0 56 -31 93.5t-92 37.5q-54 0 -94.5 -29t-62 -75t-21.5 -94q0 -56 30.5 -93t91.5 -37q53 0 94 29z" />
    <glyph glyph-name="uni1EB2" unicode="&#x1eb2;" horiz-adv-x="698" 
d="M490 177h-288l-106 -177h-129l434 700h117l112 -700h-116zM475 282l-40 282l-170 -282h210zM638 896q0 -63 -35.5 -106t-109.5 -43t-109.5 43t-35.5 106h83q0 -68 60 -68q64 0 64 68h83zM495.5 966q10.5 9 11.5 25q0 15 -9.5 23.5t-24.5 8.5q-21 0 -43 -12l-25 57
q45 20 80 20q43 0 67.5 -26.5t24.5 -61.5q0 -38 -27.5 -65t-66.5 -40l-21 51q23 11 33.5 20z" />
    <glyph glyph-name="uni1EB3" unicode="&#x1eb3;" horiz-adv-x="673" 
d="M593 101l26 -81q-19 -14 -44.5 -22t-50.5 -8q-38 0 -66 22t-33 65q-37 -48 -89 -68t-101 -20q-64 0 -109 31.5t-68 83.5t-23 113q0 77 35 146t99.5 111.5t148.5 42.5q61 0 105 -23.5t59 -62.5l16 73h109l-83 -361q-2 -7 -2 -19q0 -17 9 -25.5t23 -8.5q15 0 39 11z
M362 119q41 29 63 74.5t22 93.5q0 56 -31 93.5t-92 37.5q-54 0 -94.5 -29t-62 -75t-21.5 -94q0 -56 30.5 -93t91.5 -37q53 0 94 29zM526 729q0 -63 -35.5 -106t-109.5 -43t-109.5 43t-35.5 106h83q0 -68 60 -68q64 0 64 68h83zM382.5 806q10.5 9 11.5 25q0 15 -9.5 23.5
t-24.5 8.5q-21 0 -43 -12l-25 57q45 20 80 20q43 0 67.5 -26.5t24.5 -61.5q0 -38 -27.5 -65t-66.5 -40l-21 51q23 11 33.5 20z" />
    <glyph glyph-name="uni1EB4" unicode="&#x1eb4;" horiz-adv-x="698" 
d="M490 177h-288l-106 -177h-129l434 700h117l112 -700h-116zM475 282l-40 282l-170 -282h210zM638 896q0 -63 -35.5 -106t-109.5 -43t-109.5 43t-35.5 106h83q0 -68 60 -68q64 0 64 68h83zM527.5 943.5q-13.5 5.5 -30.5 15.5q-9 5 -18.5 9.5t-16.5 4.5q-12 0 -21.5 -9
t-28.5 -32l-54 45q23 33 46 53.5t56 20.5q14 0 27.5 -4.5t24 -10t13.5 -6.5q24 -13 33 -13q11 0 22 12.5t18 26.5l57 -32q-22 -38 -45 -62t-54 -24q-15 0 -28.5 5.5z" />
    <glyph glyph-name="uni1EB5" unicode="&#x1eb5;" horiz-adv-x="673" 
d="M438.5 783.5q-13.5 5.5 -30.5 15.5q-9 5 -18.5 9.5t-16.5 4.5q-12 0 -21.5 -9t-28.5 -32l-54 45q23 33 46 53.5t56 20.5q14 0 27.5 -4.5t24 -10t13.5 -6.5q24 -13 33 -13q11 0 22 12.5t18 26.5l57 -32q-22 -38 -45 -62t-54 -24q-15 0 -28.5 5.5zM593 101l26 -81
q-19 -14 -44.5 -22t-50.5 -8q-38 0 -66 22t-33 65q-37 -48 -89 -68t-101 -20q-64 0 -109 31.5t-68 83.5t-23 113q0 77 35 146t99.5 111.5t148.5 42.5q61 0 105 -23.5t59 -62.5l16 73h109l-83 -361q-2 -7 -2 -19q0 -17 9 -25.5t23 -8.5q15 0 39 11zM362 119q41 29 63 74.5
t22 93.5q0 56 -31 93.5t-92 37.5q-54 0 -94.5 -29t-62 -75t-21.5 -94q0 -56 30.5 -93t91.5 -37q53 0 94 29zM525 729q0 -63 -35.5 -106t-109.5 -43t-109.5 43t-35.5 106h83q0 -68 60 -68q64 0 64 68h83z" />
    <glyph glyph-name="uni1EB6" unicode="&#x1eb6;" horiz-adv-x="698" 
d="M490 177h-288l-106 -177h-129l434 700h117l112 -700h-116zM475 282l-40 282l-170 -282h210zM233 -90.5q22 22.5 55 22.5q34 0 56.5 -22.5t22.5 -56.5q0 -33 -22.5 -55.5t-56.5 -22.5q-33 0 -55 22.5t-22 55.5q0 34 22 56.5zM630 906q0 -63 -35.5 -106t-109.5 -43
t-109.5 43t-35.5 106h83q0 -68 60 -68q64 0 64 68h83z" />
    <glyph glyph-name="uni1EB7" unicode="&#x1eb7;" horiz-adv-x="673" 
d="M177 -90.5q22 22.5 55 22.5q34 0 56.5 -22.5t22.5 -56.5q0 -33 -22.5 -55.5t-56.5 -22.5q-33 0 -55 22.5t-22 55.5q0 34 22 56.5zM593 101l26 -81q-19 -14 -44.5 -22t-50.5 -8q-38 0 -66 22t-33 65q-37 -48 -89 -68t-101 -20q-64 0 -109 31.5t-68 83.5t-23 113
q0 77 35 146t99.5 111.5t148.5 42.5q61 0 105 -23.5t59 -62.5l16 73h109l-83 -361q-2 -7 -2 -19q0 -17 9 -25.5t23 -8.5q15 0 39 11zM362 119q41 29 63 74.5t22 93.5q0 56 -31 93.5t-92 37.5q-54 0 -94.5 -29t-62 -75t-21.5 -94q0 -56 30.5 -93t91.5 -37q53 0 94 29z
M526 749q0 -63 -35.5 -106t-109.5 -43t-109.5 43t-35.5 106h83q0 -68 60 -68q64 0 64 68h83z" />
    <glyph glyph-name="uni1EB8" unicode="&#x1eb8;" horiz-adv-x="541" 
d="M279 595l-44 -193h238l-25 -105h-237l-45 -192h306l-25 -105h-420l162 700h411l-24 -105h-297zM169 -90.5q22 22.5 55 22.5q34 0 56.5 -22.5t22.5 -56.5q0 -33 -22.5 -55.5t-56.5 -22.5q-33 0 -55 22.5t-22 55.5q0 34 22 56.5z" />
    <glyph glyph-name="uni1EB9" unicode="&#x1eb9;" horiz-adv-x="566" 
d="M364 110.5q40 17.5 70 53.5l65 -72q-50 -52 -110 -77.5t-125 -25.5q-74 0 -125 32.5t-76.5 86.5t-25.5 118q0 73 33 140t96 109t149 42q59 0 108 -23t78.5 -70.5t29.5 -116.5q0 -32 -3.5 -50.5t-7.5 -32.5l-6 -21h-365q2 -55 40 -82.5t92 -27.5q43 0 83 17.5zM215.5 386
q-43.5 -32 -57.5 -91h262q1 7 1 19q0 51 -31.5 77.5t-78.5 26.5q-52 0 -95.5 -32zM160 -90.5q22 22.5 55 22.5q34 0 56.5 -22.5t22.5 -56.5q0 -33 -22.5 -55.5t-56.5 -22.5q-33 0 -55 22.5t-22 55.5q0 34 22 56.5z" />
    <glyph glyph-name="uni1EBA" unicode="&#x1eba;" horiz-adv-x="541" 
d="M387.5 838.5q11.5 10.5 12.5 28.5q0 17 -11 27t-28 10q-23 0 -49 -14l-29 65q51 23 92 23q49 0 77.5 -30t28.5 -71q0 -44 -31.5 -75t-76.5 -45l-24 58q27 13 38.5 23.5zM279 595l-44 -193h238l-25 -105h-237l-45 -192h306l-25 -105h-420l162 700h411l-24 -105h-297z" />
    <glyph glyph-name="uni1EBB" unicode="&#x1ebb;" horiz-adv-x="566" 
d="M355.5 654.5q11.5 10.5 12.5 28.5q0 17 -11 27t-28 10q-23 0 -49 -14l-29 65q51 23 92 23q49 0 77.5 -30t28.5 -71q0 -44 -31.5 -75t-76.5 -45l-24 58q27 13 38.5 23.5zM364 110.5q40 17.5 70 53.5l65 -72q-50 -52 -110 -77.5t-125 -25.5q-74 0 -125 32.5t-76.5 86.5
t-25.5 118q0 73 33 140t96 109t149 42q59 0 108 -23t78.5 -70.5t29.5 -116.5q0 -32 -3.5 -50.5t-7.5 -32.5l-6 -21h-365q2 -55 40 -82.5t92 -27.5q43 0 83 17.5zM215.5 386q-43.5 -32 -57.5 -91h262q1 7 1 19q0 51 -31.5 77.5t-78.5 26.5q-52 0 -95.5 -32z" />
    <glyph glyph-name="uni1EBC" unicode="&#x1ebc;" horiz-adv-x="541" 
d="M279 595l-44 -193h238l-25 -105h-237l-45 -192h306l-25 -105h-420l162 700h411l-24 -105h-297zM525.5 786.5q-25.5 -25.5 -57.5 -25.5q-17 0 -33.5 8t-36.5 22q-18 12 -29 17.5t-22 5.5q-15 0 -31 -13t-37 -37l-64 53q22 35 57 65.5t74 30.5q18 0 33.5 -7t38.5 -21
q18 -11 28 -15.5t20 -4.5q14 0 25.5 11t26.5 31l62 -49q-29 -46 -54.5 -71.5z" />
    <glyph glyph-name="uni1EBD" unicode="&#x1ebd;" horiz-adv-x="566" 
d="M364 110.5q40 17.5 70 53.5l65 -72q-50 -52 -110 -77.5t-125 -25.5q-74 0 -125 32.5t-76.5 86.5t-25.5 118q0 73 33 140t96 109t149 42q59 0 108 -23t78.5 -70.5t29.5 -116.5q0 -32 -3.5 -50.5t-7.5 -32.5l-6 -21h-365q2 -55 40 -82.5t92 -27.5q43 0 83 17.5zM215.5 386
q-43.5 -32 -57.5 -91h262q1 7 1 19q0 51 -31.5 77.5t-78.5 26.5q-52 0 -95.5 -32zM497.5 625.5q-25.5 -25.5 -57.5 -25.5q-17 0 -33.5 8t-36.5 22q-18 12 -29 17.5t-22 5.5q-15 0 -31 -13t-37 -37l-64 53q22 35 57 65.5t74 30.5q18 0 33.5 -7t38.5 -21q18 -11 28 -15.5
t20 -4.5q14 0 25.5 11t26.5 31l62 -49q-29 -46 -54.5 -71.5z" />
    <glyph glyph-name="uni1EBE" unicode="&#x1ebe;" horiz-adv-x="565" 
d="M244 943l130 120l57 -62l-130 -119zM541 740l-92 81l-137 -81l-58 72l209 122l149 -129zM303 595l-44 -193h238l-25 -105h-237l-45 -192h306l-25 -105h-420l162 700h411l-24 -105h-297z" />
    <glyph glyph-name="uni1EBF" unicode="&#x1ebf;" horiz-adv-x="566" 
d="M170 775l130 120l57 -62l-130 -119zM468 572l-92 81l-137 -81l-58 72l209 122l149 -129zM364 110.5q40 17.5 70 53.5l65 -72q-50 -52 -110 -77.5t-125 -25.5q-74 0 -125 32.5t-76.5 86.5t-25.5 118q0 73 33 140t96 109t149 42q59 0 108 -23t78.5 -70.5t29.5 -116.5
q0 -32 -3.5 -50.5t-7.5 -32.5l-6 -21h-365q2 -55 40 -82.5t92 -27.5q43 0 83 17.5zM215.5 386q-43.5 -32 -57.5 -91h262q1 7 1 19q0 51 -31.5 77.5t-78.5 26.5q-52 0 -95.5 -32z" />
    <glyph glyph-name="uni1EC0" unicode="&#x1ec0;" horiz-adv-x="541" 
d="M279 595l-44 -193h238l-25 -105h-237l-45 -192h306l-25 -105h-420l162 700h411l-24 -105h-297zM438 1027l67 51l108 -141l-67 -50zM517 740l-92 81l-137 -81l-58 72l209 122l149 -129z" />
    <glyph glyph-name="uni1EC1" unicode="&#x1ec1;" horiz-adv-x="566" 
d="M364 110.5q40 17.5 70 53.5l65 -72q-50 -52 -110 -77.5t-125 -25.5q-74 0 -125 32.5t-76.5 86.5t-25.5 118q0 73 33 140t96 109t149 42q59 0 108 -23t78.5 -70.5t29.5 -116.5q0 -32 -3.5 -50.5t-7.5 -32.5l-6 -21h-365q2 -55 40 -82.5t92 -27.5q43 0 83 17.5zM215.5 386
q-43.5 -32 -57.5 -91h262q1 7 1 19q0 51 -31.5 77.5t-78.5 26.5q-52 0 -95.5 -32zM468 552l-92 81l-137 -81l-58 72l209 122l149 -129zM389 839l67 51l108 -141l-67 -50z" />
    <glyph glyph-name="uni1EC2" unicode="&#x1ec2;" horiz-adv-x="541" 
d="M279 595l-44 -193h238l-25 -105h-237l-45 -192h306l-25 -105h-420l162 700h411l-24 -105h-297zM517 740l-92 81l-137 -81l-58 72l209 122l149 -129zM551.5 946q10.5 9 11.5 25q0 15 -9.5 23.5t-24.5 8.5q-21 0 -43 -12l-25 57q45 20 80 20q43 0 67.5 -26.5t24.5 -61.5
q0 -38 -27.5 -65t-66.5 -40l-21 51q23 11 33.5 20z" />
    <glyph glyph-name="uni1EC3" unicode="&#x1ec3;" horiz-adv-x="566" 
d="M364 110.5q40 17.5 70 53.5l65 -72q-50 -52 -110 -77.5t-125 -25.5q-74 0 -125 32.5t-76.5 86.5t-25.5 118q0 73 33 140t96 109t149 42q59 0 108 -23t78.5 -70.5t29.5 -116.5q0 -32 -3.5 -50.5t-7.5 -32.5l-6 -21h-365q2 -55 40 -82.5t92 -27.5q43 0 83 17.5zM215.5 386
q-43.5 -32 -57.5 -91h262q1 7 1 19q0 51 -31.5 77.5t-78.5 26.5q-52 0 -95.5 -32zM468 552l-92 81l-137 -81l-58 72l209 122l149 -129zM502.5 758q10.5 9 11.5 25q0 15 -9.5 23.5t-24.5 8.5q-21 0 -43 -12l-25 57q45 20 80 20q43 0 67.5 -26.5t24.5 -61.5q0 -38 -27.5 -65
t-66.5 -40l-21 51q23 11 33.5 20z" />
    <glyph glyph-name="uni1EC4" unicode="&#x1ec4;" horiz-adv-x="541" 
d="M279 595l-44 -193h238l-25 -105h-237l-45 -192h306l-25 -105h-420l162 700h411l-24 -105h-297zM517 740l-92 81l-137 -81l-58 72l209 122l149 -129zM467.5 953.5q-13.5 5.5 -30.5 15.5q-9 5 -18.5 9.5t-16.5 4.5q-12 0 -21.5 -9t-28.5 -32l-54 45q23 33 46 53.5t56 20.5
q14 0 27.5 -4.5t24 -10t13.5 -6.5q24 -13 33 -13q11 0 22 12.5t18 26.5l57 -32q-22 -38 -45 -62t-54 -24q-15 0 -28.5 5.5z" />
    <glyph glyph-name="uni1EC5" unicode="&#x1ec5;" horiz-adv-x="566" 
d="M364 110.5q40 17.5 70 53.5l65 -72q-50 -52 -110 -77.5t-125 -25.5q-74 0 -125 32.5t-76.5 86.5t-25.5 118q0 73 33 140t96 109t149 42q59 0 108 -23t78.5 -70.5t29.5 -116.5q0 -32 -3.5 -50.5t-7.5 -32.5l-6 -21h-365q2 -55 40 -82.5t92 -27.5q43 0 83 17.5zM215.5 386
q-43.5 -32 -57.5 -91h262q1 7 1 19q0 51 -31.5 77.5t-78.5 26.5q-52 0 -95.5 -32zM468 552l-92 81l-137 -81l-58 72l209 122l149 -129zM418.5 785.5q-13.5 5.5 -30.5 15.5q-9 5 -18.5 9.5t-16.5 4.5q-12 0 -21.5 -9t-28.5 -32l-54 45q23 33 46 53.5t56 20.5q14 0 27.5 -4.5
t24 -10t13.5 -6.5q24 -13 33 -13q11 0 22 12.5t18 26.5l57 -32q-22 -38 -45 -62t-54 -24q-15 0 -28.5 5.5z" />
    <glyph glyph-name="uni1EC6" unicode="&#x1ec6;" horiz-adv-x="541" 
d="M168 -90.5q22 22.5 55 22.5q34 0 56.5 -22.5t22.5 -56.5q0 -33 -22.5 -55.5t-56.5 -22.5q-33 0 -55 22.5t-22 55.5q0 34 22 56.5zM279 595l-44 -193h238l-25 -105h-237l-45 -192h306l-25 -105h-420l162 700h411l-24 -105h-297zM517 750l-92 81l-137 -81l-58 72l209 122
l149 -129z" />
    <glyph glyph-name="uni1EC7" unicode="&#x1ec7;" horiz-adv-x="566" 
d="M170 -90.5q22 22.5 55 22.5q34 0 56.5 -22.5t22.5 -56.5q0 -33 -22.5 -55.5t-56.5 -22.5q-33 0 -55 22.5t-22 55.5q0 34 22 56.5zM364 110.5q40 17.5 70 53.5l65 -72q-50 -52 -110 -77.5t-125 -25.5q-74 0 -125 32.5t-76.5 86.5t-25.5 118q0 73 33 140t96 109t149 42
q59 0 108 -23t78.5 -70.5t29.5 -116.5q0 -32 -3.5 -50.5t-7.5 -32.5l-6 -21h-365q2 -55 40 -82.5t92 -27.5q43 0 83 17.5zM215.5 386q-43.5 -32 -57.5 -91h262q1 7 1 19q0 51 -31.5 77.5t-78.5 26.5q-52 0 -95.5 -32zM478 592l-92 81l-137 -81l-58 72l209 122l149 -129z" />
    <glyph glyph-name="uni1EC8" unicode="&#x1ec8;" horiz-adv-x="285" 
d="M247.5 838.5q11.5 10.5 12.5 28.5q0 17 -11 27t-28 10q-23 0 -49 -14l-29 65q51 23 92 23q49 0 77.5 -30t28.5 -71q0 -44 -31.5 -75t-76.5 -45l-24 58q27 13 38.5 23.5zM193 700h115l-161 -700h-115z" />
    <glyph glyph-name="uni1EC9" unicode="&#x1ec9;" horiz-adv-x="274" 
d="M205 654.5q12 10.5 13 28.5q0 17 -11 27t-28 10q-23 0 -49 -14l-29 65q51 23 92 23q49 0 77.5 -30t28.5 -71q0 -44 -31.5 -75t-76.5 -45l-24 58q26 13 38 23.5zM142 504h110l-117 -504h-110z" />
    <glyph glyph-name="uni1ECA" unicode="&#x1eca;" horiz-adv-x="285" 
d="M193 700h115l-161 -700h-115zM2 -90.5q22 22.5 55 22.5q34 0 56.5 -22.5t22.5 -56.5q0 -33 -22.5 -55.5t-56.5 -22.5q-33 0 -55 22.5t-22 55.5q0 34 22 56.5z" />
    <glyph glyph-name="uni1ECB" unicode="&#x1ecb;" horiz-adv-x="274" 
d="M142 504h110l-117 -504h-110zM281 614q-21 -21 -52 -21t-52 21t-21 51t21 51t52 21t52 -21t21 -51t-21 -51zM-4 -90.5q22 22.5 55 22.5q34 0 56.5 -22.5t22.5 -56.5q0 -33 -22.5 -55.5t-56.5 -22.5q-33 0 -55 22.5t-22 55.5q0 34 22 56.5z" />
    <glyph glyph-name="uni1ECC" unicode="&#x1ecc;" 
d="M274 -90.5q22 22.5 55 22.5q34 0 56.5 -22.5t22.5 -56.5q0 -33 -22.5 -55.5t-56.5 -22.5q-33 0 -55 22.5t-22 55.5q0 34 22 56.5zM645.5 674.5q71.5 -41.5 110.5 -115t39 -165.5q0 -112 -55.5 -206t-149 -149t-203.5 -55q-95 0 -167 41.5t-111 115t-39 166.5
q0 111 55 205t149 149t204 55q96 0 167.5 -41.5zM325 568q-64 -38 -101.5 -104t-37.5 -145q0 -66 26.5 -117t75 -79.5t112.5 -28.5q75 0 138.5 38t101.5 104t38 145q0 66 -26.5 117t-75.5 79.5t-113 28.5q-74 0 -138 -38z" />
    <glyph glyph-name="uni1ECD" unicode="&#x1ecd;" horiz-adv-x="598" 
d="M459 487q53 -30 81 -82.5t28 -118.5q0 -81 -41 -149t-110.5 -108t-150.5 -40q-69 0 -121.5 30t-81 82.5t-28.5 118.5q0 81 40.5 149t110 108t150.5 40q70 0 123 -30zM234.5 391q-40.5 -24 -64.5 -66t-24 -92q0 -62 36.5 -101t98.5 -39q48 0 89 24t64.5 66t23.5 92
q0 63 -36.5 101.5t-98.5 38.5q-48 0 -88.5 -24zM177 -90.5q22 22.5 55 22.5q34 0 56.5 -22.5t22.5 -56.5q0 -33 -22.5 -55.5t-56.5 -22.5q-33 0 -55 22.5t-22 55.5q0 34 22 56.5z" />
    <glyph glyph-name="uni1ECE" unicode="&#x1ece;" 
d="M526.5 838.5q11.5 10.5 12.5 28.5q0 17 -11 27t-28 10q-23 0 -49 -14l-29 65q51 23 92 23q49 0 77.5 -30t28.5 -71q0 -44 -31.5 -75t-76.5 -45l-24 58q27 13 38.5 23.5zM645.5 674.5q71.5 -41.5 110.5 -115t39 -165.5q0 -112 -55.5 -206t-149 -149t-203.5 -55
q-95 0 -167 41.5t-111 115t-39 166.5q0 111 55 205t149 149t204 55q96 0 167.5 -41.5zM325 568q-64 -38 -101.5 -104t-37.5 -145q0 -66 26.5 -117t75 -79.5t112.5 -28.5q75 0 138.5 38t101.5 104t38 145q0 66 -26.5 117t-75.5 79.5t-113 28.5q-74 0 -138 -38z" />
    <glyph glyph-name="uni1ECF" unicode="&#x1ecf;" horiz-adv-x="598" 
d="M365 654.5q12 10.5 13 28.5q0 17 -11 27t-28 10q-23 0 -49 -14l-29 65q51 23 92 23q49 0 77.5 -30t28.5 -71q0 -44 -31.5 -75t-76.5 -45l-24 58q26 13 38 23.5zM459 487q53 -30 81 -82.5t28 -118.5q0 -81 -41 -149t-110.5 -108t-150.5 -40q-69 0 -121.5 30t-81 82.5
t-28.5 118.5q0 81 40.5 149t110 108t150.5 40q70 0 123 -30zM234.5 391q-40.5 -24 -64.5 -66t-24 -92q0 -62 36.5 -101t98.5 -39q48 0 89 24t64.5 66t23.5 92q0 63 -36.5 101.5t-98.5 38.5q-48 0 -88.5 -24z" />
    <glyph glyph-name="uni1ED0" unicode="&#x1ed0;" 
d="M328 943l130 120l57 -62l-130 -119zM625 740l-92 81l-137 -81l-58 72l209 122l149 -129zM645.5 674.5q71.5 -41.5 110.5 -115t39 -165.5q0 -112 -55.5 -206t-149 -149t-203.5 -55q-95 0 -167 41.5t-111 115t-39 166.5q0 111 55 205t149 149t204 55q96 0 167.5 -41.5z
M325 568q-64 -38 -101.5 -104t-37.5 -145q0 -66 26.5 -117t75 -79.5t112.5 -28.5q75 0 138.5 38t101.5 104t38 145q0 66 -26.5 117t-75.5 79.5t-113 28.5q-74 0 -138 -38z" />
    <glyph glyph-name="uni1ED1" unicode="&#x1ed1;" horiz-adv-x="598" 
d="M173 755l130 120l57 -62l-130 -119zM470 552l-92 81l-137 -81l-58 72l209 122l149 -129zM459 487q53 -30 81 -82.5t28 -118.5q0 -81 -41 -149t-110.5 -108t-150.5 -40q-69 0 -121.5 30t-81 82.5t-28.5 118.5q0 81 40.5 149t110 108t150.5 40q70 0 123 -30zM234.5 391
q-40.5 -24 -64.5 -66t-24 -92q0 -62 36.5 -101t98.5 -39q48 0 89 24t64.5 66t23.5 92q0 63 -36.5 101.5t-98.5 38.5q-48 0 -88.5 -24z" />
    <glyph glyph-name="uni1ED2" unicode="&#x1ed2;" 
d="M645.5 674.5q71.5 -41.5 110.5 -115t39 -165.5q0 -112 -55.5 -206t-149 -149t-203.5 -55q-95 0 -167 41.5t-111 115t-39 166.5q0 111 55 205t149 149t204 55q96 0 167.5 -41.5zM325 568q-64 -38 -101.5 -104t-37.5 -145q0 -66 26.5 -117t75 -79.5t112.5 -28.5
q75 0 138.5 38t101.5 104t38 145q0 66 -26.5 117t-75.5 79.5t-113 28.5q-74 0 -138 -38zM625 740l-92 81l-137 -81l-58 72l209 122l149 -129zM546 1027l67 51l108 -141l-67 -50z" />
    <glyph glyph-name="uni1ED3" unicode="&#x1ed3;" horiz-adv-x="598" 
d="M459 487q53 -30 81 -82.5t28 -118.5q0 -81 -41 -149t-110.5 -108t-150.5 -40q-69 0 -121.5 30t-81 82.5t-28.5 118.5q0 81 40.5 149t110 108t150.5 40q70 0 123 -30zM234.5 391q-40.5 -24 -64.5 -66t-24 -92q0 -62 36.5 -101t98.5 -39q48 0 89 24t64.5 66t23.5 92
q0 63 -36.5 101.5t-98.5 38.5q-48 0 -88.5 -24zM470 552l-92 81l-137 -81l-58 72l209 122l149 -129zM391 839l67 51l108 -141l-67 -50z" />
    <glyph glyph-name="uni1ED4" unicode="&#x1ed4;" 
d="M645.5 674.5q71.5 -41.5 110.5 -115t39 -165.5q0 -112 -55.5 -206t-149 -149t-203.5 -55q-95 0 -167 41.5t-111 115t-39 166.5q0 111 55 205t149 149t204 55q96 0 167.5 -41.5zM325 568q-64 -38 -101.5 -104t-37.5 -145q0 -66 26.5 -117t75 -79.5t112.5 -28.5
q75 0 138.5 38t101.5 104t38 145q0 66 -26.5 117t-75.5 79.5t-113 28.5q-74 0 -138 -38zM625 740l-92 81l-137 -81l-58 72l209 122l149 -129zM659.5 946q10.5 9 11.5 25q0 15 -9.5 23.5t-24.5 8.5q-21 0 -43 -12l-25 57q45 20 80 20q43 0 67.5 -26.5t24.5 -61.5
q0 -38 -27.5 -65t-66.5 -40l-21 51q23 11 33.5 20z" />
    <glyph glyph-name="uni1ED5" unicode="&#x1ed5;" horiz-adv-x="598" 
d="M459 487q53 -30 81 -82.5t28 -118.5q0 -81 -41 -149t-110.5 -108t-150.5 -40q-69 0 -121.5 30t-81 82.5t-28.5 118.5q0 81 40.5 149t110 108t150.5 40q70 0 123 -30zM234.5 391q-40.5 -24 -64.5 -66t-24 -92q0 -62 36.5 -101t98.5 -39q48 0 89 24t64.5 66t23.5 92
q0 63 -36.5 101.5t-98.5 38.5q-48 0 -88.5 -24zM470 562l-92 81l-137 -81l-58 72l209 122l149 -129zM504.5 768q10.5 9 11.5 25q0 15 -9.5 23.5t-24.5 8.5q-21 0 -43 -12l-25 57q45 20 80 20q43 0 67.5 -26.5t24.5 -61.5q0 -38 -27.5 -65t-66.5 -40l-21 51q23 11 33.5 20z
" />
    <glyph glyph-name="uni1ED6" unicode="&#x1ed6;" 
d="M645.5 674.5q71.5 -41.5 110.5 -115t39 -165.5q0 -112 -55.5 -206t-149 -149t-203.5 -55q-95 0 -167 41.5t-111 115t-39 166.5q0 111 55 205t149 149t204 55q96 0 167.5 -41.5zM325 568q-64 -38 -101.5 -104t-37.5 -145q0 -66 26.5 -117t75 -79.5t112.5 -28.5
q75 0 138.5 38t101.5 104t38 145q0 66 -26.5 117t-75.5 79.5t-113 28.5q-74 0 -138 -38zM625 740l-92 81l-137 -81l-58 72l209 122l149 -129zM575.5 953.5q-13.5 5.5 -30.5 15.5q-9 5 -18.5 9.5t-16.5 4.5q-12 0 -21.5 -9t-28.5 -32l-54 45q23 33 46 53.5t56 20.5
q14 0 27.5 -4.5t24 -10t13.5 -6.5q24 -13 33 -13q11 0 22 12.5t18 26.5l57 -32q-22 -38 -45 -62t-54 -24q-15 0 -28.5 5.5z" />
    <glyph glyph-name="uni1ED7" unicode="&#x1ed7;" horiz-adv-x="598" 
d="M459 487q53 -30 81 -82.5t28 -118.5q0 -81 -41 -149t-110.5 -108t-150.5 -40q-69 0 -121.5 30t-81 82.5t-28.5 118.5q0 81 40.5 149t110 108t150.5 40q70 0 123 -30zM234.5 391q-40.5 -24 -64.5 -66t-24 -92q0 -62 36.5 -101t98.5 -39q48 0 89 24t64.5 66t23.5 92
q0 63 -36.5 101.5t-98.5 38.5q-48 0 -88.5 -24zM470 552l-92 81l-137 -81l-58 72l209 122l149 -129zM420.5 785.5q-13.5 5.5 -30.5 15.5q-9 5 -18.5 9.5t-16.5 4.5q-12 0 -21.5 -9t-28.5 -32l-54 45q23 33 46 53.5t56 20.5q14 0 27.5 -4.5t24 -10t13.5 -6.5q24 -13 33 -13
q11 0 22 12.5t18 26.5l57 -32q-22 -38 -45 -62t-54 -24q-15 0 -28.5 5.5z" />
    <glyph glyph-name="uni1ED8" unicode="&#x1ed8;" 
d="M274 -90.5q22 22.5 55 22.5q34 0 56.5 -22.5t22.5 -56.5q0 -33 -22.5 -55.5t-56.5 -22.5q-33 0 -55 22.5t-22 55.5q0 34 22 56.5zM645.5 674.5q71.5 -41.5 110.5 -115t39 -165.5q0 -112 -55.5 -206t-149 -149t-203.5 -55q-95 0 -167 41.5t-111 115t-39 166.5
q0 111 55 205t149 149t204 55q96 0 167.5 -41.5zM325 568q-64 -38 -101.5 -104t-37.5 -145q0 -66 26.5 -117t75 -79.5t112.5 -28.5q75 0 138.5 38t101.5 104t38 145q0 66 -26.5 117t-75.5 79.5t-113 28.5q-74 0 -138 -38zM625 750l-92 81l-137 -81l-58 72l209 122l149 -129z
" />
    <glyph glyph-name="uni1ED9" unicode="&#x1ed9;" horiz-adv-x="598" 
d="M157 -90.5q22 22.5 55 22.5q34 0 56.5 -22.5t22.5 -56.5q0 -33 -22.5 -55.5t-56.5 -22.5q-33 0 -55 22.5t-22 55.5q0 34 22 56.5zM459 487q53 -30 81 -82.5t28 -118.5q0 -81 -41 -149t-110.5 -108t-150.5 -40q-69 0 -121.5 30t-81 82.5t-28.5 118.5q0 81 40.5 149
t110 108t150.5 40q70 0 123 -30zM234.5 391q-40.5 -24 -64.5 -66t-24 -92q0 -62 36.5 -101t98.5 -39q48 0 89 24t64.5 66t23.5 92q0 63 -36.5 101.5t-98.5 38.5q-48 0 -88.5 -24zM480 592l-92 81l-137 -81l-58 72l209 122l149 -129z" />
    <glyph glyph-name="uni1EDA" unicode="&#x1eda;" 
d="M772 525.5q23 -60.5 23 -131.5q0 -112 -55.5 -206t-149 -149t-203.5 -55q-95 0 -167 41.5t-111 115t-39 166.5q0 111 55 205t149 149t204 55q72 0 133 -25q51 4 79 37.5t37 76.5l96 -25q-7 -47 -38.5 -88.5t-79.5 -62.5q44 -43 67 -103.5zM538.5 132q63.5 38 101.5 104
t38 145q0 66 -26.5 117t-75.5 79.5t-113 28.5q-74 0 -138 -38t-101.5 -104t-37.5 -145q0 -66 26.5 -117t75 -79.5t112.5 -28.5q75 0 138.5 38zM711 933l27 -97l-250 -76l-30 96z" />
    <glyph glyph-name="uni1EDB" unicode="&#x1edb;" horiz-adv-x="598" 
d="M608.5 488.5q-32.5 -41.5 -81.5 -62.5q41 -58 41 -140q0 -81 -41 -149t-110.5 -108t-150.5 -40q-69 0 -121.5 30t-81 82.5t-28.5 118.5q0 81 40.5 149t110 108t150.5 40q65 0 115 -26q44 9 68.5 41t32.5 71l96 -25q-7 -48 -39.5 -89.5zM370 117q41 24 64.5 66t23.5 92
q0 63 -36.5 101.5t-98.5 38.5q-48 0 -88.5 -24t-64.5 -66t-24 -92q0 -62 36.5 -101t98.5 -39q48 0 89 24zM525 762l27 -97l-250 -76l-30 96z" />
    <glyph glyph-name="uni1EDC" unicode="&#x1edc;" 
d="M772 525.5q23 -60.5 23 -131.5q0 -112 -55.5 -206t-149 -149t-203.5 -55q-95 0 -167 41.5t-111 115t-39 166.5q0 111 55 205t149 149t204 55q72 0 133 -25q51 4 79 37.5t37 76.5l96 -25q-7 -47 -38.5 -88.5t-79.5 -62.5q44 -43 67 -103.5zM538.5 132q63.5 38 101.5 104
t38 145q0 66 -26.5 117t-75.5 79.5t-113 28.5q-74 0 -138 -38t-101.5 -104t-37.5 -145q0 -66 26.5 -117t75 -79.5t112.5 -28.5q75 0 138.5 38zM613 759l-250 76l27 97l253 -77z" />
    <glyph glyph-name="uni1EDD" unicode="&#x1edd;" horiz-adv-x="598" 
d="M608.5 488.5q-32.5 -41.5 -81.5 -62.5q41 -58 41 -140q0 -81 -41 -149t-110.5 -108t-150.5 -40q-69 0 -121.5 30t-81 82.5t-28.5 118.5q0 81 40.5 149t110 108t150.5 40q65 0 115 -26q44 9 68.5 41t32.5 71l96 -25q-7 -48 -39.5 -89.5zM370 117q41 24 64.5 66t23.5 92
q0 63 -36.5 101.5t-98.5 38.5q-48 0 -88.5 -24t-64.5 -66t-24 -92q0 -62 36.5 -101t98.5 -39q48 0 89 24zM445 599l-250 76l27 97l253 -77z" />
    <glyph glyph-name="uni1EDE" unicode="&#x1ede;" 
d="M451 890l-29 65q51 23 92 23q49 0 77.5 -30t28.5 -71q0 -44 -31.5 -75t-76.5 -45l-24 58q27 13 38.5 23.5t12.5 28.5q0 17 -11 27t-28 10q-23 0 -49 -14zM772 525.5q23 -60.5 23 -131.5q0 -112 -55.5 -206t-149 -149t-203.5 -55q-95 0 -167 41.5t-111 115t-39 166.5
q0 111 55 205t149 149t204 55q72 0 133 -25q51 4 79 37.5t37 76.5l96 -25q-7 -47 -38.5 -88.5t-79.5 -62.5q44 -43 67 -103.5zM538.5 132q63.5 38 101.5 104t38 145q0 66 -26.5 117t-75.5 79.5t-113 28.5q-74 0 -138 -38t-101.5 -104t-37.5 -145q0 -66 26.5 -117t75 -79.5
t112.5 -28.5q75 0 138.5 38z" />
    <glyph glyph-name="uni1EDF" unicode="&#x1edf;" horiz-adv-x="598" 
d="M290 706l-29 65q51 23 92 23q49 0 77.5 -30t28.5 -71q0 -44 -31.5 -75t-76.5 -45l-24 58q26 13 38 23.5t13 28.5q0 17 -11 27t-28 10q-23 0 -49 -14zM608.5 488.5q-32.5 -41.5 -81.5 -62.5q41 -58 41 -140q0 -81 -41 -149t-110.5 -108t-150.5 -40q-69 0 -121.5 30
t-81 82.5t-28.5 118.5q0 81 40.5 149t110 108t150.5 40q65 0 115 -26q44 9 68.5 41t32.5 71l96 -25q-7 -48 -39.5 -89.5zM370 117q41 24 64.5 66t23.5 92q0 63 -36.5 101.5t-98.5 38.5q-48 0 -88.5 -24t-64.5 -66t-24 -92q0 -62 36.5 -101t98.5 -39q48 0 89 24z" />
    <glyph glyph-name="uni1EE0" unicode="&#x1ee0;" 
d="M772 525.5q23 -60.5 23 -131.5q0 -112 -55.5 -206t-149 -149t-203.5 -55q-95 0 -167 41.5t-111 115t-39 166.5q0 111 55 205t149 149t204 55q72 0 133 -25q51 4 79 37.5t37 76.5l96 -25q-7 -47 -38.5 -88.5t-79.5 -62.5q44 -43 67 -103.5zM538.5 132q63.5 38 101.5 104
t38 145q0 66 -26.5 117t-75.5 79.5t-113 28.5q-74 0 -138 -38t-101.5 -104t-37.5 -145q0 -66 26.5 -117t75 -79.5t112.5 -28.5q75 0 138.5 38zM652.5 786.5q-25.5 -25.5 -57.5 -25.5q-17 0 -33.5 8t-36.5 22q-18 12 -29 17.5t-22 5.5q-15 0 -31 -13t-37 -37l-64 53
q22 35 57 65.5t74 30.5q18 0 33.5 -7t38.5 -21q18 -11 28 -15.5t20 -4.5q14 0 25.5 11t26.5 31l62 -49q-29 -46 -54.5 -71.5z" />
    <glyph glyph-name="uni1EE1" unicode="&#x1ee1;" horiz-adv-x="598" 
d="M608.5 488.5q-32.5 -41.5 -81.5 -62.5q41 -58 41 -140q0 -81 -41 -149t-110.5 -108t-150.5 -40q-69 0 -121.5 30t-81 82.5t-28.5 118.5q0 81 40.5 149t110 108t150.5 40q65 0 115 -26q44 9 68.5 41t32.5 71l96 -25q-7 -48 -39.5 -89.5zM370 117q41 24 64.5 66t23.5 92
q0 63 -36.5 101.5t-98.5 38.5q-48 0 -88.5 -24t-64.5 -66t-24 -92q0 -62 36.5 -101t98.5 -39q48 0 89 24zM492.5 625.5q-25.5 -25.5 -57.5 -25.5q-17 0 -33.5 8t-36.5 22q-18 12 -29 17.5t-22 5.5q-15 0 -31 -13t-37 -37l-64 53q22 35 57 65.5t74 30.5q18 0 33.5 -7
t38.5 -21q18 -11 28 -15.5t20 -4.5q14 0 25.5 11t26.5 31l62 -49q-29 -46 -54.5 -71.5z" />
    <glyph glyph-name="uni1EE2" unicode="&#x1ee2;" 
d="M772 525.5q23 -60.5 23 -131.5q0 -112 -55.5 -206t-149 -149t-203.5 -55q-95 0 -167 41.5t-111 115t-39 166.5q0 111 55 205t149 149t204 55q72 0 133 -25q51 4 79 37.5t37 76.5l96 -25q-7 -47 -38.5 -88.5t-79.5 -62.5q44 -43 67 -103.5zM538.5 132q63.5 38 101.5 104
t38 145q0 66 -26.5 117t-75.5 79.5t-113 28.5q-74 0 -138 -38t-101.5 -104t-37.5 -145q0 -66 26.5 -117t75 -79.5t112.5 -28.5q75 0 138.5 38zM274 -90.5q22 22.5 55 22.5q34 0 56.5 -22.5t22.5 -56.5q0 -33 -22.5 -55.5t-56.5 -22.5q-33 0 -55 22.5t-22 55.5q0 34 22 56.5z
" />
    <glyph glyph-name="uni1EE3" unicode="&#x1ee3;" horiz-adv-x="598" 
d="M608.5 488.5q-32.5 -41.5 -81.5 -62.5q41 -58 41 -140q0 -81 -41 -149t-110.5 -108t-150.5 -40q-69 0 -121.5 30t-81 82.5t-28.5 118.5q0 81 40.5 149t110 108t150.5 40q65 0 115 -26q44 9 68.5 41t32.5 71l96 -25q-7 -48 -39.5 -89.5zM370 117q41 24 64.5 66t23.5 92
q0 63 -36.5 101.5t-98.5 38.5q-48 0 -88.5 -24t-64.5 -66t-24 -92q0 -62 36.5 -101t98.5 -39q48 0 89 24zM177 -90.5q22 22.5 55 22.5q34 0 56.5 -22.5t22.5 -56.5q0 -33 -22.5 -55.5t-56.5 -22.5q-33 0 -55 22.5t-22 55.5q0 34 22 56.5z" />
    <glyph glyph-name="uni1EE4" unicode="&#x1ee4;" horiz-adv-x="681" 
d="M178 700h115l-100 -431q-6 -28 -6 -51q0 -59 34.5 -91.5t88.5 -32.5q41 0 80.5 19.5t69 56.5t41.5 89l103 441h115l-106 -455q-18 -81 -65.5 -140.5t-112.5 -90t-136 -30.5q-63 0 -115 25t-83 73t-31 115q0 34 9 74zM205 -90.5q22 22.5 55 22.5q34 0 56.5 -22.5
t22.5 -56.5q0 -33 -22.5 -55.5t-56.5 -22.5q-33 0 -55 22.5t-22 55.5q0 34 22 56.5z" />
    <glyph glyph-name="uni1EE5" unicode="&#x1ee5;" horiz-adv-x="569" 
d="M451 0h-108l16 69q-56 -80 -150 -80q-69 0 -114.5 44t-45.5 119q0 30 7 58l67 294h109l-67 -292q-4 -17 -4 -34q0 -38 22.5 -57.5t60.5 -19.5q52 0 95 37t59 109l60 257h109zM147 -90.5q22 22.5 55 22.5q34 0 56.5 -22.5t22.5 -56.5q0 -33 -22.5 -55.5t-56.5 -22.5
q-33 0 -55 22.5t-22 55.5q0 34 22 56.5z" />
    <glyph glyph-name="uni1EE6" unicode="&#x1ee6;" horiz-adv-x="681" 
d="M437 838.5q12 10.5 13 28.5q0 17 -11 27t-28 10q-23 0 -49 -14l-29 65q51 23 92 23q49 0 77.5 -30t28.5 -71q0 -44 -31.5 -75t-76.5 -45l-24 58q26 13 38 23.5zM178 700h115l-100 -431q-6 -28 -6 -51q0 -59 34.5 -91.5t88.5 -32.5q41 0 80.5 19.5t69 56.5t41.5 89
l103 441h115l-106 -455q-18 -81 -65.5 -140.5t-112.5 -90t-136 -30.5q-63 0 -115 25t-83 73t-31 115q0 34 9 74z" />
    <glyph glyph-name="uni1EE7" unicode="&#x1ee7;" horiz-adv-x="569" 
d="M325.5 654.5q11.5 10.5 12.5 28.5q0 17 -11 27t-28 10q-23 0 -49 -14l-29 65q51 23 92 23q49 0 77.5 -30t28.5 -71q0 -44 -31.5 -75t-76.5 -45l-24 58q27 13 38.5 23.5zM451 0h-108l16 69q-56 -80 -150 -80q-69 0 -114.5 44t-45.5 119q0 30 7 58l67 294h109l-67 -292
q-4 -17 -4 -34q0 -38 22.5 -57.5t60.5 -19.5q52 0 95 37t59 109l60 257h109z" />
    <glyph glyph-name="uni1EE8" unicode="&#x1ee8;" horiz-adv-x="743" 
d="M793 695q-36 -44 -90 -62l-90 -388q-18 -81 -65.5 -140.5t-112.5 -90t-136 -30.5q-63 0 -115 25t-83 73t-31 115q0 34 9 74l99 429h115l-100 -431q-6 -28 -6 -51q0 -59 34.5 -91.5t88.5 -32.5q41 0 80.5 19.5t69 56.5t41.5 89l103 441h9q56 0 87 34.5t40 79.5l96 -25
q-7 -50 -43 -94zM623 933l27 -97l-250 -76l-30 96z" />
    <glyph glyph-name="uni1EE9" unicode="&#x1ee9;" horiz-adv-x="624" 
d="M640 499.5q-35 -43.5 -88 -61.5l-101 -438h-108l16 69q-56 -80 -150 -80q-69 0 -114.5 44t-45.5 119q0 30 7 58l67 294h109l-67 -292q-4 -17 -4 -34q0 -38 22.5 -57.5t60.5 -19.5q52 0 95 37t59 109l60 257h1q56 0 87 34.5t40 79.5l96 -25q-7 -50 -42 -93.5zM536 762
l27 -97l-250 -76l-30 96z" />
    <glyph glyph-name="uni1EEA" unicode="&#x1eea;" horiz-adv-x="743" 
d="M793 695q-36 -44 -90 -62l-90 -388q-18 -81 -65.5 -140.5t-112.5 -90t-136 -30.5q-63 0 -115 25t-83 73t-31 115q0 34 9 74l99 429h115l-100 -431q-6 -28 -6 -51q0 -59 34.5 -91.5t88.5 -32.5q41 0 80.5 19.5t69 56.5t41.5 89l103 441h9q56 0 87 34.5t40 79.5l96 -25
q-7 -50 -43 -94zM514 759l-250 76l27 97l253 -77z" />
    <glyph glyph-name="uni1EEB" unicode="&#x1eeb;" horiz-adv-x="624" 
d="M640 499.5q-35 -43.5 -88 -61.5l-101 -438h-108l16 69q-56 -80 -150 -80q-69 0 -114.5 44t-45.5 119q0 30 7 58l67 294h109l-67 -292q-4 -17 -4 -34q0 -38 22.5 -57.5t60.5 -19.5q52 0 95 37t59 109l60 257h1q56 0 87 34.5t40 79.5l96 -25q-7 -50 -42 -93.5zM434 599
l-250 76l27 97l253 -77z" />
    <glyph glyph-name="uni1EEC" unicode="&#x1eec;" horiz-adv-x="743" 
d="M362 890l-29 65q51 23 92 23q49 0 77.5 -30t28.5 -71q0 -44 -31.5 -75t-76.5 -45l-24 58q26 13 38 23.5t13 28.5q0 17 -11 27t-28 10q-23 0 -49 -14zM793 695q-36 -44 -90 -62l-90 -388q-18 -81 -65.5 -140.5t-112.5 -90t-136 -30.5q-63 0 -115 25t-83 73t-31 115
q0 34 9 74l99 429h115l-100 -431q-6 -28 -6 -51q0 -59 34.5 -91.5t88.5 -32.5q41 0 80.5 19.5t69 56.5t41.5 89l103 441h9q56 0 87 34.5t40 79.5l96 -25q-7 -50 -43 -94z" />
    <glyph glyph-name="uni1EED" unicode="&#x1eed;" horiz-adv-x="624" 
d="M250 706l-29 65q51 23 92 23q49 0 77.5 -30t28.5 -71q0 -44 -31.5 -75t-76.5 -45l-24 58q27 13 38.5 23.5t12.5 28.5q0 17 -11 27t-28 10q-23 0 -49 -14zM640 499.5q-35 -43.5 -88 -61.5l-101 -438h-108l16 69q-56 -80 -150 -80q-69 0 -114.5 44t-45.5 119q0 30 7 58
l67 294h109l-67 -292q-4 -17 -4 -34q0 -38 22.5 -57.5t60.5 -19.5q52 0 95 37t59 109l60 257h1q56 0 87 34.5t40 79.5l96 -25q-7 -50 -42 -93.5z" />
    <glyph glyph-name="uni1EEE" unicode="&#x1eee;" horiz-adv-x="743" 
d="M793 695q-36 -44 -90 -62l-90 -388q-18 -81 -65.5 -140.5t-112.5 -90t-136 -30.5q-63 0 -115 25t-83 73t-31 115q0 34 9 74l99 429h115l-100 -431q-6 -28 -6 -51q0 -59 34.5 -91.5t88.5 -32.5q41 0 80.5 19.5t69 56.5t41.5 89l103 441h9q56 0 87 34.5t40 79.5l96 -25
q-7 -50 -43 -94zM590.5 786.5q-25.5 -25.5 -57.5 -25.5q-17 0 -33.5 8t-36.5 22q-18 12 -29 17.5t-22 5.5q-15 0 -31 -13t-37 -37l-64 53q22 35 57 65.5t74 30.5q18 0 33.5 -7t38.5 -21q18 -11 28 -15.5t20 -4.5q14 0 25.5 11t26.5 31l62 -49q-29 -46 -54.5 -71.5z" />
    <glyph glyph-name="uni1EEF" unicode="&#x1eef;" horiz-adv-x="624" 
d="M640 499.5q-35 -43.5 -88 -61.5l-101 -438h-108l16 69q-56 -80 -150 -80q-69 0 -114.5 44t-45.5 119q0 30 7 58l67 294h109l-67 -292q-4 -17 -4 -34q0 -38 22.5 -57.5t60.5 -19.5q52 0 95 37t59 109l60 257h1q56 0 87 34.5t40 79.5l96 -25q-7 -50 -42 -93.5zM492.5 625.5
q-25.5 -25.5 -57.5 -25.5q-17 0 -33.5 8t-36.5 22q-18 12 -29 17.5t-22 5.5q-15 0 -31 -13t-37 -37l-64 53q22 35 57 65.5t74 30.5q18 0 33.5 -7t38.5 -21q18 -11 28 -15.5t20 -4.5q14 0 25.5 11t26.5 31l62 -49q-29 -46 -54.5 -71.5z" />
    <glyph glyph-name="uni1EF0" unicode="&#x1ef0;" horiz-adv-x="743" 
d="M793 695q-36 -44 -90 -62l-90 -388q-18 -81 -65.5 -140.5t-112.5 -90t-136 -30.5q-63 0 -115 25t-83 73t-31 115q0 34 9 74l99 429h115l-100 -431q-6 -28 -6 -51q0 -59 34.5 -91.5t88.5 -32.5q41 0 80.5 19.5t69 56.5t41.5 89l103 441h9q56 0 87 34.5t40 79.5l96 -25
q-7 -50 -43 -94zM205 -90.5q22 22.5 55 22.5q34 0 56.5 -22.5t22.5 -56.5q0 -33 -22.5 -55.5t-56.5 -22.5q-33 0 -55 22.5t-22 55.5q0 34 22 56.5z" />
    <glyph glyph-name="uni1EF1" unicode="&#x1ef1;" horiz-adv-x="624" 
d="M640 499.5q-35 -43.5 -88 -61.5l-101 -438h-108l16 69q-56 -80 -150 -80q-69 0 -114.5 44t-45.5 119q0 30 7 58l67 294h109l-67 -292q-4 -17 -4 -34q0 -38 22.5 -57.5t60.5 -19.5q52 0 95 37t59 109l60 257h1q56 0 87 34.5t40 79.5l96 -25q-7 -50 -42 -93.5zM147 -90.5
q22 22.5 55 22.5q34 0 56.5 -22.5t22.5 -56.5q0 -33 -22.5 -55.5t-56.5 -22.5q-33 0 -55 22.5t-22 55.5q0 34 22 56.5z" />
    <glyph glyph-name="Ygrave" unicode="&#x1ef2;" horiz-adv-x="646" 
d="M321 0h-115l71 302l-169 398h130l114 -288l245 288h147l-352 -399zM500 759l-250 76l27 97l253 -77z" />
    <glyph glyph-name="ygrave" unicode="&#x1ef3;" horiz-adv-x="601" 
d="M480 -9q-18 -76 -60 -126.5t-97 -74.5t-112 -24t-107.5 23t-84 66.5t-42.5 100.5l101 37q10 -59 47 -92t89 -33q60 0 102.5 35.5t59.5 106.5l17 72q-29 -40 -72.5 -58.5t-89.5 -18.5q-67 0 -113 41.5t-46 117.5q0 30 7 61l65 279h110l-60 -262q-6 -27 -6 -48
q0 -40 21 -61t58 -21q55 0 102.5 40t63.5 110l57 242h109zM462 599l-250 76l27 97l253 -77z" />
    <glyph glyph-name="uni1EF4" unicode="&#x1ef4;" horiz-adv-x="646" 
d="M182 -90.5q22 22.5 55 22.5q34 0 56.5 -22.5t22.5 -56.5q0 -33 -22.5 -55.5t-56.5 -22.5q-33 0 -55 22.5t-22 55.5q0 34 22 56.5zM321 0h-115l71 302l-169 398h130l114 -288l245 288h147l-352 -399z" />
    <glyph glyph-name="uni1EF5" unicode="&#x1ef5;" horiz-adv-x="690" 
d="M480 -9q-18 -76 -60 -126.5t-97 -74.5t-112 -24t-107.5 23t-84 66.5t-42.5 100.5l101 37q10 -59 47 -92t89 -33q60 0 102.5 35.5t59.5 106.5l17 72q-29 -40 -72.5 -58.5t-89.5 -18.5q-67 0 -113 41.5t-46 117.5q0 30 7 61l65 279h110l-60 -262q-6 -27 -6 -48
q0 -40 21 -61t58 -21q55 0 102.5 40t63.5 110l57 242h109zM410 -208.5q22 22.5 55 22.5q34 0 56.5 -22.5t22.5 -56.5q0 -33 -22.5 -55.5t-56.5 -22.5q-33 0 -55 22.5t-22 55.5q0 34 22 56.5z" />
    <glyph glyph-name="uni1EF6" unicode="&#x1ef6;" horiz-adv-x="646" 
d="M407 838.5q12 10.5 13 28.5q0 17 -11 27t-28 10q-23 0 -49 -14l-29 65q51 23 92 23q49 0 77.5 -30t28.5 -71q0 -44 -31.5 -75t-76.5 -45l-24 58q26 13 38 23.5zM321 0h-115l71 302l-169 398h130l114 -288l245 288h147l-352 -399z" />
    <glyph glyph-name="uni1EF7" unicode="&#x1ef7;" horiz-adv-x="601" 
d="M346.5 654.5q11.5 10.5 12.5 28.5q0 17 -11 27t-28 10q-23 0 -49 -14l-29 65q51 23 92 23q49 0 77.5 -30t28.5 -71q0 -44 -31.5 -75t-76.5 -45l-24 58q27 13 38.5 23.5zM480 -9q-18 -76 -60 -126.5t-97 -74.5t-112 -24t-107.5 23t-84 66.5t-42.5 100.5l101 37
q10 -59 47 -92t89 -33q60 0 102.5 35.5t59.5 106.5l17 72q-29 -40 -72.5 -58.5t-89.5 -18.5q-67 0 -113 41.5t-46 117.5q0 30 7 61l65 279h110l-60 -262q-6 -27 -6 -48q0 -40 21 -61t58 -21q55 0 102.5 40t63.5 110l57 242h109z" />
    <glyph glyph-name="uni1EF8" unicode="&#x1ef8;" horiz-adv-x="646" 
d="M321 0h-115l71 302l-169 398h130l114 -288l245 288h147l-352 -399zM559.5 786.5q-25.5 -25.5 -57.5 -25.5q-17 0 -33.5 8t-36.5 22q-18 12 -29 17.5t-22 5.5q-15 0 -31 -13t-37 -37l-64 53q22 35 57 65.5t74 30.5q18 0 33.5 -7t38.5 -21q18 -11 28 -15.5t20 -4.5
q14 0 25.5 11t26.5 31l62 -49q-29 -46 -54.5 -71.5z" />
    <glyph glyph-name="uni1EF9" unicode="&#x1ef9;" horiz-adv-x="601" 
d="M480 -9q-18 -76 -60 -126.5t-97 -74.5t-112 -24t-107.5 23t-84 66.5t-42.5 100.5l101 37q10 -59 47 -92t89 -33q60 0 102.5 35.5t59.5 106.5l17 72q-29 -40 -72.5 -58.5t-89.5 -18.5q-67 0 -113 41.5t-46 117.5q0 30 7 61l65 279h110l-60 -262q-6 -27 -6 -48
q0 -40 21 -61t58 -21q55 0 102.5 40t63.5 110l57 242h109zM513.5 625.5q-25.5 -25.5 -57.5 -25.5q-17 0 -33.5 8t-36.5 22q-18 12 -29 17.5t-22 5.5q-15 0 -31 -13t-37 -37l-64 53q22 35 57 65.5t74 30.5q18 0 33.5 -7t38.5 -21q18 -11 28 -15.5t20 -4.5q14 0 25.5 11
t26.5 31l62 -49q-29 -46 -54.5 -71.5z" />
    <glyph glyph-name="endash" unicode="&#x2013;" horiz-adv-x="488" 
d="M450 327l-23 -102h-378l24 102h377z" />
    <glyph glyph-name="emdash" unicode="&#x2014;" horiz-adv-x="680" 
d="M642 327l-24 -102h-569l24 102h569z" />
    <glyph glyph-name="quoteleft" unicode="&#x2018;" horiz-adv-x="262" 
d="M178 392l-110 66l180 260l81 -44z" />
    <glyph glyph-name="quoteright" unicode="&#x2019;" horiz-adv-x="261" 
d="M229 744l110 -66l-180 -260l-81 44z" />
    <glyph glyph-name="quotesinglbase" unicode="&#x201a;" horiz-adv-x="261" 
d="M90 139l110 -66l-180 -260l-81 44z" />
    <glyph glyph-name="quotedblleft" unicode="&#x201c;" horiz-adv-x="487" 
d="M178 392l-110 66l180 260l81 -44zM403 392l-110 66l180 260l81 -44z" />
    <glyph glyph-name="quotedblright" unicode="&#x201d;" horiz-adv-x="487" 
d="M229 744l110 -66l-180 -260l-81 44zM455 744l110 -66l-180 -260l-81 44z" />
    <glyph glyph-name="quotedblbase" unicode="&#x201e;" horiz-adv-x="486" 
d="M90 139l110 -66l-180 -260l-81 44zM315 139l110 -66l-180 -260l-81 44z" />
    <glyph glyph-name="dagger" unicode="&#x2020;" horiz-adv-x="452" 
d="M344 525h135l-23 -103h-136l-97 -422h-111l98 422h-135l23 103h135l41 175h110z" />
    <glyph glyph-name="daggerdbl" unicode="&#x2021;" horiz-adv-x="452" 
d="M210 422h-135l23 103h135l41 175h110l-40 -175h135l-23 -103h-136l-33 -144h136l-24 -102h-135l-40 -176h-111l40 176h-135l24 102h135z" />
    <glyph glyph-name="bullet" unicode="&#x2022;" horiz-adv-x="230" 
d="M174 216q-23 -23 -54 -23q-33 0 -56 23t-23 55t23 54.5t56 22.5q32 0 54.5 -22.5t22.5 -54.5t-23 -55z" />
    <glyph glyph-name="ellipsis" unicode="&#x2026;" horiz-adv-x="845" 
d="M44 123.5q22 22.5 55 22.5q34 0 56.5 -22.5t22.5 -56.5q0 -33 -22.5 -55.5t-56.5 -22.5q-33 0 -55 22.5t-22 55.5q0 34 22 56.5zM604 123.5q22 22.5 55 22.5q34 0 56.5 -22.5t22.5 -56.5q0 -33 -22.5 -55.5t-56.5 -22.5q-33 0 -55 22.5t-22 55.5q0 34 22 56.5zM324 123.5
q22 22.5 55 22.5q34 0 56.5 -22.5t22.5 -56.5q0 -33 -22.5 -55.5t-56.5 -22.5q-33 0 -55 22.5t-22 55.5q0 34 22 56.5z" />
    <glyph glyph-name="perthousand" unicode="&#x2030;" horiz-adv-x="1537" 
d="M284 46l556 670l60 -45l-557 -671zM159.5 625q24.5 43 66.5 68t93 25t94 -25t68 -68t25 -94t-25 -93t-68 -66.5t-94 -24.5t-93 24.5t-66.5 66.5t-24.5 93t24.5 94zM260 469.5q24 -23.5 60 -23.5q35 0 58 23.5t23 60.5t-23 61t-58 24q-36 0 -60 -24t-24 -61t24 -60.5z
M695.5 262q24.5 43 66.5 68t93 25t94 -25t68 -68t25 -94t-25 -93t-68 -66.5t-94 -24.5t-93 24.5t-66.5 66.5t-24.5 93t24.5 94zM796 106.5q24 -23.5 60 -23.5q35 0 58 23.5t23 60.5t-23 61t-58 24q-36 0 -60 -24t-24 -61t24 -60.5zM1121.5 262q24.5 43 66.5 68t93 25t94 -25
t68 -68t25 -94t-25 -93t-68 -66.5t-94 -24.5t-93 24.5t-66.5 66.5t-24.5 93t24.5 94zM1222 106.5q24 -23.5 60 -23.5q35 0 58 23.5t23 60.5t-23 61t-58 24q-36 0 -60 -24t-24 -61t24 -60.5z" />
    <glyph glyph-name="guilsinglleft" unicode="&#x2039;" horiz-adv-x="333" 
d="M242 116l-91 -64l-140 226l244 225l73 -76l-176 -164z" />
    <glyph glyph-name="guilsinglright" unicode="&#x203a;" horiz-adv-x="353" 
d="M98 439l91 64l140 -226l-244 -225l-73 76l176 164z" />
    <glyph glyph-name="fraction" unicode="&#x2044;" horiz-adv-x="661" 
d="M32 46l556 670l60 -45l-557 -671z" />
    <glyph glyph-name="franc" unicode="&#x20a3;" horiz-adv-x="548" 
d="M295 595l-45 -193h237l-24 -105h-237l-23 -98h100l-16 -71h-100l-30 -128h-115l30 128h-100l16 71h100l116 501h412l-24 -105h-297z" />
    <glyph glyph-name="dong" unicode="&#x20ab;" horiz-adv-x="527" 
d="M627 599h-81l-104 -452h-94l9 38q-48 -47 -127 -47q-78 0 -123.5 49.5t-45.5 130.5q0 61 28 115t81 87.5t124 33.5q101 0 134 -55l23 100h-139l17 70h138l11 47h95l-11 -47h82zM331.5 247q32.5 21 49.5 55t17 70q0 45 -25.5 70.5t-74.5 25.5q-45 0 -77 -21.5t-48.5 -55.5
t-16.5 -70q0 -45 25 -70t74 -25q44 0 76.5 21zM-6 81h432l-18 -81h-432z" />
    <glyph glyph-name="Euro" unicode="&#x20ac;" horiz-adv-x="827" 
d="M590.5 135.5q66.5 41.5 111.5 121.5l90 -54q-66 -109 -161 -164t-193 -55q-84 0 -146.5 34.5t-99.5 93.5t-48 132h-130l16 69h109q1 39 9 80h-100l16 69h104q44 112 142.5 183t242.5 71q82 0 149 -30.5t116 -89.5l-83 -77q-31 42 -83 65t-112 23q-88 0 -152 -40t-98 -105
h338l-16 -69h-349q-9 -37 -9 -75v-5h346l-16 -69h-321q18 -67 67 -108.5t122 -41.5q72 0 138.5 41.5z" />
    <glyph glyph-name="uni20AD" unicode="&#x20ad;" horiz-adv-x="646" 
d="M378 386h308l-17 -71h-316l233 -315h-149l-221 303l-70 -303h-115l73 315h-69l17 71h68l73 314h115l-69 -297l353 297h167z" />
    <glyph glyph-name="uni2116" unicode="&#x2116;" horiz-adv-x="1174" 
d="M608 0h-115l-232 519l-119 -519h-115l161 700h115l234 -510l117 510h115zM841.5 625q24.5 43 66.5 68t93 25t94 -25t68 -68t25 -94t-25 -93t-68 -66.5t-94 -24.5t-93 24.5t-66.5 66.5t-24.5 93t24.5 94zM942 469.5q24 -23.5 60 -23.5q35 0 58 23.5t23 60.5t-23 61t-58 24
q-36 0 -60 -24t-24 -61t24 -60.5z" />
    <glyph glyph-name="trademark" unicode="&#x2122;" horiz-adv-x="868" 
d="M256 635h-108v65h285v-65h-107v-289h-70v289zM489 700h77l100 -188l99 188h80v-354h-68v217l-83 -141h-54l-83 141v-217h-68v354z" />
    <glyph glyph-name="uni2153" unicode="&#x2153;" horiz-adv-x="970" 
d="M174 46l556 670l60 -45l-557 -671zM222 616h-53l19 83h145l-98 -424h-92zM865 135q0 -38 -23 -71t-62 -52t-84 -19q-51 0 -89 26t-51 69l81 42q1 -25 19 -40.5t46 -15.5q29 0 49.5 16.5t20.5 40.5q0 26 -27 39t-79 12l19 79l17 -1q44 0 70.5 17t26.5 45q0 17 -10.5 27
t-28.5 10q-21 0 -42.5 -14t-34.5 -36l-65 45q22 40 64 63t91 23q54 0 88 -27t34 -71q0 -38 -23.5 -70.5t-62.5 -48.5q56 -27 56 -88z" />
    <glyph glyph-name="uni2154" unicode="&#x2154;" horiz-adv-x="1035" 
d="M930 135q0 -38 -23 -71t-62 -52t-84 -19q-51 0 -89 26t-51 69l81 42q1 -25 19 -40.5t46 -15.5q29 0 49.5 16.5t20.5 40.5q0 26 -27 39t-79 12l19 79l17 -1q44 0 70.5 17t26.5 45q0 17 -10.5 27t-28.5 10q-21 0 -42.5 -14t-34.5 -36l-65 45q22 40 64 63t91 23q54 0 88 -27
t34 -71q0 -38 -23.5 -70.5t-62.5 -48.5q56 -27 56 -88zM246 46l556 670l60 -45l-557 -671zM390 276h-295l17 73l181 149q34 28 49.5 49.5t15.5 42.5q0 18 -12.5 31t-31.5 13q-23 0 -44 -16t-31 -42l-72 33q19 48 64 77.5t99 29.5q56 0 92.5 -32t36.5 -81q0 -48 -31.5 -88.5
t-82.5 -79.5l-99 -78h164z" />
    <glyph glyph-name="uni2155" unicode="&#x2155;" horiz-adv-x="1001" 
d="M155 46l556 670l60 -45l-557 -671zM222 616h-53l19 83h145l-98 -424h-92zM717 267q27 18 60 18q55 0 89 -35t34 -93q0 -46 -22.5 -83.5t-61.5 -59t-87 -21.5q-52 0 -92 27t-55 72l79 42q3 -26 24 -42.5t51 -16.5q32 0 51.5 20t19.5 52q0 26 -14.5 40.5t-40.5 14.5
q-38 0 -71 -33h-66l59 255h249l-19 -83h-170z" />
    <glyph glyph-name="uni2156" unicode="&#x2156;" horiz-adv-x="1123" 
d="M277 46l556 670l60 -45l-557 -671zM839 267q27 18 60 18q55 0 89 -35t34 -93q0 -46 -22.5 -83.5t-61.5 -59t-87 -21.5q-52 0 -92 27t-55 72l79 42q3 -26 24 -42.5t51 -16.5q32 0 51.5 20t19.5 52q0 26 -14.5 40.5t-40.5 14.5q-38 0 -71 -33h-66l59 255h249l-19 -83h-170z
M390 276h-295l17 73l181 149q34 28 49.5 49.5t15.5 42.5q0 18 -12.5 31t-31.5 13q-23 0 -44 -16t-31 -42l-72 33q19 48 64 77.5t99 29.5q56 0 92.5 -32t36.5 -81q0 -48 -31.5 -88.5t-82.5 -79.5l-99 -78h164z" />
    <glyph glyph-name="uni2157" unicode="&#x2157;" horiz-adv-x="1081" 
d="M246 46l556 670l60 -45l-557 -671zM797 267q27 18 60 18q55 0 89 -35t34 -93q0 -46 -22.5 -83.5t-61.5 -59t-87 -21.5q-52 0 -92 27t-55 72l79 42q3 -26 24 -42.5t51 -16.5q32 0 51.5 20t19.5 52q0 26 -14.5 40.5t-40.5 14.5q-38 0 -71 -33h-66l59 255h249l-19 -83h-170z
M420 411q0 -38 -23 -71t-62 -52t-84 -19q-51 0 -89 26t-51 69l81 42q1 -25 19 -40.5t46 -15.5q29 0 49.5 16.5t20.5 40.5q0 26 -27 39t-79 12l19 79l17 -1q44 0 70.5 17t26.5 45q0 17 -10.5 27t-28.5 10q-21 0 -42.5 -14t-34.5 -36l-65 45q22 40 64 63t91 23q54 0 88 -27
t34 -71q0 -38 -23.5 -70.5t-62.5 -48.5q56 -27 56 -88z" />
    <glyph glyph-name="uni2158" unicode="&#x2158;" horiz-adv-x="1172" 
d="M317 46l556 670l60 -45l-557 -671zM888 267q27 18 60 18q55 0 89 -35t34 -93q0 -46 -22.5 -83.5t-61.5 -59t-87 -21.5q-52 0 -92 27t-55 72l79 42q3 -26 24 -42.5t51 -16.5q32 0 51.5 20t19.5 52q0 26 -14.5 40.5t-40.5 14.5q-38 0 -71 -33h-66l59 255h249l-19 -83h-170z
M447 371h-61l-21 -95h-93l22 95h-182l18 78l236 251h96l-57 -248h61zM234 452h79l26 111z" />
    <glyph glyph-name="uni2159" unicode="&#x2159;" horiz-adv-x="972" 
d="M166 46l556 670l60 -45l-557 -671zM222 616h-53l19 83h145l-98 -424h-92zM834 257.5q38 -38.5 38 -96.5q0 -41 -20 -80t-58.5 -63.5t-90.5 -24.5q-72 0 -113.5 48t-41.5 129q0 71 32 132.5t94.5 99.5t149.5 38q13 0 24 -2l-7 -85q-12 2 -27 2q-108 0 -153 -83
q33 24 77 24q58 0 96 -38.5zM761 95q21 22 21 56q0 31 -18 48.5t-48 17.5q-33 0 -54.5 -21.5t-21.5 -55.5q0 -30 18 -48.5t48 -18.5q34 0 55 22z" />
    <glyph glyph-name="uni215A" unicode="&#x215a;" horiz-adv-x="1069" 
d="M263 46l556 670l60 -45l-557 -671zM931 257.5q38 -38.5 38 -96.5q0 -41 -20 -80t-58.5 -63.5t-90.5 -24.5q-72 0 -113.5 48t-41.5 129q0 71 32 132.5t94.5 99.5t149.5 38q13 0 24 -2l-7 -85q-12 2 -27 2q-108 0 -153 -83q33 24 77 24q58 0 96 -38.5zM858 95q21 22 21 56
q0 31 -18 48.5t-48 17.5q-33 0 -54.5 -21.5t-21.5 -55.5q0 -30 18 -48.5t48 -18.5q34 0 55 22zM247 543q27 18 60 18q55 0 89 -35t34 -93q0 -46 -22.5 -83.5t-61.5 -59t-87 -21.5q-52 0 -92 27t-55 72l79 42q3 -26 24 -42.5t51 -16.5q32 0 51.5 20t19.5 52q0 26 -14.5 40.5
t-40.5 14.5q-38 0 -71 -33h-66l59 255h249l-19 -83h-170z" />
    <glyph glyph-name="oneeighth" unicode="&#x215b;" horiz-adv-x="965" 
d="M156 46l556 670l60 -45l-557 -671zM222 616h-53l19 83h145l-98 -424h-92zM860 138q0 -44 -26 -77t-66.5 -50.5t-82.5 -17.5q-62 0 -100 32t-38 85q0 40 24.5 74t65.5 51q-19 14 -29 35.5t-10 46.5q0 54 43 88.5t108 34.5q59 0 96 -29t37 -76q0 -39 -22.5 -65.5
t-52.5 -39.5q53 -32 53 -92zM776 291q14 16 14 34q0 16 -12.5 26t-31.5 10q-24 0 -41 -15t-17 -35t13.5 -29.5t37.5 -14.5q23 8 37 24zM747.5 88q19.5 16 19.5 41q0 41 -70 63q-24 -7 -42 -28t-18 -43q0 -23 15.5 -36t43.5 -13q32 0 51.5 16z" />
    <glyph glyph-name="threeeighths" unicode="&#x215c;" horiz-adv-x="1014" 
d="M215 46l556 670l60 -45l-557 -671zM909 138q0 -44 -26 -77t-66.5 -50.5t-82.5 -17.5q-62 0 -100 32t-38 85q0 40 24.5 74t65.5 51q-19 14 -29 35.5t-10 46.5q0 54 43 88.5t108 34.5q59 0 96 -29t37 -76q0 -39 -22.5 -65.5t-52.5 -39.5q53 -32 53 -92zM825 291
q14 16 14 34q0 16 -12.5 26t-31.5 10q-24 0 -41 -15t-17 -35t13.5 -29.5t37.5 -14.5q23 8 37 24zM796.5 88q19.5 16 19.5 41q0 41 -70 63q-24 -7 -42 -28t-18 -43q0 -23 15.5 -36t43.5 -13q32 0 51.5 16zM420 411q0 -38 -23 -71t-62 -52t-84 -19q-51 0 -89 26t-51 69l81 42
q1 -25 19 -40.5t46 -15.5q29 0 49.5 16.5t20.5 40.5q0 26 -27 39t-79 12l19 79l17 -1q44 0 70.5 17t26.5 45q0 17 -10.5 27t-28.5 10q-21 0 -42.5 -14t-34.5 -36l-65 45q22 40 64 63t91 23q54 0 88 -27t34 -71q0 -38 -23.5 -70.5t-62.5 -48.5q56 -27 56 -88z" />
    <glyph glyph-name="fiveeighths" unicode="&#x215d;" horiz-adv-x="1071" 
d="M966 138q0 -44 -26 -77t-66.5 -50.5t-82.5 -17.5q-62 0 -100 32t-38 85q0 40 24.5 74t65.5 51q-19 14 -29 35.5t-10 46.5q0 54 43 88.5t108 34.5q59 0 96 -29t37 -76q0 -39 -22.5 -65.5t-52.5 -39.5q53 -32 53 -92zM882 291q14 16 14 34q0 16 -12.5 26t-31.5 10
q-24 0 -41 -15t-17 -35t13.5 -29.5t37.5 -14.5q23 8 37 24zM853.5 88q19.5 16 19.5 41q0 41 -70 63q-24 -7 -42 -28t-18 -43q0 -23 15.5 -36t43.5 -13q32 0 51.5 16zM283 46l556 670l60 -45l-557 -671zM247 543q27 18 60 18q55 0 89 -35t34 -93q0 -46 -22.5 -83.5t-61.5 -59
t-87 -21.5q-52 0 -92 27t-55 72l79 42q3 -26 24 -42.5t51 -16.5q32 0 51.5 20t19.5 52q0 26 -14.5 40.5t-40.5 14.5q-38 0 -71 -33h-66l59 255h249l-19 -83h-170z" />
    <glyph glyph-name="seveneighths" unicode="&#x215e;" horiz-adv-x="1019" 
d="M201 46l556 670l60 -45l-557 -671zM914 138q0 -44 -26 -77t-66.5 -50.5t-82.5 -17.5q-62 0 -100 32t-38 85q0 40 24.5 74t65.5 51q-19 14 -29 35.5t-10 46.5q0 54 43 88.5t108 34.5q59 0 96 -29t37 -76q0 -39 -22.5 -65.5t-52.5 -39.5q53 -32 53 -92zM830 291
q14 16 14 34q0 16 -12.5 26t-31.5 10q-24 0 -41 -15t-17 -35t13.5 -29.5t37.5 -14.5q23 8 37 24zM801.5 88q19.5 16 19.5 41q0 41 -70 63q-24 -7 -42 -28t-18 -43q0 -23 15.5 -36t43.5 -13q32 0 51.5 16zM480 615l-250 -339h-102l256 335h-216l20 89h311z" />
    <glyph glyph-name="minus" unicode="&#x2212;" horiz-adv-x="457" 
d="M63 326h366l-23 -101h-367z" />
    <glyph glyph-name="infinity" unicode="&#x221e;" horiz-adv-x="867" 
d="M747 493.5q42 -23.5 67.5 -68.5t25.5 -107q0 -75 -36.5 -134t-94 -91.5t-118.5 -32.5q-55 0 -99.5 27.5t-72.5 82.5q-39 -55 -88.5 -82.5t-102.5 -27.5q-50 0 -92 23.5t-67 68.5t-25 107q0 75 36.5 134t94 91.5t118.5 32.5q54 0 99 -27.5t72 -83.5q39 56 89 83.5
t103 27.5q49 0 91 -23.5zM338.5 206.5q43.5 34.5 59.5 93.5q-9 51 -40 80.5t-73 29.5q-31 0 -60 -16.5t-47.5 -48.5t-18.5 -74q0 -49 25 -74t64 -25q47 0 90.5 34.5zM658.5 183.5q29.5 16.5 48 48t18.5 73.5q0 50 -25.5 74.5t-64.5 24.5q-47 0 -90 -34t-59 -93
q8 -51 39 -80.5t73 -29.5q31 0 60.5 16.5z" />
    <glyph glyph-name="uniA729" unicode="&#xa729;" horiz-adv-x="795" 
d="M555 193q78 -18 117.5 -70t39.5 -120q0 -60 -33.5 -114.5t-94 -88.5t-138.5 -34q-70 0 -134 29.5t-107 92.5l89 67q23 -44 65 -65.5t87 -21.5q38 0 73 15t56 42.5t21 63.5q0 56 -47 84.5t-136 28.5l23 105l231 195h-381l-92 -402h-111l93 402h-121l24 102h120l30 129h110
l-29 -129h519l-23 -105z" />
    <glyph glyph-name="fl" unicode="&#xfb02;" horiz-adv-x="727" 
d="M650 95l22 -83q-45 -21 -93 -21q-59 0 -98 32t-39 94q0 19 7 52l54 233h-239l-93 -402h-110l92 402h-98l24 102h98l18 75q17 72 68.5 105.5t116.5 33.5q74 0 125 -43l-61 -77q-27 23 -61 23q-30 0 -53.5 -19.5t-32.5 -55.5l-10 -42h239l45 196h111l-124 -536
q-4 -15 -4 -28q0 -26 15 -38t40 -12q20 0 41 9z" />
    <glyph glyph-name="null" horiz-adv-x="32" 
 />
    <glyph glyph-name="i.loclTRK" horiz-adv-x="274" 
d="M142 504h110l-117 -504h-110zM281 614q-21 -21 -52 -21t-52 21t-21 51t21 51t52 21t52 -21t21 -51t-21 -51z" />
    <glyph glyph-name="f_f_l" horiz-adv-x="1078" 
d="M1001 95l22 -83q-45 -21 -93 -21q-59 0 -98 32t-39 94q0 19 7 52l54 233h-239l-93 -402h-110l92 402h-240l-93 -402h-110l92 402h-98l24 102h98l18 75q17 72 68.5 105.5t116.5 33.5q74 0 125 -43l-61 -77q-27 23 -61 23q-30 0 -53.5 -19.5t-32.5 -55.5l-10 -42h241l18 75
q17 72 68.5 105.5t116.5 33.5q74 0 125 -43l-61 -77q-27 23 -61 23q-30 0 -53.5 -19.5t-32.5 -55.5l-10 -42h239l45 196h111l-124 -536q-4 -15 -4 -28q0 -26 15 -38t40 -12q20 0 41 9z" />
    <glyph glyph-name="zero.dnom" horiz-adv-x="360" 
d="M34.5 38q-36.5 45 -36.5 128q0 62 24 125.5t71.5 106t113.5 42.5q65 0 102 -43.5t37 -122.5q0 -64 -24 -129.5t-71.5 -108.5t-113.5 -43t-102.5 45zM206 106q24 32 36 78t12 88q0 86 -58 86q-34 0 -58 -31t-36 -75.5t-12 -83.5q0 -94 58 -94q34 0 58 32z" />
    <glyph glyph-name="one.dnom" horiz-adv-x="360" 
d="M182 341h-53l19 83h145l-98 -424h-92z" />
    <glyph glyph-name="two.dnom" horiz-adv-x="360" 
d="M270 0h-295l17 73l181 149q34 28 49.5 49.5t15.5 42.5q0 18 -12.5 31t-31.5 13q-23 0 -44 -16t-31 -42l-72 33q19 48 64 77.5t99 29.5q56 0 92.5 -32t36.5 -81q0 -48 -31.5 -88.5t-82.5 -79.5l-99 -78h164z" />
    <glyph glyph-name="three.dnom" horiz-adv-x="360" 
d="M299 135q0 -38 -23 -71t-62 -52t-84 -19q-51 0 -89 26t-51 69l81 42q1 -25 19 -40.5t46 -15.5q29 0 49.5 16.5t20.5 40.5q0 26 -27 39t-79 12l19 79l17 -1q44 0 70.5 17t26.5 45q0 17 -10.5 27t-28.5 10q-21 0 -42.5 -14t-34.5 -36l-65 45q22 40 64 63t91 23q54 0 88 -27
t34 -71q0 -38 -23.5 -70.5t-62.5 -48.5q56 -27 56 -88z" />
    <glyph glyph-name="four.dnom" horiz-adv-x="360" 
d="M308 95h-61l-21 -95h-93l22 95h-182l18 78l236 251h96l-57 -248h61zM95 176h79l26 111z" />
    <glyph glyph-name="five.dnom" horiz-adv-x="360" 
d="M123 267q27 18 60 18q55 0 89 -35t34 -93q0 -46 -22.5 -83.5t-61.5 -59t-87 -21.5q-52 0 -92 27t-55 72l79 42q3 -26 24 -42.5t51 -16.5q32 0 51.5 20t19.5 52q0 26 -14.5 40.5t-40.5 14.5q-38 0 -71 -33h-66l59 255h249l-19 -83h-170z" />
    <glyph glyph-name="six.dnom" horiz-adv-x="360" 
d="M284 257.5q38 -38.5 38 -96.5q0 -41 -20 -80t-58.5 -63.5t-90.5 -24.5q-72 0 -113.5 48t-41.5 129q0 71 32 132.5t94.5 99.5t149.5 38q13 0 24 -2l-7 -85q-12 2 -27 2q-108 0 -153 -83q33 24 77 24q58 0 96 -38.5zM211 95q21 22 21 56q0 31 -18 48.5t-48 17.5
q-33 0 -54.5 -21.5t-21.5 -55.5q0 -30 18 -48.5t48 -18.5q34 0 55 22z" />
    <glyph glyph-name="seven.dnom" horiz-adv-x="360" 
d="M355 339l-250 -339h-102l256 335h-216l20 89h311z" />
    <glyph glyph-name="eight.dnom" horiz-adv-x="360" 
d="M307 138q0 -44 -26 -77t-66.5 -50.5t-82.5 -17.5q-62 0 -100 32t-38 85q0 40 24.5 74t65.5 51q-19 14 -29 35.5t-10 46.5q0 54 43 88.5t108 34.5q59 0 96 -29t37 -76q0 -39 -22.5 -65.5t-52.5 -39.5q53 -32 53 -92zM223 291q14 16 14 34q0 16 -12.5 26t-31.5 10
q-24 0 -41 -15t-17 -35t13.5 -29.5t37.5 -14.5q23 8 37 24zM194.5 88q19.5 16 19.5 41q0 41 -70 63q-24 -7 -42 -28t-18 -43q0 -23 15.5 -36t43.5 -13q32 0 51.5 16z" />
    <glyph glyph-name="nine.dnom" horiz-adv-x="360" 
d="M53 175.5q-38 38.5 -38 96.5q0 41 20 80t58.5 63.5t90.5 24.5q72 0 113.5 -48t41.5 -129q0 -71 -32 -132.5t-94.5 -99.5t-149.5 -38q-13 0 -24 2l7 85q12 -2 27 -2q108 0 153 83q-33 -24 -77 -24q-58 0 -96 38.5zM126 338q-21 -22 -21 -56q0 -31 18 -48.5t48 -17.5
q33 0 54.5 21.5t21.5 55.5q0 30 -18 48.5t-48 18.5q-34 0 -55 -22z" />
    <glyph glyph-name="zero.numr" horiz-adv-x="360" 
d="M98.5 314q-36.5 45 -36.5 128q0 62 24 125.5t71.5 106t113.5 42.5q65 0 102 -43.5t37 -122.5q0 -64 -24 -129.5t-71.5 -108.5t-113.5 -43t-102.5 45zM270 382q24 32 36 78t12 88q0 86 -58 86q-34 0 -58 -31t-36 -75.5t-12 -83.5q0 -94 58 -94q34 0 58 32z" />
    <glyph glyph-name="one.numr" horiz-adv-x="360" 
d="M246 617h-53l19 83h145l-98 -424h-92z" />
    <glyph glyph-name="two.numr" horiz-adv-x="360" 
d="M334 276h-295l17 73l181 149q34 28 49.5 49.5t15.5 42.5q0 18 -12.5 31t-31.5 13q-23 0 -44 -16t-31 -42l-72 33q19 48 64 77.5t99 29.5q56 0 92.5 -32t36.5 -81q0 -48 -31.5 -88.5t-82.5 -79.5l-99 -78h164z" />
    <glyph glyph-name="three.numr" horiz-adv-x="360" 
d="M363 411q0 -38 -23 -71t-62 -52t-84 -19q-51 0 -89 26t-51 69l81 42q1 -25 19 -40.5t46 -15.5q29 0 49.5 16.5t20.5 40.5q0 26 -27 39t-79 12l19 79l17 -1q44 0 70.5 17t26.5 45q0 17 -10.5 27t-28.5 10q-21 0 -42.5 -14t-34.5 -36l-65 45q22 40 64 63t91 23q54 0 88 -27
t34 -71q0 -38 -23.5 -70.5t-62.5 -48.5q56 -27 56 -88z" />
    <glyph glyph-name="four.numr" horiz-adv-x="360" 
d="M372 371h-61l-21 -95h-93l22 95h-182l18 78l236 251h96l-57 -248h61zM159 452h79l26 111z" />
    <glyph glyph-name="five.numr" horiz-adv-x="360" 
d="M187 543q27 18 60 18q55 0 89 -35t34 -93q0 -46 -22.5 -83.5t-61.5 -59t-87 -21.5q-52 0 -92 27t-55 72l79 42q3 -26 24 -42.5t51 -16.5q32 0 51.5 20t19.5 52q0 26 -14.5 40.5t-40.5 14.5q-38 0 -71 -33h-66l59 255h249l-19 -83h-170z" />
    <glyph glyph-name="six.numr" horiz-adv-x="360" 
d="M348 533.5q38 -38.5 38 -96.5q0 -41 -20 -80t-58.5 -63.5t-90.5 -24.5q-72 0 -113.5 48t-41.5 129q0 71 32 132.5t94.5 99.5t149.5 38q13 0 24 -2l-7 -85q-12 2 -27 2q-108 0 -153 -83q33 24 77 24q58 0 96 -38.5zM275 371q21 22 21 56q0 31 -18 48.5t-48 17.5
q-33 0 -54.5 -21.5t-21.5 -55.5q0 -30 18 -48.5t48 -18.5q34 0 55 22z" />
    <glyph glyph-name="seven.numr" horiz-adv-x="360" 
d="M419 615l-250 -339h-102l256 335h-216l20 89h311z" />
    <glyph glyph-name="eight.numr" horiz-adv-x="360" 
d="M371 414q0 -44 -26 -77t-66.5 -50.5t-82.5 -17.5q-62 0 -100 32t-38 85q0 40 24.5 74t65.5 51q-19 14 -29 35.5t-10 46.5q0 54 43 88.5t108 34.5q59 0 96 -29t37 -76q0 -39 -22.5 -65.5t-52.5 -39.5q53 -32 53 -92zM287 567q14 16 14 34q0 16 -12.5 26t-31.5 10
q-24 0 -41 -15t-17 -35t13.5 -29.5t37.5 -14.5q23 8 37 24zM258.5 364q19.5 16 19.5 41q0 41 -70 63q-24 -7 -42 -28t-18 -43q0 -23 15.5 -36t43.5 -13q32 0 51.5 16z" />
    <glyph glyph-name="nine.numr" horiz-adv-x="360" 
d="M117 451.5q-38 38.5 -38 96.5q0 41 20 80t58.5 63.5t90.5 24.5q72 0 113.5 -48t41.5 -129q0 -71 -32 -132.5t-94.5 -99.5t-149.5 -38q-13 0 -24 2l7 85q12 -2 27 -2q108 0 153 83q-33 -24 -77 -24q-58 0 -96 38.5zM190 614q-21 -22 -21 -56q0 -31 18 -48.5t48 -17.5
q33 0 54.5 21.5t21.5 55.5q0 30 -18 48.5t-48 18.5q-34 0 -55 -22z" />
    <glyph glyph-name="acute.001" horiz-adv-x="154" 
d="M161 948l107 141l67 -51l-107 -140z" />
    <glyph glyph-name="caron.001" horiz-adv-x="243" 
d="M230 1051l58 -45l79 46l44 -73l-138 -81l-104 86z" />
    <glyph glyph-name="circumflex.001" horiz-adv-x="243" 
d="M347 899l-58 45l-79 -46l-44 73l138 81l104 -86z" />
    <glyph glyph-name="grave.001" horiz-adv-x="195" 
d="M181 1038l67 51l108 -141l-67 -50z" />
    <glyph glyph-name="tilde.001" horiz-adv-x="286" 
d="M339.5 953.5q-13.5 5.5 -30.5 15.5q-9 5 -18.5 9.5t-16.5 4.5q-12 0 -21.5 -9t-28.5 -32l-54 45q23 33 46 53.5t56 20.5q14 0 27.5 -4.5t24 -10t13.5 -6.5q24 -13 33 -13q11 0 22 12.5t18 26.5l57 -32q-22 -38 -45 -62t-54 -24q-15 0 -28.5 5.5z" />
    <glyph glyph-name="acute.cap" horiz-adv-x="284" 
d="M392 933l27 -97l-250 -76l-30 96z" />
    <glyph glyph-name="breve.cap" horiz-adv-x="295" 
d="M441 906q0 -63 -35.5 -106t-109.5 -43t-109.5 43t-35.5 106h83q0 -68 60 -68q64 0 64 68h83z" />
    <glyph glyph-name="caron.cap" horiz-adv-x="358" 
d="M205 944l107 -83l145 83l44 -73l-204 -118l-153 124z" />
    <glyph glyph-name="cedilla.cap" horiz-adv-x="261" 
d="M134.5 -89.5q29.5 -29.5 29.5 -67.5q0 -28 -16 -53t-46 -40.5t-70 -15.5q-38 0 -75 16t-63 45l48 51q20 -22 43 -33.5t45 -11.5q26 0 44.5 12.5t18.5 35.5q0 31 -33 45t-80 19l36 115h60l-27 -79q56 -9 85.5 -38.5z" />
    <glyph glyph-name="circumflex.cap" horiz-adv-x="360" 
d="M419 750l-92 81l-137 -81l-58 72l209 122l149 -129z" />
    <glyph glyph-name="dieresis.cap" horiz-adv-x="380" 
d="M260 782q-21 -21 -51 -21q-31 0 -52 21t-21 51t21 51t52 21q30 0 51 -21t21 -51t-21 -51zM490.5 782q-21.5 -21 -52.5 -21q-30 0 -51 21t-21 51t21 51t51 21q31 0 52.5 -21t21.5 -51t-21.5 -51z" />
    <glyph glyph-name="dotaccent.cap" horiz-adv-x="148" 
d="M156.5 883q20.5 21 50.5 21q31 0 52 -21t21 -52q0 -30 -21 -50.5t-52 -20.5q-30 0 -50.5 20.5t-20.5 50.5q0 31 20.5 52z" />
    <glyph glyph-name="grave.cap" horiz-adv-x="276" 
d="M385 759l-250 76l27 97l253 -77z" />
    <glyph glyph-name="hungarumlaut.cap" horiz-adv-x="295" 
d="M202 769h-83l55 131h108zM344 769h-85l78 131h108z" />
    <glyph glyph-name="macron.cap" horiz-adv-x="297" 
d="M439 869l-26 -109h-296l25 109h297z" />
    <glyph glyph-name="ogonek.cap" horiz-adv-x="161" 
d="M15.5 -121q18.5 -11 53.5 -10l-17 -74q-65 3 -100.5 25.5t-35.5 59.5q0 35 28.5 69t81.5 58h78q-46 -13 -76.5 -41t-30.5 -56q0 -20 18.5 -31z" />
    <glyph glyph-name="ring.cap" horiz-adv-x="227" 
d="M170 918q31 32 78 32q46 0 79 -32.5t33 -77.5q0 -47 -32.5 -78.5t-79.5 -31.5t-78 31.5t-31 78.5q0 46 31 78zM213 802.5q13 -14.5 35 -14.5t35.5 14.5t13.5 36.5t-13.5 36.5t-35.5 14.5t-35 -14.5t-13 -36.5t13 -36.5z" />
    <glyph glyph-name="tilde.cap" horiz-adv-x="355" 
d="M440.5 786.5q-25.5 -25.5 -57.5 -25.5q-17 0 -33.5 8t-36.5 22q-18 12 -29 17.5t-22 5.5q-15 0 -31 -13t-37 -37l-64 53q22 35 57 65.5t74 30.5q18 0 33.5 -7t38.5 -21q18 -11 28 -15.5t20 -4.5q14 0 25.5 11t26.5 31l62 -49q-29 -46 -54.5 -71.5z" />
    <glyph glyph-name="horn" horiz-adv-x="0" 
d="M195 753.5q31 34.5 40 79.5l96 -25q-6 -42 -33 -80.5t-70 -62.5t-95 -24q-9 0 -25 2v76q56 0 87 34.5z" />
    </font>
</defs>
</svg>
