<?xml version="1.0" standalone="no"?>
<!DOCTYPE svg PUBLIC "-//W3C//DTD SVG 1.1//EN" "http://www.w3.org/Graphics/SVG/1.1/DTD/svg11.dtd" >
<svg xmlns="http://www.w3.org/2000/svg" xmlns:xlink="http://www.w3.org/1999/xlink" version="1.1">
<metadata>
Created by FontForge 20170731 at Wed Jul 26 14:47:48 2017
 By Aleksey,,,
Copyright (c) 2014 by Luzi Gantenbein. All rights reserved.
</metadata>
<defs>
<font id="BuenosAiresTTF-Bold" horiz-adv-x="710" >
  <font-face 
    font-family="Buenos Aires TTF"
    font-weight="700"
    font-stretch="normal"
    units-per-em="1000"
    panose-1="0 0 8 0 0 0 0 0 0 0"
    ascent="757"
    descent="-243"
    x-height="504"
    cap-height="700"
    bbox="-421 -391 1363 1139"
    underline-thickness="50"
    underline-position="-150"
    unicode-range="U+000D-FB03"
  />
<missing-glyph horiz-adv-x="309" 
 />
    <glyph glyph-name="ff" unicode="ff" horiz-adv-x="743" 
d="M708 504v-117h-126v-387h-136v387h-200v-387h-136v387h-95v117h95v38q0 84 49.5 130t125.5 46q35 0 70 -10.5t66 -33.5l-62 -94q-30 22 -59 22q-25 0 -39.5 -17t-14.5 -48v-33h200v38q0 56 24.5 96t65.5 60t91 20q35 0 73 -11t68 -33l-63 -94q-29 22 -63 22
q-26 0 -43 -17.5t-17 -47.5v-33h126z" />
    <glyph glyph-name="fi" unicode="fi" horiz-adv-x="644" 
d="M594 0h-136v387h-212v-387h-136v387h-95v117h95v38q0 56 24.5 96t65.5 60t91 20q35 0 72.5 -11t68.5 -33l-63 -94q-29 22 -64 22q-26 0 -42.5 -17t-16.5 -48v-33h348v-504z" />
    <glyph glyph-name="ffi" unicode="ffi" horiz-adv-x="986" 
d="M936 0h-136v387h-207v-387h-136v387h-211v-387h-136v387h-95v117h95v38q0 84 49.5 130t125.5 46q35 0 70 -10.5t66 -33.5l-62 -94q-30 22 -59 22q-25 0 -39.5 -17t-14.5 -48v-33h211v38q0 56 24.5 96t65.5 60t90 20q35 0 73 -10.5t69 -33.5l-63 -94q-29 22 -64 22
q-26 0 -42.5 -17t-16.5 -48v-33h343v-504z" />
    <glyph glyph-name="f_f_t" unicode="fft" horiz-adv-x="1131" 
d="M1116 35q-34 -22 -71.5 -33.5t-74.5 -11.5q-76 0 -126.5 46t-50.5 134v217h-211v-387h-136v387h-200v-387h-136v387h-95v117h95v38q0 84 49.5 130t125.5 46q35 0 70 -10.5t66 -33.5l-62 -94q-30 22 -59 22q-25 0 -39.5 -17t-14.5 -48v-33h200v38q0 56 24.5 96t65.5 60
t91 20q35 0 72.5 -11t68.5 -33l-63 -94q-29 22 -64 22q-26 0 -42.5 -17t-16.5 -48v-33h211v129h136v-129h147v-117h-147v-215q0 -34 19 -51t50 -17q34 0 69 22z" />
    <glyph glyph-name="f_t" unicode="ft" horiz-adv-x="795" 
d="M780 35q-34 -22 -71.5 -33.5t-74.5 -11.5q-76 0 -126.5 46t-50.5 134v217h-211v-387h-136v387h-95v117h95v38q0 56 24.5 96t65.5 60t91 20q35 0 72.5 -11t68.5 -33l-63 -94q-29 22 -64 22q-26 0 -42.5 -17t-16.5 -48v-33h211v129h136v-129h147v-117h-147v-215
q0 -34 19 -51t50 -17q34 0 69 22z" />
    <glyph glyph-name="t_t" unicode="tt" horiz-adv-x="806" 
d="M791 35q-34 -22 -71.5 -33.5t-74.5 -11.5q-76 0 -126.5 46t-50.5 134v217h-212v-215q0 -35 17 -51.5t46 -16.5q31 0 64 22l49 -91q-70 -45 -140 -45q-75 0 -123.5 46t-48.5 134v217h-105v117h105v129h136v-129h212v129h136v-129h147v-117h-147v-215q0 -34 19 -51t50 -17
q34 0 69 22z" />
    <glyph glyph-name=".notdef" horiz-adv-x="309" 
 />
    <glyph glyph-name=".null" horiz-adv-x="0" 
 />
    <glyph glyph-name="nonmarkingreturn" unicode="&#xd;" horiz-adv-x="287" 
 />
    <glyph glyph-name="space" unicode=" " horiz-adv-x="270" 
 />
    <glyph glyph-name="exclam" unicode="!" horiz-adv-x="340" 
d="M110 225l-13 510h146l-13 -510h-120zM106.5 137q26.5 26 63.5 26q38 0 64 -26t26 -64q0 -37 -26.5 -63t-63.5 -26t-63.5 26t-26.5 63q0 38 26.5 64z" />
    <glyph glyph-name="quotedbl" unicode="&#x22;" horiz-adv-x="353" 
d="M144 484h-114v234h114v-234zM323 484h-116v234h116v-234z" />
    <glyph glyph-name="numbersign" unicode="#" horiz-adv-x="707" 
d="M553 432l-22 -146h124v-130h-144l-22 -139h-130l22 139h-123l-22 -139h-129l22 139h-114v130h134l23 146h-128v130h148l22 140h129l-22 -140h123l22 140h129l-22 -140h119v-130h-139zM424 432h-123l-23 -146h123z" />
    <glyph glyph-name="dollar" unicode="$" horiz-adv-x="593" 
d="M494.5 56.5q-58.5 -55.5 -146.5 -68.5v-92h-82v90q-63 5 -122.5 33.5t-103.5 76.5l85 101q33 -40 83 -62.5t98 -22.5q44 0 74 20t30 54q0 35 -31 54.5t-96 41.5t-110 45.5t-76.5 67t-31.5 110.5q0 94 58.5 146t142.5 62v94h82v-94q52 -7 98.5 -31t78.5 -61l-80 -91
q-26 31 -65.5 47.5t-73.5 16.5q-42 0 -70.5 -22t-28.5 -61q0 -30 19 -50.5t46.5 -32.5t76.5 -28q67 -22 107 -41.5t68.5 -57.5t28.5 -100q0 -89 -58.5 -144.5z" />
    <glyph glyph-name="percent" unicode="%" horiz-adv-x="967" 
d="M238 54l421 662l82 -52l-422 -664zM54.5 625q24.5 43 66.5 68t93 25t94 -25t68 -68t25 -94t-25 -93t-68 -66.5t-94 -24.5t-93 24.5t-66.5 66.5t-24.5 93t24.5 94zM160 474.5q22 -21.5 55 -21.5q32 0 52.5 21.5t20.5 55.5t-21 56t-52 22q-33 0 -55 -22t-22 -56t22 -55.5z
M590.5 262q24.5 43 66.5 68t93 25t94 -25t68 -68t25 -94t-25 -93t-68 -66.5t-94 -24.5t-93 24.5t-66.5 66.5t-24.5 93t24.5 94zM696 111.5q22 -21.5 55 -21.5q32 0 52.5 21.5t20.5 55.5t-21 56t-52 22q-33 0 -55 -22t-22 -56t22 -55.5z" />
    <glyph glyph-name="ampersand" unicode="&#x26;" horiz-adv-x="680" 
d="M560 -16l-71 76q-81 -76 -195 -76q-71 0 -124 28.5t-81.5 75.5t-28.5 100q0 59 36 110.5t106 78.5q-37 42 -56 77t-19 82q0 52 24.5 93t69 64t100.5 23q59 0 102.5 -24t66.5 -64t23 -86q0 -54 -32.5 -103t-95.5 -75l106 -112q18 37 26 86l107 -21q-7 -47 -20.5 -83
t-32.5 -71l89 -93zM275.5 581q-17.5 -19 -17.5 -48q0 -23 13 -43t45 -52q36 13 54.5 40.5t18.5 56.5q0 27 -18 46t-48 19t-47.5 -19zM364 111q29 10 52 31l-148 160q-37 -15 -55.5 -44.5t-18.5 -61.5q0 -41 29.5 -68t81.5 -27q30 0 59 10z" />
    <glyph glyph-name="quotesingle" unicode="'" horiz-adv-x="179" 
d="M149 484h-119v234h119v-234z" />
    <glyph glyph-name="parenleft" unicode="(" horiz-adv-x="334" 
d="M196.5 553.5q-45.5 -98.5 -45.5 -216.5q0 -117 45.5 -215.5t137.5 -188.5l-99 -90q-108 99 -166.5 225.5t-58.5 268.5q0 143 58.5 269t166.5 226l99 -90q-92 -90 -137.5 -188.5z" />
    <glyph glyph-name="parenright" unicode=")" horiz-adv-x="335" 
d="M100 832q108 -100 166.5 -226t58.5 -269q0 -142 -58.5 -268.5t-166.5 -225.5l-99 90q92 90 137.5 188.5t45.5 215.5q0 118 -45.5 216.5t-137.5 188.5z" />
    <glyph glyph-name="asterisk" unicode="*" horiz-adv-x="481" 
d="M330 503l66 -85l-98 -68l-57 85l-58 -85l-98 68l66 85l-101 34l35 106l101 -33l-6 108h121l-6 -108l101 33l35 -106z" />
    <glyph glyph-name="plus" unicode="+" horiz-adv-x="437" 
d="M161 209h-131v117h131v134h115v-134h131v-117h-131v-135h-115v135z" />
    <glyph glyph-name="comma" unicode="," horiz-adv-x="286" 
d="M123 151l143 -56l-132 -298l-114 47z" />
    <glyph glyph-name="hyphen" unicode="-" horiz-adv-x="427" 
d="M377 327v-117h-327v117h327z" />
    <glyph glyph-name="period" unicode="." horiz-adv-x="240" 
d="M56.5 137q26.5 26 63.5 26q38 0 64 -26t26 -64q0 -37 -26.5 -63t-63.5 -26t-63.5 26t-26.5 63q0 38 26.5 64z" />
    <glyph glyph-name="slash" unicode="/" horiz-adv-x="388" 
d="M108 -36l-118 47l290 727l118 -44z" />
    <glyph glyph-name="zero" unicode="0" horiz-adv-x="600" 
d="M147.5 33.5q-60.5 49.5 -89 132t-28.5 184.5t28.5 184.5t89 132t153.5 49.5t153 -49.5t88 -132t28 -184.5t-28 -184.5t-88 -132t-153 -49.5t-153.5 49.5zM432 350q0 246 -131 246q-70 0 -101.5 -66t-31.5 -180t31.5 -180t101.5 -66q131 0 131 246z" />
    <glyph glyph-name="one" unicode="1" horiz-adv-x="336" 
d="M120 580h-90v120h226v-700h-136v580z" />
    <glyph glyph-name="two" unicode="2" horiz-adv-x="534" 
d="M509 0h-481v109l247 242q76 76 76 147q0 44 -25.5 70.5t-67.5 26.5q-40 0 -75.5 -27t-44.5 -78l-118 35q11 61 48 104t90 65t111 22q62 0 114 -24.5t83 -71.5t31 -110q0 -125 -123 -236l-171 -155h306v-119z" />
    <glyph glyph-name="three" unicode="3" horiz-adv-x="515" 
d="M485 192q0 -64 -35 -111.5t-91.5 -72t-120.5 -24.5q-77 0 -141 37.5t-97 109.5l114 68q18 -48 54 -72.5t78 -24.5q44 0 74 24t30 67q0 105 -199 105v113q79 0 125.5 27.5t46.5 74.5q0 39 -26.5 61.5t-64.5 22.5q-40 0 -74 -21t-50 -60l-104 64q33 67 97.5 101.5
t140.5 34.5q57 0 107 -22t80.5 -64t30.5 -99q0 -61 -37 -106t-102 -55q164 -33 164 -178z" />
    <glyph glyph-name="four" unicode="4" horiz-adv-x="558" 
d="M538 161h-104v-161h-136v161h-298v119l290 420h144v-420h104v-119zM145 280h153v232z" />
    <glyph glyph-name="five" unicode="5" horiz-adv-x="574" 
d="M508 103q-36 -58 -95.5 -88.5t-128.5 -30.5q-76 0 -144 37.5t-106 110.5l114 68q18 -47 58 -72t84 -25q50 0 84.5 33t34.5 90t-36.5 88t-86.5 31q-33 0 -63.5 -14.5t-52.5 -43.5h-96v413h403v-120h-290v-165q61 49 139 49q56 0 106 -26.5t81 -77.5t31 -122
q0 -77 -36 -135z" />
    <glyph glyph-name="six" unicode="6" horiz-adv-x="600" 
d="M463 440.5q53 -32.5 80 -86t27 -114.5q0 -63 -29.5 -122t-87.5 -96.5t-141 -37.5q-89 0 -153 44t-96.5 119t-32.5 169q0 104 41 195.5t126.5 148t211.5 56.5q20 0 32 -1l8 -127q-24 2 -38 2q-195 0 -240 -193q57 76 165 76q74 0 127 -32.5zM404 141.5q32 39.5 32 90.5
q0 52 -32 90t-95 38t-95.5 -38.5t-32.5 -89.5q0 -52 32.5 -91t95.5 -39t95 39.5z" />
    <glyph glyph-name="seven" unicode="7" horiz-adv-x="509" 
d="M509 570l-290 -570h-143l302 570h-378v130h509v-130z" />
    <glyph glyph-name="eight" unicode="8" horiz-adv-x="587" 
d="M512.5 306q39.5 -39 39.5 -111q0 -65 -37 -113t-96 -73t-124 -25t-125 24.5t-97.5 72t-37.5 114.5q0 65 37.5 111t97.5 67q-45 20 -76 59.5t-31 97.5t34.5 100t89 64t113.5 22q60 0 112 -23t83.5 -65.5t31.5 -99.5q0 -58 -33 -99t-76 -60q55 -24 94.5 -63zM224.5 579.5
q-27.5 -23.5 -27.5 -61.5q0 -43 32 -63t88 -34q36 16 56 43.5t20 58.5q0 37 -28 58.5t-69 21.5q-44 0 -71.5 -23.5zM384 122q35 24 35 66q0 82 -155 126q-40 -10 -68 -42.5t-28 -73.5q0 -47 36.5 -73.5t91.5 -26.5q53 0 88 24z" />
    <glyph glyph-name="nine" unicode="9" horiz-adv-x="600" 
d="M137 259.5q-53 32.5 -80 86t-27 114.5q0 63 29.5 122t87.5 96.5t141 37.5q89 0 153 -44t96.5 -119t32.5 -169q0 -104 -41 -195.5t-126.5 -148t-211.5 -56.5q-20 0 -32 1l-8 127q24 -2 38 -2q195 0 240 193q-57 -76 -165 -76q-74 0 -127 32.5zM196 558.5
q-32 -39.5 -32 -90.5q0 -52 32 -90t95 -38t95.5 38.5t32.5 89.5q0 52 -32.5 91t-95.5 39t-95 -39.5z" />
    <glyph glyph-name="colon" unicode=":" horiz-adv-x="280" 
d="M76.5 498q26.5 26 63.5 26q38 0 64 -26t26 -64q0 -37 -26.5 -63t-63.5 -26t-63.5 26t-26.5 63q0 38 26.5 64zM76.5 137q26.5 26 63.5 26q38 0 64 -26t26 -64q0 -37 -26.5 -63t-63.5 -26t-63.5 26t-26.5 63q0 38 26.5 64z" />
    <glyph glyph-name="semicolon" unicode=";" horiz-adv-x="331" 
d="M123 151l143 -56l-132 -298l-114 47zM127.5 498q26.5 26 63.5 26q38 0 64 -26t26 -64q0 -37 -26.5 -63t-63.5 -26t-63.5 26t-26.5 63q0 38 26.5 64z" />
    <glyph glyph-name="less" unicode="&#x3c;" horiz-adv-x="446" 
d="M293 545l103 -97l-175 -195l175 -194l-103 -97l-263 291z" />
    <glyph glyph-name="equal" unicode="=" horiz-adv-x="458" 
d="M30 432h398v-122h-398v122zM30 240h398v-122h-398v122z" />
    <glyph glyph-name="greater" unicode="&#x3e;" horiz-adv-x="446" 
d="M143 -38l-103 97l175 194l-175 195l103 97l263 -292z" />
    <glyph glyph-name="question" unicode="?" horiz-adv-x="523" 
d="M298 241h-137v164h57q44 0 74.5 15.5t45.5 40t15 51.5q0 35 -24.5 60.5t-65.5 25.5q-38 0 -75 -22t-59 -62l-99 77q38 61 103.5 94t136.5 33q70 0 120.5 -28.5t76.5 -74t26 -97.5q0 -46 -22 -88t-66 -71t-107 -36v-82zM164.5 137q26.5 26 63.5 26q38 0 64 -26t26 -64
q0 -37 -26.5 -63t-63.5 -26t-63.5 26t-26.5 63q0 38 26.5 64z" />
    <glyph glyph-name="at" unicode="@" horiz-adv-x="774" 
d="M555.5 566q75.5 -36 122 -106t46.5 -166q0 -87 -37 -140.5t-101 -53.5q-39 0 -66 21t-35 58q-17 -39 -51.5 -61t-81.5 -22q-50 0 -86 24.5t-55 63.5t-19 82t19 82t55 63t86 24q81 0 117 -65v52h79v-187q0 -69 46 -69q30 0 47.5 30.5t17.5 85.5q0 79 -37.5 136t-98 86.5
t-130.5 29.5q-73 0 -137.5 -31.5t-104.5 -92.5t-40 -147q0 -69 27.5 -128t80.5 -94.5t127 -35.5q42 0 78.5 11.5t64.5 31.5l38 -51q-29 -26 -77.5 -43.5t-107.5 -17.5q-94 0 -162.5 45t-104 120t-35.5 162q0 105 50 182t131.5 117t172.5 40q86 0 161.5 -36zM424 197.5
q23 27.5 23 69.5t-22.5 67.5t-60.5 25.5q-41 0 -64.5 -27.5t-23.5 -65.5t23.5 -67.5t63.5 -29.5q38 0 61 27.5z" />
    <glyph glyph-name="A" unicode="A" 
d="M484 159h-258l-59 -159h-152l273 700h134l273 -700h-152zM436 289l-81 219l-81 -219h162z" />
    <glyph glyph-name="B" unicode="B" horiz-adv-x="617" 
d="M534 321q38 -43 38 -106q0 -54 -27.5 -103.5t-80.5 -80.5t-127 -31h-262v700h253q69 0 118 -22.5t74 -60.5t25 -85q0 -53 -30.5 -95.5t-79.5 -58.5q61 -14 99 -57zM313 421q39 0 64.5 23t25.5 60q0 39 -26 57.5t-61 18.5h-102v-159h99zM398.5 146q32.5 26 32.5 70
q0 43 -30.5 65t-77.5 22h-109v-183h103q49 0 81.5 26z" />
    <glyph glyph-name="C" unicode="C" horiz-adv-x="743" 
d="M585.5 41q-87.5 -57 -193.5 -57q-94 0 -173 44t-126.5 126.5t-47.5 192.5q0 116 51.5 199.5t135.5 126.5t177 43q78 0 151 -31.5t125 -98.5l-99 -94q-31 49 -78.5 70.5t-101.5 21.5q-62 0 -112 -25.5t-79 -77t-29 -127.5q0 -73 28 -127t76 -82.5t108 -28.5q70 0 123 38
t82 111l115 -61q-45 -106 -132.5 -163z" />
    <glyph glyph-name="D" unicode="D" horiz-adv-x="722" 
d="M75 700h248q111 0 191 -48.5t121.5 -126.5t41.5 -167q0 -90 -42 -172t-126 -134t-202 -52h-232v700zM215 580v-460h103q70 0 119 31t74 83.5t25 115.5t-24.5 115t-72.5 83.5t-116 31.5h-108z" />
    <glyph glyph-name="E" unicode="E" horiz-adv-x="563" 
d="M215 580v-170h227v-121h-227v-169h293v-120h-433v700h424v-120h-284z" />
    <glyph glyph-name="F" unicode="F" horiz-adv-x="554" 
d="M215 0h-140v700h424v-120h-284v-170h227v-121h-227v-289z" />
    <glyph glyph-name="G" unicode="G" horiz-adv-x="749" 
d="M684 394v-311q-61 -49 -132 -74t-143 -25q-97 0 -180.5 43.5t-133.5 126.5t-50 196q0 114 51.5 197t134.5 126t175 43q79 0 152 -32.5t125 -97.5l-97 -96q-62 95 -178 95q-61 0 -111 -25.5t-79 -77t-29 -126.5q0 -78 31.5 -132t83 -81.5t111.5 -27.5q70 0 129 32v115
h-154v132h294z" />
    <glyph glyph-name="H" unicode="H" horiz-adv-x="734" 
d="M75 700h139v-283h306v283h139v-700h-139v285h-306v-285h-139v700z" />
    <glyph glyph-name="I" unicode="I" horiz-adv-x="290" 
d="M75 700h140v-700h-140v700z" />
    <glyph glyph-name="J" unicode="J" horiz-adv-x="522" 
d="M457 700v-491q0 -72 -31 -123t-81.5 -76.5t-107.5 -25.5q-54 0 -102 23t-80.5 68.5t-39.5 109.5l136 26q5 -48 26.5 -72t57.5 -24t58.5 24.5t22.5 72.5v488h141z" />
    <glyph glyph-name="K" unicode="K" horiz-adv-x="691" 
d="M215 297v-297h-140v700h140v-291l266 291h182l-319 -339l337 -361h-193z" />
    <glyph glyph-name="L" unicode="L" horiz-adv-x="520" 
d="M215 700v-580h280v-120h-420v700h140z" />
    <glyph glyph-name="M" unicode="M" horiz-adv-x="880" 
d="M805 0h-141v444l-166 -293h-117l-166 293v-444h-140v700h151l214 -374l214 374h151v-700z" />
    <glyph glyph-name="N" unicode="N" horiz-adv-x="752" 
d="M75 700h133l329 -444v444h140v-700h-133l-329 440v-440h-140v700z" />
    <glyph glyph-name="O" unicode="O" horiz-adv-x="811" 
d="M588.5 668.5q82.5 -47.5 130 -131.5t47.5 -187t-47.5 -187t-130 -131.5t-182.5 -47.5q-101 0 -183.5 47.5t-130 131.5t-47.5 187t47.5 187t130 131.5t183.5 47.5q100 0 182.5 -47.5zM294.5 556q-50.5 -29 -79.5 -82.5t-29 -123.5t29 -123.5t79.5 -82.5t111.5 -29t111 29
t79 82.5t29 123.5t-29 123.5t-79 82.5t-111 29t-111.5 -29z" />
    <glyph glyph-name="P" unicode="P" horiz-adv-x="580" 
d="M455 671q49 -29 74.5 -75.5t25.5 -99.5q0 -56 -27.5 -106.5t-79.5 -81.5t-120 -31h-113v-277h-140v700h264q67 0 116 -29zM314 397q45 0 72.5 26.5t27.5 67.5q0 39 -25.5 64t-70.5 25h-103v-183h99z" />
    <glyph glyph-name="Q" unicode="Q" horiz-adv-x="811" 
d="M668.5 -14.5q38.5 -18.5 87.5 -31.5l-54 -134q-64 18 -125.5 60.5t-97.5 110.5q-34 -7 -73 -7q-101 0 -183.5 47.5t-130 131t-47.5 186.5q0 104 47.5 188t130 131.5t183.5 47.5q100 0 182.5 -48t130 -131.5t47.5 -187.5q0 -99 -43.5 -180t-119.5 -129q27 -36 65.5 -54.5z
M215 226q29 -53 79.5 -82t111.5 -29t111 29t79 82t29 123t-29 124t-79 83t-111 29t-111.5 -29t-79.5 -83t-29 -124t29 -123z" />
    <glyph glyph-name="R" unicode="R" horiz-adv-x="624" 
d="M433 0l-153 277h-65v-277h-140v700h259q69 0 119 -26.5t76.5 -72.5t26.5 -103q0 -58 -33.5 -110.5t-96.5 -78.5l178 -309h-171zM386 423.5q28 26.5 28 67.5q0 39 -26 64t-71 25h-102v-183h97q46 0 74 26.5z" />
    <glyph glyph-name="S" unicode="S" horiz-adv-x="593" 
d="M517.5 84q-35.5 -49 -93.5 -74.5t-125 -25.5q-71 0 -140.5 29t-118.5 83l85 101q33 -40 83 -62.5t98 -22.5q44 0 74 20t30 54q0 35 -31 54.5t-96 41.5t-110 45.5t-76.5 67t-31.5 110.5q0 72 36 119.5t91.5 69.5t114.5 22q63 0 121.5 -25t96.5 -70l-80 -91
q-26 31 -65.5 47.5t-73.5 16.5q-42 0 -70.5 -22t-28.5 -61q0 -30 19 -50.5t46.5 -32.5t76.5 -28q67 -22 107 -41.5t68.5 -57.5t28.5 -100q0 -68 -35.5 -117z" />
    <glyph glyph-name="T" unicode="T" horiz-adv-x="609" 
d="M375 0h-141v580h-219v120h579v-120h-219v-580z" />
    <glyph glyph-name="U" unicode="U" horiz-adv-x="694" 
d="M209.5 14.5q-64.5 30.5 -104.5 90.5t-40 144v451h141v-436q0 -74 39.5 -111.5t101.5 -37.5q63 0 102.5 37t39.5 112v436h140v-451q0 -85 -40 -145t-104.5 -90t-137.5 -30t-137.5 30.5z" />
    <glyph glyph-name="V" unicode="V" horiz-adv-x="692" 
d="M405 0h-126l-264 700h149l180 -490l177 490h156z" />
    <glyph glyph-name="W" unicode="W" horiz-adv-x="1032" 
d="M784 0h-126l-142 444l-141 -444h-127l-233 700h153l140 -457l140 457h136l141 -457l139 457h153z" />
    <glyph glyph-name="X" unicode="X" horiz-adv-x="728" 
d="M454 350l259 -350h-179l-170 236l-171 -236h-178l262 354l-257 346h177l170 -235l170 235h176z" />
    <glyph glyph-name="Y" unicode="Y" horiz-adv-x="674" 
d="M408 0h-141v300l-262 400h172l160 -272l162 272h170l-261 -401v-299z" />
    <glyph glyph-name="Z" unicode="Z" horiz-adv-x="599" 
d="M564 0h-529v110l342 470h-333v120h504v-109l-341 -471h357v-120z" />
    <glyph glyph-name="bracketleft" unicode="[" horiz-adv-x="316" 
d="M60 -172v976h236v-117h-96v-742h96v-117h-236z" />
    <glyph glyph-name="backslash" unicode="\" horiz-adv-x="388" 
d="M108 738l290 -727l-118 -47l-290 730z" />
    <glyph glyph-name="bracketright" unicode="]" horiz-adv-x="326" 
d="M20 -55h96v742h-96v117h236v-976h-236v117z" />
    <glyph glyph-name="asciicircum" unicode="^" horiz-adv-x="507" 
d="M395 377l-141 146l-141 -146l-93 92l234 249l233 -249z" />
    <glyph glyph-name="underscore" unicode="_" horiz-adv-x="465" 
d="M440 101v-117h-415v117h415z" />
    <glyph glyph-name="grave" unicode="`" horiz-adv-x="316" 
d="M280 600l-280 85l34 113l282 -81z" />
    <glyph glyph-name="a" unicode="a" horiz-adv-x="704" 
d="M649.5 3q-28.5 -13 -59.5 -13q-47 0 -81 29.5t-41 74.5q-22 -46 -71.5 -75.5t-113.5 -29.5q-65 0 -121.5 31t-91.5 90t-35 140q0 84 37 144.5t97 91.5t127 31q50 0 88.5 -18.5t61.5 -55.5v61h135v-359q0 -19 9.5 -28.5t24.5 -9.5q21 0 37 14l42 -82q-16 -23 -44.5 -36z
M371 124.5q32 18.5 51.5 52.5t19.5 78t-18.5 77.5t-50 51.5t-68.5 18q-36 0 -67 -18t-49.5 -52t-18.5 -79q0 -44 18 -77.5t48 -51.5t66 -18q37 0 69 18.5z" />
    <glyph glyph-name="b" unicode="b" horiz-adv-x="649" 
d="M488.5 487q55.5 -30 90.5 -90t35 -143q0 -84 -36 -144t-94 -90.5t-125 -30.5q-95 0 -159 66v-55h-135v700h136v-264q23 38 70 59.5t100 21.5q62 0 117.5 -30zM441 144q38 41 38 111t-37 109t-97 39q-58 0 -100.5 -37.5t-42.5 -113.5q0 -71 39 -110t100 -39q62 0 100 41z
" />
    <glyph glyph-name="c" unicode="c" horiz-adv-x="548" 
d="M431.5 26.5q-62.5 -37.5 -136.5 -37.5q-64 0 -124 28.5t-98 87.5t-38 145t38 146.5t98 90.5t126 30q62 0 120.5 -26.5t98.5 -80.5l-96 -81q-47 69 -119 69q-52 0 -91.5 -35.5t-39.5 -107.5q0 -49 20 -82t50.5 -48.5t62.5 -15.5q39 0 73.5 23.5t58.5 70.5l98 -70
q-39 -69 -101.5 -106.5z" />
    <glyph glyph-name="d" unicode="d" horiz-adv-x="649" 
d="M381.5 496q42.5 -21 66.5 -60v264h136v-700h-135v62q-60 -73 -159 -73q-66 0 -124.5 30.5t-94.5 90.5t-36 144t35 143.5t92 89.5t122 30q55 0 97.5 -21zM408 142q39 39 39 111q0 76 -41.5 113t-98.5 37q-60 0 -98.5 -39.5t-38.5 -109.5q0 -69 38.5 -110t100.5 -41
q60 0 99 39z" />
    <glyph glyph-name="e" unicode="e" horiz-adv-x="562" 
d="M523 200h-349q8 -48 44.5 -69.5t83.5 -21.5q43 0 78.5 17t59.5 50l83 -82q-41 -51 -98 -78t-124 -27q-70 0 -130.5 29.5t-98 88.5t-37.5 144q0 84 36.5 144t95.5 91t126 31q63 0 116.5 -29t85.5 -86t32 -138q0 -28 -4 -64zM364 376q-30 26 -76 26q-47 0 -77.5 -27.5
t-36.5 -71.5h224q-4 47 -34 73z" />
    <glyph glyph-name="f" unicode="f" horiz-adv-x="407" 
d="M262.5 585q-16.5 -17 -16.5 -48v-33h125v-117h-125v-387h-136v387h-95v117h95v38q0 56 24.5 96t65.5 60t91 20q35 0 72.5 -11t68.5 -33l-63 -94q-29 22 -64 22q-26 0 -42.5 -17z" />
    <glyph glyph-name="g" unicode="g" horiz-adv-x="636" 
d="M581 31q0 -84 -39.5 -144.5t-103.5 -91t-137 -30.5q-90 0 -162 46t-101 128l125 48q15 -51 56 -78.5t91 -27.5q58 0 97.5 37.5t39.5 102.5v66q-24 -38 -65 -60t-97 -22q-64 0 -121.5 29t-93 86t-35.5 139t36.5 140.5t96 88t126.5 29.5q53 0 92.5 -20t59.5 -55v62h135
v-473zM403 157.5q42 38.5 42 104.5q0 44 -19.5 76.5t-50.5 49t-66 16.5q-36 0 -68 -16t-51.5 -48.5t-19.5 -79.5q0 -71 38.5 -106t93.5 -35q59 0 101 38.5z" />
    <glyph glyph-name="h" unicode="h" horiz-adv-x="602" 
d="M485 465.5q52 -51.5 52 -144.5v-321h-137v292q0 51 -21 80.5t-67 29.5q-53 0 -82 -38.5t-29 -100.5v-263h-136v700h135v-263q24 39 63.5 59.5t88.5 20.5q81 0 133 -51.5z" />
    <glyph glyph-name="i" unicode="i" horiz-adv-x="283" 
d="M77 728q27 27 64 27q38 0 65 -27t27 -64t-27.5 -64t-64.5 -27t-64 27t-27 64t27 64zM74 504h136v-504h-136v504z" />
    <glyph glyph-name="j" unicode="j" horiz-adv-x="305" 
d="M93.5 728q26.5 27 63.5 27q38 0 65.5 -27t27.5 -64t-27.5 -64t-65.5 -27q-37 0 -63.5 27t-26.5 64t26.5 64zM89 504h137v-561q0 -58 -24.5 -98t-64.5 -59.5t-87 -19.5q-36 0 -71 11.5t-64 33.5l60 96q26 -25 59 -25q25 0 40 16t15 48v558z" />
    <glyph glyph-name="k" unicode="k" horiz-adv-x="596" 
d="M202 204l-1 -204h-136v700h136v-380l179 184h187l-237 -233l266 -271h-190z" />
    <glyph glyph-name="l" unicode="l" horiz-adv-x="347" 
d="M238 -11q-74 0 -123.5 44t-49.5 133v534h136v-532q0 -33 18 -48.5t45 -15.5q16 0 36 10l47 -99q-55 -26 -109 -26z" />
    <glyph glyph-name="m" unicode="m" horiz-adv-x="845" 
d="M696.5 495q42.5 -22 68 -65t25.5 -103v-327h-136v313q0 43 -20 66t-55 23q-39 0 -63.5 -28t-24.5 -81v-293h-136v313q0 43 -21.5 66t-56.5 23q-39 0 -62.5 -28t-23.5 -81v-293h-136v504h135v-59q19 36 49.5 54t76.5 18q104 0 139 -86q20 41 59.5 63.5t90.5 22.5
q49 0 91.5 -22z" />
    <glyph glyph-name="n" unicode="n" horiz-adv-x="602" 
d="M485 465.5q52 -51.5 52 -144.5v-321h-137v292q0 51 -21 80.5t-67 29.5q-53 0 -82 -38.5t-29 -100.5v-263h-136v504h135v-62q24 37 64 56t88 19q81 0 133 -51.5z" />
    <glyph glyph-name="o" unicode="o" horiz-adv-x="610" 
d="M443 482q62 -35 97 -95.5t35 -133.5t-35 -133.5t-97 -95.5t-139 -35q-76 0 -137.5 35t-96.5 95.5t-35 133.5t35 133.5t96.5 95.5t137.5 35q77 0 139 -35zM208 359.5q-38 -40.5 -38 -105.5t38 -106t96 -41q60 0 98 40.5t38 106.5q0 65 -38 105.5t-98 40.5q-58 0 -96 -40.5
z" />
    <glyph glyph-name="p" unicode="p" horiz-adv-x="649" 
d="M488.5 483q55.5 -30 90.5 -89t35 -142t-36 -142.5t-94.5 -90t-125.5 -30.5q-97 0 -157 65v-275h-136v725h135v-74q24 38 71 60.5t100 22.5q62 0 117.5 -30zM441 144q38 41 38 109t-37 107t-97 39q-58 0 -100.5 -37.5t-42.5 -111.5q0 -70 39 -108.5t100 -38.5q62 0 100 41
z" />
    <glyph glyph-name="q" unicode="q" horiz-adv-x="649" 
d="M584 -221h-136v282q-59 -72 -158 -72q-66 0 -124.5 30.5t-94.5 90t-36 142.5t35 142t92 89t122 30q55 0 98 -21t67 -60v72h135v-725zM408 141.5q39 38.5 39 109.5q0 75 -41.5 111.5t-98.5 36.5q-60 0 -98.5 -39t-38.5 -108q0 -68 38.5 -108.5t100.5 -40.5q60 0 99 38.5z
" />
    <glyph glyph-name="r" unicode="r" horiz-adv-x="392" 
d="M246.5 493q31.5 18 64.5 18q54 0 77 -14l-29 -129q-23 13 -60 13q-98 0 -98 -114v-267h-136v504h135v-66q15 37 46.5 55z" />
    <glyph glyph-name="s" unicode="s" horiz-adv-x="526" 
d="M465 68q-31 -39 -81.5 -59t-108.5 -20q-70 0 -139 28t-106 78l87 89q33 -46 77 -64.5t90 -18.5q36 0 56.5 10t20.5 31t-22 31.5t-76 20.5q-62 12 -101.5 25.5t-69 46t-29.5 89.5q0 82 59.5 122t146.5 40q58 0 110.5 -18t89.5 -50l-73 -89q-53 46 -121 46q-42 0 -60 -14
t-18 -33q0 -18 15.5 -28.5t35.5 -15.5t69 -14q54 -10 90.5 -22.5t62.5 -41t26 -77.5q0 -53 -31 -92z" />
    <glyph glyph-name="t" unicode="t" horiz-adv-x="458" 
d="M371.5 1.5q-37.5 -11.5 -74.5 -11.5q-76 0 -126.5 46t-50.5 134v217h-105v117h105v129h136v-129h147v-117h-147v-215q0 -34 19 -51t50 -17q34 0 69 22l49 -91q-34 -22 -71.5 -33.5z" />
    <glyph glyph-name="u" unicode="u" horiz-adv-x="588" 
d="M523 0h-134v65q-48 -76 -146 -76q-81 0 -134.5 52t-53.5 152v311h136v-297q0 -48 23.5 -75.5t62.5 -27.5q47 0 78 36t31 97v267h137v-504z" />
    <glyph glyph-name="v" unicode="v" horiz-adv-x="561" 
d="M344 0h-127l-202 504h151l115 -326l114 326h151z" />
    <glyph glyph-name="w" unicode="w" horiz-adv-x="879" 
d="M614 196l99 308h151l-187 -504h-129l-110 295l-109 -295h-129l-185 504h150l99 -307l108 307h132z" />
    <glyph glyph-name="x" unicode="x" horiz-adv-x="596" 
d="M382 253l207 -253h-178l-113 146l-113 -146h-179l208 253l-209 251h180l113 -144l113 144h180z" />
    <glyph glyph-name="y" unicode="y" horiz-adv-x="611" 
d="M546 19q0 -79 -37 -136.5t-97.5 -87t-129.5 -29.5q-89 0 -158.5 48t-93.5 135l122 44q12 -55 49 -83t86 -28q56 0 90.5 32.5t34.5 94.5v73q-21 -35 -60.5 -56t-81.5 -21q-54 0 -101 23.5t-75.5 69.5t-28.5 112v294h136v-276q0 -49 25 -78.5t73 -29.5q52 0 81.5 37
t29.5 100v247h136v-485z" />
    <glyph glyph-name="z" unicode="z" horiz-adv-x="535" 
d="M40 118l268 268h-258v118h430v-118l-262 -267h277v-119h-455v118z" />
    <glyph glyph-name="braceleft" unicode="{" horiz-adv-x="359" 
d="M249 -20q21 -19 60 -19l-14 -104q-77 0 -139 32.5t-62 120.5v190q0 33 -17 46t-57 13v123q40 0 57 12.5t17 45.5v191q0 88 61.5 120t139.5 32l14 -103q-38 0 -59.5 -19.5t-21.5 -58.5v-172q0 -41 -24.5 -70.5t-68.5 -39.5q44 -10 68.5 -39t24.5 -70v-173q0 -39 21 -58z
" />
    <glyph glyph-name="bar" unicode="|" horiz-adv-x="293" 
d="M213 -151h-133v912h133v-912z" />
    <glyph glyph-name="braceright" unicode="}" horiz-adv-x="359" 
d="M131 211q0 41 24.5 70t68.5 39q-44 10 -68.5 39.5t-24.5 70.5v172q0 39 -21.5 58.5t-59.5 19.5l14 103q78 0 139.5 -32t61.5 -120v-191q0 -33 17 -45.5t57 -12.5v-123q-40 0 -57 -13t-17 -46v-190q0 -88 -62 -120.5t-139 -32.5l-14 104q39 0 60 19t21 58v173z" />
    <glyph glyph-name="asciitilde" unicode="~" horiz-adv-x="645" 
d="M104.5 372.5q48.5 40.5 109.5 40.5q36 0 67 -12.5t75 -37.5q33 -19 52 -27.5t38 -8.5q23 0 41.5 17t36.5 55l91 -53q-20 -61 -66 -104.5t-109 -43.5q-36 0 -66 13t-69 38q-31 19 -51 28.5t-40 9.5q-51 0 -94 -76l-90 56q26 65 74.5 105.5z" />
    <glyph glyph-name="exclamdown" unicode="&#xa1;" horiz-adv-x="340" 
d="M106.5 602q26.5 26 63.5 26t63.5 -26t26.5 -63t-26 -63.5t-64 -26.5q-37 0 -63.5 26.5t-26.5 63.5t26.5 63zM243 -123h-146l13 510h120z" />
    <glyph glyph-name="cent" unicode="&#xa2;" horiz-adv-x="548" 
d="M453 41q-48 -36 -106 -47v-98h-82v95q-60 6 -112.5 36.5t-85 87t-32.5 135.5q0 80 32.5 137.5t85 89t112.5 38.5v89h82v-91q49 -10 93.5 -35.5t75.5 -67.5l-96 -81q-47 69 -119 69q-52 0 -91.5 -35.5t-39.5 -107.5q0 -49 20 -82t50.5 -48.5t62.5 -15.5q39 0 73.5 23.5
t58.5 70.5l98 -70q-32 -56 -80 -92z" />
    <glyph glyph-name="sterling" unicode="&#xa3;" horiz-adv-x="656" 
d="M572.5 21q-41.5 -37 -97.5 -37q-44 0 -90 20.5t-90 57.5q-24 -38 -61 -58t-79 -20q-46 0 -79 18.5t-49.5 49t-16.5 65.5q0 55 35 95.5t98 40.5q27 0 49 -7.5t46 -23.5q4 35 4 96v53h-116v91h116v80q0 56 24.5 96t65.5 60t90 20q35 0 73 -10.5t69 -33.5l-63 -94
q-29 22 -64 22q-26 0 -42.5 -17t-16.5 -48v-75h147v-91h-147v-91q0 -76 -34 -133q63 -44 111 -44q65 0 94 83l97 -52q-32 -76 -73.5 -113zM195 96.5q18 13.5 27 36.5q-15 17 -33 26t-35 9q-20 0 -32 -12t-12 -28q0 -19 12 -32t33 -13q22 0 40 13.5z" />
    <glyph glyph-name="currency" unicode="&#xa4;" horiz-adv-x="661" 
d="M515 162l116 -115l-58 -59l-113 114q-56 -42 -130 -42q-73 0 -130 41l-112 -113l-58 59l115 114q-35 57 -35 127q0 71 35 128l-115 115l58 58l113 -113q57 41 129 41q73 0 130 -41l113 113l58 -58l-116 -116q35 -57 35 -127q0 -69 -35 -126zM407 208.5q30 31.5 30 79.5
t-30 80t-77 32t-77 -32t-30 -80t30 -79.5t77 -31.5t77 31.5z" />
    <glyph glyph-name="yen" unicode="&#xa5;" horiz-adv-x="674" 
d="M413 306h130v-79h-135v-80h135v-80h-135v-67h-141v67h-146v80h146v80h-146v79h142l-258 394h172l160 -272l162 272h170z" />
    <glyph glyph-name="brokenbar" unicode="&#xa6;" horiz-adv-x="294" 
d="M214 338h-134v423h134v-423zM214 -151h-134v422h134v-422z" />
    <glyph glyph-name="section" unicode="&#xa7;" horiz-adv-x="593" 
d="M553 197q0 -67 -35.5 -115t-93 -72.5t-124.5 -24.5q-73 0 -142 29t-118 83l80 96q33 -43 85 -69.5t101 -26.5q43 0 72.5 19.5t29.5 52.5q0 25 -13 41q-40 -24 -86 -24q-47 0 -86.5 23.5t-61.5 63.5t-21 88q-73 59 -73 147q0 70 36 117t92 69.5t115 22.5q62 0 118.5 -24
t94.5 -65l-72 -92q-26 33 -67.5 52.5t-75.5 19.5q-46 0 -77 -23t-31 -69q0 -12 3 -29q44 36 106 36q46 0 84.5 -22.5t61 -61t22.5 -84.5v-18q76 -54 76 -140zM356.5 307q19.5 20 19.5 48t-19.5 47.5t-47.5 19.5q-29 0 -48.5 -19t-19.5 -48t19.5 -48.5t48.5 -19.5
q28 0 47.5 20z" />
    <glyph glyph-name="dieresis" unicode="&#xa8;" horiz-adv-x="421" 
d="M151 627q-26 -26 -63 -26q-36 0 -62 26t-26 61q0 37 25.5 63t62.5 26t63 -26t26 -63q0 -35 -26 -61zM395 626.5q-26 -25.5 -63 -25.5q-36 0 -62 26t-26 61q0 37 25.5 63t62.5 26t63 -26t26 -63q0 -36 -26 -61.5z" />
    <glyph glyph-name="copyright" unicode="&#xa9;" horiz-adv-x="828" 
d="M602.5 679.5q84.5 -48.5 132.5 -134t48 -191.5t-48 -191t-132.5 -133.5t-188.5 -48.5t-188.5 48.5t-132.5 133.5t-48 191t48 191.5t132.5 134t188.5 48.5t188.5 -48.5zM567.5 79.5q69.5 40.5 109.5 112.5t40 162t-40 162t-109.5 112.5t-153.5 40.5t-153.5 -40.5
t-109.5 -112.5t-40 -162t40 -162t109.5 -112.5t153.5 -40.5t153.5 40.5zM513 189q-46 -27 -98 -27q-49 0 -92 23t-69.5 67.5t-26.5 105.5q0 62 27 106t70.5 66.5t93.5 22.5q44 0 84 -19t68 -55l-55 -52q-16 26 -40.5 38t-52.5 12q-46 0 -80 -31.5t-34 -86.5q0 -56 33 -88
t78 -32q31 0 60 16t46 51l60 -41q-26 -49 -72 -76z" />
    <glyph glyph-name="ordfeminine" unicode="&#xaa;" horiz-adv-x="576" 
d="M520 304.5q-22 -10.5 -47 -10.5q-35 0 -64.5 18t-40.5 55q-23 -34 -60.5 -53t-80.5 -19q-49 0 -94.5 25t-74 73t-28.5 113q0 66 29.5 114.5t76 73t95.5 24.5q34 0 64.5 -11.5t53.5 -32.5v38h104v-272q0 -20 10.5 -30.5t26.5 -10.5q19 0 37 16l29 -82q-14 -18 -36 -28.5z
M315 424.5q32 30.5 32 84.5q0 53 -31.5 82.5t-74.5 29.5q-44 0 -75 -29.5t-31 -83.5t30.5 -84t74.5 -30q43 0 75 30.5z" />
    <glyph glyph-name="guillemotleft" unicode="&#xab;" horiz-adv-x="613" 
d="M305 130l-99 -83l-196 231l196 231l99 -83l-129 -148zM582 130l-99 -83l-196 231l196 231l99 -83l-129 -148z" />
    <glyph glyph-name="logicalnot" unicode="&#xac;" horiz-adv-x="515" 
d="M465 327v-231h-122v114h-293v117h415z" />
    <glyph glyph-name="registered" unicode="&#xae;" horiz-adv-x="828" 
d="M602.5 679.5q84.5 -48.5 132.5 -134t48 -191.5t-48 -191t-132.5 -133.5t-188.5 -48.5t-188.5 48.5t-132.5 133.5t-48 191t48 191.5t132.5 134t188.5 48.5t188.5 -48.5zM567.5 79.5q69.5 40.5 109.5 112.5t40 162t-40 162t-109.5 112.5t-153.5 40.5t-153.5 -40.5
t-109.5 -112.5t-40 -162t40 -162t109.5 -112.5t153.5 -40.5t153.5 40.5zM534.5 360q-18.5 -29 -55.5 -40l87 -132h-88l-70 112h-44v-112h-73v348h139q57 0 90 -33t33 -78q0 -36 -18.5 -65zM468.5 386q12.5 14 12.5 34q0 19 -12.5 32.5t-37.5 13.5h-67v-94h66q26 0 38.5 14z
" />
    <glyph glyph-name="macron" unicode="&#xaf;" horiz-adv-x="329" 
d="M329 711v-111h-329v111h329z" />
    <glyph glyph-name="degree" unicode="&#xb0;" horiz-adv-x="451" 
d="M64.5 625q24.5 43 66.5 68t93 25t94 -25t68 -68t25 -94t-25 -93t-68 -66.5t-94 -24.5t-93 24.5t-66.5 66.5t-24.5 93t24.5 94zM170 474.5q22 -21.5 55 -21.5q32 0 52.5 21.5t20.5 55.5t-21 56t-52 22q-33 0 -55 -22t-22 -56t22 -55.5z" />
    <glyph glyph-name="plusminus" unicode="&#xb1;" horiz-adv-x="458" 
d="M30 176h398v-118h-398v118zM161 390h-131v117h131v134h115v-134h131v-117h-131v-135h-115v135z" />
    <glyph glyph-name="acute" unicode="&#xb4;" horiz-adv-x="316" 
d="M316 666l-280 -85l-36 117l283 84z" />
    <glyph glyph-name="paragraph" unicode="&#xb6;" horiz-adv-x="577" 
d="M517 0h-80v580h-70v-580h-80v277h-40q-68 0 -120 31t-79.5 81.5t-27.5 106.5q0 53 25.5 99.5t74.5 75.5t116 29h281v-700zM287 580h-31q-44 0 -69.5 -25t-25.5 -64q0 -41 27.5 -67.5t72.5 -26.5h26v183z" />
    <glyph glyph-name="periodcentered" unicode="&#xb7;" horiz-adv-x="256" 
d="M196.5 403.5q29.5 -29.5 29.5 -68.5q0 -38 -29.5 -68t-68.5 -30q-38 0 -68 30t-30 68q0 39 30 68.5t68 29.5q39 0 68.5 -29.5z" />
    <glyph glyph-name="cedilla" unicode="&#xb8;" horiz-adv-x="285" 
d="M253.5 -78q31.5 -30 31.5 -68q0 -28 -16.5 -53t-48 -40.5t-73.5 -15.5q-45 0 -83.5 17.5t-63.5 49.5l54 55q19 -23 41 -35t45 -12t42.5 10.5t19.5 32.5q0 50 -115 53l39 123h59l-26 -79q63 -8 94.5 -38z" />
    <glyph glyph-name="ordmasculine" unicode="&#xba;" horiz-adv-x="488" 
d="M353 689.5q49 -28.5 77 -77.5t28 -108t-28 -108t-77 -77.5t-109 -28.5t-109 28.5t-77 77.5t-28 108t28 108t77 77.5t109 28.5t109 -28.5zM166 586q-31 -32 -31 -81t31 -81t78 -32t77.5 32t30.5 81t-30.5 81t-77.5 32t-78 -32z" />
    <glyph glyph-name="guillemotright" unicode="&#xbb;" horiz-adv-x="612" 
d="M31 426l99 83l196 -231l-196 -231l-99 83l129 148zM308 426l99 83l196 -231l-196 -231l-99 83l129 148z" />
    <glyph glyph-name="onequarter" unicode="&#xbc;" horiz-adv-x="893" 
d="M184 54l421 662l82 -52l-422 -664zM126 604h-51v95h154v-424h-103v329zM818 91h-59v-91h-103v91h-170v85l171 248h102v-239h59v-94zM596 185h60v95z" />
    <glyph glyph-name="onehalf" unicode="&#xbd;" horiz-adv-x="930" 
d="M855 0h-300v81l144 147q40 40 40 75q0 19 -11 30.5t-29 11.5q-23 0 -39 -16.5t-18 -41.5l-94 21q6 58 50 95t107 37t103 -36.5t40 -94.5q0 -74 -74 -144l-74 -71h155v-94zM186 54l421 662l82 -52l-422 -664zM126 604h-51v95h154v-424h-103v329z" />
    <glyph glyph-name="threequarters" unicode="&#xbe;" horiz-adv-x="1003" 
d="M380 401q0 -57 -43.5 -94.5t-109.5 -37.5q-53 0 -93.5 27.5t-58.5 75.5l86 45q8 -25 27.5 -39.5t43.5 -14.5q21 0 33.5 11t12.5 28q0 26 -24.5 38.5t-79.5 10.5v91q44 -2 67 10t23 35q0 16 -10.5 25.5t-28.5 9.5q-22 0 -40.5 -12.5t-25.5 -33.5l-80 44q18 44 59 70t93 26
q59 0 98 -34t39 -85q0 -29 -14.5 -53t-38.5 -38q65 -29 65 -105zM292 54l421 662l82 -52l-422 -664zM928 91h-59v-91h-103v91h-170v85l171 248h102v-239h59v-94zM706 185h60v95z" />
    <glyph glyph-name="questiondown" unicode="&#xbf;" horiz-adv-x="503" 
d="M349 457.5q-26 -26.5 -64 -26.5q-37 0 -63.5 26.5t-26.5 63.5t26.5 63t63.5 26t63.5 -26t26.5 -63t-26 -63.5zM215 353h137v-164h-57q-44 0 -74.5 -15.5t-45.5 -40t-15 -51.5q0 -35 24.5 -60.5t65.5 -25.5q38 0 75 22t59 62l99 -77q-38 -61 -103.5 -94t-136.5 -33
q-70 0 -120.5 28.5t-76.5 74t-26 97.5q0 46 22 88t66 71t107 36v82z" />
    <glyph glyph-name="Agrave" unicode="&#xc0;" 
d="M484 159h-258l-59 -159h-152l273 700h134l273 -700h-152zM436 289l-81 219l-81 -219h162zM440 752l-280 85l34 113l282 -81z" />
    <glyph glyph-name="Aacute" unicode="&#xc1;" 
d="M484 159h-258l-59 -159h-152l273 700h134l273 -700h-152zM436 289l-81 219l-81 -219h162zM549 825l-280 -85l-36 117l283 84z" />
    <glyph glyph-name="Acircumflex" unicode="&#xc2;" 
d="M484 159h-258l-59 -159h-152l273 700h134l273 -700h-152zM436 289l-81 219l-81 -219h162zM483 750l-127 73l-128 -73l-55 80l182 115l183 -115z" />
    <glyph glyph-name="Atilde" unicode="&#xc3;" 
d="M484 159h-258l-59 -159h-152l273 700h134l273 -700h-152zM436 289l-81 219l-81 -219h162zM520 838.5q-18 -34.5 -43 -55.5t-52 -21q-18 0 -35 7.5t-38 20.5q-17 10 -29 15.5t-23 5.5q-17 0 -30 -12.5t-32 -39.5l-74 55q34 54 64.5 82t72.5 28q20 0 37 -6.5t39 -18.5
q11 -7 22.5 -12t20.5 -5q14 0 24 9t23 32l74 -45q-3 -5 -21 -39.5z" />
    <glyph glyph-name="Adieresis" unicode="&#xc4;" 
d="M484 159h-258l-59 -159h-152l273 700h134l273 -700h-152zM436 289l-81 219l-81 -219h162zM296 788q-26 -26 -63 -26q-36 0 -62 26t-26 61q0 37 25.5 63t62.5 26t63 -26t26 -63q0 -35 -26 -61zM540 787.5q-26 -25.5 -63 -25.5q-36 0 -62 26t-26 61q0 37 25.5 63t62.5 26
t63 -26t26 -63q0 -36 -26 -61.5z" />
    <glyph glyph-name="Aring" unicode="&#xc5;" 
d="M484 159h-258l-59 -159h-152l273 700h134l273 -700h-152zM436 289l-81 219l-81 -219h162zM276 918q31 32 78 32q46 0 79 -32.5t33 -77.5q0 -47 -32.5 -78.5t-79.5 -31.5t-78 31.5t-31 78.5q0 46 31 78zM319 802.5q13 -14.5 35 -14.5t35.5 14.5t13.5 36.5t-13.5 36.5
t-35.5 14.5t-35 -14.5t-13 -36.5t13 -36.5z" />
    <glyph glyph-name="AE" unicode="&#xc6;" horiz-adv-x="970" 
d="M915 120v-120h-416v161h-243l-81 -161h-160l364 700h528v-120h-267v-170h209v-121h-209v-169h275zM499 298v285h-32l-143 -285h175z" />
    <glyph glyph-name="Ccedilla" unicode="&#xc7;" horiz-adv-x="743" 
d="M589 43q-85 -57 -188 -59l-12 -35q63 -8 94.5 -38t31.5 -68q0 -28 -16.5 -53t-48 -40.5t-73.5 -15.5q-45 0 -83.5 17.5t-63.5 49.5l54 55q19 -23 41 -35t45 -12t42.5 10.5t19.5 32.5q0 50 -115 53l26 82q-83 11 -151 57.5t-107.5 124t-39.5 178.5q0 116 51.5 199.5
t135.5 126.5t177 43q78 0 151 -31.5t125 -98.5l-99 -94q-31 49 -78.5 70.5t-101.5 21.5q-62 0 -112 -25.5t-79 -77t-29 -127.5q0 -73 28 -127t76 -82.5t108 -28.5q70 0 123 38t82 111l115 -61q-44 -104 -129 -161z" />
    <glyph glyph-name="Egrave" unicode="&#xc8;" horiz-adv-x="563" 
d="M215 580v-170h227v-121h-227v-169h293v-120h-433v700h424v-120h-284zM416 752l-280 85l34 113l282 -81z" />
    <glyph glyph-name="Eacute" unicode="&#xc9;" horiz-adv-x="563" 
d="M215 580v-170h227v-121h-227v-169h293v-120h-433v700h424v-120h-284zM476 825l-280 -85l-36 117l283 84z" />
    <glyph glyph-name="Ecircumflex" unicode="&#xca;" horiz-adv-x="563" 
d="M215 580v-170h227v-121h-227v-169h293v-120h-433v700h424v-120h-284zM427 750l-127 73l-128 -73l-55 80l182 115l183 -115z" />
    <glyph glyph-name="Edieresis" unicode="&#xcb;" horiz-adv-x="563" 
d="M215 580v-170h227v-121h-227v-169h293v-120h-433v700h424v-120h-284zM237 788q-26 -26 -63 -26q-36 0 -62 26t-26 61q0 37 25.5 63t62.5 26t63 -26t26 -63q0 -35 -26 -61zM481 787.5q-26 -25.5 -63 -25.5q-36 0 -62 26t-26 61q0 37 25.5 63t62.5 26t63 -26t26 -63
q0 -36 -26 -61.5z" />
    <glyph glyph-name="Igrave" unicode="&#xcc;" horiz-adv-x="290" 
d="M75 700h140v-700h-140v700zM229 752l-280 85l34 113l282 -81z" />
    <glyph glyph-name="Iacute" unicode="&#xcd;" horiz-adv-x="290" 
d="M75 700h140v-700h-140v700zM346 825l-280 -85l-36 117l283 84z" />
    <glyph glyph-name="Icircumflex" unicode="&#xce;" horiz-adv-x="291" 
d="M76 700h140v-700h-140v700zM273 750l-127 73l-128 -73l-55 80l182 115l183 -115z" />
    <glyph glyph-name="Idieresis" unicode="&#xcf;" horiz-adv-x="291" 
d="M76 700h140v-700h-140v700zM86 788q-26 -26 -63 -26q-36 0 -62 26t-26 61q0 37 25.5 63t62.5 26t63 -26t26 -63q0 -35 -26 -61zM330 787.5q-26 -25.5 -63 -25.5q-36 0 -62 26t-26 61q0 37 25.5 63t62.5 26t63 -26t26 -63q0 -36 -26 -61.5z" />
    <glyph glyph-name="Eth" unicode="&#xd0;" horiz-adv-x="724" 
d="M516 651.5q80 -48.5 121.5 -126.5t41.5 -167q0 -90 -42 -172t-126 -134t-202 -52h-232v311h-112v79h112v310h248q111 0 191 -48.5zM439 151q49 31 74 83.5t25 115.5t-24.5 115t-72.5 83.5t-116 31.5h-108v-190h136v-79h-136v-191h103q70 0 119 31z" />
    <glyph glyph-name="Ntilde" unicode="&#xd1;" horiz-adv-x="752" 
d="M75 700h133l329 -444v444h140v-700h-133l-329 440v-440h-140v700zM552 838.5q-18 -34.5 -43 -55.5t-52 -21q-18 0 -35 7.5t-38 20.5q-17 10 -29 15.5t-23 5.5q-17 0 -30 -12.5t-32 -39.5l-74 55q34 54 64.5 82t72.5 28q20 0 37 -6.5t39 -18.5q11 -7 22.5 -12t20.5 -5
q14 0 24 9t23 32l74 -45q-3 -5 -21 -39.5z" />
    <glyph glyph-name="Ograve" unicode="&#xd2;" horiz-adv-x="811" 
d="M588.5 668.5q82.5 -47.5 130 -131.5t47.5 -187t-47.5 -187t-130 -131.5t-182.5 -47.5q-101 0 -183.5 47.5t-130 131.5t-47.5 187t47.5 187t130 131.5t183.5 47.5q100 0 182.5 -47.5zM294.5 556q-50.5 -29 -79.5 -82.5t-29 -123.5t29 -123.5t79.5 -82.5t111.5 -29t111 29
t79 82.5t29 123.5t-29 123.5t-79 82.5t-111 29t-111.5 -29zM527 752l-280 85l34 113l282 -81z" />
    <glyph glyph-name="Oacute" unicode="&#xd3;" horiz-adv-x="811" 
d="M588.5 668.5q82.5 -47.5 130 -131.5t47.5 -187t-47.5 -187t-130 -131.5t-182.5 -47.5q-101 0 -183.5 47.5t-130 131.5t-47.5 187t47.5 187t130 131.5t183.5 47.5q100 0 182.5 -47.5zM294.5 556q-50.5 -29 -79.5 -82.5t-29 -123.5t29 -123.5t79.5 -82.5t111.5 -29t111 29
t79 82.5t29 123.5t-29 123.5t-79 82.5t-111 29t-111.5 -29zM614 825l-280 -85l-36 117l283 84z" />
    <glyph glyph-name="Ocircumflex" unicode="&#xd4;" horiz-adv-x="811" 
d="M588.5 668.5q82.5 -47.5 130 -131.5t47.5 -187t-47.5 -187t-130 -131.5t-182.5 -47.5q-101 0 -183.5 47.5t-130 131.5t-47.5 187t47.5 187t130 131.5t183.5 47.5q100 0 182.5 -47.5zM294.5 556q-50.5 -29 -79.5 -82.5t-29 -123.5t29 -123.5t79.5 -82.5t111.5 -29t111 29
t79 82.5t29 123.5t-29 123.5t-79 82.5t-111 29t-111.5 -29zM533 750l-127 73l-128 -73l-55 80l182 115l183 -115z" />
    <glyph glyph-name="Otilde" unicode="&#xd5;" horiz-adv-x="811" 
d="M588.5 668.5q82.5 -47.5 130 -131.5t47.5 -187t-47.5 -187t-130 -131.5t-182.5 -47.5q-101 0 -183.5 47.5t-130 131.5t-47.5 187t47.5 187t130 131.5t183.5 47.5q100 0 182.5 -47.5zM294.5 556q-50.5 -29 -79.5 -82.5t-29 -123.5t29 -123.5t79.5 -82.5t111.5 -29t111 29
t79 82.5t29 123.5t-29 123.5t-79 82.5t-111 29t-111.5 -29zM566 838.5q-18 -34.5 -43 -55.5t-52 -21q-18 0 -35 7.5t-38 20.5q-17 10 -29 15.5t-23 5.5q-17 0 -30 -12.5t-32 -39.5l-74 55q34 54 64.5 82t72.5 28q20 0 37 -6.5t39 -18.5q11 -7 22.5 -12t20.5 -5q14 0 24 9
t23 32l74 -45q-3 -5 -21 -39.5z" />
    <glyph glyph-name="Odieresis" unicode="&#xd6;" horiz-adv-x="811" 
d="M588.5 668.5q82.5 -47.5 130 -131.5t47.5 -187t-47.5 -187t-130 -131.5t-182.5 -47.5q-101 0 -183.5 47.5t-130 131.5t-47.5 187t47.5 187t130 131.5t183.5 47.5q100 0 182.5 -47.5zM294.5 556q-50.5 -29 -79.5 -82.5t-29 -123.5t29 -123.5t79.5 -82.5t111.5 -29t111 29
t79 82.5t29 123.5t-29 123.5t-79 82.5t-111 29t-111.5 -29zM346 788q-26 -26 -63 -26q-36 0 -62 26t-26 61q0 37 25.5 63t62.5 26t63 -26t26 -63q0 -35 -26 -61zM590 787.5q-26 -25.5 -63 -25.5q-36 0 -62 26t-26 61q0 37 25.5 63t62.5 26t63 -26t26 -63q0 -36 -26 -61.5z
" />
    <glyph glyph-name="multiply" unicode="&#xd7;" horiz-adv-x="418" 
d="M305 268l93 -94l-96 -92l-92 92l-93 -93l-97 95l95 93l-95 94l96 92l92 -92l96 95l93 -95z" />
    <glyph glyph-name="Oslash" unicode="&#xd8;" horiz-adv-x="811" 
d="M713 547q53 -87 53 -197q0 -103 -47.5 -187t-130 -131.5t-182.5 -47.5q-50 0 -100 13l-45 -115l-65 25l45 115q-90 45 -143 132t-53 196q0 103 47.5 187t130 131.5t183.5 47.5q53 0 98 -13l42 108l65 -26l-41 -107q90 -44 143 -131zM213.5 229.5q27.5 -52.5 75.5 -81.5
l167 431q-24 6 -50 6q-61 0 -111.5 -29t-79.5 -82.5t-29 -123.5q0 -68 27.5 -120.5zM517 144q50 29 79 82.5t29 123.5q0 68 -28 121t-76 82l-167 -432q24 -6 52 -6q61 0 111 29z" />
    <glyph glyph-name="Ugrave" unicode="&#xd9;" horiz-adv-x="694" 
d="M209.5 14.5q-64.5 30.5 -104.5 90.5t-40 144v451h141v-436q0 -74 39.5 -111.5t101.5 -37.5q63 0 102.5 37t39.5 112v436h140v-451q0 -85 -40 -145t-104.5 -90t-137.5 -30t-137.5 30.5zM420 752l-280 85l34 113l282 -81z" />
    <glyph glyph-name="Uacute" unicode="&#xda;" horiz-adv-x="694" 
d="M209.5 14.5q-64.5 30.5 -104.5 90.5t-40 144v451h141v-436q0 -74 39.5 -111.5t101.5 -37.5q63 0 102.5 37t39.5 112v436h140v-451q0 -85 -40 -145t-104.5 -90t-137.5 -30t-137.5 30.5zM558 825l-280 -85l-36 117l283 84z" />
    <glyph glyph-name="Ucircumflex" unicode="&#xdb;" horiz-adv-x="694" 
d="M209.5 14.5q-64.5 30.5 -104.5 90.5t-40 144v451h141v-436q0 -74 39.5 -111.5t101.5 -37.5q63 0 102.5 37t39.5 112v436h140v-451q0 -85 -40 -145t-104.5 -90t-137.5 -30t-137.5 30.5zM475 750l-127 73l-128 -73l-55 80l182 115l183 -115z" />
    <glyph glyph-name="Udieresis" unicode="&#xdc;" horiz-adv-x="694" 
d="M209.5 14.5q-64.5 30.5 -104.5 90.5t-40 144v451h141v-436q0 -74 39.5 -111.5t101.5 -37.5q63 0 102.5 37t39.5 112v436h140v-451q0 -85 -40 -145t-104.5 -90t-137.5 -30t-137.5 30.5zM288 788q-26 -26 -63 -26q-36 0 -62 26t-26 61q0 37 25.5 63t62.5 26t63 -26t26 -63
q0 -35 -26 -61zM532 787.5q-26 -25.5 -63 -25.5q-36 0 -62 26t-26 61q0 37 25.5 63t62.5 26t63 -26t26 -63q0 -36 -26 -61.5z" />
    <glyph glyph-name="Yacute" unicode="&#xdd;" horiz-adv-x="674" 
d="M408 0h-141v300l-262 400h172l160 -272l162 272h170l-261 -401v-299zM561 825l-280 -85l-36 117l283 84z" />
    <glyph glyph-name="Thorn" unicode="&#xde;" horiz-adv-x="580" 
d="M455.5 565q48.5 -29 74 -76t25.5 -100q0 -56 -28 -106t-79.5 -81.5t-119.5 -31.5h-113v-170h-140v700h140v-106h124q68 0 116.5 -29zM386.5 317q27.5 27 27.5 67q0 39 -25.5 64t-70.5 25h-103v-183h99q45 0 72.5 27z" />
    <glyph glyph-name="germandbls" unicode="&#xdf;" horiz-adv-x="575" 
d="M493 320q37 -44 37 -108q0 -52 -25.5 -100.5t-78.5 -80t-130 -31.5h-56v117h62q45 0 69 26t24 64q0 43 -29.5 68.5t-84.5 25.5h-31v115h22q41 0 65 29.5t24 67.5t-23 61t-62 23q-44 0 -67.5 -30t-23.5 -85v-482h-135v496q0 72 32 121.5t84.5 74.5t112.5 25
q57 0 107 -22.5t80 -65.5t30 -102q0 -51 -27.5 -90t-74.5 -60q62 -13 99 -57z" />
    <glyph glyph-name="agrave" unicode="&#xe0;" horiz-adv-x="704" 
d="M649.5 3q-28.5 -13 -59.5 -13q-47 0 -81 29.5t-41 74.5q-22 -46 -71.5 -75.5t-113.5 -29.5q-65 0 -121.5 31t-91.5 90t-35 140q0 84 37 144.5t97 91.5t127 31q50 0 88.5 -18.5t61.5 -55.5v61h135v-359q0 -19 9.5 -28.5t24.5 -9.5q21 0 37 14l42 -82q-16 -23 -44.5 -36z
M371 124.5q32 18.5 51.5 52.5t19.5 78t-18.5 77.5t-50 51.5t-68.5 18q-36 0 -67 -18t-49.5 -52t-18.5 -79q0 -44 18 -77.5t48 -51.5t66 -18q37 0 69 18.5zM403 600l-280 85l34 113l282 -81z" />
    <glyph glyph-name="aacute" unicode="&#xe1;" horiz-adv-x="704" 
d="M649.5 3q-28.5 -13 -59.5 -13q-47 0 -81 29.5t-41 74.5q-22 -46 -71.5 -75.5t-113.5 -29.5q-65 0 -121.5 31t-91.5 90t-35 140q0 84 37 144.5t97 91.5t127 31q50 0 88.5 -18.5t61.5 -55.5v61h135v-359q0 -19 9.5 -28.5t24.5 -9.5q21 0 37 14l42 -82q-16 -23 -44.5 -36z
M371 124.5q32 18.5 51.5 52.5t19.5 78t-18.5 77.5t-50 51.5t-68.5 18q-36 0 -67 -18t-49.5 -52t-18.5 -79q0 -44 18 -77.5t48 -51.5t66 -18q37 0 69 18.5zM539 666l-280 -85l-36 117l283 84z" />
    <glyph glyph-name="acircumflex" unicode="&#xe2;" horiz-adv-x="704" 
d="M649.5 3q-28.5 -13 -59.5 -13q-47 0 -81 29.5t-41 74.5q-22 -46 -71.5 -75.5t-113.5 -29.5q-65 0 -121.5 31t-91.5 90t-35 140q0 84 37 144.5t97 91.5t127 31q50 0 88.5 -18.5t61.5 -55.5v61h135v-359q0 -19 9.5 -28.5t24.5 -9.5q21 0 37 14l42 -82q-16 -23 -44.5 -36z
M371 124.5q32 18.5 51.5 52.5t19.5 78t-18.5 77.5t-50 51.5t-68.5 18q-36 0 -67 -18t-49.5 -52t-18.5 -79q0 -44 18 -77.5t48 -51.5t66 -18q37 0 69 18.5zM442 591l-127 73l-128 -73l-55 80l182 115l183 -115z" />
    <glyph glyph-name="atilde" unicode="&#xe3;" horiz-adv-x="704" 
d="M649.5 3q-28.5 -13 -59.5 -13q-47 0 -81 29.5t-41 74.5q-22 -46 -71.5 -75.5t-113.5 -29.5q-65 0 -121.5 31t-91.5 90t-35 140q0 84 37 144.5t97 91.5t127 31q50 0 88.5 -18.5t61.5 -55.5v61h135v-359q0 -19 9.5 -28.5t24.5 -9.5q21 0 37 14l42 -82q-16 -23 -44.5 -36z
M371 124.5q32 18.5 51.5 52.5t19.5 78t-18.5 77.5t-50 51.5t-68.5 18q-36 0 -67 -18t-49.5 -52t-18.5 -79q0 -44 18 -77.5t48 -51.5t66 -18q37 0 69 18.5zM492 677.5q-18 -34.5 -43 -55.5t-52 -21q-18 0 -35 7.5t-38 20.5q-17 10 -29 15.5t-23 5.5q-17 0 -30 -12.5
t-32 -39.5l-74 55q34 54 64.5 82t72.5 28q20 0 37 -6.5t39 -18.5q11 -7 22.5 -12t20.5 -5q14 0 24 9t23 32l74 -45q-3 -5 -21 -39.5z" />
    <glyph glyph-name="adieresis" unicode="&#xe4;" horiz-adv-x="704" 
d="M649.5 3q-28.5 -13 -59.5 -13q-47 0 -81 29.5t-41 74.5q-22 -46 -71.5 -75.5t-113.5 -29.5q-65 0 -121.5 31t-91.5 90t-35 140q0 84 37 144.5t97 91.5t127 31q50 0 88.5 -18.5t61.5 -55.5v61h135v-359q0 -19 9.5 -28.5t24.5 -9.5q21 0 37 14l42 -82q-16 -23 -44.5 -36z
M371 124.5q32 18.5 51.5 52.5t19.5 78t-18.5 77.5t-50 51.5t-68.5 18q-36 0 -67 -18t-49.5 -52t-18.5 -79q0 -44 18 -77.5t48 -51.5t66 -18q37 0 69 18.5zM255 627q-26 -26 -63 -26q-36 0 -62 26t-26 61q0 37 25.5 63t62.5 26t63 -26t26 -63q0 -35 -26 -61zM499 626.5
q-26 -25.5 -63 -25.5q-36 0 -62 26t-26 61q0 37 25.5 63t62.5 26t63 -26t26 -63q0 -36 -26 -61.5z" />
    <glyph glyph-name="aring" unicode="&#xe5;" horiz-adv-x="704" 
d="M173.5 829.5q20.5 35.5 56 57t77.5 21.5t78 -21.5t57.5 -57t21.5 -76.5q0 -42 -21.5 -76.5t-57.5 -55t-78 -20.5q-43 0 -78 20.5t-55.5 55.5t-20.5 76t20.5 76.5zM267 712q15 -16 40 -16q24 0 39.5 16t15.5 41q0 24 -15.5 41t-39.5 17q-25 0 -40 -17t-15 -41
q0 -25 15 -41zM649.5 3q-28.5 -13 -59.5 -13q-47 0 -81 29.5t-41 74.5q-22 -46 -71.5 -75.5t-113.5 -29.5q-65 0 -121.5 31t-91.5 90t-35 140q0 84 37 144.5t97 91.5t127 31q50 0 88.5 -18.5t61.5 -55.5v61h135v-359q0 -19 9.5 -28.5t24.5 -9.5q21 0 37 14l42 -82
q-16 -23 -44.5 -36zM371 124.5q32 18.5 51.5 52.5t19.5 78t-18.5 77.5t-50 51.5t-68.5 18q-36 0 -67 -18t-49.5 -52t-18.5 -79q0 -44 18 -77.5t48 -51.5t66 -18q37 0 69 18.5z" />
    <glyph glyph-name="ae" unicode="&#xe6;" horiz-adv-x="920" 
d="M881 200h-349q8 -48 45.5 -69.5t83.5 -21.5q42 0 77.5 17t60.5 50l82 -82q-40 -53 -97.5 -79t-123.5 -26q-74 0 -138 33.5t-98 97.5q-29 -56 -81.5 -93.5t-129.5 -37.5q-57 0 -101 22.5t-68 61.5t-24 86q0 69 49.5 113.5t148.5 44.5h143q-6 40 -35.5 61t-75.5 21
q-40 0 -71 -16t-59 -49l-83 88q45 47 103 71t118 24t112.5 -24.5t78.5 -70.5q36 46 89.5 70.5t112.5 24.5q64 0 117 -28.5t85 -86t32 -138.5q0 -28 -4 -64zM722.5 376q-29.5 26 -75.5 26q-48 0 -78 -27t-37 -72h225q-5 47 -34.5 73zM316 138q39 31 45 90h-133
q-38 0 -58.5 -17t-20.5 -45t21 -43.5t56 -15.5q51 0 90 31z" />
    <glyph glyph-name="ccedilla" unicode="&#xe7;" horiz-adv-x="548" 
d="M438.5 31q-57.5 -37 -126.5 -42l-10 -29q63 -8 94.5 -38t31.5 -68q0 -28 -16.5 -53t-48 -40.5t-73.5 -15.5q-45 0 -83.5 17.5t-63.5 49.5l54 55q19 -23 41 -35t45 -12t42.5 10.5t19.5 32.5q0 50 -115 53l24 76q-58 8 -107.5 39t-80.5 86.5t-31 132.5q0 86 38 146.5
t98 90.5t126 30q62 0 120.5 -26.5t98.5 -80.5l-96 -81q-47 69 -119 69q-52 0 -91.5 -35.5t-39.5 -107.5q0 -49 20 -82t50.5 -48.5t62.5 -15.5q39 0 73.5 23.5t58.5 70.5l98 -70q-37 -65 -94.5 -102z" />
    <glyph glyph-name="egrave" unicode="&#xe8;" horiz-adv-x="562" 
d="M523 200h-349q8 -48 44.5 -69.5t83.5 -21.5q43 0 78.5 17t59.5 50l83 -82q-41 -51 -98 -78t-124 -27q-70 0 -130.5 29.5t-98 88.5t-37.5 144q0 84 36.5 144t95.5 91t126 31q63 0 116.5 -29t85.5 -86t32 -138q0 -28 -4 -64zM364 376q-30 26 -76 26q-47 0 -77.5 -27.5
t-36.5 -71.5h224q-4 47 -34 73zM386 600l-280 85l34 113l282 -81z" />
    <glyph glyph-name="eacute" unicode="&#xe9;" horiz-adv-x="562" 
d="M523 200h-349q8 -48 44.5 -69.5t83.5 -21.5q43 0 78.5 17t59.5 50l83 -82q-41 -51 -98 -78t-124 -27q-70 0 -130.5 29.5t-98 88.5t-37.5 144q0 84 36.5 144t95.5 91t126 31q63 0 116.5 -29t85.5 -86t32 -138q0 -28 -4 -64zM364 376q-30 26 -76 26q-47 0 -77.5 -27.5
t-36.5 -71.5h224q-4 47 -34 73zM518 666l-280 -85l-36 117l283 84z" />
    <glyph glyph-name="ecircumflex" unicode="&#xea;" horiz-adv-x="582" 
d="M523 200h-349q8 -48 44.5 -69.5t83.5 -21.5q43 0 78.5 17t59.5 50l83 -82q-41 -51 -98 -78t-124 -27q-70 0 -130.5 29.5t-98 88.5t-37.5 144q0 84 36.5 144t95.5 91t126 31q63 0 116.5 -29t85.5 -86t32 -138q0 -28 -4 -64zM364 376q-30 26 -76 26q-47 0 -77.5 -27.5
t-36.5 -71.5h224q-4 47 -34 73zM428 591l-127 73l-128 -73l-55 80l182 115l183 -115z" />
    <glyph glyph-name="edieresis" unicode="&#xeb;" horiz-adv-x="562" 
d="M523 200h-349q8 -48 44.5 -69.5t83.5 -21.5q43 0 78.5 17t59.5 50l83 -82q-41 -51 -98 -78t-124 -27q-70 0 -130.5 29.5t-98 88.5t-37.5 144q0 84 36.5 144t95.5 91t126 31q63 0 116.5 -29t85.5 -86t32 -138q0 -28 -4 -64zM364 376q-30 26 -76 26q-47 0 -77.5 -27.5
t-36.5 -71.5h224q-4 47 -34 73zM241 627q-26 -26 -63 -26q-36 0 -62 26t-26 61q0 37 25.5 63t62.5 26t63 -26t26 -63q0 -35 -26 -61zM485 626.5q-26 -25.5 -63 -25.5q-36 0 -62 26t-26 61q0 37 25.5 63t62.5 26t63 -26t26 -63q0 -36 -26 -61.5z" />
    <glyph glyph-name="igrave" unicode="&#xec;" horiz-adv-x="283" 
d="M74 504h136v-504h-136v504zM213 600l-280 85l34 113l282 -81z" />
    <glyph glyph-name="iacute" unicode="&#xed;" horiz-adv-x="283" 
d="M74 504h136v-504h-136v504zM329 666l-280 -85l-36 117l283 84z" />
    <glyph glyph-name="icircumflex" unicode="&#xee;" horiz-adv-x="284" 
d="M75 504h136v-504h-136v504zM270 591l-127 73l-128 -73l-55 80l182 115l183 -115z" />
    <glyph glyph-name="idieresis" unicode="&#xef;" horiz-adv-x="282" 
d="M73 504h136v-504h-136v504zM82 627q-26 -26 -63 -26q-36 0 -62 26t-26 61q0 37 25.5 63t62.5 26t63 -26t26 -63q0 -35 -26 -61zM326 626.5q-26 -25.5 -63 -25.5q-36 0 -62 26t-26 61q0 37 25.5 63t62.5 26t63 -26t26 -63q0 -36 -26 -61.5z" />
    <glyph glyph-name="eth" unicode="&#xf0;" horiz-adv-x="581" 
d="M503 541q58 -103 58 -227q0 -92 -32.5 -167t-96.5 -118.5t-153 -43.5q-83 0 -141.5 37t-88 96t-29.5 122q0 61 27.5 114.5t81 86t129.5 32.5q52 0 90.5 -16t61.5 -42q-31 115 -122 155l-18 -47l-58 21l16 42q-24 4 -56 4q-20 0 -30 -1l8 127q66 3 122 -9l23 63l62 -20
l-24 -62q112 -44 170 -147zM377 142q33 39 33 90t-33 89.5t-96 38.5t-95 -38t-32 -90q0 -51 32.5 -90t94.5 -39q63 0 96 39z" />
    <glyph glyph-name="ntilde" unicode="&#xf1;" horiz-adv-x="602" 
d="M485 465.5q52 -51.5 52 -144.5v-321h-137v292q0 51 -21 80.5t-67 29.5q-53 0 -82 -38.5t-29 -100.5v-263h-136v504h135v-62q24 37 64 56t88 19q81 0 133 -51.5zM477 677.5q-18 -34.5 -43 -55.5t-52 -21q-18 0 -35 7.5t-38 20.5q-17 10 -29 15.5t-23 5.5q-17 0 -30 -12.5
t-32 -39.5l-74 55q34 54 64.5 82t72.5 28q20 0 37 -6.5t39 -18.5q11 -7 22.5 -12t20.5 -5q14 0 24 9t23 32l74 -45q-3 -5 -21 -39.5z" />
    <glyph glyph-name="ograve" unicode="&#xf2;" horiz-adv-x="610" 
d="M443 482q62 -35 97 -95.5t35 -133.5t-35 -133.5t-97 -95.5t-139 -35q-76 0 -137.5 35t-96.5 95.5t-35 133.5t35 133.5t96.5 95.5t137.5 35q77 0 139 -35zM208 359.5q-38 -40.5 -38 -105.5t38 -106t96 -41q60 0 98 40.5t38 106.5q0 65 -38 105.5t-98 40.5q-58 0 -96 -40.5
zM408 600l-280 85l34 113l282 -81z" />
    <glyph glyph-name="oacute" unicode="&#xf3;" horiz-adv-x="610" 
d="M443 482q62 -35 97 -95.5t35 -133.5t-35 -133.5t-97 -95.5t-139 -35q-76 0 -137.5 35t-96.5 95.5t-35 133.5t35 133.5t96.5 95.5t137.5 35q77 0 139 -35zM208 359.5q-38 -40.5 -38 -105.5t38 -106t96 -41q60 0 98 40.5t38 106.5q0 65 -38 105.5t-98 40.5q-58 0 -96 -40.5
zM506 666l-280 -85l-36 117l283 84z" />
    <glyph glyph-name="ocircumflex" unicode="&#xf4;" horiz-adv-x="610" 
d="M443 482q62 -35 97 -95.5t35 -133.5t-35 -133.5t-97 -95.5t-139 -35q-76 0 -137.5 35t-96.5 95.5t-35 133.5t35 133.5t96.5 95.5t137.5 35q77 0 139 -35zM208 359.5q-38 -40.5 -38 -105.5t38 -106t96 -41q60 0 98 40.5t38 106.5q0 65 -38 105.5t-98 40.5q-58 0 -96 -40.5
zM433 591l-127 73l-128 -73l-55 80l182 115l183 -115z" />
    <glyph glyph-name="otilde" unicode="&#xf5;" horiz-adv-x="610" 
d="M443 482q62 -35 97 -95.5t35 -133.5t-35 -133.5t-97 -95.5t-139 -35q-76 0 -137.5 35t-96.5 95.5t-35 133.5t35 133.5t96.5 95.5t137.5 35q77 0 139 -35zM208 359.5q-38 -40.5 -38 -105.5t38 -106t96 -41q60 0 98 40.5t38 106.5q0 65 -38 105.5t-98 40.5q-58 0 -96 -40.5
zM476 677.5q-18 -34.5 -43 -55.5t-52 -21q-18 0 -35 7.5t-38 20.5q-17 10 -29 15.5t-23 5.5q-17 0 -30 -12.5t-32 -39.5l-74 55q34 54 64.5 82t72.5 28q20 0 37 -6.5t39 -18.5q11 -7 22.5 -12t20.5 -5q14 0 24 9t23 32l74 -45q-3 -5 -21 -39.5z" />
    <glyph glyph-name="odieresis" unicode="&#xf6;" horiz-adv-x="610" 
d="M443 482q62 -35 97 -95.5t35 -133.5t-35 -133.5t-97 -95.5t-139 -35q-76 0 -137.5 35t-96.5 95.5t-35 133.5t35 133.5t96.5 95.5t137.5 35q77 0 139 -35zM208 359.5q-38 -40.5 -38 -105.5t38 -106t96 -41q60 0 98 40.5t38 106.5q0 65 -38 105.5t-98 40.5q-58 0 -96 -40.5
zM246 627q-26 -26 -63 -26q-36 0 -62 26t-26 61q0 37 25.5 63t62.5 26t63 -26t26 -63q0 -35 -26 -61zM490 626.5q-26 -25.5 -63 -25.5q-36 0 -62 26t-26 61q0 37 25.5 63t62.5 26t63 -26t26 -63q0 -36 -26 -61.5z" />
    <glyph glyph-name="divide" unicode="&#xf7;" horiz-adv-x="448" 
d="M30 335h398v-118h-398v118zM160.5 551q26.5 26 63.5 26q38 0 64 -26t26 -64q0 -37 -26.5 -63t-63.5 -26t-63.5 26t-26.5 63q0 38 26.5 64zM160.5 136q26.5 26 63.5 26q38 0 64 -26t26 -64q0 -37 -26.5 -63t-63.5 -26t-63.5 26t-26.5 63q0 38 26.5 64z" />
    <glyph glyph-name="oslash" unicode="&#xf8;" horiz-adv-x="610" 
d="M536 393q39 -63 39 -140q0 -73 -35 -133.5t-97 -95.5t-139 -35q-36 0 -65 7l-44 -114l-65 25l44 113q-64 33 -101.5 95.5t-37.5 137.5q0 73 35 133.5t96.5 95.5t137.5 35q32 0 60 -6l45 115l64 -26l-43 -111q67 -33 106 -96zM183 187q13 -30 36 -50l102 262q-6 1 -17 1
q-58 0 -96 -40.5t-38 -105.5q0 -37 13 -67zM402 147.5q38 40.5 38 106.5q0 39 -14.5 70t-39.5 50l-103 -265q14 -2 21 -2q60 0 98 40.5z" />
    <glyph glyph-name="ugrave" unicode="&#xf9;" horiz-adv-x="588" 
d="M523 0h-134v65q-48 -76 -146 -76q-81 0 -134.5 52t-53.5 152v311h136v-297q0 -48 23.5 -75.5t62.5 -27.5q47 0 78 36t31 97v267h137v-504zM356 600l-280 85l34 113l282 -81z" />
    <glyph glyph-name="uacute" unicode="&#xfa;" horiz-adv-x="588" 
d="M523 0h-134v65q-48 -76 -146 -76q-81 0 -134.5 52t-53.5 152v311h136v-297q0 -48 23.5 -75.5t62.5 -27.5q47 0 78 36t31 97v267h137v-504zM499 666l-280 -85l-36 117l283 84z" />
    <glyph glyph-name="ucircumflex" unicode="&#xfb;" horiz-adv-x="588" 
d="M523 0h-134v65q-48 -76 -146 -76q-81 0 -134.5 52t-53.5 152v311h136v-297q0 -48 23.5 -75.5t62.5 -27.5q47 0 78 36t31 97v267h137v-504zM417 591l-127 73l-128 -73l-55 80l182 115l183 -115z" />
    <glyph glyph-name="udieresis" unicode="&#xfc;" horiz-adv-x="588" 
d="M523 0h-134v65q-48 -76 -146 -76q-81 0 -134.5 52t-53.5 152v311h136v-297q0 -48 23.5 -75.5t62.5 -27.5q47 0 78 36t31 97v267h137v-504zM226 627q-26 -26 -63 -26q-36 0 -62 26t-26 61q0 37 25.5 63t62.5 26t63 -26t26 -63q0 -35 -26 -61zM470 626.5
q-26 -25.5 -63 -25.5q-36 0 -62 26t-26 61q0 37 25.5 63t62.5 26t63 -26t26 -63q0 -36 -26 -61.5z" />
    <glyph glyph-name="yacute" unicode="&#xfd;" horiz-adv-x="611" 
d="M546 19q0 -79 -37 -136.5t-97.5 -87t-129.5 -29.5q-89 0 -158.5 48t-93.5 135l122 44q12 -55 49 -83t86 -28q56 0 90.5 32.5t34.5 94.5v73q-21 -35 -60.5 -56t-81.5 -21q-54 0 -101 23.5t-75.5 69.5t-28.5 112v294h136v-276q0 -49 25 -78.5t73 -29.5q52 0 81.5 37
t29.5 100v247h136v-485zM506 666l-280 -85l-36 117l283 84z" />
    <glyph glyph-name="thorn" unicode="&#xfe;" horiz-adv-x="649" 
d="M488 483q56 -30 91 -89.5t35 -141.5q0 -83 -36 -142.5t-95 -90t-126 -30.5q-97 0 -156 65v-275h-136l1 921h136l-1 -268q24 37 71 59t98 22q62 0 118 -30zM440.5 144q38.5 41 38.5 109t-37.5 107t-96.5 39q-58 0 -100.5 -37.5t-42.5 -111.5q0 -70 39 -108.5t99 -38.5
q62 0 100.5 41z" />
    <glyph glyph-name="ydieresis" unicode="&#xff;" horiz-adv-x="611" 
d="M546 19q0 -79 -37 -136.5t-97.5 -87t-129.5 -29.5q-89 0 -158.5 48t-93.5 135l122 44q12 -55 49 -83t86 -28q56 0 90.5 32.5t34.5 94.5v73q-21 -35 -60.5 -56t-81.5 -21q-54 0 -101 23.5t-75.5 69.5t-28.5 112v294h136v-276q0 -49 25 -78.5t73 -29.5q52 0 81.5 37
t29.5 100v247h136v-485zM250 627q-26 -26 -63 -26q-36 0 -62 26t-26 61q0 37 25.5 63t62.5 26t63 -26t26 -63q0 -35 -26 -61zM494 626.5q-26 -25.5 -63 -25.5q-36 0 -62 26t-26 61q0 37 25.5 63t62.5 26t63 -26t26 -63q0 -36 -26 -61.5z" />
    <glyph glyph-name="Amacron" unicode="&#x100;" 
d="M484 159h-258l-59 -159h-152l273 700h134l273 -700h-152zM436 289l-81 219l-81 -219h162zM520 881v-121h-329v121h329z" />
    <glyph glyph-name="amacron" unicode="&#x101;" horiz-adv-x="704" 
d="M649.5 3q-28.5 -13 -59.5 -13q-47 0 -81 29.5t-41 74.5q-22 -46 -71.5 -75.5t-113.5 -29.5q-65 0 -121.5 31t-91.5 90t-35 140q0 84 37 144.5t97 91.5t127 31q50 0 88.5 -18.5t61.5 -55.5v61h135v-359q0 -19 9.5 -28.5t24.5 -9.5q21 0 37 14l42 -82q-16 -23 -44.5 -36z
M371 124.5q32 18.5 51.5 52.5t19.5 78t-18.5 77.5t-50 51.5t-68.5 18q-36 0 -67 -18t-49.5 -52t-18.5 -79q0 -44 18 -77.5t48 -51.5t66 -18q37 0 69 18.5zM483 711v-111h-329v111h329z" />
    <glyph glyph-name="Abreve" unicode="&#x102;" 
d="M484 159h-258l-59 -159h-152l273 700h134l273 -700h-152zM436 289l-81 219l-81 -219h162zM509 919q0 -67 -38 -112.5t-116 -45.5t-116 45.5t-38 112.5h93q0 -29 14 -48t45 -19q34 0 48.5 18.5t14.5 48.5h93z" />
    <glyph glyph-name="abreve" unicode="&#x103;" horiz-adv-x="704" 
d="M649.5 3q-28.5 -13 -59.5 -13q-47 0 -81 29.5t-41 74.5q-22 -46 -71.5 -75.5t-113.5 -29.5q-65 0 -121.5 31t-91.5 90t-35 140q0 84 37 144.5t97 91.5t127 31q50 0 88.5 -18.5t61.5 -55.5v61h135v-359q0 -19 9.5 -28.5t24.5 -9.5q21 0 37 14l42 -82q-16 -23 -44.5 -36z
M371 124.5q32 18.5 51.5 52.5t19.5 78t-18.5 77.5t-50 51.5t-68.5 18q-36 0 -67 -18t-49.5 -52t-18.5 -79q0 -44 18 -77.5t48 -51.5t66 -18q37 0 69 18.5zM482 758q0 -67 -38 -112.5t-116 -45.5t-116 45.5t-38 112.5h93q0 -30 14.5 -48t46.5 -19q32 1 46.5 19t14.5 48h93z
" />
    <glyph glyph-name="Aogonek" unicode="&#x104;" 
d="M560.5 -115q21.5 -12 60.5 -10v-86q-79 3 -124 31t-45 75q0 36 24 65t64 49l-56 150h-258l-59 -159h-152l273 700h134l273 -700h-105q-23 -17 -37 -39.5t-14 -41.5q0 -22 21.5 -34zM436 289l-81 219l-81 -219h162z" />
    <glyph glyph-name="aogonek" unicode="&#x105;" horiz-adv-x="704" 
d="M552.5 -45q-10.5 -19 -10.5 -36q0 -22 21.5 -34t60.5 -10v-86q-79 3 -124 31t-45 75q0 65 78 108q-26 14 -43.5 37.5t-21.5 53.5q-22 -46 -71.5 -75.5t-113.5 -29.5q-65 0 -121.5 31t-91.5 90t-35 140q0 84 37 144.5t97 91.5t127 31q50 0 88.5 -18.5t61.5 -55.5v61h135
v-359q0 -19 9.5 -28.5t24.5 -9.5q21 0 37 14l42 -82q-16 -23 -44.5 -36t-59.5 -13h-9q-18 -16 -28.5 -35zM371 124.5q32 18.5 51.5 52.5t19.5 78t-18.5 77.5t-50 51.5t-68.5 18q-36 0 -67 -18t-49.5 -52t-18.5 -79q0 -44 18 -77.5t48 -51.5t66 -18q37 0 69 18.5z" />
    <glyph glyph-name="Cacute" unicode="&#x106;" horiz-adv-x="743" 
d="M585.5 41q-87.5 -57 -193.5 -57q-94 0 -173 44t-126.5 126.5t-47.5 192.5q0 116 51.5 199.5t135.5 126.5t177 43q78 0 151 -31.5t125 -98.5l-99 -94q-31 49 -78.5 70.5t-101.5 21.5q-62 0 -112 -25.5t-79 -77t-29 -127.5q0 -73 28 -127t76 -82.5t108 -28.5q70 0 123 38
t82 111l115 -61q-45 -106 -132.5 -163zM663 825l-280 -85l-36 117l283 84z" />
    <glyph glyph-name="cacute" unicode="&#x107;" horiz-adv-x="548" 
d="M431.5 26.5q-62.5 -37.5 -136.5 -37.5q-64 0 -124 28.5t-98 87.5t-38 145t38 146.5t98 90.5t126 30q62 0 120.5 -26.5t98.5 -80.5l-96 -81q-47 69 -119 69q-52 0 -91.5 -35.5t-39.5 -107.5q0 -49 20 -82t50.5 -48.5t62.5 -15.5q39 0 73.5 23.5t58.5 70.5l98 -70
q-39 -69 -101.5 -106.5zM523 666l-280 -85l-36 117l283 84z" />
    <glyph glyph-name="Ccircumflex" unicode="&#x108;" horiz-adv-x="743" 
d="M585.5 41q-87.5 -57 -193.5 -57q-94 0 -173 44t-126.5 126.5t-47.5 192.5q0 116 51.5 199.5t135.5 126.5t177 43q78 0 151 -31.5t125 -98.5l-99 -94q-31 49 -78.5 70.5t-101.5 21.5q-62 0 -112 -25.5t-79 -77t-29 -127.5q0 -73 28 -127t76 -82.5t108 -28.5q70 0 123 38
t82 111l115 -61q-45 -106 -132.5 -163zM530 750l-127 73l-128 -73l-55 80l182 115l183 -115z" />
    <glyph glyph-name="ccircumflex" unicode="&#x109;" horiz-adv-x="548" 
d="M431.5 26.5q-62.5 -37.5 -136.5 -37.5q-64 0 -124 28.5t-98 87.5t-38 145t38 146.5t98 90.5t126 30q62 0 120.5 -26.5t98.5 -80.5l-96 -81q-47 69 -119 69q-52 0 -91.5 -35.5t-39.5 -107.5q0 -49 20 -82t50.5 -48.5t62.5 -15.5q39 0 73.5 23.5t58.5 70.5l98 -70
q-39 -69 -101.5 -106.5zM442 591l-127 73l-128 -73l-55 80l182 115l183 -115z" />
    <glyph glyph-name="Cdotaccent" unicode="&#x10a;" horiz-adv-x="743" 
d="M585.5 41q-87.5 -57 -193.5 -57q-94 0 -173 44t-126.5 126.5t-47.5 192.5q0 116 51.5 199.5t135.5 126.5t177 43q78 0 151 -31.5t125 -98.5l-99 -94q-31 49 -78.5 70.5t-101.5 21.5q-62 0 -112 -25.5t-79 -77t-29 -127.5q0 -73 28 -127t76 -82.5t108 -28.5q70 0 123 38
t82 111l115 -61q-45 -106 -132.5 -163zM354 911q25 26 62 26t63 -26t26 -63q0 -36 -26 -61.5t-63 -25.5t-62 25.5t-25 61.5q0 37 25 63z" />
    <glyph glyph-name="cdotaccent" unicode="&#x10b;" horiz-adv-x="548" 
d="M431.5 26.5q-62.5 -37.5 -136.5 -37.5q-64 0 -124 28.5t-98 87.5t-38 145t38 146.5t98 90.5t126 30q62 0 120.5 -26.5t98.5 -80.5l-96 -81q-47 69 -119 69q-52 0 -91.5 -35.5t-39.5 -107.5q0 -49 20 -82t50.5 -48.5t62.5 -15.5q39 0 73.5 23.5t58.5 70.5l98 -70
q-39 -69 -101.5 -106.5zM242 751q25 26 62 26t63 -26t26 -63q0 -36 -26 -61.5t-63 -25.5t-62 25.5t-25 61.5q0 37 25 63z" />
    <glyph glyph-name="Ccaron" unicode="&#x10c;" horiz-adv-x="743" 
d="M585.5 41q-87.5 -57 -193.5 -57q-94 0 -173 44t-126.5 126.5t-47.5 192.5q0 116 51.5 199.5t135.5 126.5t177 43q78 0 151 -31.5t125 -98.5l-99 -94q-31 49 -78.5 70.5t-101.5 21.5q-62 0 -112 -25.5t-79 -77t-29 -127.5q0 -73 28 -127t76 -82.5t108 -28.5q70 0 123 38
t82 111l115 -61q-45 -106 -132.5 -163zM419 750l-182 115l53 79l130 -79l129 79l53 -79z" />
    <glyph glyph-name="ccaron" unicode="&#x10d;" horiz-adv-x="548" 
d="M431.5 26.5q-62.5 -37.5 -136.5 -37.5q-64 0 -124 28.5t-98 87.5t-38 145t38 146.5t98 90.5t126 30q62 0 120.5 -26.5t98.5 -80.5l-96 -81q-47 69 -119 69q-52 0 -91.5 -35.5t-39.5 -107.5q0 -49 20 -82t50.5 -48.5t62.5 -15.5q39 0 73.5 23.5t58.5 70.5l98 -70
q-39 -69 -101.5 -106.5zM299 591l-182 115l53 79l130 -79l129 79l53 -79z" />
    <glyph glyph-name="Dcaron" unicode="&#x10e;" horiz-adv-x="722" 
d="M75 700h248q111 0 191 -48.5t121.5 -126.5t41.5 -167q0 -90 -42 -172t-126 -134t-202 -52h-232v700zM215 580v-460h103q70 0 119 31t74 83.5t25 115.5t-24.5 115t-72.5 83.5t-116 31.5h-108zM321 750l-182 115l53 79l130 -79l129 79l53 -79z" />
    <glyph glyph-name="dcaron" unicode="&#x10f;" horiz-adv-x="950" 
d="M381.5 496q42.5 -21 66.5 -60v264h136v-700h-135v62q-60 -73 -159 -73q-66 0 -124.5 30.5t-94.5 90.5t-36 144t35 143.5t92 89.5t122 30q55 0 97.5 -21zM408 142q39 39 39 111q0 76 -41.5 113t-98.5 37q-60 0 -98.5 -39.5t-38.5 -109.5q0 -69 38.5 -110t100.5 -41
q60 0 99 39zM787 717l143 -56l-132 -298l-114 47z" />
    <glyph glyph-name="Dcroat" unicode="&#x110;" horiz-adv-x="724" 
d="M516 651.5q80 -48.5 121.5 -126.5t41.5 -167q0 -90 -42 -172t-126 -134t-202 -52h-232v311h-112v79h112v310h248q111 0 191 -48.5zM439 151q49 31 74 83.5t25 115.5t-24.5 115t-72.5 83.5t-116 31.5h-108v-190h136v-79h-136v-191h103q70 0 119 31z" />
    <glyph glyph-name="dcroat" unicode="&#x111;" horiz-adv-x="703" 
d="M683 578h-99v-578h-135v62q-60 -73 -159 -73q-66 0 -124.5 30.5t-94.5 90.5t-36 144t35 143.5t92 89.5t122 30q55 0 97.5 -21t66.5 -60v142h-100v54h100v68h136v-68h99v-54zM408 142q39 39 39 111q0 76 -41.5 113t-98.5 37q-60 0 -98.5 -39.5t-38.5 -109.5
q0 -69 38.5 -110t100.5 -41q60 0 99 39z" />
    <glyph glyph-name="Emacron" unicode="&#x112;" horiz-adv-x="563" 
d="M215 580v-170h227v-121h-227v-169h293v-120h-433v700h424v-120h-284zM456 881v-121h-329v121h329z" />
    <glyph glyph-name="emacron" unicode="&#x113;" horiz-adv-x="562" 
d="M523 200h-349q8 -48 44.5 -69.5t83.5 -21.5q43 0 78.5 17t59.5 50l83 -82q-41 -51 -98 -78t-124 -27q-70 0 -130.5 29.5t-98 88.5t-37.5 144q0 84 36.5 144t95.5 91t126 31q63 0 116.5 -29t85.5 -86t32 -138q0 -28 -4 -64zM364 376q-30 26 -76 26q-47 0 -77.5 -27.5
t-36.5 -71.5h224q-4 47 -34 73zM471 711v-111h-329v111h329z" />
    <glyph glyph-name="Ebreve" unicode="&#x114;" horiz-adv-x="563" 
d="M215 580v-170h227v-121h-227v-169h293v-120h-433v700h424v-120h-284zM455 919q0 -67 -38 -112.5t-116 -45.5t-116 45.5t-38 112.5h93q0 -29 14 -48t45 -19q34 0 48.5 18.5t14.5 48.5h93z" />
    <glyph glyph-name="ebreve" unicode="&#x115;" horiz-adv-x="562" 
d="M523 200h-349q8 -48 44.5 -69.5t83.5 -21.5q43 0 78.5 17t59.5 50l83 -82q-41 -51 -98 -78t-124 -27q-70 0 -130.5 29.5t-98 88.5t-37.5 144q0 84 36.5 144t95.5 91t126 31q63 0 116.5 -29t85.5 -86t32 -138q0 -28 -4 -64zM364 376q-30 26 -76 26q-47 0 -77.5 -27.5
t-36.5 -71.5h224q-4 47 -34 73zM456 758q0 -67 -38 -112.5t-116 -45.5t-116 45.5t-38 112.5h93q0 -30 14.5 -48t46.5 -19q32 1 46.5 19t14.5 48h93z" />
    <glyph glyph-name="Edotaccent" unicode="&#x116;" horiz-adv-x="563" 
d="M215 580v-170h227v-121h-227v-169h293v-120h-433v700h424v-120h-284zM242 911q25 26 62 26t63 -26t26 -63q0 -36 -26 -61.5t-63 -25.5t-62 25.5t-25 61.5q0 37 25 63z" />
    <glyph glyph-name="edotaccent" unicode="&#x117;" horiz-adv-x="562" 
d="M523 200h-349q8 -48 44.5 -69.5t83.5 -21.5q43 0 78.5 17t59.5 50l83 -82q-41 -51 -98 -78t-124 -27q-70 0 -130.5 29.5t-98 88.5t-37.5 144q0 84 36.5 144t95.5 91t126 31q63 0 116.5 -29t85.5 -86t32 -138q0 -28 -4 -64zM364 376q-30 26 -76 26q-47 0 -77.5 -27.5
t-36.5 -71.5h224q-4 47 -34 73zM230 751q25 26 62 26t63 -26t26 -63q0 -36 -26 -61.5t-63 -25.5t-62 25.5t-25 61.5q0 37 25 63z" />
    <glyph glyph-name="Eogonek" unicode="&#x118;" horiz-adv-x="563" 
d="M440 -39.5q-14 -22.5 -14 -41.5q0 -22 21.5 -34t60.5 -10v-86q-79 3 -124 31t-45 75q0 62 72 105h-336v700h424v-120h-284v-170h227v-121h-227v-169h293v-120h-31q-23 -17 -37 -39.5z" />
    <glyph glyph-name="eogonek" unicode="&#x119;" horiz-adv-x="562" 
d="M523 200h-349q8 -48 44.5 -69.5t83.5 -21.5q43 0 78.5 17t59.5 50l83 -82q-37 -46 -87 -72.5t-109 -31.5q-18 -17 -28.5 -36t-10.5 -35q0 -22 21.5 -34t60.5 -10v-86q-79 3 -124 31t-45 75q0 55 59 97q-62 8 -113 39.5t-81.5 87.5t-30.5 132q0 84 36.5 144t95.5 91
t126 31q63 0 116.5 -29t85.5 -86t32 -138q0 -28 -4 -64zM398 303q-4 47 -34 73t-76 26q-47 0 -77.5 -27.5t-36.5 -71.5h224z" />
    <glyph glyph-name="Ecaron" unicode="&#x11a;" horiz-adv-x="563" 
d="M215 580v-170h227v-121h-227v-169h293v-120h-433v700h424v-120h-284zM292 750l-182 115l53 79l130 -79l129 79l53 -79z" />
    <glyph glyph-name="ecaron" unicode="&#x11b;" horiz-adv-x="562" 
d="M523 200h-349q8 -48 44.5 -69.5t83.5 -21.5q43 0 78.5 17t59.5 50l83 -82q-41 -51 -98 -78t-124 -27q-70 0 -130.5 29.5t-98 88.5t-37.5 144q0 84 36.5 144t95.5 91t126 31q63 0 116.5 -29t85.5 -86t32 -138q0 -28 -4 -64zM364 376q-30 26 -76 26q-47 0 -77.5 -27.5
t-36.5 -71.5h224q-4 47 -34 73zM303 591l-182 115l53 79l130 -79l129 79l53 -79z" />
    <glyph glyph-name="Gcircumflex" unicode="&#x11c;" horiz-adv-x="749" 
d="M684 394v-311q-61 -49 -132 -74t-143 -25q-97 0 -180.5 43.5t-133.5 126.5t-50 196q0 114 51.5 197t134.5 126t175 43q79 0 152 -32.5t125 -97.5l-97 -96q-62 95 -178 95q-61 0 -111 -25.5t-79 -77t-29 -126.5q0 -78 31.5 -132t83 -81.5t111.5 -27.5q70 0 129 32v115
h-154v132h294zM523 750l-127 73l-128 -73l-55 80l182 115l183 -115z" />
    <glyph glyph-name="gcircumflex" unicode="&#x11d;" horiz-adv-x="636" 
d="M581 31q0 -84 -39.5 -144.5t-103.5 -91t-137 -30.5q-90 0 -162 46t-101 128l125 48q15 -51 56 -78.5t91 -27.5q58 0 97.5 37.5t39.5 102.5v66q-24 -38 -65 -60t-97 -22q-64 0 -121.5 29t-93 86t-35.5 139t36.5 140.5t96 88t126.5 29.5q53 0 92.5 -20t59.5 -55v62h135
v-473zM403 157.5q42 38.5 42 104.5q0 44 -19.5 76.5t-50.5 49t-66 16.5q-36 0 -68 -16t-51.5 -48.5t-19.5 -79.5q0 -71 38.5 -106t93.5 -35q59 0 101 38.5zM424 591l-127 73l-128 -73l-55 80l182 115l183 -115z" />
    <glyph glyph-name="Gbreve" unicode="&#x11e;" horiz-adv-x="749" 
d="M684 394v-311q-61 -49 -132 -74t-143 -25q-97 0 -180.5 43.5t-133.5 126.5t-50 196q0 114 51.5 197t134.5 126t175 43q79 0 152 -32.5t125 -97.5l-97 -96q-62 95 -178 95q-61 0 -111 -25.5t-79 -77t-29 -126.5q0 -78 31.5 -132t83 -81.5t111.5 -27.5q70 0 129 32v115
h-154v132h294zM566 919q0 -67 -38 -112.5t-116 -45.5t-116 45.5t-38 112.5h93q0 -29 14 -48t45 -19q34 0 48.5 18.5t14.5 48.5h93z" />
    <glyph glyph-name="gbreve" unicode="&#x11f;" horiz-adv-x="636" 
d="M581 31q0 -84 -39.5 -144.5t-103.5 -91t-137 -30.5q-90 0 -162 46t-101 128l125 48q15 -51 56 -78.5t91 -27.5q58 0 97.5 37.5t39.5 102.5v66q-24 -38 -65 -60t-97 -22q-64 0 -121.5 29t-93 86t-35.5 139t36.5 140.5t96 88t126.5 29.5q53 0 92.5 -20t59.5 -55v62h135
v-473zM403 157.5q42 38.5 42 104.5q0 44 -19.5 76.5t-50.5 49t-66 16.5q-36 0 -68 -16t-51.5 -48.5t-19.5 -79.5q0 -71 38.5 -106t93.5 -35q59 0 101 38.5zM471 758q0 -67 -38 -112.5t-116 -45.5t-116 45.5t-38 112.5h93q0 -30 14.5 -48t46.5 -19q32 1 46.5 19t14.5 48h93z
" />
    <glyph glyph-name="Gdotaccent" unicode="&#x120;" horiz-adv-x="749" 
d="M684 394v-311q-61 -49 -132 -74t-143 -25q-97 0 -180.5 43.5t-133.5 126.5t-50 196q0 114 51.5 197t134.5 126t175 43q79 0 152 -32.5t125 -97.5l-97 -96q-62 95 -178 95q-61 0 -111 -25.5t-79 -77t-29 -126.5q0 -78 31.5 -132t83 -81.5t111.5 -27.5q70 0 129 32v115
h-154v132h294zM345 911q25 26 62 26t63 -26t26 -63q0 -36 -26 -61.5t-63 -25.5t-62 25.5t-25 61.5q0 37 25 63z" />
    <glyph glyph-name="gdotaccent" unicode="&#x121;" horiz-adv-x="636" 
d="M581 31q0 -84 -39.5 -144.5t-103.5 -91t-137 -30.5q-90 0 -162 46t-101 128l125 48q15 -51 56 -78.5t91 -27.5q58 0 97.5 37.5t39.5 102.5v66q-24 -38 -65 -60t-97 -22q-64 0 -121.5 29t-93 86t-35.5 139t36.5 140.5t96 88t126.5 29.5q53 0 92.5 -20t59.5 -55v62h135
v-473zM403 157.5q42 38.5 42 104.5q0 44 -19.5 76.5t-50.5 49t-66 16.5q-36 0 -68 -16t-51.5 -48.5t-19.5 -79.5q0 -71 38.5 -106t93.5 -35q59 0 101 38.5zM255 751q25 26 62 26t63 -26t26 -63q0 -36 -26 -61.5t-63 -25.5t-62 25.5t-25 61.5q0 37 25 63z" />
    <glyph glyph-name="Gcommaaccent" unicode="&#x122;" horiz-adv-x="749" 
d="M684 394v-311q-61 -49 -132 -74t-143 -25q-97 0 -180.5 43.5t-133.5 126.5t-50 196q0 114 51.5 197t134.5 126t175 43q79 0 152 -32.5t125 -97.5l-97 -96q-62 95 -178 95q-61 0 -111 -25.5t-79 -77t-29 -126.5q0 -78 31.5 -132t83 -81.5t111.5 -27.5q70 0 129 32v115
h-154v132h294zM355 -36l143 -56l-132 -298l-114 47z" />
    <glyph glyph-name="gcommaaccent" unicode="&#x123;" horiz-adv-x="636" 
d="M368 575l-143 56l132 298l114 -47zM581 31q0 -84 -39.5 -144.5t-103.5 -91t-137 -30.5q-90 0 -162 46t-101 128l125 48q15 -51 56 -78.5t91 -27.5q58 0 97.5 37.5t39.5 102.5v66q-24 -38 -65 -60t-97 -22q-64 0 -121.5 29t-93 86t-35.5 139t36.5 140.5t96 88t126.5 29.5
q53 0 92.5 -20t59.5 -55v62h135v-473zM403 157.5q42 38.5 42 104.5q0 44 -19.5 76.5t-50.5 49t-66 16.5q-36 0 -68 -16t-51.5 -48.5t-19.5 -79.5q0 -71 38.5 -106t93.5 -35q59 0 101 38.5z" />
    <glyph glyph-name="Hcircumflex" unicode="&#x124;" horiz-adv-x="734" 
d="M75 700h139v-283h306v283h139v-700h-139v285h-306v-285h-139v700zM495 750l-127 73l-128 -73l-55 80l182 115l183 -115z" />
    <glyph glyph-name="hcircumflex" unicode="&#x125;" horiz-adv-x="643" 
d="M485 465.5q52 -51.5 52 -144.5v-321h-137v292q0 51 -21 80.5t-67 29.5q-53 0 -82 -38.5t-29 -100.5v-263h-136v700h135v-263q24 39 63.5 59.5t88.5 20.5q81 0 133 -51.5zM523 591l-127 73l-128 -73l-55 80l182 115l183 -115z" />
    <glyph glyph-name="Hbar" unicode="&#x126;" horiz-adv-x="777" 
d="M757 493h-76v-493h-139v285h-306v-285h-139v493h-77v49h77v158h139v-158h306v158h139v-158h76v-49zM542 493h-306v-76h306v76z" />
    <glyph glyph-name="hbar" unicode="&#x127;" horiz-adv-x="617" 
d="M500 465.5q52 -51.5 52 -144.5v-321h-137v292q0 51 -21 80.5t-67 29.5q-53 0 -82 -38.5t-29 -100.5v-263h-136v578h-60v54h60v68h135v-68h120v-54h-120v-141q24 39 63.5 59.5t88.5 20.5q81 0 133 -51.5z" />
    <glyph glyph-name="Itilde" unicode="&#x128;" horiz-adv-x="290" 
d="M75 700h140v-700h-140v700zM298 838.5q-18 -34.5 -43 -55.5t-52 -21q-18 0 -35 7.5t-38 20.5q-17 10 -29 15.5t-23 5.5q-17 0 -30 -12.5t-32 -39.5l-74 55q34 54 64.5 82t72.5 28q20 0 37 -6.5t39 -18.5q11 -7 22.5 -12t20.5 -5q14 0 24 9t23 32l74 -45q-3 -5 -21 -39.5z
" />
    <glyph glyph-name="itilde" unicode="&#x129;" horiz-adv-x="283" 
d="M74 504h136v-504h-136v504zM305 677.5q-18 -34.5 -43 -55.5t-52 -21q-18 0 -35 7.5t-38 20.5q-17 10 -29 15.5t-23 5.5q-17 0 -30 -12.5t-32 -39.5l-74 55q34 54 64.5 82t72.5 28q20 0 37 -6.5t39 -18.5q11 -7 22.5 -12t20.5 -5q14 0 24 9t23 32l74 -45q-3 -5 -21 -39.5z
" />
    <glyph glyph-name="Imacron" unicode="&#x12a;" horiz-adv-x="290" 
d="M76 700h140v-700h-140v700zM310 881v-121h-329v121h329z" />
    <glyph glyph-name="imacron" unicode="&#x12b;" horiz-adv-x="282" 
d="M73 504h136v-504h-136v504zM306 711v-111h-329v111h329z" />
    <glyph glyph-name="ibreve" unicode="&#x12d;" horiz-adv-x="284" 
d="M75 504h136v-504h-136v504zM297 758q0 -67 -38 -112.5t-116 -45.5t-116 45.5t-38 112.5h93q0 -30 14.5 -48t46.5 -19q32 1 46.5 19t14.5 48h93z" />
    <glyph glyph-name="Iogonek" unicode="&#x12e;" horiz-adv-x="290" 
d="M85 -39.5q-14 -22.5 -14 -41.5q0 -22 21.5 -34t60.5 -10v-86q-79 3 -124 31t-45 75q0 36 25 65.5t66 50.5v689h140v-700h-93q-23 -17 -37 -39.5z" />
    <glyph glyph-name="iogonek" unicode="&#x12f;" horiz-adv-x="283" 
d="M77 600q-27 27 -27 64t27 64t64 27q38 0 65 -27t27 -64t-27.5 -64t-64.5 -27t-64 27zM74 504h136v-504h-68q-23 -17 -37 -39.5t-14 -41.5q0 -22 21.5 -34t60.5 -10v-86q-79 3 -124 31t-45 75q0 62 72 105h-2v504z" />
    <glyph glyph-name="Idotaccent" unicode="&#x130;" horiz-adv-x="290" 
d="M75 700h140v-700h-140v700zM82 911q25 26 62 26t63 -26t26 -63q0 -36 -26 -61.5t-63 -25.5t-62 25.5t-25 61.5q0 37 25 63z" />
    <glyph glyph-name="dotlessi" unicode="&#x131;" horiz-adv-x="283" 
d="M74 504h136v-504h-136v504z" />
    <glyph glyph-name="IJ" unicode="&#x132;" horiz-adv-x="787" 
d="M50 700h140v-700h-140v700zM722 700v-491q0 -72 -31 -123t-81.5 -76.5t-107.5 -25.5q-54 0 -102 23t-80.5 68.5t-39.5 109.5l136 26q5 -48 26.5 -72t57.5 -24t58.5 24.5t22.5 72.5v488h141z" />
    <glyph glyph-name="ij" unicode="&#x133;" horiz-adv-x="588" 
d="M77 728q27 27 64 27q38 0 65 -27t27 -64t-27.5 -64t-64.5 -27t-64 27t-27 64t27 64zM74 504h136v-504h-136v504zM376.5 728q26.5 27 63.5 27q38 0 65.5 -27t27.5 -64t-27.5 -64t-65.5 -27q-37 0 -63.5 27t-26.5 64t26.5 64zM372 504h137v-561q0 -58 -24.5 -98
t-64.5 -59.5t-87 -19.5q-36 0 -71 11.5t-64 33.5l60 96q26 -25 59 -25q25 0 40 16t15 48v558z" />
    <glyph glyph-name="Jcircumflex" unicode="&#x134;" horiz-adv-x="522" 
d="M457 700v-491q0 -72 -31 -123t-81.5 -76.5t-107.5 -25.5q-54 0 -102 23t-80.5 68.5t-39.5 109.5l136 26q5 -48 26.5 -72t57.5 -24t58.5 24.5t22.5 72.5v488h141zM512 750l-127 73l-128 -73l-55 80l182 115l183 -115z" />
    <glyph glyph-name="jcircumflex" unicode="&#x135;" horiz-adv-x="305" 
d="M283 591l-127 73l-128 -73l-55 80l182 115l183 -115zM90 504h136v-561q0 -58 -24.5 -98t-64.5 -59.5t-87 -19.5q-36 0 -71 11.5t-64 33.5l60 96q26 -25 59 -25q25 0 40.5 16t15.5 48v558z" />
    <glyph glyph-name="Kcommaaccent" unicode="&#x136;" horiz-adv-x="691" 
d="M215 297v-297h-140v700h140v-291l266 291h182l-319 -339l337 -361h-193zM319 -36l143 -56l-132 -298l-114 47z" />
    <glyph glyph-name="kcommaaccent" unicode="&#x137;" horiz-adv-x="596" 
d="M202 204l-1 -204h-136v700h136v-380l179 184h187l-237 -233l266 -271h-190zM268 -26l143 -56l-132 -298l-114 47z" />
    <glyph glyph-name="kgreenlandic" unicode="&#x138;" horiz-adv-x="586" 
d="M192 204l-1 -204h-136v504h136v-184l179 184h187l-237 -233l266 -271h-190z" />
    <glyph glyph-name="Lacute" unicode="&#x139;" horiz-adv-x="520" 
d="M215 700v-580h280v-120h-420v700h140zM427 825l-280 -85l-36 117l283 84z" />
    <glyph glyph-name="lacute" unicode="&#x13a;" horiz-adv-x="347" 
d="M238 -11q-74 0 -123.5 44t-49.5 133v534h136v-532q0 -33 18 -48.5t45 -15.5q16 0 36 10l47 -99q-55 -26 -109 -26zM395 825l-280 -85l-36 117l283 84z" />
    <glyph glyph-name="Lcommaaccent" unicode="&#x13b;" horiz-adv-x="520" 
d="M215 700v-580h280v-120h-420v700h140zM262 -36l143 -56l-132 -298l-114 47z" />
    <glyph glyph-name="lcommaaccent" unicode="&#x13c;" horiz-adv-x="347" 
d="M238 -11q-74 0 -123.5 44t-49.5 133v534h136v-532q0 -33 18 -48.5t45 -15.5q16 0 36 10l47 -99q-55 -26 -109 -26zM137 -37l143 -56l-132 -298l-114 47z" />
    <glyph glyph-name="Lcaron" unicode="&#x13d;" 
d="M215 700v-580h280v-120h-420v700h140zM547 750l143 -56l-132 -298l-114 47z" />
    <glyph glyph-name="lcaron" unicode="&#x13e;" horiz-adv-x="566" 
d="M238 -11q-74 0 -123.5 44t-49.5 133v534h136v-532q0 -33 18 -48.5t45 -15.5q16 0 36 10l47 -99q-55 -26 -109 -26zM403 716l143 -56l-132 -298l-114 47z" />
    <glyph glyph-name="Ldot" unicode="&#x13f;" horiz-adv-x="592" 
d="M215 700v-580h280v-120h-420v700h140zM416 564q25 26 62 26t63 -26t26 -63q0 -36 -26 -61.5t-63 -25.5t-62 25.5t-25 61.5q0 37 25 63z" />
    <glyph glyph-name="ldot" unicode="&#x140;" horiz-adv-x="464" 
d="M238 -11q-74 0 -123.5 44t-49.5 133v534h136v-532q0 -33 18 -48.5t45 -15.5q16 0 36 10l47 -99q-55 -26 -109 -26zM293 503q25 26 62 26t63 -26t26 -63q0 -36 -26 -61.5t-63 -25.5t-62 25.5t-25 61.5q0 37 25 63z" />
    <glyph glyph-name="Lslash" unicode="&#x141;" horiz-adv-x="522" 
d="M497 120v-120h-420v308l-68 -39l-36 65l104 59v307h140v-228l101 57l35 -64l-136 -77v-268h280z" />
    <glyph glyph-name="lslash" unicode="&#x142;" horiz-adv-x="349" 
d="M349 15q-55 -26 -109 -26q-74 0 -123.5 44t-49.5 133v142l-68 -39l-36 65l104 59v307h136v-230l104 59l35 -64l-139 -79v-218q0 -33 18 -48.5t45 -15.5q16 0 36 10z" />
    <glyph glyph-name="Nacute" unicode="&#x143;" horiz-adv-x="752" 
d="M75 700h133l329 -444v444h140v-700h-133l-329 440v-440h-140v700zM607 825l-280 -85l-36 117l283 84z" />
    <glyph glyph-name="nacute" unicode="&#x144;" horiz-adv-x="602" 
d="M485 465.5q52 -51.5 52 -144.5v-321h-137v292q0 51 -21 80.5t-67 29.5q-53 0 -82 -38.5t-29 -100.5v-263h-136v504h135v-62q24 37 64 56t88 19q81 0 133 -51.5zM527 666l-280 -85l-36 117l283 84z" />
    <glyph glyph-name="Ncommaaccent" unicode="&#x145;" horiz-adv-x="752" 
d="M75 700h133l329 -444v444h140v-700h-133l-329 440v-440h-140v700zM326 -6l143 -56l-132 -298l-114 47z" />
    <glyph glyph-name="ncommaaccent" unicode="&#x146;" horiz-adv-x="602" 
d="M485 465.5q52 -51.5 52 -144.5v-321h-137v292q0 51 -21 80.5t-67 29.5q-53 0 -82 -38.5t-29 -100.5v-263h-136v504h135v-62q24 37 64 56t88 19q81 0 133 -51.5zM264 -26l143 -56l-132 -298l-114 47z" />
    <glyph glyph-name="Ncaron" unicode="&#x147;" horiz-adv-x="752" 
d="M75 700h133l329 -444v444h140v-700h-133l-329 440v-440h-140v700zM388 750l-182 115l53 79l130 -79l129 79l53 -79z" />
    <glyph glyph-name="ncaron" unicode="&#x148;" horiz-adv-x="602" 
d="M485 465.5q52 -51.5 52 -144.5v-321h-137v292q0 51 -21 80.5t-67 29.5q-53 0 -82 -38.5t-29 -100.5v-263h-136v504h135v-62q24 37 64 56t88 19q81 0 133 -51.5zM319 591l-182 115l53 79l130 -79l129 79l53 -79z" />
    <glyph glyph-name="napostrophe" unicode="&#x149;" horiz-adv-x="812" 
d="M695 465.5q52 -51.5 52 -144.5v-321h-137v292q0 51 -21 80.5t-67 29.5q-53 0 -82 -38.5t-29 -100.5v-263h-136v504h135v-62q24 37 64 56t88 19q81 0 133 -51.5zM123 716l143 -56l-132 -298l-114 47z" />
    <glyph glyph-name="Eng" unicode="&#x14a;" horiz-adv-x="752" 
d="M677 700v-757q0 -58 -24.5 -98t-64.5 -59.5t-87 -19.5q-36 0 -71 11.5t-64 33.5l60 96q26 -25 59 -25q25 0 40.5 16t15.5 48v58l-326 436v-440h-140v700h133l329 -444v444h140z" />
    <glyph glyph-name="eng" unicode="&#x14b;" horiz-adv-x="592" 
d="M485 465.5q52 -51.5 52 -144.5v-378q0 -58 -24.5 -98t-64.5 -59.5t-87 -19.5q-36 0 -71 11.5t-64 33.5l60 96q26 -25 59 -25q25 0 40 16t15 48v346q0 51 -21 80.5t-67 29.5q-53 0 -82 -38.5t-29 -100.5v-263h-136v504h135v-62q24 37 64 56t88 19q81 0 133 -51.5z" />
    <glyph glyph-name="Omacron" unicode="&#x14c;" horiz-adv-x="811" 
d="M588.5 668.5q82.5 -47.5 130 -131.5t47.5 -187t-47.5 -187t-130 -131.5t-182.5 -47.5q-101 0 -183.5 47.5t-130 131.5t-47.5 187t47.5 187t130 131.5t183.5 47.5q100 0 182.5 -47.5zM294.5 556q-50.5 -29 -79.5 -82.5t-29 -123.5t29 -123.5t79.5 -82.5t111.5 -29t111 29
t79 82.5t29 123.5t-29 123.5t-79 82.5t-111 29t-111.5 -29zM570 881v-121h-329v121h329z" />
    <glyph glyph-name="omacron" unicode="&#x14d;" horiz-adv-x="610" 
d="M443 482q62 -35 97 -95.5t35 -133.5t-35 -133.5t-97 -95.5t-139 -35q-76 0 -137.5 35t-96.5 95.5t-35 133.5t35 133.5t96.5 95.5t137.5 35q77 0 139 -35zM208 359.5q-38 -40.5 -38 -105.5t38 -106t96 -41q60 0 98 40.5t38 106.5q0 65 -38 105.5t-98 40.5q-58 0 -96 -40.5
zM470 711v-111h-329v111h329z" />
    <glyph glyph-name="Obreve" unicode="&#x14e;" horiz-adv-x="811" 
d="M588.5 668.5q82.5 -47.5 130 -131.5t47.5 -187t-47.5 -187t-130 -131.5t-182.5 -47.5q-101 0 -183.5 47.5t-130 131.5t-47.5 187t47.5 187t130 131.5t183.5 47.5q100 0 182.5 -47.5zM294.5 556q-50.5 -29 -79.5 -82.5t-29 -123.5t29 -123.5t79.5 -82.5t111.5 -29t111 29
t79 82.5t29 123.5t-29 123.5t-79 82.5t-111 29t-111.5 -29zM560 919q0 -67 -38 -112.5t-116 -45.5t-116 45.5t-38 112.5h93q0 -29 14 -48t45 -19q34 0 48.5 18.5t14.5 48.5h93z" />
    <glyph glyph-name="obreve" unicode="&#x14f;" horiz-adv-x="610" 
d="M443 482q62 -35 97 -95.5t35 -133.5t-35 -133.5t-97 -95.5t-139 -35q-76 0 -137.5 35t-96.5 95.5t-35 133.5t35 133.5t96.5 95.5t137.5 35q77 0 139 -35zM208 359.5q-38 -40.5 -38 -105.5t38 -106t96 -41q60 0 98 40.5t38 106.5q0 65 -38 105.5t-98 40.5q-58 0 -96 -40.5
zM461 758q0 -67 -38 -112.5t-116 -45.5t-116 45.5t-38 112.5h93q0 -30 14.5 -48t46.5 -19q32 1 46.5 19t14.5 48h93z" />
    <glyph glyph-name="Ohungarumlaut" unicode="&#x150;" horiz-adv-x="811" 
d="M588.5 668.5q82.5 -47.5 130 -131.5t47.5 -187t-47.5 -187t-130 -131.5t-182.5 -47.5q-101 0 -183.5 47.5t-130 131.5t-47.5 187t47.5 187t130 131.5t183.5 47.5q100 0 182.5 -47.5zM294.5 556q-50.5 -29 -79.5 -82.5t-29 -123.5t29 -123.5t79.5 -82.5t111.5 -29t111 29
t79 82.5t29 123.5t-29 123.5t-79 82.5t-111 29t-111.5 -29zM376 769h-83l55 131h108zM518 769h-85l78 131h108z" />
    <glyph glyph-name="ohungarumlaut" unicode="&#x151;" horiz-adv-x="610" 
d="M443 482q62 -35 97 -95.5t35 -133.5t-35 -133.5t-97 -95.5t-139 -35q-76 0 -137.5 35t-96.5 95.5t-35 133.5t35 133.5t96.5 95.5t137.5 35q77 0 139 -35zM208 359.5q-38 -40.5 -38 -105.5t38 -106t96 -41q60 0 98 40.5t38 106.5q0 65 -38 105.5t-98 40.5q-58 0 -96 -40.5
zM268 600h-83l55 131h108zM410 600h-85l78 131h108z" />
    <glyph glyph-name="OE" unicode="&#x152;" horiz-adv-x="937" 
d="M882 0h-473q-102 0 -185 45t-131 124.5t-48 180.5t48 180.5t131 124.5t185 45h465v-120h-284v-170h226v-121h-226v-169h292v-120zM409 580q-62 0 -110.5 -27.5t-76 -79.5t-27.5 -123q0 -108 57 -169t157 -61h40v460h-40z" />
    <glyph glyph-name="oe" unicode="&#x153;" horiz-adv-x="980" 
d="M941 200h-346q8 -48 43.5 -69.5t81.5 -21.5q40 0 76.5 16.5t62.5 50.5l82 -82q-41 -51 -98 -78t-124 -27q-66 0 -119 27t-89 77q-78 -104 -207 -104q-76 0 -137.5 35t-96.5 95.5t-35 133.5t35 133.5t96.5 95.5t137.5 35q129 0 208 -104q35 50 86 77t113 27
q63 0 116.5 -29t85.5 -86t32 -138q0 -28 -4 -64zM781 376q-29 26 -74 26q-48 0 -78 -27t-36 -72h221q-4 47 -33 73zM402 147.5q38 40.5 38 106.5q0 65 -38 105.5t-98 40.5q-58 0 -96 -40.5t-38 -105.5t38 -106t96 -41q60 0 98 40.5z" />
    <glyph glyph-name="Racute" unicode="&#x154;" horiz-adv-x="624" 
d="M433 0l-153 277h-65v-277h-140v700h259q69 0 119 -26.5t76.5 -72.5t26.5 -103q0 -58 -33.5 -110.5t-96.5 -78.5l178 -309h-171zM386 423.5q28 26.5 28 67.5q0 39 -26 64t-71 25h-102v-183h97q46 0 74 26.5zM523 825l-280 -85l-36 117l283 84z" />
    <glyph glyph-name="racute" unicode="&#x155;" horiz-adv-x="485" 
d="M246.5 493q31.5 18 64.5 18q54 0 77 -14l-29 -129q-23 13 -60 13q-98 0 -98 -114v-267h-136v504h135v-66q15 37 46.5 55zM481 666l-280 -85l-36 117l283 84z" />
    <glyph glyph-name="Rcommaaccent" unicode="&#x156;" horiz-adv-x="624" 
d="M433 0l-153 277h-65v-277h-140v700h259q69 0 119 -26.5t76.5 -72.5t26.5 -103q0 -58 -33.5 -110.5t-96.5 -78.5l178 -309h-171zM386 423.5q28 26.5 28 67.5q0 39 -26 64t-71 25h-102v-183h97q46 0 74 26.5zM277 -6l143 -56l-132 -298l-114 47z" />
    <glyph glyph-name="rcommaaccent" unicode="&#x157;" horiz-adv-x="392" 
d="M246.5 493q31.5 18 64.5 18q54 0 77 -14l-29 -129q-23 13 -60 13q-98 0 -98 -114v-267h-136v504h135v-66q15 37 46.5 55zM108 -36l143 -56l-132 -298l-114 47z" />
    <glyph glyph-name="Rcaron" unicode="&#x158;" horiz-adv-x="624" 
d="M433 0l-153 277h-65v-277h-140v700h259q69 0 119 -26.5t76.5 -72.5t26.5 -103q0 -58 -33.5 -110.5t-96.5 -78.5l178 -309h-171zM386 423.5q28 26.5 28 67.5q0 39 -26 64t-71 25h-102v-183h97q46 0 74 26.5zM287 750l-182 115l53 79l130 -79l129 79l53 -79z" />
    <glyph glyph-name="rcaron" unicode="&#x159;" horiz-adv-x="439" 
d="M246.5 493q31.5 18 64.5 18q54 0 77 -14l-29 -129q-23 13 -60 13q-98 0 -98 -114v-267h-136v504h135v-66q15 37 46.5 55zM252 591l-182 115l53 79l130 -79l129 79l53 -79z" />
    <glyph glyph-name="Sacute" unicode="&#x15a;" horiz-adv-x="593" 
d="M517.5 84q-35.5 -49 -93.5 -74.5t-125 -25.5q-71 0 -140.5 29t-118.5 83l85 101q33 -40 83 -62.5t98 -22.5q44 0 74 20t30 54q0 35 -31 54.5t-96 41.5t-110 45.5t-76.5 67t-31.5 110.5q0 72 36 119.5t91.5 69.5t114.5 22q63 0 121.5 -25t96.5 -70l-80 -91
q-26 31 -65.5 47.5t-73.5 16.5q-42 0 -70.5 -22t-28.5 -61q0 -30 19 -50.5t46.5 -32.5t76.5 -28q67 -22 107 -41.5t68.5 -57.5t28.5 -100q0 -68 -35.5 -117zM537 825l-280 -85l-36 117l283 84z" />
    <glyph glyph-name="sacute" unicode="&#x15b;" horiz-adv-x="532" 
d="M465 68q-31 -39 -81.5 -59t-108.5 -20q-70 0 -139 28t-106 78l87 89q33 -46 77 -64.5t90 -18.5q36 0 56.5 10t20.5 31t-22 31.5t-76 20.5q-62 12 -101.5 25.5t-69 46t-29.5 89.5q0 82 59.5 122t146.5 40q58 0 110.5 -18t89.5 -50l-73 -89q-53 46 -121 46q-42 0 -60 -14
t-18 -33q0 -18 15.5 -28.5t35.5 -15.5t69 -14q54 -10 90.5 -22.5t62.5 -41t26 -77.5q0 -53 -31 -92zM502 666l-280 -85l-36 117l283 84z" />
    <glyph glyph-name="Scircumflex" unicode="&#x15c;" horiz-adv-x="593" 
d="M517.5 84q-35.5 -49 -93.5 -74.5t-125 -25.5q-71 0 -140.5 29t-118.5 83l85 101q33 -40 83 -62.5t98 -22.5q44 0 74 20t30 54q0 35 -31 54.5t-96 41.5t-110 45.5t-76.5 67t-31.5 110.5q0 72 36 119.5t91.5 69.5t114.5 22q63 0 121.5 -25t96.5 -70l-80 -91
q-26 31 -65.5 47.5t-73.5 16.5q-42 0 -70.5 -22t-28.5 -61q0 -30 19 -50.5t46.5 -32.5t76.5 -28q67 -22 107 -41.5t68.5 -57.5t28.5 -100q0 -68 -35.5 -117zM437 750l-127 73l-128 -73l-55 80l182 115l183 -115z" />
    <glyph glyph-name="scircumflex" unicode="&#x15d;" horiz-adv-x="526" 
d="M465 68q-31 -39 -81.5 -59t-108.5 -20q-70 0 -139 28t-106 78l87 89q33 -46 77 -64.5t90 -18.5q36 0 56.5 10t20.5 31t-22 31.5t-76 20.5q-62 12 -101.5 25.5t-69 46t-29.5 89.5q0 82 59.5 122t146.5 40q58 0 110.5 -18t89.5 -50l-73 -89q-53 46 -121 46q-42 0 -60 -14
t-18 -33q0 -18 15.5 -28.5t35.5 -15.5t69 -14q54 -10 90.5 -22.5t62.5 -41t26 -77.5q0 -53 -31 -92zM397 591l-127 73l-128 -73l-55 80l182 115l183 -115z" />
    <glyph glyph-name="Scedilla" unicode="&#x15e;" horiz-adv-x="593" 
d="M520.5 88q-32.5 -48 -86.5 -74t-117 -30l-8 -24q63 -8 94.5 -38t31.5 -68q0 -28 -16.5 -53t-48 -40.5t-73.5 -15.5q-45 0 -83.5 17.5t-63.5 49.5l54 55q19 -23 41 -35t45 -12t42.5 10.5t19.5 32.5q0 50 -115 53l22 70q-61 7 -119 35t-100 75l85 101q33 -40 83 -62.5
t98 -22.5q44 0 74 20t30 54q0 35 -31 54.5t-96 41.5t-110 45.5t-76.5 67t-31.5 110.5q0 72 36 119.5t91.5 69.5t114.5 22q63 0 121.5 -25t96.5 -70l-80 -91q-26 31 -65.5 47.5t-73.5 16.5q-42 0 -70.5 -22t-28.5 -61q0 -30 19 -50.5t46.5 -32.5t76.5 -28q67 -22 107 -41.5
t68.5 -57.5t28.5 -100q0 -65 -32.5 -113z" />
    <glyph glyph-name="scedilla" unicode="&#x15f;" horiz-adv-x="526" 
d="M468.5 72.5q-27.5 -37.5 -73.5 -58.5t-100 -24l-10 -30q63 -8 94.5 -38t31.5 -68q0 -28 -16.5 -53t-48 -40.5t-73.5 -15.5q-45 0 -83.5 17.5t-63.5 49.5l54 55q19 -23 41 -35t45 -12t42.5 10.5t19.5 32.5q0 50 -115 53l24 75q-62 7 -118 34t-89 70l87 89q33 -46 77 -64.5
t90 -18.5q36 0 56.5 10t20.5 31t-22 31.5t-76 20.5q-62 12 -101.5 25.5t-69 46t-29.5 89.5q0 82 59.5 122t146.5 40q58 0 110.5 -18t89.5 -50l-73 -89q-53 46 -121 46q-42 0 -60 -14t-18 -33q0 -18 15.5 -28.5t35.5 -15.5t69 -14q54 -10 90.5 -22.5t62.5 -41t26 -77.5
q0 -50 -27.5 -87.5z" />
    <glyph glyph-name="Scaron" unicode="&#x160;" horiz-adv-x="593" 
d="M517.5 84q-35.5 -49 -93.5 -74.5t-125 -25.5q-71 0 -140.5 29t-118.5 83l85 101q33 -40 83 -62.5t98 -22.5q44 0 74 20t30 54q0 35 -31 54.5t-96 41.5t-110 45.5t-76.5 67t-31.5 110.5q0 72 36 119.5t91.5 69.5t114.5 22q63 0 121.5 -25t96.5 -70l-80 -91
q-26 31 -65.5 47.5t-73.5 16.5q-42 0 -70.5 -22t-28.5 -61q0 -30 19 -50.5t46.5 -32.5t76.5 -28q67 -22 107 -41.5t68.5 -57.5t28.5 -100q0 -68 -35.5 -117zM307 750l-182 115l53 79l130 -79l129 79l53 -79z" />
    <glyph glyph-name="scaron" unicode="&#x161;" horiz-adv-x="526" 
d="M465 68q-31 -39 -81.5 -59t-108.5 -20q-70 0 -139 28t-106 78l87 89q33 -46 77 -64.5t90 -18.5q36 0 56.5 10t20.5 31t-22 31.5t-76 20.5q-62 12 -101.5 25.5t-69 46t-29.5 89.5q0 82 59.5 122t146.5 40q58 0 110.5 -18t89.5 -50l-73 -89q-53 46 -121 46q-42 0 -60 -14
t-18 -33q0 -18 15.5 -28.5t35.5 -15.5t69 -14q54 -10 90.5 -22.5t62.5 -41t26 -77.5q0 -53 -31 -92zM279 591l-182 115l53 79l130 -79l129 79l53 -79z" />
    <glyph glyph-name="uni0162" unicode="&#x162;" horiz-adv-x="609" 
d="M291 0l-13 -40q63 -8 94.5 -38t31.5 -68q0 -28 -16.5 -53t-48 -40.5t-73.5 -15.5q-45 0 -83.5 17.5t-63.5 49.5l54 55q19 -23 41 -35t45 -12t42.5 10.5t19.5 32.5q0 50 -115 53l28 88v576h-219v120h579v-120h-219v-580h-84z" />
    <glyph glyph-name="uni0163" unicode="&#x163;" horiz-adv-x="458" 
d="M374.5 -78q31.5 -30 31.5 -68q0 -28 -16.5 -53t-48 -40.5t-73.5 -15.5q-45 0 -83.5 17.5t-63.5 49.5l54 55q19 -23 41 -35t45 -12t42.5 10.5t19.5 32.5q0 50 -115 53l26 83q-52 17 -83 60t-31 111v217h-105v117h105v129h136v-129h147v-117h-147v-215q0 -34 19 -51t50 -17
q34 0 69 22l49 -91q-34 -22 -71.5 -33.5t-74.5 -11.5h-7l-10 -30q63 -8 94.5 -38z" />
    <glyph glyph-name="Tcaron" unicode="&#x164;" horiz-adv-x="609" 
d="M375 0h-141v580h-219v120h579v-120h-219v-580zM304 750l-182 115l53 79l130 -79l129 79l53 -79z" />
    <glyph glyph-name="tcaron" unicode="&#x165;" horiz-adv-x="738" 
d="M371.5 1.5q-37.5 -11.5 -74.5 -11.5q-76 0 -126.5 46t-50.5 134v217h-105v117h105v129h136v-129h147v-117h-147v-215q0 -34 19 -51t50 -17q34 0 69 22l49 -91q-34 -22 -71.5 -33.5zM575 716l143 -56l-132 -298l-114 47z" />
    <glyph glyph-name="Tbar" unicode="&#x166;" horiz-adv-x="609" 
d="M375 580v-131h146v-50h-146v-399h-141v399h-146v50h146v131h-219v120h579v-120h-219z" />
    <glyph glyph-name="tbar" unicode="&#x167;" horiz-adv-x="458" 
d="M443 35q-34 -22 -71.5 -33.5t-74.5 -11.5q-76 0 -126.5 46t-50.5 134v40h-105v117h105v60h-105v117h105v129h136v-129h147v-117h-147v-60h147v-117h-147v-38q0 -34 19 -51t50 -17q34 0 69 22z" />
    <glyph glyph-name="Utilde" unicode="&#x168;" horiz-adv-x="694" 
d="M209.5 14.5q-64.5 30.5 -104.5 90.5t-40 144v451h141v-436q0 -74 39.5 -111.5t101.5 -37.5q63 0 102.5 37t39.5 112v436h140v-451q0 -85 -40 -145t-104.5 -90t-137.5 -30t-137.5 30.5zM519 838.5q-18 -34.5 -43 -55.5t-52 -21q-18 0 -35 7.5t-38 20.5q-17 10 -29 15.5
t-23 5.5q-17 0 -30 -12.5t-32 -39.5l-74 55q34 54 64.5 82t72.5 28q20 0 37 -6.5t39 -18.5q11 -7 22.5 -12t20.5 -5q14 0 24 9t23 32l74 -45q-3 -5 -21 -39.5z" />
    <glyph glyph-name="utilde" unicode="&#x169;" horiz-adv-x="588" 
d="M523 0h-134v65q-48 -76 -146 -76q-81 0 -134.5 52t-53.5 152v311h136v-297q0 -48 23.5 -75.5t62.5 -27.5q47 0 78 36t31 97v267h137v-504zM455 677.5q-18 -34.5 -43 -55.5t-52 -21q-18 0 -35 7.5t-38 20.5q-17 10 -29 15.5t-23 5.5q-17 0 -30 -12.5t-32 -39.5l-74 55
q34 54 64.5 82t72.5 28q20 0 37 -6.5t39 -18.5q11 -7 22.5 -12t20.5 -5q14 0 24 9t23 32l74 -45q-3 -5 -21 -39.5z" />
    <glyph glyph-name="Umacron" unicode="&#x16a;" horiz-adv-x="694" 
d="M209.5 14.5q-64.5 30.5 -104.5 90.5t-40 144v451h141v-436q0 -74 39.5 -111.5t101.5 -37.5q63 0 102.5 37t39.5 112v436h140v-451q0 -85 -40 -145t-104.5 -90t-137.5 -30t-137.5 30.5zM512 881v-121h-329v121h329z" />
    <glyph glyph-name="umacron" unicode="&#x16b;" horiz-adv-x="588" 
d="M523 0h-134v65q-48 -76 -146 -76q-81 0 -134.5 52t-53.5 152v311h136v-297q0 -48 23.5 -75.5t62.5 -27.5q47 0 78 36t31 97v267h137v-504zM458 711v-111h-329v111h329z" />
    <glyph glyph-name="Ubreve" unicode="&#x16c;" horiz-adv-x="694" 
d="M209.5 14.5q-64.5 30.5 -104.5 90.5t-40 144v451h141v-436q0 -74 39.5 -111.5t101.5 -37.5q63 0 102.5 37t39.5 112v436h140v-451q0 -85 -40 -145t-104.5 -90t-137.5 -30t-137.5 30.5zM501 919q0 -67 -38 -112.5t-116 -45.5t-116 45.5t-38 112.5h93q0 -29 14 -48t45 -19
q34 0 48.5 18.5t14.5 48.5h93z" />
    <glyph glyph-name="ubreve" unicode="&#x16d;" horiz-adv-x="588" 
d="M523 0h-134v65q-48 -76 -146 -76q-81 0 -134.5 52t-53.5 152v311h136v-297q0 -48 23.5 -75.5t62.5 -27.5q47 0 78 36t31 97v267h137v-504zM445 758q0 -67 -38 -112.5t-116 -45.5t-116 45.5t-38 112.5h93q0 -30 14.5 -48t46.5 -19q32 1 46.5 19t14.5 48h93z" />
    <glyph glyph-name="Uring" unicode="&#x16e;" horiz-adv-x="694" 
d="M209.5 14.5q-64.5 30.5 -104.5 90.5t-40 144v451h141v-436q0 -74 39.5 -111.5t101.5 -37.5q63 0 102.5 37t39.5 112v436h140v-451q0 -85 -40 -145t-104.5 -90t-137.5 -30t-137.5 30.5zM268 918q31 32 78 32q46 0 79 -32.5t33 -77.5q0 -47 -32.5 -78.5t-79.5 -31.5
t-78 31.5t-31 78.5q0 46 31 78zM311 802.5q13 -14.5 35 -14.5t35.5 14.5t13.5 36.5t-13.5 36.5t-35.5 14.5t-35 -14.5t-13 -36.5t13 -36.5z" />
    <glyph glyph-name="uring" unicode="&#x16f;" horiz-adv-x="588" 
d="M523 0h-134v65q-48 -76 -146 -76q-81 0 -134.5 52t-53.5 152v311h136v-297q0 -48 23.5 -75.5t62.5 -27.5q47 0 78 36t31 97v267h137v-504zM157.5 829.5q20.5 35.5 56 57t77.5 21.5t78 -21.5t57.5 -57t21.5 -76.5q0 -42 -21.5 -76.5t-57.5 -55t-78 -20.5q-43 0 -78 20.5
t-55.5 55.5t-20.5 76t20.5 76.5zM251 712q15 -16 40 -16q24 0 39.5 16t15.5 41q0 24 -15.5 41t-39.5 17q-25 0 -40 -17t-15 -41q0 -25 15 -41z" />
    <glyph glyph-name="Uhungarumlaut" unicode="&#x170;" horiz-adv-x="694" 
d="M209.5 14.5q-64.5 30.5 -104.5 90.5t-40 144v451h141v-436q0 -74 39.5 -111.5t101.5 -37.5q63 0 102.5 37t39.5 112v436h140v-451q0 -85 -40 -145t-104.5 -90t-137.5 -30t-137.5 30.5zM314 769h-83l55 131h108zM456 769h-85l78 131h108z" />
    <glyph glyph-name="uhungarumlaut" unicode="&#x171;" horiz-adv-x="588" 
d="M523 0h-134v65q-48 -76 -146 -76q-81 0 -134.5 52t-53.5 152v311h136v-297q0 -48 23.5 -75.5t62.5 -27.5q47 0 78 36t31 97v267h137v-504zM255 600h-83l55 131h108zM397 600h-85l78 131h108z" />
    <glyph glyph-name="Uogonek" unicode="&#x172;" horiz-adv-x="694" 
d="M629 700v-451q0 -78 -33.5 -134.5t-88.5 -88.5t-121 -40q-16 -16 -25.5 -33.5t-9.5 -33.5q0 -22 21.5 -34t60.5 -10v-86q-79 3 -124 31t-45 75q0 50 51 91q-67 6 -124 38t-91.5 89.5t-34.5 135.5v451h141v-436q0 -74 39.5 -111.5t101.5 -37.5q63 0 102.5 37t39.5 112v436
h140z" />
    <glyph glyph-name="uogonek" unicode="&#x173;" horiz-adv-x="588" 
d="M413 -39.5q-14 -22.5 -14 -41.5q0 -22 21.5 -34t60.5 -10v-86q-79 3 -124 31t-45 75q0 33 21 60.5t56 47.5v62q-48 -76 -146 -76q-81 0 -134.5 52t-53.5 152v311h136v-297q0 -48 23.5 -75.5t62.5 -27.5q47 0 78 36t31 97v267h137v-504h-73q-23 -17 -37 -39.5z" />
    <glyph glyph-name="Wcircumflex" unicode="&#x174;" horiz-adv-x="1032" 
d="M784 0h-126l-142 444l-141 -444h-127l-233 700h153l140 -457l140 457h136l141 -457l139 457h153zM644 750l-127 73l-128 -73l-55 80l182 115l183 -115z" />
    <glyph glyph-name="wcircumflex" unicode="&#x175;" horiz-adv-x="879" 
d="M614 196l99 308h151l-187 -504h-129l-110 295l-109 -295h-129l-185 504h150l99 -307l108 307h132zM562 591l-127 73l-128 -73l-55 80l182 115l183 -115z" />
    <glyph glyph-name="Ycircumflex" unicode="&#x176;" horiz-adv-x="674" 
d="M408 0h-141v300l-262 400h172l160 -272l162 272h170l-261 -401v-299zM465 750l-127 73l-128 -73l-55 80l182 115l183 -115z" />
    <glyph glyph-name="ycircumflex" unicode="&#x177;" horiz-adv-x="611" 
d="M546 19q0 -79 -37 -136.5t-97.5 -87t-129.5 -29.5q-89 0 -158.5 48t-93.5 135l122 44q12 -55 49 -83t86 -28q56 0 90.5 32.5t34.5 94.5v73q-21 -35 -60.5 -56t-81.5 -21q-54 0 -101 23.5t-75.5 69.5t-28.5 112v294h136v-276q0 -49 25 -78.5t73 -29.5q52 0 81.5 37
t29.5 100v247h136v-485zM428 591l-127 73l-128 -73l-55 80l182 115l183 -115z" />
    <glyph glyph-name="Ydieresis" unicode="&#x178;" horiz-adv-x="674" 
d="M408 0h-141v300l-262 400h172l160 -272l162 272h170l-261 -401v-299zM278 788q-26 -26 -63 -26q-36 0 -62 26t-26 61q0 37 25.5 63t62.5 26t63 -26t26 -63q0 -35 -26 -61zM522 787.5q-26 -25.5 -63 -25.5q-36 0 -62 26t-26 61q0 37 25.5 63t62.5 26t63 -26t26 -63
q0 -36 -26 -61.5z" />
    <glyph glyph-name="Zacute" unicode="&#x179;" horiz-adv-x="599" 
d="M564 0h-529v110l342 470h-333v120h504v-109l-341 -471h357v-120zM534 825l-280 -85l-36 117l283 84z" />
    <glyph glyph-name="zacute" unicode="&#x17a;" horiz-adv-x="535" 
d="M40 118l268 268h-258v118h430v-118l-262 -267h277v-119h-455v118zM475 666l-280 -85l-36 117l283 84z" />
    <glyph glyph-name="Zdotaccent" unicode="&#x17b;" horiz-adv-x="599" 
d="M564 0h-529v110l342 470h-333v120h504v-109l-341 -471h357v-120zM248 911q25 26 62 26t63 -26t26 -63q0 -36 -26 -61.5t-63 -25.5t-62 25.5t-25 61.5q0 37 25 63z" />
    <glyph glyph-name="zdotaccent" unicode="&#x17c;" horiz-adv-x="535" 
d="M40 118l268 268h-258v118h430v-118l-262 -267h277v-119h-455v118zM220 751q25 26 62 26t63 -26t26 -63q0 -36 -26 -61.5t-63 -25.5t-62 25.5t-25 61.5q0 37 25 63z" />
    <glyph glyph-name="Zcaron" unicode="&#x17d;" horiz-adv-x="599" 
d="M564 0h-529v110l342 470h-333v120h504v-109l-341 -471h357v-120zM307 750l-182 115l53 79l130 -79l129 79l53 -79z" />
    <glyph glyph-name="zcaron" unicode="&#x17e;" horiz-adv-x="535" 
d="M40 118l268 268h-258v118h430v-118l-262 -267h277v-119h-455v118zM280 591l-182 115l53 79l130 -79l129 79l53 -79z" />
    <glyph glyph-name="longs" unicode="&#x17f;" horiz-adv-x="407" 
d="M262.5 585q-16.5 -17 -16.5 -48v-537h-136v387h-95v117h95v38q0 56 24.5 96t65.5 60t91 20q35 0 72.5 -11t68.5 -33l-63 -94q-29 22 -64 22q-26 0 -42.5 -17z" />
    <glyph glyph-name="florin" unicode="&#x192;" horiz-adv-x="388" 
d="M352 504v-117h-126v-444q0 -58 -24.5 -98t-64.5 -59.5t-87 -19.5q-36 0 -71 11.5t-64 33.5l60 96q26 -25 59 -25q25 0 40.5 16t15.5 48v441h-95v117h95v38q0 56 24.5 96t65.5 60t91 20q35 0 73 -10.5t69 -33.5l-63 -94q-30 22 -64 22q-26 0 -43 -17.5t-17 -47.5v-33h126z
" />
    <glyph glyph-name="Ohorn" unicode="&#x1a0;" horiz-adv-x="811" 
d="M737.5 497q28.5 -68 28.5 -147q0 -103 -47.5 -187t-130 -131.5t-182.5 -47.5q-101 0 -183.5 47.5t-130 131.5t-47.5 187t47.5 187t130 131.5t183.5 47.5q70 0 134 -25q43 4 72.5 37.5t36.5 79.5l116 -33q-6 -46 -34 -90t-73 -69q51 -51 79.5 -119zM517 144q50 29 79 82.5
t29 123.5t-29 123.5t-79 82.5t-111 29t-111.5 -29t-79.5 -82.5t-29 -123.5t29 -123.5t79.5 -82.5t111.5 -29t111 29z" />
    <glyph glyph-name="ohorn" unicode="&#x1a1;" horiz-adv-x="610" 
d="M580 487.5q-24 -40.5 -63 -67.5q28 -34 43 -76.5t15 -90.5q0 -73 -35 -133.5t-97 -95.5t-139 -35q-76 0 -137.5 35t-96.5 95.5t-35 133.5t35 133.5t96.5 95.5t137.5 35q60 0 113 -22q31 12 51.5 42t25.5 67l116 -33q-6 -43 -30 -83.5zM402 147.5q38 40.5 38 106.5
q0 65 -38 105.5t-98 40.5q-58 0 -96 -40.5t-38 -105.5t38 -106t96 -41q60 0 98 40.5z" />
    <glyph glyph-name="Uhorn" unicode="&#x1af;" horiz-adv-x="778" 
d="M717.5 683.5q-33.5 -47.5 -88.5 -68.5v-366q0 -85 -40 -145t-104.5 -90t-137.5 -30t-137.5 30.5t-104.5 90.5t-40 144v451h141v-436q0 -74 39.5 -111.5t101.5 -37.5q63 0 102.5 37t39.5 112v436h36q46 0 78 34t39 83l116 -33q-7 -53 -40.5 -100.5z" />
    <glyph glyph-name="uhorn" unicode="&#x1b0;" horiz-adv-x="639" 
d="M588 503q-25 -41 -65 -67v-436h-134v65q-48 -76 -146 -76q-81 0 -134.5 52t-53.5 152v311h136v-297q0 -48 23.5 -75.5t62.5 -27.5q47 0 78 36t31 97v267q46 0 78 34t39 83l116 -33q-6 -44 -31 -85z" />
    <glyph glyph-name="uni01CD" unicode="&#x1cd;" 
d="M484 159h-258l-59 -159h-152l273 700h134l273 -700h-152zM436 289l-81 219l-81 -219h162zM355 750l-182 115l53 79l130 -79l129 79l53 -79z" />
    <glyph glyph-name="uni01CE" unicode="&#x1ce;" horiz-adv-x="704" 
d="M649.5 3q-28.5 -13 -59.5 -13q-47 0 -81 29.5t-41 74.5q-22 -46 -71.5 -75.5t-113.5 -29.5q-65 0 -121.5 31t-91.5 90t-35 140q0 84 37 144.5t97 91.5t127 31q50 0 88.5 -18.5t61.5 -55.5v61h135v-359q0 -19 9.5 -28.5t24.5 -9.5q21 0 37 14l42 -82q-16 -23 -44.5 -36z
M371 124.5q32 18.5 51.5 52.5t19.5 78t-18.5 77.5t-50 51.5t-68.5 18q-36 0 -67 -18t-49.5 -52t-18.5 -79q0 -44 18 -77.5t48 -51.5t66 -18q37 0 69 18.5zM312 591l-182 115l53 79l130 -79l129 79l53 -79z" />
    <glyph glyph-name="uni01CF" unicode="&#x1cf;" horiz-adv-x="290" 
d="M76 700h140v-700h-140v700zM145 750l-182 115l53 79l130 -79l129 79l53 -79z" />
    <glyph glyph-name="uni01D0" unicode="&#x1d0;" horiz-adv-x="285" 
d="M75 504h136v-504h-136v504zM142 591l-182 115l53 79l130 -79l129 79l53 -79z" />
    <glyph glyph-name="uni01D1" unicode="&#x1d1;" horiz-adv-x="811" 
d="M588.5 668.5q82.5 -47.5 130 -131.5t47.5 -187t-47.5 -187t-130 -131.5t-182.5 -47.5q-101 0 -183.5 47.5t-130 131.5t-47.5 187t47.5 187t130 131.5t183.5 47.5q100 0 182.5 -47.5zM294.5 556q-50.5 -29 -79.5 -82.5t-29 -123.5t29 -123.5t79.5 -82.5t111.5 -29t111 29
t79 82.5t29 123.5t-29 123.5t-79 82.5t-111 29t-111.5 -29zM405 750l-182 115l53 79l130 -79l129 79l53 -79z" />
    <glyph glyph-name="uni01D2" unicode="&#x1d2;" horiz-adv-x="610" 
d="M443 482q62 -35 97 -95.5t35 -133.5t-35 -133.5t-97 -95.5t-139 -35q-76 0 -137.5 35t-96.5 95.5t-35 133.5t35 133.5t96.5 95.5t137.5 35q77 0 139 -35zM208 359.5q-38 -40.5 -38 -105.5t38 -106t96 -41q60 0 98 40.5t38 106.5q0 65 -38 105.5t-98 40.5q-58 0 -96 -40.5
zM305 591l-182 115l53 79l130 -79l129 79l53 -79z" />
    <glyph glyph-name="uni01D3" unicode="&#x1d3;" horiz-adv-x="694" 
d="M209.5 14.5q-64.5 30.5 -104.5 90.5t-40 144v451h141v-436q0 -74 39.5 -111.5t101.5 -37.5q63 0 102.5 37t39.5 112v436h140v-451q0 -85 -40 -145t-104.5 -90t-137.5 -30t-137.5 30.5zM347 750l-182 115l53 79l130 -79l129 79l53 -79z" />
    <glyph glyph-name="uni01D4" unicode="&#x1d4;" horiz-adv-x="588" 
d="M523 0h-134v65q-48 -76 -146 -76q-81 0 -134.5 52t-53.5 152v311h136v-297q0 -48 23.5 -75.5t62.5 -27.5q47 0 78 36t31 97v267h137v-504zM292 591l-182 115l53 79l130 -79l129 79l53 -79z" />
    <glyph glyph-name="uni01D5" unicode="&#x1d5;" horiz-adv-x="694" 
d="M512 1081v-111h-329v111h329zM209.5 14.5q-64.5 30.5 -104.5 90.5t-40 144v451h141v-436q0 -74 39.5 -111.5t101.5 -37.5q63 0 102.5 37t39.5 112v436h140v-451q0 -85 -40 -145t-104.5 -90t-137.5 -30t-137.5 30.5zM288 778q-26 -26 -63 -26q-36 0 -62 26t-26 61
q0 37 25.5 63t62.5 26t63 -26t26 -63q0 -35 -26 -61zM532 777.5q-26 -25.5 -63 -25.5q-36 0 -62 26t-26 61q0 37 25.5 63t62.5 26t63 -26t26 -63q0 -36 -26 -61.5z" />
    <glyph glyph-name="uni01D6" unicode="&#x1d6;" horiz-adv-x="588" 
d="M523 0h-134v65q-48 -76 -146 -76q-81 0 -134.5 52t-53.5 152v311h136v-297q0 -48 23.5 -75.5t62.5 -27.5q47 0 78 36t31 97v267h137v-504zM226 607q-26 -26 -63 -26q-36 0 -62 26t-26 61q0 37 25.5 63t62.5 26t63 -26t26 -63q0 -35 -26 -61zM470 606.5
q-26 -25.5 -63 -25.5q-36 0 -62 26t-26 61q0 37 25.5 63t62.5 26t63 -26t26 -63q0 -36 -26 -61.5zM450 910v-111h-329v111h329z" />
    <glyph glyph-name="uni01D7" unicode="&#x1d7;" horiz-adv-x="694" 
d="M296 1015l171 71l35 -85l-170 -69zM288 778q-26 -26 -63 -26q-36 0 -62 26t-26 61q0 37 25.5 63t62.5 26t63 -26t26 -63q0 -35 -26 -61zM532 777.5q-26 -25.5 -63 -25.5q-36 0 -62 26t-26 61q0 37 25.5 63t62.5 26t63 -26t26 -63q0 -36 -26 -61.5zM209.5 14.5
q-64.5 30.5 -104.5 90.5t-40 144v451h141v-436q0 -74 39.5 -111.5t101.5 -37.5q63 0 102.5 37t39.5 112v436h140v-451q0 -85 -40 -145t-104.5 -90t-137.5 -30t-137.5 30.5z" />
    <glyph glyph-name="uni01D8" unicode="&#x1d8;" horiz-adv-x="588" 
d="M234 844l171 71l35 -85l-170 -69zM226 607q-26 -26 -63 -26q-36 0 -62 26t-26 61q0 37 25.5 63t62.5 26t63 -26t26 -63q0 -35 -26 -61zM470 606.5q-26 -25.5 -63 -25.5q-36 0 -62 26t-26 61q0 37 25.5 63t62.5 26t63 -26t26 -63q0 -36 -26 -61.5zM523 0h-134v65
q-48 -76 -146 -76q-81 0 -134.5 52t-53.5 152v311h136v-297q0 -48 23.5 -75.5t62.5 -27.5q47 0 78 36t31 97v267h137v-504z" />
    <glyph glyph-name="uni01D9" unicode="&#x1d9;" horiz-adv-x="694" 
d="M478 1015l-131 -96l-131 96l51 67l80 -58l80 58zM209.5 14.5q-64.5 30.5 -104.5 90.5t-40 144v451h141v-436q0 -74 39.5 -111.5t101.5 -37.5q63 0 102.5 37t39.5 112v436h140v-451q0 -85 -40 -145t-104.5 -90t-137.5 -30t-137.5 30.5zM288 778q-26 -26 -63 -26
q-36 0 -62 26t-26 61q0 37 25.5 63t62.5 26t63 -26t26 -63q0 -35 -26 -61zM532 777.5q-26 -25.5 -63 -25.5q-36 0 -62 26t-26 61q0 37 25.5 63t62.5 26t63 -26t26 -63q0 -36 -26 -61.5z" />
    <glyph glyph-name="uni01DA" unicode="&#x1da;" horiz-adv-x="588" 
d="M523 0h-134v65q-48 -76 -146 -76q-81 0 -134.5 52t-53.5 152v311h136v-297q0 -48 23.5 -75.5t62.5 -27.5q47 0 78 36t31 97v267h137v-504zM226 607q-26 -26 -63 -26q-36 0 -62 26t-26 61q0 37 25.5 63t62.5 26t63 -26t26 -63q0 -35 -26 -61zM470 606.5
q-26 -25.5 -63 -25.5q-36 0 -62 26t-26 61q0 37 25.5 63t62.5 26t63 -26t26 -63q0 -36 -26 -61.5zM416 844l-131 -96l-131 96l51 67l80 -58l80 58z" />
    <glyph glyph-name="uni01DB" unicode="&#x1db;" horiz-adv-x="694" 
d="M188 1001l34 84l171 -70l-36 -84zM288 778q-26 -26 -63 -26q-36 0 -62 26t-26 61q0 37 25.5 63t62.5 26t63 -26t26 -63q0 -35 -26 -61zM532 777.5q-26 -25.5 -63 -25.5q-36 0 -62 26t-26 61q0 37 25.5 63t62.5 26t63 -26t26 -63q0 -36 -26 -61.5zM209.5 14.5
q-64.5 30.5 -104.5 90.5t-40 144v451h141v-436q0 -74 39.5 -111.5t101.5 -37.5q63 0 102.5 37t39.5 112v436h140v-451q0 -85 -40 -145t-104.5 -90t-137.5 -30t-137.5 30.5z" />
    <glyph glyph-name="uni01DC" unicode="&#x1dc;" horiz-adv-x="588" 
d="M126 830l34 84l171 -70l-36 -84zM226 607q-26 -26 -63 -26q-36 0 -62 26t-26 61q0 37 25.5 63t62.5 26t63 -26t26 -63q0 -35 -26 -61zM470 606.5q-26 -25.5 -63 -25.5q-36 0 -62 26t-26 61q0 37 25.5 63t62.5 26t63 -26t26 -63q0 -36 -26 -61.5zM523 0h-134v65
q-48 -76 -146 -76q-81 0 -134.5 52t-53.5 152v311h136v-297q0 -48 23.5 -75.5t62.5 -27.5q47 0 78 36t31 97v267h137v-504z" />
    <glyph glyph-name="Scommaaccent" unicode="&#x218;" horiz-adv-x="593" 
d="M517.5 84q-35.5 -49 -93.5 -74.5t-125 -25.5q-71 0 -140.5 29t-118.5 83l85 101q33 -40 83 -62.5t98 -22.5q44 0 74 20t30 54q0 35 -31 54.5t-96 41.5t-110 45.5t-76.5 67t-31.5 110.5q0 72 36 119.5t91.5 69.5t114.5 22q63 0 121.5 -25t96.5 -70l-80 -91
q-26 31 -65.5 47.5t-73.5 16.5q-42 0 -70.5 -22t-28.5 -61q0 -30 19 -50.5t46.5 -32.5t76.5 -28q67 -22 107 -41.5t68.5 -57.5t28.5 -100q0 -68 -35.5 -117zM265 -36l143 -56l-132 -298l-114 47z" />
    <glyph glyph-name="scommaaccent" unicode="&#x219;" horiz-adv-x="526" 
d="M465 68q-31 -39 -81.5 -59t-108.5 -20q-70 0 -139 28t-106 78l87 89q33 -46 77 -64.5t90 -18.5q36 0 56.5 10t20.5 31t-22 31.5t-76 20.5q-62 12 -101.5 25.5t-69 46t-29.5 89.5q0 82 59.5 122t146.5 40q58 0 110.5 -18t89.5 -50l-73 -89q-53 46 -121 46q-42 0 -60 -14
t-18 -33q0 -18 15.5 -28.5t35.5 -15.5t69 -14q54 -10 90.5 -22.5t62.5 -41t26 -77.5q0 -53 -31 -92zM231 -36l143 -56l-132 -298l-114 47z" />
    <glyph glyph-name="uni021A" unicode="&#x21a;" horiz-adv-x="609" 
d="M375 0h-141v580h-219v120h579v-120h-219v-580zM264 -36l143 -56l-132 -298l-114 47z" />
    <glyph glyph-name="uni021B" unicode="&#x21b;" horiz-adv-x="458" 
d="M371.5 1.5q-37.5 -11.5 -74.5 -11.5q-76 0 -126.5 46t-50.5 134v217h-105v117h105v129h136v-129h147v-117h-147v-215q0 -34 19 -51t50 -17q34 0 69 22l49 -91q-34 -22 -71.5 -33.5zM217 -36l143 -56l-132 -298l-114 47z" />
    <glyph glyph-name="uni0233" unicode="&#x233;" horiz-adv-x="611" 
d="M546 19q0 -79 -37 -136.5t-97.5 -87t-129.5 -29.5q-89 0 -158.5 48t-93.5 135l122 44q12 -55 49 -83t86 -28q56 0 90.5 32.5t34.5 94.5v73q-21 -35 -60.5 -56t-81.5 -21q-54 0 -101 23.5t-75.5 69.5t-28.5 112v294h136v-276q0 -49 25 -78.5t73 -29.5q52 0 81.5 37
t29.5 100v247h136v-485zM453 711v-111h-329v111h329z" />
    <glyph glyph-name="uni0268" unicode="&#x268;" horiz-adv-x="287" 
d="M79 600q-27 27 -27 64t27 64t64 27q38 0 65 -27t27 -64t-27.5 -64t-64.5 -27t-64 27zM292 242h-80v-242h-136v242h-81v112h81v150h136v-150h80v-112z" />
    <glyph glyph-name="circumflex" unicode="&#x2c6;" horiz-adv-x="365" 
d="M310 591l-127 73l-128 -73l-55 80l182 115l183 -115z" />
    <glyph glyph-name="caron" unicode="&#x2c7;" horiz-adv-x="365" 
d="M182 591l-182 115l53 79l130 -79l129 79l53 -79z" />
    <glyph glyph-name="breve" unicode="&#x2d8;" horiz-adv-x="308" 
d="M308 758q0 -67 -38 -112.5t-116 -45.5t-116 45.5t-38 112.5h93q0 -30 14.5 -48t46.5 -19q32 1 46.5 19t14.5 48h93z" />
    <glyph glyph-name="dotaccent" unicode="&#x2d9;" horiz-adv-x="176" 
d="M25 751q25 26 62 26t63 -26t26 -63q0 -36 -26 -61.5t-63 -25.5t-62 25.5t-25 61.5q0 37 25 63z" />
    <glyph glyph-name="ring" unicode="&#x2da;" horiz-adv-x="311" 
d="M20.5 829.5q20.5 35.5 56 57t77.5 21.5t78 -21.5t57.5 -57t21.5 -76.5q0 -42 -21.5 -76.5t-57.5 -55t-78 -20.5q-43 0 -78 20.5t-55.5 55.5t-20.5 76t20.5 76.5zM114 712q15 -16 40 -16q24 0 39.5 16t15.5 41q0 24 -15.5 41t-39.5 17q-25 0 -40 -17t-15 -41q0 -25 15 -41
z" />
    <glyph glyph-name="ogonek" unicode="&#x2db;" horiz-adv-x="169" 
d="M107.5 -29.5q-20.5 -27.5 -20.5 -51.5q0 -22 21.5 -34t60.5 -10v-86q-79 3 -124 31t-45 75q0 38 26.5 68t69.5 50h64q-32 -15 -52.5 -42.5z" />
    <glyph glyph-name="tilde" unicode="&#x2dc;" horiz-adv-x="377" 
d="M356 677.5q-18 -34.5 -43 -55.5t-52 -21q-18 0 -35 7.5t-38 20.5q-17 10 -29 15.5t-23 5.5q-17 0 -30 -12.5t-32 -39.5l-74 55q34 54 64.5 82t72.5 28q20 0 37 -6.5t39 -18.5q11 -7 22.5 -12t20.5 -5q14 0 24 9t23 32l74 -45q-3 -5 -21 -39.5z" />
    <glyph glyph-name="hungarumlaut" unicode="&#x2dd;" horiz-adv-x="326" 
d="M83 600h-83l55 131h108zM225 600h-85l78 131h108z" />
    <glyph glyph-name="gravecomb" unicode="&#x300;" horiz-adv-x="0" 
d="M-36 752l-280 85l34 113l282 -81z" />
    <glyph glyph-name="acutecomb" unicode="&#x301;" horiz-adv-x="0" 
d="M0 835l-280 -85l-36 117l283 84z" />
    <glyph glyph-name="uni0302" unicode="&#x302;" horiz-adv-x="0" 
d="M-55 750l-127 73l-128 -73l-55 80l182 115l183 -115z" />
    <glyph glyph-name="tildecomb" unicode="&#x303;" horiz-adv-x="0" 
d="M-47 838.5q-18 -34.5 -43 -55.5t-52 -21q-18 0 -33 6.5t-41 21.5q-21 12 -31.5 17t-21.5 5q-16 0 -27 -11t-20.5 -24.5t-12.5 -17.5l-74 55q34 54 64.5 82t72.5 28q20 0 37 -6.5t39 -18.5q11 -7 22.5 -12t20.5 -5q13 0 23.5 10.5t23.5 34.5l74 -49q-3 -5 -21 -39.5z" />
    <glyph glyph-name="uni0304" unicode="&#x304;" horiz-adv-x="0" 
d="M130 781v-121h-260v121h260z" />
    <glyph glyph-name="uni0306" unicode="&#x306;" horiz-adv-x="0" 
d="M0 919q0 -67 -38 -112.5t-116 -45.5t-116 45.5t-38 112.5h93q0 -29 14 -48t45 -19q34 0 48.5 18.5t14.5 48.5h93z" />
    <glyph glyph-name="uni0307" unicode="&#x307;" horiz-adv-x="0" 
d="M-151 911q25 26 62 26t63 -26t26 -63q0 -36 -26 -61.5t-63 -25.5t-62 25.5t-25 61.5q0 37 25 63z" />
    <glyph glyph-name="uni0308" unicode="&#x308;" horiz-adv-x="0" 
d="M-270 788q-26 -26 -63 -26t-62.5 26t-25.5 61q0 37 25.5 63t62.5 26t63 -26t26 -63q0 -35 -26 -61zM-26 787.5q-26 -25.5 -63 -25.5t-62.5 26t-25.5 61q0 37 25.5 63t62.5 26t63 -26t26 -63q0 -36 -26 -61.5z" />
    <glyph glyph-name="hookabovecomb" unicode="&#x309;" horiz-adv-x="0" 
d="M1.5 832q10.5 9 11.5 26q0 15 -9.5 23.5t-24.5 8.5q-24 -2 -42 -13l-29 65q49 22 86 22q45 0 71.5 -28t26.5 -66q0 -41 -29.5 -70t-71.5 -43l-23 56q23 10 33.5 19z" />
    <glyph glyph-name="uni030A" unicode="&#x30a;" horiz-adv-x="0" 
d="M-190 918q31 32 78 32q46 0 79 -32.5t33 -77.5q0 -47 -32.5 -78.5t-79.5 -31.5t-78 31.5t-31 78.5q0 46 31 78zM-147 802.5q13 -14.5 35 -14.5t35.5 14.5t13.5 36.5t-13.5 36.5t-35.5 14.5t-35 -14.5t-13 -36.5t13 -36.5z" />
    <glyph glyph-name="uni030B" unicode="&#x30b;" horiz-adv-x="0" 
d="M-243 769h-83l55 131h108zM-101 769h-85l78 131h108z" />
    <glyph glyph-name="uni030C" unicode="&#x30c;" horiz-adv-x="0" 
d="M-183 750l-182 115l53 79l130 -79l129 79l53 -79z" />
    <glyph glyph-name="uni031B" unicode="&#x31b;" horiz-adv-x="0" 
d="M35 749q20 32 20 72q0 12 -1 18l111 -2q1 -7 1 -23q0 -62 -35.5 -116t-105.5 -73q-10 -3 -23 -5l-24 87q37 10 57 42z" />
    <glyph glyph-name="dotbelowcomb" unicode="&#x323;" horiz-adv-x="0" 
d="M-154 -88.5q26 26.5 64 26.5q37 0 63.5 -26.5t26.5 -63.5t-26.5 -63t-63.5 -26t-63.5 26t-26.5 63t26 63.5z" />
    <glyph glyph-name="uni0326" unicode="&#x326;" horiz-adv-x="0" 
d="M-143 29l143 -56l-132 -298l-114 47z" />
    <glyph glyph-name="uni0327" unicode="&#x327;" horiz-adv-x="0" 
d="M-31.5 -89q31.5 -30 31.5 -68q0 -28 -16.5 -53t-48 -40.5t-73.5 -15.5q-45 0 -83.5 17.5t-63.5 49.5l54 55q19 -23 41 -35t45 -12t42.5 10.5t19.5 32.5q0 50 -115 53l39 123h59l-26 -79q63 -8 94.5 -38z" />
    <glyph glyph-name="uni0328" unicode="&#x328;" horiz-adv-x="0" 
d="M-61.5 -29.5q-20.5 -27.5 -20.5 -51.5q0 -22 21.5 -34t60.5 -10v-86q-79 3 -124 31t-45 75q0 38 26.5 68t69.5 50h64q-32 -15 -52.5 -42.5z" />
    <glyph glyph-name="uni0329" unicode="&#x329;" horiz-adv-x="0" 
d="M-45 -233v167h90v-167h-90z" />
    <glyph glyph-name="uni0394" unicode="&#x394;" 
d="M695 0h-680l273 700h134zM495 130l-140 378l-140 -378h280z" />
    <glyph glyph-name="uni03A9" unicode="&#x3a9;" horiz-adv-x="696" 
d="M477 120h135v-120h-243v272q63 8 102.5 50t39.5 110q0 71 -44 112t-119 41t-119 -41t-44 -112q0 -68 39.5 -110t102.5 -50v-272h-243v120h135v60q-84 30 -129 101t-45 160q0 84 40 146t109 95.5t154 33.5t154 -33.5t109 -95.5t40 -146q0 -89 -45 -160t-129 -101v-60z" />
    <glyph glyph-name="uni03BC" unicode="&#x3bc;" horiz-adv-x="583" 
d="M518 0h-134v65q-23 -39 -55 -58.5t-80 -19.5q-32 0 -63 19v-227h-136v725h136v-299q0 -49 24 -76t63 -27q46 0 77.5 37t31.5 98v267h136v-504z" />
    <glyph glyph-name="pi" unicode="&#x3c0;" horiz-adv-x="888" 
d="M823 35q-34 -22 -71.5 -33.5t-74.5 -11.5q-76 0 -126.5 46t-50.5 134v217h-199v-387h-136v387h-100v117h708v-117h-137v-215q0 -34 19 -51t50 -17q34 0 69 22z" />
    <glyph glyph-name="uni0E3F" unicode="&#xe3f;" horiz-adv-x="617" 
d="M544.5 111.5q-27.5 -49.5 -80.5 -80.5t-126 -31v-104h-82v104h-181v700h181v107h82v-107q66 -2 112.5 -24.5t70.5 -60t24 -83.5q0 -53 -30.5 -95.5t-79.5 -58.5q61 -14 99 -57t38 -106q0 -54 -27.5 -103.5zM214 421h99q39 0 64.5 23t25.5 60q0 39 -26 57.5t-61 18.5h-102
v-159zM398.5 146q32.5 26 32.5 70q0 43 -30.5 65t-77.5 22h-109v-183h103q49 0 81.5 26z" />
    <glyph glyph-name="uni1E02" unicode="&#x1e02;" horiz-adv-x="617" 
d="M534 321q38 -43 38 -106q0 -54 -27.5 -103.5t-80.5 -80.5t-127 -31h-262v700h253q69 0 118 -22.5t74 -60.5t25 -85q0 -53 -30.5 -95.5t-79.5 -58.5q61 -14 99 -57zM313 421q39 0 64.5 23t25.5 60q0 39 -26 57.5t-61 18.5h-102v-159h99zM398.5 146q32.5 26 32.5 70
q0 43 -30.5 65t-77.5 22h-109v-183h103q49 0 81.5 26zM238 911q25 26 62 26t63 -26t26 -63q0 -36 -26 -61.5t-63 -25.5t-62 25.5t-25 61.5q0 37 25 63z" />
    <glyph glyph-name="uni1E03" unicode="&#x1e03;" horiz-adv-x="649" 
d="M488.5 487q55.5 -30 90.5 -90t35 -143q0 -84 -36 -144t-94 -90.5t-125 -30.5q-95 0 -159 66v-55h-135v700h136v-264q23 38 70 59.5t100 21.5q62 0 117.5 -30zM441 144q38 41 38 111t-37 109t-97 39q-58 0 -100.5 -37.5t-42.5 -113.5q0 -71 39 -110t100 -39q62 0 100 41z
M313 751q25 26 62 26t63 -26t26 -63q0 -36 -26 -61.5t-63 -25.5t-62 25.5t-25 61.5q0 37 25 63z" />
    <glyph glyph-name="uni1E0A" unicode="&#x1e0a;" horiz-adv-x="722" 
d="M75 700h248q111 0 191 -48.5t121.5 -126.5t41.5 -167q0 -90 -42 -172t-126 -134t-202 -52h-232v700zM215 580v-460h103q70 0 119 31t74 83.5t25 115.5t-24.5 115t-72.5 83.5t-116 31.5h-108zM240 911q25 26 62 26t63 -26t26 -63q0 -36 -26 -61.5t-63 -25.5t-62 25.5
t-25 61.5q0 37 25 63z" />
    <glyph glyph-name="uni1E0B" unicode="&#x1e0b;" horiz-adv-x="649" 
d="M381.5 496q42.5 -21 66.5 -60v264h136v-700h-135v62q-60 -73 -159 -73q-66 0 -124.5 30.5t-94.5 90.5t-36 144t35 143.5t92 89.5t122 30q55 0 97.5 -21zM408 142q39 39 39 111q0 76 -41.5 113t-98.5 37q-60 0 -98.5 -39.5t-38.5 -109.5q0 -69 38.5 -110t100.5 -41
q60 0 99 39zM237 751q25 26 62 26t63 -26t26 -63q0 -36 -26 -61.5t-63 -25.5t-62 25.5t-25 61.5q0 37 25 63z" />
    <glyph glyph-name="uni1E0D" unicode="&#x1e0d;" horiz-adv-x="649" 
d="M381.5 496q42.5 -21 66.5 -60v264h136v-700h-135v62q-60 -73 -159 -73q-66 0 -124.5 30.5t-94.5 90.5t-36 144t35 143.5t92 89.5t122 30q55 0 97.5 -21zM408 142q39 39 39 111q0 76 -41.5 113t-98.5 37q-60 0 -98.5 -39.5t-38.5 -109.5q0 -69 38.5 -110t100.5 -41
q60 0 99 39zM236 -88.5q26 26.5 64 26.5q37 0 63.5 -26.5t26.5 -63.5t-26.5 -63t-63.5 -26t-63.5 26t-26.5 63t26 63.5z" />
    <glyph glyph-name="uni1E1E" unicode="&#x1e1e;" horiz-adv-x="554" 
d="M215 0h-140v700h424v-120h-284v-170h227v-121h-227v-289zM234 911q25 26 62 26t63 -26t26 -63q0 -36 -26 -61.5t-63 -25.5t-62 25.5t-25 61.5q0 37 25 63z" />
    <glyph glyph-name="uni1E1F" unicode="&#x1e1f;" horiz-adv-x="407" 
d="M262.5 585q-16.5 -17 -16.5 -48v-33h125v-117h-125v-387h-136v387h-95v117h95v38q0 56 24.5 96t65.5 60t91 20q35 0 72.5 -11t68.5 -33l-63 -94q-29 22 -64 22q-26 0 -42.5 -17zM233 911q25 26 62 26t63 -26t26 -63q0 -36 -26 -61.5t-63 -25.5t-62 25.5t-25 61.5
q0 37 25 63z" />
    <glyph glyph-name="uni1E25" unicode="&#x1e25;" horiz-adv-x="602" 
d="M485 465.5q52 -51.5 52 -144.5v-321h-137v292q0 51 -21 80.5t-67 29.5q-53 0 -82 -38.5t-29 -100.5v-263h-136v700h135v-263q24 39 63.5 59.5t88.5 20.5q81 0 133 -51.5zM236 -88.5q26 26.5 64 26.5q37 0 63.5 -26.5t26.5 -63.5t-26.5 -63t-63.5 -26t-63.5 26t-26.5 63
t26 63.5z" />
    <glyph glyph-name="uni1E33" unicode="&#x1e33;" horiz-adv-x="596" 
d="M202 204l-1 -204h-136v700h136v-380l179 184h187l-237 -233l266 -271h-190zM231 -88.5q26 26.5 64 26.5q37 0 63.5 -26.5t26.5 -63.5t-26.5 -63t-63.5 -26t-63.5 26t-26.5 63t26 63.5z" />
    <glyph glyph-name="uni1E34" unicode="&#x1e34;" horiz-adv-x="691" 
d="M215 297v-297h-140v700h140v-291l266 291h182l-319 -339l337 -361h-193zM489 -69v-111h-329v111h329z" />
    <glyph glyph-name="uni1E35" unicode="&#x1e35;" horiz-adv-x="596" 
d="M202 204l-1 -204h-136v700h136v-380l179 184h187l-237 -233l266 -271h-190zM469 -69v-111h-329v111h329z" />
    <glyph glyph-name="uni1E37" unicode="&#x1e37;" horiz-adv-x="432" 
d="M248 -11q-74 0 -123.5 44t-49.5 133v534h136v-532q0 -33 18 -48.5t45 -15.5q16 0 36 10l47 -99q-55 -26 -109 -26zM146 -88.5q26 26.5 64 26.5q37 0 63.5 -26.5t26.5 -63.5t-26.5 -63t-63.5 -26t-63.5 26t-26.5 63t26 63.5z" />
    <glyph glyph-name="uni1E39" unicode="&#x1e39;" horiz-adv-x="347" 
d="M238 -11q-74 0 -123.5 44t-49.5 133v534h136v-532q0 -33 18 -48.5t45 -15.5q16 0 36 10l47 -99q-55 -26 -109 -26zM136 -88.5q26 26.5 64 26.5q37 0 63.5 -26.5t26.5 -63.5t-26.5 -63t-63.5 -26t-63.5 26t-26.5 63t26 63.5zM349 871v-111h-329v111h329z" />
    <glyph glyph-name="uni1E40" unicode="&#x1e40;" horiz-adv-x="880" 
d="M805 0h-141v444l-166 -293h-117l-166 293v-444h-140v700h151l214 -374l214 374h151v-700zM377 911q25 26 62 26t63 -26t26 -63q0 -36 -26 -61.5t-63 -25.5t-62 25.5t-25 61.5q0 37 25 63z" />
    <glyph glyph-name="uni1E41" unicode="&#x1e41;" horiz-adv-x="845" 
d="M696.5 495q42.5 -22 68 -65t25.5 -103v-327h-136v313q0 43 -20 66t-55 23q-39 0 -63.5 -28t-24.5 -81v-293h-136v313q0 43 -21.5 66t-56.5 23q-39 0 -62.5 -28t-23.5 -81v-293h-136v504h135v-59q19 36 49.5 54t76.5 18q104 0 139 -86q20 41 59.5 63.5t90.5 22.5
q49 0 91.5 -22zM371 751q25 26 62 26t63 -26t26 -63q0 -36 -26 -61.5t-63 -25.5t-62 25.5t-25 61.5q0 37 25 63z" />
    <glyph glyph-name="uni1E43" unicode="&#x1e43;" horiz-adv-x="845" 
d="M696.5 495q42.5 -22 68 -65t25.5 -103v-327h-136v313q0 43 -20 66t-55 23q-39 0 -63.5 -28t-24.5 -81v-293h-136v313q0 43 -21.5 66t-56.5 23q-39 0 -62.5 -28t-23.5 -81v-293h-136v504h135v-59q19 36 49.5 54t76.5 18q104 0 139 -86q20 41 59.5 63.5t90.5 22.5
q49 0 91.5 -22zM359 -88.5q26 26.5 64 26.5q37 0 63.5 -26.5t26.5 -63.5t-26.5 -63t-63.5 -26t-63.5 26t-26.5 63t26 63.5z" />
    <glyph glyph-name="uni1E47" unicode="&#x1e47;" horiz-adv-x="602" 
d="M485 465.5q52 -51.5 52 -144.5v-321h-137v292q0 51 -21 80.5t-67 29.5q-53 0 -82 -38.5t-29 -100.5v-263h-136v504h135v-62q24 37 64 56t88 19q81 0 133 -51.5zM249 -88.5q26 26.5 64 26.5q37 0 63.5 -26.5t26.5 -63.5t-26.5 -63t-63.5 -26t-63.5 26t-26.5 63t26 63.5z
" />
    <glyph glyph-name="uni1E56" unicode="&#x1e56;" horiz-adv-x="580" 
d="M455 671q49 -29 74.5 -75.5t25.5 -99.5q0 -56 -27.5 -106.5t-79.5 -81.5t-120 -31h-113v-277h-140v700h264q67 0 116 -29zM314 397q45 0 72.5 26.5t27.5 67.5q0 39 -25.5 64t-70.5 25h-103v-183h99zM219 911q25 26 62 26t63 -26t26 -63q0 -36 -26 -61.5t-63 -25.5
t-62 25.5t-25 61.5q0 37 25 63z" />
    <glyph glyph-name="uni1E57" unicode="&#x1e57;" horiz-adv-x="649" 
d="M488.5 483q55.5 -30 90.5 -89t35 -142t-36 -142.5t-94.5 -90t-125.5 -30.5q-97 0 -157 65v-275h-136v725h135v-74q24 38 71 60.5t100 22.5q62 0 117.5 -30zM441 144q38 41 38 109t-37 107t-97 39q-58 0 -100.5 -37.5t-42.5 -111.5q0 -70 39 -108.5t100 -38.5q62 0 100 41
zM308 751q25 26 62 26t63 -26t26 -63q0 -36 -26 -61.5t-63 -25.5t-62 25.5t-25 61.5q0 37 25 63z" />
    <glyph glyph-name="uni1E5B" unicode="&#x1e5b;" horiz-adv-x="392" 
d="M246.5 493q31.5 18 64.5 18q54 0 77 -14l-29 -129q-23 13 -60 13q-98 0 -98 -114v-267h-136v504h135v-66q15 37 46.5 55zM71 -88.5q26 26.5 64 26.5q37 0 63.5 -26.5t26.5 -63.5t-26.5 -63t-63.5 -26t-63.5 26t-26.5 63t26 63.5z" />
    <glyph glyph-name="uni1E5D" unicode="&#x1e5d;" horiz-adv-x="392" 
d="M246.5 493q31.5 18 64.5 18q54 0 77 -14l-29 -129q-23 13 -60 13q-98 0 -98 -114v-267h-136v504h135v-66q15 37 46.5 55zM71 -88.5q26 26.5 64 26.5q37 0 63.5 -26.5t26.5 -63.5t-26.5 -63t-63.5 -26t-63.5 26t-26.5 63t26 63.5zM383 711v-111h-329v111h329z" />
    <glyph glyph-name="uni1E60" unicode="&#x1e60;" horiz-adv-x="593" 
d="M517.5 84q-35.5 -49 -93.5 -74.5t-125 -25.5q-71 0 -140.5 29t-118.5 83l85 101q33 -40 83 -62.5t98 -22.5q44 0 74 20t30 54q0 35 -31 54.5t-96 41.5t-110 45.5t-76.5 67t-31.5 110.5q0 72 36 119.5t91.5 69.5t114.5 22q63 0 121.5 -25t96.5 -70l-80 -91
q-26 31 -65.5 47.5t-73.5 16.5q-42 0 -70.5 -22t-28.5 -61q0 -30 19 -50.5t46.5 -32.5t76.5 -28q67 -22 107 -41.5t68.5 -57.5t28.5 -100q0 -68 -35.5 -117zM241 911q25 26 62 26t63 -26t26 -63q0 -36 -26 -61.5t-63 -25.5t-62 25.5t-25 61.5q0 37 25 63z" />
    <glyph glyph-name="uni1E61" unicode="&#x1e61;" horiz-adv-x="526" 
d="M465 68q-31 -39 -81.5 -59t-108.5 -20q-70 0 -139 28t-106 78l87 89q33 -46 77 -64.5t90 -18.5q36 0 56.5 10t20.5 31t-22 31.5t-76 20.5q-62 12 -101.5 25.5t-69 46t-29.5 89.5q0 82 59.5 122t146.5 40q58 0 110.5 -18t89.5 -50l-73 -89q-53 46 -121 46q-42 0 -60 -14
t-18 -33q0 -18 15.5 -28.5t35.5 -15.5t69 -14q54 -10 90.5 -22.5t62.5 -41t26 -77.5q0 -53 -31 -92zM211 751q25 26 62 26t63 -26t26 -63q0 -36 -26 -61.5t-63 -25.5t-62 25.5t-25 61.5q0 37 25 63z" />
    <glyph glyph-name="uni1E63" unicode="&#x1e63;" horiz-adv-x="526" 
d="M465 68q-31 -39 -81.5 -59t-108.5 -20q-70 0 -139 28t-106 78l87 89q33 -46 77 -64.5t90 -18.5q36 0 56.5 10t20.5 31t-22 31.5t-76 20.5q-62 12 -101.5 25.5t-69 46t-29.5 89.5q0 82 59.5 122t146.5 40q58 0 110.5 -18t89.5 -50l-73 -89q-53 46 -121 46q-42 0 -60 -14
t-18 -33q0 -18 15.5 -28.5t35.5 -15.5t69 -14q54 -10 90.5 -22.5t62.5 -41t26 -77.5q0 -53 -31 -92zM209 -88.5q26 26.5 64 26.5q37 0 63.5 -26.5t26.5 -63.5t-26.5 -63t-63.5 -26t-63.5 26t-26.5 63t26 63.5z" />
    <glyph glyph-name="uni1E6A" unicode="&#x1e6a;" horiz-adv-x="609" 
d="M375 0h-141v580h-219v120h579v-120h-219v-580zM242 911q25 26 62 26t63 -26t26 -63q0 -36 -26 -61.5t-63 -25.5t-62 25.5t-25 61.5q0 37 25 63z" />
    <glyph glyph-name="uni1E6B" unicode="&#x1e6b;" horiz-adv-x="458" 
d="M371.5 1.5q-37.5 -11.5 -74.5 -11.5q-76 0 -126.5 46t-50.5 134v217h-105v117h105v129h136v-129h147v-117h-147v-215q0 -34 19 -51t50 -17q34 0 69 22l49 -91q-34 -22 -71.5 -33.5zM127.5 837q26.5 26 63.5 26q38 0 64 -26t26 -64q0 -37 -26.5 -63t-63.5 -26t-63.5 26
t-26.5 63q0 38 26.5 64z" />
    <glyph glyph-name="uni1E6D" unicode="&#x1e6d;" horiz-adv-x="458" 
d="M371.5 1.5q-37.5 -11.5 -74.5 -11.5q-76 0 -126.5 46t-50.5 134v217h-105v117h105v129h136v-129h147v-117h-147v-215q0 -34 19 -51t50 -17q34 0 69 22l49 -91q-34 -22 -71.5 -33.5zM209 -88.5q26 26.5 64 26.5q37 0 63.5 -26.5t26.5 -63.5t-26.5 -63t-63.5 -26t-63.5 26
t-26.5 63t26 63.5z" />
    <glyph glyph-name="uni1E6F" unicode="&#x1e6f;" horiz-adv-x="458" 
d="M371.5 1.5q-37.5 -11.5 -74.5 -11.5q-76 0 -126.5 46t-50.5 134v217h-105v117h105v129h136v-129h147v-117h-147v-215q0 -34 19 -51t50 -17q34 0 69 22l49 -91q-34 -22 -71.5 -33.5zM441 -79v-111h-329v111h329z" />
    <glyph glyph-name="Wgrave" unicode="&#x1e80;" horiz-adv-x="1032" 
d="M784 0h-126l-142 444l-141 -444h-127l-233 700h153l140 -457l140 457h136l141 -457l139 457h153zM608 752l-280 85l34 113l282 -81z" />
    <glyph glyph-name="wgrave" unicode="&#x1e81;" horiz-adv-x="879" 
d="M614 196l99 308h151l-187 -504h-129l-110 295l-109 -295h-129l-185 504h150l99 -307l108 307h132zM518 600l-280 85l34 113l282 -81z" />
    <glyph glyph-name="Wacute" unicode="&#x1e82;" horiz-adv-x="1032" 
d="M784 0h-126l-142 444l-141 -444h-127l-233 700h153l140 -457l140 457h136l141 -457l139 457h153zM726 825l-280 -85l-36 117l283 84z" />
    <glyph glyph-name="wacute" unicode="&#x1e83;" horiz-adv-x="879" 
d="M614 196l99 308h151l-187 -504h-129l-110 295l-109 -295h-129l-185 504h150l99 -307l108 307h132zM644 666l-280 -85l-36 117l283 84z" />
    <glyph glyph-name="Wdieresis" unicode="&#x1e84;" horiz-adv-x="1032" 
d="M784 0h-126l-142 444l-141 -444h-127l-233 700h153l140 -457l140 457h136l141 -457l139 457h153zM457 788q-26 -26 -63 -26q-36 0 -62 26t-26 61q0 37 25.5 63t62.5 26t63 -26t26 -63q0 -35 -26 -61zM701 787.5q-26 -25.5 -63 -25.5q-36 0 -62 26t-26 61q0 37 25.5 63
t62.5 26t63 -26t26 -63q0 -36 -26 -61.5z" />
    <glyph glyph-name="wdieresis" unicode="&#x1e85;" horiz-adv-x="879" 
d="M614 196l99 308h151l-187 -504h-129l-110 295l-109 -295h-129l-185 504h150l99 -307l108 307h132zM380 627q-26 -26 -63 -26q-36 0 -62 26t-26 61q0 37 25.5 63t62.5 26t63 -26t26 -63q0 -35 -26 -61zM624 626.5q-26 -25.5 -63 -25.5q-36 0 -62 26t-26 61q0 37 25.5 63
t62.5 26t63 -26t26 -63q0 -36 -26 -61.5z" />
    <glyph glyph-name="uni1E8F" unicode="&#x1e8f;" horiz-adv-x="611" 
d="M546 19q0 -79 -37 -136.5t-97.5 -87t-129.5 -29.5q-89 0 -158.5 48t-93.5 135l122 44q12 -55 49 -83t86 -28q56 0 90.5 32.5t34.5 94.5v73q-21 -35 -60.5 -56t-81.5 -21q-54 0 -101 23.5t-75.5 69.5t-28.5 112v294h136v-276q0 -49 25 -78.5t73 -29.5q52 0 81.5 37
t29.5 100v247h136v-485zM235 751q25 26 62 26t63 -26t26 -63q0 -36 -26 -61.5t-63 -25.5t-62 25.5t-25 61.5q0 37 25 63z" />
    <glyph glyph-name="uni1EA0" unicode="&#x1ea0;" 
d="M484 159h-258l-59 -159h-152l273 700h134l273 -700h-152zM436 289l-81 219l-81 -219h162zM291 -88.5q26 26.5 64 26.5q37 0 63.5 -26.5t26.5 -63.5t-26.5 -63t-63.5 -26t-63.5 26t-26.5 63t26 63.5z" />
    <glyph glyph-name="uni1EA1" unicode="&#x1ea1;" horiz-adv-x="704" 
d="M251 -88.5q26 26.5 64 26.5q37 0 63.5 -26.5t26.5 -63.5t-26.5 -63t-63.5 -26t-63.5 26t-26.5 63t26 63.5zM649.5 3q-28.5 -13 -59.5 -13q-47 0 -81 29.5t-41 74.5q-22 -46 -71.5 -75.5t-113.5 -29.5q-65 0 -121.5 31t-91.5 90t-35 140q0 84 37 144.5t97 91.5t127 31
q50 0 88.5 -18.5t61.5 -55.5v61h135v-359q0 -19 9.5 -28.5t24.5 -9.5q21 0 37 14l42 -82q-16 -23 -44.5 -36zM371 124.5q32 18.5 51.5 52.5t19.5 78t-18.5 77.5t-50 51.5t-68.5 18q-36 0 -67 -18t-49.5 -52t-18.5 -79q0 -44 18 -77.5t48 -51.5t66 -18q37 0 69 18.5z" />
    <glyph glyph-name="uni1EA2" unicode="&#x1ea2;" 
d="M273 895l-34 74q58 26 99 26q53 0 83 -32.5t30 -76.5q0 -47 -34 -80.5t-82 -48.5l-27 64q27 12 39 22t13 30q0 17 -10.5 26.5t-28.5 9.5q-28 -2 -48 -14zM484 159h-258l-59 -159h-152l273 700h134l273 -700h-152zM436 289l-81 219l-81 -219h162z" />
    <glyph glyph-name="uni1EA3" unicode="&#x1ea3;" horiz-adv-x="704" 
d="M325 659q12 10 13 30q0 17 -10.5 26.5t-28.5 9.5q-28 -2 -48 -14l-34 74q59 26 99 26q53 0 83 -32.5t30 -76.5q0 -47 -34 -80.5t-82 -48.5l-27 64q27 12 39 22zM649.5 3q-28.5 -13 -59.5 -13q-47 0 -81 29.5t-41 74.5q-22 -46 -71.5 -75.5t-113.5 -29.5q-65 0 -121.5 31
t-91.5 90t-35 140q0 84 37 144.5t97 91.5t127 31q50 0 88.5 -18.5t61.5 -55.5v61h135v-359q0 -19 9.5 -28.5t24.5 -9.5q21 0 37 14l42 -82q-16 -23 -44.5 -36zM371 124.5q32 18.5 51.5 52.5t19.5 78t-18.5 77.5t-50 51.5t-68.5 18q-36 0 -67 -18t-49.5 -52t-18.5 -79
q0 -44 18 -77.5t48 -51.5t66 -18q37 0 69 18.5z" />
    <glyph glyph-name="uni1EA4" unicode="&#x1ea4;" 
d="M484 159h-258l-59 -159h-152l273 700h134l273 -700h-152zM436 289l-81 219l-81 -219h162zM483 740l-127 73l-128 -73l-55 80l182 115l183 -115zM165 952l113 147l72 -56l-112 -145z" />
    <glyph glyph-name="uni1EA5" unicode="&#x1ea5;" horiz-adv-x="704" 
d="M649.5 3q-28.5 -13 -59.5 -13q-47 0 -81 29.5t-41 74.5q-22 -46 -71.5 -75.5t-113.5 -29.5q-65 0 -121.5 31t-91.5 90t-35 140q0 84 37 144.5t97 91.5t127 31q50 0 88.5 -18.5t61.5 -55.5v61h135v-359q0 -19 9.5 -28.5t24.5 -9.5q21 0 37 14l42 -82q-16 -23 -44.5 -36z
M371 124.5q32 18.5 51.5 52.5t19.5 78t-18.5 77.5t-50 51.5t-68.5 18q-36 0 -67 -18t-49.5 -52t-18.5 -79q0 -44 18 -77.5t48 -51.5t66 -18q37 0 69 18.5zM442 551l-127 73l-128 -73l-55 80l182 115l183 -115zM124 763l113 147l72 -56l-112 -145z" />
    <glyph glyph-name="uni1EA6" unicode="&#x1ea6;" 
d="M361 1043l72 56l113 -147l-73 -54zM484 159h-258l-59 -159h-152l273 700h134l273 -700h-152zM436 289l-81 219l-81 -219h162zM483 740l-127 73l-128 -73l-55 80l182 115l183 -115z" />
    <glyph glyph-name="uni1EA7" unicode="&#x1ea7;" horiz-adv-x="704" 
d="M649.5 3q-28.5 -13 -59.5 -13q-47 0 -81 29.5t-41 74.5q-22 -46 -71.5 -75.5t-113.5 -29.5q-65 0 -121.5 31t-91.5 90t-35 140q0 84 37 144.5t97 91.5t127 31q50 0 88.5 -18.5t61.5 -55.5v61h135v-359q0 -19 9.5 -28.5t24.5 -9.5q21 0 37 14l42 -82q-16 -23 -44.5 -36z
M371 124.5q32 18.5 51.5 52.5t19.5 78t-18.5 77.5t-50 51.5t-68.5 18q-36 0 -67 -18t-49.5 -52t-18.5 -79q0 -44 18 -77.5t48 -51.5t66 -18q37 0 69 18.5zM442 551l-127 73l-128 -73l-55 80l182 115l183 -115zM320 854l72 56l113 -147l-73 -54z" />
    <glyph glyph-name="uni1EA8" unicode="&#x1ea8;" 
d="M484 159h-258l-59 -159h-152l273 700h134l273 -700h-152zM436 289l-81 219l-81 -219h162zM483 740l-127 73l-128 -73l-55 80l182 115l183 -115zM478.5 960q10.5 9 11.5 26q0 15 -9.5 23.5t-24.5 8.5q-24 -2 -42 -13l-29 65q49 22 86 22q45 0 71.5 -28t26.5 -66
q0 -41 -29.5 -70t-71.5 -43l-23 56q23 10 33.5 19z" />
    <glyph glyph-name="uni1EA9" unicode="&#x1ea9;" horiz-adv-x="704" 
d="M649.5 3q-28.5 -13 -59.5 -13q-47 0 -81 29.5t-41 74.5q-22 -46 -71.5 -75.5t-113.5 -29.5q-65 0 -121.5 31t-91.5 90t-35 140q0 84 37 144.5t97 91.5t127 31q50 0 88.5 -18.5t61.5 -55.5v61h135v-359q0 -19 9.5 -28.5t24.5 -9.5q21 0 37 14l42 -82q-16 -23 -44.5 -36z
M371 124.5q32 18.5 51.5 52.5t19.5 78t-18.5 77.5t-50 51.5t-68.5 18q-36 0 -67 -18t-49.5 -52t-18.5 -79q0 -44 18 -77.5t48 -51.5t66 -18q37 0 69 18.5zM442 551l-127 73l-128 -73l-55 80l182 115l183 -115zM437.5 771q10.5 9 11.5 26q0 15 -9.5 23.5t-24.5 8.5
q-24 -2 -42 -13l-29 65q49 22 86 22q45 0 71.5 -28t26.5 -66q0 -41 -29.5 -70t-71.5 -43l-23 56q23 10 33.5 19z" />
    <glyph glyph-name="uni1EAA" unicode="&#x1eaa;" 
d="M484 159h-258l-59 -159h-152l273 700h134l273 -700h-152zM436 289l-81 219l-81 -219h162zM483 740l-127 73l-128 -73l-55 80l182 115l183 -115zM392 963q-12 5 -33 16q-21 14 -33 14q-10 0 -19.5 -8t-30.5 -34l-60 50q4 5 20.5 27t39.5 36.5t48 14.5q17 0 32 -5.5
t35 -16.5q24 -12 31 -12q9 0 20 11t19 29l64 -36q-23 -40 -47.5 -65.5t-57.5 -25.5q-16 0 -28 5z" />
    <glyph glyph-name="uni1EAB" unicode="&#x1eab;" horiz-adv-x="704" 
d="M649.5 3q-28.5 -13 -59.5 -13q-47 0 -81 29.5t-41 74.5q-22 -46 -71.5 -75.5t-113.5 -29.5q-65 0 -121.5 31t-91.5 90t-35 140q0 84 37 144.5t97 91.5t127 31q50 0 88.5 -18.5t61.5 -55.5v61h135v-359q0 -19 9.5 -28.5t24.5 -9.5q21 0 37 14l42 -82q-16 -23 -44.5 -36z
M371 124.5q32 18.5 51.5 52.5t19.5 78t-18.5 77.5t-50 51.5t-68.5 18q-36 0 -67 -18t-49.5 -52t-18.5 -79q0 -44 18 -77.5t48 -51.5t66 -18q37 0 69 18.5zM442 551l-127 73l-128 -73l-55 80l182 115l183 -115zM344 787q-12 5 -33 16q-21 14 -33 14q-10 0 -19.5 -8t-30.5 -34
l-60 50q4 5 20.5 27t39.5 36.5t48 14.5q17 0 32 -5.5t35 -16.5q24 -12 31 -12q9 0 20 11t19 29l64 -36q-23 -40 -47.5 -65.5t-57.5 -25.5q-16 0 -28 5z" />
    <glyph glyph-name="uni1EAC" unicode="&#x1eac;" 
d="M483 750l-127 73l-128 -73l-55 80l182 115l183 -115zM484 159h-258l-59 -159h-152l273 700h134l273 -700h-152zM436 289l-81 219l-81 -219h162zM291 -88.5q26 26.5 64 26.5q37 0 63.5 -26.5t26.5 -63.5t-26.5 -63t-63.5 -26t-63.5 26t-26.5 63t26 63.5z" />
    <glyph glyph-name="uni1EAD" unicode="&#x1ead;" horiz-adv-x="704" 
d="M251 -88.5q26 26.5 64 26.5q37 0 63.5 -26.5t26.5 -63.5t-26.5 -63t-63.5 -26t-63.5 26t-26.5 63t26 63.5zM649.5 3q-28.5 -13 -59.5 -13q-47 0 -81 29.5t-41 74.5q-22 -46 -71.5 -75.5t-113.5 -29.5q-65 0 -121.5 31t-91.5 90t-35 140q0 84 37 144.5t97 91.5t127 31
q50 0 88.5 -18.5t61.5 -55.5v61h135v-359q0 -19 9.5 -28.5t24.5 -9.5q21 0 37 14l42 -82q-16 -23 -44.5 -36zM371 124.5q32 18.5 51.5 52.5t19.5 78t-18.5 77.5t-50 51.5t-68.5 18q-36 0 -67 -18t-49.5 -52t-18.5 -79q0 -44 18 -77.5t48 -51.5t66 -18q37 0 69 18.5zM442 591
l-127 73l-128 -73l-55 80l182 115l183 -115z" />
    <glyph glyph-name="uni1EAE" unicode="&#x1eae;" 
d="M339 922l-36 83l171 71l35 -85zM245 796.5q-38 45.5 -38 112.5h93q0 -29 14 -48t45 -19q34 0 48.5 18.5t14.5 48.5h93q0 -67 -38 -112.5t-116 -45.5t-116 45.5zM484 159h-258l-59 -159h-152l273 700h134l273 -700h-152zM436 289l-81 219l-81 -219h162z" />
    <glyph glyph-name="uni1EAF" unicode="&#x1eaf;" horiz-adv-x="704" 
d="M268 834l171 71l35 -85l-170 -69zM482 738q0 -67 -38 -112.5t-116 -45.5t-116 45.5t-38 112.5h93q0 -30 14.5 -48t46.5 -19q32 1 46.5 19t14.5 48h93zM649.5 3q-28.5 -13 -59.5 -13q-47 0 -81 29.5t-41 74.5q-22 -46 -71.5 -75.5t-113.5 -29.5q-65 0 -121.5 31t-91.5 90
t-35 140q0 84 37 144.5t97 91.5t127 31q50 0 88.5 -18.5t61.5 -55.5v61h135v-359q0 -19 9.5 -28.5t24.5 -9.5q21 0 37 14l42 -82q-16 -23 -44.5 -36zM371 124.5q32 18.5 51.5 52.5t19.5 78t-18.5 77.5t-50 51.5t-68.5 18q-36 0 -67 -18t-49.5 -52t-18.5 -79q0 -44 18 -77.5
t48 -51.5t66 -18q37 0 69 18.5z" />
    <glyph glyph-name="uni1EB0" unicode="&#x1eb0;" 
d="M374 922l-169 70l34 84l171 -70zM239 796.5q-38 45.5 -38 112.5h93q0 -29 14 -48t45 -19q34 0 48.5 18.5t14.5 48.5h93q0 -67 -38 -112.5t-116 -45.5t-116 45.5zM484 159h-258l-59 -159h-152l273 700h134l273 -700h-152zM436 289l-81 219l-81 -219h162z" />
    <glyph glyph-name="uni1EB1" unicode="&#x1eb1;" horiz-adv-x="704" 
d="M176 821l34 84l171 -70l-36 -84zM482 738q0 -67 -38 -112.5t-116 -45.5t-116 45.5t-38 112.5h93q0 -30 14.5 -48t46.5 -19q32 1 46.5 19t14.5 48h93zM649.5 3q-28.5 -13 -59.5 -13q-47 0 -81 29.5t-41 74.5q-22 -46 -71.5 -75.5t-113.5 -29.5q-65 0 -121.5 31t-91.5 90
t-35 140q0 84 37 144.5t97 91.5t127 31q50 0 88.5 -18.5t61.5 -55.5v61h135v-359q0 -19 9.5 -28.5t24.5 -9.5q21 0 37 14l42 -82q-16 -23 -44.5 -36zM371 124.5q32 18.5 51.5 52.5t19.5 78t-18.5 77.5t-50 51.5t-68.5 18q-36 0 -67 -18t-49.5 -52t-18.5 -79q0 -44 18 -77.5
t48 -51.5t66 -18q37 0 69 18.5z" />
    <glyph glyph-name="uni1EB2" unicode="&#x1eb2;" 
d="M484 159h-258l-59 -159h-152l273 700h134l273 -700h-152zM436 289l-81 219l-81 -219h162zM509 909q0 -67 -38 -112.5t-116 -45.5t-116 45.5t-38 112.5h93q0 -29 14 -48t45 -19q34 0 48.5 18.5t14.5 48.5h93zM350.5 982q10.5 9 11.5 26q0 15 -9.5 23.5t-24.5 8.5
q-24 -2 -42 -13l-29 65q49 22 86 22q45 0 71.5 -28t26.5 -66q0 -41 -29.5 -70t-71.5 -43l-23 56q23 10 33.5 19z" />
    <glyph glyph-name="uni1EB3" unicode="&#x1eb3;" horiz-adv-x="704" 
d="M649.5 3q-28.5 -13 -59.5 -13q-47 0 -81 29.5t-41 74.5q-22 -46 -71.5 -75.5t-113.5 -29.5q-65 0 -121.5 31t-91.5 90t-35 140q0 84 37 144.5t97 91.5t127 31q50 0 88.5 -18.5t61.5 -55.5v61h135v-359q0 -19 9.5 -28.5t24.5 -9.5q21 0 37 14l42 -82q-16 -23 -44.5 -36z
M371 124.5q32 18.5 51.5 52.5t19.5 78t-18.5 77.5t-50 51.5t-68.5 18q-36 0 -67 -18t-49.5 -52t-18.5 -79q0 -44 18 -77.5t48 -51.5t66 -18q37 0 69 18.5zM479 738q0 -67 -38 -112.5t-116 -45.5t-116 45.5t-38 112.5h93q0 -30 14.5 -48t46.5 -19q32 1 46.5 19t14.5 48h93z
M314.5 820q10.5 9 11.5 26q0 15 -9.5 23.5t-24.5 8.5q-24 -2 -42 -13l-29 65q49 22 86 22q45 0 71.5 -28t26.5 -66q0 -41 -29.5 -70t-71.5 -43l-23 56q23 10 33.5 19z" />
    <glyph glyph-name="uni1EB4" unicode="&#x1eb4;" 
d="M484 159h-258l-59 -159h-152l273 700h134l273 -700h-152zM436 289l-81 219l-81 -219h162zM509 909q0 -67 -38 -112.5t-116 -45.5t-116 45.5t-38 112.5h93q0 -29 14 -48t45 -19q34 0 48.5 18.5t14.5 48.5h93zM374 963q-12 5 -33 16q-21 14 -33 14q-10 0 -19.5 -8
t-30.5 -34l-60 50q4 5 20.5 27t39.5 36.5t48 14.5q17 0 32 -5.5t35 -16.5q24 -12 31 -12q9 0 20 11t19 29l64 -36q-23 -40 -47.5 -65.5t-57.5 -25.5q-16 0 -28 5z" />
    <glyph glyph-name="uni1EB5" unicode="&#x1eb5;" horiz-adv-x="704" 
d="M352 803q-12 5 -33 16q-21 14 -33 14q-10 0 -19.5 -8t-30.5 -34l-60 50q4 5 20.5 27t39.5 36.5t48 14.5q17 0 32 -5.5t35 -16.5q24 -12 31 -12q9 0 20 11t19 29l64 -36q-23 -40 -47.5 -65.5t-57.5 -25.5q-16 0 -28 5zM649.5 3q-28.5 -13 -59.5 -13q-47 0 -81 29.5
t-41 74.5q-22 -46 -71.5 -75.5t-113.5 -29.5q-65 0 -121.5 31t-91.5 90t-35 140q0 84 37 144.5t97 91.5t127 31q50 0 88.5 -18.5t61.5 -55.5v61h135v-359q0 -19 9.5 -28.5t24.5 -9.5q21 0 37 14l42 -82q-16 -23 -44.5 -36zM371 124.5q32 18.5 51.5 52.5t19.5 78t-18.5 77.5
t-50 51.5t-68.5 18q-36 0 -67 -18t-49.5 -52t-18.5 -79q0 -44 18 -77.5t48 -51.5t66 -18q37 0 69 18.5zM479 738q0 -67 -38 -112.5t-116 -45.5t-116 45.5t-38 112.5h93q0 -30 14.5 -48t46.5 -19q32 1 46.5 19t14.5 48h93z" />
    <glyph glyph-name="uni1EB6" unicode="&#x1eb6;" 
d="M484 159h-258l-59 -159h-152l273 700h134l273 -700h-152zM436 289l-81 219l-81 -219h162zM509 919q0 -67 -38 -112.5t-116 -45.5t-116 45.5t-38 112.5h93q0 -29 14 -48t45 -19q34 0 48.5 18.5t14.5 48.5h93zM291 -88.5q26 26.5 64 26.5q37 0 63.5 -26.5t26.5 -63.5
t-26.5 -63t-63.5 -26t-63.5 26t-26.5 63t26 63.5z" />
    <glyph glyph-name="uni1EB7" unicode="&#x1eb7;" horiz-adv-x="704" 
d="M262 -88.5q26 26.5 64 26.5q37 0 63.5 -26.5t26.5 -63.5t-26.5 -63t-63.5 -26t-63.5 26t-26.5 63t26 63.5zM649.5 3q-28.5 -13 -59.5 -13q-47 0 -81 29.5t-41 74.5q-22 -46 -71.5 -75.5t-113.5 -29.5q-65 0 -121.5 31t-91.5 90t-35 140q0 84 37 144.5t97 91.5t127 31
q50 0 88.5 -18.5t61.5 -55.5v61h135v-359q0 -19 9.5 -28.5t24.5 -9.5q21 0 37 14l42 -82q-16 -23 -44.5 -36zM371 124.5q32 18.5 51.5 52.5t19.5 78t-18.5 77.5t-50 51.5t-68.5 18q-36 0 -67 -18t-49.5 -52t-18.5 -79q0 -44 18 -77.5t48 -51.5t66 -18q37 0 69 18.5zM482 758
q0 -67 -38 -112.5t-116 -45.5t-116 45.5t-38 112.5h93q0 -30 14.5 -48t46.5 -19q32 1 46.5 19t14.5 48h93z" />
    <glyph glyph-name="uni1EB8" unicode="&#x1eb8;" horiz-adv-x="563" 
d="M215 580v-170h227v-121h-227v-169h293v-120h-433v700h424v-120h-284zM228 -88.5q26 26.5 64 26.5q37 0 63.5 -26.5t26.5 -63.5t-26.5 -63t-63.5 -26t-63.5 26t-26.5 63t26 63.5z" />
    <glyph glyph-name="uni1EB9" unicode="&#x1eb9;" horiz-adv-x="562" 
d="M523 200h-349q8 -48 44.5 -69.5t83.5 -21.5q43 0 78.5 17t59.5 50l83 -82q-41 -51 -98 -78t-124 -27q-70 0 -130.5 29.5t-98 88.5t-37.5 144q0 84 36.5 144t95.5 91t126 31q63 0 116.5 -29t85.5 -86t32 -138q0 -28 -4 -64zM364 376q-30 26 -76 26q-47 0 -77.5 -27.5
t-36.5 -71.5h224q-4 47 -34 73zM227 -88.5q26 26.5 64 26.5q37 0 63.5 -26.5t26.5 -63.5t-26.5 -63t-63.5 -26t-63.5 26t-26.5 63t26 63.5z" />
    <glyph glyph-name="uni1EBA" unicode="&#x1eba;" horiz-adv-x="563" 
d="M277 843q12 10 13 30q0 17 -10.5 26.5t-28.5 9.5q-28 -2 -48 -14l-34 74q58 26 99 26q53 0 83 -32.5t30 -76.5q0 -47 -34 -80.5t-82 -48.5l-27 64q27 12 39 22zM215 580v-170h227v-121h-227v-169h293v-120h-433v700h424v-120h-284z" />
    <glyph glyph-name="uni1EBB" unicode="&#x1ebb;" horiz-adv-x="562" 
d="M275 659q12 10 13 30q0 17 -10.5 26.5t-28.5 9.5q-28 -2 -48 -14l-34 74q58 26 99 26q53 0 83 -32.5t30 -76.5q0 -47 -34 -80.5t-82 -48.5l-27 64q27 12 39 22zM523 200h-349q8 -48 44.5 -69.5t83.5 -21.5q43 0 78.5 17t59.5 50l83 -82q-41 -51 -98 -78t-124 -27
q-70 0 -130.5 29.5t-98 88.5t-37.5 144q0 84 36.5 144t95.5 91t126 31q63 0 116.5 -29t85.5 -86t32 -138q0 -28 -4 -64zM364 376q-30 26 -76 26q-47 0 -77.5 -27.5t-36.5 -71.5h224q-4 47 -34 73z" />
    <glyph glyph-name="uni1EBC" unicode="&#x1ebc;" horiz-adv-x="563" 
d="M215 580v-170h227v-121h-227v-169h293v-120h-433v700h424v-120h-284zM458 838.5q-18 -34.5 -43 -55.5t-52 -21q-18 0 -33 6.5t-41 21.5q-21 12 -31.5 17t-21.5 5q-16 0 -27 -11t-20.5 -24.5t-12.5 -17.5l-74 55q34 54 64.5 82t72.5 28q20 0 37 -6.5t39 -18.5
q11 -7 22.5 -12t20.5 -5q13 0 23.5 10.5t23.5 34.5l74 -49q-3 -5 -21 -39.5z" />
    <glyph glyph-name="uni1EBD" unicode="&#x1ebd;" horiz-adv-x="562" 
d="M523 200h-349q8 -48 44.5 -69.5t83.5 -21.5q43 0 78.5 17t59.5 50l83 -82q-41 -51 -98 -78t-124 -27q-70 0 -130.5 29.5t-98 88.5t-37.5 144q0 84 36.5 144t95.5 91t126 31q63 0 116.5 -29t85.5 -86t32 -138q0 -28 -4 -64zM364 376q-30 26 -76 26q-47 0 -77.5 -27.5
t-36.5 -71.5h224q-4 47 -34 73zM462 677.5q-18 -34.5 -43 -55.5t-52 -21q-18 0 -35 7.5t-38 20.5q-17 10 -29 15.5t-23 5.5q-17 0 -30 -12.5t-32 -39.5l-74 55q34 54 64.5 82t72.5 28q20 0 37 -6.5t39 -18.5q11 -7 22.5 -12t20.5 -5q14 0 24 9t23 32l74 -45q-3 -5 -21 -39.5
z" />
    <glyph glyph-name="uni1EBE" unicode="&#x1ebe;" horiz-adv-x="563" 
d="M215 580v-170h227v-121h-227v-169h293v-120h-433v700h424v-120h-284zM427 740l-127 73l-128 -73l-55 80l182 115l183 -115zM109 952l113 147l72 -56l-112 -145z" />
    <glyph glyph-name="uni1EBF" unicode="&#x1ebf;" horiz-adv-x="562" 
d="M523 200h-349q8 -48 44.5 -69.5t83.5 -21.5q43 0 78.5 17t59.5 50l83 -82q-41 -51 -98 -78t-124 -27q-70 0 -130.5 29.5t-98 88.5t-37.5 144q0 84 36.5 144t95.5 91t126 31q63 0 116.5 -29t85.5 -86t32 -138q0 -28 -4 -64zM364 376q-30 26 -76 26q-47 0 -77.5 -27.5
t-36.5 -71.5h224q-4 47 -34 73zM418 571l-127 73l-128 -73l-55 80l182 115l183 -115zM100 783l113 147l72 -56l-112 -145z" />
    <glyph glyph-name="uni1EC0" unicode="&#x1ec0;" horiz-adv-x="563" 
d="M215 580v-170h227v-121h-227v-169h293v-120h-433v700h424v-120h-284zM306 1043l72 56l113 -147l-73 -54zM428 740l-127 73l-128 -73l-55 80l182 115l183 -115z" />
    <glyph glyph-name="uni1EC1" unicode="&#x1ec1;" horiz-adv-x="562" 
d="M523 200h-349q8 -48 44.5 -69.5t83.5 -21.5q43 0 78.5 17t59.5 50l83 -82q-41 -51 -98 -78t-124 -27q-70 0 -130.5 29.5t-98 88.5t-37.5 144q0 84 36.5 144t95.5 91t126 31q63 0 116.5 -29t85.5 -86t32 -138q0 -28 -4 -64zM364 376q-30 26 -76 26q-47 0 -77.5 -27.5
t-36.5 -71.5h224q-4 47 -34 73zM408 551l-127 73l-128 -73l-55 80l182 115l183 -115zM286 854l72 56l113 -147l-73 -54z" />
    <glyph glyph-name="uni1EC2" unicode="&#x1ec2;" horiz-adv-x="568" 
d="M215 580v-170h227v-121h-227v-169h293v-120h-433v700h424v-120h-284zM427 740l-127 73l-128 -73l-55 80l182 115l183 -115zM422.5 960q10.5 9 11.5 26q0 15 -9.5 23.5t-24.5 8.5q-24 -2 -42 -13l-29 65q49 22 86 22q45 0 71.5 -28t26.5 -66q0 -41 -29.5 -70t-71.5 -43
l-23 56q23 10 33.5 19z" />
    <glyph glyph-name="uni1EC3" unicode="&#x1ec3;" horiz-adv-x="562" 
d="M523 200h-349q8 -48 44.5 -69.5t83.5 -21.5q43 0 78.5 17t59.5 50l83 -82q-41 -51 -98 -78t-124 -27q-70 0 -130.5 29.5t-98 88.5t-37.5 144q0 84 36.5 144t95.5 91t126 31q63 0 116.5 -29t85.5 -86t32 -138q0 -28 -4 -64zM364 376q-30 26 -76 26q-47 0 -77.5 -27.5
t-36.5 -71.5h224q-4 47 -34 73zM418 551l-127 73l-128 -73l-55 80l182 115l183 -115zM413.5 771q10.5 9 11.5 26q0 15 -9.5 23.5t-24.5 8.5q-24 -2 -42 -13l-29 65q49 22 86 22q45 0 71.5 -28t26.5 -66q0 -41 -29.5 -70t-71.5 -43l-23 56q23 10 33.5 19z" />
    <glyph glyph-name="uni1EC4" unicode="&#x1ec4;" horiz-adv-x="563" 
d="M215 580v-170h227v-121h-227v-169h293v-120h-433v700h424v-120h-284zM427 740l-127 73l-128 -73l-55 80l182 115l183 -115zM336 963q-12 5 -33 16q-21 14 -33 14q-10 0 -19.5 -8t-30.5 -34l-60 50q4 5 20.5 27t39.5 36.5t48 14.5q17 0 32 -5.5t35 -16.5q24 -12 31 -12
q9 0 20 11t19 29l64 -36q-23 -40 -47.5 -65.5t-57.5 -25.5q-16 0 -28 5z" />
    <glyph glyph-name="uni1EC5" unicode="&#x1ec5;" horiz-adv-x="562" 
d="M523 200h-349q8 -48 44.5 -69.5t83.5 -21.5q43 0 78.5 17t59.5 50l83 -82q-41 -51 -98 -78t-124 -27q-70 0 -130.5 29.5t-98 88.5t-37.5 144q0 84 36.5 144t95.5 91t126 31q63 0 116.5 -29t85.5 -86t32 -138q0 -28 -4 -64zM364 376q-30 26 -76 26q-47 0 -77.5 -27.5
t-36.5 -71.5h224q-4 47 -34 73zM418 551l-127 73l-128 -73l-55 80l182 115l183 -115zM320 787q-12 5 -33 16q-21 14 -33 14q-10 0 -19.5 -8t-30.5 -34l-60 50q4 5 20.5 27t39.5 36.5t48 14.5q17 0 32 -5.5t35 -16.5q24 -12 31 -12q9 0 20 11t19 29l64 -36
q-23 -40 -47.5 -65.5t-57.5 -25.5q-16 0 -28 5z" />
    <glyph glyph-name="uni1EC6" unicode="&#x1ec6;" horiz-adv-x="563" 
d="M236 -88.5q26 26.5 64 26.5q37 0 63.5 -26.5t26.5 -63.5t-26.5 -63t-63.5 -26t-63.5 26t-26.5 63t26 63.5zM215 580v-170h227v-121h-227v-169h293v-120h-433v700h424v-120h-284zM427 750l-127 73l-128 -73l-55 80l182 115l183 -115z" />
    <glyph glyph-name="uni1EC7" unicode="&#x1ec7;" horiz-adv-x="562" 
d="M237 -88.5q26 26.5 64 26.5q37 0 63.5 -26.5t26.5 -63.5t-26.5 -63t-63.5 -26t-63.5 26t-26.5 63t26 63.5zM523 200h-349q8 -48 44.5 -69.5t83.5 -21.5q43 0 78.5 17t59.5 50l83 -82q-41 -51 -98 -78t-124 -27q-70 0 -130.5 29.5t-98 88.5t-37.5 144q0 84 36.5 144
t95.5 91t126 31q63 0 116.5 -29t85.5 -86t32 -138q0 -28 -4 -64zM364 376q-30 26 -76 26q-47 0 -77.5 -27.5t-36.5 -71.5h224q-4 47 -34 73zM428 591l-127 73l-128 -73l-55 80l182 115l183 -115z" />
    <glyph glyph-name="uni1EC8" unicode="&#x1ec8;" horiz-adv-x="290" 
d="M127 843q12 10 13 30q0 17 -10.5 26.5t-28.5 9.5q-28 -2 -48 -14l-34 74q59 26 99 26q53 0 83 -32.5t30 -76.5q0 -47 -34 -80.5t-82 -48.5l-27 64q27 12 39 22zM75 700h140v-700h-140v700z" />
    <glyph glyph-name="uni1EC9" unicode="&#x1ec9;" horiz-adv-x="283" 
d="M125 659q12 10 13 30q0 17 -10.5 26.5t-28.5 9.5q-28 -2 -48 -14l-34 74q58 26 99 26q53 0 83 -32.5t30 -76.5q0 -47 -34 -80.5t-82 -48.5l-27 64q27 12 39 22zM74 504h136v-504h-136v504z" />
    <glyph glyph-name="uni1ECA" unicode="&#x1eca;" horiz-adv-x="290" 
d="M75 700h140v-700h-140v700zM81 -88.5q26 26.5 64 26.5q37 0 63.5 -26.5t26.5 -63.5t-26.5 -63t-63.5 -26t-63.5 26t-26.5 63t26 63.5z" />
    <glyph glyph-name="uni1ECB" unicode="&#x1ecb;" horiz-adv-x="284" 
d="M74 504h136v-504h-136v504zM79 742q25 26 62 26t63 -26t26 -63q0 -36 -26 -61.5t-63 -25.5t-62 25.5t-25 61.5q0 37 25 63zM78 -88.5q26 26.5 64 26.5q37 0 63.5 -26.5t26.5 -63.5t-26.5 -63t-63.5 -26t-63.5 26t-26.5 63t26 63.5z" />
    <glyph glyph-name="uni1ECC" unicode="&#x1ecc;" horiz-adv-x="811" 
d="M588.5 668.5q82.5 -47.5 130 -131.5t47.5 -187t-47.5 -187t-130 -131.5t-182.5 -47.5q-101 0 -183.5 47.5t-130 131.5t-47.5 187t47.5 187t130 131.5t183.5 47.5q100 0 182.5 -47.5zM294.5 556q-50.5 -29 -79.5 -82.5t-29 -123.5t29 -123.5t79.5 -82.5t111.5 -29t111 29
t79 82.5t29 123.5t-29 123.5t-79 82.5t-111 29t-111.5 -29zM342 -88.5q26 26.5 64 26.5q37 0 63.5 -26.5t26.5 -63.5t-26.5 -63t-63.5 -26t-63.5 26t-26.5 63t26 63.5z" />
    <glyph glyph-name="uni1ECD" unicode="&#x1ecd;" horiz-adv-x="610" 
d="M443 482q62 -35 97 -95.5t35 -133.5t-35 -133.5t-97 -95.5t-139 -35q-76 0 -137.5 35t-96.5 95.5t-35 133.5t35 133.5t96.5 95.5t137.5 35q77 0 139 -35zM208 359.5q-38 -40.5 -38 -105.5t38 -106t96 -41q60 0 98 40.5t38 106.5q0 65 -38 105.5t-98 40.5q-58 0 -96 -40.5
zM241 -88.5q26 26.5 64 26.5q37 0 63.5 -26.5t26.5 -63.5t-26.5 -63t-63.5 -26t-63.5 26t-26.5 63t26 63.5z" />
    <glyph glyph-name="uni1ECE" unicode="&#x1ece;" horiz-adv-x="811" 
d="M416 843q12 10 13 30q0 17 -10.5 26.5t-28.5 9.5q-28 -2 -48 -14l-34 74q59 26 99 26q53 0 83 -32.5t30 -76.5q0 -47 -34 -80.5t-82 -48.5l-27 64q27 12 39 22zM588.5 668.5q82.5 -47.5 130 -131.5t47.5 -187t-47.5 -187t-130 -131.5t-182.5 -47.5q-101 0 -183.5 47.5
t-130 131.5t-47.5 187t47.5 187t130 131.5t183.5 47.5q100 0 182.5 -47.5zM294.5 556q-50.5 -29 -79.5 -82.5t-29 -123.5t29 -123.5t79.5 -82.5t111.5 -29t111 29t79 82.5t29 123.5t-29 123.5t-79 82.5t-111 29t-111.5 -29z" />
    <glyph glyph-name="uni1ECF" unicode="&#x1ecf;" horiz-adv-x="610" 
d="M305 659q12 10 13 30q0 17 -10.5 26.5t-28.5 9.5q-28 -2 -48 -14l-34 74q58 26 99 26q53 0 83 -32.5t30 -76.5q0 -47 -34 -80.5t-82 -48.5l-27 64q27 12 39 22zM443 482q62 -35 97 -95.5t35 -133.5t-35 -133.5t-97 -95.5t-139 -35q-76 0 -137.5 35t-96.5 95.5t-35 133.5
t35 133.5t96.5 95.5t137.5 35q77 0 139 -35zM208 359.5q-38 -40.5 -38 -105.5t38 -106t96 -41q60 0 98 40.5t38 106.5q0 65 -38 105.5t-98 40.5q-58 0 -96 -40.5z" />
    <glyph glyph-name="uni1ED0" unicode="&#x1ed0;" horiz-adv-x="811" 
d="M588.5 668.5q82.5 -47.5 130 -131.5t47.5 -187t-47.5 -187t-130 -131.5t-182.5 -47.5q-101 0 -183.5 47.5t-130 131.5t-47.5 187t47.5 187t130 131.5t183.5 47.5q100 0 182.5 -47.5zM294.5 556q-50.5 -29 -79.5 -82.5t-29 -123.5t29 -123.5t79.5 -82.5t111.5 -29t111 29
t79 82.5t29 123.5t-29 123.5t-79 82.5t-111 29t-111.5 -29zM533 740l-127 73l-128 -73l-55 80l182 115l183 -115zM215 952l113 147l72 -56l-112 -145z" />
    <glyph glyph-name="uni1ED1" unicode="&#x1ed1;" horiz-adv-x="610" 
d="M443 482q62 -35 97 -95.5t35 -133.5t-35 -133.5t-97 -95.5t-139 -35q-76 0 -137.5 35t-96.5 95.5t-35 133.5t35 133.5t96.5 95.5t137.5 35q77 0 139 -35zM208 359.5q-38 -40.5 -38 -105.5t38 -106t96 -41q60 0 98 40.5t38 106.5q0 65 -38 105.5t-98 40.5q-58 0 -96 -40.5
zM423 551l-127 73l-128 -73l-55 80l182 115l183 -115zM105 763l113 147l72 -56l-112 -145z" />
    <glyph glyph-name="uni1ED2" unicode="&#x1ed2;" horiz-adv-x="811" 
d="M588.5 668.5q82.5 -47.5 130 -131.5t47.5 -187t-47.5 -187t-130 -131.5t-182.5 -47.5q-101 0 -183.5 47.5t-130 131.5t-47.5 187t47.5 187t130 131.5t183.5 47.5q100 0 182.5 -47.5zM294.5 556q-50.5 -29 -79.5 -82.5t-29 -123.5t29 -123.5t79.5 -82.5t111.5 -29t111 29
t79 82.5t29 123.5t-29 123.5t-79 82.5t-111 29t-111.5 -29zM533 740l-127 73l-128 -73l-55 80l182 115l183 -115zM412 1043l72 56l113 -147l-73 -54z" />
    <glyph glyph-name="uni1ED3" unicode="&#x1ed3;" horiz-adv-x="610" 
d="M443 482q62 -35 97 -95.5t35 -133.5t-35 -133.5t-97 -95.5t-139 -35q-76 0 -137.5 35t-96.5 95.5t-35 133.5t35 133.5t96.5 95.5t137.5 35q77 0 139 -35zM208 359.5q-38 -40.5 -38 -105.5t38 -106t96 -41q60 0 98 40.5t38 106.5q0 65 -38 105.5t-98 40.5q-58 0 -96 -40.5
zM431 551l-127 73l-128 -73l-55 80l182 115l183 -115zM309 854l72 56l113 -147l-73 -54z" />
    <glyph glyph-name="uni1ED4" unicode="&#x1ed4;" horiz-adv-x="811" 
d="M588.5 668.5q82.5 -47.5 130 -131.5t47.5 -187t-47.5 -187t-130 -131.5t-182.5 -47.5q-101 0 -183.5 47.5t-130 131.5t-47.5 187t47.5 187t130 131.5t183.5 47.5q100 0 182.5 -47.5zM294.5 556q-50.5 -29 -79.5 -82.5t-29 -123.5t29 -123.5t79.5 -82.5t111.5 -29t111 29
t79 82.5t29 123.5t-29 123.5t-79 82.5t-111 29t-111.5 -29zM533 740l-127 73l-128 -73l-55 80l182 115l183 -115zM528.5 960q10.5 9 11.5 26q0 15 -9.5 23.5t-24.5 8.5q-24 -2 -42 -13l-29 65q49 22 86 22q45 0 71.5 -28t26.5 -66q0 -41 -29.5 -70t-71.5 -43l-23 56
q23 10 33.5 19z" />
    <glyph glyph-name="uni1ED5" unicode="&#x1ed5;" horiz-adv-x="610" 
d="M443 482q62 -35 97 -95.5t35 -133.5t-35 -133.5t-97 -95.5t-139 -35q-76 0 -137.5 35t-96.5 95.5t-35 133.5t35 133.5t96.5 95.5t137.5 35q77 0 139 -35zM208 359.5q-38 -40.5 -38 -105.5t38 -106t96 -41q60 0 98 40.5t38 106.5q0 65 -38 105.5t-98 40.5q-58 0 -96 -40.5
zM433 551l-127 73l-128 -73l-55 80l182 115l183 -115zM427.5 771q10.5 9 11.5 26q0 15 -9.5 23.5t-24.5 8.5q-24 -2 -42 -13l-29 65q49 22 86 22q45 0 71.5 -28t26.5 -66q0 -41 -29.5 -70t-71.5 -43l-23 56q23 10 33.5 19z" />
    <glyph glyph-name="uni1ED6" unicode="&#x1ed6;" horiz-adv-x="811" 
d="M588.5 668.5q82.5 -47.5 130 -131.5t47.5 -187t-47.5 -187t-130 -131.5t-182.5 -47.5q-101 0 -183.5 47.5t-130 131.5t-47.5 187t47.5 187t130 131.5t183.5 47.5q100 0 182.5 -47.5zM294.5 556q-50.5 -29 -79.5 -82.5t-29 -123.5t29 -123.5t79.5 -82.5t111.5 -29t111 29
t79 82.5t29 123.5t-29 123.5t-79 82.5t-111 29t-111.5 -29zM533 740l-127 73l-128 -73l-55 80l182 115l183 -115zM442 963q-12 5 -33 16q-21 14 -33 14q-10 0 -19.5 -8t-30.5 -34l-60 50q4 5 20.5 27t39.5 36.5t48 14.5q17 0 32 -5.5t35 -16.5q24 -12 31 -12q9 0 20 11
t19 29l64 -36q-23 -40 -47.5 -65.5t-57.5 -25.5q-16 0 -28 5z" />
    <glyph glyph-name="uni1ED7" unicode="&#x1ed7;" horiz-adv-x="610" 
d="M443 482q62 -35 97 -95.5t35 -133.5t-35 -133.5t-97 -95.5t-139 -35q-76 0 -137.5 35t-96.5 95.5t-35 133.5t35 133.5t96.5 95.5t137.5 35q77 0 139 -35zM208 359.5q-38 -40.5 -38 -105.5t38 -106t96 -41q60 0 98 40.5t38 106.5q0 65 -38 105.5t-98 40.5q-58 0 -96 -40.5
zM433 551l-127 73l-128 -73l-55 80l182 115l183 -115zM335 787q-12 5 -33 16q-21 14 -33 14q-10 0 -19.5 -8t-30.5 -34l-60 50q4 5 20.5 27t39.5 36.5t48 14.5q17 0 32 -5.5t35 -16.5q24 -12 31 -12q9 0 20 11t19 29l64 -36q-23 -40 -47.5 -65.5t-57.5 -25.5q-16 0 -28 5z
" />
    <glyph glyph-name="uni1ED8" unicode="&#x1ed8;" horiz-adv-x="811" 
d="M533 750l-127 73l-128 -73l-55 80l182 115l183 -115zM588.5 668.5q82.5 -47.5 130 -131.5t47.5 -187t-47.5 -187t-130 -131.5t-182.5 -47.5q-101 0 -183.5 47.5t-130 131.5t-47.5 187t47.5 187t130 131.5t183.5 47.5q100 0 182.5 -47.5zM294.5 556q-50.5 -29 -79.5 -82.5
t-29 -123.5t29 -123.5t79.5 -82.5t111.5 -29t111 29t79 82.5t29 123.5t-29 123.5t-79 82.5t-111 29t-111.5 -29zM342 -88.5q26 26.5 64 26.5q37 0 63.5 -26.5t26.5 -63.5t-26.5 -63t-63.5 -26t-63.5 26t-26.5 63t26 63.5z" />
    <glyph glyph-name="uni1ED9" unicode="&#x1ed9;" horiz-adv-x="610" 
d="M443 482q62 -35 97 -95.5t35 -133.5t-35 -133.5t-97 -95.5t-139 -35q-76 0 -137.5 35t-96.5 95.5t-35 133.5t35 133.5t96.5 95.5t137.5 35q77 0 139 -35zM208 359.5q-38 -40.5 -38 -105.5t38 -106t96 -41q60 0 98 40.5t38 106.5q0 65 -38 105.5t-98 40.5q-58 0 -96 -40.5
zM433 591l-127 73l-128 -73l-55 80l182 115l183 -115zM241 -88.5q26 26.5 64 26.5q37 0 63.5 -26.5t26.5 -63.5t-26.5 -63t-63.5 -26t-63.5 26t-26.5 63t26 63.5z" />
    <glyph glyph-name="uni1EDA" unicode="&#x1eda;" horiz-adv-x="811" 
d="M737.5 497q28.5 -68 28.5 -147q0 -103 -47.5 -187t-130 -131.5t-182.5 -47.5q-101 0 -183.5 47.5t-130 131.5t-47.5 187t47.5 187t130 131.5t183.5 47.5q70 0 134 -25q43 4 72.5 37.5t36.5 79.5l116 -33q-6 -46 -34 -90t-73 -69q51 -51 79.5 -119zM517 144q50 29 79 82.5
t29 123.5t-29 123.5t-79 82.5t-111 29t-111.5 -29t-79.5 -82.5t-29 -123.5t29 -123.5t79.5 -82.5t111.5 -29t111 29zM614 825l-280 -85l-36 117l283 84z" />
    <glyph glyph-name="uni1EDB" unicode="&#x1edb;" horiz-adv-x="610" 
d="M580 487.5q-24 -40.5 -63 -67.5q28 -34 43 -76.5t15 -90.5q0 -73 -35 -133.5t-97 -95.5t-139 -35q-76 0 -137.5 35t-96.5 95.5t-35 133.5t35 133.5t96.5 95.5t137.5 35q60 0 113 -22q31 12 51.5 42t25.5 67l116 -33q-6 -43 -30 -83.5zM402 147.5q38 40.5 38 106.5
q0 65 -38 105.5t-98 40.5q-58 0 -96 -40.5t-38 -105.5t38 -106t96 -41q60 0 98 40.5zM506 666l-280 -85l-36 117l283 84z" />
    <glyph glyph-name="uni1EDC" unicode="&#x1edc;" horiz-adv-x="811" 
d="M737.5 497q28.5 -68 28.5 -147q0 -103 -47.5 -187t-130 -131.5t-182.5 -47.5q-101 0 -183.5 47.5t-130 131.5t-47.5 187t47.5 187t130 131.5t183.5 47.5q70 0 134 -25q43 4 72.5 37.5t36.5 79.5l116 -33q-6 -46 -34 -90t-73 -69q51 -51 79.5 -119zM517 144q50 29 79 82.5
t29 123.5t-29 123.5t-79 82.5t-111 29t-111.5 -29t-79.5 -82.5t-29 -123.5t29 -123.5t79.5 -82.5t111.5 -29t111 29zM527 752l-280 85l34 113l282 -81z" />
    <glyph glyph-name="uni1EDD" unicode="&#x1edd;" horiz-adv-x="610" 
d="M580 487.5q-24 -40.5 -63 -67.5q28 -34 43 -76.5t15 -90.5q0 -73 -35 -133.5t-97 -95.5t-139 -35q-76 0 -137.5 35t-96.5 95.5t-35 133.5t35 133.5t96.5 95.5t137.5 35q60 0 113 -22q31 12 51.5 42t25.5 67l116 -33q-6 -43 -30 -83.5zM402 147.5q38 40.5 38 106.5
q0 65 -38 105.5t-98 40.5q-58 0 -96 -40.5t-38 -105.5t38 -106t96 -41q60 0 98 40.5zM408 600l-280 85l34 113l282 -81z" />
    <glyph glyph-name="uni1EDE" unicode="&#x1ede;" horiz-adv-x="811" 
d="M342 895l-34 74q59 26 99 26q53 0 83 -32.5t30 -76.5q0 -47 -34 -80.5t-82 -48.5l-27 64q27 12 39 22t13 30q0 17 -10.5 26.5t-28.5 9.5q-28 -2 -48 -14zM737.5 497q28.5 -68 28.5 -147q0 -103 -47.5 -187t-130 -131.5t-182.5 -47.5q-101 0 -183.5 47.5t-130 131.5
t-47.5 187t47.5 187t130 131.5t183.5 47.5q70 0 134 -25q43 4 72.5 37.5t36.5 79.5l116 -33q-6 -46 -34 -90t-73 -69q51 -51 79.5 -119zM517 144q50 29 79 82.5t29 123.5t-29 123.5t-79 82.5t-111 29t-111.5 -29t-79.5 -82.5t-29 -123.5t29 -123.5t79.5 -82.5t111.5 -29
t111 29z" />
    <glyph glyph-name="uni1EDF" unicode="&#x1edf;" horiz-adv-x="610" 
d="M201 711l-34 74q58 26 99 26q53 0 83 -32.5t30 -76.5q0 -47 -34 -80.5t-82 -48.5l-27 64q27 12 39 22t13 30q0 17 -10.5 26.5t-28.5 9.5q-28 -2 -48 -14zM580 487.5q-24 -40.5 -63 -67.5q28 -34 43 -76.5t15 -90.5q0 -73 -35 -133.5t-97 -95.5t-139 -35q-76 0 -137.5 35
t-96.5 95.5t-35 133.5t35 133.5t96.5 95.5t137.5 35q60 0 113 -22q31 12 51.5 42t25.5 67l116 -33q-6 -43 -30 -83.5zM402 147.5q38 40.5 38 106.5q0 65 -38 105.5t-98 40.5q-58 0 -96 -40.5t-38 -105.5t38 -106t96 -41q60 0 98 40.5z" />
    <glyph glyph-name="uni1EE0" unicode="&#x1ee0;" horiz-adv-x="811" 
d="M737.5 497q28.5 -68 28.5 -147q0 -103 -47.5 -187t-130 -131.5t-182.5 -47.5q-101 0 -183.5 47.5t-130 131.5t-47.5 187t47.5 187t130 131.5t183.5 47.5q70 0 134 -25q43 4 72.5 37.5t36.5 79.5l116 -33q-6 -46 -34 -90t-73 -69q51 -51 79.5 -119zM517 144q50 29 79 82.5
t29 123.5t-29 123.5t-79 82.5t-111 29t-111.5 -29t-79.5 -82.5t-29 -123.5t29 -123.5t79.5 -82.5t111.5 -29t111 29zM566 838.5q-18 -34.5 -43 -55.5t-52 -21q-18 0 -35 7.5t-38 20.5q-17 10 -29 15.5t-23 5.5q-17 0 -30 -12.5t-32 -39.5l-74 55q34 54 64.5 82t72.5 28
q20 0 37 -6.5t39 -18.5q11 -7 22.5 -12t20.5 -5q14 0 24 9t23 32l74 -45q-3 -5 -21 -39.5z" />
    <glyph glyph-name="uni1EE1" unicode="&#x1ee1;" horiz-adv-x="610" 
d="M580 487.5q-24 -40.5 -63 -67.5q28 -34 43 -76.5t15 -90.5q0 -73 -35 -133.5t-97 -95.5t-139 -35q-76 0 -137.5 35t-96.5 95.5t-35 133.5t35 133.5t96.5 95.5t137.5 35q60 0 113 -22q31 12 51.5 42t25.5 67l116 -33q-6 -43 -30 -83.5zM402 147.5q38 40.5 38 106.5
q0 65 -38 105.5t-98 40.5q-58 0 -96 -40.5t-38 -105.5t38 -106t96 -41q60 0 98 40.5zM476 677.5q-18 -34.5 -43 -55.5t-52 -21q-18 0 -35 7.5t-38 20.5q-17 10 -29 15.5t-23 5.5q-17 0 -30 -12.5t-32 -39.5l-74 55q34 54 64.5 82t72.5 28q20 0 37 -6.5t39 -18.5
q11 -7 22.5 -12t20.5 -5q14 0 24 9t23 32l74 -45q-3 -5 -21 -39.5z" />
    <glyph glyph-name="uni1EE2" unicode="&#x1ee2;" horiz-adv-x="811" 
d="M737.5 497q28.5 -68 28.5 -147q0 -103 -47.5 -187t-130 -131.5t-182.5 -47.5q-101 0 -183.5 47.5t-130 131.5t-47.5 187t47.5 187t130 131.5t183.5 47.5q70 0 134 -25q43 4 72.5 37.5t36.5 79.5l116 -33q-6 -46 -34 -90t-73 -69q51 -51 79.5 -119zM517 144q50 29 79 82.5
t29 123.5t-29 123.5t-79 82.5t-111 29t-111.5 -29t-79.5 -82.5t-29 -123.5t29 -123.5t79.5 -82.5t111.5 -29t111 29zM342 -88.5q26 26.5 64 26.5q37 0 63.5 -26.5t26.5 -63.5t-26.5 -63t-63.5 -26t-63.5 26t-26.5 63t26 63.5z" />
    <glyph glyph-name="uni1EE3" unicode="&#x1ee3;" horiz-adv-x="610" 
d="M580 487.5q-24 -40.5 -63 -67.5q28 -34 43 -76.5t15 -90.5q0 -73 -35 -133.5t-97 -95.5t-139 -35q-76 0 -137.5 35t-96.5 95.5t-35 133.5t35 133.5t96.5 95.5t137.5 35q60 0 113 -22q31 12 51.5 42t25.5 67l116 -33q-6 -43 -30 -83.5zM402 147.5q38 40.5 38 106.5
q0 65 -38 105.5t-98 40.5q-58 0 -96 -40.5t-38 -105.5t38 -106t96 -41q60 0 98 40.5zM241 -88.5q26 26.5 64 26.5q37 0 63.5 -26.5t26.5 -63.5t-26.5 -63t-63.5 -26t-63.5 26t-26.5 63t26 63.5z" />
    <glyph glyph-name="uni1EE4" unicode="&#x1ee4;" horiz-adv-x="694" 
d="M209.5 14.5q-64.5 30.5 -104.5 90.5t-40 144v451h141v-436q0 -74 39.5 -111.5t101.5 -37.5q63 0 102.5 37t39.5 112v436h140v-451q0 -85 -40 -145t-104.5 -90t-137.5 -30t-137.5 30.5zM283 -88.5q26 26.5 64 26.5q37 0 63.5 -26.5t26.5 -63.5t-26.5 -63t-63.5 -26
t-63.5 26t-26.5 63t26 63.5z" />
    <glyph glyph-name="uni1EE5" unicode="&#x1ee5;" horiz-adv-x="588" 
d="M523 0h-134v65q-48 -76 -146 -76q-81 0 -134.5 52t-53.5 152v311h136v-297q0 -48 23.5 -75.5t62.5 -27.5q47 0 78 36t31 97v267h137v-504zM201 -88.5q26 26.5 64 26.5q37 0 63.5 -26.5t26.5 -63.5t-26.5 -63t-63.5 -26t-63.5 26t-26.5 63t26 63.5z" />
    <glyph glyph-name="uni1EE6" unicode="&#x1ee6;" horiz-adv-x="694" 
d="M327 843q12 10 13 30q0 17 -10.5 26.5t-28.5 9.5q-28 -2 -48 -14l-34 74q59 26 99 26q53 0 83 -32.5t30 -76.5q0 -47 -34 -80.5t-82 -48.5l-27 64q27 12 39 22zM209.5 14.5q-64.5 30.5 -104.5 90.5t-40 144v451h141v-436q0 -74 39.5 -111.5t101.5 -37.5q63 0 102.5 37
t39.5 112v436h140v-451q0 -85 -40 -145t-104.5 -90t-137.5 -30t-137.5 30.5z" />
    <glyph glyph-name="uni1EE7" unicode="&#x1ee7;" horiz-adv-x="588" 
d="M265 659q12 10 13 30q0 17 -10.5 26.5t-28.5 9.5q-28 -2 -48 -14l-34 74q59 26 99 26q53 0 83 -32.5t30 -76.5q0 -47 -34 -80.5t-82 -48.5l-27 64q27 12 39 22zM523 0h-134v65q-48 -76 -146 -76q-81 0 -134.5 52t-53.5 152v311h136v-297q0 -48 23.5 -75.5t62.5 -27.5
q47 0 78 36t31 97v267h137v-504z" />
    <glyph glyph-name="uni1EE8" unicode="&#x1ee8;" horiz-adv-x="778" 
d="M717.5 683.5q-33.5 -47.5 -88.5 -68.5v-366q0 -85 -40 -145t-104.5 -90t-137.5 -30t-137.5 30.5t-104.5 90.5t-40 144v451h141v-436q0 -74 39.5 -111.5t101.5 -37.5q63 0 102.5 37t39.5 112v436h36q46 0 78 34t39 83l116 -33q-7 -53 -40.5 -100.5zM558 825l-280 -85
l-36 117l283 84z" />
    <glyph glyph-name="uni1EE9" unicode="&#x1ee9;" horiz-adv-x="639" 
d="M588 503q-25 -41 -65 -67v-436h-134v65q-48 -76 -146 -76q-81 0 -134.5 52t-53.5 152v311h136v-297q0 -48 23.5 -75.5t62.5 -27.5q47 0 78 36t31 97v267q46 0 78 34t39 83l116 -33q-6 -44 -31 -85zM499 666l-280 -85l-36 117l283 84z" />
    <glyph glyph-name="uni1EEA" unicode="&#x1eea;" horiz-adv-x="778" 
d="M717.5 683.5q-33.5 -47.5 -88.5 -68.5v-366q0 -85 -40 -145t-104.5 -90t-137.5 -30t-137.5 30.5t-104.5 90.5t-40 144v451h141v-436q0 -74 39.5 -111.5t101.5 -37.5q63 0 102.5 37t39.5 112v436h36q46 0 78 34t39 83l116 -33q-7 -53 -40.5 -100.5zM420 752l-280 85
l34 113l282 -81z" />
    <glyph glyph-name="uni1EEB" unicode="&#x1eeb;" horiz-adv-x="639" 
d="M588 503q-25 -41 -65 -67v-436h-134v65q-48 -76 -146 -76q-81 0 -134.5 52t-53.5 152v311h136v-297q0 -48 23.5 -75.5t62.5 -27.5q47 0 78 36t31 97v267q46 0 78 34t39 83l116 -33q-6 -44 -31 -85zM356 600l-280 85l34 113l282 -81z" />
    <glyph glyph-name="uni1EEC" unicode="&#x1eec;" horiz-adv-x="778" 
d="M253 895l-34 74q59 26 99 26q53 0 83 -32.5t30 -76.5q0 -47 -34 -80.5t-82 -48.5l-27 64q27 12 39 22t13 30q0 17 -10.5 26.5t-28.5 9.5q-28 -2 -48 -14zM717.5 683.5q-33.5 -47.5 -88.5 -68.5v-366q0 -85 -40 -145t-104.5 -90t-137.5 -30t-137.5 30.5t-104.5 90.5
t-40 144v451h141v-436q0 -74 39.5 -111.5t101.5 -37.5q63 0 102.5 37t39.5 112v436h36q46 0 78 34t39 83l116 -33q-7 -53 -40.5 -100.5z" />
    <glyph glyph-name="uni1EED" unicode="&#x1eed;" horiz-adv-x="639" 
d="M191 711l-34 74q59 26 99 26q53 0 83 -32.5t30 -76.5q0 -47 -34 -80.5t-82 -48.5l-27 64q27 12 39 22t13 30q0 17 -10.5 26.5t-28.5 9.5q-28 -2 -48 -14zM588 503q-25 -41 -65 -67v-436h-134v65q-48 -76 -146 -76q-81 0 -134.5 52t-53.5 152v311h136v-297
q0 -48 23.5 -75.5t62.5 -27.5q47 0 78 36t31 97v267q46 0 78 34t39 83l116 -33q-6 -44 -31 -85z" />
    <glyph glyph-name="uni1EEE" unicode="&#x1eee;" horiz-adv-x="778" 
d="M717.5 683.5q-33.5 -47.5 -88.5 -68.5v-366q0 -85 -40 -145t-104.5 -90t-137.5 -30t-137.5 30.5t-104.5 90.5t-40 144v451h141v-436q0 -74 39.5 -111.5t101.5 -37.5q63 0 102.5 37t39.5 112v436h36q46 0 78 34t39 83l116 -33q-7 -53 -40.5 -100.5zM512 838.5
q-18 -34.5 -43 -55.5t-52 -21q-18 0 -35 7.5t-38 20.5q-17 10 -29 15.5t-23 5.5q-17 0 -30 -12.5t-32 -39.5l-74 55q34 54 64.5 82t72.5 28q20 0 37 -6.5t39 -18.5q11 -7 22.5 -12t20.5 -5q14 0 24 9t23 32l74 -45q-3 -5 -21 -39.5z" />
    <glyph glyph-name="uni1EEF" unicode="&#x1eef;" horiz-adv-x="639" 
d="M588 503q-25 -41 -65 -67v-436h-134v65q-48 -76 -146 -76q-81 0 -134.5 52t-53.5 152v311h136v-297q0 -48 23.5 -75.5t62.5 -27.5q47 0 78 36t31 97v267q46 0 78 34t39 83l116 -33q-6 -44 -31 -85zM455 677.5q-18 -34.5 -43 -55.5t-52 -21q-18 0 -35 7.5t-38 20.5
q-17 10 -29 15.5t-23 5.5q-17 0 -30 -12.5t-32 -39.5l-74 55q34 54 64.5 82t72.5 28q20 0 37 -6.5t39 -18.5q11 -7 22.5 -12t20.5 -5q14 0 24 9t23 32l74 -45q-3 -5 -21 -39.5z" />
    <glyph glyph-name="uni1EF0" unicode="&#x1ef0;" horiz-adv-x="778" 
d="M717.5 683.5q-33.5 -47.5 -88.5 -68.5v-366q0 -85 -40 -145t-104.5 -90t-137.5 -30t-137.5 30.5t-104.5 90.5t-40 144v451h141v-436q0 -74 39.5 -111.5t101.5 -37.5q63 0 102.5 37t39.5 112v436h36q46 0 78 34t39 83l116 -33q-7 -53 -40.5 -100.5zM283 -88.5
q26 26.5 64 26.5q37 0 63.5 -26.5t26.5 -63.5t-26.5 -63t-63.5 -26t-63.5 26t-26.5 63t26 63.5z" />
    <glyph glyph-name="uni1EF1" unicode="&#x1ef1;" horiz-adv-x="639" 
d="M588 503q-25 -41 -65 -67v-436h-134v65q-48 -76 -146 -76q-81 0 -134.5 52t-53.5 152v311h136v-297q0 -48 23.5 -75.5t62.5 -27.5q47 0 78 36t31 97v267q46 0 78 34t39 83l116 -33q-6 -44 -31 -85zM201 -88.5q26 26.5 64 26.5q37 0 63.5 -26.5t26.5 -63.5t-26.5 -63
t-63.5 -26t-63.5 26t-26.5 63t26 63.5z" />
    <glyph glyph-name="Ygrave" unicode="&#x1ef2;" horiz-adv-x="674" 
d="M408 0h-141v300l-262 400h172l160 -272l162 272h170l-261 -401v-299zM423 752l-280 85l34 113l282 -81z" />
    <glyph glyph-name="ygrave" unicode="&#x1ef3;" horiz-adv-x="611" 
d="M546 19q0 -79 -37 -136.5t-97.5 -87t-129.5 -29.5q-89 0 -158.5 48t-93.5 135l122 44q12 -55 49 -83t86 -28q56 0 90.5 32.5t34.5 94.5v73q-21 -35 -60.5 -56t-81.5 -21q-54 0 -101 23.5t-75.5 69.5t-28.5 112v294h136v-276q0 -49 25 -78.5t73 -29.5q52 0 81.5 37
t29.5 100v247h136v-485zM379 600l-280 85l34 113l282 -81z" />
    <glyph glyph-name="uni1EF4" unicode="&#x1ef4;" horiz-adv-x="674" 
d="M273 -88.5q26 26.5 64 26.5q37 0 63.5 -26.5t26.5 -63.5t-26.5 -63t-63.5 -26t-63.5 26t-26.5 63t26 63.5zM408 0h-141v300l-262 400h172l160 -272l162 272h170l-261 -401v-299z" />
    <glyph glyph-name="uni1EF5" unicode="&#x1ef5;" horiz-adv-x="708" 
d="M546 19q0 -79 -37 -136.5t-97.5 -87t-129.5 -29.5q-89 0 -158.5 48t-93.5 135l122 44q12 -55 49 -83t86 -28q56 0 90.5 32.5t34.5 94.5v73q-21 -35 -60.5 -56t-81.5 -21q-54 0 -101 23.5t-75.5 69.5t-28.5 112v294h136v-276q0 -49 25 -78.5t73 -29.5q52 0 81.5 37
t29.5 100v247h136v-485zM534 -187.5q26 26.5 64 26.5q37 0 63.5 -26.5t26.5 -63.5t-26.5 -63t-63.5 -26t-63.5 26t-26.5 63t26 63.5z" />
    <glyph glyph-name="uni1EF6" unicode="&#x1ef6;" horiz-adv-x="674" 
d="M317 843q12 10 13 30q0 17 -10.5 26.5t-28.5 9.5q-28 -2 -48 -14l-34 74q59 26 99 26q53 0 83 -32.5t30 -76.5q0 -47 -34 -80.5t-82 -48.5l-27 64q27 12 39 22zM408 0h-141v300l-262 400h172l160 -272l162 272h170l-261 -401v-299z" />
    <glyph glyph-name="uni1EF7" unicode="&#x1ef7;" horiz-adv-x="611" 
d="M285 659q12 10 13 30q0 17 -10.5 26.5t-28.5 9.5q-28 -2 -48 -14l-34 74q58 26 99 26q53 0 83 -32.5t30 -76.5q0 -47 -34 -80.5t-82 -48.5l-27 64q27 12 39 22zM546 19q0 -79 -37 -136.5t-97.5 -87t-129.5 -29.5q-89 0 -158.5 48t-93.5 135l122 44q12 -55 49 -83t86 -28
q56 0 90.5 32.5t34.5 94.5v73q-21 -35 -60.5 -56t-81.5 -21q-54 0 -101 23.5t-75.5 69.5t-28.5 112v294h136v-276q0 -49 25 -78.5t73 -29.5q52 0 81.5 37t29.5 100v247h136v-485z" />
    <glyph glyph-name="uni1EF8" unicode="&#x1ef8;" horiz-adv-x="674" 
d="M408 0h-141v300l-262 400h172l160 -272l162 272h170l-261 -401v-299zM503 838.5q-18 -34.5 -43 -55.5t-52 -21q-18 0 -33 6.5t-41 21.5q-21 12 -31.5 17t-21.5 5q-16 0 -27 -11t-20.5 -24.5t-12.5 -17.5l-74 55q34 54 64.5 82t72.5 28q20 0 37 -6.5t39 -18.5
q11 -7 22.5 -12t20.5 -5q13 0 23.5 10.5t23.5 34.5l74 -49q-3 -5 -21 -39.5z" />
    <glyph glyph-name="uni1EF9" unicode="&#x1ef9;" horiz-adv-x="611" 
d="M546 19q0 -79 -37 -136.5t-97.5 -87t-129.5 -29.5q-89 0 -158.5 48t-93.5 135l122 44q12 -55 49 -83t86 -28q56 0 90.5 32.5t34.5 94.5v73q-21 -35 -60.5 -56t-81.5 -21q-54 0 -101 23.5t-75.5 69.5t-28.5 112v294h136v-276q0 -49 25 -78.5t73 -29.5q52 0 81.5 37
t29.5 100v247h136v-485zM486 677.5q-18 -34.5 -43 -55.5t-52 -21q-18 0 -35 7.5t-38 20.5q-17 10 -29 15.5t-23 5.5q-17 0 -30 -12.5t-32 -39.5l-74 55q34 54 64.5 82t72.5 28q20 0 37 -6.5t39 -18.5q11 -7 22.5 -12t20.5 -5q14 0 24 9t23 32l74 -45q-3 -5 -21 -39.5z" />
    <glyph glyph-name="endash" unicode="&#x2013;" horiz-adv-x="510" 
d="M460 326v-117h-410v117h410z" />
    <glyph glyph-name="emdash" unicode="&#x2014;" horiz-adv-x="701" 
d="M651 328v-117h-601v117h601z" />
    <glyph glyph-name="quoteleft" unicode="&#x2018;" horiz-adv-x="286" 
d="M163 380l-143 56l132 298l114 -47z" />
    <glyph glyph-name="quoteright" unicode="&#x2019;" horiz-adv-x="286" 
d="M123 756l143 -56l-132 -298l-114 47z" />
    <glyph glyph-name="quotesinglbase" unicode="&#x201a;" horiz-adv-x="286" 
d="M123 151l143 -56l-132 -298l-114 47z" />
    <glyph glyph-name="quotedblleft" unicode="&#x201c;" horiz-adv-x="531" 
d="M163 380l-143 56l132 298l114 -47zM408 380l-143 56l132 298l114 -47z" />
    <glyph glyph-name="quotedblright" unicode="&#x201d;" horiz-adv-x="531" 
d="M123 756l143 -56l-132 -298l-114 47zM368 756l143 -56l-132 -298l-114 47z" />
    <glyph glyph-name="quotedblbase" unicode="&#x201e;" horiz-adv-x="531" 
d="M123 151l143 -56l-132 -298l-114 47zM368 151l143 -56l-132 -298l-114 47z" />
    <glyph glyph-name="dagger" unicode="&#x2020;" horiz-adv-x="442" 
d="M286 534h135v-117h-135v-417h-136v417h-135v117h135v182h136v-182z" />
    <glyph glyph-name="daggerdbl" unicode="&#x2021;" horiz-adv-x="442" 
d="M286 288h135v-117h-135v-171h-136v171h-135v117h135v140h-135v117h135v171h136v-171h135v-117h-135v-140z" />
    <glyph glyph-name="bullet" unicode="&#x2022;" horiz-adv-x="229" 
d="M180.5 205.5q-28.5 -28.5 -64.5 -28.5q-38 0 -67 28.5t-29 65.5t29 65t67 28q36 0 64.5 -28t28.5 -65t-28.5 -65.5z" />
    <glyph glyph-name="ellipsis" unicode="&#x2026;" horiz-adv-x="882" 
d="M83.5 137q26.5 26 63.5 26q38 0 64 -26t26 -64q0 -37 -26.5 -63t-63.5 -26t-63.5 26t-26.5 63q0 38 26.5 64zM671.5 137q26.5 26 63.5 26q38 0 64 -26t26 -64q0 -37 -26.5 -63t-63.5 -26t-63.5 26t-26.5 63q0 38 26.5 64zM377.5 137q26.5 26 63.5 26q38 0 64 -26t26 -64
q0 -37 -26.5 -63t-63.5 -26t-63.5 26t-26.5 63q0 38 26.5 64z" />
    <glyph glyph-name="perthousand" unicode="&#x2030;" horiz-adv-x="1393" 
d="M238 54l421 662l82 -52l-422 -664zM54.5 625q24.5 43 66.5 68t93 25t94 -25t68 -68t25 -94t-25 -93t-68 -66.5t-94 -24.5t-93 24.5t-66.5 66.5t-24.5 93t24.5 94zM160 474.5q22 -21.5 55 -21.5q32 0 52.5 21.5t20.5 55.5t-21 56t-52 22q-33 0 -55 -22t-22 -56t22 -55.5z
M590.5 262q24.5 43 66.5 68t93 25t94 -25t68 -68t25 -94t-25 -93t-68 -66.5t-94 -24.5t-93 24.5t-66.5 66.5t-24.5 93t24.5 94zM696 111.5q22 -21.5 55 -21.5q32 0 52.5 21.5t20.5 55.5t-21 56t-52 22q-33 0 -55 -22t-22 -56t22 -55.5zM1016.5 262q24.5 43 66.5 68t93 25
t94 -25t68 -68t25 -94t-25 -93t-68 -66.5t-94 -24.5t-93 24.5t-66.5 66.5t-24.5 93t24.5 94zM1122 111.5q22 -21.5 55 -21.5q32 0 52.5 21.5t20.5 55.5t-21 56t-52 22q-33 0 -55 -22t-22 -56t22 -55.5z" />
    <glyph glyph-name="guilsinglleft" unicode="&#x2039;" horiz-adv-x="335" 
d="M305 130l-99 -83l-196 231l196 231l99 -83l-129 -148z" />
    <glyph glyph-name="guilsinglright" unicode="&#x203a;" horiz-adv-x="335" 
d="M30 426l99 83l196 -231l-196 -231l-99 83l129 148z" />
    <glyph glyph-name="fraction" unicode="&#x2044;" horiz-adv-x="643" 
d="M65 54l421 662l82 -52l-422 -664z" />
    <glyph glyph-name="franc" unicode="&#x20a3;" horiz-adv-x="567" 
d="M228 580v-170h227v-121h-227v-100h87v-71h-87v-118h-140v118h-88v71h88v511h424v-120h-284z" />
    <glyph glyph-name="dong" unicode="&#x20ab;" horiz-adv-x="532" 
d="M559 598h-77v-451h-114v39q-46 -48 -131 -48q-52 0 -100 24t-77.5 71.5t-29.5 113.5t29 112.5t75.5 70.5t97.5 24q46 0 81 -13t54 -38v95h-123v71h123v47h115v-47h77v-71zM338 265.5q29 29.5 29 80.5q0 52 -29.5 81.5t-83.5 29.5q-53 0 -81.5 -29.5t-28.5 -80.5
q0 -52 29 -81.5t82 -29.5q54 0 83 29.5zM45 91h437v-91h-437v91z" />
    <glyph glyph-name="Euro" unicode="&#x20ac;" horiz-adv-x="816" 
d="M791 204q-45 -106 -132.5 -163t-193.5 -57q-78 0 -147 31t-118.5 89.5t-69.5 139.5h-120v69h109q-1 11 -1 34q0 16 2 46h-110v69h123q23 81 76.5 138t124.5 86.5t148 29.5q78 0 151 -31.5t125 -98.5l-99 -94q-31 49 -78.5 70.5t-101.5 21.5q-68 0 -121.5 -31t-78.5 -91
h301v-69h-319q-2 -24 -2 -39t2 -41h319v-69h-301q25 -61 76 -94.5t116 -33.5q70 0 123 38t82 111z" />
    <glyph glyph-name="uni20AD" unicode="&#x20ad;" horiz-adv-x="701" 
d="M691 0h-193l-273 297v-297h-140v315h-75v71h75v314h140v-291l266 291h182l-295 -314h312v-71h-293z" />
    <glyph glyph-name="uni2116" unicode="&#x2116;" horiz-adv-x="1164" 
d="M75 700h133l329 -444v444h140v-700h-133l-329 440v-440h-140v700zM777.5 625q24.5 43 66.5 68t93 25t94 -25t68 -68t25 -94t-25 -93t-68 -66.5t-94 -24.5t-93 24.5t-66.5 66.5t-24.5 93t24.5 94zM883 474.5q22 -21.5 55 -21.5q32 0 52.5 21.5t20.5 55.5t-21 56t-52 22
q-33 0 -55 -22t-22 -56t22 -55.5z" />
    <glyph glyph-name="trademark" unicode="&#x2122;" horiz-adv-x="776" 
d="M147 635h-107v65h285v-65h-108v-289h-70v289zM380 700h78l100 -188l99 188h79v-354h-68v217l-83 -141h-54l-83 141v-217h-68v354z" />
    <glyph glyph-name="uni2153" unicode="&#x2153;" horiz-adv-x="940" 
d="M193 54l421 662l82 -52l-422 -664zM126 604h-51v95h154v-424h-103v329zM865 125q0 -57 -43.5 -94.5t-109.5 -37.5q-53 0 -93.5 27.5t-58.5 75.5l86 45q8 -25 27.5 -39.5t43.5 -14.5q21 0 33.5 11t12.5 28q0 26 -24.5 38.5t-79.5 10.5v91q44 -2 67 10t23 35
q0 16 -10.5 25.5t-28.5 9.5q-22 0 -40.5 -12.5t-25.5 -33.5l-80 44q18 44 59 70t93 26q59 0 98 -34t39 -85q0 -29 -14.5 -53t-38.5 -38q65 -29 65 -105z" />
    <glyph glyph-name="uni2154" unicode="&#x2154;" horiz-adv-x="1029" 
d="M954 125q0 -57 -43.5 -94.5t-109.5 -37.5q-53 0 -93.5 27.5t-58.5 75.5l86 45q8 -25 27.5 -39.5t43.5 -14.5q21 0 33.5 11t12.5 28q0 26 -24.5 38.5t-79.5 10.5v91q44 -2 67 10t23 35q0 16 -10.5 25.5t-28.5 9.5q-22 0 -40.5 -12.5t-25.5 -33.5l-80 44q18 44 59 70t93 26
q59 0 98 -34t39 -85q0 -29 -14.5 -53t-38.5 -38q65 -29 65 -105zM289 54l421 662l82 -52l-422 -664zM382 276h-300v81l144 147q40 40 40 75q0 19 -11 30.5t-29 11.5q-23 0 -39 -16.5t-18 -41.5l-94 21q6 58 50 95t107 37t103 -36.5t40 -94.5q0 -74 -74 -144l-74 -71h155v-94
z" />
    <glyph glyph-name="uni2155" unicode="&#x2155;" horiz-adv-x="967" 
d="M194 54l421 662l82 -52l-422 -664zM126 604h-51v95h154v-424h-103v329zM871 68.5q-21 -35.5 -58 -55.5t-83 -20q-52 0 -95 28t-65 75l88 51q7 -27 28.5 -43.5t47.5 -16.5q25 0 39.5 14.5t14.5 39.5t-15.5 40t-41.5 15q-37 0 -59 -33h-74v261h255v-95h-165v-56
q31 17 66 17q59 0 98.5 -40.5t39.5 -101.5q0 -44 -21 -79.5z" />
    <glyph glyph-name="uni2156" unicode="&#x2156;" horiz-adv-x="1072" 
d="M289 54l421 662l82 -52l-422 -664zM976 68.5q-21 -35.5 -58 -55.5t-83 -20q-52 0 -95 28t-65 75l88 51q7 -27 28.5 -43.5t47.5 -16.5q25 0 39.5 14.5t14.5 39.5t-15.5 40t-41.5 15q-37 0 -59 -33h-74v261h255v-95h-165v-56q31 17 66 17q59 0 98.5 -40.5t39.5 -101.5
q0 -44 -21 -79.5zM382 276h-300v81l144 147q40 40 40 75q0 19 -11 30.5t-29 11.5q-23 0 -39 -16.5t-18 -41.5l-94 21q6 58 50 95t107 37t103 -36.5t40 -94.5q0 -74 -74 -144l-74 -71h155v-94z" />
    <glyph glyph-name="uni2157" unicode="&#x2157;" horiz-adv-x="1051" 
d="M268 54l421 662l82 -52l-422 -664zM955 68.5q-21 -35.5 -58 -55.5t-83 -20q-52 0 -95 28t-65 75l88 51q7 -27 28.5 -43.5t47.5 -16.5q25 0 39.5 14.5t14.5 39.5t-15.5 40t-41.5 15q-37 0 -59 -33h-74v261h255v-95h-165v-56q31 17 66 17q59 0 98.5 -40.5t39.5 -101.5
q0 -44 -21 -79.5zM380 401q0 -57 -43.5 -94.5t-109.5 -37.5q-53 0 -93.5 27.5t-58.5 75.5l86 45q8 -25 27.5 -39.5t43.5 -14.5q21 0 33.5 11t12.5 28q0 26 -24.5 38.5t-79.5 10.5v91q44 -2 67 10t23 35q0 16 -10.5 25.5t-28.5 9.5q-22 0 -40.5 -12.5t-25.5 -33.5l-80 44
q18 44 59 70t93 26q59 0 98 -34t39 -85q0 -29 -14.5 -53t-38.5 -38q65 -29 65 -105z" />
    <glyph glyph-name="uni2158" unicode="&#x2158;" horiz-adv-x="1096" 
d="M312 54l421 662l82 -52l-422 -664zM1000 68.5q-21 -35.5 -58 -55.5t-83 -20q-52 0 -95 28t-65 75l88 51q7 -27 28.5 -43.5t47.5 -16.5q25 0 39.5 14.5t14.5 39.5t-15.5 40t-41.5 15q-37 0 -59 -33h-74v261h255v-95h-165v-56q31 17 66 17q59 0 98.5 -40.5t39.5 -101.5
q0 -44 -21 -79.5zM407 367h-59v-91h-103v91h-170v85l171 248h102v-239h59v-94zM185 461h60v95z" />
    <glyph glyph-name="uni2159" unicode="&#x2159;" horiz-adv-x="948" 
d="M193 54l421 662l82 -52l-422 -664zM126 604h-51v95h154v-424h-103v329zM832 259.5q41 -40.5 41 -105.5q0 -45 -21 -82t-58 -58t-83 -21q-51 0 -90 26t-60.5 73t-21.5 108q0 70 28 124.5t80 85t121 30.5q14 0 30 -4l7 -98q-25 4 -36 4q-81 0 -106 -56q25 14 63 14
q65 0 106 -40.5zM754 104q16 17 16 46q0 28 -15.5 44t-43.5 16t-44.5 -15.5t-16.5 -43.5q0 -29 16.5 -46.5t44.5 -17.5q27 0 43 17z" />
    <glyph glyph-name="uni215A" unicode="&#x215a;" horiz-adv-x="1027" 
d="M271 54l421 662l82 -52l-422 -664zM911 259.5q41 -40.5 41 -105.5q0 -45 -21 -82t-58 -58t-83 -21q-51 0 -90 26t-60.5 73t-21.5 108q0 70 28 124.5t80 85t121 30.5q14 0 30 -4l7 -98q-25 4 -36 4q-81 0 -106 -56q25 14 63 14q65 0 106 -40.5zM833 104q16 17 16 46
q0 28 -15.5 44t-43.5 16t-44.5 -15.5t-16.5 -43.5q0 -29 16.5 -46.5t44.5 -17.5q27 0 43 17zM376 344.5q-21 -35.5 -58 -55.5t-83 -20q-52 0 -95 28t-65 75l88 51q7 -27 28.5 -43.5t47.5 -16.5q25 0 39.5 14.5t14.5 39.5t-15.5 40t-41.5 15q-37 0 -59 -33h-74v261h255v-95
h-165v-56q31 17 66 17q59 0 98.5 -40.5t39.5 -101.5q0 -44 -21 -79.5z" />
    <glyph glyph-name="oneeighth" unicode="&#x215b;" horiz-adv-x="956" 
d="M193 54l421 662l82 -52l-422 -664zM126 604h-51v95h154v-424h-103v329zM881 130q0 -39 -21 -70t-57.5 -49t-81.5 -18t-82 18t-58 49t-21 70q0 32 16.5 59t45.5 43q-22 16 -34 39t-12 49q0 52 42.5 86t105.5 34q62 0 102.5 -34.5t40.5 -86.5q0 -26 -12.5 -49.5
t-35.5 -39.5q62 -34 62 -100zM691 339.5q-12 -9.5 -12 -25.5q0 -18 14 -28t40 -17q15 8 23 21t8 27t-11.5 23t-30.5 9t-31 -9.5zM764 96q15 11 15 30t-19 35.5t-56 27.5q-18 -6 -30 -22.5t-12 -34.5q0 -22 16 -34.5t44 -12.5q27 0 42 11z" />
    <glyph glyph-name="threeeighths" unicode="&#x215c;" horiz-adv-x="1011" 
d="M248 54l421 662l82 -52l-422 -664zM936 130q0 -39 -21 -70t-57.5 -49t-81.5 -18t-82 18t-58 49t-21 70q0 32 16.5 59t45.5 43q-22 16 -34 39t-12 49q0 52 42.5 86t105.5 34q62 0 102.5 -34.5t40.5 -86.5q0 -26 -12.5 -49.5t-35.5 -39.5q62 -34 62 -100zM746 339.5
q-12 -9.5 -12 -25.5q0 -18 14 -28t40 -17q15 8 23 21t8 27t-11.5 23t-30.5 9t-31 -9.5zM819 96q15 11 15 30t-19 35.5t-56 27.5q-18 -6 -30 -22.5t-12 -34.5q0 -22 16 -34.5t44 -12.5q27 0 42 11zM380 401q0 -57 -43.5 -94.5t-109.5 -37.5q-53 0 -93.5 27.5t-58.5 75.5
l86 45q8 -25 27.5 -39.5t43.5 -14.5q21 0 33.5 11t12.5 28q0 26 -24.5 38.5t-79.5 10.5v91q44 -2 67 10t23 35q0 16 -10.5 25.5t-28.5 9.5q-22 0 -40.5 -12.5t-25.5 -33.5l-80 44q18 44 59 70t93 26q59 0 98 -34t39 -85q0 -29 -14.5 -53t-38.5 -38q65 -29 65 -105z" />
    <glyph glyph-name="fiveeighths" unicode="&#x215d;" horiz-adv-x="1024" 
d="M949 130q0 -39 -21 -70t-57.5 -49t-81.5 -18t-82 18t-58 49t-21 70q0 32 16.5 59t45.5 43q-22 16 -34 39t-12 49q0 52 42.5 86t105.5 34q62 0 102.5 -34.5t40.5 -86.5q0 -26 -12.5 -49.5t-35.5 -39.5q62 -34 62 -100zM759 339.5q-12 -9.5 -12 -25.5q0 -18 14 -28t40 -17
q15 8 23 21t8 27t-11.5 23t-30.5 9t-31 -9.5zM832 96q15 11 15 30t-19 35.5t-56 27.5q-18 -6 -30 -22.5t-12 -34.5q0 -22 16 -34.5t44 -12.5q27 0 42 11zM271 54l421 662l82 -52l-422 -664zM376 344.5q-21 -35.5 -58 -55.5t-83 -20q-52 0 -95 28t-65 75l88 51
q7 -27 28.5 -43.5t47.5 -16.5q25 0 39.5 14.5t14.5 39.5t-15.5 40t-41.5 15q-37 0 -59 -33h-74v261h255v-95h-165v-56q31 17 66 17q59 0 98.5 -40.5t39.5 -101.5q0 -44 -21 -79.5z" />
    <glyph glyph-name="seveneighths" unicode="&#x215e;" horiz-adv-x="987" 
d="M224 54l421 662l82 -52l-422 -664zM912 130q0 -39 -21 -70t-57.5 -49t-81.5 -18t-82 18t-58 49t-21 70q0 32 16.5 59t45.5 43q-22 16 -34 39t-12 49q0 52 42.5 86t105.5 34q62 0 102.5 -34.5t40.5 -86.5q0 -26 -12.5 -49.5t-35.5 -39.5q62 -34 62 -100zM722 339.5
q-12 -9.5 -12 -25.5q0 -18 14 -28t40 -17q15 8 23 21t8 27t-11.5 23t-30.5 9t-31 -9.5zM795 96q15 11 15 30t-19 35.5t-56 27.5q-18 -6 -30 -22.5t-12 -34.5q0 -22 16 -34.5t44 -12.5q27 0 42 11zM392 610l-171 -334h-111l172 324h-207v100h317v-90z" />
    <glyph glyph-name="minus" unicode="&#x2212;" horiz-adv-x="458" 
d="M30 325h398v-118h-398v118z" />
    <glyph glyph-name="infinity" unicode="&#x221e;" horiz-adv-x="851" 
d="M717.5 503q52.5 -30 85.5 -85.5t33 -128.5t-33 -128.5t-86.5 -86t-111.5 -30.5q-55 0 -105 28t-80 81q-27 -53 -74.5 -81t-102.5 -28q-57 0 -109.5 30t-85.5 85t-33 128t33 129t86 86.5t111 30.5q55 0 105.5 -28t80.5 -82q27 54 75 82t103 28q56 0 108.5 -30zM322 218
q34 30 42 81q-15 44 -46 69.5t-66 25.5q-38 0 -64.5 -27.5t-26.5 -78.5q0 -48 25 -74t62 -26q40 0 74 30zM664 210.5q27 27.5 27 77.5q0 48 -25.5 74t-62.5 26q-40 0 -74 -29.5t-42 -80.5q15 -44 46 -69.5t66 -25.5q38 0 65 27.5z" />
    <glyph glyph-name="uniA729" unicode="&#xa729;" horiz-adv-x="826" 
d="M738.5 122q47.5 -58 47.5 -135q0 -68 -35.5 -118t-96 -76.5t-132.5 -26.5q-77 0 -138.5 31t-99.5 91l100 77q25 -40 63.5 -60.5t79.5 -20.5q51 0 86.5 28.5t35.5 77.5q0 115 -202 115v105l168 177h-344v-387h-136v387h-120v117h120v129h136v-129h508v-118l-187 -191
q99 -15 146.5 -73z" />
    <glyph glyph-name="fl" unicode="&#xfb02;" horiz-adv-x="737" 
d="M628 -11q-74 0 -123.5 44t-49.5 133v221h-209v-387h-136v387h-95v117h95v38q0 84 49 130t125 46q35 0 70 -10.5t66 -33.5l-62 -94q-30 22 -59 22q-25 0 -39 -17t-14 -48v-33h209v196h137v-532q0 -33 18 -48.5t44 -15.5q15 0 37 10l46 -99q-55 -26 -109 -26z" />
    <glyph glyph-name="null" horiz-adv-x="21" 
 />
    <glyph glyph-name="i.loclTRK" horiz-adv-x="283" 
d="M74 504h136v-504h-136v504zM79 742q25 26 62 26t63 -26t26 -63q0 -36 -26 -61.5t-63 -25.5t-62 25.5t-25 61.5q0 37 25 63z" />
    <glyph glyph-name="f_f_l" horiz-adv-x="1073" 
d="M1073 15q-55 -26 -109 -26q-74 0 -123.5 44t-49.5 133v221h-209v-387h-136v387h-200v-387h-136v387h-95v117h95v38q0 84 49.5 130t125.5 46q35 0 70 -10.5t66 -33.5l-62 -94q-30 22 -59 22q-25 0 -39.5 -17t-14.5 -48v-33h200v38q0 84 49 130t125 46q35 0 70 -10.5
t66 -33.5l-62 -94q-30 22 -59 22q-25 0 -39 -17t-14 -48v-33h209v196h137v-532q0 -33 18 -48.5t44 -15.5q15 0 37 10z" />
    <glyph glyph-name="zero.dnom" horiz-adv-x="370" 
d="M60.5 52.5q-44.5 59.5 -44.5 163.5t44.5 164t123.5 60q78 0 122 -59.5t44 -164.5q0 -104 -44 -163.5t-122 -59.5q-79 0 -123.5 59.5zM230 119.5q15 31.5 15 96.5q0 66 -15 97.5t-46 31.5q-63 0 -63 -129q0 -128 63 -128q31 0 46 31.5z" />
    <glyph glyph-name="one.dnom" horiz-adv-x="360" 
d="M164 329h-51v95h154v-424h-103v329z" />
    <glyph glyph-name="two.dnom" horiz-adv-x="360" 
d="M335 0h-300v81l144 147q40 40 40 75q0 19 -11 30.5t-29 11.5q-23 0 -39 -16.5t-18 -41.5l-94 21q6 58 50 95t107 37t103 -36.5t40 -94.5q0 -74 -74 -144l-74 -71h155v-94z" />
    <glyph glyph-name="three.dnom" horiz-adv-x="360" 
d="M332 125q0 -57 -43.5 -94.5t-109.5 -37.5q-53 0 -93.5 27.5t-58.5 75.5l86 45q8 -25 27.5 -39.5t43.5 -14.5q21 0 33.5 11t12.5 28q0 26 -24.5 38.5t-79.5 10.5v91q44 -2 67 10t23 35q0 16 -10.5 25.5t-28.5 9.5q-22 0 -40.5 -12.5t-25.5 -33.5l-80 44q18 44 59 70t93 26
q59 0 98 -34t39 -85q0 -29 -14.5 -53t-38.5 -38q65 -29 65 -105z" />
    <glyph glyph-name="four.dnom" horiz-adv-x="360" 
d="M346 91h-59v-91h-103v91h-170v85l171 248h102v-239h59v-94zM124 185h60v95z" />
    <glyph glyph-name="five.dnom" horiz-adv-x="360" 
d="M319 68.5q-21 -35.5 -58 -55.5t-83 -20q-52 0 -95 28t-65 75l88 51q7 -27 28.5 -43.5t47.5 -16.5q25 0 39.5 14.5t14.5 39.5t-15.5 40t-41.5 15q-37 0 -59 -33h-74v261h255v-95h-165v-56q31 17 66 17q59 0 98.5 -40.5t39.5 -101.5q0 -44 -21 -79.5z" />
    <glyph glyph-name="six.dnom" horiz-adv-x="360" 
d="M307 259.5q41 -40.5 41 -105.5q0 -45 -21 -82t-58 -58t-83 -21q-51 0 -90 26t-60.5 73t-21.5 108q0 70 28 124.5t80 85t121 30.5q14 0 30 -4l7 -98q-25 4 -36 4q-81 0 -106 -56q25 14 63 14q65 0 106 -40.5zM229 104q16 17 16 46q0 28 -15.5 44t-43.5 16t-44.5 -15.5
t-16.5 -43.5q0 -29 16.5 -46.5t44.5 -17.5q27 0 43 17z" />
    <glyph glyph-name="seven.dnom" horiz-adv-x="360" 
d="M339 334l-171 -334h-111l172 324h-207v100h317v-90z" />
    <glyph glyph-name="eight.dnom" horiz-adv-x="360" 
d="M343 130q0 -39 -21 -70t-57.5 -49t-81.5 -18t-82 18t-58 49t-21 70q0 32 16.5 59t45.5 43q-22 16 -34 39t-12 49q0 52 42.5 86t105.5 34q62 0 102.5 -34.5t40.5 -86.5q0 -26 -12.5 -49.5t-35.5 -39.5q62 -34 62 -100zM153 339.5q-12 -9.5 -12 -25.5q0 -18 14 -28t40 -17
q15 8 23 21t8 27t-11.5 23t-30.5 9t-31 -9.5zM226 96q15 11 15 30t-19 35.5t-56 27.5q-18 -6 -30 -22.5t-12 -34.5q0 -22 16 -34.5t44 -12.5q27 0 42 11z" />
    <glyph glyph-name="nine.dnom" horiz-adv-x="360" 
d="M55 173.5q-41 40.5 -41 105.5q0 45 21 82t58 58t83 21q51 0 90 -26t60.5 -73t21.5 -108q0 -70 -28 -124.5t-80 -85t-121 -30.5q-14 0 -30 4l-7 98q25 -4 36 -4q81 0 106 56q-25 -14 -63 -14q-65 0 -106 40.5zM133 329q-16 -17 -16 -46q0 -28 15.5 -44t43.5 -16t44.5 15.5
t16.5 43.5q0 29 -16.5 46.5t-44.5 17.5q-27 0 -43 -17z" />
    <glyph glyph-name="zero.numr" horiz-adv-x="370" 
d="M60.5 328.5q-44.5 59.5 -44.5 163.5t44.5 164t123.5 60q78 0 122 -59.5t44 -164.5q0 -104 -44 -163.5t-122 -59.5q-79 0 -123.5 59.5zM230 395.5q15 31.5 15 96.5q0 66 -15 97.5t-46 31.5q-63 0 -63 -129q0 -128 63 -128q31 0 46 31.5z" />
    <glyph glyph-name="one.numr" horiz-adv-x="360" 
d="M164 605h-51v95h154v-424h-103v329z" />
    <glyph glyph-name="two.numr" horiz-adv-x="360" 
d="M335 276h-300v81l144 147q40 40 40 75q0 19 -11 30.5t-29 11.5q-23 0 -39 -16.5t-18 -41.5l-94 21q6 58 50 95t107 37t103 -36.5t40 -94.5q0 -74 -74 -144l-74 -71h155v-94z" />
    <glyph glyph-name="three.numr" horiz-adv-x="360" 
d="M332 401q0 -57 -43.5 -94.5t-109.5 -37.5q-53 0 -93.5 27.5t-58.5 75.5l86 45q8 -25 27.5 -39.5t43.5 -14.5q21 0 33.5 11t12.5 28q0 26 -24.5 38.5t-79.5 10.5v91q44 -2 67 10t23 35q0 16 -10.5 25.5t-28.5 9.5q-22 0 -40.5 -12.5t-25.5 -33.5l-80 44q18 44 59 70t93 26
q59 0 98 -34t39 -85q0 -29 -14.5 -53t-38.5 -38q65 -29 65 -105z" />
    <glyph glyph-name="four.numr" horiz-adv-x="360" 
d="M346 367h-59v-91h-103v91h-170v85l171 248h102v-239h59v-94zM124 461h60v95z" />
    <glyph glyph-name="five.numr" horiz-adv-x="360" 
d="M319 344.5q-21 -35.5 -58 -55.5t-83 -20q-52 0 -95 28t-65 75l88 51q7 -27 28.5 -43.5t47.5 -16.5q25 0 39.5 14.5t14.5 39.5t-15.5 40t-41.5 15q-37 0 -59 -33h-74v261h255v-95h-165v-56q31 17 66 17q59 0 98.5 -40.5t39.5 -101.5q0 -44 -21 -79.5z" />
    <glyph glyph-name="six.numr" horiz-adv-x="360" 
d="M307 535.5q41 -40.5 41 -105.5q0 -45 -21 -82t-58 -58t-83 -21q-51 0 -90 26t-60.5 73t-21.5 108q0 70 28 124.5t80 85t121 30.5q14 0 30 -4l7 -98q-25 4 -36 4q-81 0 -106 -56q25 14 63 14q65 0 106 -40.5zM229 380q16 17 16 46q0 28 -15.5 44t-43.5 16t-44.5 -15.5
t-16.5 -43.5q0 -29 16.5 -46.5t44.5 -17.5q27 0 43 17z" />
    <glyph glyph-name="seven.numr" horiz-adv-x="360" 
d="M339 610l-171 -334h-111l172 324h-207v100h317v-90z" />
    <glyph glyph-name="eight.numr" horiz-adv-x="360" 
d="M343 406q0 -39 -21 -70t-57.5 -49t-81.5 -18t-82 18t-58 49t-21 70q0 32 16.5 59t45.5 43q-22 16 -34 39t-12 49q0 52 42.5 86t105.5 34q62 0 102.5 -34.5t40.5 -86.5q0 -26 -12.5 -49.5t-35.5 -39.5q62 -34 62 -100zM153 615.5q-12 -9.5 -12 -25.5q0 -18 14 -28t40 -17
q15 8 23 21t8 27t-11.5 23t-30.5 9t-31 -9.5zM226 372q15 11 15 30t-19 35.5t-56 27.5q-18 -6 -30 -22.5t-12 -34.5q0 -22 16 -34.5t44 -12.5q27 0 42 11z" />
    <glyph glyph-name="nine.numr" horiz-adv-x="360" 
d="M55 449.5q-41 40.5 -41 105.5q0 45 21 82t58 58t83 21q51 0 90 -26t60.5 -73t21.5 -108q0 -70 -28 -124.5t-80 -85t-121 -30.5q-14 0 -30 4l-7 98q25 -4 36 -4q81 0 106 56q-25 -14 -63 -14q-65 0 -106 40.5zM133 605q-16 -17 -16 -46q0 -28 15.5 -44t43.5 -16t44.5 15.5
t16.5 43.5q0 29 -16.5 46.5t-44.5 17.5q-27 0 -43 -17z" />
    <glyph glyph-name="acute.001" horiz-adv-x="185" 
d="M0 992l113 147l72 -56l-112 -145z" />
    <glyph glyph-name="caron.001" horiz-adv-x="262" 
d="M262 1014l-131 -96l-131 96l51 67l80 -58l80 58z" />
    <glyph glyph-name="circumflex.001" horiz-adv-x="262" 
d="M131 976l-80 -58l-51 67l131 96l131 -96l-51 -67z" />
    <glyph glyph-name="grave.001" horiz-adv-x="185" 
d="M0 1083l72 56l113 -147l-73 -54z" />
    <glyph glyph-name="tilde.001" horiz-adv-x="309" 
d="M176 973q-12 5 -33 16q-21 14 -33 14q-10 0 -19.5 -8t-30.5 -34l-60 50q4 5 20.5 27t39.5 36.5t48 14.5q17 0 32 -5.5t35 -16.5q24 -12 31 -12q9 0 20 11t19 29l64 -36q-23 -40 -47.5 -65.5t-57.5 -25.5q-16 0 -28 5z" />
    <glyph glyph-name="acute.cap" horiz-adv-x="316" 
d="M316 825l-280 -85l-36 117l283 84z" />
    <glyph glyph-name="breve.cap" horiz-adv-x="308" 
d="M308 919q0 -67 -38 -112.5t-116 -45.5t-116 45.5t-38 112.5h93q0 -29 14 -48t45 -19q34 0 48.5 18.5t14.5 48.5h93z" />
    <glyph glyph-name="caron.cap" horiz-adv-x="365" 
d="M182 750l-182 115l53 79l130 -79l129 79l53 -79z" />
    <glyph glyph-name="cedilla.cap" horiz-adv-x="285" 
d="M253.5 -89q31.5 -30 31.5 -68q0 -28 -16.5 -53t-48 -40.5t-73.5 -15.5q-45 0 -83.5 17.5t-63.5 49.5l54 55q19 -23 41 -35t45 -12t42.5 10.5t19.5 32.5q0 50 -115 53l39 123h59l-26 -79q63 -8 94.5 -38z" />
    <glyph glyph-name="circumflex.cap" horiz-adv-x="365" 
d="M310 750l-127 73l-128 -73l-55 80l182 115l183 -115z" />
    <glyph glyph-name="dieresis.cap" horiz-adv-x="421" 
d="M151 788q-26 -26 -63 -26q-36 0 -62 26t-26 61q0 37 25.5 63t62.5 26t63 -26t26 -63q0 -35 -26 -61zM395 787.5q-26 -25.5 -63 -25.5q-36 0 -62 26t-26 61q0 37 25.5 63t62.5 26t63 -26t26 -63q0 -36 -26 -61.5z" />
    <glyph glyph-name="dotaccent.cap" horiz-adv-x="176" 
d="M25 911q25 26 62 26t63 -26t26 -63q0 -36 -26 -61.5t-63 -25.5t-62 25.5t-25 61.5q0 37 25 63z" />
    <glyph glyph-name="grave.cap" horiz-adv-x="316" 
d="M280 752l-280 85l34 113l282 -81z" />
    <glyph glyph-name="hungarumlaut.cap" horiz-adv-x="326" 
d="M83 769h-83l55 131h108zM225 769h-85l78 131h108z" />
    <glyph glyph-name="macron.cap" horiz-adv-x="329" 
d="M329 881v-121h-329v121h329z" />
    <glyph glyph-name="ogonek.cap" horiz-adv-x="169" 
d="M107.5 -29.5q-20.5 -27.5 -20.5 -51.5q0 -22 21.5 -34t60.5 -10v-86q-79 3 -124 31t-45 75q0 38 26.5 68t69.5 50h64q-32 -15 -52.5 -42.5z" />
    <glyph glyph-name="ring.cap" horiz-adv-x="221" 
d="M31 918q31 32 78 32q46 0 79 -32.5t33 -77.5q0 -47 -32.5 -78.5t-79.5 -31.5t-78 31.5t-31 78.5q0 46 31 78zM74 802.5q13 -14.5 35 -14.5t35.5 14.5t13.5 36.5t-13.5 36.5t-35.5 14.5t-35 -14.5t-13 -36.5t13 -36.5z" />
    <glyph glyph-name="tilde.cap" horiz-adv-x="377" 
d="M356 838.5q-18 -34.5 -43 -55.5t-52 -21q-18 0 -35 7.5t-38 20.5q-17 10 -29 15.5t-23 5.5q-17 0 -30 -12.5t-32 -39.5l-74 55q34 54 64.5 82t72.5 28q20 0 37 -6.5t39 -18.5q11 -7 22.5 -12t20.5 -5q14 0 24 9t23 32l74 -45q-3 -5 -21 -39.5z" />
    <glyph glyph-name="horn" horiz-adv-x="0" 
d="M78 753q32 34 39 83l116 -33q-6 -45 -32 -87t-71 -69.5t-104 -27.5l-26 1v99q46 0 78 34z" />
    </font>
</defs>
</svg>
