<?xml version="1.0" standalone="no"?>
<!DOCTYPE svg PUBLIC "-//W3C//DTD SVG 1.1//EN" "http://www.w3.org/Graphics/SVG/1.1/DTD/svg11.dtd" >
<svg xmlns="http://www.w3.org/2000/svg" xmlns:xlink="http://www.w3.org/1999/xlink" version="1.1">
<metadata>
Created by FontForge 20170731 at Wed Jul 26 14:47:47 2017
 By Aleksey,,,
Copyright (c) 2014 by Luzi Gantenbein. All rights reserved.
</metadata>
<defs>
<font id="BuenosAiresTTF-Light" horiz-adv-x="574" >
  <font-face 
    font-family="Buenos Aires TTF Light"
    font-weight="300"
    font-stretch="normal"
    units-per-em="1000"
    panose-1="0 0 4 0 0 0 0 0 0 0"
    ascent="757"
    descent="-243"
    x-height="504"
    cap-height="700"
    bbox="-350 -339 1371 1077"
    underline-thickness="50"
    underline-position="-150"
    unicode-range="U+000D-FB03"
  />
<missing-glyph horiz-adv-x="309" 
 />
    <glyph glyph-name="ff" unicode="ff" horiz-adv-x="707" 
d="M558.5 630q-20.5 -21 -20.5 -63v-63h130v-70h-130v-434h-75v434h-280v-434h-76v434h-87v70h87v65q0 72 42 110.5t101 38.5q31 0 61.5 -11t52.5 -31l-41 -55q-14 15 -32 22.5t-36 7.5q-31 0 -51.5 -21t-20.5 -63v-63h280v65q0 72 41.5 110.5t100.5 38.5q32 0 62 -11
t52 -31l-40 -55q-30 30 -69 30q-31 0 -51.5 -21z" />
    <glyph glyph-name="fi" unicode="fi" horiz-adv-x="619" 
d="M549 0h-76v434h-290v-434h-76v434h-87v70h87v65q0 72 42 110.5t101 38.5q31 0 61.5 -11t52.5 -31l-41 -55q-14 15 -32 22.5t-36 7.5q-31 0 -51.5 -21t-20.5 -63v-63h366v-504z" />
    <glyph glyph-name="ffi" unicode="ffi" horiz-adv-x="983" 
d="M913 0h-76v434h-289v-434h-76v434h-289v-434h-76v434h-87v70h87v65q0 72 42 110.5t101 38.5q31 0 61.5 -11t52.5 -31l-41 -55q-14 15 -32 22.5t-36 7.5q-31 0 -51.5 -21t-20.5 -63v-63h289v65q0 72 42 110.5t101 38.5q31 0 61.5 -11t52.5 -31l-41 -55q-14 15 -32 22.5
t-36 7.5q-31 0 -51.5 -21t-20.5 -63v-63h365v-504z" />
    <glyph glyph-name="f_f_t" unicode="fft" horiz-adv-x="1112" 
d="M1082 33q-47 -44 -112 -44q-60 0 -101 38.5t-41 115.5v291h-290v-434h-76v434h-279v-434h-76v434h-87v70h87v65q0 72 42 110.5t101 38.5q31 0 61.5 -11t52.5 -31l-41 -55q-14 15 -32 22.5t-36 7.5q-31 0 -51.5 -21t-20.5 -63v-63h279v65q0 72 42 110.5t101 38.5
q31 0 61.5 -11t52.5 -31l-41 -55q-14 15 -32 22.5t-36 7.5q-31 0 -51.5 -21t-20.5 -63v-63h290v129h75v-129h136v-70h-136v-292q0 -43 20 -65t53 -22q17 0 37 7.5t34 20.5z" />
    <glyph glyph-name="f_t" unicode="ft" horiz-adv-x="757" 
d="M727 33q-47 -44 -112 -44q-60 0 -101 38.5t-41 115.5v291h-290v-434h-76v434h-87v70h87v65q0 72 42 110.5t101 38.5q31 0 61.5 -11t52.5 -31l-41 -55q-14 15 -32 22.5t-36 7.5q-31 0 -51.5 -21t-20.5 -63v-63h290v129h75v-129h136v-70h-136v-292q0 -43 20 -65t53 -22
q17 0 37 7.5t34 20.5z" />
    <glyph glyph-name="t_t" unicode="tt" horiz-adv-x="775" 
d="M745 33q-47 -44 -112 -44q-60 0 -101 38.5t-41 115.5v291h-290v-292q0 -43 20 -65t53 -22q17 0 37 7.5t34 20.5l35 -50q-47 -44 -112 -44q-60 0 -101 38.5t-41 115.5v291h-106v70h106v129h75v-129h290v129h75v-129h136v-70h-136v-292q0 -43 20 -65t53 -22q17 0 37 7.5
t34 20.5z" />
    <glyph glyph-name=".notdef" horiz-adv-x="309" 
 />
    <glyph glyph-name=".null" horiz-adv-x="0" 
 />
    <glyph glyph-name="nonmarkingreturn" unicode="&#xd;" horiz-adv-x="287" 
 />
    <glyph glyph-name="space" unicode=" " horiz-adv-x="280" 
 />
    <glyph glyph-name="exclam" unicode="!" horiz-adv-x="320" 
d="M127 201l-12 535h90l-12 -535h-66zM202.5 6.5q-17.5 -17.5 -42.5 -17.5t-42.5 17.5t-17.5 42.5t17.5 42.5t42.5 17.5t42.5 -17.5t17.5 -42.5t-17.5 -42.5z" />
    <glyph glyph-name="quotedbl" unicode="&#x22;" horiz-adv-x="292" 
d="M114 516h-74v202h74v-202zM252 516h-73v202h73v-202z" />
    <glyph glyph-name="numbersign" unicode="#" horiz-adv-x="724" 
d="M541 463l-32 -208h139v-72h-151l-23 -150h-73l23 150h-184l-24 -150h-71l23 150h-128v72h140l32 208h-144v72h155l24 151h72l-24 -151h184l24 151h73l-24 -151h132v-72h-143zM468 463h-184l-33 -208h185z" />
    <glyph glyph-name="dollar" unicode="$" horiz-adv-x="576" 
d="M471 50q-55 -52 -139 -63v-91h-63v89q-63 4 -121.5 30t-97.5 71l56 61q32 -44 82.5 -67.5t103.5 -23.5q64 0 108.5 34t44.5 88q0 48 -35.5 75t-106.5 53q-76 28 -118 49t-74 62t-32 106q0 86 54.5 134.5t135.5 56.5v94h63v-94q46 -5 88 -22.5t73 -47.5l-46 -59
q-27 30 -65.5 45.5t-82.5 15.5q-59 0 -100.5 -28.5t-41.5 -87.5q0 -44 24.5 -73t59 -45.5t94.5 -38.5q62 -22 100.5 -42.5t64.5 -56t26 -90.5q0 -82 -55 -134z" />
    <glyph glyph-name="percent" unicode="%" horiz-adv-x="995" 
d="M268 35l434 681l55 -34l-435 -682zM74 625.5q24 41.5 64.5 66t89.5 24.5t90.5 -24.5t66 -66t24.5 -91.5q0 -48 -24.5 -88.5t-66 -64t-90.5 -23.5t-89.5 23.5t-64.5 64t-24 88.5q0 50 24 91.5zM157 461q29 -29 71 -29q43 0 71 29t28 73q0 46 -27.5 74.5t-71.5 28.5
q-42 0 -71 -29t-29 -74q0 -44 29 -73zM610 252.5q24 41.5 64.5 66t89.5 24.5t90.5 -24.5t66 -66t24.5 -91.5q0 -48 -24.5 -88.5t-66 -64t-90.5 -23.5t-89.5 23.5t-64.5 64t-24 88.5q0 50 24 91.5zM693 88q29 -29 71 -29q43 0 71 29t28 73q0 46 -27.5 74.5t-71.5 28.5
q-42 0 -71 -29t-29 -74q0 -44 29 -73z" />
    <glyph glyph-name="ampersand" unicode="&#x26;" horiz-adv-x="707" 
d="M667 34l-56 -50l-91 98q-43 -45 -90 -71.5t-124 -26.5q-72 0 -123 25.5t-77 70.5t-26 102q0 78 45 124t119 73l-15 16q-41 45 -59 77t-18 76q0 53 25 91t66 57.5t88 19.5q45 0 86.5 -17.5t68 -55t26.5 -92.5q0 -69 -40.5 -111.5t-111.5 -76.5l158 -166q33 56 44 108
l64 -12q-10 -43 -23 -71.5t-40 -77.5zM316 409q60 27 90 55.5t30 79.5q0 52 -30 80.5t-72 28.5q-43 0 -75 -28t-32 -76q0 -35 18.5 -61.5t62.5 -70.5zM408 72.5q42 18.5 70 56.5l-188 201q-60 -22 -96.5 -58.5t-36.5 -89.5q0 -56 42 -92t117 -36q50 0 92 18.5z" />
    <glyph glyph-name="quotesingle" unicode="'" horiz-adv-x="153" 
d="M113 516h-73v202h73v-202z" />
    <glyph glyph-name="parenleft" unicode="(" horiz-adv-x="306" 
d="M155 573.5q-46 -102.5 -46 -236.5t46 -236t141 -203l-58 -51q-102 108 -155 226.5t-53 263.5q0 146 53 264.5t155 226.5l58 -51q-95 -101 -141 -203.5z" />
    <glyph glyph-name="parenright" unicode=")" horiz-adv-x="306" 
d="M58 828q102 -108 155 -226.5t53 -264.5q0 -145 -53 -263.5t-155 -226.5l-58 51q95 101 141 203t46 236t-46 236.5t-141 203.5z" />
    <glyph glyph-name="asterisk" unicode="*" horiz-adv-x="481" 
d="M383 399l-63 -45l-79 117l-81 -117l-61 45l85 110l-134 43l23 69l134 -45l-3 142h77l-6 -142l134 45l22 -69l-134 -43z" />
    <glyph glyph-name="plus" unicode="+" horiz-adv-x="465" 
d="M269 255v-148h-73v148h-146v71h146v147h73v-147h146v-71h-146z" />
    <glyph glyph-name="comma" unicode="," horiz-adv-x="240" 
d="M121 128l89 -33l-119 -266l-61 24z" />
    <glyph glyph-name="hyphen" unicode="-" horiz-adv-x="402" 
d="M342 327v-71h-282v71h282z" />
    <glyph glyph-name="period" unicode="." horiz-adv-x="219" 
d="M67.5 91.5q17.5 17.5 42.5 17.5t42 -17.5t17 -42.5t-17 -42.5t-42 -17.5t-42.5 17.5t-17.5 42.5t17.5 42.5z" />
    <glyph glyph-name="slash" unicode="/" horiz-adv-x="357" 
d="M10 9l276 706l61 -23l-277 -707z" />
    <glyph glyph-name="zero" unicode="0" horiz-adv-x="613" 
d="M161.5 33.5q-57.5 49.5 -84.5 132t-27 184.5t27 184.5t84.5 132t145.5 49.5t145 -49.5t84 -132t27 -184.5t-27 -184.5t-84 -132t-145 -49.5t-145.5 49.5zM441 140.5q42 81.5 42 209.5t-42 210t-134 82t-134.5 -82t-42.5 -210t42.5 -209.5t134.5 -81.5t134 81.5z" />
    <glyph glyph-name="one" unicode="1" horiz-adv-x="324" 
d="M146 628h-96v72h174v-700h-78v628z" />
    <glyph glyph-name="two" unicode="2" horiz-adv-x="538" 
d="M493 0h-446v71l244 243q57 57 85 103.5t28 95.5q0 60 -39 97t-96 37q-54 0 -100 -30t-63 -90l-66 24q22 80 88 122.5t145 42.5q57 0 104 -24t75 -69.5t28 -107.5t-32.5 -120.5t-108.5 -133.5l-194 -189h348v-72z" />
    <glyph glyph-name="three" unicode="3" horiz-adv-x="535" 
d="M441.5 304q43.5 -49 43.5 -118q0 -62 -33.5 -108t-88 -70t-115.5 -24q-70 0 -132 32t-96 94l65 45q23 -48 70 -73.5t100 -25.5q63 0 108.5 33t45.5 90q0 61 -57.5 100.5t-178.5 39.5v72q68 0 113 20t66.5 52.5t21.5 69.5q0 49 -32.5 81t-92.5 32q-43 0 -87 -21t-70 -59
l-54 44q39 52 96.5 79t116.5 27q63 0 109 -25t70 -66.5t24 -89.5q0 -57 -35.5 -104t-105.5 -69q85 -9 128.5 -58z" />
    <glyph glyph-name="four" unicode="4" horiz-adv-x="576" 
d="M424 240h112v-72h-112v-168h-79v168h-325v72l316 460h88v-460zM104 240h241v342z" />
    <glyph glyph-name="five" unicode="5" horiz-adv-x="592" 
d="M440.5 432.5q50.5 -31.5 76 -84t25.5 -112.5q0 -64 -28.5 -122t-84.5 -94t-136 -36q-81 0 -145.5 39t-94.5 114l70 37q20 -58 66.5 -89t106.5 -31q56 0 94 25.5t57 66t19 85.5q0 44 -18.5 81t-55 59.5t-86.5 22.5q-45 0 -84.5 -17.5t-65.5 -45.5h-62v369h385v-72h-313
v-217q61 53 154 53q70 0 120.5 -31.5z" />
    <glyph glyph-name="six" unicode="6" horiz-adv-x="602" 
d="M441 436q51 -28 81 -80.5t30 -122.5q0 -75 -34.5 -132t-91 -87t-119.5 -30q-67 0 -125.5 35t-95 109t-36.5 183q0 117 43.5 208.5t130 144t210.5 52.5l5 -71q-126 0 -212 -67.5t-98 -224.5q28 54 84 82.5t117 28.5q60 0 111 -28zM431.5 349q-45.5 45 -114.5 45
q-43 0 -82.5 -18.5t-64.5 -57t-25 -93.5q0 -54 24.5 -93t63.5 -58.5t82 -19.5t80 19.5t59.5 58t22.5 93.5q0 79 -45.5 124z" />
    <glyph glyph-name="seven" unicode="7" horiz-adv-x="530" 
d="M510 623l-304 -623h-85l313 623h-414v77h490v-77z" />
    <glyph glyph-name="eight" unicode="8" horiz-adv-x="613" 
d="M517.5 288.5q40.5 -49.5 40.5 -108.5q0 -51 -30 -96t-87.5 -72.5t-135.5 -27.5t-134.5 27t-86 71.5t-29.5 95.5q0 59 37.5 112t108.5 80q-55 27 -83.5 70t-28.5 95q0 56 31 97t81.5 62.5t107.5 21.5q55 0 104 -20.5t79 -60.5t30 -95t-30.5 -101.5t-89.5 -73.5
q75 -27 115.5 -76.5zM204 447q39 -38 122 -50q55 15 87.5 52.5t32.5 84.5q0 49 -35.5 82t-100.5 33q-67 0 -106 -34t-39 -83q0 -47 39 -85zM431.5 88q47.5 34 47.5 89q0 57 -54 99t-158 61q-63 -19 -98.5 -60t-35.5 -91q0 -36 20 -66t59.5 -48t94.5 -18q77 0 124.5 34z" />
    <glyph glyph-name="nine" unicode="9" horiz-adv-x="602" 
d="M161 264q-51 28 -81 80.5t-30 122.5q0 75 34.5 132t91 87t119.5 30q67 0 125.5 -35t95 -109t36.5 -183q0 -117 -43.5 -208.5t-130 -144t-210.5 -52.5l-5 71q126 0 212 67.5t98 224.5q-28 -54 -84 -82.5t-117 -28.5q-60 0 -111 28zM170.5 351q45.5 -45 114.5 -45
q43 0 82.5 18.5t64.5 57t25 93.5q0 54 -24.5 93t-63.5 58.5t-82 19.5t-80 -19.5t-59.5 -58t-22.5 -93.5q0 -79 45.5 -124z" />
    <glyph glyph-name="colon" unicode=":" horiz-adv-x="259" 
d="M87.5 500.5q17.5 17.5 42.5 17.5t42 -17.5t17 -42.5t-17 -42.5t-42 -17.5t-42.5 17.5t-17.5 42.5t17.5 42.5zM87.5 91.5q17.5 17.5 42.5 17.5t42 -17.5t17 -42.5t-17 -42.5t-42 -17.5t-42.5 17.5t-17.5 42.5t17.5 42.5z" />
    <glyph glyph-name="semicolon" unicode=";" horiz-adv-x="286" 
d="M121 128l89 -33l-119 -266l-61 24zM114.5 500.5q17.5 17.5 42.5 17.5t42 -17.5t17 -42.5t-17 -42.5t-42 -17.5t-42.5 17.5t-17.5 42.5t17.5 42.5z" />
    <glyph glyph-name="less" unicode="&#x3c;" horiz-adv-x="379" 
d="M50 253l243 269l56 -53l-196 -216l196 -216l-56 -53z" />
    <glyph glyph-name="equal" unicode="=" horiz-adv-x="466" 
d="M50 394h366v-71h-366v71zM50 257h366v-70h-366v70z" />
    <glyph glyph-name="greater" unicode="&#x3e;" horiz-adv-x="379" 
d="M40 37l196 216l-196 216l56 53l243 -269l-243 -269z" />
    <glyph glyph-name="question" unicode="?" horiz-adv-x="524" 
d="M377 690.5q47 -27.5 72 -71.5t25 -94q0 -49 -24 -93t-72.5 -73.5t-118.5 -36.5v-133h-79v192h47q55 0 93.5 20.5t57.5 53.5t19 70q0 51 -36.5 87.5t-99.5 36.5q-52 0 -90.5 -26t-61.5 -72l-59 38q32 61 90 95t127 34q63 0 110 -27.5zM176.5 91.5q17.5 17.5 42.5 17.5
t42 -17.5t17 -42.5t-17 -42.5t-42 -17.5t-42.5 17.5t-17.5 42.5t17.5 42.5z" />
    <glyph glyph-name="at" unicode="@" horiz-adv-x="774" 
d="M555.5 566q75.5 -36 122 -105.5t46.5 -166.5q0 -86 -37 -140t-101 -54q-39 0 -66 21t-35 58q-16 -38 -51 -60.5t-82 -22.5q-50 0 -86 24.5t-55 63.5t-19 82t19 82t55 63t86 24q81 0 117 -65v53h77v-188q0 -36 12.5 -52.5t34.5 -16.5q30 0 48 31t18 85q0 79 -37 136
t-98 86.5t-131 29.5q-73 0 -137.5 -31.5t-104.5 -92.5t-40 -147q0 -69 27.5 -128t80.5 -94.5t127 -35.5q42 0 78.5 11.5t64.5 31.5l38 -51q-29 -26 -77.5 -43.5t-107.5 -17.5q-94 0 -162.5 45t-104 120t-35.5 162q0 105 50 182t131.5 117t172.5 40q86 0 161.5 -36z
M430.5 191q25.5 30 25.5 77q0 46 -25 73.5t-67 27.5q-45 0 -71 -30t-26 -72q0 -41 26 -73.5t70 -32.5q42 0 67.5 30z" />
    <glyph glyph-name="A" unicode="A" horiz-adv-x="680" 
d="M186 193l-71 -193h-85l273 700h75l272 -700h-85l-71 193h-308zM340 605l-127 -340h253z" />
    <glyph glyph-name="B" unicode="B" horiz-adv-x="606" 
d="M511.5 308q34.5 -46 34.5 -105q0 -52 -27 -98.5t-79 -75.5t-124 -29h-226v700h229q62 0 106 -23.5t66.5 -63t22.5 -84.5q0 -51 -26.5 -95t-75.5 -63q65 -17 99.5 -63zM300 398q42 0 72.5 17t46 44.5t15.5 58.5q0 45 -33 77.5t-94 32.5h-139v-230h132zM430 109
q36 37 36 89q0 33 -16.5 62.5t-49 47.5t-78.5 18h-154v-254h160q66 0 102 37z" />
    <glyph glyph-name="C" unicode="C" horiz-adv-x="745" 
d="M578 33.5q-79 -49.5 -172 -49.5q-87 0 -166.5 42.5t-129.5 125.5t-50 198q0 118 51.5 200.5t133.5 124t173 41.5q71 0 138 -26t119 -83l-54 -57q-43 49 -93.5 71t-109.5 22q-79 0 -142 -34t-100 -99.5t-37 -155.5q0 -92 39.5 -159t102.5 -101t132 -34q72 0 135 38t98 109
l59 -38q-48 -86 -127 -135.5z" />
    <glyph glyph-name="D" unicode="D" horiz-adv-x="736" 
d="M90 700h224q115 0 197 -49t123.5 -128t41.5 -169q0 -91 -41.5 -172.5t-124 -131.5t-198.5 -50h-222v700zM168 629v-557h148q90 0 153 39.5t95 103.5t32 136q0 73 -32 136.5t-95.5 102.5t-152.5 39h-148z" />
    <glyph glyph-name="E" unicode="E" horiz-adv-x="573" 
d="M168 628v-240h266v-72h-266v-244h335v-72h-413v700h404v-72h-326z" />
    <glyph glyph-name="F" unicode="F" horiz-adv-x="564" 
d="M168 628v-240h266v-72h-266v-316h-78v700h404v-72h-326z" />
    <glyph glyph-name="G" unicode="G" horiz-adv-x="748" 
d="M668 82q-53 -48 -120 -73t-137 -25q-92 0 -172.5 42.5t-129.5 125.5t-49 197q0 117 51 200t132 125t171 42q74 0 142.5 -28t116.5 -82l-55 -55q-39 44 -92 68.5t-116 24.5q-75 0 -136.5 -34.5t-98 -100t-36.5 -154.5q0 -93 39.5 -160t103.5 -101.5t137 -34.5q46 0 91 14
t81 40v180h-169v71h246v-282z" />
    <glyph glyph-name="H" unicode="H" horiz-adv-x="716" 
d="M90 700h78v-312h380v312h78v-700h-78v315h-380v-315h-78v700z" />
    <glyph glyph-name="I" unicode="I" horiz-adv-x="258" 
d="M90 700h78v-700h-78v700z" />
    <glyph glyph-name="J" unicode="J" horiz-adv-x="520" 
d="M440 700v-503q0 -68 -29 -116t-76.5 -72.5t-101.5 -24.5q-47 0 -90.5 18.5t-74 58.5t-38.5 101l75 16q10 -67 45 -95.5t82 -28.5q59 0 94 39t35 111v496h79z" />
    <glyph glyph-name="K" unicode="K" horiz-adv-x="639" 
d="M168 331v-331h-78v700h78v-326l326 326h100l-336 -342l351 -358h-115z" />
    <glyph glyph-name="L" unicode="L" horiz-adv-x="527" 
d="M168 700v-628h319v-72h-397v700h78z" />
    <glyph glyph-name="M" unicode="M" horiz-adv-x="869" 
d="M90 700h87l257 -445l258 445h87v-700h-79v550l-231 -393h-69l-232 393v-550h-78v700z" />
    <glyph glyph-name="N" unicode="N" horiz-adv-x="739" 
d="M90 700h78l403 -560v560h78v-700h-78l-403 563v-563h-78v700z" />
    <glyph glyph-name="O" unicode="O" horiz-adv-x="843" 
d="M605.5 668q82.5 -48 130 -131.5t47.5 -186.5q0 -102 -47.5 -186t-130 -132t-183.5 -48t-184 48t-130.5 132t-47.5 186q0 103 47.5 186.5t130 131.5t184.5 48q101 0 183.5 -48zM279.5 604q-64.5 -38 -102 -105t-37.5 -149t37.5 -148.5t102 -104.5t142.5 -38q77 0 142 38
t102.5 104.5t37.5 148.5t-38 149t-102.5 105t-141.5 38q-78 0 -142.5 -38z" />
    <glyph glyph-name="P" unicode="P" horiz-adv-x="561" 
d="M426 673q48 -27 71.5 -70t23.5 -92q0 -52 -26 -98t-76 -74t-120 -28h-131v-311h-78v700h218q70 0 118 -27zM295 383q73 0 110 37.5t37 89.5q0 49 -34.5 83.5t-104.5 34.5h-135v-245h127z" />
    <glyph glyph-name="Q" unicode="Q" horiz-adv-x="843" 
d="M663.5 -37.5q42.5 -25.5 84.5 -35.5l-33 -83q-58 18 -111 55.5t-86 96.5q-45 -12 -96 -12q-101 0 -184 48t-130.5 132t-47.5 186q0 103 47.5 186.5t130 131.5t184.5 48q101 0 183.5 -48t130 -131.5t47.5 -186.5q0 -106 -51 -192t-138 -132q27 -38 69.5 -63.5z
M177.5 201.5q37.5 -66.5 102 -104.5t142.5 -38q77 0 142 38t102.5 104.5t37.5 148.5t-38 149t-102.5 105t-141.5 38q-78 0 -142.5 -38t-102 -105t-37.5 -149t37.5 -148.5z" />
    <glyph glyph-name="R" unicode="R" horiz-adv-x="615" 
d="M288 325h-120v-325h-78v700h220q101 0 156.5 -50.5t55.5 -130.5q0 -61 -39 -112t-110 -70l207 -337h-95zM308 395q41 0 71.5 17t46.5 45t16 58q0 47 -36 80t-99 33h-139v-233h140z" />
    <glyph glyph-name="S" unicode="S" horiz-adv-x="576" 
d="M493.5 76.5q-32.5 -45.5 -86.5 -69t-117 -23.5q-68 0 -132.5 27t-107.5 75l56 61q32 -44 82.5 -67.5t103.5 -23.5q64 0 108.5 34t44.5 88q0 48 -35.5 75t-106.5 53q-76 28 -118 49t-74 62t-32 106q0 64 31.5 107.5t82 64.5t108.5 21q53 0 104 -18.5t88 -53.5l-46 -59
q-27 30 -65.5 45.5t-82.5 15.5q-59 0 -100.5 -28.5t-41.5 -87.5q0 -44 24.5 -73t59 -45.5t94.5 -38.5q62 -22 100.5 -42.5t64.5 -56t26 -90.5q0 -62 -32.5 -107.5z" />
    <glyph glyph-name="T" unicode="T" horiz-adv-x="634" 
d="M357 0h-79v628h-248v72h574v-72h-247v-628z" />
    <glyph glyph-name="U" unicode="U" horiz-adv-x="684" 
d="M604 244q0 -84 -36.5 -143t-96 -88t-129.5 -29t-129.5 29t-96 88t-36.5 143v456h79v-448q0 -64 25 -107.5t67 -64.5t91 -21t91 21t67 64.5t25 107.5v448h79v-456z" />
    <glyph glyph-name="V" unicode="V" horiz-adv-x="666" 
d="M374 0h-81l-263 700h86l217 -585l217 585h86z" />
    <glyph glyph-name="W" unicode="W" horiz-adv-x="1014" 
d="M760 0h-82l-171 553l-171 -553h-82l-234 700h86l189 -582l174 582h76l174 -582l189 582h86z" />
    <glyph glyph-name="X" unicode="X" horiz-adv-x="686" 
d="M296 359l-243 341h95l201 -280l201 280h100l-254 -344l260 -356h-107l-207 294l-212 -294h-100z" />
    <glyph glyph-name="Y" unicode="Y" horiz-adv-x="645" 
d="M362 0h-79v298l-263 402h93l209 -331l210 331h93l-263 -402v-298z" />
    <glyph glyph-name="Z" unicode="Z" horiz-adv-x="602" 
d="M50 66l393 562h-374v72h469v-65l-392 -563h406v-72h-502v66z" />
    <glyph glyph-name="bracketleft" unicode="[" horiz-adv-x="302" 
d="M80 -156v944h182v-70h-103v-804h103v-70h-182z" />
    <glyph glyph-name="backslash" unicode="\" horiz-adv-x="360" 
d="M70 715l280 -706l-61 -24l-279 707z" />
    <glyph glyph-name="bracketright" unicode="]" horiz-adv-x="312" 
d="M40 -86h103v804h-103v70h182v-944h-182v70z" />
    <glyph glyph-name="asciicircum" unicode="^" horiz-adv-x="528" 
d="M445 416l-181 188l-181 -188l-53 53l234 249l234 -249z" />
    <glyph glyph-name="underscore" unicode="_" horiz-adv-x="478" 
d="M428 70v-70h-378v70h378z" />
    <glyph glyph-name="grave" unicode="`" horiz-adv-x="242" 
d="M0 667l22 76l220 -68l-24 -75z" />
    <glyph glyph-name="a" unicode="a" horiz-adv-x="681" 
d="M592 -9q-44 0 -74 27t-37 76q-24 -45 -73.5 -74.5t-110.5 -29.5t-118 31t-93 91t-36 143t36 142.5t92.5 89.5t117.5 30q52 0 102 -23t80 -68v78h75v-384q0 -28 14 -44t34 -16q16 0 34 9l26 -52q-29 -26 -69 -26zM385.5 84q40.5 22 66.5 65t26 102q0 62 -27 106t-69 66
t-86 22t-83 -22t-63 -65t-24 -103q0 -62 26 -105.5t66.5 -65.5t83.5 -22t83.5 22z" />
    <glyph glyph-name="b" unicode="b" horiz-adv-x="633" 
d="M463.5 487q53.5 -30 86.5 -89t33 -142q0 -85 -35 -145t-92 -90.5t-123 -30.5q-52 0 -99.5 22.5t-77.5 61.5v-74h-76v700h76v-283q32 47 82 73.5t109 26.5q63 0 116.5 -30zM416.5 83.5q40.5 21.5 66 65t25.5 105.5q0 60 -23.5 103.5t-62 66t-84.5 22.5q-47 0 -88.5 -23
t-67.5 -68t-26 -107q0 -59 24 -101.5t64 -63.5t86 -21t86.5 21.5z" />
    <glyph glyph-name="c" unicode="c" horiz-adv-x="549" 
d="M427 24.5q-59 -35.5 -129 -35.5q-64 0 -121 31t-92 91t-35 141q0 84 36.5 144t95.5 90.5t124 30.5q58 0 109 -24.5t86 -72.5l-56 -48q-25 38 -61.5 56.5t-77.5 18.5q-47 0 -88 -23t-66.5 -66.5t-25.5 -100.5q0 -51 21 -96.5t61.5 -73t94.5 -27.5q53 0 95 27t67 76l54 -39
q-33 -64 -92 -99.5z" />
    <glyph glyph-name="d" unicode="d" horiz-adv-x="633" 
d="M553 0h-75v74q-28 -40 -74.5 -62t-99.5 -22q-65 0 -123 31t-94.5 91t-36.5 144q0 85 36.5 144t94.5 88t122 29q51 0 97.5 -22.5t77.5 -64.5v270h75v-700zM391.5 83.5q38.5 21.5 62.5 63.5t24 102q0 62 -26 107t-67 67.5t-87 22.5q-45 0 -84 -21.5t-63.5 -64t-24.5 -103.5
q0 -62 26 -106.5t68 -66.5t88 -22q45 0 83.5 21.5z" />
    <glyph glyph-name="e" unicode="e" 
d="M416.5 15q-56.5 -27 -117.5 -27q-68 0 -124.5 31.5t-90.5 91.5t-34 142q0 84 35 143.5t92.5 90t124.5 30.5q71 0 121 -33t75.5 -88t25.5 -121q0 -33 -5 -58h-386q10 -79 57 -118t117 -39q49 0 89.5 20t68.5 62l50 -47q-42 -53 -98.5 -80zM444 287q0 53 -22 89t-56.5 53.5
t-73.5 17.5q-64 0 -110 -42t-52 -118h314z" />
    <glyph glyph-name="f" unicode="f" horiz-adv-x="362" 
d="M159 679.5q42 38.5 101 38.5q31 0 61.5 -11t52.5 -31l-41 -55q-14 15 -32 22.5t-36 7.5q-31 0 -51.5 -21t-20.5 -63v-63h130v-70h-130v-434h-76v434h-97v70h97v65q0 72 42 110.5z" />
    <glyph glyph-name="g" unicode="g" horiz-adv-x="623" 
d="M553 9q0 -78 -34 -133t-90.5 -83t-121.5 -28q-85 0 -153 44t-93 126l72 29q18 -61 65.5 -94.5t109.5 -33.5q72 0 121.5 43t49.5 124v100q-32 -45 -80.5 -66t-101.5 -21q-63 0 -120 29.5t-92 86.5t-35 136t35 135.5t91.5 85t119.5 28.5q55 0 102.5 -23t79.5 -66v76h75
v-495zM388 107q40 20 65 59.5t25 94.5q0 57 -26.5 99t-68.5 63.5t-88 21.5q-45 0 -83.5 -21t-62 -61t-23.5 -95q0 -58 25 -99t65.5 -61.5t86.5 -20.5q45 0 85 20z" />
    <glyph glyph-name="h" unicode="h" horiz-adv-x="591" 
d="M420 496q41 -21 66 -63.5t25 -103.5v-329h-76v311q0 65 -34.5 99.5t-84.5 34.5q-40 0 -76.5 -22t-60 -65t-23.5 -102v-256h-76v700h76v-287q26 50 73.5 77t101.5 27q48 0 89 -21z" />
    <glyph glyph-name="i" unicode="i" horiz-adv-x="255" 
d="M87 698q17 17 41 17t40.5 -17t16.5 -40q0 -24 -16.5 -41t-40.5 -17t-41 17t-17 41q0 23 17 40zM91 504h75v-504h-75v504z" />
    <glyph glyph-name="j" unicode="j" horiz-adv-x="260" 
d="M92 698q17 17 41 17t40.5 -17t16.5 -40q0 -24 -16.5 -41t-40.5 -17t-41 17t-17 41q0 23 17 40zM151.5 -164.5q-19.5 -34.5 -51 -52t-67.5 -17.5q-28 0 -55 11.5t-48 32.5l37 54q13 -14 30.5 -22t34.5 -8q27 0 45 20t18 60v591h76v-586q0 -49 -19.5 -83.5z" />
    <glyph glyph-name="k" unicode="k" horiz-adv-x="533" 
d="M156 242v-242h-76v700h76v-421l232 225h103l-251 -240l283 -264h-113z" />
    <glyph glyph-name="l" unicode="l" horiz-adv-x="307" 
d="M216 -11q-58 0 -97 38t-39 116v557h76v-558q0 -45 20 -66t52 -21q19 0 48 11l26 -55q-39 -22 -86 -22z" />
    <glyph glyph-name="m" unicode="m" horiz-adv-x="857" 
d="M690 497.5q39 -19.5 63 -59.5t24 -96v-342h-76v316q0 62 -30 95.5t-75 33.5q-33 0 -62.5 -19t-48.5 -56.5t-19 -89.5v-280h-75v316q0 62 -30.5 95.5t-75.5 33.5q-33 0 -62.5 -19.5t-48 -56.5t-18.5 -89v-280h-76v504h76v-65q24 38 62.5 58t85.5 20q46 0 85 -24.5
t56 -68.5q23 44 66 68.5t94 24.5q46 0 85 -19.5z" />
    <glyph glyph-name="n" unicode="n" horiz-adv-x="591" 
d="M511 0h-76v311q0 65 -34.5 99.5t-84.5 34.5q-40 0 -76.5 -22t-60 -65t-23.5 -102v-256h-76v504h76v-87q27 48 74.5 74t100.5 26q48 0 89 -21t66 -63.5t25 -103.5v-329z" />
    <glyph glyph-name="o" unicode="o" horiz-adv-x="615" 
d="M440 482.5q59 -34.5 92 -94.5t33 -135t-33 -135t-92 -94.5t-132 -34.5t-132 34.5t-92.5 94.5t-33.5 135t33.5 135t92.5 94.5t132 34.5t132 -34.5zM213.5 423q-41.5 -25 -64.5 -69.5t-23 -99.5t23 -99.5t64.5 -69.5t94.5 -25q52 0 93.5 25t65 69.5t23.5 99.5t-23.5 99.5
t-65 69.5t-93.5 25q-53 0 -94.5 -25z" />
    <glyph glyph-name="p" unicode="p" horiz-adv-x="633" 
d="M460.5 484q54.5 -29 88.5 -86t34 -139q0 -85 -36 -146t-94.5 -92t-123.5 -31q-52 0 -98 20.5t-75 59.5v-291h-76v725h76v-89q32 46 81 72t108 26q61 0 115.5 -29zM414 84.5q42 22.5 68 66.5t26 105q0 59 -24.5 101t-64 63.5t-84.5 21.5q-46 0 -87 -22.5t-66.5 -66.5
t-25.5 -105q0 -59 24 -101t63 -63.5t84 -21.5t87 22.5z" />
    <glyph glyph-name="q" unicode="q" horiz-adv-x="633" 
d="M553 -221h-75v299q-27 -42 -73 -65t-101 -23q-65 0 -123 31t-94.5 91t-36.5 144t36.5 142t94.5 86.5t122 28.5q49 0 95.5 -21t79.5 -60v72h75v-725zM391.5 83.5q38.5 21.5 62.5 63.5t24 102q0 61 -26 105t-67 66t-87 22q-45 0 -84 -21t-63.5 -62.5t-24.5 -101.5
q0 -62 26 -106.5t68 -66.5t88 -22q45 0 83.5 21.5z" />
    <glyph glyph-name="r" unicode="r" horiz-adv-x="371" 
d="M351 497l-16 -75q-30 14 -61 14q-53 0 -85.5 -37.5t-32.5 -104.5v-294h-76v504h76v-68q19 38 52 56.5t72 18.5q40 0 71 -14z" />
    <glyph glyph-name="s" unicode="s" horiz-adv-x="484" 
d="M421.5 59.5q-27.5 -34.5 -73 -52.5t-99.5 -18q-59 0 -116 22t-98 63l53 59q29 -35 76 -54t95 -19q50 0 81 19.5t31 52.5q0 24 -16.5 38.5t-41 22.5t-70.5 19q-55 13 -92.5 28.5t-63 46t-25.5 79.5q0 51 27 85t70 50t91 16q47 0 91.5 -14.5t81.5 -41.5l-39 -57
q-28 23 -66 34.5t-72 11.5q-48 0 -78.5 -21t-30.5 -59t30 -56t90 -32q68 -15 102 -26t62 -38.5t28 -75.5t-27.5 -82.5z" />
    <glyph glyph-name="t" unicode="t" horiz-adv-x="410" 
d="M268 -11q-60 0 -101 38.5t-41 115.5v291h-106v70h106v129h75v-129h136v-70h-136v-292q0 -43 20 -65t53 -22q17 0 37 7.5t34 20.5l35 -50q-47 -44 -112 -44z" />
    <glyph glyph-name="u" unicode="u" 
d="M494 0h-76v90q-26 -50 -70.5 -75.5t-96.5 -25.5q-47 0 -88.5 21.5t-67 64t-25.5 103.5v326h76v-308q0 -67 33.5 -101t83.5 -34q39 0 74.5 21.5t58 64t22.5 101.5v256h76v-504z" />
    <glyph glyph-name="v" unicode="v" horiz-adv-x="541" 
d="M309 0h-77l-202 504h85l155 -399l156 399h85z" />
    <glyph glyph-name="w" unicode="w" horiz-adv-x="878" 
d="M663 0h-81l-142 405l-144 -405h-81l-185 504h86l139 -400l141 400h86l141 -400l139 400h86z" />
    <glyph glyph-name="x" unicode="x" horiz-adv-x="545" 
d="M525 0h-99l-154 193l-153 -193h-99l204 253l-204 251h103l149 -189l149 189h104l-204 -251z" />
    <glyph glyph-name="y" unicode="y" horiz-adv-x="600" 
d="M520 13q0 -80 -30 -135.5t-82 -83.5t-119 -28q-83 0 -148 42t-91 125l73 28q20 -63 65 -94t103 -31q71 0 113.5 45t41.5 128l-1 93q-26 -46 -70.5 -71.5t-97.5 -25.5q-50 0 -94.5 22.5t-72 65.5t-27.5 103v308h76v-292q0 -67 33.5 -101t88.5 -34q45 0 82.5 22t59.5 65
t22 102v238h75v-491z" />
    <glyph glyph-name="z" unicode="z" horiz-adv-x="524" 
d="M479 0h-434v72l318 361h-306v71h406v-71l-318 -361h334v-72z" />
    <glyph glyph-name="braceleft" unicode="{" horiz-adv-x="350" 
d="M220 -62.5q22 -14.5 60 -14.5l-8 -65q-146 0 -146 124v222q0 38 -22 60.5t-64 22.5v66q42 0 64 22.5t22 60.5v224q0 122 146 122l8 -65q-38 0 -60 -14.5t-22 -46.5v-241q0 -36 -20 -61t-51 -34q31 -8 51 -33t20 -61v-242q0 -32 22 -46.5z" />
    <glyph glyph-name="bar" unicode="|" horiz-adv-x="279" 
d="M179 -135h-79v880h79v-880z" />
    <glyph glyph-name="braceright" unicode="}" horiz-adv-x="350" 
d="M152 226q0 36 20 61t51 33q-31 9 -51 34t-20 61v241q0 32 -22 46.5t-60 14.5l8 65q146 0 146 -122v-224q0 -38 22 -60.5t64 -22.5v-66q-42 0 -64 -22.5t-22 -60.5v-222q0 -124 -146 -124l-8 65q38 0 60 14.5t22 46.5v242z" />
    <glyph glyph-name="asciitilde" unicode="~" horiz-adv-x="641" 
d="M541.5 268q-36.5 -42 -99.5 -42q-36 0 -63.5 14t-64.5 42q-32 24 -53 35.5t-45 11.5q-37 0 -62.5 -26t-49.5 -68l-64 41q30 60 71 97t102 37q41 0 73 -15.5t72 -43.5q27 -20 45.5 -29.5t37.5 -9.5q34 0 57.5 27.5t37.5 61.5l65 -35q-23 -56 -59.5 -98z" />
    <glyph glyph-name="exclamdown" unicode="&#xa1;" horiz-adv-x="320" 
d="M202.5 520.5q-17.5 -17.5 -42.5 -17.5t-42.5 17.5t-17.5 42.5t17.5 42.5t42.5 17.5t42.5 -17.5t17.5 -42.5t-17.5 -42.5zM205 -124h-90l12 535h66z" />
    <glyph glyph-name="cent" unicode="&#xa2;" horiz-adv-x="549" 
d="M441.5 34.5q-48.5 -34.5 -106.5 -42.5v-96h-63v94q-60 6 -110.5 39t-81 90t-30.5 133q0 77 31 133.5t81.5 89t109.5 40.5v89h63v-89q49 -5 92 -29t74 -66l-56 -48q-25 38 -61.5 56.5t-77.5 18.5q-47 0 -88 -23t-66.5 -66.5t-25.5 -100.5q0 -51 21 -96.5t61.5 -73
t94.5 -27.5q53 0 95 27t67 76l54 -39q-29 -55 -77.5 -89.5z" />
    <glyph glyph-name="sterling" unicode="&#xa3;" horiz-adv-x="603" 
d="M520.5 11q-42.5 -28 -91.5 -28q-47 0 -89 22.5t-88 63.5q-43 -85 -127 -85q-54 0 -84.5 34t-30.5 80q0 49 32 83.5t86 34.5q21 0 43 -9.5t40 -25.5q8 64 8 97v124h-109v60h108v103q0 74 41.5 113.5t101.5 39.5q30 0 59.5 -11t51.5 -32l-38 -54q-15 14 -33.5 22t-37.5 8
q-32 0 -50.5 -21.5t-18.5 -63.5v-104h161v-60h-161v-124q0 -101 -15 -147q49 -39 84.5 -59.5t66.5 -20.5t60 23t46 63l57 -35q-30 -63 -72.5 -91zM170 64q19 16 29 54q-35 35 -69 35q-24 0 -39 -14.5t-15 -39.5q0 -21 13.5 -36t38.5 -15q23 0 42 16z" />
    <glyph glyph-name="currency" unicode="&#xa4;" horiz-adv-x="670" 
d="M516 155l114 -114l-48 -47l-111 112q-60 -46 -137 -46q-76 0 -135 46l-112 -112l-47 47l114 114q-40 59 -40 133t40 135l-114 113l47 48l113 -113q27 22 61.5 34t72.5 12q77 0 136 -46l112 113l48 -48l-115 -114q40 -59 40 -134t-39 -133zM439.5 179.5
q41.5 43.5 41.5 108.5q0 66 -41.5 109t-105.5 43t-105.5 -43t-41.5 -109q0 -65 41.5 -108.5t105.5 -43.5t105.5 43.5z" />
    <glyph glyph-name="yen" unicode="&#xa5;" horiz-adv-x="645" 
d="M367 306h168v-58h-173v-101h173v-59h-173v-88h-79v88h-170v59h170v101h-170v58h165l-258 394h93l209 -331l210 331h93z" />
    <glyph glyph-name="brokenbar" unicode="&#xa6;" horiz-adv-x="279" 
d="M179 354h-79v391h79v-391zM179 -135h-79v390h79v-390z" />
    <glyph glyph-name="section" unicode="&#xa7;" horiz-adv-x="576" 
d="M507.5 248q18.5 -32 18.5 -75q0 -61 -32.5 -104t-85.5 -64t-114 -21q-71 0 -136 26.5t-108 75.5l56 63q32 -45 83 -69t106 -24q62 0 106 29.5t44 80.5q0 41 -34 73q-44 -36 -99 -36q-42 0 -77 20t-55 55t-20 77l1 20q-84 64 -84 151q0 62 31.5 105.5t82.5 65t108 21.5
q53 0 104 -18.5t88 -53.5l-46 -59q-26 29 -65.5 45t-82.5 16q-59 0 -101 -29.5t-42 -86.5q0 -50 39 -82q21 26 52 41t67 15q41 0 76 -20t55 -55t20 -76q0 -26 -7 -50q33 -25 51.5 -57zM366.5 300.5q22.5 22.5 22.5 54.5t-22.5 54.5t-54.5 22.5q-33 0 -55.5 -22.5
t-22.5 -54.5t22.5 -54.5t55.5 -22.5q32 0 54.5 22.5z" />
    <glyph glyph-name="dieresis" unicode="&#xa8;" horiz-adv-x="348" 
d="M99.5 618q-16.5 -17 -39.5 -17q-25 0 -42.5 17t-17.5 42q0 24 17.5 40.5t42.5 16.5q23 0 39.5 -16.5t16.5 -40.5q0 -25 -16.5 -42zM330.5 618q-17.5 -17 -41.5 -17t-40.5 17t-16.5 42q0 24 16.5 40.5t40.5 16.5t41.5 -16.5t17.5 -40.5q0 -25 -17.5 -42z" />
    <glyph glyph-name="copyright" unicode="&#xa9;" horiz-adv-x="858" 
d="M617.5 679.5q84.5 -48.5 132.5 -134t48 -191.5t-48 -191t-132.5 -133.5t-188.5 -48.5t-188.5 48.5t-132.5 133.5t-48 191t48 191.5t132.5 134t188.5 48.5t188.5 -48.5zM582.5 79.5q69.5 40.5 109.5 112.5t40 162t-40 162t-109.5 112.5t-153.5 40.5t-153.5 -40.5
t-109.5 -112.5t-40 -162t40 -162t109.5 -112.5t153.5 -40.5t153.5 40.5zM528 189q-46 -27 -98 -27q-49 0 -92 23t-69.5 67.5t-26.5 105.5q0 62 27 106t70.5 66.5t93.5 22.5q44 0 84 -19t68 -55l-55 -52q-16 26 -40.5 38t-53.5 12q-45 0 -79 -31.5t-34 -86.5q0 -56 33 -88
t78 -32q31 0 60 16t46 51l60 -41q-26 -49 -72 -76z" />
    <glyph glyph-name="ordfeminine" unicode="&#xaa;" horiz-adv-x="561" 
d="M471 295q-35 0 -64 20t-37 58q-25 -38 -65.5 -58t-85.5 -20q-48 0 -91.5 25t-70.5 72t-27 112q0 66 28 113.5t72.5 72t92.5 24.5q37 0 74.5 -15t65.5 -44v53h73v-275q0 -32 12.5 -48.5t33.5 -16.5q19 0 38 10l21 -56q-25 -27 -70 -27zM292.5 380q30.5 17 49.5 49.5
t19 76.5t-18.5 76t-48.5 49t-62 17t-61.5 -16.5t-48 -49t-18.5 -76.5q0 -43 18 -75.5t47 -50t61 -17.5t62.5 17z" />
    <glyph glyph-name="guillemotleft" unicode="&#xab;" horiz-adv-x="552" 
d="M287 101l-56 -49l-193 226l193 225l56 -49l-149 -176zM510 101l-56 -49l-193 226l193 225l56 -49l-149 -176z" />
    <glyph glyph-name="logicalnot" unicode="&#xac;" horiz-adv-x="483" 
d="M433 327v-177h-75v106h-308v71h383z" />
    <glyph glyph-name="registered" unicode="&#xae;" horiz-adv-x="858" 
d="M617.5 679.5q84.5 -48.5 132.5 -134t48 -191.5t-48 -191t-132.5 -133.5t-188.5 -48.5t-188.5 48.5t-132.5 133.5t-48 191t48 191.5t132.5 134t188.5 48.5t188.5 -48.5zM582.5 79.5q69.5 40.5 109.5 112.5t40 162t-40 162t-109.5 112.5t-153.5 40.5t-153.5 -40.5
t-109.5 -112.5t-40 -162t40 -162t109.5 -112.5t153.5 -40.5t153.5 40.5zM549.5 360q-18.5 -29 -55.5 -40l87 -132h-88l-70 112h-44v-112h-73v348h139q57 0 90 -33t33 -78q0 -36 -18.5 -65zM483.5 386q12.5 14 12.5 34q0 19 -12.5 32.5t-37.5 13.5h-67v-94h66q26 0 38.5 14z
" />
    <glyph glyph-name="macron" unicode="&#xaf;" horiz-adv-x="297" 
d="M297 676v-76h-297v76h297z" />
    <glyph glyph-name="degree" unicode="&#xb0;" horiz-adv-x="459" 
d="M74 625.5q24 41.5 64.5 66t89.5 24.5t90.5 -24.5t66 -66t24.5 -91.5q0 -48 -24.5 -88.5t-66 -64t-90.5 -23.5t-89.5 23.5t-64.5 64t-24 88.5q0 50 24 91.5zM157 461q29 -29 71 -29q43 0 71 29t28 73q0 46 -27.5 74.5t-71.5 28.5q-42 0 -71 -29t-29 -74q0 -44 29 -73z" />
    <glyph glyph-name="plusminus" unicode="&#xb1;" horiz-adv-x="466" 
d="M50 177h366v-71h-366v71zM269 404v-148h-73v148h-146v71h146v147h73v-147h146v-71h-146z" />
    <glyph glyph-name="acute" unicode="&#xb4;" horiz-adv-x="242" 
d="M219 743l23 -76l-219 -67l-23 75z" />
    <glyph glyph-name="paragraph" unicode="&#xb6;" horiz-adv-x="572" 
d="M492 0h-63v628h-60v-628h-62v311h-46q-70 0 -120 28t-75.5 74t-25.5 98q0 49 23.5 92t71.5 70t117 27h240v-700zM307 628h-49q-70 0 -105 -34.5t-35 -83.5q0 -52 37 -89.5t110 -37.5h42v245z" />
    <glyph glyph-name="periodcentered" unicode="&#xb7;" horiz-adv-x="234" 
d="M164.5 397.5q19.5 -19.5 19.5 -47.5t-19.5 -48t-47.5 -20t-47.5 20t-19.5 48t19.5 47.5t47.5 19.5t47.5 -19.5z" />
    <glyph glyph-name="cedilla" unicode="&#xb8;" horiz-adv-x="244" 
d="M244 -148q0 -53 -35 -80t-88 -27q-72 0 -121 45l36 48q39 -36 79 -36q28 0 48 12.5t20 37.5q0 27 -26 42t-87 26l33 106h58l-28 -77q111 -22 111 -97z" />
    <glyph glyph-name="ordmasculine" unicode="&#xba;" horiz-adv-x="488" 
d="M353 689.5q49 -28.5 77 -77.5t28 -108t-28 -108t-77 -77.5t-109 -28.5t-109 28.5t-77 77.5t-28 108t28 108t77 77.5t109 28.5t109 -28.5zM143.5 609.5q-39.5 -41.5 -39.5 -104.5q0 -64 39.5 -105t100.5 -41t100 41t39 105q0 63 -39 104.5t-100 41.5t-100.5 -41.5z" />
    <glyph glyph-name="guillemotright" unicode="&#xbb;" horiz-adv-x="572" 
d="M52 454l56 49l193 -225l-193 -226l-56 49l149 177zM275 454l56 49l193 -225l-193 -226l-56 49l149 177z" />
    <glyph glyph-name="onequarter" unicode="&#xbc;" horiz-adv-x="911" 
d="M208 35l434 681l55 -34l-435 -682zM214 699v-424h-67v363h-57v61h124zM755 165h66v-63h-66v-102h-68v102h-188v63l179 259h77v-259zM571 165h116v168z" />
    <glyph glyph-name="onehalf" unicode="&#xbd;" horiz-adv-x="942" 
d="M575 6v64l142 137q58 56 58 108q0 30 -18 47t-48 17q-29 0 -54 -18t-31 -50l-59 19q11 52 54 81t94 29q56 0 92.5 -33t36.5 -92q0 -41 -20 -75.5t-57 -69.5l-107 -100h194v-64h-277zM208 35l434 681l55 -34l-435 -682zM214 699v-424h-67v363h-57v61h124z" />
    <glyph glyph-name="threequarters" unicode="&#xbe;" horiz-adv-x="997" 
d="M374 397q0 -57 -42.5 -91t-100.5 -34q-43 0 -81 20t-60 60l57 37q12 -26 36 -40t51 -14q32 0 53 16t21 46q0 37 -32.5 53t-92.5 16v63q54 0 80.5 18.5t26.5 49.5q0 26 -18 41.5t-45 15.5q-50 0 -78 -42l-48 36q21 33 56.5 50.5t76.5 17.5q51 0 87.5 -29.5t36.5 -79.5
q0 -36 -19 -63.5t-58 -37.5q93 -23 93 -109zM292 35l434 681l55 -34l-435 -682zM841 165h66v-63h-66v-102h-68v102h-188v63l179 259h77v-259zM657 165h116v168z" />
    <glyph glyph-name="questiondown" unicode="&#xbf;" horiz-adv-x="501" 
d="M334.5 502.5q-17.5 -17.5 -42.5 -17.5t-42 17.5t-17 42.5t17 42.5t42 17.5t42.5 -17.5t17.5 -42.5t-17.5 -42.5zM134 -96.5q-47 27.5 -72 71.5t-25 94q0 49 24 93t72.5 73.5t118.5 36.5v133h79v-192h-47q-55 0 -93.5 -20.5t-57.5 -53.5t-19 -70q0 -51 36.5 -87.5
t99.5 -36.5q52 0 90.5 26t61.5 72l59 -38q-32 -61 -90 -95t-127 -34q-63 0 -110 27.5z" />
    <glyph glyph-name="Agrave" unicode="&#xc0;" horiz-adv-x="680" 
d="M186 193l-71 -193h-85l273 700h75l272 -700h-85l-71 193h-308zM340 605l-127 -340h253zM179 827l22 76l220 -68l-24 -75z" />
    <glyph glyph-name="Aacute" unicode="&#xc1;" horiz-adv-x="680" 
d="M186 193l-71 -193h-85l273 700h75l272 -700h-85l-71 193h-308zM340 605l-127 -340h253zM474 903l23 -76l-219 -67l-23 75z" />
    <glyph glyph-name="Acircumflex" unicode="&#xc2;" horiz-adv-x="680" 
d="M186 193l-71 -193h-85l273 700h75l272 -700h-85l-71 193h-308zM340 605l-127 -340h253zM468 755l-126 97l-128 -97l-46 55l173 128l172 -128z" />
    <glyph glyph-name="Atilde" unicode="&#xc3;" horiz-adv-x="680" 
d="M186 193l-71 -193h-85l273 700h75l272 -700h-85l-71 193h-308zM340 605l-127 -340h253zM376.5 789.5q-15.5 8.5 -38.5 24.5q-17 13 -28.5 19.5t-22.5 6.5q-18 0 -32.5 -14t-36.5 -43l-48 41q19 31 53.5 60t68.5 29q19 0 36.5 -9.5t38.5 -26.5q3 -2 13 -9.5t18.5 -11
t14.5 -3.5q13 0 25 13t21.5 28t12.5 19l46 -36q-32 -49 -54.5 -72.5t-53.5 -23.5q-18 0 -33.5 8.5z" />
    <glyph glyph-name="Adieresis" unicode="&#xc4;" horiz-adv-x="680" 
d="M186 193l-71 -193h-85l273 700h75l272 -700h-85l-71 193h-308zM340 605l-127 -340h253zM265.5 778q-16.5 -17 -39.5 -17q-25 0 -42.5 17t-17.5 42q0 24 17.5 40.5t42.5 16.5q23 0 39.5 -16.5t16.5 -40.5q0 -25 -16.5 -42zM496.5 778q-17.5 -17 -41.5 -17t-40.5 17
t-16.5 42q0 24 16.5 40.5t40.5 16.5t41.5 -16.5t17.5 -40.5q0 -25 -17.5 -42z" />
    <glyph glyph-name="Aring" unicode="&#xc5;" horiz-adv-x="680" 
d="M186 193l-71 -193h-85l273 700h75l272 -700h-85l-71 193h-308zM340 605l-127 -340h253zM261 918q31 32 78 32q46 0 79 -32.5t33 -77.5q0 -47 -32.5 -78.5t-79.5 -31.5t-78 31.5t-31 78.5q0 46 31 78zM300 798q15 -16 39 -16t39.5 16t15.5 41q0 24 -15.5 40.5t-39.5 16.5
t-39 -16.5t-15 -40.5q0 -25 15 -41z" />
    <glyph glyph-name="AE" unicode="&#xc6;" horiz-adv-x="964" 
d="M894 72v-72h-404v193h-278l-96 -193h-86l357 700h498v-72h-317v-240h258v-72h-258v-244h326zM490 265v366h-61l-182 -366h243z" />
    <glyph glyph-name="Ccedilla" unicode="&#xc7;" horiz-adv-x="745" 
d="M405 -16l-13 -35q111 -22 111 -97q0 -53 -35 -80t-88 -27q-72 0 -121 45l36 48q39 -36 79 -36q28 0 48 12.5t20 37.5q0 27 -26 42t-87 26l21 69q-77 13 -143 58.5t-106.5 122.5t-40.5 180q0 118 51.5 200.5t133.5 124t173 41.5q71 0 138 -26t119 -83l-54 -57
q-43 49 -93.5 71t-109.5 22q-79 0 -142 -34t-100 -99.5t-37 -155.5q0 -92 39.5 -159t102.5 -101t132 -34q72 0 135 38t98 109l59 -38q-48 -86 -127 -135.5t-172 -49.5h-1z" />
    <glyph glyph-name="Egrave" unicode="&#xc8;" horiz-adv-x="573" 
d="M168 628v-240h266v-72h-266v-244h335v-72h-413v700h404v-72h-326zM168 827l22 76l220 -68l-24 -75z" />
    <glyph glyph-name="Eacute" unicode="&#xc9;" horiz-adv-x="573" 
d="M168 628v-240h266v-72h-266v-244h335v-72h-413v700h404v-72h-326zM412 903l23 -76l-219 -67l-23 75z" />
    <glyph glyph-name="Ecircumflex" unicode="&#xca;" horiz-adv-x="573" 
d="M168 628v-240h266v-72h-266v-244h335v-72h-413v700h404v-72h-326zM422 755l-126 97l-128 -97l-46 55l173 128l172 -128z" />
    <glyph glyph-name="Edieresis" unicode="&#xcb;" horiz-adv-x="573" 
d="M168 628v-240h266v-72h-266v-244h335v-72h-413v700h404v-72h-326zM222.5 778q-16.5 -17 -39.5 -17q-25 0 -42.5 17t-17.5 42q0 24 17.5 40.5t42.5 16.5q23 0 39.5 -16.5t16.5 -40.5q0 -25 -16.5 -42zM453.5 778q-17.5 -17 -41.5 -17t-40.5 17t-16.5 42q0 24 16.5 40.5
t40.5 16.5t41.5 -16.5t17.5 -40.5q0 -25 -17.5 -42z" />
    <glyph glyph-name="Igrave" unicode="&#xcc;" horiz-adv-x="258" 
d="M90 700h78v-700h-78v700zM-35 827l22 76l220 -68l-24 -75z" />
    <glyph glyph-name="Iacute" unicode="&#xcd;" horiz-adv-x="258" 
d="M90 700h78v-700h-78v700zM269 903l23 -76l-219 -67l-23 75z" />
    <glyph glyph-name="Icircumflex" unicode="&#xce;" horiz-adv-x="259" 
d="M91 700h78v-700h-78v700zM257 755l-126 97l-128 -97l-46 55l173 128l172 -128z" />
    <glyph glyph-name="Idieresis" unicode="&#xcf;" horiz-adv-x="258" 
d="M90 700h78v-700h-78v700zM54.5 778q-16.5 -17 -39.5 -17q-25 0 -42.5 17t-17.5 42q0 24 17.5 40.5t42.5 16.5q23 0 39.5 -16.5t16.5 -40.5q0 -25 -16.5 -42zM285.5 778q-17.5 -17 -41.5 -17t-40.5 17t-16.5 42q0 24 16.5 40.5t40.5 16.5t41.5 -16.5t17.5 -40.5
q0 -25 -17.5 -42z" />
    <glyph glyph-name="Eth" unicode="&#xd0;" horiz-adv-x="738" 
d="M513 651q82 -49 123.5 -128t41.5 -169q0 -91 -41.5 -172.5t-124 -131.5t-198.5 -50h-222v321h-127v59h127v320h224q115 0 197 -49zM471 111.5q63 39.5 95 103.5t32 136q0 73 -32 136.5t-95.5 102.5t-152.5 39h-148v-249h183v-59h-183v-249h148q90 0 153 39.5z" />
    <glyph glyph-name="Ntilde" unicode="&#xd1;" horiz-adv-x="739" 
d="M90 700h78l403 -560v560h78v-700h-78l-403 563v-563h-78v700zM419.5 789.5q-15.5 8.5 -38.5 24.5q-17 13 -28.5 19.5t-22.5 6.5q-18 0 -32.5 -14t-36.5 -43l-48 41q19 31 53.5 60t68.5 29q19 0 36.5 -9.5t38.5 -26.5q3 -2 13 -9.5t18.5 -11t14.5 -3.5q13 0 25 13t21.5 28
t12.5 19l46 -36q-32 -49 -54.5 -72.5t-53.5 -23.5q-18 0 -33.5 8.5z" />
    <glyph glyph-name="Ograve" unicode="&#xd2;" horiz-adv-x="843" 
d="M605.5 668q82.5 -48 130 -131.5t47.5 -186.5q0 -102 -47.5 -186t-130 -132t-183.5 -48t-184 48t-130.5 132t-47.5 186q0 103 47.5 186.5t130 131.5t184.5 48q101 0 183.5 -48zM279.5 604q-64.5 -38 -102 -105t-37.5 -149t37.5 -148.5t102 -104.5t142.5 -38q77 0 142 38
t102.5 104.5t37.5 148.5t-38 149t-102.5 105t-141.5 38q-78 0 -142.5 -38zM282 827l22 76l220 -68l-24 -75z" />
    <glyph glyph-name="Oacute" unicode="&#xd3;" horiz-adv-x="843" 
d="M605.5 668q82.5 -48 130 -131.5t47.5 -186.5q0 -102 -47.5 -186t-130 -132t-183.5 -48t-184 48t-130.5 132t-47.5 186q0 103 47.5 186.5t130 131.5t184.5 48q101 0 183.5 -48zM279.5 604q-64.5 -38 -102 -105t-37.5 -149t37.5 -148.5t102 -104.5t142.5 -38q77 0 142 38
t102.5 104.5t37.5 148.5t-38 149t-102.5 105t-141.5 38q-78 0 -142.5 -38zM569 903l23 -76l-219 -67l-23 75z" />
    <glyph glyph-name="Ocircumflex" unicode="&#xd4;" horiz-adv-x="843" 
d="M605.5 668q82.5 -48 130 -131.5t47.5 -186.5q0 -102 -47.5 -186t-130 -132t-183.5 -48t-184 48t-130.5 132t-47.5 186q0 103 47.5 186.5t130 131.5t184.5 48q101 0 183.5 -48zM279.5 604q-64.5 -38 -102 -105t-37.5 -149t37.5 -148.5t102 -104.5t142.5 -38q77 0 142 38
t102.5 104.5t37.5 148.5t-38 149t-102.5 105t-141.5 38q-78 0 -142.5 -38zM549 755l-126 97l-128 -97l-46 55l173 128l172 -128z" />
    <glyph glyph-name="Otilde" unicode="&#xd5;" horiz-adv-x="843" 
d="M605.5 668q82.5 -48 130 -131.5t47.5 -186.5q0 -102 -47.5 -186t-130 -132t-183.5 -48t-184 48t-130.5 132t-47.5 186q0 103 47.5 186.5t130 131.5t184.5 48q101 0 183.5 -48zM279.5 604q-64.5 -38 -102 -105t-37.5 -149t37.5 -148.5t102 -104.5t142.5 -38q77 0 142 38
t102.5 104.5t37.5 148.5t-38 149t-102.5 105t-141.5 38q-78 0 -142.5 -38zM458.5 789.5q-15.5 8.5 -38.5 24.5q-17 13 -28.5 19.5t-22.5 6.5q-18 0 -32.5 -14t-36.5 -43l-48 41q19 31 53.5 60t68.5 29q19 0 36.5 -9.5t38.5 -26.5q3 -2 13 -9.5t18.5 -11t14.5 -3.5
q13 0 25 13t21.5 28t12.5 19l46 -36q-32 -49 -54.5 -72.5t-53.5 -23.5q-18 0 -33.5 8.5z" />
    <glyph glyph-name="Odieresis" unicode="&#xd6;" horiz-adv-x="843" 
d="M605.5 668q82.5 -48 130 -131.5t47.5 -186.5q0 -102 -47.5 -186t-130 -132t-183.5 -48t-184 48t-130.5 132t-47.5 186q0 103 47.5 186.5t130 131.5t184.5 48q101 0 183.5 -48zM279.5 604q-64.5 -38 -102 -105t-37.5 -149t37.5 -148.5t102 -104.5t142.5 -38q77 0 142 38
t102.5 104.5t37.5 148.5t-38 149t-102.5 105t-141.5 38q-78 0 -142.5 -38zM347.5 778q-16.5 -17 -39.5 -17q-25 0 -42.5 17t-17.5 42q0 24 17.5 40.5t42.5 16.5q23 0 39.5 -16.5t16.5 -40.5q0 -25 -16.5 -42zM578.5 778q-17.5 -17 -41.5 -17t-40.5 17t-16.5 42
q0 24 16.5 40.5t40.5 16.5t41.5 -16.5t17.5 -40.5q0 -25 -17.5 -42z" />
    <glyph glyph-name="multiply" unicode="&#xd7;" horiz-adv-x="383" 
d="M241 272l101 -102l-49 -49l-101 102l-102 -102l-50 50l102 102l-102 102l49 48l102 -101l102 103l50 -50z" />
    <glyph glyph-name="Oslash" unicode="&#xd8;" horiz-adv-x="843" 
d="M730 546q53 -87 53 -196q0 -102 -47.5 -186t-130 -132t-183.5 -48q-53 0 -98 13l-44 -113l-59 23l43 111q-93 44 -148.5 132.5t-55.5 199.5q0 103 47.5 186.5t130 131.5t184.5 48q57 0 106 -15l43 110l59 -24l-42 -109q89 -45 142 -132zM181 195q41 -69 111 -105l209 541
q-39 11 -79 11q-78 0 -142.5 -38t-102 -105t-37.5 -149q0 -86 41 -155zM564 97q65 38 102.5 104.5t37.5 148.5q0 83 -39 150.5t-105 105.5l-209 -538q35 -9 71 -9q77 0 142 38z" />
    <glyph glyph-name="Ugrave" unicode="&#xd9;" horiz-adv-x="684" 
d="M604 244q0 -84 -36.5 -143t-96 -88t-129.5 -29t-129.5 29t-96 88t-36.5 143v456h79v-448q0 -64 25 -107.5t67 -64.5t91 -21t91 21t67 64.5t25 107.5v448h79v-456zM192 827l22 76l220 -68l-24 -75z" />
    <glyph glyph-name="Uacute" unicode="&#xda;" horiz-adv-x="684" 
d="M604 244q0 -84 -36.5 -143t-96 -88t-129.5 -29t-129.5 29t-96 88t-36.5 143v456h79v-448q0 -64 25 -107.5t67 -64.5t91 -21t91 21t67 64.5t25 107.5v448h79v-456zM471 903l23 -76l-219 -67l-23 75z" />
    <glyph glyph-name="Ucircumflex" unicode="&#xdb;" horiz-adv-x="684" 
d="M604 244q0 -84 -36.5 -143t-96 -88t-129.5 -29t-129.5 29t-96 88t-36.5 143v456h79v-448q0 -64 25 -107.5t67 -64.5t91 -21t91 21t67 64.5t25 107.5v448h79v-456zM470 755l-126 97l-128 -97l-46 55l173 128l172 -128z" />
    <glyph glyph-name="Udieresis" unicode="&#xdc;" horiz-adv-x="684" 
d="M604 244q0 -84 -36.5 -143t-96 -88t-129.5 -29t-129.5 29t-96 88t-36.5 143v456h79v-448q0 -64 25 -107.5t67 -64.5t91 -21t91 21t67 64.5t25 107.5v448h79v-456zM267.5 778q-16.5 -17 -39.5 -17q-25 0 -42.5 17t-17.5 42q0 24 17.5 40.5t42.5 16.5q23 0 39.5 -16.5
t16.5 -40.5q0 -25 -16.5 -42zM498.5 778q-17.5 -17 -41.5 -17t-40.5 17t-16.5 42q0 24 16.5 40.5t40.5 16.5t41.5 -16.5t17.5 -40.5q0 -25 -17.5 -42z" />
    <glyph glyph-name="Yacute" unicode="&#xdd;" horiz-adv-x="645" 
d="M362 0h-79v298l-263 402h93l209 -331l210 331h93l-263 -402v-298zM474 903l23 -76l-219 -67l-23 75z" />
    <glyph glyph-name="Thorn" unicode="&#xde;" horiz-adv-x="561" 
d="M426 567q48 -27 71.5 -70.5t23.5 -92.5q0 -52 -26 -98t-76 -74t-120 -28h-131v-204h-78v700h78v-106h140q70 0 118 -27zM405 314q37 37 37 89q0 50 -34.5 84t-104.5 34h-135v-244h127q73 0 110 37z" />
    <glyph glyph-name="germandbls" unicode="&#xdf;" horiz-adv-x="572" 
d="M432.5 343q37.5 -25 58.5 -63.5t21 -82.5q0 -49 -25 -94.5t-75.5 -74t-123.5 -28.5h-66v68h70q44 0 77 17.5t50 47t17 63.5q0 35 -18.5 65.5t-59 50t-102.5 19.5h-24v71h24q66 0 105.5 39t39.5 96q0 49 -32.5 82t-90.5 33q-64 0 -98 -42.5t-34 -120.5v-489h-76v494
q0 70 27.5 121t75 77t106.5 26q53 0 98.5 -20.5t72.5 -59.5t27 -90q0 -62 -35.5 -111.5t-94.5 -64.5q48 -4 85.5 -29z" />
    <glyph glyph-name="agrave" unicode="&#xe0;" horiz-adv-x="681" 
d="M592 -9q-44 0 -74 27t-37 76q-24 -45 -73.5 -74.5t-110.5 -29.5t-118 31t-93 91t-36 143t36 142.5t92.5 89.5t117.5 30q52 0 102 -23t80 -68v78h75v-384q0 -28 14 -44t34 -16q16 0 34 9l26 -52q-29 -26 -69 -26zM385.5 84q40.5 22 66.5 65t26 102q0 62 -27 106t-69 66
t-86 22t-83 -22t-63 -65t-24 -103q0 -62 26 -105.5t66.5 -65.5t83.5 -22t83.5 22zM144 667l22 76l220 -68l-24 -75z" />
    <glyph glyph-name="aacute" unicode="&#xe1;" horiz-adv-x="681" 
d="M592 -9q-44 0 -74 27t-37 76q-24 -45 -73.5 -74.5t-110.5 -29.5t-118 31t-93 91t-36 143t36 142.5t92.5 89.5t117.5 30q52 0 102 -23t80 -68v78h75v-384q0 -28 14 -44t34 -16q16 0 34 9l26 -52q-29 -26 -69 -26zM385.5 84q40.5 22 66.5 65t26 102q0 62 -27 106t-69 66
t-86 22t-83 -22t-63 -65t-24 -103q0 -62 26 -105.5t66.5 -65.5t83.5 -22t83.5 22zM442 743l23 -76l-219 -67l-23 75z" />
    <glyph glyph-name="acircumflex" unicode="&#xe2;" horiz-adv-x="681" 
d="M592 -9q-44 0 -74 27t-37 76q-24 -45 -73.5 -74.5t-110.5 -29.5t-118 31t-93 91t-36 143t36 142.5t92.5 89.5t117.5 30q52 0 102 -23t80 -68v78h75v-384q0 -28 14 -44t34 -16q16 0 34 9l26 -52q-29 -26 -69 -26zM385.5 84q40.5 22 66.5 65t26 102q0 62 -27 106t-69 66
t-86 22t-83 -22t-63 -65t-24 -103q0 -62 26 -105.5t66.5 -65.5t83.5 -22t83.5 22zM432 589l-126 97l-128 -97l-46 55l173 128l172 -128z" />
    <glyph glyph-name="atilde" unicode="&#xe3;" horiz-adv-x="681" 
d="M592 -9q-44 0 -74 27t-37 76q-24 -45 -73.5 -74.5t-110.5 -29.5t-118 31t-93 91t-36 143t36 142.5t92.5 89.5t117.5 30q52 0 102 -23t80 -68v78h75v-384q0 -28 14 -44t34 -16q16 0 34 9l26 -52q-29 -26 -69 -26zM385.5 84q40.5 22 66.5 65t26 102q0 62 -27 106t-69 66
t-86 22t-83 -22t-63 -65t-24 -103q0 -62 26 -105.5t66.5 -65.5t83.5 -22t83.5 22zM348.5 629.5q-15.5 8.5 -38.5 24.5q-17 13 -28.5 19.5t-22.5 6.5q-18 0 -32.5 -14t-36.5 -43l-48 41q19 31 53.5 60t68.5 29q19 0 36.5 -9.5t38.5 -26.5q3 -2 13 -9.5t18.5 -11t14.5 -3.5
q13 0 25 13t21.5 28t12.5 19l46 -36q-32 -49 -54.5 -72.5t-53.5 -23.5q-18 0 -33.5 8.5z" />
    <glyph glyph-name="adieresis" unicode="&#xe4;" horiz-adv-x="681" 
d="M592 -9q-44 0 -74 27t-37 76q-24 -45 -73.5 -74.5t-110.5 -29.5t-118 31t-93 91t-36 143t36 142.5t92.5 89.5t117.5 30q52 0 102 -23t80 -68v78h75v-384q0 -28 14 -44t34 -16q16 0 34 9l26 -52q-29 -26 -69 -26zM385.5 84q40.5 22 66.5 65t26 102q0 62 -27 106t-69 66
t-86 22t-83 -22t-63 -65t-24 -103q0 -62 26 -105.5t66.5 -65.5t83.5 -22t83.5 22zM241.5 618q-16.5 -17 -39.5 -17q-25 0 -42.5 17t-17.5 42q0 24 17.5 40.5t42.5 16.5q23 0 39.5 -16.5t16.5 -40.5q0 -25 -16.5 -42zM472.5 618q-17.5 -17 -41.5 -17t-40.5 17t-16.5 42
q0 24 16.5 40.5t40.5 16.5t41.5 -16.5t17.5 -40.5q0 -25 -17.5 -42z" />
    <glyph glyph-name="aring" unicode="&#xe5;" horiz-adv-x="681" 
d="M215.5 812.5q35.5 36.5 88.5 36.5q34 0 63.5 -17t46.5 -45.5t17 -62.5q0 -53 -37 -88.5t-90 -35.5t-88.5 35.5t-35.5 88.5q0 52 35.5 88.5zM258 675.5q18 -19.5 46 -19.5t46.5 19.5t18.5 48.5q0 28 -18.5 47.5t-46.5 19.5t-46 -19.5t-18 -47.5q0 -29 18 -48.5zM592 -9
q-44 0 -74 27t-37 76q-24 -45 -73.5 -74.5t-110.5 -29.5t-118 31t-93 91t-36 143t36 142.5t92.5 89.5t117.5 30q52 0 102 -23t80 -68v78h75v-384q0 -28 14 -44t34 -16q16 0 34 9l26 -52q-29 -26 -69 -26zM385.5 84q40.5 22 66.5 65t26 102q0 62 -27 106t-69 66t-86 22
t-83 -22t-63 -65t-24 -103q0 -62 26 -105.5t66.5 -65.5t83.5 -22t83.5 22z" />
    <glyph glyph-name="ae" unicode="&#xe6;" horiz-adv-x="923" 
d="M868 217h-386q10 -79 57 -118t116 -39q49 0 90.5 20t68.5 62l50 -47q-43 -54 -99.5 -80.5t-117.5 -26.5q-77 0 -136.5 39.5t-88.5 106.5q-28 -66 -85 -105.5t-127 -39.5q-50 0 -89 21t-60.5 57.5t-21.5 82.5q0 75 57 121t160 46h134q0 66 -36 98.5t-92 32.5
q-43 0 -80.5 -19.5t-63.5 -52.5l-51 54q36 41 89.5 64t108.5 23q61 0 108 -27.5t70 -79.5q34 51 88.5 79t119.5 28q71 0 121 -33t75.5 -88.5t25.5 -121.5q0 -32 -5 -57zM771 375.5q-22 35.5 -56.5 53t-73.5 17.5q-64 0 -109.5 -42.5t-52.5 -116.5h314q0 53 -22 88.5z
M297.5 81q38.5 22 63 66t25.5 106h-149q-60 0 -92 -30t-32 -75q0 -41 26.5 -65t74.5 -24q45 0 83.5 22z" />
    <glyph glyph-name="ccedilla" unicode="&#xe7;" horiz-adv-x="549" 
d="M432 28q-55 -35 -121 -39l-11 -29q111 -22 111 -97q0 -53 -35 -80t-88 -27q-72 0 -121 45l36 48q39 -36 79 -36q28 0 48 12.5t20 37.5q0 27 -26 42t-87 26l19 61q-56 10 -103 43.5t-75 88.5t-28 128q0 84 36.5 144t95.5 90.5t124 30.5q58 0 109 -24.5t86 -72.5l-56 -48
q-25 38 -61.5 56.5t-77.5 18.5q-47 0 -88 -23t-66.5 -66.5t-25.5 -100.5q0 -51 21 -96.5t61.5 -73t94.5 -27.5q53 0 95 27t67 76l54 -39q-32 -61 -87 -96z" />
    <glyph glyph-name="egrave" unicode="&#xe8;" 
d="M416.5 15q-56.5 -27 -117.5 -27q-68 0 -124.5 31.5t-90.5 91.5t-34 142q0 84 35 143.5t92.5 90t124.5 30.5q71 0 121 -33t75.5 -88t25.5 -121q0 -33 -5 -58h-386q10 -79 57 -118t117 -39q49 0 89.5 20t68.5 62l50 -47q-42 -53 -98.5 -80zM444 287q0 53 -22 89t-56.5 53.5
t-73.5 17.5q-64 0 -110 -42t-52 -118h314zM155 667l22 76l220 -68l-24 -75z" />
    <glyph glyph-name="eacute" unicode="&#xe9;" 
d="M416.5 15q-56.5 -27 -117.5 -27q-68 0 -124.5 31.5t-90.5 91.5t-34 142q0 84 35 143.5t92.5 90t124.5 30.5q71 0 121 -33t75.5 -88t25.5 -121q0 -33 -5 -58h-386q10 -79 57 -118t117 -39q49 0 89.5 20t68.5 62l50 -47q-42 -53 -98.5 -80zM444 287q0 53 -22 89t-56.5 53.5
t-73.5 17.5q-64 0 -110 -42t-52 -118h314zM443 743l23 -76l-219 -67l-23 75z" />
    <glyph glyph-name="ecircumflex" unicode="&#xea;" 
d="M416.5 15q-56.5 -27 -117.5 -27q-68 0 -124.5 31.5t-90.5 91.5t-34 142q0 84 35 143.5t92.5 90t124.5 30.5q71 0 121 -33t75.5 -88t25.5 -121q0 -33 -5 -58h-386q10 -79 57 -118t117 -39q49 0 89.5 20t68.5 62l50 -47q-42 -53 -98.5 -80zM444 287q0 53 -22 89t-56.5 53.5
t-73.5 17.5q-64 0 -110 -42t-52 -118h314zM432 589l-126 97l-128 -97l-46 55l173 128l172 -128z" />
    <glyph glyph-name="edieresis" unicode="&#xeb;" 
d="M416.5 15q-56.5 -27 -117.5 -27q-68 0 -124.5 31.5t-90.5 91.5t-34 142q0 84 35 143.5t92.5 90t124.5 30.5q71 0 121 -33t75.5 -88t25.5 -121q0 -33 -5 -58h-386q10 -79 57 -118t117 -39q49 0 89.5 20t68.5 62l50 -47q-42 -53 -98.5 -80zM444 287q0 53 -22 89t-56.5 53.5
t-73.5 17.5q-64 0 -110 -42t-52 -118h314zM236.5 618q-16.5 -17 -39.5 -17q-25 0 -42.5 17t-17.5 42q0 24 17.5 40.5t42.5 16.5q23 0 39.5 -16.5t16.5 -40.5q0 -25 -16.5 -42zM467.5 618q-17.5 -17 -41.5 -17t-40.5 17t-16.5 42q0 24 16.5 40.5t40.5 16.5t41.5 -16.5
t17.5 -40.5q0 -25 -17.5 -42z" />
    <glyph glyph-name="igrave" unicode="&#xec;" horiz-adv-x="255" 
d="M91 504h75v-504h-75v504zM-40 667l22 76l220 -68l-24 -75z" />
    <glyph glyph-name="iacute" unicode="&#xed;" horiz-adv-x="255" 
d="M91 504h75v-504h-75v504zM261 743l23 -76l-219 -67l-23 75z" />
    <glyph glyph-name="icircumflex" unicode="&#xee;" horiz-adv-x="256" 
d="M91 504h75v-504h-75v504zM256 589l-126 97l-128 -97l-46 55l173 128l172 -128z" />
    <glyph glyph-name="idieresis" unicode="&#xef;" horiz-adv-x="255" 
d="M90 504h75v-504h-75v504zM53.5 618q-16.5 -17 -39.5 -17q-25 0 -42.5 17t-17.5 42q0 24 17.5 40.5t42.5 16.5q23 0 39.5 -16.5t16.5 -40.5q0 -25 -16.5 -42zM284.5 618q-17.5 -17 -41.5 -17t-40.5 17t-16.5 42q0 24 16.5 40.5t40.5 16.5t41.5 -16.5t17.5 -40.5
q0 -25 -17.5 -42z" />
    <glyph glyph-name="eth" unicode="&#xf0;" horiz-adv-x="582" 
d="M490 536q52 -97 52 -226q0 -109 -36 -182.5t-94.5 -108.5t-126.5 -35q-63 0 -119.5 29.5t-91 85.5t-34.5 132q0 71 30 123.5t80.5 81t110.5 28.5q61 0 117.5 -29t84.5 -82q-15 192 -150 259l-34 -89l-59 21l33 90q-44 11 -100 11l5 71q66 0 120 -15l25 69l62 -20l-27 -71
q100 -46 152 -143zM361.5 74q38.5 20 62 58.5t23.5 92.5q0 55 -25 93.5t-64.5 57t-82.5 18.5q-69 0 -114.5 -45t-45.5 -126q0 -56 23 -94t60 -56.5t80 -18.5q45 0 83.5 20z" />
    <glyph glyph-name="ntilde" unicode="&#xf1;" horiz-adv-x="591" 
d="M511 0h-76v311q0 65 -34.5 99.5t-84.5 34.5q-40 0 -76.5 -22t-60 -65t-23.5 -102v-256h-76v504h76v-87q27 48 74.5 74t100.5 26q48 0 89 -21t66 -63.5t25 -103.5v-329zM336.5 629.5q-15.5 8.5 -38.5 24.5q-17 13 -28.5 19.5t-22.5 6.5q-18 0 -32.5 -14t-36.5 -43l-48 41
q19 31 53.5 60t68.5 29q19 0 36.5 -9.5t38.5 -26.5q3 -2 13 -9.5t18.5 -11t14.5 -3.5q13 0 25 13t21.5 28t12.5 19l46 -36q-32 -49 -54.5 -72.5t-53.5 -23.5q-18 0 -33.5 8.5z" />
    <glyph glyph-name="ograve" unicode="&#xf2;" horiz-adv-x="615" 
d="M440 482.5q59 -34.5 92 -94.5t33 -135t-33 -135t-92 -94.5t-132 -34.5t-132 34.5t-92.5 94.5t-33.5 135t33.5 135t92.5 94.5t132 34.5t132 -34.5zM213.5 423q-41.5 -25 -64.5 -69.5t-23 -99.5t23 -99.5t64.5 -69.5t94.5 -25q52 0 93.5 25t65 69.5t23.5 99.5t-23.5 99.5
t-65 69.5t-93.5 25q-53 0 -94.5 -25zM160 667l22 76l220 -68l-24 -75z" />
    <glyph glyph-name="oacute" unicode="&#xf3;" horiz-adv-x="615" 
d="M440 482.5q59 -34.5 92 -94.5t33 -135t-33 -135t-92 -94.5t-132 -34.5t-132 34.5t-92.5 94.5t-33.5 135t33.5 135t92.5 94.5t132 34.5t132 -34.5zM213.5 423q-41.5 -25 -64.5 -69.5t-23 -99.5t23 -99.5t64.5 -69.5t94.5 -25q52 0 93.5 25t65 69.5t23.5 99.5t-23.5 99.5
t-65 69.5t-93.5 25q-53 0 -94.5 -25zM452 743l23 -76l-219 -67l-23 75z" />
    <glyph glyph-name="ocircumflex" unicode="&#xf4;" horiz-adv-x="615" 
d="M440 482.5q59 -34.5 92 -94.5t33 -135t-33 -135t-92 -94.5t-132 -34.5t-132 34.5t-92.5 94.5t-33.5 135t33.5 135t92.5 94.5t132 34.5t132 -34.5zM213.5 423q-41.5 -25 -64.5 -69.5t-23 -99.5t23 -99.5t64.5 -69.5t94.5 -25q52 0 93.5 25t65 69.5t23.5 99.5t-23.5 99.5
t-65 69.5t-93.5 25q-53 0 -94.5 -25zM435 589l-126 97l-128 -97l-46 55l173 128l172 -128z" />
    <glyph glyph-name="otilde" unicode="&#xf5;" horiz-adv-x="615" 
d="M440 482.5q59 -34.5 92 -94.5t33 -135t-33 -135t-92 -94.5t-132 -34.5t-132 34.5t-92.5 94.5t-33.5 135t33.5 135t92.5 94.5t132 34.5t132 -34.5zM213.5 423q-41.5 -25 -64.5 -69.5t-23 -99.5t23 -99.5t64.5 -69.5t94.5 -25q52 0 93.5 25t65 69.5t23.5 99.5t-23.5 99.5
t-65 69.5t-93.5 25q-53 0 -94.5 -25zM349.5 631.5q-15.5 8.5 -38.5 24.5q-17 13 -28.5 19.5t-22.5 6.5q-18 0 -32.5 -14t-36.5 -43l-48 41q19 31 53.5 60t68.5 29q19 0 36.5 -9.5t38.5 -26.5q3 -2 13 -9.5t18.5 -11t14.5 -3.5q13 0 25 13t21.5 28t12.5 19l46 -36
q-32 -49 -54.5 -72.5t-53.5 -23.5q-18 0 -33.5 8.5z" />
    <glyph glyph-name="odieresis" unicode="&#xf6;" horiz-adv-x="615" 
d="M440 482.5q59 -34.5 92 -94.5t33 -135t-33 -135t-92 -94.5t-132 -34.5t-132 34.5t-92.5 94.5t-33.5 135t33.5 135t92.5 94.5t132 34.5t132 -34.5zM213.5 423q-41.5 -25 -64.5 -69.5t-23 -99.5t23 -99.5t64.5 -69.5t94.5 -25q52 0 93.5 25t65 69.5t23.5 99.5t-23.5 99.5
t-65 69.5t-93.5 25q-53 0 -94.5 -25zM233.5 618q-16.5 -17 -39.5 -17q-25 0 -42.5 17t-17.5 42q0 24 17.5 40.5t42.5 16.5q23 0 39.5 -16.5t16.5 -40.5q0 -25 -16.5 -42zM464.5 618q-17.5 -17 -41.5 -17t-40.5 17t-16.5 42q0 24 16.5 40.5t40.5 16.5t41.5 -16.5t17.5 -40.5
q0 -25 -17.5 -42z" />
    <glyph glyph-name="divide" unicode="&#xf7;" horiz-adv-x="466" 
d="M60 333h366v-71h-366v71zM200.5 491.5q17.5 17.5 42.5 17.5t42 -17.5t17 -42.5t-17 -42.5t-42 -17.5t-42.5 17.5t-17.5 42.5t17.5 42.5zM200.5 174.5q17.5 17.5 42.5 17.5t42 -17.5t17 -42.5t-17 -42.5t-42 -17.5t-42.5 17.5t-17.5 42.5t17.5 42.5z" />
    <glyph glyph-name="oslash" unicode="&#xf8;" horiz-adv-x="615" 
d="M529.5 392.5q35.5 -61.5 35.5 -139.5q0 -75 -33 -135t-92 -94.5t-132 -34.5q-32 0 -66 8l-44 -113l-58 23l43 112q-62 33 -97.5 95t-35.5 139q0 75 33.5 135t92.5 94.5t132 34.5q29 0 64 -7l45 116l59 -24l-44 -115q62 -33 97.5 -94.5zM148.5 156.5
q22.5 -43.5 61.5 -68.5l137 356q-16 4 -39 4q-53 0 -94.5 -25t-64.5 -69.5t-23 -99.5q0 -54 22.5 -97.5zM401.5 85q41.5 25 65 69.5t23.5 99.5q0 54 -22.5 97.5t-61.5 68.5l-138 -356q17 -4 40 -4q52 0 93.5 25z" />
    <glyph glyph-name="ugrave" unicode="&#xf9;" 
d="M494 0h-76v90q-26 -50 -70.5 -75.5t-96.5 -25.5q-47 0 -88.5 21.5t-67 64t-25.5 103.5v326h76v-308q0 -67 33.5 -101t83.5 -34q39 0 74.5 21.5t58 64t22.5 101.5v256h76v-504zM127 667l22 76l220 -68l-24 -75z" />
    <glyph glyph-name="uacute" unicode="&#xfa;" 
d="M494 0h-76v90q-26 -50 -70.5 -75.5t-96.5 -25.5q-47 0 -88.5 21.5t-67 64t-25.5 103.5v326h76v-308q0 -67 33.5 -101t83.5 -34q39 0 74.5 21.5t58 64t22.5 101.5v256h76v-504zM411 743l23 -76l-219 -67l-23 75z" />
    <glyph glyph-name="ucircumflex" unicode="&#xfb;" 
d="M494 0h-76v90q-26 -50 -70.5 -75.5t-96.5 -25.5q-47 0 -88.5 21.5t-67 64t-25.5 103.5v326h76v-308q0 -67 33.5 -101t83.5 -34q39 0 74.5 21.5t58 64t22.5 101.5v256h76v-504zM410 589l-126 97l-128 -97l-46 55l173 128l172 -128z" />
    <glyph glyph-name="udieresis" unicode="&#xfc;" 
d="M494 0h-76v90q-26 -50 -70.5 -75.5t-96.5 -25.5q-47 0 -88.5 21.5t-67 64t-25.5 103.5v326h76v-308q0 -67 33.5 -101t83.5 -34q39 0 74.5 21.5t58 64t22.5 101.5v256h76v-504zM208.5 618q-16.5 -17 -39.5 -17q-25 0 -42.5 17t-17.5 42q0 24 17.5 40.5t42.5 16.5
q23 0 39.5 -16.5t16.5 -40.5q0 -25 -16.5 -42zM439.5 618q-17.5 -17 -41.5 -17t-40.5 17t-16.5 42q0 24 16.5 40.5t40.5 16.5t41.5 -16.5t17.5 -40.5q0 -25 -17.5 -42z" />
    <glyph glyph-name="yacute" unicode="&#xfd;" horiz-adv-x="600" 
d="M520 13q0 -80 -30 -135.5t-82 -83.5t-119 -28q-83 0 -148 42t-91 125l73 28q20 -63 65 -94t103 -31q71 0 113.5 45t41.5 128l-1 93q-26 -46 -70.5 -71.5t-97.5 -25.5q-50 0 -94.5 22.5t-72 65.5t-27.5 103v308h76v-292q0 -67 33.5 -101t88.5 -34q45 0 82.5 22t59.5 65
t22 102v238h75v-491zM430 743l23 -76l-219 -67l-23 75z" />
    <glyph glyph-name="thorn" unicode="&#xfe;" horiz-adv-x="633" 
d="M460.5 484q54.5 -29 88.5 -86t34 -139q0 -85 -36 -146t-94.5 -92t-123.5 -31q-52 0 -98 20.5t-75 59.5v-291h-76v921h76v-285q32 46 81 72t108 26q61 0 115.5 -29zM414 84.5q42 22.5 68 66.5t26 105q0 59 -24.5 101t-64 63.5t-84.5 21.5q-46 0 -87 -22.5t-66.5 -66.5
t-25.5 -105q0 -59 24 -101t63 -63.5t84 -21.5t87 22.5z" />
    <glyph glyph-name="ydieresis" unicode="&#xff;" horiz-adv-x="600" 
d="M520 13q0 -80 -30 -135.5t-82 -83.5t-119 -28q-83 0 -148 42t-91 125l73 28q20 -63 65 -94t103 -31q71 0 113.5 45t41.5 128l-1 93q-26 -46 -70.5 -71.5t-97.5 -25.5q-50 0 -94.5 22.5t-72 65.5t-27.5 103v308h76v-292q0 -67 33.5 -101t88.5 -34q45 0 82.5 22t59.5 65
t22 102v238h75v-491zM236.5 618q-16.5 -17 -39.5 -17q-25 0 -42.5 17t-17.5 42q0 24 17.5 40.5t42.5 16.5q23 0 39.5 -16.5t16.5 -40.5q0 -25 -16.5 -42zM467.5 618q-17.5 -17 -41.5 -17t-40.5 17t-16.5 42q0 24 16.5 40.5t40.5 16.5t41.5 -16.5t17.5 -40.5q0 -25 -17.5 -42
z" />
    <glyph glyph-name="Amacron" unicode="&#x100;" horiz-adv-x="680" 
d="M186 193l-71 -193h-85l273 700h75l272 -700h-85l-71 193h-308zM340 605l-127 -340h253zM489 836v-76h-297v76h297z" />
    <glyph glyph-name="amacron" unicode="&#x101;" horiz-adv-x="681" 
d="M592 -9q-44 0 -74 27t-37 76q-24 -45 -73.5 -74.5t-110.5 -29.5t-118 31t-93 91t-36 143t36 142.5t92.5 89.5t117.5 30q52 0 102 -23t80 -68v78h75v-384q0 -28 14 -44t34 -16q16 0 34 9l26 -52q-29 -26 -69 -26zM385.5 84q40.5 22 66.5 65t26 102q0 62 -27 106t-69 66
t-86 22t-83 -22t-63 -65t-24 -103q0 -62 26 -105.5t66.5 -65.5t83.5 -22t83.5 22zM451 676v-76h-297v76h297z" />
    <glyph glyph-name="Abreve" unicode="&#x102;" horiz-adv-x="680" 
d="M186 193l-71 -193h-85l273 700h75l272 -700h-85l-71 193h-308zM340 605l-127 -340h253zM473 896q0 -57 -33.5 -96.5t-99.5 -39.5t-99.5 39.5t-33.5 96.5h71q1 -31 16 -48.5t46 -17.5t46 17.5t16 48.5h71z" />
    <glyph glyph-name="abreve" unicode="&#x103;" horiz-adv-x="681" 
d="M592 -9q-44 0 -74 27t-37 76q-24 -45 -73.5 -74.5t-110.5 -29.5t-118 31t-93 91t-36 143t36 142.5t92.5 89.5t117.5 30q52 0 102 -23t80 -68v78h75v-384q0 -28 14 -44t34 -16q16 0 34 9l26 -52q-29 -26 -69 -26zM385.5 84q40.5 22 66.5 65t26 102q0 62 -27 106t-69 66
t-86 22t-83 -22t-63 -65t-24 -103q0 -62 26 -105.5t66.5 -65.5t83.5 -22t83.5 22zM443 736q0 -57 -33.5 -96.5t-99.5 -39.5t-99.5 39.5t-33.5 96.5h71q1 -31 16 -48.5t46 -17.5t46 17.5t16 48.5h71z" />
    <glyph glyph-name="Aogonek" unicode="&#x104;" horiz-adv-x="680" 
d="M580 -116q20 -15 62 -15v-66q-76 5 -112.5 31.5t-36.5 64.5q0 28 19.5 56.5t50.5 49.5l-69 188h-308l-71 -193h-85l273 700h75l272 -700h-37q-24 -14 -38.5 -35t-14.5 -42q0 -24 20 -39zM466 265l-126 340l-127 -340h253z" />
    <glyph glyph-name="aogonek" unicode="&#x105;" horiz-adv-x="681" 
d="M567 -116q20 -15 62 -15v-66q-76 5 -112.5 31.5t-36.5 64.5q0 27 17.5 54t46.5 48q-26 12 -42.5 35.5t-20.5 57.5q-24 -45 -73.5 -74.5t-110.5 -29.5t-118 31t-93 91t-36 143t36 142.5t92.5 89.5t117.5 30q52 0 102 -23t80 -68v78h75v-384q0 -28 14 -44t34 -16q16 0 34 9
l26 -52q-29 -26 -69 -26h-5q-18 -15 -29 -32.5t-11 -35.5q0 -24 20 -39zM385.5 84q40.5 22 66.5 65t26 102q0 62 -27 106t-69 66t-86 22t-83 -22t-63 -65t-24 -103q0 -62 26 -105.5t66.5 -65.5t83.5 -22t83.5 22z" />
    <glyph glyph-name="Cacute" unicode="&#x106;" horiz-adv-x="745" 
d="M578 33.5q-79 -49.5 -172 -49.5q-87 0 -166.5 42.5t-129.5 125.5t-50 198q0 118 51.5 200.5t133.5 124t173 41.5q71 0 138 -26t119 -83l-54 -57q-43 49 -93.5 71t-109.5 22q-79 0 -142 -34t-100 -99.5t-37 -155.5q0 -92 39.5 -159t102.5 -101t132 -34q72 0 135 38t98 109
l59 -38q-48 -86 -127 -135.5zM586 903l23 -76l-219 -67l-23 75z" />
    <glyph glyph-name="cacute" unicode="&#x107;" horiz-adv-x="549" 
d="M427 24.5q-59 -35.5 -129 -35.5q-64 0 -121 31t-92 91t-35 141q0 84 36.5 144t95.5 90.5t124 30.5q58 0 109 -24.5t86 -72.5l-56 -48q-25 38 -61.5 56.5t-77.5 18.5q-47 0 -88 -23t-66.5 -66.5t-25.5 -100.5q0 -51 21 -96.5t61.5 -73t94.5 -27.5q53 0 95 27t67 76l54 -39
q-33 -64 -92 -99.5zM476 743l23 -76l-219 -67l-23 75z" />
    <glyph glyph-name="Ccircumflex" unicode="&#x108;" horiz-adv-x="745" 
d="M578 33.5q-79 -49.5 -172 -49.5q-87 0 -166.5 42.5t-129.5 125.5t-50 198q0 118 51.5 200.5t133.5 124t173 41.5q71 0 138 -26t119 -83l-54 -57q-43 49 -93.5 71t-109.5 22q-79 0 -142 -34t-100 -99.5t-37 -155.5q0 -92 39.5 -159t102.5 -101t132 -34q72 0 135 38t98 109
l59 -38q-48 -86 -127 -135.5zM543 755l-126 97l-128 -97l-46 55l173 128l172 -128z" />
    <glyph glyph-name="ccircumflex" unicode="&#x109;" horiz-adv-x="549" 
d="M427 24.5q-59 -35.5 -129 -35.5q-64 0 -121 31t-92 91t-35 141q0 84 36.5 144t95.5 90.5t124 30.5q58 0 109 -24.5t86 -72.5l-56 -48q-25 38 -61.5 56.5t-77.5 18.5q-47 0 -88 -23t-66.5 -66.5t-25.5 -100.5q0 -51 21 -96.5t61.5 -73t94.5 -27.5q53 0 95 27t67 76l54 -39
q-33 -64 -92 -99.5zM432 589l-126 97l-128 -97l-46 55l173 128l172 -128z" />
    <glyph glyph-name="Cdotaccent" unicode="&#x10a;" horiz-adv-x="745" 
d="M578 33.5q-79 -49.5 -172 -49.5q-87 0 -166.5 42.5t-129.5 125.5t-50 198q0 118 51.5 200.5t133.5 124t173 41.5q71 0 138 -26t119 -83l-54 -57q-43 49 -93.5 71t-109.5 22q-79 0 -142 -34t-100 -99.5t-37 -155.5q0 -92 39.5 -159t102.5 -101t132 -34q72 0 135 38t98 109
l59 -38q-48 -86 -127 -135.5zM377.5 868.5q17.5 16.5 41.5 16.5t41 -16.5t17 -40.5t-17 -41.5t-41 -17.5t-41.5 17t-17.5 42q0 24 17.5 40.5z" />
    <glyph glyph-name="cdotaccent" unicode="&#x10b;" horiz-adv-x="549" 
d="M427 24.5q-59 -35.5 -129 -35.5q-64 0 -121 31t-92 91t-35 141q0 84 36.5 144t95.5 90.5t124 30.5q58 0 109 -24.5t86 -72.5l-56 -48q-25 38 -61.5 56.5t-77.5 18.5q-47 0 -88 -23t-66.5 -66.5t-25.5 -100.5q0 -51 21 -96.5t61.5 -73t94.5 -27.5q53 0 95 27t67 76l54 -39
q-33 -64 -92 -99.5zM252.5 699.5q17.5 16.5 41.5 16.5t41 -16.5t17 -40.5t-17 -41.5t-41 -17.5t-41.5 17t-17.5 42q0 24 17.5 40.5z" />
    <glyph glyph-name="Ccaron" unicode="&#x10c;" horiz-adv-x="745" 
d="M578 33.5q-79 -49.5 -172 -49.5q-87 0 -166.5 42.5t-129.5 125.5t-50 198q0 118 51.5 200.5t133.5 124t173 41.5q71 0 138 -26t119 -83l-54 -57q-43 49 -93.5 71t-109.5 22q-79 0 -142 -34t-100 -99.5t-37 -155.5q0 -92 39.5 -159t102.5 -101t132 -34q72 0 135 38t98 109
l59 -38q-48 -86 -127 -135.5zM425 755l-173 128l46 55l128 -96l126 96l45 -55z" />
    <glyph glyph-name="ccaron" unicode="&#x10d;" horiz-adv-x="549" 
d="M427 24.5q-59 -35.5 -129 -35.5q-64 0 -121 31t-92 91t-35 141q0 84 36.5 144t95.5 90.5t124 30.5q58 0 109 -24.5t86 -72.5l-56 -48q-25 38 -61.5 56.5t-77.5 18.5q-47 0 -88 -23t-66.5 -66.5t-25.5 -100.5q0 -51 21 -96.5t61.5 -73t94.5 -27.5q53 0 95 27t67 76l54 -39
q-33 -64 -92 -99.5zM299 588l-173 128l46 55l128 -97l126 97l45 -55z" />
    <glyph glyph-name="Dcaron" unicode="&#x10e;" horiz-adv-x="736" 
d="M90 700h224q115 0 197 -49t123.5 -128t41.5 -169q0 -91 -41.5 -172.5t-124 -131.5t-198.5 -50h-222v700zM168 629v-557h148q90 0 153 39.5t95 103.5t32 136q0 73 -32 136.5t-95.5 102.5t-152.5 39h-148zM321 755l-173 128l46 55l128 -96l126 96l45 -55z" />
    <glyph glyph-name="dcaron" unicode="&#x10f;" horiz-adv-x="863" 
d="M553 0h-75v74q-28 -40 -74.5 -62t-99.5 -22q-65 0 -123 31t-94.5 91t-36.5 144q0 85 36.5 144t94.5 88t122 29q51 0 97.5 -22.5t77.5 -64.5v270h75v-700zM391.5 83.5q38.5 21.5 62.5 63.5t24 102q0 62 -26 107t-67 67.5t-87 22.5q-45 0 -84 -21.5t-63.5 -64t-24.5 -103.5
q0 -62 26 -106.5t68 -66.5t88 -22q45 0 83.5 21.5zM744 717l89 -33l-119 -266l-61 24z" />
    <glyph glyph-name="Dcroat" unicode="&#x110;" horiz-adv-x="738" 
d="M513 651q82 -49 123.5 -128t41.5 -169q0 -91 -41.5 -172.5t-124 -131.5t-198.5 -50h-222v321h-127v59h127v320h224q115 0 197 -49zM471 111.5q63 39.5 95 103.5t32 136q0 73 -32 136.5t-95.5 102.5t-152.5 39h-148v-249h183v-59h-183v-249h148q90 0 153 39.5z" />
    <glyph glyph-name="dcroat" unicode="&#x111;" horiz-adv-x="683" 
d="M653 592h-100v-592h-75v74q-28 -40 -74.5 -62t-99.5 -22q-65 0 -123 31t-94.5 91t-36.5 144q0 85 36.5 144t94.5 88t122 29q51 0 97.5 -22.5t77.5 -64.5v162h-100v50h100v58h75v-58h100v-50zM391.5 83.5q38.5 21.5 62.5 63.5t24 102q0 62 -26 107t-67 67.5t-87 22.5
q-45 0 -84 -21.5t-63.5 -64t-24.5 -103.5q0 -62 26 -106.5t68 -66.5t88 -22q45 0 83.5 21.5z" />
    <glyph glyph-name="Emacron" unicode="&#x112;" horiz-adv-x="573" 
d="M168 628v-240h266v-72h-266v-244h335v-72h-413v700h404v-72h-326zM445 836v-76h-297v76h297z" />
    <glyph glyph-name="emacron" unicode="&#x113;" 
d="M416.5 15q-56.5 -27 -117.5 -27q-68 0 -124.5 31.5t-90.5 91.5t-34 142q0 84 35 143.5t92.5 90t124.5 30.5q71 0 121 -33t75.5 -88t25.5 -121q0 -33 -5 -58h-386q10 -79 57 -118t117 -39q49 0 89.5 20t68.5 62l50 -47q-42 -53 -98.5 -80zM444 287q0 53 -22 89t-56.5 53.5
t-73.5 17.5q-64 0 -110 -42t-52 -118h314zM439 676v-76h-297v76h297z" />
    <glyph glyph-name="Ebreve" unicode="&#x114;" horiz-adv-x="573" 
d="M168 628v-240h266v-72h-266v-244h335v-72h-413v700h404v-72h-326zM438 896q0 -57 -33.5 -96.5t-99.5 -39.5t-99.5 39.5t-33.5 96.5h71q1 -31 16 -48.5t46 -17.5t46 17.5t16 48.5h71z" />
    <glyph glyph-name="ebreve" unicode="&#x115;" 
d="M416.5 15q-56.5 -27 -117.5 -27q-68 0 -124.5 31.5t-90.5 91.5t-34 142q0 84 35 143.5t92.5 90t124.5 30.5q71 0 121 -33t75.5 -88t25.5 -121q0 -33 -5 -58h-386q10 -79 57 -118t117 -39q49 0 89.5 20t68.5 62l50 -47q-42 -53 -98.5 -80zM444 287q0 53 -22 89t-56.5 53.5
t-73.5 17.5q-64 0 -110 -42t-52 -118h314zM433 736q0 -57 -33.5 -96.5t-99.5 -39.5t-99.5 39.5t-33.5 96.5h71q1 -31 16 -48.5t46 -17.5t46 17.5t16 48.5h71z" />
    <glyph glyph-name="Edotaccent" unicode="&#x116;" horiz-adv-x="573" 
d="M168 628v-240h266v-72h-266v-244h335v-72h-413v700h404v-72h-326zM263.5 868.5q17.5 16.5 41.5 16.5t41 -16.5t17 -40.5t-17 -41.5t-41 -17.5t-41.5 17t-17.5 42q0 24 17.5 40.5z" />
    <glyph glyph-name="edotaccent" unicode="&#x117;" 
d="M416.5 15q-56.5 -27 -117.5 -27q-68 0 -124.5 31.5t-90.5 91.5t-34 142q0 84 35 143.5t92.5 90t124.5 30.5q71 0 121 -33t75.5 -88t25.5 -121q0 -33 -5 -58h-386q10 -79 57 -118t117 -39q49 0 89.5 20t68.5 62l50 -47q-42 -53 -98.5 -80zM444 287q0 53 -22 89t-56.5 53.5
t-73.5 17.5q-64 0 -110 -42t-52 -118h314zM254.5 699.5q17.5 16.5 41.5 16.5t41 -16.5t17 -40.5t-17 -41.5t-41 -17.5t-41.5 17t-17.5 42q0 24 17.5 40.5z" />
    <glyph glyph-name="Eogonek" unicode="&#x118;" horiz-adv-x="573" 
d="M435.5 -35q-14.5 -21 -14.5 -42q0 -24 20 -39t62 -15v-66q-76 5 -112.5 31.5t-36.5 64.5q0 27 17 53.5t46 47.5h-327v700h404v-72h-326v-240h266v-72h-266v-244h335v-72h-29q-24 -14 -38.5 -35z" />
    <glyph glyph-name="eogonek" unicode="&#x119;" 
d="M519 217h-386q10 -79 57 -118t117 -39q49 0 89.5 20t68.5 62l50 -47q-39 -49 -89.5 -75.5t-106.5 -30.5q-17 -14 -27 -31.5t-10 -34.5q0 -24 20 -39t62 -15v-66q-76 5 -112.5 31.5t-36.5 64.5q0 23 13.5 47t36.5 44q-60 8 -109 41.5t-77.5 90t-28.5 131.5q0 84 35 143.5
t92.5 90t124.5 30.5q71 0 121 -33t75.5 -88t25.5 -121q0 -33 -5 -58zM444 287q0 53 -22 89t-56.5 53.5t-73.5 17.5q-64 0 -110 -42t-52 -118h314z" />
    <glyph glyph-name="Ecaron" unicode="&#x11a;" horiz-adv-x="573" 
d="M168 628v-240h266v-72h-266v-244h335v-72h-413v700h404v-72h-326zM290 755l-173 128l46 55l128 -96l126 96l45 -55z" />
    <glyph glyph-name="ecaron" unicode="&#x11b;" 
d="M416.5 15q-56.5 -27 -117.5 -27q-68 0 -124.5 31.5t-90.5 91.5t-34 142q0 84 35 143.5t92.5 90t124.5 30.5q71 0 121 -33t75.5 -88t25.5 -121q0 -33 -5 -58h-386q10 -79 57 -118t117 -39q49 0 89.5 20t68.5 62l50 -47q-42 -53 -98.5 -80zM444 287q0 53 -22 89t-56.5 53.5
t-73.5 17.5q-64 0 -110 -42t-52 -118h314zM303 588l-173 128l46 55l128 -97l126 97l45 -55z" />
    <glyph glyph-name="Gcircumflex" unicode="&#x11c;" horiz-adv-x="748" 
d="M668 82q-53 -48 -120 -73t-137 -25q-92 0 -172.5 42.5t-129.5 125.5t-49 197q0 117 51 200t132 125t171 42q74 0 142.5 -28t116.5 -82l-55 -55q-39 44 -92 68.5t-116 24.5q-75 0 -136.5 -34.5t-98 -100t-36.5 -154.5q0 -93 39.5 -160t103.5 -101.5t137 -34.5q46 0 91 14
t81 40v180h-169v71h246v-282zM542 755l-126 97l-128 -97l-46 55l173 128l172 -128z" />
    <glyph glyph-name="gcircumflex" unicode="&#x11d;" horiz-adv-x="623" 
d="M553 9q0 -78 -34 -133t-90.5 -83t-121.5 -28q-85 0 -153 44t-93 126l72 29q18 -61 65.5 -94.5t109.5 -33.5q72 0 121.5 43t49.5 124v100q-32 -45 -80.5 -66t-101.5 -21q-63 0 -120 29.5t-92 86.5t-35 136t35 135.5t91.5 85t119.5 28.5q55 0 102.5 -23t79.5 -66v76h75
v-495zM388 107q40 20 65 59.5t25 94.5q0 57 -26.5 99t-68.5 63.5t-88 21.5q-45 0 -83.5 -21t-62 -61t-23.5 -95q0 -58 25 -99t65.5 -61.5t86.5 -20.5q45 0 85 20zM431 589l-126 97l-128 -97l-46 55l173 128l172 -128z" />
    <glyph glyph-name="Gbreve" unicode="&#x11e;" horiz-adv-x="748" 
d="M668 82q-53 -48 -120 -73t-137 -25q-92 0 -172.5 42.5t-129.5 125.5t-49 197q0 117 51 200t132 125t171 42q74 0 142.5 -28t116.5 -82l-55 -55q-39 44 -92 68.5t-116 24.5q-75 0 -136.5 -34.5t-98 -100t-36.5 -154.5q0 -93 39.5 -160t103.5 -101.5t137 -34.5q46 0 91 14
t81 40v180h-169v71h246v-282zM556 896q0 -57 -33.5 -96.5t-99.5 -39.5t-99.5 39.5t-33.5 96.5h71q1 -31 16 -48.5t46 -17.5t46 17.5t16 48.5h71z" />
    <glyph glyph-name="gbreve" unicode="&#x11f;" horiz-adv-x="623" 
d="M553 9q0 -78 -34 -133t-90.5 -83t-121.5 -28q-85 0 -153 44t-93 126l72 29q18 -61 65.5 -94.5t109.5 -33.5q72 0 121.5 43t49.5 124v100q-32 -45 -80.5 -66t-101.5 -21q-63 0 -120 29.5t-92 86.5t-35 136t35 135.5t91.5 85t119.5 28.5q55 0 102.5 -23t79.5 -66v76h75
v-495zM388 107q40 20 65 59.5t25 94.5q0 57 -26.5 99t-68.5 63.5t-88 21.5q-45 0 -83.5 -21t-62 -61t-23.5 -95q0 -58 25 -99t65.5 -61.5t86.5 -20.5q45 0 85 20zM434 736q0 -57 -33.5 -96.5t-99.5 -39.5t-99.5 39.5t-33.5 96.5h71q1 -31 16 -48.5t46 -17.5t46 17.5t16 48.5
h71z" />
    <glyph glyph-name="Gdotaccent" unicode="&#x120;" horiz-adv-x="748" 
d="M668 82q-53 -48 -120 -73t-137 -25q-92 0 -172.5 42.5t-129.5 125.5t-49 197q0 117 51 200t132 125t171 42q74 0 142.5 -28t116.5 -82l-55 -55q-39 44 -92 68.5t-116 24.5q-75 0 -136.5 -34.5t-98 -100t-36.5 -154.5q0 -93 39.5 -160t103.5 -101.5t137 -34.5q46 0 91 14
t81 40v180h-169v71h246v-282zM374.5 868.5q17.5 16.5 41.5 16.5t41 -16.5t17 -40.5t-17 -41.5t-41 -17.5t-41.5 17t-17.5 42q0 24 17.5 40.5z" />
    <glyph glyph-name="gdotaccent" unicode="&#x121;" horiz-adv-x="623" 
d="M553 9q0 -78 -34 -133t-90.5 -83t-121.5 -28q-85 0 -153 44t-93 126l72 29q18 -61 65.5 -94.5t109.5 -33.5q72 0 121.5 43t49.5 124v100q-32 -45 -80.5 -66t-101.5 -21q-63 0 -120 29.5t-92 86.5t-35 136t35 135.5t91.5 85t119.5 28.5q55 0 102.5 -23t79.5 -66v76h75
v-495zM388 107q40 20 65 59.5t25 94.5q0 57 -26.5 99t-68.5 63.5t-88 21.5q-45 0 -83.5 -21t-62 -61t-23.5 -95q0 -58 25 -99t65.5 -61.5t86.5 -20.5q45 0 85 20zM275.5 699.5q17.5 16.5 41.5 16.5t41 -16.5t17 -40.5t-17 -41.5t-41 -17.5t-41.5 17t-17.5 42q0 24 17.5 40.5
z" />
    <glyph glyph-name="Gcommaaccent" unicode="&#x122;" horiz-adv-x="748" 
d="M668 82q-53 -48 -120 -73t-137 -25q-92 0 -172.5 42.5t-129.5 125.5t-49 197q0 117 51 200t132 125t171 42q74 0 142.5 -28t116.5 -82l-55 -55q-39 44 -92 68.5t-116 24.5q-75 0 -136.5 -34.5t-98 -100t-36.5 -154.5q0 -93 39.5 -160t103.5 -101.5t137 -34.5q46 0 91 14
t81 40v180h-169v71h246v-282zM370 -40l89 -33l-119 -266l-61 24z" />
    <glyph glyph-name="gcommaaccent" unicode="&#x123;" horiz-adv-x="623" 
d="M320 579l-89 33l119 266l61 -24zM553 9q0 -78 -34 -133t-90.5 -83t-121.5 -28q-85 0 -153 44t-93 126l72 29q18 -61 65.5 -94.5t109.5 -33.5q72 0 121.5 43t49.5 124v100q-32 -45 -80.5 -66t-101.5 -21q-63 0 -120 29.5t-92 86.5t-35 136t35 135.5t91.5 85t119.5 28.5
q55 0 102.5 -23t79.5 -66v76h75v-495zM388 107q40 20 65 59.5t25 94.5q0 57 -26.5 99t-68.5 63.5t-88 21.5q-45 0 -83.5 -21t-62 -61t-23.5 -95q0 -58 25 -99t65.5 -61.5t86.5 -20.5q45 0 85 20z" />
    <glyph glyph-name="Hcircumflex" unicode="&#x124;" horiz-adv-x="716" 
d="M90 700h78v-312h380v312h78v-700h-78v315h-380v-315h-78v700zM486 755l-126 97l-128 -97l-46 55l173 128l172 -128z" />
    <glyph glyph-name="hcircumflex" unicode="&#x125;" horiz-adv-x="628" 
d="M420 496q41 -21 66 -63.5t25 -103.5v-329h-76v311q0 65 -34.5 99.5t-84.5 34.5q-40 0 -76.5 -22t-60 -65t-23.5 -102v-256h-76v700h76v-287q26 50 73.5 77t101.5 27q48 0 89 -21zM503 589l-126 97l-128 -97l-46 55l173 128l172 -128z" />
    <glyph glyph-name="Hbar" unicode="&#x126;" horiz-adv-x="777" 
d="M757 493h-100v-493h-78v315h-380v-315h-78v493h-101v49h101v158h78v-158h380v158h78v-158h100v-49zM579 493h-380v-105h380v105z" />
    <glyph glyph-name="hbar" unicode="&#x127;" horiz-adv-x="611" 
d="M440 496q41 -21 66 -63.5t25 -103.5v-329h-76v311q0 65 -34.5 99.5t-84.5 34.5q-40 0 -76.5 -22t-60 -65t-23.5 -102v-256h-76v582h-70v50h70v68h76v-68h130v-50h-130v-169q26 50 73.5 77t101.5 27q48 0 89 -21z" />
    <glyph glyph-name="Itilde" unicode="&#x128;" horiz-adv-x="258" 
d="M90 700h78v-700h-78v700zM167.5 789.5q-15.5 8.5 -38.5 24.5q-17 13 -28.5 19.5t-22.5 6.5q-18 0 -32.5 -14t-36.5 -43l-48 41q19 31 53.5 60t68.5 29q19 0 36.5 -9.5t38.5 -26.5q3 -2 13 -9.5t18.5 -11t14.5 -3.5q13 0 25 13t21.5 28t12.5 19l46 -36
q-32 -49 -54.5 -72.5t-53.5 -23.5q-18 0 -33.5 8.5z" />
    <glyph glyph-name="itilde" unicode="&#x129;" horiz-adv-x="255" 
d="M91 504h75v-504h-75v504zM163.5 629.5q-15.5 8.5 -38.5 24.5q-17 13 -28.5 19.5t-22.5 6.5q-18 0 -32.5 -14t-36.5 -43l-48 41q19 31 53.5 60t68.5 29q19 0 36.5 -9.5t38.5 -26.5q3 -2 13 -9.5t18.5 -11t14.5 -3.5q13 0 25 13t21.5 28t12.5 19l46 -36
q-32 -49 -54.5 -72.5t-53.5 -23.5q-18 0 -33.5 8.5z" />
    <glyph glyph-name="Imacron" unicode="&#x12a;" horiz-adv-x="258" 
d="M90 700h78v-700h-78v700zM277 836v-76h-297v76h297z" />
    <glyph glyph-name="imacron" unicode="&#x12b;" horiz-adv-x="255" 
d="M91 504h75v-504h-75v504zM277 676v-76h-297v76h297z" />
    <glyph glyph-name="ibreve" unicode="&#x12d;" horiz-adv-x="256" 
d="M92 504h75v-504h-75v504zM262 736q0 -57 -33.5 -96.5t-99.5 -39.5t-99.5 39.5t-33.5 96.5h71q1 -31 16 -48.5t46 -17.5t46 17.5t16 48.5h71z" />
    <glyph glyph-name="Iogonek" unicode="&#x12e;" horiz-adv-x="258" 
d="M108 -116q20 -15 62 -15v-66q-76 5 -112.5 31.5t-36.5 64.5q0 28 19 56t50 49v696h78v-700h-27q-24 -14 -38.5 -35t-14.5 -42q0 -24 20 -39z" />
    <glyph glyph-name="iogonek" unicode="&#x12f;" horiz-adv-x="255" 
d="M87 617q-17 17 -17 41q0 23 17 40t41 17t40.5 -17t16.5 -40q0 -24 -16.5 -41t-40.5 -17t-41 17zM110 -116q20 -15 62 -15v-66q-76 5 -112.5 31.5t-36.5 64.5q0 27 19 55.5t49 49.5v500h75v-504h-23q-24 -14 -38.5 -35t-14.5 -42q0 -24 20 -39z" />
    <glyph glyph-name="Idotaccent" unicode="&#x130;" horiz-adv-x="258" 
d="M90 700h78v-700h-78v700zM87.5 868.5q17.5 16.5 41.5 16.5t41 -16.5t17 -40.5t-17 -41.5t-41 -17.5t-41.5 17t-17.5 42q0 24 17.5 40.5z" />
    <glyph glyph-name="dotlessi" unicode="&#x131;" horiz-adv-x="255" 
d="M91 504h75v-504h-75v504z" />
    <glyph glyph-name="IJ" unicode="&#x132;" horiz-adv-x="758" 
d="M70 700h78v-700h-78v700zM678 700v-503q0 -68 -29 -116t-76.5 -72.5t-101.5 -24.5q-47 0 -90.5 18.5t-74 58.5t-38.5 101l75 16q10 -67 45 -95.5t82 -28.5q59 0 94 39t35 111v496h79z" />
    <glyph glyph-name="ij" unicode="&#x133;" horiz-adv-x="515" 
d="M87 698q17 17 41 17t40.5 -17t16.5 -40q0 -24 -16.5 -41t-40.5 -17t-41 17t-17 41q0 23 17 40zM91 504h75v-504h-75v504zM347 698q17 17 41 17t40.5 -17t16.5 -40q0 -24 -16.5 -41t-40.5 -17t-41 17t-17 41q0 23 17 40zM406.5 -164.5q-19.5 -34.5 -51 -52t-67.5 -17.5
q-28 0 -55 11.5t-48 32.5l37 54q13 -14 30.5 -22t34.5 -8q27 0 45 20t18 60v591h76v-586q0 -49 -19.5 -83.5z" />
    <glyph glyph-name="Jcircumflex" unicode="&#x134;" horiz-adv-x="520" 
d="M440 700v-503q0 -68 -29 -116t-76.5 -72.5t-101.5 -24.5q-47 0 -90.5 18.5t-74 58.5t-38.5 101l75 16q10 -67 45 -95.5t82 -28.5q59 0 94 39t35 111v496h79zM524 755l-126 97l-128 -97l-46 55l173 128l172 -128z" />
    <glyph glyph-name="jcircumflex" unicode="&#x135;" horiz-adv-x="260" 
d="M261 589l-126 97l-128 -97l-46 55l173 128l172 -128zM151.5 -164.5q-19.5 -34.5 -51 -52t-67.5 -17.5q-28 0 -55 11.5t-48 32.5l37 54q13 -14 30.5 -22t34.5 -8q28 0 46 20t18 60v591h75v-586q0 -49 -19.5 -83.5z" />
    <glyph glyph-name="Kcommaaccent" unicode="&#x136;" horiz-adv-x="639" 
d="M168 331v-331h-78v700h78v-326l326 326h100l-336 -342l351 -358h-115zM308 -40l89 -33l-119 -266l-61 24z" />
    <glyph glyph-name="kcommaaccent" unicode="&#x137;" horiz-adv-x="533" 
d="M156 242v-242h-76v700h76v-421l232 225h103l-251 -240l283 -264h-113zM239 -30l89 -33l-119 -266l-61 24z" />
    <glyph glyph-name="kgreenlandic" unicode="&#x138;" horiz-adv-x="533" 
d="M156 242v-242h-76v504h76v-225l232 225h103l-251 -240l283 -264h-113z" />
    <glyph glyph-name="Lacute" unicode="&#x139;" horiz-adv-x="527" 
d="M168 700v-628h319v-72h-397v700h78zM330 903l23 -76l-219 -67l-23 75z" />
    <glyph glyph-name="lacute" unicode="&#x13a;" horiz-adv-x="307" 
d="M216 -11q-58 0 -97 38t-39 116v557h76v-558q0 -45 20 -66t52 -21q19 0 48 11l26 -55q-39 -22 -86 -22zM306 903l23 -76l-219 -67l-23 75z" />
    <glyph glyph-name="Lcommaaccent" unicode="&#x13b;" horiz-adv-x="527" 
d="M168 700v-628h319v-72h-397v700h78zM270 -40l89 -33l-119 -266l-61 24z" />
    <glyph glyph-name="lcommaaccent" unicode="&#x13c;" horiz-adv-x="307" 
d="M216 -11q-58 0 -97 38t-39 116v557h76v-558q0 -45 20 -66t52 -21q19 0 48 11l26 -55q-39 -22 -86 -22zM149 -40l89 -33l-119 -266l-61 24z" />
    <glyph glyph-name="Lcaron" unicode="&#x13d;" horiz-adv-x="664" 
d="M168 700v-628h319v-72h-397v700h78zM545 757l89 -33l-119 -266l-61 24z" />
    <glyph glyph-name="lcaron" unicode="&#x13e;" horiz-adv-x="466" 
d="M216 -11q-58 0 -97 38t-39 116v557h76v-558q0 -45 20 -66t52 -21q19 0 48 11l26 -55q-39 -22 -86 -22zM347 717l89 -33l-119 -266l-61 24z" />
    <glyph glyph-name="Ldot" unicode="&#x13f;" horiz-adv-x="568" 
d="M168 700v-628h319v-72h-397v700h78zM428.5 512.5q17.5 16.5 41.5 16.5t41 -16.5t17 -40.5t-17 -41.5t-41 -17.5t-41.5 17t-17.5 42q0 24 17.5 40.5z" />
    <glyph glyph-name="ldot" unicode="&#x140;" horiz-adv-x="405" 
d="M216 -11q-58 0 -97 38t-39 116v557h76v-558q0 -45 20 -66t52 -21q19 0 48 11l26 -55q-39 -22 -86 -22zM275.5 451.5q17.5 16.5 41.5 16.5t41 -16.5t17 -40.5t-17 -41.5t-41 -17.5t-41.5 17t-17.5 42q0 24 17.5 40.5z" />
    <glyph glyph-name="Lslash" unicode="&#x141;" horiz-adv-x="529" 
d="M489 72v-72h-397v327l-100 -57l-29 53l129 73v304h78v-260l137 78l29 -52l-166 -95v-299h319z" />
    <glyph glyph-name="lslash" unicode="&#x142;" horiz-adv-x="341" 
d="M278 66l26 -55q-39 -22 -86 -22q-58 0 -97 38t-39 116v189l-90 -51l-29 53l119 67v299h76v-255l149 84l29 -52l-178 -101v-234q0 -45 20 -66t52 -21q19 0 48 11z" />
    <glyph glyph-name="Nacute" unicode="&#x143;" horiz-adv-x="739" 
d="M90 700h78l403 -560v560h78v-700h-78l-403 563v-563h-78v700zM510 903l23 -76l-219 -67l-23 75z" />
    <glyph glyph-name="nacute" unicode="&#x144;" horiz-adv-x="591" 
d="M511 0h-76v311q0 65 -34.5 99.5t-84.5 34.5q-40 0 -76.5 -22t-60 -65t-23.5 -102v-256h-76v504h76v-87q27 48 74.5 74t100.5 26q48 0 89 -21t66 -63.5t25 -103.5v-329zM468 743l23 -76l-219 -67l-23 75z" />
    <glyph glyph-name="Ncommaaccent" unicode="&#x145;" horiz-adv-x="739" 
d="M90 700h78l403 -560v560h78v-700h-78l-403 563v-563h-78v700zM324 -10l89 -33l-119 -266l-61 24z" />
    <glyph glyph-name="ncommaaccent" unicode="&#x146;" horiz-adv-x="591" 
d="M511 0h-76v311q0 65 -34.5 99.5t-84.5 34.5q-40 0 -76.5 -22t-60 -65t-23.5 -102v-256h-76v504h76v-87q27 48 74.5 74t100.5 26q48 0 89 -21t66 -63.5t25 -103.5v-329zM269 -30l89 -33l-119 -266l-61 24z" />
    <glyph glyph-name="Ncaron" unicode="&#x147;" horiz-adv-x="739" 
d="M90 700h78l403 -560v560h78v-700h-78l-403 563v-563h-78v700zM389 755l-173 128l46 55l128 -96l126 96l45 -55z" />
    <glyph glyph-name="ncaron" unicode="&#x148;" horiz-adv-x="591" 
d="M511 0h-76v311q0 65 -34.5 99.5t-84.5 34.5q-40 0 -76.5 -22t-60 -65t-23.5 -102v-256h-76v504h76v-87q27 48 74.5 74t100.5 26q48 0 89 -21t66 -63.5t25 -103.5v-329zM314 588l-173 128l46 55l128 -97l126 97l45 -55z" />
    <glyph glyph-name="napostrophe" unicode="&#x149;" horiz-adv-x="772" 
d="M692 0h-76v311q0 65 -34.5 99.5t-84.5 34.5q-40 0 -76.5 -22t-60 -65t-23.5 -102v-256h-76v504h76v-87q27 48 74.5 74t100.5 26q48 0 89 -21t66 -63.5t25 -103.5v-329zM121 717l89 -33l-119 -266l-61 24z" />
    <glyph glyph-name="Eng" unicode="&#x14a;" horiz-adv-x="739" 
d="M649 700v-781q0 -49 -19.5 -83.5t-51 -52t-67.5 -17.5q-28 0 -55 11.5t-48 32.5l37 54q13 -14 30.5 -22t34.5 -8q28 0 46 20t18 60v82l-406 567v-563h-78v700h78l403 -560v560h78z" />
    <glyph glyph-name="eng" unicode="&#x14b;" horiz-adv-x="581" 
d="M420 496q41 -21 66 -63.5t25 -103.5v-410q0 -49 -19.5 -83.5t-51 -52t-67.5 -17.5q-28 0 -55 11.5t-48 32.5l37 54q13 -14 30.5 -22t34.5 -8q27 0 45 20t18 60v397q0 65 -34.5 99.5t-84.5 34.5q-40 0 -76.5 -22t-60 -65t-23.5 -102v-256h-76v504h76v-87q27 48 74.5 74
t100.5 26q48 0 89 -21z" />
    <glyph glyph-name="Omacron" unicode="&#x14c;" horiz-adv-x="843" 
d="M605.5 668q82.5 -48 130 -131.5t47.5 -186.5q0 -102 -47.5 -186t-130 -132t-183.5 -48t-184 48t-130.5 132t-47.5 186q0 103 47.5 186.5t130 131.5t184.5 48q101 0 183.5 -48zM279.5 604q-64.5 -38 -102 -105t-37.5 -149t37.5 -148.5t102 -104.5t142.5 -38q77 0 142 38
t102.5 104.5t37.5 148.5t-38 149t-102.5 105t-141.5 38q-78 0 -142.5 -38zM570 836v-76h-297v76h297z" />
    <glyph glyph-name="omacron" unicode="&#x14d;" horiz-adv-x="615" 
d="M440 482.5q59 -34.5 92 -94.5t33 -135t-33 -135t-92 -94.5t-132 -34.5t-132 34.5t-92.5 94.5t-33.5 135t33.5 135t92.5 94.5t132 34.5t132 -34.5zM213.5 423q-41.5 -25 -64.5 -69.5t-23 -99.5t23 -99.5t64.5 -69.5t94.5 -25q52 0 93.5 25t65 69.5t23.5 99.5t-23.5 99.5
t-65 69.5t-93.5 25q-53 0 -94.5 -25zM456 676v-76h-297v76h297z" />
    <glyph glyph-name="Obreve" unicode="&#x14e;" horiz-adv-x="843" 
d="M605.5 668q82.5 -48 130 -131.5t47.5 -186.5q0 -102 -47.5 -186t-130 -132t-183.5 -48t-184 48t-130.5 132t-47.5 186q0 103 47.5 186.5t130 131.5t184.5 48q101 0 183.5 -48zM279.5 604q-64.5 -38 -102 -105t-37.5 -149t37.5 -148.5t102 -104.5t142.5 -38q77 0 142 38
t102.5 104.5t37.5 148.5t-38 149t-102.5 105t-141.5 38q-78 0 -142.5 -38zM555 896q0 -57 -33.5 -96.5t-99.5 -39.5t-99.5 39.5t-33.5 96.5h71q1 -31 16 -48.5t46 -17.5t46 17.5t16 48.5h71z" />
    <glyph glyph-name="obreve" unicode="&#x14f;" horiz-adv-x="615" 
d="M440 482.5q59 -34.5 92 -94.5t33 -135t-33 -135t-92 -94.5t-132 -34.5t-132 34.5t-92.5 94.5t-33.5 135t33.5 135t92.5 94.5t132 34.5t132 -34.5zM213.5 423q-41.5 -25 -64.5 -69.5t-23 -99.5t23 -99.5t64.5 -69.5t94.5 -25q52 0 93.5 25t65 69.5t23.5 99.5t-23.5 99.5
t-65 69.5t-93.5 25q-53 0 -94.5 -25zM441 736q0 -57 -33.5 -96.5t-99.5 -39.5t-99.5 39.5t-33.5 96.5h71q1 -31 16 -48.5t46 -17.5t46 17.5t16 48.5h71z" />
    <glyph glyph-name="Ohungarumlaut" unicode="&#x150;" horiz-adv-x="843" 
d="M605.5 668q82.5 -48 130 -131.5t47.5 -186.5q0 -102 -47.5 -186t-130 -132t-183.5 -48t-184 48t-130.5 132t-47.5 186q0 103 47.5 186.5t130 131.5t184.5 48q101 0 183.5 -48zM279.5 604q-64.5 -38 -102 -105t-37.5 -149t37.5 -148.5t102 -104.5t142.5 -38q77 0 142 38
t102.5 104.5t37.5 148.5t-38 149t-102.5 105t-141.5 38q-78 0 -142.5 -38zM393 769h-83l55 131h108zM535 769h-85l78 131h108z" />
    <glyph glyph-name="ohungarumlaut" unicode="&#x151;" horiz-adv-x="615" 
d="M440 482.5q59 -34.5 92 -94.5t33 -135t-33 -135t-92 -94.5t-132 -34.5t-132 34.5t-92.5 94.5t-33.5 135t33.5 135t92.5 94.5t132 34.5t132 -34.5zM213.5 423q-41.5 -25 -64.5 -69.5t-23 -99.5t23 -99.5t64.5 -69.5t94.5 -25q52 0 93.5 25t65 69.5t23.5 99.5t-23.5 99.5
t-65 69.5t-93.5 25q-53 0 -94.5 -25zM275 600h-83l55 131h108zM417 600h-85l78 131h108z" />
    <glyph glyph-name="OE" unicode="&#x152;" horiz-adv-x="928" 
d="M858 0h-436q-102 0 -184.5 43.5t-130 123t-47.5 183.5t47.5 183.5t130 123t184.5 43.5h427v-72h-317v-240h258v-72h-258v-244h326v-72zM454 628h-32q-78 0 -142.5 -33.5t-102 -96.5t-37.5 -148q0 -84 37.5 -147t102 -97t142.5 -34h32v556z" />
    <glyph glyph-name="oe" unicode="&#x153;" horiz-adv-x="1007" 
d="M952 217h-386q10 -79 57 -118t116 -39q103 0 159 82l50 -47q-42 -53 -99 -80t-118 -27q-65 0 -120.5 30t-87.5 84q-34 -53 -90.5 -83t-124.5 -30q-73 0 -132 34.5t-92.5 94.5t-33.5 135t33.5 135t92.5 94.5t132 34.5q68 0 124.5 -30.5t90.5 -83.5q34 55 90.5 84.5
t121.5 29.5q71 0 121 -33t75.5 -88t25.5 -121q0 -33 -5 -58zM401.5 85q41.5 25 65 69.5t23.5 99.5t-23.5 99.5t-65 69.5t-93.5 25q-53 0 -94.5 -25t-64.5 -69.5t-23 -99.5t23 -99.5t64.5 -69.5t94.5 -25q52 0 93.5 25zM855 375.5q-22 35.5 -56.5 53t-73.5 17.5
q-63 0 -109 -42t-53 -116v-1h314q0 53 -22 88.5z" />
    <glyph glyph-name="Racute" unicode="&#x154;" horiz-adv-x="615" 
d="M288 325h-120v-325h-78v700h220q101 0 156.5 -50.5t55.5 -130.5q0 -61 -39 -112t-110 -70l207 -337h-95zM308 395q41 0 71.5 17t46.5 45t16 58q0 47 -36 80t-99 33h-139v-233h140zM446 903l23 -76l-219 -67l-23 75z" />
    <glyph glyph-name="racute" unicode="&#x155;" horiz-adv-x="436" 
d="M351 497l-16 -75q-30 14 -61 14q-53 0 -85.5 -37.5t-32.5 -104.5v-294h-76v504h76v-68q19 38 52 56.5t72 18.5q40 0 71 -14zM393 743l23 -76l-219 -67l-23 75z" />
    <glyph glyph-name="Rcommaaccent" unicode="&#x156;" horiz-adv-x="615" 
d="M288 325h-120v-325h-78v700h220q101 0 156.5 -50.5t55.5 -130.5q0 -61 -39 -112t-110 -70l207 -337h-95zM308 395q41 0 71.5 17t46.5 45t16 58q0 47 -36 80t-99 33h-139v-233h140zM294 -10l89 -33l-119 -266l-61 24z" />
    <glyph glyph-name="rcommaaccent" unicode="&#x157;" horiz-adv-x="371" 
d="M351 497l-16 -75q-30 14 -61 14q-53 0 -85.5 -37.5t-32.5 -104.5v-294h-76v504h76v-68q19 38 52 56.5t72 18.5q40 0 71 -14zM101 -40l89 -33l-119 -266l-61 24z" />
    <glyph glyph-name="Rcaron" unicode="&#x158;" horiz-adv-x="615" 
d="M288 325h-120v-325h-78v700h220q101 0 156.5 -50.5t55.5 -130.5q0 -61 -39 -112t-110 -70l207 -337h-95zM308 395q41 0 71.5 17t46.5 45t16 58q0 47 -36 80t-99 33h-139v-233h140zM283 755l-173 128l46 55l128 -96l126 96l45 -55z" />
    <glyph glyph-name="rcaron" unicode="&#x159;" horiz-adv-x="445" 
d="M352 497l-16 -75q-30 14 -61 14q-53 0 -85.5 -37.5t-32.5 -104.5v-294h-76v504h76v-68q19 38 52 56.5t72 18.5q40 0 71 -14zM253 588l-173 128l46 55l128 -97l126 97l45 -55z" />
    <glyph glyph-name="Sacute" unicode="&#x15a;" horiz-adv-x="576" 
d="M493.5 76.5q-32.5 -45.5 -86.5 -69t-117 -23.5q-68 0 -132.5 27t-107.5 75l56 61q32 -44 82.5 -67.5t103.5 -23.5q64 0 108.5 34t44.5 88q0 48 -35.5 75t-106.5 53q-76 28 -118 49t-74 62t-32 106q0 64 31.5 107.5t82 64.5t108.5 21q53 0 104 -18.5t88 -53.5l-46 -59
q-27 30 -65.5 45.5t-82.5 15.5q-59 0 -100.5 -28.5t-41.5 -87.5q0 -44 24.5 -73t59 -45.5t94.5 -38.5q62 -22 100.5 -42.5t64.5 -56t26 -90.5q0 -62 -32.5 -107.5zM462 903l23 -76l-219 -67l-23 75z" />
    <glyph glyph-name="sacute" unicode="&#x15b;" horiz-adv-x="484" 
d="M421.5 59.5q-27.5 -34.5 -73 -52.5t-99.5 -18q-59 0 -116 22t-98 63l53 59q29 -35 76 -54t95 -19q50 0 81 19.5t31 52.5q0 24 -16.5 38.5t-41 22.5t-70.5 19q-55 13 -92.5 28.5t-63 46t-25.5 79.5q0 51 27 85t70 50t91 16q47 0 91.5 -14.5t81.5 -41.5l-39 -57
q-28 23 -66 34.5t-72 11.5q-48 0 -78.5 -21t-30.5 -59t30 -56t90 -32q68 -15 102 -26t62 -38.5t28 -75.5t-27.5 -82.5zM412 743l23 -76l-219 -67l-23 75z" />
    <glyph glyph-name="Scircumflex" unicode="&#x15c;" horiz-adv-x="576" 
d="M493.5 76.5q-32.5 -45.5 -86.5 -69t-117 -23.5q-68 0 -132.5 27t-107.5 75l56 61q32 -44 82.5 -67.5t103.5 -23.5q64 0 108.5 34t44.5 88q0 48 -35.5 75t-106.5 53q-76 28 -118 49t-74 62t-32 106q0 64 31.5 107.5t82 64.5t108.5 21q53 0 104 -18.5t88 -53.5l-46 -59
q-27 30 -65.5 45.5t-82.5 15.5q-59 0 -100.5 -28.5t-41.5 -87.5q0 -44 24.5 -73t59 -45.5t94.5 -38.5q62 -22 100.5 -42.5t64.5 -56t26 -90.5q0 -62 -32.5 -107.5zM431 755l-126 97l-128 -97l-46 55l173 128l172 -128z" />
    <glyph glyph-name="scircumflex" unicode="&#x15d;" horiz-adv-x="484" 
d="M421.5 59.5q-27.5 -34.5 -73 -52.5t-99.5 -18q-59 0 -116 22t-98 63l53 59q29 -35 76 -54t95 -19q50 0 81 19.5t31 52.5q0 24 -16.5 38.5t-41 22.5t-70.5 19q-55 13 -92.5 28.5t-63 46t-25.5 79.5q0 51 27 85t70 50t91 16q47 0 91.5 -14.5t81.5 -41.5l-39 -57
q-28 23 -66 34.5t-72 11.5q-48 0 -78.5 -21t-30.5 -59t30 -56t90 -32q68 -15 102 -26t62 -38.5t28 -75.5t-27.5 -82.5zM377 589l-126 97l-128 -97l-46 55l173 128l172 -128z" />
    <glyph glyph-name="Scedilla" unicode="&#x15e;" horiz-adv-x="576" 
d="M497.5 82.5q-28.5 -43.5 -76 -68t-105.5 -29.5l-13 -36q111 -22 111 -97q0 -53 -35 -80t-88 -27q-72 0 -121 45l36 48q39 -36 79 -36q28 0 48 12.5t20 37.5q0 27 -26 42t-87 26l20 65q-61 5 -116.5 31.5t-93.5 69.5l56 61q32 -44 82.5 -67.5t103.5 -23.5q64 0 108.5 34
t44.5 88q0 48 -35.5 75t-106.5 53q-76 28 -118 49t-74 62t-32 106q0 64 31.5 107.5t82 64.5t108.5 21q53 0 104 -18.5t88 -53.5l-46 -59q-27 30 -65.5 45.5t-82.5 15.5q-59 0 -100.5 -28.5t-41.5 -87.5q0 -44 24.5 -73t59 -45.5t94.5 -38.5q62 -22 100.5 -42.5t64.5 -56
t26 -90.5q0 -58 -28.5 -101.5z" />
    <glyph glyph-name="scedilla" unicode="&#x15f;" horiz-adv-x="484" 
d="M393.5 32q-55.5 -41 -135.5 -43l-15 -40q111 -22 111 -97q0 -53 -35 -80t-88 -27q-72 0 -121 45l36 48q39 -36 79 -36q28 0 48 12.5t20 37.5q0 27 -26 42t-87 26l23 72q-48 8 -91.5 28.5t-76.5 53.5l53 59q29 -35 76 -54t95 -19q50 0 81 19.5t31 52.5q0 24 -16.5 38.5
t-41 22.5t-70.5 19q-55 13 -92.5 28.5t-63 46t-25.5 79.5q0 51 27 85t70 50t91 16q47 0 91.5 -14.5t81.5 -41.5l-39 -57q-28 23 -66 34.5t-72 11.5q-48 0 -78.5 -21t-30.5 -59t30 -56t90 -32q68 -15 102 -26t62 -38.5t28 -75.5q0 -69 -55.5 -110z" />
    <glyph glyph-name="Scaron" unicode="&#x160;" horiz-adv-x="576" 
d="M493.5 76.5q-32.5 -45.5 -86.5 -69t-117 -23.5q-68 0 -132.5 27t-107.5 75l56 61q32 -44 82.5 -67.5t103.5 -23.5q64 0 108.5 34t44.5 88q0 48 -35.5 75t-106.5 53q-76 28 -118 49t-74 62t-32 106q0 64 31.5 107.5t82 64.5t108.5 21q53 0 104 -18.5t88 -53.5l-46 -59
q-27 30 -65.5 45.5t-82.5 15.5q-59 0 -100.5 -28.5t-41.5 -87.5q0 -44 24.5 -73t59 -45.5t94.5 -38.5q62 -22 100.5 -42.5t64.5 -56t26 -90.5q0 -62 -32.5 -107.5zM295 755l-173 128l46 55l128 -96l126 96l45 -55z" />
    <glyph glyph-name="scaron" unicode="&#x161;" horiz-adv-x="484" 
d="M421.5 59.5q-27.5 -34.5 -73 -52.5t-99.5 -18q-59 0 -116 22t-98 63l53 59q29 -35 76 -54t95 -19q50 0 81 19.5t31 52.5q0 24 -16.5 38.5t-41 22.5t-70.5 19q-55 13 -92.5 28.5t-63 46t-25.5 79.5q0 51 27 85t70 50t91 16q47 0 91.5 -14.5t81.5 -41.5l-39 -57
q-28 23 -66 34.5t-72 11.5q-48 0 -78.5 -21t-30.5 -59t30 -56t90 -32q68 -15 102 -26t62 -38.5t28 -75.5t-27.5 -82.5zM246 588l-173 128l46 55l128 -97l126 97l45 -55z" />
    <glyph glyph-name="uni0162" unicode="&#x162;" horiz-adv-x="634" 
d="M333 0l-19 -51q111 -22 111 -97q0 -53 -35 -80t-88 -27q-72 0 -121 45l36 48q39 -36 79 -36q28 0 48 12.5t20 37.5q0 27 -26 42t-87 26l27 87v621h-248v72h574v-72h-247v-628h-24z" />
    <glyph glyph-name="uni0163" unicode="&#x163;" horiz-adv-x="410" 
d="M355 -148q0 -53 -35 -80t-88 -27q-72 0 -121 45l36 48q39 -36 79 -36q28 0 48 12.5t20 37.5q0 27 -26 42t-87 26l25 81q-37 16 -58.5 51.5t-21.5 90.5v291h-106v70h106v129h75v-129h136v-70h-136v-292q0 -43 20 -65t53 -22q17 0 37 7.5t34 20.5l35 -50q-47 -44 -112 -44
h-9l-15 -40q111 -22 111 -97z" />
    <glyph glyph-name="Tcaron" unicode="&#x164;" horiz-adv-x="634" 
d="M357 0h-79v628h-248v72h574v-72h-247v-628zM318 755l-173 128l46 55l128 -96l126 96l45 -55z" />
    <glyph glyph-name="tcaron" unicode="&#x165;" horiz-adv-x="616" 
d="M268 -11q-60 0 -101 38.5t-41 115.5v291h-106v70h106v129h75v-129h136v-70h-136v-292q0 -43 20 -65t53 -22q17 0 37 7.5t34 20.5l35 -50q-47 -44 -112 -44zM497 716l89 -33l-119 -266l-61 24z" />
    <glyph glyph-name="Tbar" unicode="&#x166;" horiz-adv-x="634" 
d="M357 628v-179h177v-50h-177v-399h-79v399h-177v50h177v179h-248v72h574v-72h-247z" />
    <glyph glyph-name="tbar" unicode="&#x167;" horiz-adv-x="410" 
d="M380 33q-47 -44 -112 -44q-60 0 -101 38.5t-41 115.5v114h-106v70h106v107h-106v70h106v129h75v-129h136v-70h-136v-107h126v-70h-126v-115q0 -43 20 -65t53 -22q17 0 37 7.5t34 20.5z" />
    <glyph glyph-name="Utilde" unicode="&#x168;" horiz-adv-x="684" 
d="M604 244q0 -84 -36.5 -143t-96 -88t-129.5 -29t-129.5 29t-96 88t-36.5 143v456h79v-448q0 -64 25 -107.5t67 -64.5t91 -21t91 21t67 64.5t25 107.5v448h79v-456zM375.5 789.5q-15.5 8.5 -38.5 24.5q-17 13 -28.5 19.5t-22.5 6.5q-18 0 -32.5 -14t-36.5 -43l-48 41
q19 31 53.5 60t68.5 29q19 0 36.5 -9.5t38.5 -26.5q3 -2 13 -9.5t18.5 -11t14.5 -3.5q13 0 25 13t21.5 28t12.5 19l46 -36q-32 -49 -54.5 -72.5t-53.5 -23.5q-18 0 -33.5 8.5z" />
    <glyph glyph-name="utilde" unicode="&#x169;" 
d="M494 0h-76v90q-26 -50 -70.5 -75.5t-96.5 -25.5q-47 0 -88.5 21.5t-67 64t-25.5 103.5v326h76v-308q0 -67 33.5 -101t83.5 -34q39 0 74.5 21.5t58 64t22.5 101.5v256h76v-504zM315.5 629.5q-15.5 8.5 -38.5 24.5q-17 13 -28.5 19.5t-22.5 6.5q-18 0 -32.5 -14t-36.5 -43
l-48 41q19 31 53.5 60t68.5 29q19 0 36.5 -9.5t38.5 -26.5q3 -2 13 -9.5t18.5 -11t14.5 -3.5q13 0 25 13t21.5 28t12.5 19l46 -36q-32 -49 -54.5 -72.5t-53.5 -23.5q-18 0 -33.5 8.5z" />
    <glyph glyph-name="Umacron" unicode="&#x16a;" horiz-adv-x="684" 
d="M604 244q0 -84 -36.5 -143t-96 -88t-129.5 -29t-129.5 29t-96 88t-36.5 143v456h79v-448q0 -64 25 -107.5t67 -64.5t91 -21t91 21t67 64.5t25 107.5v448h79v-456zM491 836v-76h-297v76h297z" />
    <glyph glyph-name="umacron" unicode="&#x16b;" 
d="M494 0h-76v90q-26 -50 -70.5 -75.5t-96.5 -25.5q-47 0 -88.5 21.5t-67 64t-25.5 103.5v326h76v-308q0 -67 33.5 -101t83.5 -34q39 0 74.5 21.5t58 64t22.5 101.5v256h76v-504zM432 676v-76h-297v76h297z" />
    <glyph glyph-name="Ubreve" unicode="&#x16c;" horiz-adv-x="684" 
d="M604 244q0 -84 -36.5 -143t-96 -88t-129.5 -29t-129.5 29t-96 88t-36.5 143v456h79v-448q0 -64 25 -107.5t67 -64.5t91 -21t91 21t67 64.5t25 107.5v448h79v-456zM475 896q0 -57 -33.5 -96.5t-99.5 -39.5t-99.5 39.5t-33.5 96.5h71q1 -31 16 -48.5t46 -17.5t46 17.5
t16 48.5h71z" />
    <glyph glyph-name="ubreve" unicode="&#x16d;" 
d="M494 0h-76v90q-26 -50 -70.5 -75.5t-96.5 -25.5q-47 0 -88.5 21.5t-67 64t-25.5 103.5v326h76v-308q0 -67 33.5 -101t83.5 -34q39 0 74.5 21.5t58 64t22.5 101.5v256h76v-504zM415 736q0 -57 -33.5 -96.5t-99.5 -39.5t-99.5 39.5t-33.5 96.5h71q1 -31 16 -48.5t46 -17.5
t46 17.5t16 48.5h71z" />
    <glyph glyph-name="Uring" unicode="&#x16e;" horiz-adv-x="684" 
d="M604 244q0 -84 -36.5 -143t-96 -88t-129.5 -29t-129.5 29t-96 88t-36.5 143v456h79v-448q0 -64 25 -107.5t67 -64.5t91 -21t91 21t67 64.5t25 107.5v448h79v-456zM263 918q31 32 78 32q46 0 79 -32.5t33 -77.5q0 -47 -32.5 -78.5t-79.5 -31.5t-78 31.5t-31 78.5
q0 46 31 78zM302 798q15 -16 39 -16t39.5 16t15.5 41q0 24 -15.5 40.5t-39.5 16.5t-39 -16.5t-15 -40.5q0 -25 15 -41z" />
    <glyph glyph-name="uring" unicode="&#x16f;" 
d="M494 0h-76v90q-26 -50 -70.5 -75.5t-96.5 -25.5q-47 0 -88.5 21.5t-67 64t-25.5 103.5v326h76v-308q0 -67 33.5 -101t83.5 -34q39 0 74.5 21.5t58 64t22.5 101.5v256h76v-504zM202.5 812.5q35.5 36.5 88.5 36.5q34 0 63.5 -17t46.5 -45.5t17 -62.5q0 -53 -37 -88.5
t-90 -35.5t-88.5 35.5t-35.5 88.5q0 52 35.5 88.5zM245 675.5q18 -19.5 46 -19.5t46.5 19.5t18.5 48.5q0 28 -18.5 47.5t-46.5 19.5t-46 -19.5t-18 -47.5q0 -29 18 -48.5z" />
    <glyph glyph-name="Uhungarumlaut" unicode="&#x170;" horiz-adv-x="684" 
d="M604 244q0 -84 -36.5 -143t-96 -88t-129.5 -29t-129.5 29t-96 88t-36.5 143v456h79v-448q0 -64 25 -107.5t67 -64.5t91 -21t91 21t67 64.5t25 107.5v448h79v-456zM314 769h-83l55 131h108zM456 769h-85l78 131h108z" />
    <glyph glyph-name="uhungarumlaut" unicode="&#x171;" 
d="M494 0h-76v90q-26 -50 -70.5 -75.5t-96.5 -25.5q-47 0 -88.5 21.5t-67 64t-25.5 103.5v326h76v-308q0 -67 33.5 -101t83.5 -34q39 0 74.5 21.5t58 64t22.5 101.5v256h76v-504zM248 600h-83l55 131h108zM390 600h-85l78 131h108z" />
    <glyph glyph-name="Uogonek" unicode="&#x172;" horiz-adv-x="684" 
d="M604 700v-456q0 -78 -31 -134t-83 -87t-115 -37q-16 -14 -25 -30.5t-9 -32.5q0 -24 20 -39t62 -15v-66q-76 5 -112.5 31.5t-36.5 64.5q0 22 11.5 44.5t32.5 41.5q-65 5 -119 35.5t-86.5 87t-32.5 136.5v456h79v-448q0 -64 25 -107.5t67 -64.5t91 -21t91 21t67 64.5
t25 107.5v448h79z" />
    <glyph glyph-name="uogonek" unicode="&#x173;" 
d="M426.5 -35q-14.5 -21 -14.5 -42q0 -24 20 -39t62 -15v-66q-76 5 -112.5 31.5t-36.5 64.5q0 29 20 58t53 50v83q-26 -50 -70.5 -75.5t-96.5 -25.5q-47 0 -88.5 21.5t-67 64t-25.5 103.5v326h76v-308q0 -67 33.5 -101t83.5 -34q39 0 74.5 21.5t58 64t22.5 101.5v256h76
v-504h-29q-24 -14 -38.5 -35z" />
    <glyph glyph-name="Wcircumflex" unicode="&#x174;" horiz-adv-x="1014" 
d="M760 0h-82l-171 553l-171 -553h-82l-234 700h86l189 -582l174 582h76l174 -582l189 582h86zM635 755l-126 97l-128 -97l-46 55l173 128l172 -128z" />
    <glyph glyph-name="wcircumflex" unicode="&#x175;" horiz-adv-x="878" 
d="M663 0h-81l-142 405l-144 -405h-81l-185 504h86l139 -400l141 400h86l141 -400l139 400h86zM562 589l-126 97l-128 -97l-46 55l173 128l172 -128z" />
    <glyph glyph-name="Ycircumflex" unicode="&#x176;" horiz-adv-x="645" 
d="M362 0h-79v298l-263 402h93l209 -331l210 331h93l-263 -402v-298zM450 755l-126 97l-128 -97l-46 55l173 128l172 -128z" />
    <glyph glyph-name="ycircumflex" unicode="&#x177;" horiz-adv-x="600" 
d="M520 13q0 -80 -30 -135.5t-82 -83.5t-119 -28q-83 0 -148 42t-91 125l73 28q20 -63 65 -94t103 -31q71 0 113.5 45t41.5 128l-1 93q-26 -46 -70.5 -71.5t-97.5 -25.5q-50 0 -94.5 22.5t-72 65.5t-27.5 103v308h76v-292q0 -67 33.5 -101t88.5 -34q45 0 82.5 22t59.5 65
t22 102v238h75v-491zM431 589l-126 97l-128 -97l-46 55l173 128l172 -128z" />
    <glyph glyph-name="Ydieresis" unicode="&#x178;" horiz-adv-x="645" 
d="M362 0h-79v298l-263 402h93l209 -331l210 331h93l-263 -402v-298zM248.5 778q-16.5 -17 -39.5 -17q-25 0 -42.5 17t-17.5 42q0 24 17.5 40.5t42.5 16.5q23 0 39.5 -16.5t16.5 -40.5q0 -25 -16.5 -42zM479.5 778q-17.5 -17 -41.5 -17t-40.5 17t-16.5 42q0 24 16.5 40.5
t40.5 16.5t41.5 -16.5t17.5 -40.5q0 -25 -17.5 -42z" />
    <glyph glyph-name="Zacute" unicode="&#x179;" horiz-adv-x="602" 
d="M50 66l393 562h-374v72h469v-65l-392 -563h406v-72h-502v66zM466 903l23 -76l-219 -67l-23 75z" />
    <glyph glyph-name="zacute" unicode="&#x17a;" horiz-adv-x="524" 
d="M479 0h-434v72l318 361h-306v71h406v-71l-318 -361h334v-72zM406 743l23 -76l-219 -67l-23 75z" />
    <glyph glyph-name="Zdotaccent" unicode="&#x17b;" horiz-adv-x="602" 
d="M50 66l393 562h-374v72h469v-65l-392 -563h406v-72h-502v66zM269.5 868.5q17.5 16.5 41.5 16.5t41 -16.5t17 -40.5t-17 -41.5t-41 -17.5t-41.5 17t-17.5 42q0 24 17.5 40.5z" />
    <glyph glyph-name="zdotaccent" unicode="&#x17c;" horiz-adv-x="524" 
d="M479 0h-434v72l318 361h-306v71h406v-71l-318 -361h334v-72zM231.5 699.5q17.5 16.5 41.5 16.5t41 -16.5t17 -40.5t-17 -41.5t-41 -17.5t-41.5 17t-17.5 42q0 24 17.5 40.5z" />
    <glyph glyph-name="Zcaron" unicode="&#x17d;" horiz-adv-x="602" 
d="M50 66l393 562h-374v72h469v-65l-392 -563h406v-72h-502v66zM314 755l-173 128l46 55l128 -96l126 96l45 -55z" />
    <glyph glyph-name="zcaron" unicode="&#x17e;" horiz-adv-x="524" 
d="M479 0h-434v72l318 361h-306v71h406v-71l-318 -361h334v-72zM272 588l-173 128l46 55l128 -97l126 97l45 -55z" />
    <glyph glyph-name="longs" unicode="&#x17f;" horiz-adv-x="352" 
d="M149 679.5q42 38.5 101 38.5q31 0 61.5 -11t52.5 -31l-41 -55q-14 15 -32 22.5t-36 7.5q-31 0 -51.5 -21t-20.5 -63v-567h-76v434h-87v70h87v65q0 72 42 110.5z" />
    <glyph glyph-name="florin" unicode="&#x192;" horiz-adv-x="340" 
d="M301 504v-70h-130v-515q0 -49 -19.5 -83.5t-51 -52t-67.5 -17.5q-28 0 -55 11.5t-48 32.5l37 54q13 -14 30.5 -22t34.5 -8q28 0 46 20t18 60v520h-88v70h88v65q0 72 41.5 110.5t100.5 38.5q32 0 62 -11t52 -31l-41 -55q-28 30 -68 30q-31 0 -51.5 -21t-20.5 -63v-63h130z
" />
    <glyph glyph-name="Ohorn" unicode="&#x1a0;" horiz-adv-x="843" 
d="M746.5 515q36.5 -76 36.5 -165q0 -102 -47.5 -186t-130 -132t-183.5 -48t-184 48t-130.5 132t-47.5 186q0 103 47.5 186.5t130 131.5t184.5 48q78 0 145 -29q53 1 85 34t38 82l71 -14q-7 -50 -36.5 -91t-78.5 -57q64 -50 100.5 -126zM564 97q65 38 102.5 104.5
t37.5 148.5t-38 149t-102.5 105t-141.5 38q-78 0 -142.5 -38t-102 -105t-37.5 -149t37.5 -148.5t102 -104.5t142.5 -38q77 0 142 38z" />
    <glyph glyph-name="ohorn" unicode="&#x1a1;" horiz-adv-x="615" 
d="M579 488.5q-29 -40.5 -77 -57.5q30 -35 46.5 -80.5t16.5 -97.5q0 -75 -33 -135t-92 -94.5t-132 -34.5t-132 34.5t-92.5 94.5t-33.5 135t33.5 135t92.5 94.5t132 34.5q77 0 137 -37q43 8 68 39t31 74l71 -14q-7 -50 -36 -90.5zM401.5 85q41.5 25 65 69.5t23.5 99.5
t-23.5 99.5t-65 69.5t-93.5 25q-53 0 -94.5 -25t-64.5 -69.5t-23 -99.5t23 -99.5t64.5 -69.5t94.5 -25q52 0 93.5 25z" />
    <glyph glyph-name="Uhorn" unicode="&#x1af;" horiz-adv-x="754" 
d="M686 709.5q-31 -41.5 -82 -57.5v-408q0 -84 -36.5 -143t-96 -88t-129.5 -29t-129.5 29t-96 88t-36.5 143v456h79v-448q0 -64 25 -107.5t67 -64.5t91 -21t91 21t67 64.5t25 107.5v448q55 0 88.5 33t39.5 83l71 -14q-7 -51 -38 -92.5z" />
    <glyph glyph-name="uhorn" unicode="&#x1b0;" horiz-adv-x="647" 
d="M578 512q-32 -42 -84 -56v-456h-76v90q-26 -50 -70.5 -75.5t-96.5 -25.5q-47 0 -88.5 21.5t-67 64t-25.5 103.5v326h76v-308q0 -67 33.5 -101t83.5 -34q39 0 74.5 21.5t58 64t22.5 101.5v256q55 0 88.5 33t39.5 83l71 -14q-7 -52 -39 -94z" />
    <glyph glyph-name="uni01CD" unicode="&#x1cd;" horiz-adv-x="680" 
d="M341 755l-173 128l46 55l128 -96l126 96l45 -55zM186 193l-71 -193h-85l273 700h75l272 -700h-85l-71 193h-308zM340 605l-127 -340h253z" />
    <glyph glyph-name="uni01CE" unicode="&#x1ce;" horiz-adv-x="681" 
d="M592 -9q-44 0 -74 27t-37 76q-24 -45 -73.5 -74.5t-110.5 -29.5t-118 31t-93 91t-36 143t36 142.5t92.5 89.5t117.5 30q52 0 102 -23t80 -68v78h75v-384q0 -28 14 -44t34 -16q16 0 34 9l26 -52q-29 -26 -69 -26zM385.5 84q40.5 22 66.5 65t26 102q0 62 -27 106t-69 66
t-86 22t-83 -22t-63 -65t-24 -103q0 -62 26 -105.5t66.5 -65.5t83.5 -22t83.5 22zM303 588l-173 128l46 55l128 -97l126 97l45 -55z" />
    <glyph glyph-name="uni01CF" unicode="&#x1cf;" horiz-adv-x="258" 
d="M90 700h78v-700h-78v700zM130 755l-173 128l46 55l128 -96l126 96l45 -55z" />
    <glyph glyph-name="uni01D0" unicode="&#x1d0;" horiz-adv-x="257" 
d="M91 504h75v-504h-75v504zM129 588l-173 128l46 55l128 -97l126 97l45 -55z" />
    <glyph glyph-name="uni01D1" unicode="&#x1d1;" horiz-adv-x="843" 
d="M605.5 668q82.5 -48 130 -131.5t47.5 -186.5q0 -102 -47.5 -186t-130 -132t-183.5 -48t-184 48t-130.5 132t-47.5 186q0 103 47.5 186.5t130 131.5t184.5 48q101 0 183.5 -48zM279.5 604q-64.5 -38 -102 -105t-37.5 -149t37.5 -148.5t102 -104.5t142.5 -38q77 0 142 38
t102.5 104.5t37.5 148.5t-38 149t-102.5 105t-141.5 38q-78 0 -142.5 -38zM422 755l-173 128l46 55l128 -96l126 96l45 -55z" />
    <glyph glyph-name="uni01D2" unicode="&#x1d2;" horiz-adv-x="615" 
d="M440 482.5q59 -34.5 92 -94.5t33 -135t-33 -135t-92 -94.5t-132 -34.5t-132 34.5t-92.5 94.5t-33.5 135t33.5 135t92.5 94.5t132 34.5t132 -34.5zM213.5 423q-41.5 -25 -64.5 -69.5t-23 -99.5t23 -99.5t64.5 -69.5t94.5 -25q52 0 93.5 25t65 69.5t23.5 99.5t-23.5 99.5
t-65 69.5t-93.5 25q-53 0 -94.5 -25zM308 588l-173 128l46 55l128 -97l126 97l45 -55z" />
    <glyph glyph-name="uni01D3" unicode="&#x1d3;" horiz-adv-x="684" 
d="M604 244q0 -84 -36.5 -143t-96 -88t-129.5 -29t-129.5 29t-96 88t-36.5 143v456h79v-448q0 -64 25 -107.5t67 -64.5t91 -21t91 21t67 64.5t25 107.5v448h79v-456zM343 755l-173 128l46 55l128 -96l126 96l45 -55z" />
    <glyph glyph-name="uni01D4" unicode="&#x1d4;" 
d="M494 0h-76v90q-26 -50 -70.5 -75.5t-96.5 -25.5q-47 0 -88.5 21.5t-67 64t-25.5 103.5v326h76v-308q0 -67 33.5 -101t83.5 -34q39 0 74.5 21.5t58 64t22.5 101.5v256h76v-504zM283 588l-173 128l46 55l128 -97l126 97l45 -55z" />
    <glyph glyph-name="uni01D5" unicode="&#x1d5;" horiz-adv-x="684" 
d="M491 996v-76h-297v76h297zM604 244q0 -84 -36.5 -143t-96 -88t-129.5 -29t-129.5 29t-96 88t-36.5 143v456h79v-448q0 -64 25 -107.5t67 -64.5t91 -21t91 21t67 64.5t25 107.5v448h79v-456zM267.5 768q-16.5 -17 -39.5 -17q-25 0 -42.5 17t-17.5 42q0 24 17.5 40.5
t42.5 16.5q23 0 39.5 -16.5t16.5 -40.5q0 -25 -16.5 -42zM498.5 768q-17.5 -17 -41.5 -17t-40.5 17t-16.5 42q0 24 16.5 40.5t40.5 16.5t41.5 -16.5t17.5 -40.5q0 -25 -17.5 -42z" />
    <glyph glyph-name="uni01D6" unicode="&#x1d6;" 
d="M494 0h-76v90q-26 -50 -70.5 -75.5t-96.5 -25.5q-47 0 -88.5 21.5t-67 64t-25.5 103.5v326h76v-308q0 -67 33.5 -101t83.5 -34q39 0 74.5 21.5t58 64t22.5 101.5v256h76v-504zM208.5 598q-16.5 -17 -39.5 -17q-25 0 -42.5 17t-17.5 42q0 24 17.5 40.5t42.5 16.5
q23 0 39.5 -16.5t16.5 -40.5q0 -25 -16.5 -42zM439.5 598q-17.5 -17 -41.5 -17t-40.5 17t-16.5 42q0 24 16.5 40.5t40.5 16.5t41.5 -16.5t17.5 -40.5q0 -25 -17.5 -42zM432 826v-76h-297v76h297z" />
    <glyph glyph-name="uni01D7" unicode="&#x1d7;" horiz-adv-x="684" 
d="M300 953l156 64l29 -70l-156 -63zM267.5 768q-16.5 -17 -39.5 -17q-25 0 -42.5 17t-17.5 42q0 24 17.5 40.5t42.5 16.5q23 0 39.5 -16.5t16.5 -40.5q0 -25 -16.5 -42zM498.5 768q-17.5 -17 -41.5 -17t-40.5 17t-16.5 42q0 24 16.5 40.5t40.5 16.5t41.5 -16.5t17.5 -40.5
q0 -25 -17.5 -42zM604 244q0 -84 -36.5 -143t-96 -88t-129.5 -29t-129.5 29t-96 88t-36.5 143v456h79v-448q0 -64 25 -107.5t67 -64.5t91 -21t91 21t67 64.5t25 107.5v448h79v-456z" />
    <glyph glyph-name="uni01D8" unicode="&#x1d8;" 
d="M241 783l156 64l29 -70l-156 -63zM208.5 598q-16.5 -17 -39.5 -17q-25 0 -42.5 17t-17.5 42q0 24 17.5 40.5t42.5 16.5q23 0 39.5 -16.5t16.5 -40.5q0 -25 -16.5 -42zM439.5 598q-17.5 -17 -41.5 -17t-40.5 17t-16.5 42q0 24 16.5 40.5t40.5 16.5t41.5 -16.5t17.5 -40.5
q0 -25 -17.5 -42zM494 0h-76v90q-26 -50 -70.5 -75.5t-96.5 -25.5q-47 0 -88.5 21.5t-67 64t-25.5 103.5v326h76v-308q0 -67 33.5 -101t83.5 -34q39 0 74.5 21.5t58 64t22.5 101.5v256h76v-504z" />
    <glyph glyph-name="uni01D9" unicode="&#x1d9;" horiz-adv-x="684" 
d="M462 963l-120 -88l-120 88l42 54l78 -57l78 57zM604 244q0 -84 -36.5 -143t-96 -88t-129.5 -29t-129.5 29t-96 88t-36.5 143v456h79v-448q0 -64 25 -107.5t67 -64.5t91 -21t91 21t67 64.5t25 107.5v448h79v-456zM267.5 768q-16.5 -17 -39.5 -17q-25 0 -42.5 17t-17.5 42
q0 24 17.5 40.5t42.5 16.5q23 0 39.5 -16.5t16.5 -40.5q0 -25 -16.5 -42zM498.5 768q-17.5 -17 -41.5 -17t-40.5 17t-16.5 42q0 24 16.5 40.5t40.5 16.5t41.5 -16.5t17.5 -40.5q0 -25 -17.5 -42z" />
    <glyph glyph-name="uni01DA" unicode="&#x1da;" 
d="M494 0h-76v90q-26 -50 -70.5 -75.5t-96.5 -25.5q-47 0 -88.5 21.5t-67 64t-25.5 103.5v326h76v-308q0 -67 33.5 -101t83.5 -34q39 0 74.5 21.5t58 64t22.5 101.5v256h76v-504zM208.5 598q-16.5 -17 -39.5 -17q-25 0 -42.5 17t-17.5 42q0 24 17.5 40.5t42.5 16.5
q23 0 39.5 -16.5t16.5 -40.5q0 -25 -16.5 -42zM439.5 598q-17.5 -17 -41.5 -17t-40.5 17t-16.5 42q0 24 16.5 40.5t40.5 16.5t41.5 -16.5t17.5 -40.5q0 -25 -17.5 -42zM403 793l-120 -88l-120 88l42 54l78 -57l78 57z" />
    <glyph glyph-name="uni01DB" unicode="&#x1db;" horiz-adv-x="684" 
d="M206 947l28 70l157 -65l-30 -69zM267.5 768q-16.5 -17 -39.5 -17q-25 0 -42.5 17t-17.5 42q0 24 17.5 40.5t42.5 16.5q23 0 39.5 -16.5t16.5 -40.5q0 -25 -16.5 -42zM498.5 768q-17.5 -17 -41.5 -17t-40.5 17t-16.5 42q0 24 16.5 40.5t40.5 16.5t41.5 -16.5t17.5 -40.5
q0 -25 -17.5 -42zM604 244q0 -84 -36.5 -143t-96 -88t-129.5 -29t-129.5 29t-96 88t-36.5 143v456h79v-448q0 -64 25 -107.5t67 -64.5t91 -21t91 21t67 64.5t25 107.5v448h79v-456z" />
    <glyph glyph-name="uni01DC" unicode="&#x1dc;" 
d="M147 777l28 70l157 -65l-30 -69zM208.5 598q-16.5 -17 -39.5 -17q-25 0 -42.5 17t-17.5 42q0 24 17.5 40.5t42.5 16.5q23 0 39.5 -16.5t16.5 -40.5q0 -25 -16.5 -42zM439.5 598q-17.5 -17 -41.5 -17t-40.5 17t-16.5 42q0 24 16.5 40.5t40.5 16.5t41.5 -16.5t17.5 -40.5
q0 -25 -17.5 -42zM494 0h-76v90q-26 -50 -70.5 -75.5t-96.5 -25.5q-47 0 -88.5 21.5t-67 64t-25.5 103.5v326h76v-308q0 -67 33.5 -101t83.5 -34q39 0 74.5 21.5t58 64t22.5 101.5v256h76v-504z" />
    <glyph glyph-name="Scommaaccent" unicode="&#x218;" horiz-adv-x="576" 
d="M493.5 76.5q-32.5 -45.5 -86.5 -69t-117 -23.5q-68 0 -132.5 27t-107.5 75l56 61q32 -44 82.5 -67.5t103.5 -23.5q64 0 108.5 34t44.5 88q0 48 -35.5 75t-106.5 53q-76 28 -118 49t-74 62t-32 106q0 64 31.5 107.5t82 64.5t108.5 21q53 0 104 -18.5t88 -53.5l-46 -59
q-27 30 -65.5 45.5t-82.5 15.5q-59 0 -100.5 -28.5t-41.5 -87.5q0 -44 24.5 -73t59 -45.5t94.5 -38.5q62 -22 100.5 -42.5t64.5 -56t26 -90.5q0 -62 -32.5 -107.5zM265 -40l89 -33l-119 -266l-61 24z" />
    <glyph glyph-name="scommaaccent" unicode="&#x219;" horiz-adv-x="484" 
d="M421.5 59.5q-27.5 -34.5 -73 -52.5t-99.5 -18q-59 0 -116 22t-98 63l53 59q29 -35 76 -54t95 -19q50 0 81 19.5t31 52.5q0 24 -16.5 38.5t-41 22.5t-70.5 19q-55 13 -92.5 28.5t-63 46t-25.5 79.5q0 51 27 85t70 50t91 16q47 0 91.5 -14.5t81.5 -41.5l-39 -57
q-28 23 -66 34.5t-72 11.5q-48 0 -78.5 -21t-30.5 -59t30 -56t90 -32q68 -15 102 -26t62 -38.5t28 -75.5t-27.5 -82.5zM231 -40l89 -33l-119 -266l-61 24z" />
    <glyph glyph-name="uni021A" unicode="&#x21a;" horiz-adv-x="634" 
d="M357 0h-79v628h-248v72h574v-72h-247v-628zM279 -40l89 -33l-119 -266l-61 24z" />
    <glyph glyph-name="uni021B" unicode="&#x21b;" horiz-adv-x="410" 
d="M268 -11q-60 0 -101 38.5t-41 115.5v291h-106v70h106v129h75v-129h136v-70h-136v-292q0 -43 20 -65t53 -22q17 0 37 7.5t34 20.5l35 -50q-47 -44 -112 -44zM215 -40l89 -33l-119 -266l-61 24z" />
    <glyph glyph-name="uni0233" unicode="&#x233;" horiz-adv-x="600" 
d="M520 13q0 -80 -30 -135.5t-82 -83.5t-119 -28q-83 0 -148 42t-91 125l73 28q20 -63 65 -94t103 -31q71 0 113.5 45t41.5 128l-1 93q-26 -46 -70.5 -71.5t-97.5 -25.5q-50 0 -94.5 22.5t-72 65.5t-27.5 103v308h76v-292q0 -67 33.5 -101t88.5 -34q45 0 82.5 22t59.5 65
t22 102v238h75v-491zM434 676v-76h-297v76h297z" />
    <glyph glyph-name="uni0268" unicode="&#x268;" horiz-adv-x="257" 
d="M88 617q-17 17 -17 41q0 23 17 40t41 17t40.5 -17t16.5 -40q0 -24 -16.5 -41t-40.5 -17t-41 17zM277 262h-110v-262h-75v262h-112v72h112v170h75v-170h110v-72z" />
    <glyph glyph-name="circumflex" unicode="&#x2c6;" horiz-adv-x="345" 
d="M300 589l-126 97l-128 -97l-46 55l173 128l172 -128z" />
    <glyph glyph-name="caron" unicode="&#x2c7;" horiz-adv-x="345" 
d="M173 588l-173 128l46 55l128 -97l126 97l45 -55z" />
    <glyph glyph-name="breve" unicode="&#x2d8;" horiz-adv-x="266" 
d="M266 736q0 -57 -33.5 -96.5t-99.5 -39.5t-99.5 39.5t-33.5 96.5h71q1 -31 16 -48.5t46 -17.5t46 17.5t16 48.5h71z" />
    <glyph glyph-name="dotaccent" unicode="&#x2d9;" horiz-adv-x="117" 
d="M17.5 699.5q17.5 16.5 41.5 16.5t41 -16.5t17 -40.5t-17 -41.5t-41 -17.5t-41.5 17t-17.5 42q0 24 17.5 40.5z" />
    <glyph glyph-name="ring" unicode="&#x2da;" horiz-adv-x="251" 
d="M35.5 812.5q35.5 36.5 88.5 36.5q34 0 63.5 -17t46.5 -45.5t17 -62.5q0 -53 -37 -88.5t-90 -35.5t-88.5 35.5t-35.5 88.5q0 52 35.5 88.5zM78 675.5q18 -19.5 46 -19.5t46.5 19.5t18.5 48.5q0 28 -18.5 47.5t-46.5 19.5t-46 -19.5t-18 -47.5q0 -29 18 -48.5z" />
    <glyph glyph-name="ogonek" unicode="&#x2db;" horiz-adv-x="149" 
d="M36.5 -165.5q-36.5 26.5 -36.5 64.5q0 29 20 58t53 50h60q-30 -14 -48 -37t-18 -47t20 -39t62 -15v-66q-76 5 -112.5 31.5z" />
    <glyph glyph-name="tilde" unicode="&#x2dc;" horiz-adv-x="348" 
d="M206.5 629.5q-15.5 8.5 -38.5 24.5q-17 13 -28.5 19.5t-22.5 6.5q-18 0 -32.5 -14t-36.5 -43l-48 41q19 31 53.5 60t68.5 29q19 0 36.5 -9.5t38.5 -26.5q3 -2 13 -9.5t18.5 -11t14.5 -3.5q13 0 25 13t21.5 28t12.5 19l46 -36q-32 -49 -54.5 -72.5t-53.5 -23.5
q-18 0 -33.5 8.5z" />
    <glyph glyph-name="hungarumlaut" unicode="&#x2dd;" horiz-adv-x="326" 
d="M83 600h-83l55 131h108zM225 600h-85l78 131h108z" />
    <glyph glyph-name="gravecomb" unicode="&#x300;" horiz-adv-x="0" 
d="M-242 827l22 76l220 -68l-24 -75z" />
    <glyph glyph-name="acutecomb" unicode="&#x301;" horiz-adv-x="0" 
d="M-23 903l23 -76l-219 -67l-23 75z" />
    <glyph glyph-name="uni0302" unicode="&#x302;" horiz-adv-x="0" 
d="M-50 755l-126 97l-128 -97l-46 55l173 128l172 -128z" />
    <glyph glyph-name="tildecomb" unicode="&#x303;" horiz-adv-x="0" 
d="M-141.5 769.5q-15.5 8.5 -38.5 24.5q-17 13 -28.5 19.5t-22.5 6.5q-18 0 -32.5 -14t-36.5 -43l-48 41q19 31 53.5 60t68.5 29q19 0 36.5 -9.5t38.5 -26.5q3 -2 13 -9.5t18.5 -11t14.5 -3.5q13 0 25 13t21.5 28t12.5 19l46 -36q-32 -49 -54.5 -72.5t-53.5 -23.5
q-18 0 -33.5 8.5z" />
    <glyph glyph-name="uni0304" unicode="&#x304;" horiz-adv-x="0" 
d="M130 736v-76h-260v76h260z" />
    <glyph glyph-name="uni0306" unicode="&#x306;" horiz-adv-x="0" 
d="M0 896q0 -57 -33.5 -96.5t-99.5 -39.5t-99.5 39.5t-33.5 96.5h71q1 -31 16 -48.5t46 -17.5t46 17.5t16 48.5h71z" />
    <glyph glyph-name="uni0307" unicode="&#x307;" horiz-adv-x="0" 
d="M-99.5 868.5q17.5 16.5 41.5 16.5t41 -16.5t17 -40.5t-17.5 -41.5t-40.5 -17.5q-24 0 -41.5 17t-17.5 42q0 24 17.5 40.5z" />
    <glyph glyph-name="uni0308" unicode="&#x308;" horiz-adv-x="0" 
d="M-248.5 778q-16.5 -17 -39.5 -17q-25 0 -42.5 17t-17.5 42q0 24 17.5 40.5t42.5 16.5q23 0 39.5 -16.5t16.5 -40.5q0 -25 -16.5 -42zM-17.5 778q-17.5 -17 -41.5 -17t-40.5 17t-16.5 42q0 24 16.5 40.5t40.5 16.5t41.5 -16.5t17.5 -40.5q0 -25 -17.5 -42z" />
    <glyph glyph-name="hookabovecomb" unicode="&#x309;" horiz-adv-x="0" 
d="M7 821.5q11 9.5 11 25.5q0 15 -9.5 23.5t-24.5 8.5q-20 0 -42 -12l-21 50q39 18 73 18q40 0 62.5 -24t22.5 -57q0 -35 -25 -60t-61 -37l-19 45q22 10 33 19.5z" />
    <glyph glyph-name="uni030A" unicode="&#x30a;" horiz-adv-x="0" 
d="M-190 918q31 32 78 32q46 0 79 -32.5t33 -77.5q0 -47 -32.5 -78.5t-79.5 -31.5t-78 31.5t-31 78.5q0 46 31 78zM-151 798q15 -16 39 -16t39.5 16t15.5 41q0 24 -15.5 40.5t-39.5 16.5t-39 -16.5t-15 -40.5q0 -25 15 -41z" />
    <glyph glyph-name="uni030B" unicode="&#x30b;" horiz-adv-x="0" 
d="M-243 769h-83l55 131h108zM-101 769h-85l78 131h108z" />
    <glyph glyph-name="uni030C" unicode="&#x30c;" horiz-adv-x="0" 
d="M-177 755l-173 128l46 55l128 -96l126 96l45 -55z" />
    <glyph glyph-name="uni031B" unicode="&#x31b;" horiz-adv-x="0" 
d="M53 751.5q22 30.5 22 70.5q0 13 -1 20l66 4q2 -16 2 -24q0 -53 -29.5 -97t-88.5 -59q-13 -4 -23 -5l-13 48q43 12 65 42.5z" />
    <glyph glyph-name="dotbelowcomb" unicode="&#x323;" horiz-adv-x="0" 
d="M-101.5 -102.5q17.5 17.5 42.5 17.5t42 -17.5t17 -42.5t-17 -42.5t-42 -17.5t-42.5 17.5t-17.5 42.5t17.5 42.5z" />
    <glyph glyph-name="uni0326" unicode="&#x326;" horiz-adv-x="0" 
d="M-89 28l89 -33l-119 -266l-61 24z" />
    <glyph glyph-name="uni0327" unicode="&#x327;" horiz-adv-x="0" 
d="M0 -159q0 -53 -35 -80t-88 -27q-72 0 -121 45l36 48q39 -36 79 -36q28 0 48 12.5t20 37.5q0 27 -26 42t-87 26l33 106h58l-28 -77q111 -22 111 -97z" />
    <glyph glyph-name="uni0328" unicode="&#x328;" horiz-adv-x="0" 
d="M-112.5 -165.5q-36.5 26.5 -36.5 64.5q0 29 20 58t53 50h60q-30 -14 -48 -37t-18 -47t20 -39t62 -15v-66q-76 5 -112.5 31.5z" />
    <glyph glyph-name="uni0329" unicode="&#x329;" horiz-adv-x="0" 
d="M-35 -233v157h70v-157h-70z" />
    <glyph glyph-name="uni0394" unicode="&#x394;" horiz-adv-x="680" 
d="M650 0h-620l273 700h75zM538 72l-198 533l-198 -533h396z" />
    <glyph glyph-name="uni03A9" unicode="&#x3a9;" horiz-adv-x="752" 
d="M629 72v-72h-220v200q96 18 150.5 80t54.5 145q0 61 -30 110.5t-84.5 77.5t-123.5 28t-123.5 -28t-84.5 -77.5t-30 -110.5q0 -83 54.5 -145t150.5 -80v-200h-220v72h151v73q-214 76 -214 274q0 94 45.5 161t118 100.5t152.5 33.5t152.5 -33.5t118 -100.5t45.5 -161
q0 -198 -214 -274v-73h151z" />
    <glyph glyph-name="uni03BC" unicode="&#x3bc;" 
d="M494 0h-76v81q-24 -45 -67 -69.5t-91 -24.5q-33 0 -63 11.5t-51 34.5v-254h-76v725h76v-307q0 -67 36 -102.5t86 -35.5q38 0 72.5 20.5t56 60t21.5 93.5v271h76v-504z" />
    <glyph glyph-name="pi" unicode="&#x3c0;" horiz-adv-x="869" 
d="M789 33q-47 -44 -112 -44q-60 0 -101 38.5t-41 115.5v291h-279v-434h-76v434h-100v70h656v-70h-126v-292q0 -43 20 -65t53 -22q17 0 37 7.5t34 20.5z" />
    <glyph glyph-name="uni0E3F" unicode="&#xe3f;" horiz-adv-x="606" 
d="M511.5 308q34.5 -46 34.5 -105q0 -52 -27 -98.5t-79 -75.5t-124 -29h-16v-104h-63v104h-147v700h147v108h63v-108h19q62 0 106 -23.5t66.5 -63t22.5 -84.5q0 -51 -26.5 -95t-75.5 -63q65 -17 99.5 -63zM168 398h132q42 0 72.5 17t46 44.5t15.5 58.5q0 45 -33 77.5
t-94 32.5h-139v-230zM430 109q36 37 36 89q0 33 -16.5 62.5t-49 47.5t-78.5 18h-154v-254h160q66 0 102 37z" />
    <glyph glyph-name="uni1E02" unicode="&#x1e02;" horiz-adv-x="606" 
d="M511.5 308q34.5 -46 34.5 -105q0 -52 -27 -98.5t-79 -75.5t-124 -29h-226v700h229q62 0 106 -23.5t66.5 -63t22.5 -84.5q0 -51 -26.5 -95t-75.5 -63q65 -17 99.5 -63zM300 398q42 0 72.5 17t46 44.5t15.5 58.5q0 45 -33 77.5t-94 32.5h-139v-230h132zM430 109
q36 37 36 89q0 33 -16.5 62.5t-49 47.5t-78.5 18h-154v-254h160q66 0 102 37zM251.5 868.5q17.5 16.5 41.5 16.5t41 -16.5t17 -40.5t-17 -41.5t-41 -17.5t-41.5 17t-17.5 42q0 24 17.5 40.5z" />
    <glyph glyph-name="uni1E03" unicode="&#x1e03;" horiz-adv-x="633" 
d="M463.5 487q53.5 -30 86.5 -89t33 -142q0 -85 -35 -145t-92 -90.5t-123 -30.5q-52 0 -99.5 22.5t-77.5 61.5v-74h-76v700h76v-283q32 47 82 73.5t109 26.5q63 0 116.5 -30zM416.5 83.5q40.5 21.5 66 65t25.5 105.5q0 60 -23.5 103.5t-62 66t-84.5 22.5q-47 0 -88.5 -23
t-67.5 -68t-26 -107q0 -59 24 -101.5t64 -63.5t86 -21t86.5 21.5zM314.5 699.5q17.5 16.5 41.5 16.5t41 -16.5t17 -40.5t-17 -41.5t-41 -17.5t-41.5 17t-17.5 42q0 24 17.5 40.5z" />
    <glyph glyph-name="uni1E0A" unicode="&#x1e0a;" horiz-adv-x="736" 
d="M90 700h224q115 0 197 -49t123.5 -128t41.5 -169q0 -91 -41.5 -172.5t-124 -131.5t-198.5 -50h-222v700zM168 629v-557h148q90 0 153 39.5t95 103.5t32 136q0 73 -32 136.5t-95.5 102.5t-152.5 39h-148zM262.5 868.5q17.5 16.5 41.5 16.5t41 -16.5t17 -40.5t-17 -41.5
t-41 -17.5t-41.5 17t-17.5 42q0 24 17.5 40.5z" />
    <glyph glyph-name="uni1E0B" unicode="&#x1e0b;" horiz-adv-x="633" 
d="M553 0h-75v74q-28 -40 -74.5 -62t-99.5 -22q-65 0 -123 31t-94.5 91t-36.5 144q0 85 36.5 144t94.5 88t122 29q51 0 97.5 -22.5t77.5 -64.5v270h75v-700zM391.5 83.5q38.5 21.5 62.5 63.5t24 102q0 62 -26 107t-67 67.5t-87 22.5q-45 0 -84 -21.5t-63.5 -64t-24.5 -103.5
q0 -62 26 -106.5t68 -66.5t88 -22q45 0 83.5 21.5zM253.5 699.5q17.5 16.5 41.5 16.5t41 -16.5t17 -40.5t-17 -41.5t-41 -17.5t-41.5 17t-17.5 42q0 24 17.5 40.5z" />
    <glyph glyph-name="uni1E0D" unicode="&#x1e0d;" horiz-adv-x="633" 
d="M553 0h-75v74q-28 -40 -74.5 -62t-99.5 -22q-65 0 -123 31t-94.5 91t-36.5 144q0 85 36.5 144t94.5 88t122 29q51 0 97.5 -22.5t77.5 -64.5v270h75v-700zM391.5 83.5q38.5 21.5 62.5 63.5t24 102q0 62 -26 107t-67 67.5t-87 22.5q-45 0 -84 -21.5t-63.5 -64t-24.5 -103.5
q0 -62 26 -106.5t68 -66.5t88 -22q45 0 83.5 21.5zM262.5 -102.5q17.5 17.5 42.5 17.5t42 -17.5t17 -42.5t-17 -42.5t-42 -17.5t-42.5 17.5t-17.5 42.5t17.5 42.5z" />
    <glyph glyph-name="uni1E1E" unicode="&#x1e1e;" horiz-adv-x="564" 
d="M168 628v-240h266v-72h-266v-316h-78v700h404v-72h-326zM268.5 868.5q17.5 16.5 41.5 16.5t41 -16.5t17 -40.5t-17 -41.5t-41 -17.5t-41.5 17t-17.5 42q0 24 17.5 40.5z" />
    <glyph glyph-name="uni1E1F" unicode="&#x1e1f;" horiz-adv-x="362" 
d="M159 679.5q42 38.5 101 38.5q31 0 61.5 -11t52.5 -31l-41 -55q-14 15 -32 22.5t-36 7.5q-31 0 -51.5 -21t-20.5 -63v-63h130v-70h-130v-434h-76v434h-97v70h97v65q0 72 42 110.5zM215.5 868.5q17.5 16.5 41.5 16.5t41 -16.5t17 -40.5t-17 -41.5t-41 -17.5t-41.5 17
t-17.5 42q0 24 17.5 40.5z" />
    <glyph glyph-name="uni1E25" unicode="&#x1e25;" horiz-adv-x="591" 
d="M420 496q41 -21 66 -63.5t25 -103.5v-329h-76v311q0 65 -34.5 99.5t-84.5 34.5q-40 0 -76.5 -22t-60 -65t-23.5 -102v-256h-76v700h76v-287q26 50 73.5 77t101.5 27q48 0 89 -21zM262.5 -102.5q17.5 17.5 42.5 17.5t42 -17.5t17 -42.5t-17 -42.5t-42 -17.5t-42.5 17.5
t-17.5 42.5t17.5 42.5z" />
    <glyph glyph-name="uni1E33" unicode="&#x1e33;" horiz-adv-x="533" 
d="M156 242v-242h-76v700h76v-421l232 225h103l-251 -240l283 -264h-113zM232.5 -102.5q17.5 17.5 42.5 17.5t42 -17.5t17 -42.5t-17 -42.5t-42 -17.5t-42.5 17.5t-17.5 42.5t17.5 42.5z" />
    <glyph glyph-name="uni1E34" unicode="&#x1e34;" horiz-adv-x="639" 
d="M168 331v-331h-78v700h78v-326l326 326h100l-336 -342l351 -358h-115zM457 -104v-76h-297v76h297z" />
    <glyph glyph-name="uni1E35" unicode="&#x1e35;" horiz-adv-x="533" 
d="M156 242v-242h-76v700h76v-421l232 225h103l-251 -240l283 -264h-113zM437 -104v-76h-297v76h297z" />
    <glyph glyph-name="uni1E37" unicode="&#x1e37;" horiz-adv-x="402" 
d="M226 -11q-58 0 -97 38t-39 116v557h76v-558q0 -45 20 -66t52 -21q19 0 48 11l26 -55q-39 -22 -86 -22zM147.5 -102.5q17.5 17.5 42.5 17.5t42 -17.5t17 -42.5t-17 -42.5t-42 -17.5t-42.5 17.5t-17.5 42.5t17.5 42.5z" />
    <glyph glyph-name="uni1E39" unicode="&#x1e39;" horiz-adv-x="307" 
d="M216 -11q-58 0 -97 38t-39 116v557h76v-558q0 -45 20 -66t52 -21q19 0 48 11l26 -55q-39 -22 -86 -22zM137.5 -102.5q17.5 17.5 42.5 17.5t42 -17.5t17 -42.5t-17 -42.5t-42 -17.5t-42.5 17.5t-17.5 42.5t17.5 42.5zM317 836v-76h-297v76h297z" />
    <glyph glyph-name="uni1E40" unicode="&#x1e40;" horiz-adv-x="869" 
d="M90 700h87l257 -445l258 445h87v-700h-79v550l-231 -393h-69l-232 393v-550h-78v700zM393.5 868.5q17.5 16.5 41.5 16.5t41 -16.5t17 -40.5t-17 -41.5t-41 -17.5t-41.5 17t-17.5 42q0 24 17.5 40.5z" />
    <glyph glyph-name="uni1E41" unicode="&#x1e41;" horiz-adv-x="857" 
d="M690 497.5q39 -19.5 63 -59.5t24 -96v-342h-76v316q0 62 -30 95.5t-75 33.5q-33 0 -62.5 -19t-48.5 -56.5t-19 -89.5v-280h-75v316q0 62 -30.5 95.5t-75.5 33.5q-33 0 -62.5 -19.5t-48 -56.5t-18.5 -89v-280h-76v504h76v-65q24 38 62.5 58t85.5 20q46 0 85 -24.5
t56 -68.5q23 44 66 68.5t94 24.5q46 0 85 -19.5zM397.5 699.5q17.5 16.5 41.5 16.5t41 -16.5t17 -40.5t-17 -41.5t-41 -17.5t-41.5 17t-17.5 42q0 24 17.5 40.5z" />
    <glyph glyph-name="uni1E43" unicode="&#x1e43;" horiz-adv-x="857" 
d="M690 497.5q39 -19.5 63 -59.5t24 -96v-342h-76v316q0 62 -30 95.5t-75 33.5q-33 0 -62.5 -19t-48.5 -56.5t-19 -89.5v-280h-75v316q0 62 -30.5 95.5t-75.5 33.5q-33 0 -62.5 -19.5t-48 -56.5t-18.5 -89v-280h-76v504h76v-65q24 38 62.5 58t85.5 20q46 0 85 -24.5
t56 -68.5q23 44 66 68.5t94 24.5q46 0 85 -19.5zM386.5 -102.5q17.5 17.5 42.5 17.5t42 -17.5t17 -42.5t-17 -42.5t-42 -17.5t-42.5 17.5t-17.5 42.5t17.5 42.5z" />
    <glyph glyph-name="uni1E47" unicode="&#x1e47;" horiz-adv-x="591" 
d="M511 0h-76v311q0 65 -34.5 99.5t-84.5 34.5q-40 0 -76.5 -22t-60 -65t-23.5 -102v-256h-76v504h76v-87q27 48 74.5 74t100.5 26q48 0 89 -21t66 -63.5t25 -103.5v-329zM253.5 -102.5q17.5 17.5 42.5 17.5t42 -17.5t17 -42.5t-17 -42.5t-42 -17.5t-42.5 17.5t-17.5 42.5
t17.5 42.5z" />
    <glyph glyph-name="uni1E56" unicode="&#x1e56;" horiz-adv-x="561" 
d="M426 673q48 -27 71.5 -70t23.5 -92q0 -52 -26 -98t-76 -74t-120 -28h-131v-311h-78v700h218q70 0 118 -27zM295 383q73 0 110 37.5t37 89.5q0 49 -34.5 83.5t-104.5 34.5h-135v-245h127zM241.5 868.5q17.5 16.5 41.5 16.5t41 -16.5t17 -40.5t-17 -41.5t-41 -17.5
t-41.5 17t-17.5 42q0 24 17.5 40.5z" />
    <glyph glyph-name="uni1E57" unicode="&#x1e57;" horiz-adv-x="633" 
d="M460.5 484q54.5 -29 88.5 -86t34 -139q0 -85 -36 -146t-94.5 -92t-123.5 -31q-52 0 -98 20.5t-75 59.5v-291h-76v725h76v-89q32 46 81 72t108 26q61 0 115.5 -29zM414 84.5q42 22.5 68 66.5t26 105q0 59 -24.5 101t-64 63.5t-84.5 21.5q-46 0 -87 -22.5t-66.5 -66.5
t-25.5 -105q0 -59 24 -101t63 -63.5t84 -21.5t87 22.5zM310.5 699.5q17.5 16.5 41.5 16.5t41 -16.5t17 -40.5t-17 -41.5t-41 -17.5t-41.5 17t-17.5 42q0 24 17.5 40.5z" />
    <glyph glyph-name="uni1E5B" unicode="&#x1e5b;" horiz-adv-x="371" 
d="M351 497l-16 -75q-30 14 -61 14q-53 0 -85.5 -37.5t-32.5 -104.5v-294h-76v504h76v-68q19 38 52 56.5t72 18.5q40 0 71 -14zM82.5 -102.5q17.5 17.5 42.5 17.5t42 -17.5t17 -42.5t-17 -42.5t-42 -17.5t-42.5 17.5t-17.5 42.5t17.5 42.5z" />
    <glyph glyph-name="uni1E5D" unicode="&#x1e5d;" horiz-adv-x="382" 
d="M362 497l-16 -75q-30 14 -61 14q-53 0 -85.5 -37.5t-32.5 -104.5v-294h-76v504h76v-68q19 38 52 56.5t72 18.5q40 0 71 -14zM87.5 -102.5q17.5 17.5 42.5 17.5t42 -17.5t17 -42.5t-17 -42.5t-42 -17.5t-42.5 17.5t-17.5 42.5t17.5 42.5zM362 676v-76h-297v76h297z" />
    <glyph glyph-name="uni1E60" unicode="&#x1e60;" horiz-adv-x="576" 
d="M493.5 76.5q-32.5 -45.5 -86.5 -69t-117 -23.5q-68 0 -132.5 27t-107.5 75l56 61q32 -44 82.5 -67.5t103.5 -23.5q64 0 108.5 34t44.5 88q0 48 -35.5 75t-106.5 53q-76 28 -118 49t-74 62t-32 106q0 64 31.5 107.5t82 64.5t108.5 21q53 0 104 -18.5t88 -53.5l-46 -59
q-27 30 -65.5 45.5t-82.5 15.5q-59 0 -100.5 -28.5t-41.5 -87.5q0 -44 24.5 -73t59 -45.5t94.5 -38.5q62 -22 100.5 -42.5t64.5 -56t26 -90.5q0 -62 -32.5 -107.5zM256.5 868.5q17.5 16.5 41.5 16.5t41 -16.5t17 -40.5t-17 -41.5t-41 -17.5t-41.5 17t-17.5 42
q0 24 17.5 40.5z" />
    <glyph glyph-name="uni1E61" unicode="&#x1e61;" horiz-adv-x="484" 
d="M421.5 59.5q-27.5 -34.5 -73 -52.5t-99.5 -18q-59 0 -116 22t-98 63l53 59q29 -35 76 -54t95 -19q50 0 81 19.5t31 52.5q0 24 -16.5 38.5t-41 22.5t-70.5 19q-55 13 -92.5 28.5t-63 46t-25.5 79.5q0 51 27 85t70 50t91 16q47 0 91.5 -14.5t81.5 -41.5l-39 -57
q-28 23 -66 34.5t-72 11.5q-48 0 -78.5 -21t-30.5 -59t30 -56t90 -32q68 -15 102 -26t62 -38.5t28 -75.5t-27.5 -82.5zM210.5 699.5q17.5 16.5 41.5 16.5t41 -16.5t17 -40.5t-17 -41.5t-41 -17.5t-41.5 17t-17.5 42q0 24 17.5 40.5z" />
    <glyph glyph-name="uni1E63" unicode="&#x1e63;" horiz-adv-x="484" 
d="M421.5 59.5q-27.5 -34.5 -73 -52.5t-99.5 -18q-59 0 -116 22t-98 63l53 59q29 -35 76 -54t95 -19q50 0 81 19.5t31 52.5q0 24 -16.5 38.5t-41 22.5t-70.5 19q-55 13 -92.5 28.5t-63 46t-25.5 79.5q0 51 27 85t70 50t91 16q47 0 91.5 -14.5t81.5 -41.5l-39 -57
q-28 23 -66 34.5t-72 11.5q-48 0 -78.5 -21t-30.5 -59t30 -56t90 -32q68 -15 102 -26t62 -38.5t28 -75.5t-27.5 -82.5zM220.5 -102.5q17.5 17.5 42.5 17.5t42 -17.5t17 -42.5t-17 -42.5t-42 -17.5t-42.5 17.5t-17.5 42.5t17.5 42.5z" />
    <glyph glyph-name="uni1E6A" unicode="&#x1e6a;" horiz-adv-x="634" 
d="M357 0h-79v628h-248v72h574v-72h-247v-628zM276.5 868.5q17.5 16.5 41.5 16.5t41 -16.5t17 -40.5t-17 -41.5t-41 -17.5t-41.5 17t-17.5 42q0 24 17.5 40.5z" />
    <glyph glyph-name="uni1E6B" unicode="&#x1e6b;" horiz-adv-x="410" 
d="M268 -11q-60 0 -101 38.5t-41 115.5v291h-106v70h106v129h75v-129h136v-70h-136v-292q0 -43 20 -65t53 -22q17 0 37 7.5t34 20.5l35 -50q-47 -44 -112 -44zM125.5 791.5q17.5 17.5 42.5 17.5t42 -17.5t17 -42.5t-17 -42.5t-42 -17.5t-42.5 17.5t-17.5 42.5t17.5 42.5z
" />
    <glyph glyph-name="uni1E6D" unicode="&#x1e6d;" horiz-adv-x="410" 
d="M268 -11q-60 0 -101 38.5t-41 115.5v291h-106v70h106v129h75v-129h136v-70h-136v-292q0 -43 20 -65t53 -22q17 0 37 7.5t34 20.5l35 -50q-47 -44 -112 -44zM190.5 -102.5q17.5 17.5 42.5 17.5t42 -17.5t17 -42.5t-17 -42.5t-42 -17.5t-42.5 17.5t-17.5 42.5t17.5 42.5z
" />
    <glyph glyph-name="uni1E6F" unicode="&#x1e6f;" horiz-adv-x="410" 
d="M268 -11q-60 0 -101 38.5t-41 115.5v291h-106v70h106v129h75v-129h136v-70h-136v-292q0 -43 20 -65t53 -22q17 0 37 7.5t34 20.5l35 -50q-47 -44 -112 -44zM380 -104v-76h-297v76h297z" />
    <glyph glyph-name="Wgrave" unicode="&#x1e80;" horiz-adv-x="1014" 
d="M760 0h-82l-171 553l-171 -553h-82l-234 700h86l189 -582l174 582h76l174 -582l189 582h86zM366 827l22 76l220 -68l-24 -75z" />
    <glyph glyph-name="wgrave" unicode="&#x1e81;" horiz-adv-x="878" 
d="M663 0h-81l-142 405l-144 -405h-81l-185 504h86l139 -400l141 400h86l141 -400l139 400h86zM278 667l22 76l220 -68l-24 -75z" />
    <glyph glyph-name="Wacute" unicode="&#x1e82;" horiz-adv-x="1014" 
d="M760 0h-82l-171 553l-171 -553h-82l-234 700h86l189 -582l174 582h76l174 -582l189 582h86zM653 903l23 -76l-219 -67l-23 75z" />
    <glyph glyph-name="wacute" unicode="&#x1e83;" horiz-adv-x="878" 
d="M663 0h-81l-142 405l-144 -405h-81l-185 504h86l139 -400l141 400h86l141 -400l139 400h86zM567 743l23 -76l-219 -67l-23 75z" />
    <glyph glyph-name="Wdieresis" unicode="&#x1e84;" horiz-adv-x="1014" 
d="M760 0h-82l-171 553l-171 -553h-82l-234 700h86l189 -582l174 582h76l174 -582l189 582h86zM432.5 778q-16.5 -17 -39.5 -17q-25 0 -42.5 17t-17.5 42q0 24 17.5 40.5t42.5 16.5q23 0 39.5 -16.5t16.5 -40.5q0 -25 -16.5 -42zM663.5 778q-17.5 -17 -41.5 -17t-40.5 17
t-16.5 42q0 24 16.5 40.5t40.5 16.5t41.5 -16.5t17.5 -40.5q0 -25 -17.5 -42z" />
    <glyph glyph-name="wdieresis" unicode="&#x1e85;" horiz-adv-x="878" 
d="M663 0h-81l-142 405l-144 -405h-81l-185 504h86l139 -400l141 400h86l141 -400l139 400h86zM364.5 618q-16.5 -17 -39.5 -17q-25 0 -42.5 17t-17.5 42q0 24 17.5 40.5t42.5 16.5q23 0 39.5 -16.5t16.5 -40.5q0 -25 -16.5 -42zM595.5 618q-17.5 -17 -41.5 -17t-40.5 17
t-16.5 42q0 24 16.5 40.5t40.5 16.5t41.5 -16.5t17.5 -40.5q0 -25 -17.5 -42z" />
    <glyph glyph-name="uni1E8F" unicode="&#x1e8f;" horiz-adv-x="600" 
d="M520 13q0 -80 -30 -135.5t-82 -83.5t-119 -28q-83 0 -148 42t-91 125l73 28q20 -63 65 -94t103 -31q71 0 113.5 45t41.5 128l-1 93q-26 -46 -70.5 -71.5t-97.5 -25.5q-50 0 -94.5 22.5t-72 65.5t-27.5 103v308h76v-292q0 -67 33.5 -101t88.5 -34q45 0 82.5 22t59.5 65
t22 102v238h75v-491zM244.5 699.5q17.5 16.5 41.5 16.5t41 -16.5t17 -40.5t-17 -41.5t-41 -17.5t-41.5 17t-17.5 42q0 24 17.5 40.5z" />
    <glyph glyph-name="uni1EA0" unicode="&#x1ea0;" horiz-adv-x="680" 
d="M186 193l-71 -193h-85l273 700h75l272 -700h-85l-71 193h-308zM340 605l-127 -340h253zM298.5 -102.5q17.5 17.5 42.5 17.5t42 -17.5t17 -42.5t-17 -42.5t-42 -17.5t-42.5 17.5t-17.5 42.5t17.5 42.5z" />
    <glyph glyph-name="uni1EA1" unicode="&#x1ea1;" horiz-adv-x="681" 
d="M262.5 -102.5q17.5 17.5 42.5 17.5t42 -17.5t17 -42.5t-17 -42.5t-42 -17.5t-42.5 17.5t-17.5 42.5t17.5 42.5zM592 -9q-44 0 -74 27t-37 76q-24 -45 -73.5 -74.5t-110.5 -29.5t-118 31t-93 91t-36 143t36 142.5t92.5 89.5t117.5 30q52 0 102 -23t80 -68v78h75v-384
q0 -28 14 -44t34 -16q16 0 34 9l26 -52q-29 -26 -69 -26zM385.5 84q40.5 22 66.5 65t26 102q0 62 -27 106t-69 66t-86 22t-83 -22t-63 -65t-24 -103q0 -62 26 -105.5t66.5 -65.5t83.5 -22t83.5 22z" />
    <glyph glyph-name="uni1EA2" unicode="&#x1ea2;" horiz-adv-x="680" 
d="M340 831q13 11 13 29q0 17 -11 27t-28 10q-23 0 -49 -14l-24 58q46 20 84 20q46 0 72 -27.5t26 -65.5q0 -41 -29 -69t-70 -42l-22 51q25 12 38 23zM186 193l-71 -193h-85l273 700h75l272 -700h-85l-71 193h-308zM340 605l-127 -340h253z" />
    <glyph glyph-name="uni1EA3" unicode="&#x1ea3;" horiz-adv-x="681" 
d="M318 647q13 11 13 29q0 17 -11 27t-28 10q-23 0 -49 -14l-24 58q46 20 84 20q46 0 72 -27.5t26 -65.5q0 -41 -29 -69t-70 -42l-22 51q25 12 38 23zM592 -9q-44 0 -74 27t-37 76q-24 -45 -73.5 -74.5t-110.5 -29.5t-118 31t-93 91t-36 143t36 142.5t92.5 89.5t117.5 30
q52 0 102 -23t80 -68v78h75v-384q0 -28 14 -44t34 -16q16 0 34 9l26 -52q-29 -26 -69 -26zM385.5 84q40.5 22 66.5 65t26 102q0 62 -27 106t-69 66t-86 22t-83 -22t-63 -65t-24 -103q0 -62 26 -105.5t66.5 -65.5t83.5 -22t83.5 22z" />
    <glyph glyph-name="uni1EA4" unicode="&#x1ea4;" horiz-adv-x="680" 
d="M186 193l-71 -193h-85l273 700h75l272 -700h-85l-71 193h-308zM340 605l-127 -340h253zM466 745l-126 97l-128 -97l-46 55l173 128l172 -128zM156 933l103 134l60 -46l-103 -133z" />
    <glyph glyph-name="uni1EA5" unicode="&#x1ea5;" horiz-adv-x="681" 
d="M592 -9q-44 0 -74 27t-37 76q-24 -45 -73.5 -74.5t-110.5 -29.5t-118 31t-93 91t-36 143t36 142.5t92.5 89.5t117.5 30q52 0 102 -23t80 -68v78h75v-384q0 -28 14 -44t34 -16q16 0 34 9l26 -52q-29 -26 -69 -26zM385.5 84q40.5 22 66.5 65t26 102q0 62 -27 106t-69 66
t-86 22t-83 -22t-63 -65t-24 -103q0 -62 26 -105.5t66.5 -65.5t83.5 -22t83.5 22zM122 737l103 134l60 -46l-103 -133zM432 549l-126 97l-128 -97l-46 55l173 128l172 -128z" />
    <glyph glyph-name="uni1EA6" unicode="&#x1ea6;" horiz-adv-x="680" 
d="M361 1021l60 46l103 -134l-60 -45zM186 193l-71 -193h-85l273 700h75l272 -700h-85l-71 193h-308zM340 605l-127 -340h253zM468 745l-126 97l-128 -97l-46 55l173 128l172 -128z" />
    <glyph glyph-name="uni1EA7" unicode="&#x1ea7;" horiz-adv-x="681" 
d="M592 -9q-44 0 -74 27t-37 76q-24 -45 -73.5 -74.5t-110.5 -29.5t-118 31t-93 91t-36 143t36 142.5t92.5 89.5t117.5 30q52 0 102 -23t80 -68v78h75v-384q0 -28 14 -44t34 -16q16 0 34 9l26 -52q-29 -26 -69 -26zM385.5 84q40.5 22 66.5 65t26 102q0 62 -27 106t-69 66
t-86 22t-83 -22t-63 -65t-24 -103q0 -62 26 -105.5t66.5 -65.5t83.5 -22t83.5 22zM432 549l-126 97l-128 -97l-46 55l173 128l172 -128zM325 825l60 46l103 -134l-60 -45z" />
    <glyph glyph-name="uni1EA8" unicode="&#x1ea8;" horiz-adv-x="680" 
d="M186 193l-71 -193h-85l273 700h75l272 -700h-85l-71 193h-308zM340 605l-127 -340h253zM468 745l-126 97l-128 -97l-46 55l173 128l172 -128zM461 949.5q11 9.5 11 25.5q0 15 -9.5 23.5t-24.5 8.5q-20 0 -42 -12l-21 50q39 18 73 18q40 0 62.5 -24t22.5 -57
q0 -35 -25 -60t-61 -37l-19 45q22 10 33 19.5z" />
    <glyph glyph-name="uni1EA9" unicode="&#x1ea9;" horiz-adv-x="681" 
d="M592 -9q-44 0 -74 27t-37 76q-24 -45 -73.5 -74.5t-110.5 -29.5t-118 31t-93 91t-36 143t36 142.5t92.5 89.5t117.5 30q52 0 102 -23t80 -68v78h75v-384q0 -28 14 -44t34 -16q16 0 34 9l26 -52q-29 -26 -69 -26zM385.5 84q40.5 22 66.5 65t26 102q0 62 -27 106t-69 66
t-86 22t-83 -22t-63 -65t-24 -103q0 -62 26 -105.5t66.5 -65.5t83.5 -22t83.5 22zM432 549l-126 97l-128 -97l-46 55l173 128l172 -128zM425 753.5q11 9.5 11 25.5q0 15 -9.5 23.5t-24.5 8.5q-20 0 -42 -12l-21 50q39 18 73 18q40 0 62.5 -24t22.5 -57q0 -35 -25 -60
t-61 -37l-19 45q22 10 33 19.5z" />
    <glyph glyph-name="uni1EAA" unicode="&#x1eaa;" horiz-adv-x="680" 
d="M186 193l-71 -193h-85l273 700h75l272 -700h-85l-71 193h-308zM340 605l-127 -340h253zM468 745l-126 97l-128 -97l-46 55l173 128l172 -128zM370.5 953q-12.5 5 -29.5 15q-10 6 -20 10.5t-18 4.5q-12 0 -22.5 -9t-28.5 -30l-48 40q23 31 44.5 50t52.5 19q15 0 28.5 -5
t33.5 -15q25 -14 36 -14q12 0 23 11.5t19 25.5l50 -28q-21 -36 -43 -58t-51 -22q-14 0 -26.5 5z" />
    <glyph glyph-name="uni1EAB" unicode="&#x1eab;" horiz-adv-x="681" 
d="M592 -9q-44 0 -74 27t-37 76q-24 -45 -73.5 -74.5t-110.5 -29.5t-118 31t-93 91t-36 143t36 142.5t92.5 89.5t117.5 30q52 0 102 -23t80 -68v78h75v-384q0 -28 14 -44t34 -16q16 0 34 9l26 -52q-29 -26 -69 -26zM385.5 84q40.5 22 66.5 65t26 102q0 62 -27 106t-69 66
t-86 22t-83 -22t-63 -65t-24 -103q0 -62 26 -105.5t66.5 -65.5t83.5 -22t83.5 22zM433 549l-126 97l-128 -97l-46 55l173 128l172 -128zM334.5 757q-12.5 5 -29.5 15q-10 6 -20 10.5t-18 4.5q-12 0 -22.5 -9t-28.5 -30l-48 40q23 31 44.5 50t52.5 19q15 0 28.5 -5t33.5 -15
q25 -14 36 -14q12 0 23 11.5t19 25.5l50 -28q-21 -36 -43 -58t-51 -22q-14 0 -26.5 5z" />
    <glyph glyph-name="uni1EAC" unicode="&#x1eac;" horiz-adv-x="680" 
d="M468 755l-126 97l-128 -97l-46 55l173 128l172 -128zM186 193l-71 -193h-85l273 700h75l272 -700h-85l-71 193h-308zM340 605l-127 -340h253zM298.5 -102.5q17.5 17.5 42.5 17.5t42 -17.5t17 -42.5t-17 -42.5t-42 -17.5t-42.5 17.5t-17.5 42.5t17.5 42.5z" />
    <glyph glyph-name="uni1EAD" unicode="&#x1ead;" horiz-adv-x="681" 
d="M262.5 -102.5q17.5 17.5 42.5 17.5t42 -17.5t17 -42.5t-17 -42.5t-42 -17.5t-42.5 17.5t-17.5 42.5t17.5 42.5zM592 -9q-44 0 -74 27t-37 76q-24 -45 -73.5 -74.5t-110.5 -29.5t-118 31t-93 91t-36 143t36 142.5t92.5 89.5t117.5 30q52 0 102 -23t80 -68v78h75v-384
q0 -28 14 -44t34 -16q16 0 34 9l26 -52q-29 -26 -69 -26zM385.5 84q40.5 22 66.5 65t26 102q0 62 -27 106t-69 66t-86 22t-83 -22t-63 -65t-24 -103q0 -62 26 -105.5t66.5 -65.5t83.5 -22t83.5 22zM432 589l-126 97l-128 -97l-46 55l173 128l172 -128z" />
    <glyph glyph-name="uni1EAE" unicode="&#x1eae;" horiz-adv-x="680" 
d="M296 983l156 64l29 -70l-156 -63zM473 886q0 -57 -33.5 -96.5t-99.5 -39.5t-99.5 39.5t-33.5 96.5h71q1 -31 16 -48.5t46 -17.5t46 17.5t16 48.5h71zM186 193l-71 -193h-85l273 700h75l272 -700h-85l-71 193h-308zM340 605l-127 -340h253z" />
    <glyph glyph-name="uni1EAF" unicode="&#x1eaf;" horiz-adv-x="681" 
d="M266 813l156 64l29 -70l-156 -63zM443 716q0 -57 -33.5 -96.5t-99.5 -39.5t-99.5 39.5t-33.5 96.5h71q1 -31 16 -48.5t46 -17.5t46 17.5t16 48.5h71zM592 -9q-44 0 -74 27t-37 76q-24 -45 -73.5 -74.5t-110.5 -29.5t-118 31t-93 91t-36 143t36 142.5t92.5 89.5t117.5 30
q52 0 102 -23t80 -68v78h75v-384q0 -28 14 -44t34 -16q16 0 34 9l26 -52q-29 -26 -69 -26zM385.5 84q40.5 22 66.5 65t26 102q0 62 -27 106t-69 66t-86 22t-83 -22t-63 -65t-24 -103q0 -62 26 -105.5t66.5 -65.5t83.5 -22t83.5 22z" />
    <glyph glyph-name="uni1EB0" unicode="&#x1eb0;" horiz-adv-x="680" 
d="M203 978l28 70l157 -65l-30 -69zM473 886q0 -57 -33.5 -96.5t-99.5 -39.5t-99.5 39.5t-33.5 96.5h71q1 -31 16 -48.5t46 -17.5t46 17.5t16 48.5h71zM186 193l-71 -193h-85l273 700h75l272 -700h-85l-71 193h-308zM340 605l-127 -340h253z" />
    <glyph glyph-name="uni1EB1" unicode="&#x1eb1;" horiz-adv-x="681" 
d="M173 808l28 70l157 -65l-30 -69zM443 716q0 -57 -33.5 -96.5t-99.5 -39.5t-99.5 39.5t-33.5 96.5h71q1 -31 16 -48.5t46 -17.5t46 17.5t16 48.5h71zM592 -9q-44 0 -74 27t-37 76q-24 -45 -73.5 -74.5t-110.5 -29.5t-118 31t-93 91t-36 143t36 142.5t92.5 89.5t117.5 30
q52 0 102 -23t80 -68v78h75v-384q0 -28 14 -44t34 -16q16 0 34 9l26 -52q-29 -26 -69 -26zM385.5 84q40.5 22 66.5 65t26 102q0 62 -27 106t-69 66t-86 22t-83 -22t-63 -65t-24 -103q0 -62 26 -105.5t66.5 -65.5t83.5 -22t83.5 22z" />
    <glyph glyph-name="uni1EB2" unicode="&#x1eb2;" horiz-adv-x="680" 
d="M186 193l-71 -193h-85l273 700h75l272 -700h-85l-71 193h-308zM340 605l-127 -340h253zM473 886q0 -57 -33.5 -96.5t-99.5 -39.5t-99.5 39.5t-33.5 96.5h71q1 -31 16 -48.5t46 -17.5t46 17.5t16 48.5h71zM346 955.5q11 9.5 11 25.5q0 15 -9.5 23.5t-24.5 8.5
q-20 0 -42 -12l-21 50q39 18 73 18q40 0 62.5 -24t22.5 -57q0 -35 -25 -60t-61 -37l-19 45q22 10 33 19.5z" />
    <glyph glyph-name="uni1EB3" unicode="&#x1eb3;" horiz-adv-x="681" 
d="M592 -9q-44 0 -74 27t-37 76q-24 -45 -73.5 -74.5t-110.5 -29.5t-118 31t-93 91t-36 143t36 142.5t92.5 89.5t117.5 30q52 0 102 -23t80 -68v78h75v-384q0 -28 14 -44t34 -16q16 0 34 9l26 -52q-29 -26 -69 -26zM385.5 84q40.5 22 66.5 65t26 102q0 62 -27 106t-69 66
t-86 22t-83 -22t-63 -65t-24 -103q0 -62 26 -105.5t66.5 -65.5t83.5 -22t83.5 22zM443 716q0 -57 -33.5 -96.5t-99.5 -39.5t-99.5 39.5t-33.5 96.5h71q1 -31 16 -48.5t46 -17.5t46 17.5t16 48.5h71zM316 785.5q11 9.5 11 25.5q0 15 -9.5 23.5t-24.5 8.5q-20 0 -42 -12
l-21 50q39 18 73 18q40 0 62.5 -24t22.5 -57q0 -35 -25 -60t-61 -37l-19 45q22 10 33 19.5z" />
    <glyph glyph-name="uni1EB4" unicode="&#x1eb4;" horiz-adv-x="680" 
d="M186 193l-71 -193h-85l273 700h75l272 -700h-85l-71 193h-308zM340 605l-127 -340h253zM473 886q0 -57 -33.5 -96.5t-99.5 -39.5t-99.5 39.5t-33.5 96.5h71q1 -31 16 -48.5t46 -17.5t46 17.5t16 48.5h71zM365.5 943q-12.5 5 -29.5 15q-10 6 -20 10.5t-18 4.5
q-12 0 -22.5 -9t-28.5 -30l-48 40q23 31 44.5 50t52.5 19q15 0 28.5 -5t33.5 -15q25 -14 36 -14q12 0 23 11.5t19 25.5l50 -28q-21 -36 -43 -58t-51 -22q-14 0 -26.5 5z" />
    <glyph glyph-name="uni1EB5" unicode="&#x1eb5;" horiz-adv-x="681" 
d="M592 -9q-44 0 -74 27t-37 76q-24 -45 -73.5 -74.5t-110.5 -29.5t-118 31t-93 91t-36 143t36 142.5t92.5 89.5t117.5 30q52 0 102 -23t80 -68v78h75v-384q0 -28 14 -44t34 -16q16 0 34 9l26 -52q-29 -26 -69 -26zM385.5 84q40.5 22 66.5 65t26 102q0 62 -27 106t-69 66
t-86 22t-83 -22t-63 -65t-24 -103q0 -62 26 -105.5t66.5 -65.5t83.5 -22t83.5 22zM443 716q0 -57 -33.5 -96.5t-99.5 -39.5t-99.5 39.5t-33.5 96.5h71q1 -31 16 -48.5t46 -17.5t46 17.5t16 48.5h71zM328.5 783q-12.5 5 -29.5 15q-10 6 -20 10.5t-18 4.5q-12 0 -22.5 -9
t-28.5 -30l-48 40q23 31 44.5 50t52.5 19q15 0 28.5 -5t33.5 -15q25 -14 36 -14q12 0 23 11.5t19 25.5l50 -28q-21 -36 -43 -58t-51 -22q-14 0 -26.5 5z" />
    <glyph glyph-name="uni1EB6" unicode="&#x1eb6;" horiz-adv-x="680" 
d="M186 193l-71 -193h-85l273 700h75l272 -700h-85l-71 193h-308zM340 605l-127 -340h253zM473 896q0 -57 -33.5 -96.5t-99.5 -39.5t-99.5 39.5t-33.5 96.5h71q1 -31 16 -48.5t46 -17.5t46 17.5t16 48.5h71zM298.5 -102.5q17.5 17.5 42.5 17.5t42 -17.5t17 -42.5t-17 -42.5
t-42 -17.5t-42.5 17.5t-17.5 42.5t17.5 42.5z" />
    <glyph glyph-name="uni1EB7" unicode="&#x1eb7;" horiz-adv-x="681" 
d="M268.5 -102.5q17.5 17.5 42.5 17.5t42 -17.5t17 -42.5t-17 -42.5t-42 -17.5t-42.5 17.5t-17.5 42.5t17.5 42.5zM592 -9q-44 0 -74 27t-37 76q-24 -45 -73.5 -74.5t-110.5 -29.5t-118 31t-93 91t-36 143t36 142.5t92.5 89.5t117.5 30q52 0 102 -23t80 -68v78h75v-384
q0 -28 14 -44t34 -16q16 0 34 9l26 -52q-29 -26 -69 -26zM385.5 84q40.5 22 66.5 65t26 102q0 62 -27 106t-69 66t-86 22t-83 -22t-63 -65t-24 -103q0 -62 26 -105.5t66.5 -65.5t83.5 -22t83.5 22zM443 736q0 -57 -33.5 -96.5t-99.5 -39.5t-99.5 39.5t-33.5 96.5h71
q1 -31 16 -48.5t46 -17.5t46 17.5t16 48.5h71z" />
    <glyph glyph-name="uni1EB8" unicode="&#x1eb8;" horiz-adv-x="573" 
d="M168 628v-240h266v-72h-266v-244h335v-72h-413v700h404v-72h-326zM254.5 -102.5q17.5 17.5 42.5 17.5t42 -17.5t17 -42.5t-17 -42.5t-42 -17.5t-42.5 17.5t-17.5 42.5t17.5 42.5z" />
    <glyph glyph-name="uni1EB9" unicode="&#x1eb9;" 
d="M416.5 15q-56.5 -27 -117.5 -27q-68 0 -124.5 31.5t-90.5 91.5t-34 142q0 84 35 143.5t92.5 90t124.5 30.5q71 0 121 -33t75.5 -88t25.5 -121q0 -33 -5 -58h-386q10 -79 57 -118t117 -39q49 0 89.5 20t68.5 62l50 -47q-42 -53 -98.5 -80zM444 287q0 53 -22 89t-56.5 53.5
t-73.5 17.5q-64 0 -110 -42t-52 -118h314zM245.5 -102.5q17.5 17.5 42.5 17.5t42 -17.5t17 -42.5t-17 -42.5t-42 -17.5t-42.5 17.5t-17.5 42.5t17.5 42.5z" />
    <glyph glyph-name="uni1EBA" unicode="&#x1eba;" horiz-adv-x="573" 
d="M290 831q13 11 13 29q0 17 -11 27t-28 10q-23 0 -49 -14l-24 58q46 20 84 20q46 0 72 -27.5t26 -65.5q0 -41 -29 -69t-70 -42l-22 51q25 12 38 23zM168 628v-240h266v-72h-266v-244h335v-72h-413v700h404v-72h-326z" />
    <glyph glyph-name="uni1EBB" unicode="&#x1ebb;" 
d="M298 647q13 11 13 29q0 17 -11 27t-28 10q-23 0 -49 -14l-24 58q46 20 84 20q46 0 72 -27.5t26 -65.5q0 -41 -29 -69t-70 -42l-22 51q25 12 38 23zM416.5 15q-56.5 -27 -117.5 -27q-68 0 -124.5 31.5t-90.5 91.5t-34 142q0 84 35 143.5t92.5 90t124.5 30.5q71 0 121 -33
t75.5 -88t25.5 -121q0 -33 -5 -58h-386q10 -79 57 -118t117 -39q49 0 89.5 20t68.5 62l50 -47q-42 -53 -98.5 -80zM444 287q0 53 -22 89t-56.5 53.5t-73.5 17.5q-64 0 -110 -42t-52 -118h314z" />
    <glyph glyph-name="uni1EBC" unicode="&#x1ebc;" horiz-adv-x="573" 
d="M168 628v-240h266v-72h-266v-244h335v-72h-413v700h404v-72h-326zM329.5 789.5q-15.5 8.5 -38.5 24.5q-17 13 -28.5 19.5t-22.5 6.5q-18 0 -32.5 -14t-36.5 -43l-48 41q19 31 53.5 60t68.5 29q19 0 36.5 -9.5t38.5 -26.5q3 -2 13 -9.5t18.5 -11t14.5 -3.5q13 0 25 13
t21.5 28t12.5 19l46 -36q-32 -49 -54.5 -72.5t-53.5 -23.5q-18 0 -33.5 8.5z" />
    <glyph glyph-name="uni1EBD" unicode="&#x1ebd;" 
d="M416.5 15q-56.5 -27 -117.5 -27q-68 0 -124.5 31.5t-90.5 91.5t-34 142q0 84 35 143.5t92.5 90t124.5 30.5q71 0 121 -33t75.5 -88t25.5 -121q0 -33 -5 -58h-386q10 -79 57 -118t117 -39q49 0 89.5 20t68.5 62l50 -47q-42 -53 -98.5 -80zM444 287q0 53 -22 89t-56.5 53.5
t-73.5 17.5q-64 0 -110 -42t-52 -118h314zM330.5 629.5q-15.5 8.5 -38.5 24.5q-17 13 -28.5 19.5t-22.5 6.5q-18 0 -32.5 -14t-36.5 -43l-48 41q19 31 53.5 60t68.5 29q19 0 36.5 -9.5t38.5 -26.5q3 -2 13 -9.5t18.5 -11t14.5 -3.5q13 0 25 13t21.5 28t12.5 19l46 -36
q-32 -49 -54.5 -72.5t-53.5 -23.5q-18 0 -33.5 8.5z" />
    <glyph glyph-name="uni1EBE" unicode="&#x1ebe;" horiz-adv-x="573" 
d="M168 628v-240h266v-72h-266v-244h335v-72h-413v700h404v-72h-326zM422 745l-126 97l-128 -97l-46 55l173 128l172 -128zM112 933l103 134l60 -46l-103 -133z" />
    <glyph glyph-name="uni1EBF" unicode="&#x1ebf;" 
d="M416.5 15q-56.5 -27 -117.5 -27q-68 0 -124.5 31.5t-90.5 91.5t-34 142q0 84 35 143.5t92.5 90t124.5 30.5q71 0 121 -33t75.5 -88t25.5 -121q0 -33 -5 -58h-386q10 -79 57 -118t117 -39q49 0 89.5 20t68.5 62l50 -47q-42 -53 -98.5 -80zM444 287q0 53 -22 89t-56.5 53.5
t-73.5 17.5q-64 0 -110 -42t-52 -118h314zM422 569l-126 97l-128 -97l-46 55l173 128l172 -128zM112 757l103 134l60 -46l-103 -133z" />
    <glyph glyph-name="uni1EC0" unicode="&#x1ec0;" horiz-adv-x="573" 
d="M168 628v-240h266v-72h-266v-244h335v-72h-413v700h404v-72h-326zM315 1021l60 46l103 -134l-60 -45zM422 745l-126 97l-128 -97l-46 55l173 128l172 -128z" />
    <glyph glyph-name="uni1EC1" unicode="&#x1ec1;" 
d="M416.5 15q-56.5 -27 -117.5 -27q-68 0 -124.5 31.5t-90.5 91.5t-34 142q0 84 35 143.5t92.5 90t124.5 30.5q71 0 121 -33t75.5 -88t25.5 -121q0 -33 -5 -58h-386q10 -79 57 -118t117 -39q49 0 89.5 20t68.5 62l50 -47q-42 -53 -98.5 -80zM444 287q0 53 -22 89t-56.5 53.5
t-73.5 17.5q-64 0 -110 -42t-52 -118h314zM422 549l-126 97l-128 -97l-46 55l173 128l172 -128zM315 825l60 46l103 -134l-60 -45z" />
    <glyph glyph-name="uni1EC2" unicode="&#x1ec2;" horiz-adv-x="573" 
d="M168 628v-240h266v-72h-266v-244h335v-72h-413v700h404v-72h-326zM422 745l-126 97l-128 -97l-46 55l173 128l172 -128zM415 949.5q11 9.5 11 25.5q0 15 -9.5 23.5t-24.5 8.5q-20 0 -42 -12l-21 50q39 18 73 18q40 0 62.5 -24t22.5 -57q0 -35 -25 -60t-61 -37l-19 45
q22 10 33 19.5z" />
    <glyph glyph-name="uni1EC3" unicode="&#x1ec3;" 
d="M416.5 15q-56.5 -27 -117.5 -27q-68 0 -124.5 31.5t-90.5 91.5t-34 142q0 84 35 143.5t92.5 90t124.5 30.5q71 0 121 -33t75.5 -88t25.5 -121q0 -33 -5 -58h-386q10 -79 57 -118t117 -39q49 0 89.5 20t68.5 62l50 -47q-42 -53 -98.5 -80zM444 287q0 53 -22 89t-56.5 53.5
t-73.5 17.5q-64 0 -110 -42t-52 -118h314zM422 549l-126 97l-128 -97l-46 55l173 128l172 -128zM415 753.5q11 9.5 11 25.5q0 15 -9.5 23.5t-24.5 8.5q-20 0 -42 -12l-21 50q39 18 73 18q40 0 62.5 -24t22.5 -57q0 -35 -25 -60t-61 -37l-19 45q22 10 33 19.5z" />
    <glyph glyph-name="uni1EC4" unicode="&#x1ec4;" horiz-adv-x="573" 
d="M168 628v-240h266v-72h-266v-244h335v-72h-413v700h404v-72h-326zM422 745l-126 97l-128 -97l-46 55l173 128l172 -128zM324.5 953q-12.5 5 -29.5 15q-10 6 -20 10.5t-18 4.5q-12 0 -22.5 -9t-28.5 -30l-48 40q23 31 44.5 50t52.5 19q15 0 28.5 -5t33.5 -15
q25 -14 36 -14q12 0 23 11.5t19 25.5l50 -28q-21 -36 -43 -58t-51 -22q-14 0 -26.5 5z" />
    <glyph glyph-name="uni1EC5" unicode="&#x1ec5;" 
d="M416.5 15q-56.5 -27 -117.5 -27q-68 0 -124.5 31.5t-90.5 91.5t-34 142q0 84 35 143.5t92.5 90t124.5 30.5q71 0 121 -33t75.5 -88t25.5 -121q0 -33 -5 -58h-386q10 -79 57 -118t117 -39q49 0 89.5 20t68.5 62l50 -47q-42 -53 -98.5 -80zM444 287q0 53 -22 89t-56.5 53.5
t-73.5 17.5q-64 0 -110 -42t-52 -118h314zM422 549l-126 97l-128 -97l-46 55l173 128l172 -128zM323.5 757q-12.5 5 -29.5 15q-10 6 -20 10.5t-18 4.5q-12 0 -22.5 -9t-28.5 -30l-48 40q23 31 44.5 50t52.5 19q15 0 28.5 -5t33.5 -15q25 -14 36 -14q12 0 23 11.5t19 25.5
l50 -28q-21 -36 -43 -58t-51 -22q-14 0 -26.5 5z" />
    <glyph glyph-name="uni1EC6" unicode="&#x1ec6;" horiz-adv-x="573" 
d="M252.5 -102.5q17.5 17.5 42.5 17.5t42 -17.5t17 -42.5t-17 -42.5t-42 -17.5t-42.5 17.5t-17.5 42.5t17.5 42.5zM168 628v-240h266v-72h-266v-244h335v-72h-413v700h404v-72h-326zM422 755l-126 97l-128 -97l-46 55l173 128l172 -128z" />
    <glyph glyph-name="uni1EC7" unicode="&#x1ec7;" 
d="M262.5 -102.5q17.5 17.5 42.5 17.5t42 -17.5t17 -42.5t-17 -42.5t-42 -17.5t-42.5 17.5t-17.5 42.5t17.5 42.5zM416.5 15q-56.5 -27 -117.5 -27q-68 0 -124.5 31.5t-90.5 91.5t-34 142q0 84 35 143.5t92.5 90t124.5 30.5q71 0 121 -33t75.5 -88t25.5 -121q0 -33 -5 -58
h-386q10 -79 57 -118t117 -39q49 0 89.5 20t68.5 62l50 -47q-42 -53 -98.5 -80zM444 287q0 53 -22 89t-56.5 53.5t-73.5 17.5q-64 0 -110 -42t-52 -118h314zM432 589l-126 97l-128 -97l-46 55l173 128l172 -128z" />
    <glyph glyph-name="uni1EC8" unicode="&#x1ec8;" horiz-adv-x="258" 
d="M129 831q13 11 13 29q0 17 -11 27t-28 10q-23 0 -49 -14l-24 58q46 20 84 20q46 0 72 -27.5t26 -65.5q0 -41 -29 -69t-70 -42l-22 51q25 12 38 23zM90 700h78v-700h-78v700z" />
    <glyph glyph-name="uni1EC9" unicode="&#x1ec9;" horiz-adv-x="255" 
d="M120 647q13 11 13 29q0 17 -11 27t-28 10q-23 0 -49 -14l-24 58q46 20 84 20q46 0 72 -27.5t26 -65.5q0 -41 -29 -69t-70 -42l-22 51q25 12 38 23zM91 504h75v-504h-75v504z" />
    <glyph glyph-name="uni1ECA" unicode="&#x1eca;" horiz-adv-x="259" 
d="M91 700h78v-700h-78v700zM87.5 -102.5q17.5 17.5 42.5 17.5t42 -17.5t17 -42.5t-17 -42.5t-42 -17.5t-42.5 17.5t-17.5 42.5t17.5 42.5z" />
    <glyph glyph-name="uni1ECB" unicode="&#x1ecb;" horiz-adv-x="257" 
d="M91 504h75v-504h-75v504zM87.5 699.5q17.5 16.5 41.5 16.5t41 -16.5t17 -40.5t-17.5 -41.5t-40.5 -17.5q-24 0 -41.5 17t-17.5 42q0 24 17.5 40.5zM86.5 -102.5q17.5 17.5 42.5 17.5t42 -17.5t17 -42.5t-17 -42.5t-42 -17.5t-42.5 17.5t-17.5 42.5t17.5 42.5z" />
    <glyph glyph-name="uni1ECC" unicode="&#x1ecc;" horiz-adv-x="843" 
d="M605.5 668q82.5 -48 130 -131.5t47.5 -186.5q0 -102 -47.5 -186t-130 -132t-183.5 -48t-184 48t-130.5 132t-47.5 186q0 103 47.5 186.5t130 131.5t184.5 48q101 0 183.5 -48zM279.5 604q-64.5 -38 -102 -105t-37.5 -149t37.5 -148.5t102 -104.5t142.5 -38q77 0 142 38
t102.5 104.5t37.5 148.5t-38 149t-102.5 105t-141.5 38q-78 0 -142.5 -38zM379.5 -102.5q17.5 17.5 42.5 17.5t42 -17.5t17 -42.5t-17 -42.5t-42 -17.5t-42.5 17.5t-17.5 42.5t17.5 42.5z" />
    <glyph glyph-name="uni1ECD" unicode="&#x1ecd;" horiz-adv-x="615" 
d="M440 482.5q59 -34.5 92 -94.5t33 -135t-33 -135t-92 -94.5t-132 -34.5t-132 34.5t-92.5 94.5t-33.5 135t33.5 135t92.5 94.5t132 34.5t132 -34.5zM213.5 423q-41.5 -25 -64.5 -69.5t-23 -99.5t23 -99.5t64.5 -69.5t94.5 -25q52 0 93.5 25t65 69.5t23.5 99.5t-23.5 99.5
t-65 69.5t-93.5 25q-53 0 -94.5 -25zM265.5 -102.5q17.5 17.5 42.5 17.5t42 -17.5t17 -42.5t-17 -42.5t-42 -17.5t-42.5 17.5t-17.5 42.5t17.5 42.5z" />
    <glyph glyph-name="uni1ECE" unicode="&#x1ece;" horiz-adv-x="843" 
d="M419 831q13 11 13 29q0 17 -11 27t-28 10q-23 0 -49 -14l-24 58q46 20 84 20q46 0 72 -27.5t26 -65.5q0 -41 -29 -69t-70 -42l-22 51q25 12 38 23zM605.5 668q82.5 -48 130 -131.5t47.5 -186.5q0 -102 -47.5 -186t-130 -132t-183.5 -48t-184 48t-130.5 132t-47.5 186
q0 103 47.5 186.5t130 131.5t184.5 48q101 0 183.5 -48zM279.5 604q-64.5 -38 -102 -105t-37.5 -149t37.5 -148.5t102 -104.5t142.5 -38q77 0 142 38t102.5 104.5t37.5 148.5t-38 149t-102.5 105t-141.5 38q-78 0 -142.5 -38z" />
    <glyph glyph-name="uni1ECF" unicode="&#x1ecf;" horiz-adv-x="615" 
d="M310 647q13 11 13 29q0 17 -11 27t-28 10q-23 0 -49 -14l-24 58q46 20 84 20q46 0 72 -27.5t26 -65.5q0 -41 -29 -69t-70 -42l-22 51q25 12 38 23zM440 482.5q59 -34.5 92 -94.5t33 -135t-33 -135t-92 -94.5t-132 -34.5t-132 34.5t-92.5 94.5t-33.5 135t33.5 135
t92.5 94.5t132 34.5t132 -34.5zM213.5 423q-41.5 -25 -64.5 -69.5t-23 -99.5t23 -99.5t64.5 -69.5t94.5 -25q52 0 93.5 25t65 69.5t23.5 99.5t-23.5 99.5t-65 69.5t-93.5 25q-53 0 -94.5 -25z" />
    <glyph glyph-name="uni1ED0" unicode="&#x1ed0;" horiz-adv-x="843" 
d="M605.5 668q82.5 -48 130 -131.5t47.5 -186.5q0 -102 -47.5 -186t-130 -132t-183.5 -48t-184 48t-130.5 132t-47.5 186q0 103 47.5 186.5t130 131.5t184.5 48q101 0 183.5 -48zM279.5 604q-64.5 -38 -102 -105t-37.5 -149t37.5 -148.5t102 -104.5t142.5 -38q77 0 142 38
t102.5 104.5t37.5 148.5t-38 149t-102.5 105t-141.5 38q-78 0 -142.5 -38zM549 745l-126 97l-128 -97l-46 55l173 128l172 -128zM239 933l103 134l60 -46l-103 -133z" />
    <glyph glyph-name="uni1ED1" unicode="&#x1ed1;" horiz-adv-x="615" 
d="M440 482.5q59 -34.5 92 -94.5t33 -135t-33 -135t-92 -94.5t-132 -34.5t-132 34.5t-92.5 94.5t-33.5 135t33.5 135t92.5 94.5t132 34.5t132 -34.5zM213.5 423q-41.5 -25 -64.5 -69.5t-23 -99.5t23 -99.5t64.5 -69.5t94.5 -25q52 0 93.5 25t65 69.5t23.5 99.5t-23.5 99.5
t-65 69.5t-93.5 25q-53 0 -94.5 -25zM435 549l-126 97l-128 -97l-46 55l173 128l172 -128zM125 737l103 134l60 -46l-103 -133z" />
    <glyph glyph-name="uni1ED2" unicode="&#x1ed2;" horiz-adv-x="843" 
d="M605.5 668q82.5 -48 130 -131.5t47.5 -186.5q0 -102 -47.5 -186t-130 -132t-183.5 -48t-184 48t-130.5 132t-47.5 186q0 103 47.5 186.5t130 131.5t184.5 48q101 0 183.5 -48zM279.5 604q-64.5 -38 -102 -105t-37.5 -149t37.5 -148.5t102 -104.5t142.5 -38q77 0 142 38
t102.5 104.5t37.5 148.5t-38 149t-102.5 105t-141.5 38q-78 0 -142.5 -38zM549 745l-126 97l-128 -97l-46 55l173 128l172 -128zM442 1021l60 46l103 -134l-60 -45z" />
    <glyph glyph-name="uni1ED3" unicode="&#x1ed3;" horiz-adv-x="615" 
d="M440 482.5q59 -34.5 92 -94.5t33 -135t-33 -135t-92 -94.5t-132 -34.5t-132 34.5t-92.5 94.5t-33.5 135t33.5 135t92.5 94.5t132 34.5t132 -34.5zM213.5 423q-41.5 -25 -64.5 -69.5t-23 -99.5t23 -99.5t64.5 -69.5t94.5 -25q52 0 93.5 25t65 69.5t23.5 99.5t-23.5 99.5
t-65 69.5t-93.5 25q-53 0 -94.5 -25zM435 549l-126 97l-128 -97l-46 55l173 128l172 -128zM328 825l60 46l103 -134l-60 -45z" />
    <glyph glyph-name="uni1ED4" unicode="&#x1ed4;" horiz-adv-x="843" 
d="M605.5 668q82.5 -48 130 -131.5t47.5 -186.5q0 -102 -47.5 -186t-130 -132t-183.5 -48t-184 48t-130.5 132t-47.5 186q0 103 47.5 186.5t130 131.5t184.5 48q101 0 183.5 -48zM279.5 604q-64.5 -38 -102 -105t-37.5 -149t37.5 -148.5t102 -104.5t142.5 -38q77 0 142 38
t102.5 104.5t37.5 148.5t-38 149t-102.5 105t-141.5 38q-78 0 -142.5 -38zM549 745l-126 97l-128 -97l-46 55l173 128l172 -128zM542 949.5q11 9.5 11 25.5q0 15 -9.5 23.5t-24.5 8.5q-20 0 -42 -12l-21 50q39 18 73 18q40 0 62.5 -24t22.5 -57q0 -35 -25 -60t-61 -37
l-19 45q22 10 33 19.5z" />
    <glyph glyph-name="uni1ED5" unicode="&#x1ed5;" horiz-adv-x="615" 
d="M440 482.5q59 -34.5 92 -94.5t33 -135t-33 -135t-92 -94.5t-132 -34.5t-132 34.5t-92.5 94.5t-33.5 135t33.5 135t92.5 94.5t132 34.5t132 -34.5zM213.5 423q-41.5 -25 -64.5 -69.5t-23 -99.5t23 -99.5t64.5 -69.5t94.5 -25q52 0 93.5 25t65 69.5t23.5 99.5t-23.5 99.5
t-65 69.5t-93.5 25q-53 0 -94.5 -25zM435 549l-126 97l-128 -97l-46 55l173 128l172 -128zM428 753.5q11 9.5 11 25.5q0 15 -9.5 23.5t-24.5 8.5q-20 0 -42 -12l-21 50q39 18 73 18q40 0 62.5 -24t22.5 -57q0 -35 -25 -60t-61 -37l-19 45q22 10 33 19.5z" />
    <glyph glyph-name="uni1ED6" unicode="&#x1ed6;" horiz-adv-x="843" 
d="M605.5 668q82.5 -48 130 -131.5t47.5 -186.5q0 -102 -47.5 -186t-130 -132t-183.5 -48t-184 48t-130.5 132t-47.5 186q0 103 47.5 186.5t130 131.5t184.5 48q101 0 183.5 -48zM279.5 604q-64.5 -38 -102 -105t-37.5 -149t37.5 -148.5t102 -104.5t142.5 -38q77 0 142 38
t102.5 104.5t37.5 148.5t-38 149t-102.5 105t-141.5 38q-78 0 -142.5 -38zM549 745l-126 97l-128 -97l-46 55l173 128l172 -128zM451.5 953q-12.5 5 -29.5 15q-10 6 -20 10.5t-18 4.5q-12 0 -22.5 -9t-28.5 -30l-48 40q23 31 44.5 50t52.5 19q15 0 28.5 -5t33.5 -15
q25 -14 36 -14q12 0 23 11.5t19 25.5l50 -28q-21 -36 -43 -58t-51 -22q-14 0 -26.5 5z" />
    <glyph glyph-name="uni1ED7" unicode="&#x1ed7;" horiz-adv-x="615" 
d="M440 482.5q59 -34.5 92 -94.5t33 -135t-33 -135t-92 -94.5t-132 -34.5t-132 34.5t-92.5 94.5t-33.5 135t33.5 135t92.5 94.5t132 34.5t132 -34.5zM213.5 423q-41.5 -25 -64.5 -69.5t-23 -99.5t23 -99.5t64.5 -69.5t94.5 -25q52 0 93.5 25t65 69.5t23.5 99.5t-23.5 99.5
t-65 69.5t-93.5 25q-53 0 -94.5 -25zM435 549l-126 97l-128 -97l-46 55l173 128l172 -128zM336.5 757q-12.5 5 -29.5 15q-10 6 -20 10.5t-18 4.5q-12 0 -22.5 -9t-28.5 -30l-48 40q23 31 44.5 50t52.5 19q15 0 28.5 -5t33.5 -15q25 -14 36 -14q12 0 23 11.5t19 25.5l50 -28
q-21 -36 -43 -58t-51 -22q-14 0 -26.5 5z" />
    <glyph glyph-name="uni1ED8" unicode="&#x1ed8;" horiz-adv-x="843" 
d="M549 755l-126 97l-128 -97l-46 55l173 128l172 -128zM605.5 668q82.5 -48 130 -131.5t47.5 -186.5q0 -102 -47.5 -186t-130 -132t-183.5 -48t-184 48t-130.5 132t-47.5 186q0 103 47.5 186.5t130 131.5t184.5 48q101 0 183.5 -48zM279.5 604q-64.5 -38 -102 -105
t-37.5 -149t37.5 -148.5t102 -104.5t142.5 -38q77 0 142 38t102.5 104.5t37.5 148.5t-38 149t-102.5 105t-141.5 38q-78 0 -142.5 -38zM379.5 -102.5q17.5 17.5 42.5 17.5t42 -17.5t17 -42.5t-17 -42.5t-42 -17.5t-42.5 17.5t-17.5 42.5t17.5 42.5z" />
    <glyph glyph-name="uni1ED9" unicode="&#x1ed9;" horiz-adv-x="615" 
d="M440 482.5q59 -34.5 92 -94.5t33 -135t-33 -135t-92 -94.5t-132 -34.5t-132 34.5t-92.5 94.5t-33.5 135t33.5 135t92.5 94.5t132 34.5t132 -34.5zM213.5 423q-41.5 -25 -64.5 -69.5t-23 -99.5t23 -99.5t64.5 -69.5t94.5 -25q52 0 93.5 25t65 69.5t23.5 99.5t-23.5 99.5
t-65 69.5t-93.5 25q-53 0 -94.5 -25zM435 589l-126 97l-128 -97l-46 55l173 128l172 -128zM265.5 -102.5q17.5 17.5 42.5 17.5t42 -17.5t17 -42.5t-17 -42.5t-42 -17.5t-42.5 17.5t-17.5 42.5t17.5 42.5z" />
    <glyph glyph-name="uni1EDA" unicode="&#x1eda;" horiz-adv-x="843" 
d="M746.5 515q36.5 -76 36.5 -165q0 -102 -47.5 -186t-130 -132t-183.5 -48t-184 48t-130.5 132t-47.5 186q0 103 47.5 186.5t130 131.5t184.5 48q78 0 145 -29q53 1 85 34t38 82l71 -14q-7 -50 -36.5 -91t-78.5 -57q64 -50 100.5 -126zM564 97q65 38 102.5 104.5
t37.5 148.5t-38 149t-102.5 105t-141.5 38q-78 0 -142.5 -38t-102 -105t-37.5 -149t37.5 -148.5t102 -104.5t142.5 -38q77 0 142 38zM569 903l23 -76l-219 -67l-23 75z" />
    <glyph glyph-name="uni1EDB" unicode="&#x1edb;" horiz-adv-x="615" 
d="M579 488.5q-29 -40.5 -77 -57.5q30 -35 46.5 -80.5t16.5 -97.5q0 -75 -33 -135t-92 -94.5t-132 -34.5t-132 34.5t-92.5 94.5t-33.5 135t33.5 135t92.5 94.5t132 34.5q77 0 137 -37q43 8 68 39t31 74l71 -14q-7 -50 -36 -90.5zM401.5 85q41.5 25 65 69.5t23.5 99.5
t-23.5 99.5t-65 69.5t-93.5 25q-53 0 -94.5 -25t-64.5 -69.5t-23 -99.5t23 -99.5t64.5 -69.5t94.5 -25q52 0 93.5 25zM452 743l23 -76l-219 -67l-23 75z" />
    <glyph glyph-name="uni1EDC" unicode="&#x1edc;" horiz-adv-x="843" 
d="M746.5 515q36.5 -76 36.5 -165q0 -102 -47.5 -186t-130 -132t-183.5 -48t-184 48t-130.5 132t-47.5 186q0 103 47.5 186.5t130 131.5t184.5 48q78 0 145 -29q53 1 85 34t38 82l71 -14q-7 -50 -36.5 -91t-78.5 -57q64 -50 100.5 -126zM564 97q65 38 102.5 104.5
t37.5 148.5t-38 149t-102.5 105t-141.5 38q-78 0 -142.5 -38t-102 -105t-37.5 -149t37.5 -148.5t102 -104.5t142.5 -38q77 0 142 38zM282 827l22 76l220 -68l-24 -75z" />
    <glyph glyph-name="uni1EDD" unicode="&#x1edd;" horiz-adv-x="615" 
d="M579 488.5q-29 -40.5 -77 -57.5q30 -35 46.5 -80.5t16.5 -97.5q0 -75 -33 -135t-92 -94.5t-132 -34.5t-132 34.5t-92.5 94.5t-33.5 135t33.5 135t92.5 94.5t132 34.5q77 0 137 -37q43 8 68 39t31 74l71 -14q-7 -50 -36 -90.5zM401.5 85q41.5 25 65 69.5t23.5 99.5
t-23.5 99.5t-65 69.5t-93.5 25q-53 0 -94.5 -25t-64.5 -69.5t-23 -99.5t23 -99.5t64.5 -69.5t94.5 -25q52 0 93.5 25zM160 667l22 76l220 -68l-24 -75z" />
    <glyph glyph-name="uni1EDE" unicode="&#x1ede;" horiz-adv-x="843" 
d="M344 883l-24 58q46 20 84 20q46 0 72 -27.5t26 -65.5q0 -41 -29 -69t-70 -42l-22 51q25 12 38 23t13 29q0 17 -11 27t-28 10q-23 0 -49 -14zM746.5 515q36.5 -76 36.5 -165q0 -102 -47.5 -186t-130 -132t-183.5 -48t-184 48t-130.5 132t-47.5 186q0 103 47.5 186.5
t130 131.5t184.5 48q78 0 145 -29q53 1 85 34t38 82l71 -14q-7 -50 -36.5 -91t-78.5 -57q64 -50 100.5 -126zM564 97q65 38 102.5 104.5t37.5 148.5t-38 149t-102.5 105t-141.5 38q-78 0 -142.5 -38t-102 -105t-37.5 -149t37.5 -148.5t102 -104.5t142.5 -38q77 0 142 38z
" />
    <glyph glyph-name="uni1EDF" unicode="&#x1edf;" horiz-adv-x="615" 
d="M225 699l-24 58q46 20 84 20q46 0 72 -27.5t26 -65.5q0 -41 -29 -69t-70 -42l-22 51q25 12 38 23t13 29q0 17 -11 27t-28 10q-23 0 -49 -14zM579 488.5q-29 -40.5 -77 -57.5q30 -35 46.5 -80.5t16.5 -97.5q0 -75 -33 -135t-92 -94.5t-132 -34.5t-132 34.5t-92.5 94.5
t-33.5 135t33.5 135t92.5 94.5t132 34.5q77 0 137 -37q43 8 68 39t31 74l71 -14q-7 -50 -36 -90.5zM401.5 85q41.5 25 65 69.5t23.5 99.5t-23.5 99.5t-65 69.5t-93.5 25q-53 0 -94.5 -25t-64.5 -69.5t-23 -99.5t23 -99.5t64.5 -69.5t94.5 -25q52 0 93.5 25z" />
    <glyph glyph-name="uni1EE0" unicode="&#x1ee0;" horiz-adv-x="843" 
d="M746.5 515q36.5 -76 36.5 -165q0 -102 -47.5 -186t-130 -132t-183.5 -48t-184 48t-130.5 132t-47.5 186q0 103 47.5 186.5t130 131.5t184.5 48q78 0 145 -29q53 1 85 34t38 82l71 -14q-7 -50 -36.5 -91t-78.5 -57q64 -50 100.5 -126zM564 97q65 38 102.5 104.5
t37.5 148.5t-38 149t-102.5 105t-141.5 38q-78 0 -142.5 -38t-102 -105t-37.5 -149t37.5 -148.5t102 -104.5t142.5 -38q77 0 142 38zM458.5 789.5q-15.5 8.5 -38.5 24.5q-17 13 -28.5 19.5t-22.5 6.5q-18 0 -32.5 -14t-36.5 -43l-48 41q19 31 53.5 60t68.5 29
q19 0 36.5 -9.5t38.5 -26.5q3 -2 13 -9.5t18.5 -11t14.5 -3.5q13 0 25 13t21.5 28t12.5 19l46 -36q-32 -49 -54.5 -72.5t-53.5 -23.5q-18 0 -33.5 8.5z" />
    <glyph glyph-name="uni1EE1" unicode="&#x1ee1;" horiz-adv-x="615" 
d="M579 488.5q-29 -40.5 -77 -57.5q30 -35 46.5 -80.5t16.5 -97.5q0 -75 -33 -135t-92 -94.5t-132 -34.5t-132 34.5t-92.5 94.5t-33.5 135t33.5 135t92.5 94.5t132 34.5q77 0 137 -37q43 8 68 39t31 74l71 -14q-7 -50 -36 -90.5zM401.5 85q41.5 25 65 69.5t23.5 99.5
t-23.5 99.5t-65 69.5t-93.5 25q-53 0 -94.5 -25t-64.5 -69.5t-23 -99.5t23 -99.5t64.5 -69.5t94.5 -25q52 0 93.5 25zM349.5 631.5q-15.5 8.5 -38.5 24.5q-17 13 -28.5 19.5t-22.5 6.5q-18 0 -32.5 -14t-36.5 -43l-48 41q19 31 53.5 60t68.5 29q19 0 36.5 -9.5t38.5 -26.5
q3 -2 13 -9.5t18.5 -11t14.5 -3.5q13 0 25 13t21.5 28t12.5 19l46 -36q-32 -49 -54.5 -72.5t-53.5 -23.5q-18 0 -33.5 8.5z" />
    <glyph glyph-name="uni1EE2" unicode="&#x1ee2;" horiz-adv-x="843" 
d="M746.5 515q36.5 -76 36.5 -165q0 -102 -47.5 -186t-130 -132t-183.5 -48t-184 48t-130.5 132t-47.5 186q0 103 47.5 186.5t130 131.5t184.5 48q78 0 145 -29q53 1 85 34t38 82l71 -14q-7 -50 -36.5 -91t-78.5 -57q64 -50 100.5 -126zM564 97q65 38 102.5 104.5
t37.5 148.5t-38 149t-102.5 105t-141.5 38q-78 0 -142.5 -38t-102 -105t-37.5 -149t37.5 -148.5t102 -104.5t142.5 -38q77 0 142 38zM379.5 -102.5q17.5 17.5 42.5 17.5t42 -17.5t17 -42.5t-17 -42.5t-42 -17.5t-42.5 17.5t-17.5 42.5t17.5 42.5z" />
    <glyph glyph-name="uni1EE3" unicode="&#x1ee3;" horiz-adv-x="615" 
d="M265.5 -102.5q17.5 17.5 42.5 17.5t42 -17.5t17 -42.5t-17 -42.5t-42 -17.5t-42.5 17.5t-17.5 42.5t17.5 42.5zM579 488.5q-29 -40.5 -77 -57.5q30 -35 46.5 -80.5t16.5 -97.5q0 -75 -33 -135t-92 -94.5t-132 -34.5t-132 34.5t-92.5 94.5t-33.5 135t33.5 135t92.5 94.5
t132 34.5q77 0 137 -37q43 8 68 39t31 74l71 -14q-7 -50 -36 -90.5zM401.5 85q41.5 25 65 69.5t23.5 99.5t-23.5 99.5t-65 69.5t-93.5 25q-53 0 -94.5 -25t-64.5 -69.5t-23 -99.5t23 -99.5t64.5 -69.5t94.5 -25q52 0 93.5 25z" />
    <glyph glyph-name="uni1EE4" unicode="&#x1ee4;" horiz-adv-x="684" 
d="M604 244q0 -84 -36.5 -143t-96 -88t-129.5 -29t-129.5 29t-96 88t-36.5 143v456h79v-448q0 -64 25 -107.5t67 -64.5t91 -21t91 21t67 64.5t25 107.5v448h79v-456zM300.5 -102.5q17.5 17.5 42.5 17.5t42 -17.5t17 -42.5t-17 -42.5t-42 -17.5t-42.5 17.5t-17.5 42.5
t17.5 42.5z" />
    <glyph glyph-name="uni1EE5" unicode="&#x1ee5;" 
d="M494 0h-76v90q-26 -50 -70.5 -75.5t-96.5 -25.5q-47 0 -88.5 21.5t-67 64t-25.5 103.5v326h76v-308q0 -67 33.5 -101t83.5 -34q39 0 74.5 21.5t58 64t22.5 101.5v256h76v-504zM212.5 -102.5q17.5 17.5 42.5 17.5t42 -17.5t17 -42.5t-17 -42.5t-42 -17.5t-42.5 17.5
t-17.5 42.5t17.5 42.5z" />
    <glyph glyph-name="uni1EE6" unicode="&#x1ee6;" horiz-adv-x="684" 
d="M330 831q13 11 13 29q0 17 -11 27t-28 10q-23 0 -49 -14l-24 58q46 20 84 20q46 0 72 -27.5t26 -65.5q0 -41 -29 -69t-70 -42l-22 51q25 12 38 23zM604 244q0 -84 -36.5 -143t-96 -88t-129.5 -29t-129.5 29t-96 88t-36.5 143v456h79v-448q0 -64 25 -107.5t67 -64.5
t91 -21t91 21t67 64.5t25 107.5v448h79v-456z" />
    <glyph glyph-name="uni1EE7" unicode="&#x1ee7;" 
d="M270 647q13 11 13 29q0 17 -11 27t-28 10q-23 0 -49 -14l-24 58q46 20 84 20q46 0 72 -27.5t26 -65.5q0 -41 -29 -69t-70 -42l-22 51q25 12 38 23zM494 0h-76v90q-26 -50 -70.5 -75.5t-96.5 -25.5q-47 0 -88.5 21.5t-67 64t-25.5 103.5v326h76v-308q0 -67 33.5 -101
t83.5 -34q39 0 74.5 21.5t58 64t22.5 101.5v256h76v-504z" />
    <glyph glyph-name="uni1EE8" unicode="&#x1ee8;" horiz-adv-x="754" 
d="M686 709.5q-31 -41.5 -82 -57.5v-408q0 -84 -36.5 -143t-96 -88t-129.5 -29t-129.5 29t-96 88t-36.5 143v456h79v-448q0 -64 25 -107.5t67 -64.5t91 -21t91 21t67 64.5t25 107.5v448q55 0 88.5 33t39.5 83l71 -14q-7 -51 -38 -92.5zM471 903l23 -76l-219 -67l-23 75z" />
    <glyph glyph-name="uni1EE9" unicode="&#x1ee9;" horiz-adv-x="647" 
d="M578 512q-32 -42 -84 -56v-456h-76v90q-26 -50 -70.5 -75.5t-96.5 -25.5q-47 0 -88.5 21.5t-67 64t-25.5 103.5v326h76v-308q0 -67 33.5 -101t83.5 -34q39 0 74.5 21.5t58 64t22.5 101.5v256q55 0 88.5 33t39.5 83l71 -14q-7 -52 -39 -94zM411 743l23 -76l-219 -67
l-23 75z" />
    <glyph glyph-name="uni1EEA" unicode="&#x1eea;" horiz-adv-x="754" 
d="M686 709.5q-31 -41.5 -82 -57.5v-408q0 -84 -36.5 -143t-96 -88t-129.5 -29t-129.5 29t-96 88t-36.5 143v456h79v-448q0 -64 25 -107.5t67 -64.5t91 -21t91 21t67 64.5t25 107.5v448q55 0 88.5 33t39.5 83l71 -14q-7 -51 -38 -92.5zM192 827l22 76l220 -68l-24 -75z" />
    <glyph glyph-name="uni1EEB" unicode="&#x1eeb;" horiz-adv-x="647" 
d="M578 512q-32 -42 -84 -56v-456h-76v90q-26 -50 -70.5 -75.5t-96.5 -25.5q-47 0 -88.5 21.5t-67 64t-25.5 103.5v326h76v-308q0 -67 33.5 -101t83.5 -34q39 0 74.5 21.5t58 64t22.5 101.5v256q55 0 88.5 33t39.5 83l71 -14q-7 -52 -39 -94zM127 667l22 76l220 -68l-24 -75
z" />
    <glyph glyph-name="uni1EEC" unicode="&#x1eec;" horiz-adv-x="754" 
d="M255 883l-24 58q46 20 84 20q46 0 72 -27.5t26 -65.5q0 -41 -29 -69t-70 -42l-22 51q25 12 38 23t13 29q0 17 -11 27t-28 10q-23 0 -49 -14zM686 709.5q-31 -41.5 -82 -57.5v-408q0 -84 -36.5 -143t-96 -88t-129.5 -29t-129.5 29t-96 88t-36.5 143v456h79v-448
q0 -64 25 -107.5t67 -64.5t91 -21t91 21t67 64.5t25 107.5v448q55 0 88.5 33t39.5 83l71 -14q-7 -51 -38 -92.5z" />
    <glyph glyph-name="uni1EED" unicode="&#x1eed;" horiz-adv-x="647" 
d="M195 699l-24 58q46 20 84 20q46 0 72 -27.5t26 -65.5q0 -41 -29 -69t-70 -42l-22 51q25 12 38 23t13 29q0 17 -11 27t-28 10q-23 0 -49 -14zM578 512q-32 -42 -84 -56v-456h-76v90q-26 -50 -70.5 -75.5t-96.5 -25.5q-47 0 -88.5 21.5t-67 64t-25.5 103.5v326h76v-308
q0 -67 33.5 -101t83.5 -34q39 0 74.5 21.5t58 64t22.5 101.5v256q55 0 88.5 33t39.5 83l71 -14q-7 -52 -39 -94z" />
    <glyph glyph-name="uni1EEE" unicode="&#x1eee;" horiz-adv-x="754" 
d="M686 709.5q-31 -41.5 -82 -57.5v-408q0 -84 -36.5 -143t-96 -88t-129.5 -29t-129.5 29t-96 88t-36.5 143v456h79v-448q0 -64 25 -107.5t67 -64.5t91 -21t91 21t67 64.5t25 107.5v448q55 0 88.5 33t39.5 83l71 -14q-7 -51 -38 -92.5zM374.5 789.5q-15.5 8.5 -38.5 24.5
q-17 13 -28.5 19.5t-22.5 6.5q-18 0 -32.5 -14t-36.5 -43l-48 41q19 31 53.5 60t68.5 29q19 0 36.5 -9.5t38.5 -26.5q3 -2 13 -9.5t18.5 -11t14.5 -3.5q13 0 25 13t21.5 28t12.5 19l46 -36q-32 -49 -54.5 -72.5t-53.5 -23.5q-18 0 -33.5 8.5z" />
    <glyph glyph-name="uni1EEF" unicode="&#x1eef;" horiz-adv-x="647" 
d="M578 512q-32 -42 -84 -56v-456h-76v90q-26 -50 -70.5 -75.5t-96.5 -25.5q-47 0 -88.5 21.5t-67 64t-25.5 103.5v326h76v-308q0 -67 33.5 -101t83.5 -34q39 0 74.5 21.5t58 64t22.5 101.5v256q55 0 88.5 33t39.5 83l71 -14q-7 -52 -39 -94zM315.5 629.5
q-15.5 8.5 -38.5 24.5q-17 13 -28.5 19.5t-22.5 6.5q-18 0 -32.5 -14t-36.5 -43l-48 41q19 31 53.5 60t68.5 29q19 0 36.5 -9.5t38.5 -26.5q3 -2 13 -9.5t18.5 -11t14.5 -3.5q13 0 25 13t21.5 28t12.5 19l46 -36q-32 -49 -54.5 -72.5t-53.5 -23.5q-18 0 -33.5 8.5z" />
    <glyph glyph-name="uni1EF0" unicode="&#x1ef0;" horiz-adv-x="754" 
d="M686 709.5q-31 -41.5 -82 -57.5v-408q0 -84 -36.5 -143t-96 -88t-129.5 -29t-129.5 29t-96 88t-36.5 143v456h79v-448q0 -64 25 -107.5t67 -64.5t91 -21t91 21t67 64.5t25 107.5v448q55 0 88.5 33t39.5 83l71 -14q-7 -51 -38 -92.5zM300.5 -102.5q17.5 17.5 42.5 17.5
t42 -17.5t17 -42.5t-17 -42.5t-42 -17.5t-42.5 17.5t-17.5 42.5t17.5 42.5z" />
    <glyph glyph-name="uni1EF1" unicode="&#x1ef1;" horiz-adv-x="647" 
d="M578 512q-32 -42 -84 -56v-456h-76v90q-26 -50 -70.5 -75.5t-96.5 -25.5q-47 0 -88.5 21.5t-67 64t-25.5 103.5v326h76v-308q0 -67 33.5 -101t83.5 -34q39 0 74.5 21.5t58 64t22.5 101.5v256q55 0 88.5 33t39.5 83l71 -14q-7 -52 -39 -94zM212.5 -102.5
q17.5 17.5 42.5 17.5t42 -17.5t17 -42.5t-17 -42.5t-42 -17.5t-42.5 17.5t-17.5 42.5t17.5 42.5z" />
    <glyph glyph-name="Ygrave" unicode="&#x1ef2;" horiz-adv-x="645" 
d="M362 0h-79v298l-263 402h93l209 -331l210 331h93l-263 -402v-298zM175 827l22 76l220 -68l-24 -75z" />
    <glyph glyph-name="ygrave" unicode="&#x1ef3;" horiz-adv-x="600" 
d="M520 13q0 -80 -30 -135.5t-82 -83.5t-119 -28q-83 0 -148 42t-91 125l73 28q20 -63 65 -94t103 -31q71 0 113.5 45t41.5 128l-1 93q-26 -46 -70.5 -71.5t-97.5 -25.5q-50 0 -94.5 22.5t-72 65.5t-27.5 103v308h76v-292q0 -67 33.5 -101t88.5 -34q45 0 82.5 22t59.5 65
t22 102v238h75v-491zM139 667l22 76l220 -68l-24 -75z" />
    <glyph glyph-name="uni1EF4" unicode="&#x1ef4;" horiz-adv-x="645" 
d="M280.5 -102.5q17.5 17.5 42.5 17.5t42 -17.5t17 -42.5t-17 -42.5t-42 -17.5t-42.5 17.5t-17.5 42.5t17.5 42.5zM362 0h-79v298l-263 402h93l209 -331l210 331h93l-263 -402v-298z" />
    <glyph glyph-name="uni1EF5" unicode="&#x1ef5;" horiz-adv-x="632" 
d="M520 13q0 -80 -30 -135.5t-82 -83.5t-119 -28q-83 0 -148 42t-91 125l73 28q20 -63 65 -94t103 -31q71 0 113.5 45t41.5 128l-1 93q-26 -46 -70.5 -71.5t-97.5 -25.5q-50 0 -94.5 22.5t-72 65.5t-27.5 103v308h76v-292q0 -67 33.5 -101t88.5 -34q45 0 82.5 22t59.5 65
t22 102v238h75v-491zM500.5 -210.5q17.5 17.5 42.5 17.5t42 -17.5t17 -42.5t-17 -42.5t-42 -17.5t-42.5 17.5t-17.5 42.5t17.5 42.5z" />
    <glyph glyph-name="uni1EF6" unicode="&#x1ef6;" horiz-adv-x="645" 
d="M320 831q13 11 13 29q0 17 -11 27t-28 10q-23 0 -49 -14l-24 58q46 20 84 20q46 0 72 -27.5t26 -65.5q0 -41 -29 -69t-70 -42l-22 51q25 12 38 23zM362 0h-79v298l-263 402h93l209 -331l210 331h93l-263 -402v-298z" />
    <glyph glyph-name="uni1EF7" unicode="&#x1ef7;" horiz-adv-x="600" 
d="M292 647q13 11 13 29q0 17 -11 27t-28 10q-23 0 -49 -14l-24 58q46 20 84 20q46 0 72 -27.5t26 -65.5q0 -41 -29 -69t-70 -42l-22 51q25 12 38 23zM520 13q0 -80 -30 -135.5t-82 -83.5t-119 -28q-83 0 -148 42t-91 125l73 28q20 -63 65 -94t103 -31q71 0 113.5 45
t41.5 128l-1 93q-26 -46 -70.5 -71.5t-97.5 -25.5q-50 0 -94.5 22.5t-72 65.5t-27.5 103v308h76v-292q0 -67 33.5 -101t88.5 -34q45 0 82.5 22t59.5 65t22 102v238h75v-491z" />
    <glyph glyph-name="uni1EF8" unicode="&#x1ef8;" horiz-adv-x="645" 
d="M362 0h-79v298l-263 402h93l209 -331l210 331h93l-263 -402v-298zM355.5 769.5q-15.5 8.5 -38.5 24.5q-17 13 -28.5 19.5t-22.5 6.5q-18 0 -32.5 -14t-36.5 -43l-48 41q19 31 53.5 60t68.5 29q19 0 36.5 -9.5t38.5 -26.5q3 -2 13 -9.5t18.5 -11t14.5 -3.5q13 0 25 13
t21.5 28t12.5 19l46 -36q-32 -49 -54.5 -72.5t-53.5 -23.5q-18 0 -33.5 8.5z" />
    <glyph glyph-name="uni1EF9" unicode="&#x1ef9;" horiz-adv-x="600" 
d="M520 13q0 -80 -30 -135.5t-82 -83.5t-119 -28q-83 0 -148 42t-91 125l73 28q20 -63 65 -94t103 -31q71 0 113.5 45t41.5 128l-1 93q-26 -46 -70.5 -71.5t-97.5 -25.5q-50 0 -94.5 22.5t-72 65.5t-27.5 103v308h76v-292q0 -67 33.5 -101t88.5 -34q45 0 82.5 22t59.5 65
t22 102v238h75v-491zM346.5 629.5q-15.5 8.5 -38.5 24.5q-17 13 -28.5 19.5t-22.5 6.5q-18 0 -32.5 -14t-36.5 -43l-48 41q19 31 53.5 60t68.5 29q19 0 36.5 -9.5t38.5 -26.5q3 -2 13 -9.5t18.5 -11t14.5 -3.5q13 0 25 13t21.5 28t12.5 19l46 -36q-32 -49 -54.5 -72.5
t-53.5 -23.5q-18 0 -33.5 8.5z" />
    <glyph glyph-name="endash" unicode="&#x2013;" horiz-adv-x="498" 
d="M438 327v-71h-378v71h378z" />
    <glyph glyph-name="emdash" unicode="&#x2014;" horiz-adv-x="689" 
d="M629 327v-71h-569v71h569z" />
    <glyph glyph-name="quoteleft" unicode="&#x2018;" horiz-adv-x="240" 
d="M119 403l-89 33l119 266l61 -24z" />
    <glyph glyph-name="quoteright" unicode="&#x2019;" horiz-adv-x="240" 
d="M121 733l89 -33l-119 -266l-61 24z" />
    <glyph glyph-name="quotesinglbase" unicode="&#x201a;" horiz-adv-x="240" 
d="M121 128l89 -33l-119 -266l-61 24z" />
    <glyph glyph-name="quotedblleft" unicode="&#x201c;" horiz-adv-x="406" 
d="M119 403l-89 33l119 266l61 -24zM285 403l-89 33l119 266l61 -24z" />
    <glyph glyph-name="quotedblright" unicode="&#x201d;" horiz-adv-x="409" 
d="M121 733l89 -33l-119 -266l-61 24zM290 733l89 -33l-119 -266l-61 24z" />
    <glyph glyph-name="quotedblbase" unicode="&#x201e;" horiz-adv-x="409" 
d="M121 128l89 -33l-119 -266l-61 24zM290 128l89 -33l-119 -266l-61 24z" />
    <glyph glyph-name="dagger" unicode="&#x2020;" horiz-adv-x="460" 
d="M269 509h151v-71h-151v-438h-78v438h-151v71h151v191h78v-191z" />
    <glyph glyph-name="daggerdbl" unicode="&#x2021;" horiz-adv-x="460" 
d="M420 192h-151v-192h-78v192h-151v70h151v176h-151v71h151v191h78v-191h151v-71h-151v-176h151v-70z" />
    <glyph glyph-name="bullet" unicode="&#x2022;" horiz-adv-x="236" 
d="M173 216q-23 -23 -54 -23q-33 0 -56 23t-23 55t23 54.5t56 22.5q32 0 54.5 -22.5t22.5 -54.5t-23 -55z" />
    <glyph glyph-name="ellipsis" unicode="&#x2026;" horiz-adv-x="745" 
d="M82.5 91.5q17.5 17.5 42.5 17.5t42 -17.5t17 -42.5t-17 -42.5t-42 -17.5t-42.5 17.5t-17.5 42.5t17.5 42.5zM578.5 91.5q17.5 17.5 42.5 17.5t42 -17.5t17 -42.5t-17 -42.5t-42 -17.5t-42.5 17.5t-17.5 42.5t17.5 42.5zM330.5 91.5q17.5 17.5 42.5 17.5t42 -17.5
t17 -42.5t-17 -42.5t-42 -17.5t-42.5 17.5t-17.5 42.5t17.5 42.5z" />
    <glyph glyph-name="perthousand" unicode="&#x2030;" horiz-adv-x="1421" 
d="M267 35l434 681l55 -34l-435 -682zM74 625.5q24 41.5 64.5 66t89.5 24.5t90.5 -24.5t66 -66t24.5 -91.5q0 -48 -24.5 -88.5t-66 -64t-90.5 -23.5t-89.5 23.5t-64.5 64t-24 88.5q0 50 24 91.5zM157 461q29 -29 71 -29q43 0 71 29t28 73q0 46 -27.5 74.5t-71.5 28.5
q-42 0 -71 -29t-29 -74q0 -44 29 -73zM611 252.5q24 41.5 64.5 66t89.5 24.5t90.5 -24.5t66 -66t24.5 -91.5q0 -48 -24.5 -88.5t-66 -64t-90.5 -23.5t-89.5 23.5t-64.5 64t-24 88.5q0 50 24 91.5zM694 88q29 -29 71 -29q43 0 71 29t28 73q0 46 -27.5 74.5t-71.5 28.5
q-42 0 -71 -29t-29 -74q0 -44 29 -73zM1036 252.5q24 41.5 64.5 66t89.5 24.5t90.5 -24.5t66 -66t24.5 -91.5q0 -48 -24.5 -88.5t-66 -64t-90.5 -23.5t-89.5 23.5t-64.5 64t-24 88.5q0 50 24 91.5zM1119 88q29 -29 71 -29q43 0 71 29t28 73q0 46 -27.5 74.5t-71.5 28.5
q-42 0 -71 -29t-29 -74q0 -44 29 -73z" />
    <glyph glyph-name="guilsinglleft" unicode="&#x2039;" horiz-adv-x="329" 
d="M279 101l-56 -49l-193 226l193 225l56 -49l-149 -176z" />
    <glyph glyph-name="guilsinglright" unicode="&#x203a;" horiz-adv-x="329" 
d="M50 454l56 49l193 -225l-193 -226l-56 49l149 177z" />
    <glyph glyph-name="fraction" unicode="&#x2044;" horiz-adv-x="639" 
d="M80 35l434 681l55 -34l-435 -682z" />
    <glyph glyph-name="franc" unicode="&#x20a3;" horiz-adv-x="613" 
d="M217 628v-240h266v-72h-266v-124h118v-60h-118v-132h-78v132h-119v60h119v508h404v-72h-326z" />
    <glyph glyph-name="dong" unicode="&#x20ab;" horiz-adv-x="589" 
d="M559 592h-92v-455h-68v48q-23 -27 -59.5 -41.5t-81.5 -14.5q-55 0 -103 24.5t-76.5 71.5t-28.5 113q0 67 29 113.5t76.5 69.5t102.5 23q44 0 80.5 -15t60.5 -43v106h-155v60h155v64h68v-64h92v-60zM362.5 232q36.5 38 36.5 101q0 65 -39 106t-104 41q-63 0 -100 -39
t-37 -102q0 -64 39.5 -104.5t105.5 -40.5q62 0 98.5 38zM50 60h417v-60h-417v60z" />
    <glyph glyph-name="Euro" unicode="&#x20ac;" horiz-adv-x="817" 
d="M777 169q-48 -86 -127 -135.5t-172 -49.5q-72 0 -141 30t-120 88.5t-72 141.5h-115v58h104q-2 30 -2 48q0 28 3 53h-105v59h116q22 83 75 140t123.5 85.5t145.5 28.5q71 0 138 -26t119 -83l-54 -57q-43 49 -93.5 71t-109.5 22q-93 0 -163.5 -47.5t-99.5 -133.5h373v-59
h-386q-3 -24 -3 -49q0 -29 4 -52h385v-58h-372q30 -88 102 -136t155 -48q72 0 135 38t98 109z" />
    <glyph glyph-name="uni20AD" unicode="&#x20ad;" horiz-adv-x="649" 
d="M619 320h-314l314 -320h-115l-326 331v-331h-78v320h-70v60h70v320h78v-326l326 326h100l-314 -320h329v-60z" />
    <glyph glyph-name="uni2116" unicode="&#x2116;" horiz-adv-x="1161" 
d="M90 700h78l403 -560v560h78v-700h-78l-403 563v-563h-78v700zM776 625.5q24 41.5 64.5 66t89.5 24.5t90.5 -24.5t66 -66t24.5 -91.5q0 -48 -24.5 -88.5t-66 -64t-90.5 -23.5t-89.5 23.5t-64.5 64t-24 88.5q0 50 24 91.5zM859 461q29 -29 71 -29q43 0 71 29t28 73
q0 46 -27.5 74.5t-71.5 28.5q-42 0 -71 -29t-29 -74q0 -44 29 -73z" />
    <glyph glyph-name="trademark" unicode="&#x2122;" horiz-adv-x="776" 
d="M147 635h-107v65h285v-65h-108v-289h-70v289zM380 700h78l100 -188l99 188h79v-354h-68v217l-83 -141h-54l-83 141v-217h-68v354z" />
    <glyph glyph-name="uni2153" unicode="&#x2153;" horiz-adv-x="953" 
d="M217 35l434 681l55 -34l-435 -682zM214 699v-424h-67v363h-57v61h124zM863 121q0 -57 -42.5 -91t-100.5 -34q-43 0 -81 20t-60 60l57 37q12 -26 36 -40t51 -14q32 0 53 16t21 46q0 37 -32.5 53t-92.5 16v63q54 0 80.5 18.5t26.5 49.5q0 26 -18 41.5t-45 15.5
q-50 0 -78 -42l-48 36q21 33 56.5 50.5t76.5 17.5q51 0 87.5 -29.5t36.5 -79.5q0 -36 -19 -63.5t-58 -37.5q93 -23 93 -109z" />
    <glyph glyph-name="uni2154" unicode="&#x2154;" horiz-adv-x="1040" 
d="M950 121q0 -57 -42.5 -91t-100.5 -34q-43 0 -81 20t-60 60l57 37q12 -26 36 -40t51 -14q32 0 53 16t21 46q0 37 -32.5 53t-92.5 16v63q54 0 80.5 18.5t26.5 49.5q0 26 -18 41.5t-45 15.5q-50 0 -78 -42l-48 36q21 33 56.5 50.5t76.5 17.5q51 0 87.5 -29.5t36.5 -79.5
q0 -36 -19 -63.5t-58 -37.5q93 -23 93 -109zM311 35l434 681l55 -34l-435 -682zM100 282v64l142 137q58 56 58 108q0 30 -18 47t-48 17q-29 0 -54 -18t-31 -50l-59 19q11 52 54 81t94 29q56 0 92.5 -33t36.5 -92q0 -41 -20 -75.5t-57 -69.5l-107 -100h194v-64h-277z" />
    <glyph glyph-name="uni2155" unicode="&#x2155;" horiz-adv-x="991" 
d="M218 35l434 681l55 -34l-435 -682zM214 699v-424h-67v363h-57v61h124zM695.5 67.5q24.5 -15.5 52.5 -15.5q36 0 61 24.5t25 66.5q0 39 -23 59t-57 20q-22 0 -43.5 -8.5t-37.5 -25.5h-48v236h243v-64h-178v-105q37 26 81 26q53 0 91.5 -36t38.5 -100q0 -48 -21 -83
t-56 -53.5t-76 -18.5q-45 0 -85 23t-63 66l60 33q11 -29 35.5 -44.5z" />
    <glyph glyph-name="uni2156" unicode="&#x2156;" horiz-adv-x="1074" 
d="M311 35l434 681l55 -34l-435 -682zM778.5 67.5q24.5 -15.5 52.5 -15.5q36 0 61 24.5t25 66.5q0 39 -23 59t-57 20q-22 0 -43.5 -8.5t-37.5 -25.5h-48v236h243v-64h-178v-105q37 26 81 26q53 0 91.5 -36t38.5 -100q0 -48 -21 -83t-56 -53.5t-76 -18.5q-45 0 -85 23t-63 66
l60 33q11 -29 35.5 -44.5zM100 282v64l142 137q58 56 58 108q0 30 -18 47t-48 17q-29 0 -54 -18t-31 -50l-59 19q11 52 54 81t94 29q56 0 92.5 -33t36.5 -92q0 -41 -20 -75.5t-57 -69.5l-107 -100h194v-64h-277z" />
    <glyph glyph-name="uni2157" unicode="&#x2157;" horiz-adv-x="1061" 
d="M288 35l434 681l55 -34l-435 -682zM765.5 67.5q24.5 -15.5 52.5 -15.5q36 0 61 24.5t25 66.5q0 39 -23 59t-57 20q-22 0 -43.5 -8.5t-37.5 -25.5h-48v236h243v-64h-178v-105q37 26 81 26q53 0 91.5 -36t38.5 -100q0 -48 -21 -83t-56 -53.5t-76 -18.5q-45 0 -85 23t-63 66
l60 33q11 -29 35.5 -44.5zM374 397q0 -57 -42.5 -91t-100.5 -34q-43 0 -81 20t-60 60l57 37q12 -26 36 -40t51 -14q32 0 53 16t21 46q0 37 -32.5 53t-92.5 16v63q54 0 80.5 18.5t26.5 49.5q0 26 -18 41.5t-45 15.5q-50 0 -78 -42l-48 36q21 33 56.5 50.5t76.5 17.5
q51 0 87.5 -29.5t36.5 -79.5q0 -36 -19 -63.5t-58 -37.5q93 -23 93 -109z" />
    <glyph glyph-name="uni2158" unicode="&#x2158;" horiz-adv-x="1112" 
d="M338 35l434 681l55 -34l-435 -682zM816.5 67.5q24.5 -15.5 52.5 -15.5q36 0 61 24.5t25 66.5q0 39 -23 59t-57 20q-22 0 -43.5 -8.5t-37.5 -25.5h-48v236h243v-64h-178v-105q37 26 81 26q53 0 91.5 -36t38.5 -100q0 -48 -21 -83t-56 -53.5t-76 -18.5q-45 0 -85 23t-63 66
l60 33q11 -29 35.5 -44.5zM346 441h66v-63h-66v-102h-68v102h-188v63l179 259h77v-259zM162 441h116v168z" />
    <glyph glyph-name="uni2159" unicode="&#x2159;" horiz-adv-x="961" 
d="M217 35l434 681l55 -34l-435 -682zM214 699v-424h-67v363h-57v61h124zM834.5 246.5q36.5 -40.5 36.5 -97.5q0 -38 -17 -73t-51 -57.5t-82 -22.5q-79 0 -122 55.5t-43 143.5q0 65 25.5 121t78 90t130.5 34l4 -61q-70 0 -115 -36.5t-55 -116.5q13 25 39 43t70 18
q65 0 101.5 -40.5zM781.5 83q21.5 25 21.5 61q0 34 -21 58t-62 24t-63.5 -24.5t-22.5 -59.5q0 -34 22 -59t63 -25t62.5 25z" />
    <glyph glyph-name="uni215A" unicode="&#x215a;" horiz-adv-x="1035" 
d="M290 35l434 681l55 -34l-435 -682zM908.5 246.5q36.5 -40.5 36.5 -97.5q0 -38 -17 -73t-51 -57.5t-82 -22.5q-79 0 -122 55.5t-43 143.5q0 65 25.5 121t78 90t130.5 34l4 -61q-70 0 -115 -36.5t-55 -116.5q13 25 39 43t70 18q65 0 101.5 -40.5zM855.5 83q21.5 25 21.5 61
q0 34 -21 58t-62 24t-63.5 -24.5t-22.5 -59.5q0 -34 22 -59t63 -25t62.5 25zM185.5 343.5q24.5 -15.5 52.5 -15.5q36 0 61 24.5t25 66.5q0 39 -23 59t-57 20q-22 0 -43.5 -8.5t-37.5 -25.5h-48v236h243v-64h-178v-105q37 26 81 26q53 0 91.5 -36t38.5 -100q0 -48 -21 -83
t-56 -53.5t-76 -18.5q-45 0 -85 23t-63 66l60 33q11 -29 35.5 -44.5z" />
    <glyph glyph-name="oneeighth" unicode="&#x215b;" horiz-adv-x="972" 
d="M217 35l434 681l55 -34l-435 -682zM214 699v-424h-67v363h-57v61h124zM882 119q0 -59 -46 -91t-109 -32q-64 0 -110 33t-46 92q0 42 24 70.5t62 39.5q-27 13 -47.5 38t-20.5 61q0 52 41 81t97 29q57 0 98 -29t41 -83q0 -35 -19.5 -60.5t-49.5 -37.5q85 -37 85 -111z
M675.5 368q-20.5 -15 -20.5 -41q0 -29 21.5 -44t54.5 -25q26 4 47.5 23t21.5 46q0 26 -21.5 41t-52.5 15q-30 0 -50.5 -15zM789 72.5q25 16.5 25 46.5q0 58 -96 86q-29 -3 -54 -25.5t-25 -55.5q0 -34 26 -51t63 -17q36 0 61 16.5z" />
    <glyph glyph-name="threeeighths" unicode="&#x215c;" horiz-adv-x="1023" 
d="M268 35l434 681l55 -34l-435 -682zM933 119q0 -59 -46 -91t-109 -32q-64 0 -110 33t-46 92q0 42 24 70.5t62 39.5q-27 13 -47.5 38t-20.5 61q0 52 41 81t97 29q57 0 98 -29t41 -83q0 -35 -19.5 -60.5t-49.5 -37.5q85 -37 85 -111zM726.5 368q-20.5 -15 -20.5 -41
q0 -29 21.5 -44t54.5 -25q26 4 47.5 23t21.5 46q0 26 -21.5 41t-52.5 15q-30 0 -50.5 -15zM840 72.5q25 16.5 25 46.5q0 58 -96 86q-29 -3 -54 -25.5t-25 -55.5q0 -34 26 -51t63 -17q36 0 61 16.5zM374 397q0 -57 -42.5 -91t-100.5 -34q-43 0 -81 20t-60 60l57 37
q12 -26 36 -40t51 -14q32 0 53 16t21 46q0 37 -32.5 53t-92.5 16v63q54 0 80.5 18.5t26.5 49.5q0 26 -18 41.5t-45 15.5q-50 0 -78 -42l-48 36q21 33 56.5 50.5t76.5 17.5q51 0 87.5 -29.5t36.5 -79.5q0 -36 -19 -63.5t-58 -37.5q93 -23 93 -109z" />
    <glyph glyph-name="fiveeighths" unicode="&#x215d;" horiz-adv-x="1035" 
d="M945 119q0 -59 -46 -91t-109 -32q-64 0 -110 33t-46 92q0 42 24 70.5t62 39.5q-27 13 -47.5 38t-20.5 61q0 52 41 81t97 29q57 0 98 -29t41 -83q0 -35 -19.5 -60.5t-49.5 -37.5q85 -37 85 -111zM738.5 368q-20.5 -15 -20.5 -41q0 -29 21.5 -44t54.5 -25q26 4 47.5 23
t21.5 46q0 26 -21.5 41t-52.5 15q-30 0 -50.5 -15zM852 72.5q25 16.5 25 46.5q0 58 -96 86q-29 -3 -54 -25.5t-25 -55.5q0 -34 26 -51t63 -17q36 0 61 16.5zM290 35l434 681l55 -34l-435 -682zM185.5 343.5q24.5 -15.5 52.5 -15.5q36 0 61 24.5t25 66.5q0 39 -23 59t-57 20
q-22 0 -43.5 -8.5t-37.5 -25.5h-48v236h243v-64h-178v-105q37 26 81 26q53 0 91.5 -36t38.5 -100q0 -48 -21 -83t-56 -53.5t-76 -18.5q-45 0 -85 23t-63 66l60 33q11 -29 35.5 -44.5z" />
    <glyph glyph-name="seveneighths" unicode="&#x215e;" horiz-adv-x="1014" 
d="M259 35l434 681l55 -34l-435 -682zM924 119q0 -59 -46 -91t-109 -32q-64 0 -110 33t-46 92q0 42 24 70.5t62 39.5q-27 13 -47.5 38t-20.5 61q0 52 41 81t97 29q57 0 98 -29t41 -83q0 -35 -19.5 -60.5t-49.5 -37.5q85 -37 85 -111zM717.5 368q-20.5 -15 -20.5 -41
q0 -29 21.5 -44t54.5 -25q26 4 47.5 23t21.5 46q0 26 -21.5 41t-52.5 15q-30 0 -50.5 -15zM831 72.5q25 16.5 25 46.5q0 58 -96 86q-29 -3 -54 -25.5t-25 -55.5q0 -34 26 -51t63 -17q36 0 61 16.5zM394 630l-179 -354h-74l185 354h-236v70h304v-70z" />
    <glyph glyph-name="minus" unicode="&#x2212;" horiz-adv-x="466" 
d="M50 326h366v-71h-366v71z" />
    <glyph glyph-name="infinity" unicode="&#x221e;" horiz-adv-x="894" 
d="M755.5 486q47.5 -31 73 -81.5t25.5 -107.5q0 -56 -25 -106.5t-74 -81.5t-115 -31q-72 0 -119.5 34.5t-79.5 92.5q-33 -58 -78.5 -92.5t-113.5 -34.5q-64 0 -111.5 31t-72.5 81.5t-25 107.5q0 56 25 106t73.5 81.5t114.5 31.5q72 0 119.5 -35t79.5 -93q34 58 79 93t113 35
q64 0 111.5 -31zM350.5 193.5q44.5 40.5 62.5 109.5q-16 67 -62.5 103t-99.5 36q-35 0 -65 -17t-48 -50t-18 -77q0 -46 19.5 -78.5t50 -49.5t63.5 -17q53 0 97.5 40.5zM707 170q30 17 48 49.5t18 77.5q0 46 -19 78.5t-49.5 49.5t-64.5 17q-52 0 -97 -40.5t-63 -109.5
q16 -67 62.5 -103t99.5 -36q35 0 65 17z" />
    <glyph glyph-name="uniA729" unicode="&#xa729;" horiz-adv-x="823" 
d="M537 189q108 -10 166.5 -60t58.5 -137q0 -68 -34.5 -119.5t-91.5 -79t-122 -27.5q-71 0 -129 30.5t-93 87.5l63 46q31 -48 74 -71.5t93 -23.5q43 0 80 18t59.5 52t22.5 78q0 70 -60 109t-175 35v67l215 240h-449v-434h-76v434h-119v70h119v129h76v-129h548v-72z" />
    <glyph glyph-name="fl" unicode="&#xfb02;" horiz-adv-x="699" 
d="M608 -11q-58 0 -97 38t-39 116v291h-289v-434h-76v434h-87v70h87v65q0 72 42 110.5t101 38.5q31 0 61.5 -11t52.5 -31l-41 -55q-14 15 -32 22.5t-36 7.5q-31 0 -51.5 -21t-20.5 -63v-63h289v196h76v-558q0 -45 20 -66t52 -21q19 0 48 11l26 -55q-39 -22 -86 -22z" />
    <glyph glyph-name="null" horiz-adv-x="43" 
 />
    <glyph glyph-name="i.loclTRK" horiz-adv-x="257" 
d="M91 504h75v-504h-75v504zM87.5 699.5q17.5 16.5 41.5 16.5t41 -16.5t17 -40.5t-17.5 -41.5t-40.5 -17.5q-24 0 -41.5 17t-17.5 42q0 24 17.5 40.5z" />
    <glyph glyph-name="f_f_l" horiz-adv-x="1054" 
d="M1049 11q-39 -22 -86 -22q-58 0 -97 38t-39 116v291h-289v-434h-75v434h-280v-434h-76v434h-87v70h87v65q0 72 42 110.5t101 38.5q31 0 61.5 -11t52.5 -31l-41 -55q-14 15 -32 22.5t-36 7.5q-31 0 -51.5 -21t-20.5 -63v-63h280v65q0 72 41.5 110.5t100.5 38.5
q32 0 62 -11t52 -31l-40 -55q-30 30 -69 30q-31 0 -51.5 -21t-20.5 -63v-63h289v196h76v-558q0 -45 20 -66t52 -21q19 0 48 11z" />
    <glyph glyph-name="zero.dnom" horiz-adv-x="360" 
d="M58.5 55q-39.5 62 -39.5 160t39.5 160t120.5 62q83 0 122 -62t39 -160t-39 -160t-122 -62q-81 0 -120.5 62zM250 102q22 44 22 113q0 70 -22 114t-70 44q-49 0 -71 -43.5t-22 -114.5q0 -70 22 -113.5t71 -43.5q48 0 70 44z" />
    <glyph glyph-name="one.dnom" horiz-adv-x="360" 
d="M243 424v-424h-67v363h-57v61h124z" />
    <glyph glyph-name="two.dnom" horiz-adv-x="360" 
d="M46 6v64l142 137q58 56 58 108q0 30 -18 47t-48 17q-29 0 -54 -18t-31 -50l-59 19q11 52 54 81t94 29q56 0 92.5 -33t36.5 -92q0 -41 -20 -75.5t-57 -69.5l-107 -100h194v-64h-277z" />
    <glyph glyph-name="three.dnom" horiz-adv-x="360" 
d="M321 121q0 -57 -42.5 -91t-100.5 -34q-43 0 -81 20t-60 60l57 37q12 -26 36 -40t51 -14q32 0 53 16t21 46q0 37 -32.5 53t-92.5 16v63q54 0 80.5 18.5t26.5 49.5q0 26 -18 41.5t-45 15.5q-50 0 -78 -42l-48 36q21 33 56.5 50.5t76.5 17.5q51 0 87.5 -29.5t36.5 -79.5
q0 -36 -19 -63.5t-58 -37.5q93 -23 93 -109z" />
    <glyph glyph-name="four.dnom" horiz-adv-x="360" 
d="M274 165h66v-63h-66v-102h-68v102h-188v63l179 259h77v-259zM90 165h116v168z" />
    <glyph glyph-name="five.dnom" horiz-adv-x="360" 
d="M124.5 67.5q24.5 -15.5 52.5 -15.5q36 0 61 24.5t25 66.5q0 39 -23 59t-57 20q-22 0 -43.5 -8.5t-37.5 -25.5h-48v236h243v-64h-178v-105q37 26 81 26q53 0 91.5 -36t38.5 -100q0 -48 -21 -83t-56 -53.5t-76 -18.5q-45 0 -85 23t-63 66l60 33q11 -29 35.5 -44.5z" />
    <glyph glyph-name="six.dnom" horiz-adv-x="360" 
d="M300.5 246.5q36.5 -40.5 36.5 -97.5q0 -38 -17 -73t-51 -57.5t-82 -22.5q-79 0 -122 55.5t-43 143.5q0 65 25.5 121t78 90t130.5 34l4 -61q-70 0 -115 -36.5t-55 -116.5q13 25 39 43t70 18q65 0 101.5 -40.5zM247.5 83q21.5 25 21.5 61q0 34 -21 58t-62 24t-63.5 -24.5
t-22.5 -59.5q0 -34 22 -59t63 -25t62.5 25z" />
    <glyph glyph-name="seven.dnom" horiz-adv-x="360" 
d="M331 354l-179 -354h-74l185 354h-236v70h304v-70z" />
    <glyph glyph-name="eight.dnom" horiz-adv-x="360" 
d="M335 119q0 -59 -46 -91t-109 -32q-64 0 -110 33t-46 92q0 42 24 70.5t62 39.5q-27 13 -47.5 38t-20.5 61q0 52 41 81t97 29q57 0 98 -29t41 -83q0 -35 -19.5 -60.5t-49.5 -37.5q85 -37 85 -111zM128.5 368q-20.5 -15 -20.5 -41q0 -29 21.5 -44t54.5 -25q26 4 47.5 23
t21.5 46q0 26 -21.5 41t-52.5 15q-30 0 -50.5 -15zM242 72.5q25 16.5 25 46.5q0 58 -96 86q-29 -3 -54 -25.5t-25 -55.5q0 -34 26 -51t63 -17q36 0 61 16.5z" />
    <glyph glyph-name="nine.dnom" horiz-adv-x="360" 
d="M58.5 189.5q-36.5 40.5 -36.5 97.5q0 38 17 73t51 57.5t82 22.5q79 0 122 -55.5t43 -143.5q0 -65 -25.5 -121t-78 -90t-130.5 -34l-4 61q70 0 115 36.5t55 116.5q-13 -25 -39 -43t-70 -18q-65 0 -101.5 40.5zM111.5 353q-21.5 -25 -21.5 -61q0 -34 21 -58t62 -24
t63.5 24.5t22.5 59.5q0 34 -22 59t-63 25t-62.5 -25z" />
    <glyph glyph-name="zero.numr" horiz-adv-x="360" 
d="M58.5 331q-39.5 62 -39.5 160t39.5 160t120.5 62q83 0 122 -62t39 -160t-39 -160t-122 -62q-81 0 -120.5 62zM250 378q22 44 22 113q0 70 -22 114t-70 44q-49 0 -71 -43.5t-22 -114.5q0 -70 22 -113.5t71 -43.5q48 0 70 44z" />
    <glyph glyph-name="one.numr" horiz-adv-x="360" 
d="M243 700v-424h-67v363h-57v61h124z" />
    <glyph glyph-name="two.numr" horiz-adv-x="360" 
d="M46 282v64l142 137q58 56 58 108q0 30 -18 47t-48 17q-29 0 -54 -18t-31 -50l-59 19q11 52 54 81t94 29q56 0 92.5 -33t36.5 -92q0 -41 -20 -75.5t-57 -69.5l-107 -100h194v-64h-277z" />
    <glyph glyph-name="three.numr" horiz-adv-x="360" 
d="M321 397q0 -57 -42.5 -91t-100.5 -34q-43 0 -81 20t-60 60l57 37q12 -26 36 -40t51 -14q32 0 53 16t21 46q0 37 -32.5 53t-92.5 16v63q54 0 80.5 18.5t26.5 49.5q0 26 -18 41.5t-45 15.5q-50 0 -78 -42l-48 36q21 33 56.5 50.5t76.5 17.5q51 0 87.5 -29.5t36.5 -79.5
q0 -36 -19 -63.5t-58 -37.5q93 -23 93 -109z" />
    <glyph glyph-name="four.numr" horiz-adv-x="360" 
d="M274 441h66v-63h-66v-102h-68v102h-188v63l179 259h77v-259zM90 441h116v168z" />
    <glyph glyph-name="five.numr" horiz-adv-x="360" 
d="M124.5 343.5q24.5 -15.5 52.5 -15.5q36 0 61 24.5t25 66.5q0 39 -23 59t-57 20q-22 0 -43.5 -8.5t-37.5 -25.5h-48v236h243v-64h-178v-105q37 26 81 26q53 0 91.5 -36t38.5 -100q0 -48 -21 -83t-56 -53.5t-76 -18.5q-45 0 -85 23t-63 66l60 33q11 -29 35.5 -44.5z" />
    <glyph glyph-name="six.numr" horiz-adv-x="360" 
d="M300.5 522.5q36.5 -40.5 36.5 -97.5q0 -38 -17 -73t-51 -57.5t-82 -22.5q-79 0 -122 55.5t-43 143.5q0 65 25.5 121t78 90t130.5 34l4 -61q-70 0 -115 -36.5t-55 -116.5q13 25 39 43t70 18q65 0 101.5 -40.5zM247.5 359q21.5 25 21.5 61q0 34 -21 58t-62 24t-63.5 -24.5
t-22.5 -59.5q0 -34 22 -59t63 -25t62.5 25z" />
    <glyph glyph-name="seven.numr" horiz-adv-x="360" 
d="M331 630l-179 -354h-74l185 354h-236v70h304v-70z" />
    <glyph glyph-name="eight.numr" horiz-adv-x="360" 
d="M335 395q0 -59 -46 -91t-109 -32q-64 0 -110 33t-46 92q0 42 24 70.5t62 39.5q-27 13 -47.5 38t-20.5 61q0 52 41 81t97 29q57 0 98 -29t41 -83q0 -35 -19.5 -60.5t-49.5 -37.5q85 -37 85 -111zM128.5 644q-20.5 -15 -20.5 -41q0 -29 21.5 -44t54.5 -25q26 4 47.5 23
t21.5 46q0 26 -21.5 41t-52.5 15q-30 0 -50.5 -15zM242 348.5q25 16.5 25 46.5q0 58 -96 86q-29 -3 -54 -25.5t-25 -55.5q0 -34 26 -51t63 -17q36 0 61 16.5z" />
    <glyph glyph-name="nine.numr" horiz-adv-x="360" 
d="M58.5 465.5q-36.5 40.5 -36.5 97.5q0 38 17 73t51 57.5t82 22.5q79 0 122 -55.5t43 -143.5q0 -65 -25.5 -121t-78 -90t-130.5 -34l-4 61q70 0 115 36.5t55 116.5q-13 -25 -39 -43t-70 -18q-65 0 -101.5 40.5zM111.5 629q-21.5 -25 -21.5 -61q0 -34 21 -58t62 -24
t63.5 24.5t22.5 59.5q0 34 -22 59t-63 25t-62.5 -25z" />
    <glyph glyph-name="acute.001" horiz-adv-x="163" 
d="M0 943l103 134l60 -46l-103 -133z" />
    <glyph glyph-name="caron.001" horiz-adv-x="240" 
d="M240 986l-120 -88l-120 88l42 54l78 -57l78 57z" />
    <glyph glyph-name="circumflex.001" horiz-adv-x="240" 
d="M120 955l-78 -57l-42 54l120 88l120 -88l-42 -54z" />
    <glyph glyph-name="grave.001" horiz-adv-x="163" 
d="M0 1031l60 46l103 -134l-60 -45z" />
    <glyph glyph-name="tilde.001" horiz-adv-x="287" 
d="M166.5 953q-12.5 5 -29.5 15q-10 6 -20 10.5t-18 4.5q-12 0 -22.5 -9t-28.5 -30l-48 40q23 31 44.5 50t52.5 19q15 0 28.5 -5t33.5 -15q25 -14 36 -14q12 0 23 11.5t19 25.5l50 -28q-21 -36 -43 -58t-51 -22q-14 0 -26.5 5z" />
    <glyph glyph-name="acute.cap" horiz-adv-x="242" 
d="M219 903l23 -76l-219 -67l-23 75z" />
    <glyph glyph-name="breve.cap" horiz-adv-x="266" 
d="M266 896q0 -57 -33.5 -96.5t-99.5 -39.5t-99.5 39.5t-33.5 96.5h71q1 -31 16 -48.5t46 -17.5t46 17.5t16 48.5h71z" />
    <glyph glyph-name="caron.cap" horiz-adv-x="345" 
d="M173 755l-173 128l46 55l128 -96l126 96l45 -55z" />
    <glyph glyph-name="cedilla.cap" horiz-adv-x="244" 
d="M244 -159q0 -53 -35 -80t-88 -27q-72 0 -121 45l36 48q39 -36 79 -36q28 0 48 12.5t20 37.5q0 27 -26 42t-87 26l33 106h58l-28 -77q111 -22 111 -97z" />
    <glyph glyph-name="circumflex.cap" horiz-adv-x="355" 
d="M305 755l-126 97l-128 -97l-46 55l173 128l172 -128z" />
    <glyph glyph-name="dieresis.cap" horiz-adv-x="348" 
d="M99.5 778q-16.5 -17 -39.5 -17q-25 0 -42.5 17t-17.5 42q0 24 17.5 40.5t42.5 16.5q23 0 39.5 -16.5t16.5 -40.5q0 -25 -16.5 -42zM330.5 778q-17.5 -17 -41.5 -17t-40.5 17t-16.5 42q0 24 16.5 40.5t40.5 16.5t41.5 -16.5t17.5 -40.5q0 -25 -17.5 -42z" />
    <glyph glyph-name="dotaccent.cap" horiz-adv-x="117" 
d="M17.5 868.5q17.5 16.5 41.5 16.5t41 -16.5t17 -40.5t-17 -41.5t-41 -17.5t-41.5 17t-17.5 42q0 24 17.5 40.5z" />
    <glyph glyph-name="grave.cap" horiz-adv-x="242" 
d="M0 827l22 76l220 -68l-24 -75z" />
    <glyph glyph-name="hungarumlaut.cap" horiz-adv-x="326" 
d="M83 769h-83l55 131h108zM225 769h-85l78 131h108z" />
    <glyph glyph-name="macron.cap" horiz-adv-x="297" 
d="M297 836v-76h-297v76h297z" />
    <glyph glyph-name="ogonek.cap" horiz-adv-x="149" 
d="M36.5 -165.5q-36.5 26.5 -36.5 64.5q0 29 20 58t53 50h60q-30 -14 -48 -37t-18 -47t20 -39t62 -15v-66q-76 5 -112.5 31.5z" />
    <glyph glyph-name="ring.cap" horiz-adv-x="221" 
d="M31 918q31 32 78 32q46 0 79 -32.5t33 -77.5q0 -47 -32.5 -78.5t-79.5 -31.5t-78 31.5t-31 78.5q0 46 31 78zM70 798q15 -16 39 -16t39.5 16t15.5 41q0 24 -15.5 40.5t-39.5 16.5t-39 -16.5t-15 -40.5q0 -25 15 -41z" />
    <glyph glyph-name="tilde.cap" horiz-adv-x="348" 
d="M206.5 789.5q-15.5 8.5 -38.5 24.5q-17 13 -28.5 19.5t-22.5 6.5q-18 0 -32.5 -14t-36.5 -43l-48 41q19 31 53.5 60t68.5 29q19 0 36.5 -9.5t38.5 -26.5q3 -2 13 -9.5t18.5 -11t14.5 -3.5q13 0 25 13t21.5 28t12.5 19l46 -36q-32 -49 -54.5 -72.5t-53.5 -23.5
q-18 0 -33.5 8.5z" />
    <glyph glyph-name="horn" horiz-adv-x="1" 
d="M88.5 748q33.5 33 39.5 83l71 -14q-9 -64 -53.5 -110.5t-119.5 -46.5q-17 0 -26 1v54q55 0 88.5 33z" />
    </font>
</defs>
</svg>
