<?xml version="1.0" standalone="no"?>
<!DOCTYPE svg PUBLIC "-//W3C//DTD SVG 1.1//EN" "http://www.w3.org/Graphics/SVG/1.1/DTD/svg11.dtd" >
<svg xmlns="http://www.w3.org/2000/svg" xmlns:xlink="http://www.w3.org/1999/xlink" version="1.1">
<metadata>
Created by FontForge 20170731 at Wed Jul 26 14:47:47 2017
 By Aleksey,,,
Copyright (c) 2014 by Luzi Gantenbein. All rights reserved.
</metadata>
<defs>
<font id="BuenosAiresTTF-Regular" horiz-adv-x="681" >
  <font-face 
    font-family="Buenos Aires TTF"
    font-weight="400"
    font-stretch="normal"
    units-per-em="1000"
    panose-1="0 0 5 0 0 0 0 0 0 0"
    ascent="757"
    descent="-243"
    x-height="504"
    cap-height="700"
    bbox="-730 -368 1373 1093"
    underline-thickness="50"
    underline-position="-150"
    unicode-range="U+000D-FB03"
  />
<missing-glyph horiz-adv-x="309" 
 />
    <glyph glyph-name="ff" unicode="ff" horiz-adv-x="727" 
d="M588 602q-19 -19 -19 -57v-41h131v-102h-131v-402h-110v402h-230v-402h-111v402h-98v102h98v46q0 83 47.5 125.5t117.5 42.5q60 0 116 -34l-42 -86q-32 23 -64 23q-30 0 -47 -18.5t-17 -57.5v-41h230v46q0 83 49 125.5t120 42.5q63 0 119 -34l-43 -86q-30 23 -67 23
q-30 0 -49 -19z" />
    <glyph glyph-name="fi" unicode="fi" horiz-adv-x="639" 
d="M579 0h-111v402h-239v-402h-111v402h-98v102h98v46q0 83 49 125.5t120 42.5q63 0 120 -34l-43 -86q-30 23 -67 23q-30 0 -49 -19t-19 -57v-41h350v-504z" />
    <glyph glyph-name="ffi" unicode="ffi" horiz-adv-x="989" 
d="M929 0h-111v402h-238v-402h-111v402h-240v-402h-111v402h-98v102h98v46q0 83 47 125.5t117 42.5q60 0 116 -34l-43 -86q-30 23 -63 23q-63 0 -63 -76v-41h240v46q0 83 49 125.5t120 42.5q63 0 120 -34l-43 -86q-30 23 -67 23q-30 0 -49 -19t-19 -57v-41h349v-504z" />
    <glyph glyph-name="f_f_t" unicode="fft" horiz-adv-x="1118" 
d="M1098 23q-57 -34 -122 -34q-70 0 -118 43t-48 125v245h-240v-402h-111v402h-230v-402h-111v402h-98v102h98v46q0 83 47.5 125.5t117.5 42.5q60 0 116 -34l-42 -86q-32 23 -64 23q-30 0 -47 -18.5t-17 -57.5v-41h230v46q0 83 49 125.5t120 42.5q63 0 120 -34l-43 -86
q-30 23 -67 23q-30 0 -49 -19t-19 -57v-41h240v129h110v-129h141v-102h-141v-239q0 -40 19.5 -58.5t51.5 -18.5q29 0 67 19z" />
    <glyph glyph-name="f_t" unicode="ft" horiz-adv-x="776" 
d="M756 23q-57 -34 -122 -34q-70 0 -118 43t-48 125v245h-239v-402h-111v402h-98v102h98v46q0 83 49 125.5t120 42.5q63 0 120 -34l-43 -86q-30 23 -67 23q-30 0 -49 -19t-19 -57v-41h239v129h110v-129h141v-102h-141v-239q0 -40 19.5 -58.5t51.5 -18.5q29 0 67 19z" />
    <glyph glyph-name="t_t" unicode="tt" horiz-adv-x="788" 
d="M768 23q-57 -34 -122 -34q-70 0 -118 43t-48 125v245h-241v-239q0 -40 18 -58.5t49 -18.5q29 0 65 19l41 -82q-57 -34 -120 -34q-70 0 -116.5 42.5t-46.5 125.5v245h-109v102h109v129h110v-129h241v129h110v-129h141v-102h-141v-239q0 -40 19.5 -58.5t51.5 -18.5
q29 0 67 19z" />
    <glyph glyph-name=".notdef" horiz-adv-x="309" 
 />
    <glyph glyph-name=".null" horiz-adv-x="0" 
 />
    <glyph glyph-name="nonmarkingreturn" unicode="&#xd;" horiz-adv-x="287" 
 />
    <glyph glyph-name="space" unicode=" " horiz-adv-x="275" 
 />
    <glyph glyph-name="exclam" unicode="!" horiz-adv-x="336" 
d="M121 212l-13 524h120l-13 -524h-94zM224 11.5q-22 -22.5 -56 -22.5q-33 0 -55.5 22.5t-22.5 55.5q0 34 22.5 56.5t55.5 22.5q34 0 56 -22.5t22 -56.5q0 -33 -22 -55.5z" />
    <glyph glyph-name="quotedbl" unicode="&#x22;" horiz-adv-x="331" 
d="M133 484h-103v234h103v-234zM301 484h-105v234h105v-234z" />
    <glyph glyph-name="numbersign" unicode="#" horiz-adv-x="705" 
d="M539 448l-27 -178h127v-98h-143l-21 -139h-98l22 139h-156l-22 -139h-96l22 139h-117v98h132l28 178h-131v98h146l22 140h97l-22 -140h155l22 140h97l-22 -140h121v-98h-136zM442 448h-156l-28 -178h156z" />
    <glyph glyph-name="dollar" unicode="$" horiz-adv-x="589" 
d="M492 56.5q-52 -52.5 -133 -66.5v-94h-82v89q-64 3 -124.5 28.5t-107.5 72.5l76 91q34 -42 82.5 -65t99.5 -23q53 0 88 23t35 67q0 30 -18 50.5t-45 33t-77 30.5q-65 24 -106.5 45.5t-72 63.5t-30.5 109q0 91 58 143t142 60v93h82v-95q88 -17 149 -76l-62 -80
q-26 28 -66.5 44.5t-78.5 16.5q-48 0 -79.5 -26t-31.5 -73q0 -50 35 -76t104 -49q75 -25 115.5 -44t70 -57t29.5 -100q0 -83 -52 -135.5z" />
    <glyph glyph-name="percent" unicode="%" horiz-adv-x="987" 
d="M258 42l429 674l64 -41l-430 -675zM64.5 625q24.5 43 66.5 68t93 25t94 -25t68 -68t25 -94t-25 -93t-68 -66.5t-94 -24.5t-93 24.5t-66.5 66.5t-24.5 93t24.5 94zM165 469.5q24 -23.5 60 -23.5q35 0 58 23.5t23 60.5t-23.5 61t-57.5 24q-36 0 -60 -24t-24 -61t24 -60.5z
M600.5 262q24.5 43 66.5 68t93 25t94 -25t68 -68t25 -94t-25 -93t-68 -66.5t-94 -24.5t-93 24.5t-66.5 66.5t-24.5 93t24.5 94zM701 106.5q24 -23.5 60 -23.5q35 0 58 23.5t23 60.5t-23.5 61t-57.5 24q-36 0 -60 -24t-24 -61t24 -60.5z" />
    <glyph glyph-name="ampersand" unicode="&#x26;" horiz-adv-x="696" 
d="M583 -16l-77 84q-44 -38 -88.5 -61t-112.5 -23q-72 0 -125 28.5t-81.5 75t-28.5 100.5q0 63 38.5 115.5t108.5 76.5q-40 44 -61.5 81.5t-21.5 85.5t23 86.5t65.5 60.5t97.5 22q57 0 101 -23.5t67.5 -62t23.5 -82.5q0 -54 -35 -103t-99 -78l127 -138q22 41 32 91l91 -18
q-8 -43 -20.5 -73.5t-34.5 -73.5l93 -99zM265 600.5q-20 -22.5 -20 -56.5q0 -29 16 -55.5t51 -60.5q44 12 68.5 44t24.5 69q0 35 -23 58.5t-60 23.5t-57 -22.5zM381.5 99q34.5 14 59.5 40l-164 178q-48 -15 -71.5 -47.5t-23.5 -70.5q0 -48 33.5 -81t93.5 -33q38 0 72.5 14z
" />
    <glyph glyph-name="quotesingle" unicode="'" horiz-adv-x="168" 
d="M138 484h-108v234h108v-234z" />
    <glyph glyph-name="parenleft" unicode="(" horiz-adv-x="315" 
d="M176 563q-46 -98 -46 -226t46 -226t139 -199l-84 -69q-105 107 -158 226t-53 268t53 268.5t158 226.5l84 -69q-93 -102 -139 -200z" />
    <glyph glyph-name="parenright" unicode=")" horiz-adv-x="316" 
d="M85 832q105 -107 158 -226.5t53 -268.5t-53 -268t-158 -226l-84 69q93 101 139 199t46 226t-46 226t-139 200z" />
    <glyph glyph-name="asterisk" unicode="*" horiz-adv-x="485" 
d="M393 404l-78 -55l-72 109l-72 -110l-79 57l78 99l-120 42l27 82l122 -39l-2 129h96l-7 -129l123 39l26 -82l-120 -42z" />
    <glyph glyph-name="plus" unicode="+" horiz-adv-x="446" 
d="M170 225h-130v101h130v134h105v-134h131v-101h-131v-135h-105v135z" />
    <glyph glyph-name="comma" unicode="," horiz-adv-x="256" 
d="M118 138l118 -46l-124 -282l-92 37z" />
    <glyph glyph-name="hyphen" unicode="-" horiz-adv-x="395" 
d="M345 327v-102h-295v102h295z" />
    <glyph glyph-name="period" unicode="." horiz-adv-x="236" 
d="M62 123.5q22 22.5 55 22.5q34 0 56.5 -22.5t22.5 -56.5q0 -33 -22.5 -55.5t-56.5 -22.5q-33 0 -55 22.5t-22 55.5q0 34 22 56.5z" />
    <glyph glyph-name="slash" unicode="/" horiz-adv-x="366" 
d="M88 -16l-88 35l278 699l88 -34z" />
    <glyph glyph-name="zero" unicode="0" horiz-adv-x="609" 
d="M104.5 86q-64.5 102 -64.5 264t64.5 264t199.5 102q136 0 200.5 -102.5t64.5 -263.5t-64.5 -263.5t-200.5 -102.5q-135 0 -199.5 102zM420.5 162.5q36.5 72.5 36.5 187.5q0 116 -36.5 188t-115.5 72q-80 0 -116.5 -72t-36.5 -188t36.5 -188t116.5 -72q79 0 115.5 72.5z
" />
    <glyph glyph-name="one" unicode="1" horiz-adv-x="336" 
d="M135 599h-95v101h206v-700h-111v599z" />
    <glyph glyph-name="two" unicode="2" horiz-adv-x="540" 
d="M47 0v105l234 227q41 39 68.5 84.5t27.5 92.5q0 49 -29.5 77.5t-78.5 28.5q-48 0 -89.5 -29.5t-51.5 -82.5l-98 31q13 58 51 99.5t89.5 62t104.5 20.5q60 0 108.5 -24t76.5 -70.5t28 -111.5q0 -68 -33.5 -125t-94.5 -114l-176 -166h321v-105h-458z" />
    <glyph glyph-name="three" unicode="3" horiz-adv-x="520" 
d="M443 303q37 -47 37 -113q0 -63 -33.5 -110t-88.5 -71.5t-117 -24.5q-71 0 -132.5 33t-98.5 99l95 61q20 -43 59.5 -66.5t84.5 -23.5q52 0 86.5 26.5t34.5 76.5q0 61 -54 87.5t-152 26.5v104q89 0 133 30t44 81q0 44 -30 69t-75 25q-39 0 -72.5 -17t-55.5 -52l-79 59
q35 56 93.5 84.5t126.5 28.5q54 0 100.5 -21.5t75 -62.5t28.5 -96q0 -58 -31.5 -104t-95.5 -63q80 -19 117 -66z" />
    <glyph glyph-name="four" unicode="4" horiz-adv-x="572" 
d="M432 273h110v-105h-110v-168h-111v168h-311v105l296 427h126v-427zM129 273h192v277z" />
    <glyph glyph-name="five" unicode="5" horiz-adv-x="580" 
d="M201 112.5q41 -25.5 87 -25.5q38 0 70.5 17.5t52 51.5t19.5 80q0 63 -38 97t-94 34q-36 0 -72 -14t-62 -42h-79v389h401v-105h-294v-174q58 43 134 43q56 0 105 -25.5t79 -76.5t30 -123q0 -78 -35 -136t-93 -88.5t-125 -30.5q-74 0 -140 37.5t-104 109.5l99 55
q18 -48 59 -73.5z" />
    <glyph glyph-name="six" unicode="6" horiz-adv-x="601" 
d="M456.5 431.5q51.5 -31.5 78 -83.5t26.5 -112q0 -63 -28.5 -121t-85.5 -94.5t-136 -36.5q-87 0 -148 42.5t-92 116.5t-31 168q0 108 42 200.5t129.5 148.5t215.5 56l6 -101q-116 0 -190 -60t-91 -192q56 100 181 100q72 0 123.5 -31.5zM412 126.5q36 41.5 36 100.5
q0 56 -34.5 96t-101.5 40q-68 0 -105.5 -40.5t-37.5 -98.5q0 -56 36.5 -97.5t103.5 -41.5t103 41.5z" />
    <glyph glyph-name="seven" unicode="7" horiz-adv-x="520" 
d="M510 591l-295 -591h-122l305 590h-388v110h500v-109z" />
    <glyph glyph-name="eight" unicode="8" horiz-adv-x="603" 
d="M558 186q0 -65 -36 -110.5t-94.5 -68.5t-125.5 -23t-125.5 23.5t-95 70t-36.5 112.5q0 69 39.5 116t101.5 65q-45 22 -78.5 62.5t-33.5 101.5q0 58 32.5 99t85 61.5t111.5 20.5t111.5 -21t84.5 -62.5t32 -100.5t-31.5 -100.5t-82.5 -62.5q141 -58 141 -183zM218 597.5
q-34 -24.5 -34 -68.5q0 -48 36 -73t89 -41q43 8 78 38.5t35 75.5q0 44 -35.5 68.5t-85.5 24.5q-49 0 -83 -24.5zM404.5 110q41.5 27 41.5 77q0 94 -159 142q-29 -3 -59.5 -20t-50.5 -47t-20 -67q0 -55 43 -83.5t104 -28.5q59 0 100.5 27z" />
    <glyph glyph-name="nine" unicode="9" horiz-adv-x="601" 
d="M144.5 268.5q-51.5 31.5 -78 83.5t-26.5 112q0 63 28.5 121t85.5 94.5t136 36.5q87 0 148 -42.5t92 -116.5t31 -168q0 -108 -42 -200.5t-129.5 -148.5t-215.5 -56l-6 101q116 0 190 60t91 192q-56 -100 -181 -100q-72 0 -123.5 31.5zM189 573.5q-36 -41.5 -36 -100.5
q0 -56 34.5 -96t101.5 -40q68 0 105.5 40.5t37.5 98.5q0 56 -36.5 97.5t-103.5 41.5t-103 -41.5z" />
    <glyph glyph-name="colon" unicode=":" horiz-adv-x="276" 
d="M82 494.5q22 22.5 55 22.5q34 0 56.5 -22.5t22.5 -56.5q0 -33 -22.5 -55.5t-56.5 -22.5q-33 0 -55 22.5t-22 55.5q0 34 22 56.5zM82 123.5q22 22.5 55 22.5q34 0 56.5 -22.5t22.5 -56.5q0 -33 -22.5 -55.5t-56.5 -22.5q-33 0 -55 22.5t-22 55.5q0 34 22 56.5z" />
    <glyph glyph-name="semicolon" unicode=";" horiz-adv-x="318" 
d="M118 138l118 -46l-124 -282l-92 37zM124 494.5q22 22.5 55 22.5q34 0 56.5 -22.5t22.5 -56.5q0 -33 -22.5 -55.5t-56.5 -22.5q-33 0 -55 22.5t-22 55.5q0 34 22 56.5z" />
    <glyph glyph-name="less" unicode="&#x3c;" horiz-adv-x="402" 
d="M283 522l79 -75l-174 -194l174 -193l-79 -76l-243 269z" />
    <glyph glyph-name="equal" unicode="=" horiz-adv-x="446" 
d="M40 416h366v-101h-366v101zM40 235h366v-101h-366v101z" />
    <glyph glyph-name="greater" unicode="&#x3e;" horiz-adv-x="402" 
d="M119 -16l-79 76l174 193l-174 194l79 75l243 -269z" />
    <glyph glyph-name="question" unicode="?" horiz-adv-x="520" 
d="M381 691.5q49 -26.5 74 -70t25 -92.5t-22.5 -93t-68 -75t-110.5 -39v-101h-112v174h45q51 0 86.5 18t53.5 46t18 58q0 40 -29.5 68.5t-81.5 28.5q-84 0 -135 -80l-84 64q39 56 97.5 88t126.5 32t117 -26.5zM169 123.5q22 22.5 55 22.5q34 0 56.5 -22.5t22.5 -56.5
q0 -33 -22.5 -55.5t-56.5 -22.5q-33 0 -55 22.5t-22 55.5q0 34 22 56.5z" />
    <glyph glyph-name="at" unicode="@" horiz-adv-x="774" 
d="M555.5 566q75.5 -36 122 -106t46.5 -166q0 -87 -37 -140.5t-101 -53.5q-39 0 -66 21t-35 58q-17 -39 -51.5 -61t-81.5 -22q-50 0 -86 24.5t-55 63.5t-19 82t19 82t55 63t86 24q81 0 117 -65v52h79v-187q0 -69 46 -69q30 0 47.5 30.5t17.5 85.5q0 79 -37.5 136t-98 86.5
t-130.5 29.5q-73 0 -137.5 -31.5t-104.5 -92.5t-40 -147q0 -69 27.5 -128t80.5 -94.5t127 -35.5q42 0 78.5 11.5t64.5 31.5l38 -51q-29 -26 -77.5 -43.5t-107.5 -17.5q-94 0 -162.5 45t-104 120t-35.5 162q0 105 50 182t131.5 117t172.5 40q86 0 161.5 -36zM424 197.5
q23 27.5 23 69.5t-22.5 67.5t-60.5 25.5q-41 0 -64.5 -27.5t-23.5 -65.5t23.5 -67.5t63.5 -29.5q38 0 61 27.5z" />
    <glyph glyph-name="A" unicode="A" horiz-adv-x="699" 
d="M211 177l-65 -177h-126l274 700h113l272 -700h-126l-66 177h-276zM349 550l-99 -268h199z" />
    <glyph glyph-name="B" unicode="B" horiz-adv-x="607" 
d="M524 308q33 -45 33 -103q0 -51 -26.5 -98t-79 -77t-125.5 -30h-246v700h244q66 0 112 -26t69 -67.5t23 -88.5q0 -51 -27 -91t-76 -55q66 -19 99 -64zM304 415q51 0 79 28.5t28 67.5q0 41 -26 62.5t-75 21.5h-115v-180h109zM408.5 135q32.5 30 32.5 72q0 44 -33.5 74
t-91.5 30h-121v-206h121q60 0 92.5 30z" />
    <glyph glyph-name="C" unicode="C" horiz-adv-x="755" 
d="M589 40q-89 -56 -193 -56q-91 0 -170.5 42.5t-127.5 125t-48 194.5q0 116 51.5 200t135 127t178.5 43q82 0 153.5 -31t120.5 -89l-78 -84q-37 47 -89 71t-111 24q-65 0 -121 -29.5t-89.5 -87t-33.5 -139.5q0 -81 33 -139t87.5 -88t118.5 -30q73 0 133.5 40.5t93.5 118.5
l92 -50q-47 -107 -136 -163z" />
    <glyph glyph-name="D" unicode="D" horiz-adv-x="728" 
d="M80 700h244q112 0 192 -47.5t121 -126t41 -168.5q0 -92 -41.5 -174t-125.5 -133t-204 -51h-227v700zM195 595v-490h122q78 0 133 34t83 90t28 121q0 64 -27.5 120t-81 90.5t-129.5 34.5h-128z" />
    <glyph glyph-name="E" unicode="E" horiz-adv-x="560" 
d="M195 595v-193h237v-105h-237v-192h305v-105h-420v700h412v-105h-297z" />
    <glyph glyph-name="F" unicode="F" horiz-adv-x="552" 
d="M195 0h-115v700h412v-105h-297v-193h237v-105h-237v-297z" />
    <glyph glyph-name="G" unicode="G" horiz-adv-x="760" 
d="M688 79q-61 -47 -130.5 -71t-141.5 -24q-97 0 -180.5 43.5t-134.5 127t-51 197.5q0 115 51 197t134.5 124.5t179.5 42.5q79 0 150.5 -30t124.5 -90l-77 -84q-38 49 -91.5 72.5t-111.5 23.5q-66 0 -121 -28t-88.5 -85t-33.5 -139q0 -85 36 -144.5t94.5 -89.5t125.5 -30
q84 0 150 40v141h-162v107h277v-301z" />
    <glyph glyph-name="H" unicode="H" horiz-adv-x="723" 
d="M80 700h114v-296h335v296h114v-700h-114v298h-335v-298h-114v700z" />
    <glyph glyph-name="I" unicode="I" horiz-adv-x="275" 
d="M80 700h115v-700h-115v700z" />
    <glyph glyph-name="J" unicode="J" horiz-adv-x="523" 
d="M453 700v-491q0 -72 -30.5 -123t-79.5 -76.5t-105 -25.5q-51 0 -97 21t-78.5 62t-42.5 99l115 27q7 -49 34.5 -73.5t67.5 -24.5q44 0 72.5 29.5t28.5 82.5v493h115z" />
    <glyph glyph-name="K" unicode="K" horiz-adv-x="665" 
d="M195 303v-303h-115v700h115v-297l284 297h148l-329 -340l347 -360h-158z" />
    <glyph glyph-name="L" unicode="L" horiz-adv-x="518" 
d="M195 700v-595h293v-105h-408v700h115z" />
    <glyph glyph-name="M" unicode="M" horiz-adv-x="871" 
d="M791 0h-115v485l-188 -328h-105l-188 328v-485h-115v700h128l227 -396l228 396h128v-700z" />
    <glyph glyph-name="N" unicode="N" horiz-adv-x="741" 
d="M80 700h115l351 -495v495h115v-700h-115l-351 491v-491h-115v700z" />
    <glyph glyph-name="O" unicode="O" horiz-adv-x="824" 
d="M596 668q83 -48 130.5 -132t47.5 -186t-47.5 -186t-130.5 -132t-184 -48t-184 48t-130.5 132t-47.5 186t47.5 186t130.5 132t184 48t184 -48zM288.5 573q-56.5 -33 -89 -91.5t-32.5 -131.5t32.5 -131.5t89 -91.5t123.5 -33t123 33t89 92t33 131t-33 131t-89 92t-123 33
t-123.5 -33z" />
    <glyph glyph-name="P" unicode="P" horiz-adv-x="569" 
d="M443 671q48 -29 72 -75.5t24 -98.5q0 -53 -25.5 -101t-74 -77.5t-115.5 -29.5h-129v-289h-115v700h249q66 0 114 -29zM311 393q52 0 82 31.5t30 73.5q0 40 -28.5 68.5t-81.5 28.5h-118v-202h116z" />
    <glyph glyph-name="Q" unicode="Q" horiz-adv-x="824" 
d="M741 -56l-42 -105q-60 20 -113 58t-85 98q-38 -11 -89 -11q-101 0 -184 48t-130.5 132t-47.5 186t47.5 186t130.5 132t184 48t184 -48t130.5 -132t47.5 -186t-48 -186t-130 -132q47 -61 145 -88zM199.5 218.5q32.5 -58.5 89 -91.5t123.5 -33t123 33t89 92t33 131t-33 131
t-89 92t-123 33t-123.5 -33t-89 -91.5t-32.5 -131.5t32.5 -131.5z" />
    <glyph glyph-name="R" unicode="R" horiz-adv-x="614" 
d="M448 0l-160 289h-93v-289h-115v700h249q66 0 114 -28t72.5 -73.5t24.5 -97.5q0 -61 -33.5 -114t-95.5 -78l178 -309h-141zM393.5 424.5q29.5 30.5 29.5 71.5q0 40 -30 69.5t-82 29.5h-116v-201h116q53 0 82.5 30.5z" />
    <glyph glyph-name="S" unicode="S" horiz-adv-x="589" 
d="M379.5 600.5q-40.5 16.5 -78.5 16.5q-48 0 -79.5 -26t-31.5 -73q0 -50 35 -76t104 -49q75 -25 115.5 -44t70 -57t29.5 -100q0 -67 -34 -114t-90 -70.5t-123 -23.5q-69 0 -135.5 26t-116.5 76l76 91q34 -42 82.5 -65t99.5 -23q53 0 88 23t35 67q0 30 -18 50.5t-45 33
t-77 30.5q-65 24 -106.5 45.5t-72 63.5t-30.5 109q0 68 33.5 114.5t86.5 68.5t112 22q57 0 109 -21.5t90 -58.5l-62 -80q-26 28 -66.5 44.5z" />
    <glyph glyph-name="T" unicode="T" horiz-adv-x="613" 
d="M364 0h-115v595h-229v105h573v-105h-229v-595z" />
    <glyph glyph-name="U" unicode="U" 
d="M209 13.5q-62 29.5 -100.5 88.5t-38.5 143v455h115v-433q0 -84 45.5 -128t110.5 -44q64 0 109.5 43.5t45.5 128.5v433h115v-455q0 -84 -38.5 -143t-100 -88.5t-131.5 -29.5t-132 29.5z" />
    <glyph glyph-name="V" unicode="V" horiz-adv-x="686" 
d="M395 0h-110l-265 700h123l199 -532l196 532h128z" />
    <glyph glyph-name="W" unicode="W" horiz-adv-x="1024" 
d="M781 0h-110l-159 500l-160 -500h-109l-233 700h126l158 -504l158 504h119l159 -504l157 504h127z" />
    <glyph glyph-name="X" unicode="X" horiz-adv-x="706" 
d="M428 350l258 -350h-146l-187 259l-187 -259h-146l262 354l-256 346h144l187 -257l186 257h143z" />
    <glyph glyph-name="Y" unicode="Y" horiz-adv-x="656" 
d="M385 0h-115v302l-260 398h141l177 -288l177 288h141l-261 -399v-301z" />
    <glyph glyph-name="Z" unicode="Z" horiz-adv-x="584" 
d="M40 95l345 500h-337v105h479v-94l-346 -501h363v-105h-504v95z" />
    <glyph glyph-name="bracketleft" unicode="[" horiz-adv-x="305" 
d="M70 -156v944h205v-102h-96v-739h96v-103h-205z" />
    <glyph glyph-name="backslash" unicode="\" horiz-adv-x="366" 
d="M88 718l278 -699l-88 -35l-278 700z" />
    <glyph glyph-name="bracketright" unicode="]" horiz-adv-x="315" 
d="M30 -53h96v739h-96v102h205v-944h-205v103z" />
    <glyph glyph-name="asciicircum" unicode="^" horiz-adv-x="507" 
d="M254 545l-152 -158l-82 82l234 249l233 -249l-82 -82z" />
    <glyph glyph-name="underscore" unicode="_" horiz-adv-x="463" 
d="M423 102v-102h-383v102h383z" />
    <glyph glyph-name="grave" unicode="`" horiz-adv-x="280" 
d="M250 599l-250 76l27 97l253 -77z" />
    <glyph glyph-name="a" unicode="a" 
d="M630 -0.5q-24 -9.5 -50 -9.5q-40 0 -72.5 22.5t-42.5 64.5q-31 -43 -81 -65.5t-103 -22.5q-63 0 -118 31t-89 90.5t-34 141.5q0 85 36 145t94 90t123 30q49 0 92.5 -18t67.5 -57v62h109v-368q0 -24 10.5 -35t26.5 -11q10 0 21 4t19 9l32 -74q-17 -20 -41 -29.5z
M372.5 109q35.5 19 57 56t21.5 90t-21.5 89.5t-56 55t-74.5 18.5q-39 0 -73 -18.5t-55 -55.5t-21 -90t20.5 -90t54.5 -55.5t73 -18.5t74.5 19z" />
    <glyph glyph-name="b" unicode="b" horiz-adv-x="633" 
d="M465 486.5q57 -30.5 92.5 -90t35.5 -142.5q0 -80 -34 -140t-90 -92.5t-120 -32.5q-48 0 -94 19t-76 55v-63h-109v700h111v-258q29 38 72 56.5t92 18.5q63 0 120 -30.5zM407 108.5q34 18.5 55 55.5t21 89q0 53 -21 90.5t-55.5 56t-73.5 18.5t-74 -19t-56.5 -56t-21.5 -89
t21.5 -89t57 -56t74.5 -19t73 18.5z" />
    <glyph glyph-name="c" unicode="c" horiz-adv-x="544" 
d="M427 25.5q-63 -36.5 -134 -36.5q-65 0 -123 31t-94 91t-36 142q0 84 36.5 143.5t95 90t125.5 30.5q60 0 114.5 -25.5t91.5 -74.5l-74 -70q-22 34 -55.5 51t-71.5 17q-39 0 -74.5 -18.5t-57 -55t-21.5 -87.5q0 -50 21.5 -86.5t56 -55t73.5 -18.5q41 0 80 22t63 68l81 -56
q-34 -66 -97 -102.5z" />
    <glyph glyph-name="d" unicode="d" horiz-adv-x="632" 
d="M562 0h-109v65q-34 -39 -78.5 -57.5t-94.5 -18.5q-63 0 -118 31.5t-88.5 92t-33.5 141.5q0 83 36 142.5t94 90t122 30.5q48 0 91 -17t68 -50v250h111v-700zM372.5 109q35.5 19 57 56t21.5 89t-21.5 89t-56.5 56t-74 19q-40 0 -74 -18.5t-55 -56t-21 -90.5q0 -77 43 -120
t106 -43q39 0 74.5 19z" />
    <glyph glyph-name="e" unicode="e" horiz-adv-x="567" 
d="M523 203h-363q12 -56 52.5 -83t93.5 -27q43 0 80 17.5t62 53.5l71 -69q-41 -52 -97 -79t-120 -27q-67 0 -127.5 31.5t-97.5 91.5t-37 143q0 82 36 141.5t95 90t126 30.5q63 0 115.5 -28t83.5 -84.5t31 -138.5q0 -37 -4 -63zM201.5 386q-38.5 -32 -44.5 -91h259
q-1 59 -37 91t-87 32q-52 0 -90.5 -32z" />
    <glyph glyph-name="f" unicode="f" horiz-adv-x="387" 
d="M118 402h-98v102h98v46q0 83 49 125.5t120 42.5q63 0 120 -34l-43 -86q-30 23 -67 23q-30 0 -49 -19t-19 -57v-41h131v-102h-131v-402h-111v402z" />
    <glyph glyph-name="g" unicode="g" horiz-adv-x="626" 
d="M566 26q0 -83 -36.5 -142t-96.5 -89t-129 -30q-58 0 -112.5 21.5t-95 64.5t-56.5 103l104 41q15 -61 61 -94.5t103 -33.5q39 0 73.5 16.5t55.5 50.5t21 82v79q-31 -39 -76.5 -59.5t-96.5 -20.5q-62 0 -117.5 30t-89.5 87.5t-34 134.5q0 79 36.5 135.5t93.5 85.5t120 29
q109 0 164 -72v59h108v-478zM376.5 133.5q35.5 17.5 57.5 52t22 82.5t-21.5 82t-56.5 51t-75 17q-39 0 -73.5 -17t-55.5 -51t-21 -82q0 -47 20.5 -81.5t55 -52.5t73.5 -18t74.5 17.5z" />
    <glyph glyph-name="h" unicode="h" horiz-adv-x="591" 
d="M428.5 495.5q41.5 -21.5 67 -64t25.5 -102.5v-329h-111v290q0 61 -28 91t-74 30q-54 0 -90.5 -40t-36.5 -110v-261h-111v700h111v-269q27 43 68 64.5t90 21.5q48 0 89.5 -21.5z" />
    <glyph glyph-name="i" unicode="i" horiz-adv-x="279" 
d="M82.5 716.5q22.5 22.5 56.5 22.5t57 -22.5t23 -56.5t-23 -56.5t-57 -22.5t-56.5 22.5t-22.5 56.5t22.5 56.5zM84 504h111v-504h-111v504z" />
    <glyph glyph-name="j" unicode="j" horiz-adv-x="282" 
d="M85 716.5q23 22.5 56 22.5q35 0 58 -22.5t23 -56.5t-23 -56.5t-58 -22.5q-33 0 -56 22.5t-23 56.5t23 56.5zM198 -67q0 -82 -47.5 -124.5t-116.5 -42.5q-61 0 -114 34l41 85q29 -22 63 -22q27 0 45 18.5t18 55.5v567h111v-571z" />
    <glyph glyph-name="k" unicode="k" horiz-adv-x="589" 
d="M182 229l-1 -229h-111v700h111v-416l215 220h159l-250 -237l279 -267h-163z" />
    <glyph glyph-name="l" unicode="l" horiz-adv-x="325" 
d="M227 -11q-67 0 -112 41.5t-45 126.5v543h111v-537q0 -40 17.5 -58.5t46.5 -18.5q22 0 44 9l36 -83q-48 -23 -98 -23z" />
    <glyph glyph-name="m" unicode="m" horiz-adv-x="857" 
d="M700.5 496.5q39.5 -20.5 63 -61.5t23.5 -101v-334h-111v303q0 52 -23.5 80t-63.5 28q-45 0 -75 -33.5t-30 -95.5v-282h-110v303q0 52 -25 80t-64 28q-43 0 -73.5 -34t-30.5 -95v-282h-111v504h109v-67q23 39 60.5 59.5t81.5 20.5q43 0 81 -22t58 -65q24 43 66 65t89 22
q46 0 85.5 -20.5z" />
    <glyph glyph-name="n" unicode="n" horiz-adv-x="591" 
d="M70 504h109v-72q26 43 68.5 64t91.5 21q48 0 89.5 -21.5t67 -64t25.5 -102.5v-329h-111v290q0 61 -28 91t-74 30q-54 0 -90.5 -40t-36.5 -110v-261h-111v504z" />
    <glyph glyph-name="o" unicode="o" horiz-adv-x="607" 
d="M439 482.5q60 -34.5 94 -95t34 -134.5t-34 -134.5t-94 -95t-136 -34.5q-75 0 -135 34.5t-94 95t-34 134.5t34 134.5t94 95t135 34.5q76 0 136 -34.5zM192.5 369.5q-43.5 -45.5 -43.5 -115.5t43.5 -115.5t110.5 -45.5q68 0 111.5 45.5t43.5 115.5t-43.5 115.5t-111.5 45.5
q-67 0 -110.5 -45.5z" />
    <glyph glyph-name="p" unicode="p" horiz-adv-x="633" 
d="M464.5 483q56.5 -30 92.5 -89t36 -142q0 -82 -34.5 -141.5t-90.5 -90.5t-120 -31q-47 0 -91 18t-76 54v-282h-111v725h109v-69q27 37 71 57.5t96 20.5q62 0 118.5 -30zM407 108.5q34 18.5 55 55.5t21 89t-21 88.5t-55.5 54.5t-73.5 18t-74 -18.5t-56.5 -54.5t-21.5 -87
q0 -52 21.5 -89t57 -56t74.5 -19t73 18.5z" />
    <glyph glyph-name="q" unicode="q" horiz-adv-x="632" 
d="M562 -221h-111v285q-33 -38 -77 -56.5t-94 -18.5q-63 0 -117.5 30.5t-88.5 90.5t-34 144q0 82 36 140.5t94 88.5t122 30q45 0 88 -18.5t73 -50.5v60h109v-725zM372.5 109q35.5 19 57 56t21.5 89q0 51 -21.5 87t-56.5 54.5t-74 18.5t-73.5 -18t-55.5 -54.5t-21 -88.5
t21 -89t55 -55.5t73 -18.5t74.5 19z" />
    <glyph glyph-name="r" unicode="r" horiz-adv-x="383" 
d="M373 499l-25 -112q-30 13 -64 13q-46 0 -74.5 -29.5t-28.5 -91.5v-279h-111v504h109v-61q19 35 53.5 51.5t74.5 16.5q33 0 66 -12z" />
    <glyph glyph-name="s" unicode="s" horiz-adv-x="507" 
d="M448 66.5q-29 -37.5 -77.5 -57.5t-106.5 -20q-67 0 -131 26t-103 74l82 77q32 -40 75 -59t87 -19q39 0 65 15t26 37q0 18 -15 28.5t-35 16.5t-67 16q-54 12 -92.5 27.5t-65.5 47.5t-27 85q0 77 57.5 116.5t143.5 39.5q52 0 100 -15t86 -43l-63 -82q-25 20 -57 31.5
t-66 11.5q-39 0 -64 -15t-25 -42q0 -30 29 -43.5t90 -24.5q57 -11 94 -24t63 -41t26 -76q0 -50 -29 -87.5z" />
    <glyph glyph-name="t" unicode="t" horiz-adv-x="437" 
d="M295 -11q-70 0 -118 43t-48 125v245h-109v102h109v129h110v-129h141v-102h-141v-239q0 -40 19.5 -58.5t51.5 -18.5q29 0 67 19l40 -82q-57 -34 -122 -34z" />
    <glyph glyph-name="u" unicode="u" horiz-adv-x="576" 
d="M506 0h-109v67q-54 -78 -149 -78q-48 0 -91 21.5t-70 66t-27 110.5v317h110v-289q0 -56 27.5 -86t71.5 -30q33 0 62 17t46.5 50.5t17.5 80.5v257h111v-504z" />
    <glyph glyph-name="v" unicode="v" horiz-adv-x="552" 
d="M331 0h-109l-202 504h124l133 -366l132 366h123z" />
    <glyph glyph-name="w" unicode="w" horiz-adv-x="886" 
d="M679 0h-109l-127 329l-128 -329h-109l-186 504h124l116 -348l126 348h113l128 -348l116 348h123z" />
    <glyph glyph-name="x" unicode="x" horiz-adv-x="571" 
d="M561 0h-146l-130 165l-130 -165h-145l206 253l-206 251h146l129 -162l129 162h147l-207 -251z" />
    <glyph glyph-name="y" unicode="y" horiz-adv-x="610" 
d="M540 14q0 -78 -35.5 -134.5t-93 -85t-122.5 -28.5q-56 0 -107.5 21t-89.5 63.5t-52 104.5l105 36q12 -57 54 -90t95 -33q58 0 97.5 38.5t39.5 107.5v81q-24 -41 -62 -65.5t-89 -24.5q-50 0 -96 23t-75 70.5t-29 115.5v290h111v-273q0 -56 29.5 -87.5t77.5 -31.5
q55 0 93 40t38 110v242h111v-490z" />
    <glyph glyph-name="z" unicode="z" horiz-adv-x="524" 
d="M40 104l283 296h-272v104h417v-105l-274 -295h290v-104h-444v104z" />
    <glyph glyph-name="braceleft" unicode="{" horiz-adv-x="347" 
d="M234.5 -35.5q22.5 -16.5 52.5 -16.5l-12 -90q-69 0 -120.5 36t-51.5 113v193q0 37 -17.5 54t-55.5 17v98q37 0 55 17.5t18 53.5v193q0 78 51.5 113.5t120.5 35.5l12 -89q-30 0 -52.5 -16.5t-22.5 -50.5v-196q0 -46 -26.5 -74.5t-61.5 -35.5q35 -6 61.5 -34.5t26.5 -74.5
v-196q0 -34 22.5 -50.5z" />
    <glyph glyph-name="bar" unicode="|" horiz-adv-x="288" 
d="M198 -135h-108v880h108v-880z" />
    <glyph glyph-name="braceright" unicode="}" horiz-adv-x="347" 
d="M135 211q0 46 26.5 74.5t61.5 34.5q-35 7 -61.5 35.5t-26.5 74.5v196q0 34 -22.5 50.5t-52.5 16.5l12 89q69 0 120.5 -35.5t51.5 -113.5v-193q0 -36 18 -53.5t55 -17.5v-98q-38 0 -55.5 -17t-17.5 -54v-193q0 -77 -51.5 -113t-120.5 -36l-12 90q30 0 52.5 16.5t22.5 50.5
v196z" />
    <glyph glyph-name="asciitilde" unicode="~" horiz-adv-x="645" 
d="M104.5 372.5q48.5 40.5 109.5 40.5q36 0 67 -12.5t75 -37.5q33 -19 52 -27.5t38 -8.5q23 0 41.5 17t36.5 55l91 -53q-20 -61 -66 -104.5t-109 -43.5q-36 0 -66 13t-69 38q-31 19 -51 28.5t-40 9.5q-51 0 -94 -76l-90 56q26 65 74.5 105.5z" />
    <glyph glyph-name="exclamdown" unicode="&#xa1;" horiz-adv-x="336" 
d="M224 488.5q-22 -22.5 -56 -22.5q-33 0 -55.5 22.5t-22.5 56.5q0 33 22.5 55.5t55.5 22.5q34 0 56 -22.5t22 -55.5q0 -34 -22 -56.5zM228 -124h-120l13 524h94z" />
    <glyph glyph-name="cent" unicode="&#xa2;" horiz-adv-x="544" 
d="M449 41q-47 -34 -102 -46v-99h-82v94q-60 7 -111.5 39.5t-82.5 90t-31 133.5q0 77 31 134t82 89t112 39v89h82v-92q46 -9 86.5 -32.5t69.5 -62.5l-74 -70q-22 34 -55.5 51t-71.5 17q-39 0 -74.5 -18.5t-57 -55t-21.5 -87.5q0 -50 21.5 -86.5t56 -55t73.5 -18.5
q41 0 80 22t63 68l81 -56q-28 -53 -75 -87z" />
    <glyph glyph-name="sterling" unicode="&#xa3;" horiz-adv-x="640" 
d="M552 20q-46 -36 -101 -36q-40 0 -80.5 19t-84.5 56q-24 -36 -58.5 -55.5t-79.5 -19.5q-64 0 -101 38t-37 93q0 52 33.5 91.5t92.5 39.5q50 0 96 -32q3 39 3 89l1 78h-119v81h119v88q0 83 49 125.5t120 42.5q63 0 120 -34l-43 -86q-30 23 -67 23q-30 0 -49 -19t-19 -57
v-83h152v-81h-152v-114q0 -45 -3 -75t-12 -52q6 -4 28.5 -20t42 -23.5t38.5 -7.5q65 0 105 87l84 -50q-32 -70 -78 -106zM191.5 93q19.5 14 28.5 38q-15 16 -34 24t-35 8q-21 0 -33.5 -12t-12.5 -30q0 -17 12 -29.5t33 -12.5q22 0 41.5 14z" />
    <glyph glyph-name="currency" unicode="&#xa4;" horiz-adv-x="661" 
d="M515 162l116 -115l-58 -59l-113 114q-56 -42 -130 -42q-73 0 -130 41l-112 -113l-58 59l115 114q-35 57 -35 127q0 71 35 128l-115 115l58 58l113 -113q57 41 129 41q73 0 130 -41l113 113l58 -58l-116 -116q35 -57 35 -127q0 -69 -35 -126zM421 194.5q36 37.5 36 93.5
q0 57 -36 94t-91 37t-91 -37t-36 -94q0 -56 36 -93.5t91 -37.5t91 37.5z" />
    <glyph glyph-name="yen" unicode="&#xa5;" horiz-adv-x="656" 
d="M388 306h151v-79h-154v-80h154v-80h-154v-67h-115v67h-152v80h152v80h-152v79h149l-257 394h141l177 -288l177 288h141z" />
    <glyph glyph-name="brokenbar" unicode="&#xa6;" horiz-adv-x="288" 
d="M198 354h-108v391h108v-391zM198 -135h-108v390h108v-390z" />
    <glyph glyph-name="section" unicode="&#xa7;" horiz-adv-x="589" 
d="M523 272q21 -34 21 -82q0 -66 -34 -112.5t-90.5 -70t-122.5 -23.5q-69 0 -135.5 26t-116.5 76l72 85q34 -44 84 -68t102 -24q51 0 86 22.5t35 66.5q0 34 -25 57q-36 -29 -90 -29q-44 0 -81 21t-58 57.5t-21 80.5v12q-72 59 -72 144q0 67 33.5 114t87 70t112.5 23
q56 0 108 -21.5t90 -58.5l-58 -75q-25 30 -67.5 48.5t-80.5 18.5q-48 0 -82.5 -27t-34.5 -74q0 -29 16 -56q48 41 108 41q43 0 79.5 -21t57.5 -57.5t21 -80.5q0 -16 -2 -24q37 -25 58 -59zM359 304q21 21 21 51t-21 51t-50 21q-31 0 -52 -21t-21 -51t21 -51t52 -21
q29 0 50 21z" />
    <glyph glyph-name="dieresis" unicode="&#xa8;" horiz-adv-x="379" 
d="M124 623q-21 -21 -52 -21q-30 0 -51 21t-21 51t21 51t51 21q31 0 52 -21t21 -51t-21 -51zM357.5 623q-21.5 -21 -52.5 -21q-30 0 -51 21t-21 51t21 51t51 21q31 0 52.5 -21t21.5 -51t-21.5 -51z" />
    <glyph glyph-name="copyright" unicode="&#xa9;" horiz-adv-x="839" 
d="M607.5 679.5q84.5 -48.5 133 -134t48.5 -191.5t-48.5 -191t-133 -133.5t-188.5 -48.5t-188 48.5t-132.5 133.5t-48.5 191t48.5 191.5t132.5 134t188 48.5t188.5 -48.5zM573.5 79.5q69.5 40.5 109.5 112.5t40 162t-40 162t-109.5 112.5t-154.5 40.5q-84 0 -153.5 -40.5
t-109.5 -112.5t-40 -162t40 -162t109.5 -112.5t153.5 -40.5q85 0 154.5 40.5zM519 189q-46 -27 -99 -27q-48 0 -91.5 23t-70 67.5t-26.5 105.5q0 62 27 106t71 66.5t94 22.5q43 0 83.5 -19t68.5 -55l-56 -52q-16 26 -40.5 38t-52.5 12q-46 0 -80 -31.5t-34 -86.5
q0 -56 33.5 -88t78.5 -32q31 0 59.5 16t45.5 51l61 -41q-26 -49 -72 -76z" />
    <glyph glyph-name="ordfeminine" unicode="&#xaa;" horiz-adv-x="576" 
d="M520 304.5q-22 -10.5 -47 -10.5q-35 0 -64.5 18t-40.5 55q-23 -34 -60.5 -53t-80.5 -19q-49 0 -94.5 25t-74 73t-28.5 113q0 66 29.5 114.5t76 73t95.5 24.5q34 0 64.5 -11.5t53.5 -32.5v38h104v-272q0 -20 10.5 -30.5t26.5 -10.5q19 0 37 16l29 -82q-14 -18 -36 -28.5z
M315 424.5q32 30.5 32 84.5q0 53 -31.5 82.5t-74.5 29.5q-44 0 -75 -29.5t-31 -83.5t30.5 -84t74.5 -30q43 0 75 30.5z" />
    <glyph glyph-name="guillemotleft" unicode="&#xab;" horiz-adv-x="602" 
d="M295 121l-82 -69l-193 226l193 225l82 -69l-132 -156zM561 121l-82 -69l-193 226l193 225l82 -69l-132 -156z" />
    <glyph glyph-name="logicalnot" unicode="&#xac;" horiz-adv-x="483" 
d="M433 327v-199h-105v98h-278v101h383z" />
    <glyph glyph-name="registered" unicode="&#xae;" horiz-adv-x="839" 
d="M607.5 679.5q84.5 -48.5 133 -134t48.5 -191.5t-48.5 -191t-133 -133.5t-188.5 -48.5t-188 48.5t-132.5 133.5t-48.5 191t48.5 191.5t132.5 134t188 48.5t188.5 -48.5zM573.5 79.5q69.5 40.5 109.5 112.5t40 162t-40 162t-109.5 112.5t-154.5 40.5q-84 0 -153.5 -40.5
t-109.5 -112.5t-40 -162t40 -162t109.5 -112.5t153.5 -40.5q85 0 154.5 40.5zM540 360q-19 -29 -56 -40l88 -132h-89l-70 112h-44v-112h-73v348h139q58 0 91 -33t33 -78q0 -36 -19 -65zM473.5 386q12.5 14 12.5 34q0 19 -12 32.5t-38 13.5h-67v-94h66q26 0 38.5 14z" />
    <glyph glyph-name="macron" unicode="&#xaf;" horiz-adv-x="297" 
d="M297 699v-99h-297v99h297z" />
    <glyph glyph-name="degree" unicode="&#xb0;" horiz-adv-x="451" 
d="M64.5 625q24.5 43 66.5 68t93 25t94 -25t68 -68t25 -94t-25 -93t-68 -66.5t-94 -24.5t-93 24.5t-66.5 66.5t-24.5 93t24.5 94zM165 469.5q24 -23.5 60 -23.5q35 0 58 23.5t23 60.5t-23.5 61t-57.5 24q-36 0 -60 -24t-24 -61t24 -60.5z" />
    <glyph glyph-name="plusminus" unicode="&#xb1;" horiz-adv-x="446" 
d="M40 177h366v-101h-366v101zM170 406h-130v101h130v134h105v-134h131v-101h-131v-135h-105v135z" />
    <glyph glyph-name="acute" unicode="&#xb4;" horiz-adv-x="280" 
d="M253 762l27 -97l-250 -76l-30 96z" />
    <glyph glyph-name="paragraph" unicode="&#xb6;" horiz-adv-x="576" 
d="M506 0h-80v595h-70v-595h-80v289h-31q-67 0 -116 29.5t-74 77t-25 101.5q0 52 24 98.5t71.5 75.5t114.5 29h266v-700zM276 595h-21q-52 0 -80.5 -28.5t-28.5 -68.5q0 -42 29.5 -73.5t82.5 -31.5h18v202z" />
    <glyph glyph-name="periodcentered" unicode="&#xb7;" horiz-adv-x="243" 
d="M179.5 393.5q23.5 -23.5 23.5 -58.5q0 -34 -24 -58t-58 -24q-33 0 -57 24t-24 58t24 58t57 24q35 0 58.5 -23.5z" />
    <glyph glyph-name="cedilla" unicode="&#xb8;" horiz-adv-x="270" 
d="M240.5 -78.5q29.5 -29.5 29.5 -67.5q0 -28 -16 -53t-46 -40.5t-70 -15.5q-38 0 -75 16t-63 45l48 51q19 -22 42 -33.5t46 -11.5q26 0 44.5 12.5t18.5 35.5q0 31 -33 45t-80 19l36 115h60l-27 -79q56 -9 85.5 -38.5z" />
    <glyph glyph-name="ordmasculine" unicode="&#xba;" horiz-adv-x="488" 
d="M353 689.5q49 -28.5 77 -77.5t28 -108t-28 -108t-77 -77.5t-109 -28.5t-109 28.5t-77 77.5t-28 108t28 108t77 77.5t109 28.5t109 -28.5zM166 586q-31 -32 -31 -81t31 -81t78 -32t77.5 32t30.5 81t-30.5 81t-77.5 32t-78 -32z" />
    <glyph glyph-name="guillemotright" unicode="&#xbb;" horiz-adv-x="601" 
d="M61 434l82 69l193 -225l-193 -226l-82 69l132 157zM327 434l82 69l193 -225l-193 -226l-82 69l132 157z" />
    <glyph glyph-name="onequarter" unicode="&#xbc;" horiz-adv-x="901" 
d="M194 42l429 674l64 -41l-430 -675zM133 616h-53v83h144v-424h-91v341zM821 95h-61v-95h-91v95h-176v77l174 252h93v-248h61v-81zM595 176h74v112z" />
    <glyph glyph-name="onehalf" unicode="&#xbd;" horiz-adv-x="935" 
d="M855 0h-295v72l148 152q43 43 43 82q0 24 -13.5 38t-35.5 14q-26 0 -44.5 -18t-21.5 -46l-81 24q7 55 50 88.5t103 33.5q62 0 101 -35t39 -92q0 -41 -20.5 -75.5t-53.5 -67.5l-90 -89h171v-81zM194 42l429 674l64 -41l-430 -675zM133 616h-53v83h144v-424h-91v341z" />
    <glyph glyph-name="threequarters" unicode="&#xbe;" horiz-adv-x="998" 
d="M357.5 464.5q20.5 -27.5 20.5 -67.5q0 -56 -43 -92t-108 -36q-50 0 -89.5 25t-57.5 69l77 47q8 -28 28.5 -44t46.5 -16q25 0 40 13.5t15 34.5q0 29 -30 44.5t-87 14.5v78q46 -1 73.5 14t27.5 42q0 19 -13.5 31.5t-34.5 12.5q-25 0 -44 -14t-25 -37l-72 45
q18 40 57.5 63.5t89.5 23.5q58 0 96 -32.5t38 -81.5q0 -35 -17.5 -60.5t-47.5 -36.5q39 -13 59.5 -40.5zM289 42l429 674l64 -41l-430 -675zM918 95h-61v-95h-91v95h-176v77l174 252h93v-248h61v-81zM692 176h74v112z" />
    <glyph glyph-name="questiondown" unicode="&#xbf;" horiz-adv-x="500" 
d="M341 470.5q-22 -22.5 -55 -22.5q-34 0 -56.5 22.5t-22.5 56.5q0 33 22.5 55.5t56.5 22.5q33 0 55 -22.5t22 -55.5q0 -34 -22 -56.5zM129 -97.5q-49 26.5 -74 70t-25 92.5t22.5 93t68 75t110.5 39v101h112v-174h-45q-51 0 -86.5 -18t-53.5 -46t-18 -58q0 -40 29.5 -68.5
t81.5 -28.5q84 0 135 80l84 -64q-39 -56 -97.5 -88t-126.5 -32t-117 26.5z" />
    <glyph glyph-name="Agrave" unicode="&#xc0;" horiz-adv-x="699" 
d="M211 177l-65 -177h-126l274 700h113l272 -700h-126l-66 177h-276zM349 550l-99 -268h199zM420 759l-250 76l27 97l253 -77z" />
    <glyph glyph-name="Aacute" unicode="&#xc1;" horiz-adv-x="699" 
d="M211 177l-65 -177h-126l274 700h113l272 -700h-126l-66 177h-276zM349 550l-99 -268h199zM497 933l27 -97l-250 -76l-30 96z" />
    <glyph glyph-name="Acircumflex" unicode="&#xc2;" horiz-adv-x="699" 
d="M211 177l-65 -177h-126l274 700h113l272 -700h-126l-66 177h-276zM349 550l-99 -268h199zM477 750l-127 83l-128 -83l-55 70l182 125l183 -125z" />
    <glyph glyph-name="Atilde" unicode="&#xc3;" horiz-adv-x="699" 
d="M211 177l-65 -177h-126l274 700h113l272 -700h-126l-66 177h-276zM349 550l-99 -268h199zM478.5 786.5q-25.5 -25.5 -57.5 -25.5q-17 0 -33.5 8t-36.5 22q-18 12 -29 17.5t-22 5.5q-15 0 -31 -13t-37 -37l-64 53q22 35 57 65.5t74 30.5q18 0 33.5 -7t38.5 -21
q18 -11 28 -15.5t20 -4.5q14 0 25.5 11t26.5 31l62 -49q-29 -46 -54.5 -71.5z" />
    <glyph glyph-name="Adieresis" unicode="&#xc4;" horiz-adv-x="699" 
d="M211 177l-65 -177h-126l274 700h113l272 -700h-126l-66 177h-276zM349 550l-99 -268h199zM284 782q-21 -21 -52 -21q-30 0 -51 21t-21 51t21 51t51 21q31 0 52 -21t21 -51t-21 -51zM517.5 782q-21.5 -21 -52.5 -21q-30 0 -51 21t-21 51t21 51t51 21q31 0 52.5 -21
t21.5 -51t-21.5 -51z" />
    <glyph glyph-name="Aring" unicode="&#xc5;" horiz-adv-x="699" 
d="M211 177l-65 -177h-126l274 700h113l272 -700h-126l-66 177h-276zM349 550l-99 -268h199zM270 918q31 32 78 32q46 0 79 -32.5t33 -77.5q0 -47 -32.5 -78.5t-79.5 -31.5t-78 31.5t-31 78.5q0 46 31 78zM313 802.5q13 -14.5 35 -14.5t35.5 14.5t13.5 36.5t-13.5 36.5
t-35.5 14.5t-35 -14.5t-13 -36.5t13 -36.5z" />
    <glyph glyph-name="AE" unicode="&#xc6;" horiz-adv-x="958" 
d="M898 105v-105h-410v177h-249l-88 -177h-131l363 700h507v-105h-287v-193h227v-105h-227v-192h295zM488 282v317h-39l-158 -317h197z" />
    <glyph glyph-name="Ccedilla" unicode="&#xc7;" horiz-adv-x="755" 
d="M596 44.5q-84 -55.5 -184 -60.5l-12 -35q56 -9 85.5 -38.5t29.5 -67.5q0 -28 -16 -53t-46 -40.5t-70 -15.5q-38 0 -75 16t-63 45l48 51q19 -22 42 -33.5t46 -11.5q26 0 44.5 12.5t18.5 35.5q0 31 -33 45t-80 19l23 73q-83 10 -152.5 55t-110.5 123t-41 182
q0 116 51.5 200t135 127t178.5 43q82 0 153.5 -31t120.5 -89l-78 -84q-37 47 -89 71t-111 24q-65 0 -121 -29.5t-89.5 -87t-33.5 -139.5q0 -81 33 -139t87.5 -88t118.5 -30q73 0 133.5 40.5t93.5 118.5l92 -50q-45 -103 -129 -158.5z" />
    <glyph glyph-name="Egrave" unicode="&#xc8;" horiz-adv-x="560" 
d="M195 595v-193h237v-105h-237v-192h305v-105h-420v700h412v-105h-297zM397 759l-250 76l27 97l253 -77z" />
    <glyph glyph-name="Eacute" unicode="&#xc9;" horiz-adv-x="560" 
d="M195 595v-193h237v-105h-237v-192h305v-105h-420v700h412v-105h-297zM434 933l27 -97l-250 -76l-30 96z" />
    <glyph glyph-name="Ecircumflex" unicode="&#xca;" horiz-adv-x="560" 
d="M195 595v-193h237v-105h-237v-192h305v-105h-420v700h412v-105h-297zM419 750l-127 83l-128 -83l-55 70l182 125l183 -125z" />
    <glyph glyph-name="Edieresis" unicode="&#xcb;" horiz-adv-x="560" 
d="M195 595v-193h237v-105h-237v-192h305v-105h-420v700h412v-105h-297zM230 782q-21 -21 -52 -21q-30 0 -51 21t-21 51t21 51t51 21q31 0 52 -21t21 -51t-21 -51zM463.5 782q-21.5 -21 -52.5 -21q-30 0 -51 21t-21 51t21 51t51 21q31 0 52.5 -21t21.5 -51t-21.5 -51z" />
    <glyph glyph-name="Igrave" unicode="&#xcc;" horiz-adv-x="275" 
d="M80 700h115v-700h-115v700zM209 759l-250 76l27 97l253 -77z" />
    <glyph glyph-name="Iacute" unicode="&#xcd;" horiz-adv-x="275" 
d="M80 700h115v-700h-115v700zM293 933l27 -97l-250 -76l-30 96z" />
    <glyph glyph-name="Icircumflex" unicode="&#xce;" horiz-adv-x="275" 
d="M80 700h115v-700h-115v700zM265 750l-127 83l-128 -83l-55 70l182 125l183 -125z" />
    <glyph glyph-name="Idieresis" unicode="&#xcf;" horiz-adv-x="275" 
d="M80 700h115v-700h-115v700zM72 782q-21 -21 -52 -21q-30 0 -51 21t-21 51t21 51t51 21q31 0 52 -21t21 -51t-21 -51zM305.5 782q-21.5 -21 -52.5 -21q-30 0 -51 21t-21 51t21 51t51 21q31 0 52.5 -21t21.5 -51t-21.5 -51z" />
    <glyph glyph-name="Eth" unicode="&#xd0;" horiz-adv-x="730" 
d="M518 652.5q80 -47.5 121 -126t41 -168.5q0 -92 -41.5 -174t-125.5 -133t-204 -51h-227v311h-117v79h117v310h244q112 0 192 -47.5zM452 139q55 34 83 90t28 121q0 64 -27.5 120t-81 90.5t-129.5 34.5h-128v-205h156v-79h-156v-206h122q78 0 133 34z" />
    <glyph glyph-name="Ntilde" unicode="&#xd1;" horiz-adv-x="741" 
d="M80 700h115l351 -495v495h115v-700h-115l-351 491v-491h-115v700zM517.5 786.5q-25.5 -25.5 -57.5 -25.5q-17 0 -33.5 8t-36.5 22q-18 12 -29 17.5t-22 5.5q-15 0 -31 -13t-37 -37l-64 53q22 35 57 65.5t74 30.5q18 0 33.5 -7t38.5 -21q18 -11 28 -15.5t20 -4.5
q14 0 25.5 11t26.5 31l62 -49q-29 -46 -54.5 -71.5z" />
    <glyph glyph-name="Ograve" unicode="&#xd2;" horiz-adv-x="824" 
d="M596 668q83 -48 130.5 -132t47.5 -186t-47.5 -186t-130.5 -132t-184 -48t-184 48t-130.5 132t-47.5 186t47.5 186t130.5 132t184 48t184 -48zM288.5 573q-56.5 -33 -89 -91.5t-32.5 -131.5t32.5 -131.5t89 -91.5t123.5 -33t123 33t89 92t33 131t-33 131t-89 92t-123 33
t-123.5 -33zM508 759l-250 76l27 97l253 -77z" />
    <glyph glyph-name="Oacute" unicode="&#xd3;" horiz-adv-x="824" 
d="M596 668q83 -48 130.5 -132t47.5 -186t-47.5 -186t-130.5 -132t-184 -48t-184 48t-130.5 132t-47.5 186t47.5 186t130.5 132t184 48t184 -48zM288.5 573q-56.5 -33 -89 -91.5t-32.5 -131.5t32.5 -131.5t89 -91.5t123.5 -33t123 33t89 92t33 131t-33 131t-89 92t-123 33
t-123.5 -33zM572 933l27 -97l-250 -76l-30 96z" />
    <glyph glyph-name="Ocircumflex" unicode="&#xd4;" horiz-adv-x="824" 
d="M596 668q83 -48 130.5 -132t47.5 -186t-47.5 -186t-130.5 -132t-184 -48t-184 48t-130.5 132t-47.5 186t47.5 186t130.5 132t184 48t184 -48zM288.5 573q-56.5 -33 -89 -91.5t-32.5 -131.5t32.5 -131.5t89 -91.5t123.5 -33t123 33t89 92t33 131t-33 131t-89 92t-123 33
t-123.5 -33zM540 750l-127 83l-128 -83l-55 70l182 125l183 -125z" />
    <glyph glyph-name="Otilde" unicode="&#xd5;" horiz-adv-x="824" 
d="M596 668q83 -48 130.5 -132t47.5 -186t-47.5 -186t-130.5 -132t-184 -48t-184 48t-130.5 132t-47.5 186t47.5 186t130.5 132t184 48t184 -48zM288.5 573q-56.5 -33 -89 -91.5t-32.5 -131.5t32.5 -131.5t89 -91.5t123.5 -33t123 33t89 92t33 131t-33 131t-89 92t-123 33
t-123.5 -33zM543.5 786.5q-25.5 -25.5 -57.5 -25.5q-17 0 -33.5 8t-36.5 22q-18 12 -29 17.5t-22 5.5q-15 0 -31 -13t-37 -37l-64 53q22 35 57 65.5t74 30.5q18 0 33.5 -7t38.5 -21q18 -11 28 -15.5t20 -4.5q14 0 25.5 11t26.5 31l62 -49q-29 -46 -54.5 -71.5z" />
    <glyph glyph-name="Odieresis" unicode="&#xd6;" horiz-adv-x="824" 
d="M596 668q83 -48 130.5 -132t47.5 -186t-47.5 -186t-130.5 -132t-184 -48t-184 48t-130.5 132t-47.5 186t47.5 186t130.5 132t184 48t184 -48zM288.5 573q-56.5 -33 -89 -91.5t-32.5 -131.5t32.5 -131.5t89 -91.5t123.5 -33t123 33t89 92t33 131t-33 131t-89 92t-123 33
t-123.5 -33zM347 782q-21 -21 -52 -21q-30 0 -51 21t-21 51t21 51t51 21q31 0 52 -21t21 -51t-21 -51zM580.5 782q-21.5 -21 -52.5 -21q-30 0 -51 21t-21 51t21 51t51 21q31 0 52.5 -21t21.5 -51t-21.5 -51z" />
    <glyph glyph-name="multiply" unicode="&#xd7;" horiz-adv-x="392" 
d="M270 268l92 -94l-72 -70l-93 93l-94 -94l-73 73l95 93l-95 94l72 70l93 -93l96 95l71 -72z" />
    <glyph glyph-name="Oslash" unicode="&#xd8;" horiz-adv-x="824" 
d="M721.5 544.5q52.5 -86.5 52.5 -194.5q0 -102 -47.5 -186t-130.5 -132t-184 -48q-49 0 -96 12l-44 -114l-65 25l44 113q-92 45 -146.5 132.5t-54.5 197.5q0 102 47.5 186t130.5 132t184 48q53 0 104 -14l42 109l64 -26l-42 -108q89 -46 141.5 -132.5zM201 217
q34 -59 91 -92l183 473q-32 8 -63 8q-67 0 -123.5 -33t-89 -91.5t-32.5 -131.5q0 -74 34 -133zM535 127q56 33 89 92t33 131q0 71 -32 129t-86 92l-182 -471q26 -6 55 -6q67 0 123 33z" />
    <glyph glyph-name="Ugrave" unicode="&#xd9;" 
d="M209 13.5q-62 29.5 -100.5 88.5t-38.5 143v455h115v-433q0 -84 45.5 -128t110.5 -44q64 0 109.5 43.5t45.5 128.5v433h115v-455q0 -84 -38.5 -143t-100 -88.5t-131.5 -29.5t-132 29.5zM401 759l-250 76l27 97l253 -77z" />
    <glyph glyph-name="Uacute" unicode="&#xda;" 
d="M209 13.5q-62 29.5 -100.5 88.5t-38.5 143v455h115v-433q0 -84 45.5 -128t110.5 -44q64 0 109.5 43.5t45.5 128.5v433h115v-455q0 -84 -38.5 -143t-100 -88.5t-131.5 -29.5t-132 29.5zM495 933l27 -97l-250 -76l-30 96z" />
    <glyph glyph-name="Ucircumflex" unicode="&#xdb;" 
d="M209 13.5q-62 29.5 -100.5 88.5t-38.5 143v455h115v-433q0 -84 45.5 -128t110.5 -44q64 0 109.5 43.5t45.5 128.5v433h115v-455q0 -84 -38.5 -143t-100 -88.5t-131.5 -29.5t-132 29.5zM468 750l-127 83l-128 -83l-55 70l182 125l183 -125z" />
    <glyph glyph-name="Udieresis" unicode="&#xdc;" 
d="M209 13.5q-62 29.5 -100.5 88.5t-38.5 143v455h115v-433q0 -84 45.5 -128t110.5 -44q64 0 109.5 43.5t45.5 128.5v433h115v-455q0 -84 -38.5 -143t-100 -88.5t-131.5 -29.5t-132 29.5zM275 782q-21 -21 -52 -21q-30 0 -51 21t-21 51t21 51t51 21q31 0 52 -21t21 -51
t-21 -51zM508.5 782q-21.5 -21 -52.5 -21q-30 0 -51 21t-21 51t21 51t51 21q31 0 52.5 -21t21.5 -51t-21.5 -51z" />
    <glyph glyph-name="Yacute" unicode="&#xdd;" horiz-adv-x="656" 
d="M385 0h-115v302l-260 398h141l177 -288l177 288h141l-261 -399v-301zM498 933l27 -97l-250 -76l-30 96z" />
    <glyph glyph-name="Thorn" unicode="&#xde;" horiz-adv-x="569" 
d="M443 565q48 -29 72 -75.5t24 -99.5t-25.5 -100.5t-74 -77t-115.5 -29.5h-129v-183h-115v700h115v-106h134q66 0 114 -29zM393 318q30 32 30 74q0 40 -28.5 68t-81.5 28h-118v-202h116q52 0 82 32z" />
    <glyph glyph-name="germandbls" unicode="&#xdf;" horiz-adv-x="574" 
d="M492 309q32 -45 32 -104q0 -51 -24.5 -98t-76 -77t-128.5 -30h-56v100h66q49 0 79 31t30 73q0 44 -33.5 77t-98.5 33h-33v94h22q46 0 77 33.5t31 77.5q0 46 -30.5 73.5t-73.5 27.5q-49 0 -77 -31.5t-28 -95.5v-493h-110v502q0 71 30 119.5t79 72.5t106 24q56 0 105 -22
t79 -63.5t30 -99.5q0 -49 -23 -88.5t-68 -66.5q62 -24 94 -69z" />
    <glyph glyph-name="agrave" unicode="&#xe0;" 
d="M630 -0.5q-24 -9.5 -50 -9.5q-40 0 -72.5 22.5t-42.5 64.5q-31 -43 -81 -65.5t-103 -22.5q-63 0 -118 31t-89 90.5t-34 141.5q0 85 36 145t94 90t123 30q49 0 92.5 -18t67.5 -57v62h109v-368q0 -24 10.5 -35t26.5 -11q10 0 21 4t19 9l32 -74q-17 -20 -41 -29.5z
M372.5 109q35.5 19 57 56t21.5 90t-21.5 89.5t-56 55t-74.5 18.5q-39 0 -73 -18.5t-55 -55.5t-21 -90t20.5 -90t54.5 -55.5t73 -18.5t74.5 19zM384 599l-250 76l27 97l253 -77z" />
    <glyph glyph-name="aacute" unicode="&#xe1;" 
d="M630 -0.5q-24 -9.5 -50 -9.5q-40 0 -72.5 22.5t-42.5 64.5q-31 -43 -81 -65.5t-103 -22.5q-63 0 -118 31t-89 90.5t-34 141.5q0 85 36 145t94 90t123 30q49 0 92.5 -18t67.5 -57v62h109v-368q0 -24 10.5 -35t26.5 -11q10 0 21 4t19 9l32 -74q-17 -20 -41 -29.5z
M372.5 109q35.5 19 57 56t21.5 90t-21.5 89.5t-56 55t-74.5 18.5q-39 0 -73 -18.5t-55 -55.5t-21 -90t20.5 -90t54.5 -55.5t73 -18.5t74.5 19zM476 762l27 -97l-250 -76l-30 96z" />
    <glyph glyph-name="acircumflex" unicode="&#xe2;" 
d="M630 -0.5q-24 -9.5 -50 -9.5q-40 0 -72.5 22.5t-42.5 64.5q-31 -43 -81 -65.5t-103 -22.5q-63 0 -118 31t-89 90.5t-34 141.5q0 85 36 145t94 90t123 30q49 0 92.5 -18t67.5 -57v62h109v-368q0 -24 10.5 -35t26.5 -11q10 0 21 4t19 9l32 -74q-17 -20 -41 -29.5z
M372.5 109q35.5 19 57 56t21.5 90t-21.5 89.5t-56 55t-74.5 18.5q-39 0 -73 -18.5t-55 -55.5t-21 -90t20.5 -90t54.5 -55.5t73 -18.5t74.5 19zM432 591l-127 83l-128 -83l-55 70l182 125l183 -125z" />
    <glyph glyph-name="atilde" unicode="&#xe3;" 
d="M630 -0.5q-24 -9.5 -50 -9.5q-40 0 -72.5 22.5t-42.5 64.5q-31 -43 -81 -65.5t-103 -22.5q-63 0 -118 31t-89 90.5t-34 141.5q0 85 36 145t94 90t123 30q49 0 92.5 -18t67.5 -57v62h109v-368q0 -24 10.5 -35t26.5 -11q10 0 21 4t19 9l32 -74q-17 -20 -41 -29.5z
M372.5 109q35.5 19 57 56t21.5 90t-21.5 89.5t-56 55t-74.5 18.5q-39 0 -73 -18.5t-55 -55.5t-21 -90t20.5 -90t54.5 -55.5t73 -18.5t74.5 19zM447.5 625.5q-25.5 -25.5 -57.5 -25.5q-17 0 -33.5 8t-36.5 22q-18 12 -29 17.5t-22 5.5q-15 0 -31 -13t-37 -37l-64 53
q22 35 57 65.5t74 30.5q18 0 33.5 -7t38.5 -21q18 -11 28 -15.5t20 -4.5q14 0 25.5 11t26.5 31l62 -49q-29 -46 -54.5 -71.5z" />
    <glyph glyph-name="adieresis" unicode="&#xe4;" 
d="M630 -0.5q-24 -9.5 -50 -9.5q-40 0 -72.5 22.5t-42.5 64.5q-31 -43 -81 -65.5t-103 -22.5q-63 0 -118 31t-89 90.5t-34 141.5q0 85 36 145t94 90t123 30q49 0 92.5 -18t67.5 -57v62h109v-368q0 -24 10.5 -35t26.5 -11q10 0 21 4t19 9l32 -74q-17 -20 -41 -29.5z
M372.5 109q35.5 19 57 56t21.5 90t-21.5 89.5t-56 55t-74.5 18.5q-39 0 -73 -18.5t-55 -55.5t-21 -90t20.5 -90t54.5 -55.5t73 -18.5t74.5 19zM246 623q-21 -21 -52 -21q-30 0 -51 21t-21 51t21 51t51 21q31 0 52 -21t21 -51t-21 -51zM479.5 623q-21.5 -21 -52.5 -21
q-30 0 -51 21t-21 51t21 51t51 21q31 0 52.5 -21t21.5 -51t-21.5 -51z" />
    <glyph glyph-name="aring" unicode="&#xe5;" 
d="M213.5 812.5q35.5 36.5 88.5 36.5q34 0 63.5 -17t46.5 -45.5t17 -62.5q0 -53 -37 -88.5t-90 -35.5t-88.5 35.5t-35.5 88.5q0 52 35.5 88.5zM262 682q16 -17 40 -17t40.5 17t16.5 42q0 24 -16.5 41t-40.5 17t-40 -17t-16 -41q0 -25 16 -42zM630 -0.5q-24 -9.5 -50 -9.5
q-40 0 -72.5 22.5t-42.5 64.5q-31 -43 -81 -65.5t-103 -22.5q-63 0 -118 31t-89 90.5t-34 141.5q0 85 36 145t94 90t123 30q49 0 92.5 -18t67.5 -57v62h109v-368q0 -24 10.5 -35t26.5 -11q10 0 21 4t19 9l32 -74q-17 -20 -41 -29.5zM372.5 109q35.5 19 57 56t21.5 90
t-21.5 89.5t-56 55t-74.5 18.5q-39 0 -73 -18.5t-55 -55.5t-21 -90t20.5 -90t54.5 -55.5t73 -18.5t74.5 19z" />
    <glyph glyph-name="ae" unicode="&#xe6;" horiz-adv-x="925" 
d="M881 203h-363q12 -56 52.5 -83t93.5 -27q43 0 80.5 17.5t62.5 53.5l71 -69q-43 -54 -99 -80t-117 -26q-74 0 -135.5 35t-94.5 97q-67 -132 -211 -132q-60 0 -103.5 22.5t-65.5 61t-22 84.5q0 70 50.5 115t151.5 45h149q-4 50 -38 75.5t-87 25.5q-82 0 -135 -62l-68 74
q45 43 99.5 65t109.5 22q61 0 112.5 -27t77.5 -77q34 55 86.5 79.5t112.5 24.5q67 0 120 -28t83.5 -84.5t30.5 -138.5q0 -37 -4 -63zM737.5 386q-36.5 32 -87.5 32q-52 0 -90 -32t-45 -91h260q-1 59 -37.5 91zM298 105q35 16 57.5 48.5t22.5 79.5h-146q-46 0 -70 -21
t-24 -55q0 -32 22.5 -50t63.5 -18q39 0 74 16z" />
    <glyph glyph-name="ccedilla" unicode="&#xe7;" horiz-adv-x="544" 
d="M433.5 29.5q-58.5 -36.5 -125.5 -40.5l-10 -29q56 -9 85.5 -38.5t29.5 -67.5q0 -28 -16 -53t-46 -40.5t-70 -15.5q-38 0 -75 16t-63 45l48 51q19 -22 42 -33.5t46 -11.5q26 0 44.5 12.5t18.5 35.5q0 31 -33 45t-80 19l21 68q-57 10 -105 43t-76.5 89t-28.5 129
q0 84 36.5 143.5t95 90t125.5 30.5q60 0 114.5 -25.5t91.5 -74.5l-74 -70q-22 34 -55.5 51t-71.5 17q-39 0 -74.5 -18.5t-57 -55t-21.5 -87.5q0 -50 21.5 -86.5t56 -55t73.5 -18.5q41 0 80 22t63 68l81 -56q-32 -62 -90.5 -98.5z" />
    <glyph glyph-name="egrave" unicode="&#xe8;" horiz-adv-x="567" 
d="M523 203h-363q12 -56 52.5 -83t93.5 -27q43 0 80 17.5t62 53.5l71 -69q-41 -52 -97 -79t-120 -27q-67 0 -127.5 31.5t-97.5 91.5t-37 143q0 82 36 141.5t95 90t126 30.5q63 0 115.5 -28t83.5 -84.5t31 -138.5q0 -37 -4 -63zM201.5 386q-38.5 -32 -44.5 -91h259
q-1 59 -37 91t-87 32q-52 0 -90.5 -32zM376 599l-250 76l27 97l253 -77z" />
    <glyph glyph-name="eacute" unicode="&#xe9;" horiz-adv-x="567" 
d="M523 203h-363q12 -56 52.5 -83t93.5 -27q43 0 80 17.5t62 53.5l71 -69q-41 -52 -97 -79t-120 -27q-67 0 -127.5 31.5t-97.5 91.5t-37 143q0 82 36 141.5t95 90t126 30.5q63 0 115.5 -28t83.5 -84.5t31 -138.5q0 -37 -4 -63zM201.5 386q-38.5 -32 -44.5 -91h259
q-1 59 -37 91t-87 32q-52 0 -90.5 -32zM467 762l27 -97l-250 -76l-30 96z" />
    <glyph glyph-name="ecircumflex" unicode="&#xea;" horiz-adv-x="567" 
d="M523 203h-363q12 -56 52.5 -83t93.5 -27q43 0 80 17.5t62 53.5l71 -69q-41 -52 -97 -79t-120 -27q-67 0 -127.5 31.5t-97.5 91.5t-37 143q0 82 36 141.5t95 90t126 30.5q63 0 115.5 -28t83.5 -84.5t31 -138.5q0 -37 -4 -63zM201.5 386q-38.5 -32 -44.5 -91h259
q-1 59 -37 91t-87 32q-52 0 -90.5 -32zM430 591l-127 83l-128 -83l-55 70l182 125l183 -125z" />
    <glyph glyph-name="edieresis" unicode="&#xeb;" horiz-adv-x="567" 
d="M523 203h-363q12 -56 52.5 -83t93.5 -27q43 0 80 17.5t62 53.5l71 -69q-41 -52 -97 -79t-120 -27q-67 0 -127.5 31.5t-97.5 91.5t-37 143q0 82 36 141.5t95 90t126 30.5q63 0 115.5 -28t83.5 -84.5t31 -138.5q0 -37 -4 -63zM201.5 386q-38.5 -32 -44.5 -91h259
q-1 59 -37 91t-87 32q-52 0 -90.5 -32zM251 623q-21 -21 -52 -21q-30 0 -51 21t-21 51t21 51t51 21q31 0 52 -21t21 -51t-21 -51zM484.5 623q-21.5 -21 -52.5 -21q-30 0 -51 21t-21 51t21 51t51 21q31 0 52.5 -21t21.5 -51t-21.5 -51z" />
    <glyph glyph-name="igrave" unicode="&#xec;" horiz-adv-x="279" 
d="M84 504h111v-504h-111v504zM200 599l-250 76l27 97l253 -77z" />
    <glyph glyph-name="iacute" unicode="&#xed;" horiz-adv-x="279" 
d="M84 504h111v-504h-111v504zM288 762l27 -97l-250 -76l-30 96z" />
    <glyph glyph-name="icircumflex" unicode="&#xee;" horiz-adv-x="279" 
d="M84 504h111v-504h-111v504zM267 591l-127 83l-128 -83l-55 70l182 125l183 -125z" />
    <glyph glyph-name="idieresis" unicode="&#xef;" horiz-adv-x="279" 
d="M84 504h111v-504h-111v504zM74 623q-21 -21 -52 -21q-30 0 -51 21t-21 51t21 51t51 21q31 0 52 -21t21 -51t-21 -51zM307.5 623q-21.5 -21 -52.5 -21q-30 0 -51 21t-21 51t21 51t51 21q31 0 52.5 -21t21.5 -51t-21.5 -51z" />
    <glyph glyph-name="eth" unicode="&#xf0;" horiz-adv-x="581" 
d="M497.5 534q53.5 -101 53.5 -223q0 -92 -30.5 -166.5t-92 -117.5t-149.5 -43q-79 0 -135.5 36.5t-85 94.5t-28.5 121q0 60 26.5 112t78.5 83.5t125 31.5q70 0 112 -27.5t63 -62.5q-20 155 -132 212l-23 -62l-59 21l23 63q-39 10 -86 10l6 101q62 0 116 -14l24 66l62 -20
l-26 -68q104 -47 157.5 -148zM385.5 126q35.5 41 35.5 99q0 57 -37 97.5t-105 40.5t-102 -40t-34 -98q0 -57 36 -98.5t104 -41.5q67 0 102.5 41z" />
    <glyph glyph-name="ntilde" unicode="&#xf1;" horiz-adv-x="591" 
d="M70 504h109v-72q26 43 68.5 64t91.5 21q48 0 89.5 -21.5t67 -64t25.5 -102.5v-329h-111v290q0 61 -28 91t-74 30q-54 0 -90.5 -40t-36.5 -110v-261h-111v504zM440.5 625.5q-25.5 -25.5 -57.5 -25.5q-17 0 -33.5 8t-36.5 22q-18 12 -29 17.5t-22 5.5q-15 0 -31 -13
t-37 -37l-64 53q22 35 57 65.5t74 30.5q18 0 33.5 -7t38.5 -21q18 -11 28 -15.5t20 -4.5q14 0 25.5 11t26.5 31l62 -49q-29 -46 -54.5 -71.5z" />
    <glyph glyph-name="ograve" unicode="&#xf2;" horiz-adv-x="607" 
d="M439 482.5q60 -34.5 94 -95t34 -134.5t-34 -134.5t-94 -95t-136 -34.5q-75 0 -135 34.5t-94 95t-34 134.5t34 134.5t94 95t135 34.5q76 0 136 -34.5zM192.5 369.5q-43.5 -45.5 -43.5 -115.5t43.5 -115.5t110.5 -45.5q68 0 111.5 45.5t43.5 115.5t-43.5 115.5t-111.5 45.5
q-67 0 -110.5 -45.5zM388 599l-250 76l27 97l253 -77z" />
    <glyph glyph-name="oacute" unicode="&#xf3;" horiz-adv-x="607" 
d="M439 482.5q60 -34.5 94 -95t34 -134.5t-34 -134.5t-94 -95t-136 -34.5q-75 0 -135 34.5t-94 95t-34 134.5t34 134.5t94 95t135 34.5q76 0 136 -34.5zM192.5 369.5q-43.5 -45.5 -43.5 -115.5t43.5 -115.5t110.5 -45.5q68 0 111.5 45.5t43.5 115.5t-43.5 115.5t-111.5 45.5
q-67 0 -110.5 -45.5zM465 762l27 -97l-250 -76l-30 96z" />
    <glyph glyph-name="ocircumflex" unicode="&#xf4;" horiz-adv-x="607" 
d="M439 482.5q60 -34.5 94 -95t34 -134.5t-34 -134.5t-94 -95t-136 -34.5q-75 0 -135 34.5t-94 95t-34 134.5t34 134.5t94 95t135 34.5q76 0 136 -34.5zM192.5 369.5q-43.5 -45.5 -43.5 -115.5t43.5 -115.5t110.5 -45.5q68 0 111.5 45.5t43.5 115.5t-43.5 115.5t-111.5 45.5
q-67 0 -110.5 -45.5zM431 591l-127 83l-128 -83l-55 70l182 125l183 -125z" />
    <glyph glyph-name="otilde" unicode="&#xf5;" horiz-adv-x="607" 
d="M439 482.5q60 -34.5 94 -95t34 -134.5t-34 -134.5t-94 -95t-136 -34.5q-75 0 -135 34.5t-94 95t-34 134.5t34 134.5t94 95t135 34.5q76 0 136 -34.5zM192.5 369.5q-43.5 -45.5 -43.5 -115.5t43.5 -115.5t110.5 -45.5q68 0 111.5 45.5t43.5 115.5t-43.5 115.5t-111.5 45.5
q-67 0 -110.5 -45.5zM438.5 625.5q-25.5 -25.5 -57.5 -25.5q-17 0 -33.5 8t-36.5 22q-18 12 -29 17.5t-22 5.5q-15 0 -31 -13t-37 -37l-64 53q22 35 57 65.5t74 30.5q18 0 33.5 -7t38.5 -21q18 -11 28 -15.5t20 -4.5q14 0 25.5 11t26.5 31l62 -49q-29 -46 -54.5 -71.5z" />
    <glyph glyph-name="odieresis" unicode="&#xf6;" horiz-adv-x="607" 
d="M439 482.5q60 -34.5 94 -95t34 -134.5t-34 -134.5t-94 -95t-136 -34.5q-75 0 -135 34.5t-94 95t-34 134.5t34 134.5t94 95t135 34.5q76 0 136 -34.5zM192.5 369.5q-43.5 -45.5 -43.5 -115.5t43.5 -115.5t110.5 -45.5q68 0 111.5 45.5t43.5 115.5t-43.5 115.5t-111.5 45.5
q-67 0 -110.5 -45.5zM238 623q-21 -21 -52 -21q-30 0 -51 21t-21 51t21 51t51 21q31 0 52 -21t21 -51t-21 -51zM471.5 623q-21.5 -21 -52.5 -21q-30 0 -51 21t-21 51t21 51t51 21q31 0 52.5 -21t21.5 -51t-21.5 -51z" />
    <glyph glyph-name="divide" unicode="&#xf7;" horiz-adv-x="446" 
d="M40 332h366v-101h-366v101zM167 516.5q22 22.5 55 22.5q34 0 56.5 -22.5t22.5 -56.5q0 -33 -22.5 -55.5t-56.5 -22.5q-33 0 -55 22.5t-22 55.5q0 34 22 56.5zM167 154.5q22 22.5 55 22.5q34 0 56.5 -22.5t22.5 -56.5q0 -33 -22.5 -55.5t-56.5 -22.5q-33 0 -55 22.5
t-22 55.5q0 34 22 56.5z" />
    <glyph glyph-name="oslash" unicode="&#xf8;" horiz-adv-x="607" 
d="M531.5 391.5q35.5 -61.5 35.5 -137.5q0 -74 -34 -134.5t-94 -95t-136 -34.5q-30 0 -59 6l-44 -114l-65 25l43 112q-64 33 -101 95t-37 140q0 74 34 134.5t94 95t135 34.5q29 0 66 -7l45 115l65 -26l-44 -114q61 -33 96.5 -94.5zM167 175.5q18 -35.5 50 -56.5l115 295
q-20 2 -29 2q-67 0 -110.5 -45.5t-43.5 -115.5q0 -44 18 -79.5zM414.5 139.5q43.5 45.5 43.5 115.5q0 42 -16 76t-46 56l-113 -292q6 -1 20 -1q68 0 111.5 45.5z" />
    <glyph glyph-name="ugrave" unicode="&#xf9;" horiz-adv-x="576" 
d="M506 0h-109v67q-54 -78 -149 -78q-48 0 -91 21.5t-70 66t-27 110.5v317h110v-289q0 -56 27.5 -86t71.5 -30q33 0 62 17t46.5 50.5t17.5 80.5v257h111v-504zM357 599l-250 76l27 97l253 -77z" />
    <glyph glyph-name="uacute" unicode="&#xfa;" horiz-adv-x="576" 
d="M506 0h-109v67q-54 -78 -149 -78q-48 0 -91 21.5t-70 66t-27 110.5v317h110v-289q0 -56 27.5 -86t71.5 -30q33 0 62 17t46.5 50.5t17.5 80.5v257h111v-504zM436 762l27 -97l-250 -76l-30 96z" />
    <glyph glyph-name="ucircumflex" unicode="&#xfb;" horiz-adv-x="576" 
d="M506 0h-109v67q-54 -78 -149 -78q-48 0 -91 21.5t-70 66t-27 110.5v317h110v-289q0 -56 27.5 -86t71.5 -30q33 0 62 17t46.5 50.5t17.5 80.5v257h111v-504zM411 591l-127 83l-128 -83l-55 70l182 125l183 -125z" />
    <glyph glyph-name="udieresis" unicode="&#xfc;" horiz-adv-x="576" 
d="M506 0h-109v67q-54 -78 -149 -78q-48 0 -91 21.5t-70 66t-27 110.5v317h110v-289q0 -56 27.5 -86t71.5 -30q33 0 62 17t46.5 50.5t17.5 80.5v257h111v-504zM218 623q-21 -21 -52 -21q-30 0 -51 21t-21 51t21 51t51 21q31 0 52 -21t21 -51t-21 -51zM451.5 623
q-21.5 -21 -52.5 -21q-30 0 -51 21t-21 51t21 51t51 21q31 0 52.5 -21t21.5 -51t-21.5 -51z" />
    <glyph glyph-name="yacute" unicode="&#xfd;" horiz-adv-x="610" 
d="M540 14q0 -78 -35.5 -134.5t-93 -85t-122.5 -28.5q-56 0 -107.5 21t-89.5 63.5t-52 104.5l105 36q12 -57 54 -90t95 -33q58 0 97.5 38.5t39.5 107.5v81q-24 -41 -62 -65.5t-89 -24.5q-50 0 -96 23t-75 70.5t-29 115.5v290h111v-273q0 -56 29.5 -87.5t77.5 -31.5
q55 0 93 40t38 110v242h111v-490zM448 762l27 -97l-250 -76l-30 96z" />
    <glyph glyph-name="thorn" unicode="&#xfe;" horiz-adv-x="633" 
d="M464.5 483q56.5 -30 92.5 -89t36 -142q0 -82 -34.5 -141.5t-90.5 -90.5t-120 -31q-47 0 -91 18t-76 54v-282h-111v921h111v-262q28 35 71 55t94 20q62 0 118.5 -30zM407 108.5q34 18.5 55 55.5t21 89t-21 88.5t-55.5 54.5t-73.5 18t-74 -18.5t-56.5 -54.5t-21.5 -87
q0 -52 21.5 -89t57 -56t74.5 -19t73 18.5z" />
    <glyph glyph-name="ydieresis" unicode="&#xff;" horiz-adv-x="610" 
d="M540 14q0 -78 -35.5 -134.5t-93 -85t-122.5 -28.5q-56 0 -107.5 21t-89.5 63.5t-52 104.5l105 36q12 -57 54 -90t95 -33q58 0 97.5 38.5t39.5 107.5v81q-24 -41 -62 -65.5t-89 -24.5q-50 0 -96 23t-75 70.5t-29 115.5v290h111v-273q0 -56 29.5 -87.5t77.5 -31.5
q55 0 93 40t38 110v242h111v-490zM252 623q-21 -21 -52 -21q-30 0 -51 21t-21 51t21 51t51 21q31 0 52 -21t21 -51t-21 -51zM485.5 623q-21.5 -21 -52.5 -21q-30 0 -51 21t-21 51t21 51t51 21q31 0 52.5 -21t21.5 -51t-21.5 -51z" />
    <glyph glyph-name="Amacron" unicode="&#x100;" horiz-adv-x="699" 
d="M211 177l-65 -177h-126l274 700h113l272 -700h-126l-66 177h-276zM349 550l-99 -268h199zM498 869v-109h-297v109h297z" />
    <glyph glyph-name="amacron" unicode="&#x101;" 
d="M630 -0.5q-24 -9.5 -50 -9.5q-40 0 -72.5 22.5t-42.5 64.5q-31 -43 -81 -65.5t-103 -22.5q-63 0 -118 31t-89 90.5t-34 141.5q0 85 36 145t94 90t123 30q49 0 92.5 -18t67.5 -57v62h109v-368q0 -24 10.5 -35t26.5 -11q10 0 21 4t19 9l32 -74q-17 -20 -41 -29.5z
M372.5 109q35.5 19 57 56t21.5 90t-21.5 89.5t-56 55t-74.5 18.5q-39 0 -73 -18.5t-55 -55.5t-21 -90t20.5 -90t54.5 -55.5t73 -18.5t74.5 19zM451 699v-99h-297v99h297z" />
    <glyph glyph-name="Abreve" unicode="&#x102;" horiz-adv-x="699" 
d="M211 177l-65 -177h-126l274 700h113l272 -700h-126l-66 177h-276zM349 550l-99 -268h199zM495 906q0 -63 -35.5 -106t-109.5 -43t-109.5 43t-35.5 106h83q0 -68 60 -68q64 0 64 68h83z" />
    <glyph glyph-name="abreve" unicode="&#x103;" 
d="M630 -0.5q-24 -9.5 -50 -9.5q-40 0 -72.5 22.5t-42.5 64.5q-31 -43 -81 -65.5t-103 -22.5q-63 0 -118 31t-89 90.5t-34 141.5q0 85 36 145t94 90t123 30q49 0 92.5 -18t67.5 -57v62h109v-368q0 -24 10.5 -35t26.5 -11q10 0 21 4t19 9l32 -74q-17 -20 -41 -29.5z
M372.5 109q35.5 19 57 56t21.5 90t-21.5 89.5t-56 55t-74.5 18.5q-39 0 -73 -18.5t-55 -55.5t-21 -90t20.5 -90t54.5 -55.5t73 -18.5t74.5 19zM456 749q0 -63 -35.5 -106t-109.5 -43t-109.5 43t-35.5 106h83q0 -67 62 -68q62 1 62 68h83z" />
    <glyph glyph-name="Aogonek" unicode="&#x104;" horiz-adv-x="699" 
d="M570.5 -118.5q21.5 -13.5 60.5 -12.5v-74q-74 4 -115.5 30t-41.5 70q0 31 19.5 60.5t57.5 49.5l-64 172h-276l-65 -177h-126l274 700h113l272 -700h-63q-30 -13 -48.5 -35.5t-18.5 -45.5q0 -24 21.5 -37.5zM449 282l-100 268l-99 -268h199z" />
    <glyph glyph-name="aogonek" unicode="&#x105;" 
d="M535 -43q-13 -19 -13 -38q0 -24 21.5 -37.5t60.5 -12.5v-74q-74 4 -115.5 30t-41.5 70q0 30 19 59t56 49q-46 24 -57 74q-31 -43 -81 -65.5t-103 -22.5q-63 0 -118 31t-89 90.5t-34 141.5q0 85 36 145t94 90t123 30q49 0 92.5 -18t67.5 -57v62h109v-368q0 -24 10.5 -35
t26.5 -11q10 0 21 4t19 9l32 -74q-17 -20 -41 -29.5t-50 -9.5h-9q-23 -14 -36 -33zM372.5 109q35.5 19 57 56t21.5 90t-21.5 89.5t-56 55t-74.5 18.5q-39 0 -73 -18.5t-55 -55.5t-21 -90t20.5 -90t54.5 -55.5t73 -18.5t74.5 19z" />
    <glyph glyph-name="Cacute" unicode="&#x106;" horiz-adv-x="755" 
d="M589 40q-89 -56 -193 -56q-91 0 -170.5 42.5t-127.5 125t-48 194.5q0 116 51.5 200t135 127t178.5 43q82 0 153.5 -31t120.5 -89l-78 -84q-37 47 -89 71t-111 24q-65 0 -121 -29.5t-89.5 -87t-33.5 -139.5q0 -81 33 -139t87.5 -88t118.5 -30q73 0 133.5 40.5t93.5 118.5
l92 -50q-47 -107 -136 -163zM610 933l27 -97l-250 -76l-30 96z" />
    <glyph glyph-name="cacute" unicode="&#x107;" horiz-adv-x="544" 
d="M427 25.5q-63 -36.5 -134 -36.5q-65 0 -123 31t-94 91t-36 142q0 84 36.5 143.5t95 90t125.5 30.5q60 0 114.5 -25.5t91.5 -74.5l-74 -70q-22 34 -55.5 51t-71.5 17q-39 0 -74.5 -18.5t-57 -55t-21.5 -87.5q0 -50 21.5 -86.5t56 -55t73.5 -18.5q41 0 80 22t63 68l81 -56
q-34 -66 -97 -102.5zM477 762l27 -97l-250 -76l-30 96z" />
    <glyph glyph-name="Ccircumflex" unicode="&#x108;" horiz-adv-x="755" 
d="M589 40q-89 -56 -193 -56q-91 0 -170.5 42.5t-127.5 125t-48 194.5q0 116 51.5 200t135 127t178.5 43q82 0 153.5 -31t120.5 -89l-78 -84q-37 47 -89 71t-111 24q-65 0 -121 -29.5t-89.5 -87t-33.5 -139.5q0 -81 33 -139t87.5 -88t118.5 -30q73 0 133.5 40.5t93.5 118.5
l92 -50q-47 -107 -136 -163zM540 750l-127 83l-128 -83l-55 70l182 125l183 -125z" />
    <glyph glyph-name="ccircumflex" unicode="&#x109;" horiz-adv-x="544" 
d="M427 25.5q-63 -36.5 -134 -36.5q-65 0 -123 31t-94 91t-36 142q0 84 36.5 143.5t95 90t125.5 30.5q60 0 114.5 -25.5t91.5 -74.5l-74 -70q-22 34 -55.5 51t-71.5 17q-39 0 -74.5 -18.5t-57 -55t-21.5 -87.5q0 -50 21.5 -86.5t56 -55t73.5 -18.5q41 0 80 22t63 68l81 -56
q-34 -66 -97 -102.5zM443 591l-127 83l-128 -83l-55 70l182 125l183 -125z" />
    <glyph glyph-name="Cdotaccent" unicode="&#x10a;" horiz-adv-x="755" 
d="M589 40q-89 -56 -193 -56q-91 0 -170.5 42.5t-127.5 125t-48 194.5q0 116 51.5 200t135 127t178.5 43q82 0 153.5 -31t120.5 -89l-78 -84q-37 47 -89 71t-111 24q-65 0 -121 -29.5t-89.5 -87t-33.5 -139.5q0 -81 33 -139t87.5 -88t118.5 -30q73 0 133.5 40.5t93.5 118.5
l92 -50q-47 -107 -136 -163zM371.5 883q20.5 21 50.5 21q31 0 52 -21t21 -52q0 -30 -21 -50.5t-52 -20.5q-30 0 -50.5 20.5t-20.5 50.5q0 31 20.5 52z" />
    <glyph glyph-name="cdotaccent" unicode="&#x10b;" horiz-adv-x="544" 
d="M427 25.5q-63 -36.5 -134 -36.5q-65 0 -123 31t-94 91t-36 142q0 84 36.5 143.5t95 90t125.5 30.5q60 0 114.5 -25.5t91.5 -74.5l-74 -70q-22 34 -55.5 51t-71.5 17q-39 0 -74.5 -18.5t-57 -55t-21.5 -87.5q0 -50 21.5 -86.5t56 -55t73.5 -18.5q41 0 80 22t63 68l81 -56
q-34 -66 -97 -102.5zM245.5 723q20.5 21 50.5 21q31 0 52 -21t21 -52q0 -30 -21 -50.5t-52 -20.5q-30 0 -50.5 20.5t-20.5 50.5q0 31 20.5 52z" />
    <glyph glyph-name="Ccaron" unicode="&#x10c;" horiz-adv-x="755" 
d="M589 40q-89 -56 -193 -56q-91 0 -170.5 42.5t-127.5 125t-48 194.5q0 116 51.5 200t135 127t178.5 43q82 0 153.5 -31t120.5 -89l-78 -84q-37 47 -89 71t-111 24q-65 0 -121 -29.5t-89.5 -87t-33.5 -139.5q0 -81 33 -139t87.5 -88t118.5 -30q73 0 133.5 40.5t93.5 118.5
l92 -50q-47 -107 -136 -163zM429 749l-182 125l52 70l131 -87l130 87l52 -70z" />
    <glyph glyph-name="ccaron" unicode="&#x10d;" horiz-adv-x="544" 
d="M427 25.5q-63 -36.5 -134 -36.5q-65 0 -123 31t-94 91t-36 142q0 84 36.5 143.5t95 90t125.5 30.5q60 0 114.5 -25.5t91.5 -74.5l-74 -70q-22 34 -55.5 51t-71.5 17q-39 0 -74.5 -18.5t-57 -55t-21.5 -87.5q0 -50 21.5 -86.5t56 -55t73.5 -18.5q41 0 80 22t63 68l81 -56
q-34 -66 -97 -102.5zM304 591l-182 125l52 70l131 -87l130 87l52 -70z" />
    <glyph glyph-name="Dcaron" unicode="&#x10e;" horiz-adv-x="728" 
d="M80 700h244q112 0 192 -47.5t121 -126t41 -168.5q0 -92 -41.5 -174t-125.5 -133t-204 -51h-227v700zM195 595v-490h122q78 0 133 34t83 90t28 121q0 64 -27.5 120t-81 90.5t-129.5 34.5h-128zM325 749l-182 125l52 70l131 -87l130 87l52 -70z" />
    <glyph glyph-name="dcaron" unicode="&#x10f;" horiz-adv-x="898" 
d="M562 0h-109v65q-34 -39 -78.5 -57.5t-94.5 -18.5q-63 0 -118 31.5t-88.5 92t-33.5 141.5q0 83 36 142.5t94 90t122 30.5q48 0 91 -17t68 -50v250h111v-700zM372.5 109q35.5 19 57 56t21.5 89t-21.5 89t-56.5 56t-74 19q-40 0 -74 -18.5t-55 -56t-21 -90.5q0 -77 43 -120
t106 -43q39 0 74.5 19zM760 717l118 -46l-124 -282l-92 37z" />
    <glyph glyph-name="Dcroat" unicode="&#x110;" horiz-adv-x="730" 
d="M518 652.5q80 -47.5 121 -126t41 -168.5q0 -92 -41.5 -174t-125.5 -133t-204 -51h-227v311h-117v79h117v310h244q112 0 192 -47.5zM452 139q55 34 83 90t28 121q0 64 -27.5 120t-81 90.5t-129.5 34.5h-128v-205h156v-79h-156v-206h122q78 0 133 34z" />
    <glyph glyph-name="dcroat" unicode="&#x111;" horiz-adv-x="692" 
d="M672 580h-110v-580h-109v65q-34 -39 -78.5 -57.5t-94.5 -18.5q-63 0 -118 31.5t-88.5 92t-33.5 141.5q0 83 36 142.5t94 90t122 30.5q48 0 91 -17t68 -50v130h-100v52h100v68h111v-68h110v-52zM372.5 109q35.5 19 57 56t21.5 89t-21.5 89t-56.5 56t-74 19
q-40 0 -74 -18.5t-55 -56t-21 -90.5q0 -77 43 -120t106 -43q39 0 74.5 19z" />
    <glyph glyph-name="Emacron" unicode="&#x112;" horiz-adv-x="560" 
d="M195 595v-193h237v-105h-237v-192h305v-105h-420v700h412v-105h-297zM439 869v-109h-297v109h297z" />
    <glyph glyph-name="emacron" unicode="&#x113;" horiz-adv-x="567" 
d="M523 203h-363q12 -56 52.5 -83t93.5 -27q43 0 80 17.5t62 53.5l71 -69q-41 -52 -97 -79t-120 -27q-67 0 -127.5 31.5t-97.5 91.5t-37 143q0 82 36 141.5t95 90t126 30.5q63 0 115.5 -28t83.5 -84.5t31 -138.5q0 -37 -4 -63zM201.5 386q-38.5 -32 -44.5 -91h259
q-1 59 -37 91t-87 32q-52 0 -90.5 -32zM442 699v-99h-297v99h297z" />
    <glyph glyph-name="Ebreve" unicode="&#x114;" horiz-adv-x="560" 
d="M195 595v-193h237v-105h-237v-192h305v-105h-420v700h412v-105h-297zM452 906q0 -63 -35.5 -106t-109.5 -43t-109.5 43t-35.5 106h83q0 -68 60 -68q64 0 64 68h83z" />
    <glyph glyph-name="ebreve" unicode="&#x115;" horiz-adv-x="567" 
d="M523 203h-363q12 -56 52.5 -83t93.5 -27q43 0 80 17.5t62 53.5l71 -69q-41 -52 -97 -79t-120 -27q-67 0 -127.5 31.5t-97.5 91.5t-37 143q0 82 36 141.5t95 90t126 30.5q63 0 115.5 -28t83.5 -84.5t31 -138.5q0 -37 -4 -63zM201.5 386q-38.5 -32 -44.5 -91h259
q-1 59 -37 91t-87 32q-52 0 -90.5 -32zM442 749q0 -63 -35.5 -106t-109.5 -43t-109.5 43t-35.5 106h83q0 -67 62 -68q62 1 62 68h83z" />
    <glyph glyph-name="Edotaccent" unicode="&#x116;" horiz-adv-x="560" 
d="M195 595v-193h237v-105h-237v-192h305v-105h-420v700h412v-105h-297zM251.5 883q20.5 21 50.5 21q31 0 52 -21t21 -52q0 -30 -21 -50.5t-52 -20.5q-30 0 -50.5 20.5t-20.5 50.5q0 31 20.5 52z" />
    <glyph glyph-name="edotaccent" unicode="&#x117;" horiz-adv-x="567" 
d="M523 203h-363q12 -56 52.5 -83t93.5 -27q43 0 80 17.5t62 53.5l71 -69q-41 -52 -97 -79t-120 -27q-67 0 -127.5 31.5t-97.5 91.5t-37 143q0 82 36 141.5t95 90t126 30.5q63 0 115.5 -28t83.5 -84.5t31 -138.5q0 -37 -4 -63zM201.5 386q-38.5 -32 -44.5 -91h259
q-1 59 -37 91t-87 32q-52 0 -90.5 -32zM236.5 723q20.5 21 50.5 21q31 0 52 -21t21 -52q0 -30 -21 -50.5t-52 -20.5q-30 0 -50.5 20.5t-20.5 50.5q0 31 20.5 52z" />
    <glyph glyph-name="Eogonek" unicode="&#x118;" horiz-adv-x="560" 
d="M500 105v-105h-18q-30 -13 -48.5 -35.5t-18.5 -45.5q0 -24 21.5 -37.5t60.5 -12.5v-74q-74 4 -115.5 30t-41.5 70q0 30 17.5 57.5t51.5 47.5h-329v700h412v-105h-297v-193h237v-105h-237v-192h305z" />
    <glyph glyph-name="eogonek" unicode="&#x119;" horiz-adv-x="567" 
d="M523 203h-363q12 -56 52.5 -83t93.5 -27q43 0 80 17.5t62 53.5l71 -69q-37 -47 -85.5 -73.5t-103.5 -31.5q-23 -14 -36 -33t-13 -38q0 -24 21.5 -37.5t60.5 -12.5v-74q-74 4 -115.5 30t-41.5 70q0 26 14 51.5t42 45.5q-60 9 -110.5 42t-81 89.5t-30.5 131.5
q0 82 36 141.5t95 90t126 30.5q63 0 115.5 -28t83.5 -84.5t31 -138.5q0 -37 -4 -63zM416 295q-1 59 -37 91t-87 32q-52 0 -90.5 -32t-44.5 -91h259z" />
    <glyph glyph-name="Ecaron" unicode="&#x11a;" horiz-adv-x="560" 
d="M195 595v-193h237v-105h-237v-192h305v-105h-420v700h412v-105h-297zM284 749l-182 125l52 70l131 -87l130 87l52 -70z" />
    <glyph glyph-name="ecaron" unicode="&#x11b;" horiz-adv-x="567" 
d="M523 203h-363q12 -56 52.5 -83t93.5 -27q43 0 80 17.5t62 53.5l71 -69q-41 -52 -97 -79t-120 -27q-67 0 -127.5 31.5t-97.5 91.5t-37 143q0 82 36 141.5t95 90t126 30.5q63 0 115.5 -28t83.5 -84.5t31 -138.5q0 -37 -4 -63zM201.5 386q-38.5 -32 -44.5 -91h259
q-1 59 -37 91t-87 32q-52 0 -90.5 -32zM305 591l-182 125l52 70l131 -87l130 87l52 -70z" />
    <glyph glyph-name="Gcircumflex" unicode="&#x11c;" horiz-adv-x="760" 
d="M688 79q-61 -47 -130.5 -71t-141.5 -24q-97 0 -180.5 43.5t-134.5 127t-51 197.5q0 115 51 197t134.5 124.5t179.5 42.5q79 0 150.5 -30t124.5 -90l-77 -84q-38 49 -91.5 72.5t-111.5 23.5q-66 0 -121 -28t-88.5 -85t-33.5 -139q0 -85 36 -144.5t94.5 -89.5t125.5 -30
q84 0 150 40v141h-162v107h277v-301zM530 750l-127 83l-128 -83l-55 70l182 125l183 -125z" />
    <glyph glyph-name="gcircumflex" unicode="&#x11d;" horiz-adv-x="626" 
d="M566 26q0 -83 -36.5 -142t-96.5 -89t-129 -30q-58 0 -112.5 21.5t-95 64.5t-56.5 103l104 41q15 -61 61 -94.5t103 -33.5q39 0 73.5 16.5t55.5 50.5t21 82v79q-31 -39 -76.5 -59.5t-96.5 -20.5q-62 0 -117.5 30t-89.5 87.5t-34 134.5q0 79 36.5 135.5t93.5 85.5t120 29
q109 0 164 -72v59h108v-478zM376.5 133.5q35.5 17.5 57.5 52t22 82.5t-21.5 82t-56.5 51t-75 17q-39 0 -73.5 -17t-55.5 -51t-21 -82q0 -47 20.5 -81.5t55 -52.5t73.5 -18t74.5 17.5zM429 591l-127 83l-128 -83l-55 70l182 125l183 -125z" />
    <glyph glyph-name="Gbreve" unicode="&#x11e;" horiz-adv-x="760" 
d="M688 79q-61 -47 -130.5 -71t-141.5 -24q-97 0 -180.5 43.5t-134.5 127t-51 197.5q0 115 51 197t134.5 124.5t179.5 42.5q79 0 150.5 -30t124.5 -90l-77 -84q-38 49 -91.5 72.5t-111.5 23.5q-66 0 -121 -28t-88.5 -85t-33.5 -139q0 -85 36 -144.5t94.5 -89.5t125.5 -30
q84 0 150 40v141h-162v107h277v-301zM569 906q0 -63 -35.5 -106t-109.5 -43t-109.5 43t-35.5 106h83q0 -68 60 -68q64 0 64 68h83z" />
    <glyph glyph-name="gbreve" unicode="&#x11f;" horiz-adv-x="626" 
d="M566 26q0 -83 -36.5 -142t-96.5 -89t-129 -30q-58 0 -112.5 21.5t-95 64.5t-56.5 103l104 41q15 -61 61 -94.5t103 -33.5q39 0 73.5 16.5t55.5 50.5t21 82v79q-31 -39 -76.5 -59.5t-96.5 -20.5q-62 0 -117.5 30t-89.5 87.5t-34 134.5q0 79 36.5 135.5t93.5 85.5t120 29
q109 0 164 -72v59h108v-478zM376.5 133.5q35.5 17.5 57.5 52t22 82.5t-21.5 82t-56.5 51t-75 17q-39 0 -73.5 -17t-55.5 -51t-21 -82q0 -47 20.5 -81.5t55 -52.5t73.5 -18t74.5 17.5zM458 749q0 -63 -35.5 -106t-109.5 -43t-109.5 43t-35.5 106h83q0 -67 62 -68q62 1 62 68
h83z" />
    <glyph glyph-name="Gdotaccent" unicode="&#x120;" horiz-adv-x="760" 
d="M688 79q-61 -47 -130.5 -71t-141.5 -24q-97 0 -180.5 43.5t-134.5 127t-51 197.5q0 115 51 197t134.5 124.5t179.5 42.5q79 0 150.5 -30t124.5 -90l-77 -84q-38 49 -91.5 72.5t-111.5 23.5q-66 0 -121 -28t-88.5 -85t-33.5 -139q0 -85 36 -144.5t94.5 -89.5t125.5 -30
q84 0 150 40v141h-162v107h277v-301zM366.5 883q20.5 21 50.5 21q31 0 52 -21t21 -52q0 -30 -21 -50.5t-52 -20.5q-30 0 -50.5 20.5t-20.5 50.5q0 31 20.5 52z" />
    <glyph glyph-name="gdotaccent" unicode="&#x121;" horiz-adv-x="626" 
d="M566 26q0 -83 -36.5 -142t-96.5 -89t-129 -30q-58 0 -112.5 21.5t-95 64.5t-56.5 103l104 41q15 -61 61 -94.5t103 -33.5q39 0 73.5 16.5t55.5 50.5t21 82v79q-31 -39 -76.5 -59.5t-96.5 -20.5q-62 0 -117.5 30t-89.5 87.5t-34 134.5q0 79 36.5 135.5t93.5 85.5t120 29
q109 0 164 -72v59h108v-478zM376.5 133.5q35.5 17.5 57.5 52t22 82.5t-21.5 82t-56.5 51t-75 17q-39 0 -73.5 -17t-55.5 -51t-21 -82q0 -47 20.5 -81.5t55 -52.5t73.5 -18t74.5 17.5zM264.5 723q20.5 21 50.5 21q31 0 52 -21t21 -52q0 -30 -21 -50.5t-52 -20.5
q-30 0 -50.5 20.5t-20.5 50.5q0 31 20.5 52z" />
    <glyph glyph-name="Gcommaaccent" unicode="&#x122;" horiz-adv-x="760" 
d="M688 79q-61 -47 -130.5 -71t-141.5 -24q-97 0 -180.5 43.5t-134.5 127t-51 197.5q0 115 51 197t134.5 124.5t179.5 42.5q79 0 150.5 -30t124.5 -90l-77 -84q-38 49 -91.5 72.5t-111.5 23.5q-66 0 -121 -28t-88.5 -85t-33.5 -139q0 -85 36 -144.5t94.5 -89.5t125.5 -30
q84 0 150 40v141h-162v107h277v-301zM366 -39l118 -46l-124 -282l-92 37z" />
    <glyph glyph-name="gcommaaccent" unicode="&#x123;" horiz-adv-x="626" 
d="M354 583l-118 46l124 282l92 -37zM566 26q0 -83 -36.5 -142t-96.5 -89t-129 -30q-58 0 -112.5 21.5t-95 64.5t-56.5 103l104 41q15 -61 61 -94.5t103 -33.5q39 0 73.5 16.5t55.5 50.5t21 82v79q-31 -39 -76.5 -59.5t-96.5 -20.5q-62 0 -117.5 30t-89.5 87.5t-34 134.5
q0 79 36.5 135.5t93.5 85.5t120 29q109 0 164 -72v59h108v-478zM376.5 133.5q35.5 17.5 57.5 52t22 82.5t-21.5 82t-56.5 51t-75 17q-39 0 -73.5 -17t-55.5 -51t-21 -82q0 -47 20.5 -81.5t55 -52.5t73.5 -18t74.5 17.5z" />
    <glyph glyph-name="Hcircumflex" unicode="&#x124;" horiz-adv-x="723" 
d="M80 700h114v-296h335v296h114v-700h-114v298h-335v-298h-114v700zM489 750l-127 83l-128 -83l-55 70l182 125l183 -125z" />
    <glyph glyph-name="hcircumflex" unicode="&#x125;" horiz-adv-x="634" 
d="M428.5 495.5q41.5 -21.5 67 -64t25.5 -102.5v-329h-111v290q0 61 -28 91t-74 30q-54 0 -90.5 -40t-36.5 -110v-261h-111v700h111v-269q27 43 68 64.5t90 21.5q48 0 89.5 -21.5zM509 591l-127 83l-128 -83l-55 70l182 125l183 -125z" />
    <glyph glyph-name="Hbar" unicode="&#x126;" horiz-adv-x="777" 
d="M757 493h-87v-493h-114v298h-335v-298h-114v493h-87v49h87v158h114v-158h335v158h114v-158h87v-49zM556 493h-335v-89h335v89z" />
    <glyph glyph-name="hbar" unicode="&#x127;" horiz-adv-x="601" 
d="M438.5 495.5q41.5 -21.5 67 -64t25.5 -102.5v-329h-111v290q0 61 -28 91t-74 30q-54 0 -90.5 -40t-36.5 -110v-261h-111v580h-60v52h60v68h111v-68h140v-52h-140v-149q27 43 68 64.5t90 21.5q48 0 89.5 -21.5z" />
    <glyph glyph-name="Itilde" unicode="&#x128;" horiz-adv-x="275" 
d="M80 700h115v-700h-115v700zM258.5 786.5q-25.5 -25.5 -57.5 -25.5q-17 0 -33.5 8t-36.5 22q-18 12 -29 17.5t-22 5.5q-15 0 -31 -13t-37 -37l-64 53q22 35 57 65.5t74 30.5q18 0 33.5 -7t38.5 -21q18 -11 28 -15.5t20 -4.5q14 0 25.5 11t26.5 31l62 -49
q-29 -46 -54.5 -71.5z" />
    <glyph glyph-name="itilde" unicode="&#x129;" horiz-adv-x="280" 
d="M84 504h111v-504h-111v504zM270.5 625.5q-25.5 -25.5 -57.5 -25.5q-17 0 -33.5 8t-36.5 22q-18 12 -29 17.5t-22 5.5q-15 0 -31 -13t-37 -37l-64 53q22 35 57 65.5t74 30.5q18 0 33.5 -7t38.5 -21q18 -11 28 -15.5t20 -4.5q14 0 25.5 11t26.5 31l62 -49
q-29 -46 -54.5 -71.5z" />
    <glyph glyph-name="Imacron" unicode="&#x12a;" horiz-adv-x="275" 
d="M80 700h115v-700h-115v700zM286 869v-109h-297v109h297z" />
    <glyph glyph-name="imacron" unicode="&#x12b;" horiz-adv-x="279" 
d="M84 504h111v-504h-111v504zM288 699v-99h-297v99h297z" />
    <glyph glyph-name="ibreve" unicode="&#x12d;" horiz-adv-x="279" 
d="M83 504h111v-504h-111v504zM284 749q0 -63 -35.5 -106t-109.5 -43t-109.5 43t-35.5 106h83q0 -67 62 -68q62 1 62 68h83z" />
    <glyph glyph-name="Iogonek" unicode="&#x12e;" horiz-adv-x="275" 
d="M94.5 -35.5q-18.5 -22.5 -18.5 -45.5q0 -24 21.5 -37.5t60.5 -12.5v-74q-74 4 -115.5 30t-41.5 70q0 31 20 60.5t59 49.5v695h115v-700h-52q-30 -13 -48.5 -35.5z" />
    <glyph glyph-name="iogonek" unicode="&#x12f;" horiz-adv-x="279" 
d="M196 716.5q23 -22.5 23 -56.5t-23 -56.5t-57 -22.5t-56.5 22.5t-22.5 56.5t22.5 56.5t56.5 22.5t57 -22.5zM84 504h111v-504h-38q-30 -13 -48.5 -35.5t-18.5 -45.5q0 -24 21.5 -37.5t60.5 -12.5v-74q-74 4 -115.5 30t-41.5 70q0 30 17.5 57.5t51.5 47.5v504z" />
    <glyph glyph-name="Idotaccent" unicode="&#x130;" horiz-adv-x="275" 
d="M81 700h115v-700h-115v700zM86.5 883q20.5 21 50.5 21q31 0 52 -21t21 -52q0 -30 -21 -50.5t-52 -20.5q-30 0 -50.5 20.5t-20.5 50.5q0 31 20.5 52z" />
    <glyph glyph-name="dotlessi" unicode="&#x131;" horiz-adv-x="279" 
d="M84 504h111v-504h-111v504z" />
    <glyph glyph-name="IJ" unicode="&#x132;" horiz-adv-x="778" 
d="M60 700h115v-700h-115v700zM708 700v-491q0 -72 -30.5 -123t-79.5 -76.5t-105 -25.5q-51 0 -97 21t-78.5 62t-42.5 99l115 27q7 -49 34.5 -73.5t67.5 -24.5q44 0 72.5 29.5t28.5 82.5v493h115z" />
    <glyph glyph-name="ij" unicode="&#x133;" horiz-adv-x="561" 
d="M82.5 716.5q22.5 22.5 56.5 22.5t57 -22.5t23 -56.5t-23 -56.5t-57 -22.5t-56.5 22.5t-22.5 56.5t22.5 56.5zM84 504h111v-504h-111v504zM364 716.5q23 22.5 56 22.5q35 0 58 -22.5t23 -56.5t-23 -56.5t-58 -22.5q-33 0 -56 22.5t-23 56.5t23 56.5zM477 -67
q0 -82 -47.5 -124.5t-116.5 -42.5q-61 0 -114 34l41 85q29 -22 63 -22q27 0 45 18.5t18 55.5v567h111v-571z" />
    <glyph glyph-name="Jcircumflex" unicode="&#x134;" horiz-adv-x="523" 
d="M453 700v-491q0 -72 -30.5 -123t-79.5 -76.5t-105 -25.5q-51 0 -97 21t-78.5 62t-42.5 99l115 27q7 -49 34.5 -73.5t67.5 -24.5q44 0 72.5 29.5t28.5 82.5v493h115zM520 750l-127 83l-128 -83l-55 70l182 125l183 -125z" />
    <glyph glyph-name="jcircumflex" unicode="&#x135;" horiz-adv-x="282" 
d="M268 591l-127 83l-128 -83l-55 70l182 125l183 -125zM198 -67q0 -82 -47.5 -124.5t-116.5 -42.5q-61 0 -114 34l41 85q29 -22 63 -22q27 0 45 18.5t18 55.5v567h111v-571z" />
    <glyph glyph-name="Kcommaaccent" unicode="&#x136;" horiz-adv-x="665" 
d="M195 303v-303h-115v700h115v-297l284 297h148l-329 -340l347 -360h-158zM309 -39l118 -46l-124 -282l-92 37z" />
    <glyph glyph-name="kcommaaccent" unicode="&#x137;" horiz-adv-x="589" 
d="M182 229l-1 -229h-111v700h111v-416l215 220h159l-250 -237l279 -267h-163zM253 -29l118 -46l-124 -282l-92 37z" />
    <glyph glyph-name="kgreenlandic" unicode="&#x138;" horiz-adv-x="589" 
d="M182 229l-1 -229h-111v504h111v-220l215 220h159l-250 -237l279 -267h-163z" />
    <glyph glyph-name="Lacute" unicode="&#x139;" horiz-adv-x="518" 
d="M195 700v-595h293v-105h-408v700h115zM359 933l27 -97l-250 -76l-30 96z" />
    <glyph glyph-name="lacute" unicode="&#x13a;" horiz-adv-x="325" 
d="M227 -11q-67 0 -112 41.5t-45 126.5v543h111v-537q0 -40 17.5 -58.5t46.5 -18.5q22 0 44 9l36 -83q-48 -23 -98 -23zM333 933l27 -97l-250 -76l-30 96z" />
    <glyph glyph-name="Lcommaaccent" unicode="&#x13b;" horiz-adv-x="518" 
d="M195 700v-595h293v-105h-408v700h115zM262 -39l118 -46l-124 -282l-92 37z" />
    <glyph glyph-name="lcommaaccent" unicode="&#x13c;" horiz-adv-x="325" 
d="M227 -11q-67 0 -112 41.5t-45 126.5v543h111v-537q0 -40 17.5 -58.5t46.5 -18.5q22 0 44 9l36 -83q-48 -23 -98 -23zM140 -40l118 -46l-124 -282l-92 37z" />
    <glyph glyph-name="Lcaron" unicode="&#x13d;" horiz-adv-x="680" 
d="M195 700v-595h293v-105h-408v700h115zM542 752l118 -46l-124 -282l-92 37z" />
    <glyph glyph-name="lcaron" unicode="&#x13e;" horiz-adv-x="517" 
d="M227 -11q-67 0 -112 41.5t-45 126.5v543h111v-537q0 -40 17.5 -58.5t46.5 -18.5q22 0 44 9l36 -83q-48 -23 -98 -23zM379 716l118 -46l-124 -282l-92 37z" />
    <glyph glyph-name="Ldot" unicode="&#x13f;" horiz-adv-x="580" 
d="M195 700v-595h293v-105h-408v700h115zM426.5 536q20.5 21 50.5 21q31 0 52 -21t21 -52q0 -30 -21 -50.5t-52 -20.5q-30 0 -50.5 20.5t-20.5 50.5q0 31 20.5 52z" />
    <glyph glyph-name="ldot" unicode="&#x140;" horiz-adv-x="428" 
d="M227 -11q-67 0 -112 41.5t-45 126.5v543h111v-537q0 -40 17.5 -58.5t46.5 -18.5q22 0 44 9l36 -83q-48 -23 -98 -23zM284.5 475q20.5 21 50.5 21q31 0 52 -21t21 -52q0 -30 -21 -50.5t-52 -20.5q-30 0 -50.5 20.5t-20.5 50.5q0 31 20.5 52z" />
    <glyph glyph-name="Lslash" unicode="&#x141;" horiz-adv-x="520" 
d="M490 105v-105h-408v311l-73 -42l-36 65l109 62v304h115v-239l121 68l35 -64l-156 -89v-271h293z" />
    <glyph glyph-name="lslash" unicode="&#x142;" horiz-adv-x="342" 
d="M291 95l36 -83q-48 -23 -98 -23q-67 0 -112 41.5t-45 126.5v154l-73 -42l-36 65l109 62v304h111v-241l124 70l35 -64l-159 -91v-211q0 -40 17.5 -58.5t46.5 -18.5q22 0 44 9z" />
    <glyph glyph-name="Nacute" unicode="&#x143;" horiz-adv-x="741" 
d="M80 700h115l351 -495v495h115v-700h-115l-351 491v-491h-115v700zM549 933l27 -97l-250 -76l-30 96z" />
    <glyph glyph-name="nacute" unicode="&#x144;" horiz-adv-x="591" 
d="M70 504h109v-72q26 43 68.5 64t91.5 21q48 0 89.5 -21.5t67 -64t25.5 -102.5v-329h-111v290q0 61 -28 91t-74 30q-54 0 -90.5 -40t-36.5 -110v-261h-111v504zM484 762l27 -97l-250 -76l-30 96z" />
    <glyph glyph-name="Ncommaaccent" unicode="&#x145;" horiz-adv-x="741" 
d="M80 700h115l351 -495v495h115v-700h-115l-351 491v-491h-115v700zM321 -9l118 -46l-124 -282l-92 37z" />
    <glyph glyph-name="ncommaaccent" unicode="&#x146;" horiz-adv-x="591" 
d="M70 504h109v-72q26 43 68.5 64t91.5 21q48 0 89.5 -21.5t67 -64t25.5 -102.5v-329h-111v290q0 61 -28 91t-74 30q-54 0 -90.5 -40t-36.5 -110v-261h-111v504zM264 -29l118 -46l-124 -282l-92 37z" />
    <glyph glyph-name="Ncaron" unicode="&#x147;" horiz-adv-x="741" 
d="M80 700h115l351 -495v495h115v-700h-115l-351 491v-491h-115v700zM393 749l-182 125l52 70l131 -87l130 87l52 -70z" />
    <glyph glyph-name="ncaron" unicode="&#x148;" horiz-adv-x="591" 
d="M70 504h109v-72q26 43 68.5 64t91.5 21q48 0 89.5 -21.5t67 -64t25.5 -102.5v-329h-111v290q0 61 -28 91t-74 30q-54 0 -90.5 -40t-36.5 -110v-261h-111v504zM313 591l-182 125l52 70l131 -87l130 87l52 -70z" />
    <glyph glyph-name="napostrophe" unicode="&#x149;" horiz-adv-x="787" 
d="M266 504h109v-72q26 43 68.5 64t91.5 21q48 0 89.5 -21.5t67 -64t25.5 -102.5v-329h-111v290q0 61 -28 91t-74 30q-54 0 -90.5 -40t-36.5 -110v-261h-111v504zM118 717l118 -46l-124 -282l-92 37z" />
    <glyph glyph-name="Eng" unicode="&#x14a;" horiz-adv-x="741" 
d="M661 700v-767q0 -82 -47.5 -124.5t-116.5 -42.5q-61 0 -114 34l41 85q29 -22 63 -22q27 0 45 18.5t18 55.5v58l-355 496v-491h-115v700h115l351 -495v495h115z" />
    <glyph glyph-name="eng" unicode="&#x14b;" horiz-adv-x="581" 
d="M428.5 495.5q41.5 -21.5 67 -64t25.5 -102.5v-396q0 -82 -47.5 -124.5t-116.5 -42.5q-61 0 -114 34l41 85q29 -22 63 -22q27 0 45 18.5t18 55.5v353q0 61 -28 91t-74 30q-54 0 -90.5 -40t-36.5 -110v-261h-111v504h109v-72q26 43 68.5 64t91.5 21q48 0 89.5 -21.5z" />
    <glyph glyph-name="Omacron" unicode="&#x14c;" horiz-adv-x="824" 
d="M596 668q83 -48 130.5 -132t47.5 -186t-47.5 -186t-130.5 -132t-184 -48t-184 48t-130.5 132t-47.5 186t47.5 186t130.5 132t184 48t184 -48zM288.5 573q-56.5 -33 -89 -91.5t-32.5 -131.5t32.5 -131.5t89 -91.5t123.5 -33t123 33t89 92t33 131t-33 131t-89 92t-123 33
t-123.5 -33zM561 869v-109h-297v109h297z" />
    <glyph glyph-name="omacron" unicode="&#x14d;" horiz-adv-x="607" 
d="M439 482.5q60 -34.5 94 -95t34 -134.5t-34 -134.5t-94 -95t-136 -34.5q-75 0 -135 34.5t-94 95t-34 134.5t34 134.5t94 95t135 34.5q76 0 136 -34.5zM192.5 369.5q-43.5 -45.5 -43.5 -115.5t43.5 -115.5t110.5 -45.5q68 0 111.5 45.5t43.5 115.5t-43.5 115.5t-111.5 45.5
q-67 0 -110.5 -45.5zM452 699v-99h-297v99h297z" />
    <glyph glyph-name="Obreve" unicode="&#x14e;" horiz-adv-x="824" 
d="M596 668q83 -48 130.5 -132t47.5 -186t-47.5 -186t-130.5 -132t-184 -48t-184 48t-130.5 132t-47.5 186t47.5 186t130.5 132t184 48t184 -48zM288.5 573q-56.5 -33 -89 -91.5t-32.5 -131.5t32.5 -131.5t89 -91.5t123.5 -33t123 33t89 92t33 131t-33 131t-89 92t-123 33
t-123.5 -33zM557 906q0 -63 -35.5 -106t-109.5 -43t-109.5 43t-35.5 106h83q0 -68 60 -68q64 0 64 68h83z" />
    <glyph glyph-name="obreve" unicode="&#x14f;" horiz-adv-x="607" 
d="M439 482.5q60 -34.5 94 -95t34 -134.5t-34 -134.5t-94 -95t-136 -34.5q-75 0 -135 34.5t-94 95t-34 134.5t34 134.5t94 95t135 34.5q76 0 136 -34.5zM192.5 369.5q-43.5 -45.5 -43.5 -115.5t43.5 -115.5t110.5 -45.5q68 0 111.5 45.5t43.5 115.5t-43.5 115.5t-111.5 45.5
q-67 0 -110.5 -45.5zM449 749q0 -63 -35.5 -106t-109.5 -43t-109.5 43t-35.5 106h83q0 -67 62 -68q62 1 62 68h83z" />
    <glyph glyph-name="Ohungarumlaut" unicode="&#x150;" horiz-adv-x="824" 
d="M596 668q83 -48 130.5 -132t47.5 -186t-47.5 -186t-130.5 -132t-184 -48t-184 48t-130.5 132t-47.5 186t47.5 186t130.5 132t184 48t184 -48zM288.5 573q-56.5 -33 -89 -91.5t-32.5 -131.5t32.5 -131.5t89 -91.5t123.5 -33t123 33t89 92t33 131t-33 131t-89 92t-123 33
t-123.5 -33zM384 769h-83l55 131h108zM526 769h-85l78 131h108z" />
    <glyph glyph-name="ohungarumlaut" unicode="&#x151;" horiz-adv-x="607" 
d="M439 482.5q60 -34.5 94 -95t34 -134.5t-34 -134.5t-94 -95t-136 -34.5q-75 0 -135 34.5t-94 95t-34 134.5t34 134.5t94 95t135 34.5q76 0 136 -34.5zM192.5 369.5q-43.5 -45.5 -43.5 -115.5t43.5 -115.5t110.5 -45.5q68 0 111.5 45.5t43.5 115.5t-43.5 115.5t-111.5 45.5
q-67 0 -110.5 -45.5zM275 600h-83l55 131h108zM417 600h-85l78 131h108z" />
    <glyph glyph-name="OE" unicode="&#x152;" horiz-adv-x="927" 
d="M867 0h-469q-98 0 -177.5 46t-125 126t-45.5 178t45.5 178t125 126t177.5 46h461v-105h-286v-193h226v-105h-226v-192h294v-105zM458 595h-60q-65 0 -117.5 -31t-82.5 -86.5t-30 -127.5t30 -127.5t82.5 -86.5t117.5 -31h60v490z" />
    <glyph glyph-name="oe" unicode="&#x153;" horiz-adv-x="981" 
d="M937 203h-363q12 -56 52 -83t93 -27q43 0 80.5 17.5t62.5 53.5l71 -69q-41 -52 -97 -79t-120 -27q-62 0 -117 28t-90 80q-35 -51 -86.5 -79.5t-119.5 -28.5q-75 0 -135 34.5t-94 95t-34 134.5t34 134.5t94 95t135 34.5q67 0 118.5 -28t86.5 -79q36 53 88 80t115 27
t115.5 -28t83.5 -84.5t31 -138.5q0 -37 -4 -63zM793 386q-36 32 -87 32q-52 0 -90.5 -32t-45.5 -91h260q-1 59 -37 91zM414.5 138.5q43.5 45.5 43.5 115.5t-43.5 115.5t-111.5 45.5q-67 0 -110.5 -45.5t-43.5 -115.5t43.5 -115.5t110.5 -45.5q68 0 111.5 45.5z" />
    <glyph glyph-name="Racute" unicode="&#x154;" horiz-adv-x="614" 
d="M448 0l-160 289h-93v-289h-115v700h249q66 0 114 -28t72.5 -73.5t24.5 -97.5q0 -61 -33.5 -114t-95.5 -78l178 -309h-141zM393.5 424.5q29.5 30.5 29.5 71.5q0 40 -30 69.5t-82 29.5h-116v-201h116q53 0 82.5 30.5zM475 933l27 -97l-250 -76l-30 96z" />
    <glyph glyph-name="racute" unicode="&#x155;" horiz-adv-x="464" 
d="M373 499l-25 -112q-30 13 -64 13q-46 0 -74.5 -29.5t-28.5 -91.5v-279h-111v504h109v-61q19 35 53.5 51.5t74.5 16.5q33 0 66 -12zM427 762l27 -97l-250 -76l-30 96z" />
    <glyph glyph-name="Rcommaaccent" unicode="&#x156;" horiz-adv-x="614" 
d="M448 0l-160 289h-93v-289h-115v700h249q66 0 114 -28t72.5 -73.5t24.5 -97.5q0 -61 -33.5 -114t-95.5 -78l178 -309h-141zM393.5 424.5q29.5 30.5 29.5 71.5q0 40 -30 69.5t-82 29.5h-116v-201h116q53 0 82.5 30.5zM282 -9l118 -46l-124 -282l-92 37z" />
    <glyph glyph-name="rcommaaccent" unicode="&#x157;" horiz-adv-x="383" 
d="M373 499l-25 -112q-30 13 -64 13q-46 0 -74.5 -29.5t-28.5 -91.5v-279h-111v504h109v-61q19 35 53.5 51.5t74.5 16.5q33 0 66 -12zM108 -39l118 -46l-124 -282l-92 37z" />
    <glyph glyph-name="Rcaron" unicode="&#x158;" horiz-adv-x="614" 
d="M448 0l-160 289h-93v-289h-115v700h249q66 0 114 -28t72.5 -73.5t24.5 -97.5q0 -61 -33.5 -114t-95.5 -78l178 -309h-141zM393.5 424.5q29.5 30.5 29.5 71.5q0 40 -30 69.5t-82 29.5h-116v-201h116q53 0 82.5 30.5zM284 749l-182 125l52 70l131 -87l130 87l52 -70z" />
    <glyph glyph-name="rcaron" unicode="&#x159;" horiz-adv-x="445" 
d="M373 499l-25 -112q-30 13 -64 13q-46 0 -74.5 -29.5t-28.5 -91.5v-279h-111v504h109v-61q19 35 53.5 51.5t74.5 16.5q33 0 66 -12zM252 591l-182 125l52 70l131 -87l130 87l52 -70z" />
    <glyph glyph-name="Sacute" unicode="&#x15a;" horiz-adv-x="589" 
d="M379.5 600.5q-40.5 16.5 -78.5 16.5q-48 0 -79.5 -26t-31.5 -73q0 -50 35 -76t104 -49q75 -25 115.5 -44t70 -57t29.5 -100q0 -67 -34 -114t-90 -70.5t-123 -23.5q-69 0 -135.5 26t-116.5 76l76 91q34 -42 82.5 -65t99.5 -23q53 0 88 23t35 67q0 30 -18 50.5t-45 33
t-77 30.5q-65 24 -106.5 45.5t-72 63.5t-30.5 109q0 68 33.5 114.5t86.5 68.5t112 22q57 0 109 -21.5t90 -58.5l-62 -80q-26 28 -66.5 44.5zM492 933l27 -97l-250 -76l-30 96z" />
    <glyph glyph-name="sacute" unicode="&#x15b;" horiz-adv-x="507" 
d="M448 66.5q-29 -37.5 -77.5 -57.5t-106.5 -20q-67 0 -131 26t-103 74l82 77q32 -40 75 -59t87 -19q39 0 65 15t26 37q0 18 -15 28.5t-35 16.5t-67 16q-54 12 -92.5 27.5t-65.5 47.5t-27 85q0 77 57.5 116.5t143.5 39.5q52 0 100 -15t86 -43l-63 -82q-25 20 -57 31.5
t-66 11.5q-39 0 -64 -15t-25 -42q0 -30 29 -43.5t90 -24.5q57 -11 94 -24t63 -41t26 -76q0 -50 -29 -87.5zM442 762l27 -97l-250 -76l-30 96z" />
    <glyph glyph-name="Scircumflex" unicode="&#x15c;" horiz-adv-x="589" 
d="M379.5 600.5q-40.5 16.5 -78.5 16.5q-48 0 -79.5 -26t-31.5 -73q0 -50 35 -76t104 -49q75 -25 115.5 -44t70 -57t29.5 -100q0 -67 -34 -114t-90 -70.5t-123 -23.5q-69 0 -135.5 26t-116.5 76l76 91q34 -42 82.5 -65t99.5 -23q53 0 88 23t35 67q0 30 -18 50.5t-45 33
t-77 30.5q-65 24 -106.5 45.5t-72 63.5t-30.5 109q0 68 33.5 114.5t86.5 68.5t112 22q57 0 109 -21.5t90 -58.5l-62 -80q-26 28 -66.5 44.5zM439 750l-127 83l-128 -83l-55 70l182 125l183 -125z" />
    <glyph glyph-name="scircumflex" unicode="&#x15d;" horiz-adv-x="507" 
d="M448 66.5q-29 -37.5 -77.5 -57.5t-106.5 -20q-67 0 -131 26t-103 74l82 77q32 -40 75 -59t87 -19q39 0 65 15t26 37q0 18 -15 28.5t-35 16.5t-67 16q-54 12 -92.5 27.5t-65.5 47.5t-27 85q0 77 57.5 116.5t143.5 39.5q52 0 100 -15t86 -43l-63 -82q-25 20 -57 31.5
t-66 11.5q-39 0 -64 -15t-25 -42q0 -30 29 -43.5t90 -24.5q57 -11 94 -24t63 -41t26 -76q0 -50 -29 -87.5zM387 591l-127 83l-128 -83l-55 70l182 125l183 -125z" />
    <glyph glyph-name="Scedilla" unicode="&#x15e;" horiz-adv-x="589" 
d="M483 47.5q-61 -53.5 -153 -61.5l-9 -26q56 -9 85.5 -38.5t29.5 -67.5q0 -28 -16 -53t-46 -40.5t-70 -15.5q-38 0 -75 16t-63 45l48 51q19 -22 42 -33.5t46 -11.5q26 0 44.5 12.5t18.5 35.5q0 31 -33 45t-80 19l19 61q-63 5 -122 30.5t-104 70.5l76 91q34 -42 82.5 -65
t99.5 -23q53 0 88 23t35 67q0 30 -18 50.5t-45 33t-77 30.5q-65 24 -106.5 45.5t-72 63.5t-30.5 109q0 68 33.5 114.5t86.5 68.5t112 22q57 0 109 -21.5t90 -58.5l-62 -80q-26 28 -66.5 44.5t-78.5 16.5q-48 0 -79.5 -26t-31.5 -73q0 -50 35 -76t104 -49q75 -25 115.5 -44
t70 -57t29.5 -100q0 -91 -61 -144.5z" />
    <glyph glyph-name="scedilla" unicode="&#x15f;" horiz-adv-x="507" 
d="M420.5 38q-56.5 -44 -140.5 -49l-10 -29q56 -9 85.5 -38.5t29.5 -67.5q0 -28 -16 -53t-46 -40.5t-70 -15.5q-38 0 -75 16t-63 45l48 51q19 -22 42 -33.5t46 -11.5q26 0 44.5 12.5t18.5 35.5q0 31 -33 45t-80 19l21 68q-57 7 -108.5 32t-83.5 65l82 77q32 -40 75 -59
t87 -19q39 0 65 15t26 37q0 18 -15 28.5t-35 16.5t-67 16q-54 12 -92.5 27.5t-65.5 47.5t-27 85q0 77 57.5 116.5t143.5 39.5q52 0 100 -15t86 -43l-63 -82q-25 20 -57 31.5t-66 11.5q-39 0 -64 -15t-25 -42q0 -30 29 -43.5t90 -24.5q57 -11 94 -24t63 -41t26 -76
q0 -72 -56.5 -116z" />
    <glyph glyph-name="Scaron" unicode="&#x160;" horiz-adv-x="589" 
d="M379.5 600.5q-40.5 16.5 -78.5 16.5q-48 0 -79.5 -26t-31.5 -73q0 -50 35 -76t104 -49q75 -25 115.5 -44t70 -57t29.5 -100q0 -67 -34 -114t-90 -70.5t-123 -23.5q-69 0 -135.5 26t-116.5 76l76 91q34 -42 82.5 -65t99.5 -23q53 0 88 23t35 67q0 30 -18 50.5t-45 33
t-77 30.5q-65 24 -106.5 45.5t-72 63.5t-30.5 109q0 68 33.5 114.5t86.5 68.5t112 22q57 0 109 -21.5t90 -58.5l-62 -80q-26 28 -66.5 44.5zM305 749l-182 125l52 70l131 -87l130 87l52 -70z" />
    <glyph glyph-name="scaron" unicode="&#x161;" horiz-adv-x="507" 
d="M448 66.5q-29 -37.5 -77.5 -57.5t-106.5 -20q-67 0 -131 26t-103 74l82 77q32 -40 75 -59t87 -19q39 0 65 15t26 37q0 18 -15 28.5t-35 16.5t-67 16q-54 12 -92.5 27.5t-65.5 47.5t-27 85q0 77 57.5 116.5t143.5 39.5q52 0 100 -15t86 -43l-63 -82q-25 20 -57 31.5
t-66 11.5q-39 0 -64 -15t-25 -42q0 -30 29 -43.5t90 -24.5q57 -11 94 -24t63 -41t26 -76q0 -50 -29 -87.5zM270 591l-182 125l52 70l131 -87l130 87l52 -70z" />
    <glyph glyph-name="uni0162" unicode="&#x162;" horiz-adv-x="613" 
d="M308 0l-14 -40q56 -9 85.5 -38.5t29.5 -67.5q0 -28 -16 -53t-46 -40.5t-70 -15.5q-38 0 -75 16t-63 45l48 51q19 -22 42 -33.5t46 -11.5q26 0 44.5 12.5t18.5 35.5q0 31 -33 45t-80 19l24 77v594h-229v105h573v-105h-229v-595h-56z" />
    <glyph glyph-name="uni0163" unicode="&#x163;" horiz-adv-x="437" 
d="M359.5 -78.5q29.5 -29.5 29.5 -67.5q0 -28 -16 -53t-46 -40.5t-70 -15.5q-38 0 -75 16t-63 45l48 51q19 -22 42 -33.5t46 -11.5q26 0 44.5 12.5t18.5 35.5q0 31 -33 45t-80 19l24 76q-45 17 -72.5 56.5t-27.5 100.5v245h-109v102h109v129h110v-129h141v-102h-141v-239
q0 -40 19.5 -58.5t51.5 -18.5q29 0 67 19l40 -82q-57 -34 -122 -34h-11l-10 -29q56 -9 85.5 -38.5z" />
    <glyph glyph-name="Tcaron" unicode="&#x164;" horiz-adv-x="613" 
d="M364 0h-115v595h-229v105h573v-105h-229v-595zM306 749l-182 125l52 70l131 -87l130 87l52 -70z" />
    <glyph glyph-name="tcaron" unicode="&#x165;" horiz-adv-x="686" 
d="M295 -11q-70 0 -118 43t-48 125v245h-109v102h109v129h110v-129h141v-102h-141v-239q0 -40 19.5 -58.5t51.5 -18.5q29 0 67 19l40 -82q-57 -34 -122 -34zM548 717l118 -46l-124 -282l-92 37z" />
    <glyph glyph-name="Tbar" unicode="&#x166;" horiz-adv-x="613" 
d="M364 595v-146h159v-50h-159v-399h-115v399h-159v50h159v146h-229v105h573v-105h-229z" />
    <glyph glyph-name="tbar" unicode="&#x167;" horiz-adv-x="437" 
d="M417 23q-57 -34 -122 -34q-70 0 -118 43t-48 125v68h-109v102h109v75h-109v102h109v129h110v-129h141v-102h-141v-75h141v-102h-141v-62q0 -40 19.5 -58.5t51.5 -18.5q29 0 67 19z" />
    <glyph glyph-name="Utilde" unicode="&#x168;" 
d="M209 13.5q-62 29.5 -100.5 88.5t-38.5 143v455h115v-433q0 -84 45.5 -128t110.5 -44q64 0 109.5 43.5t45.5 128.5v433h115v-455q0 -84 -38.5 -143t-100 -88.5t-131.5 -29.5t-132 29.5zM469.5 786.5q-25.5 -25.5 -57.5 -25.5q-17 0 -33.5 8t-36.5 22q-18 12 -29 17.5
t-22 5.5q-15 0 -31 -13t-37 -37l-64 53q22 35 57 65.5t74 30.5q18 0 33.5 -7t38.5 -21q18 -11 28 -15.5t20 -4.5q14 0 25.5 11t26.5 31l62 -49q-29 -46 -54.5 -71.5z" />
    <glyph glyph-name="utilde" unicode="&#x169;" horiz-adv-x="576" 
d="M506 0h-109v67q-54 -78 -149 -78q-48 0 -91 21.5t-70 66t-27 110.5v317h110v-289q0 -56 27.5 -86t71.5 -30q33 0 62 17t46.5 50.5t17.5 80.5v257h111v-504zM414.5 625.5q-25.5 -25.5 -57.5 -25.5q-17 0 -33.5 8t-36.5 22q-18 12 -29 17.5t-22 5.5q-15 0 -31 -13t-37 -37
l-64 53q22 35 57 65.5t74 30.5q18 0 33.5 -7t38.5 -21q18 -11 28 -15.5t20 -4.5q14 0 25.5 11t26.5 31l62 -49q-29 -46 -54.5 -71.5z" />
    <glyph glyph-name="Umacron" unicode="&#x16a;" 
d="M209 13.5q-62 29.5 -100.5 88.5t-38.5 143v455h115v-433q0 -84 45.5 -128t110.5 -44q64 0 109.5 43.5t45.5 128.5v433h115v-455q0 -84 -38.5 -143t-100 -88.5t-131.5 -29.5t-132 29.5zM489 869v-109h-297v109h297z" />
    <glyph glyph-name="umacron" unicode="&#x16b;" horiz-adv-x="576" 
d="M506 0h-109v67q-54 -78 -149 -78q-48 0 -91 21.5t-70 66t-27 110.5v317h110v-289q0 -56 27.5 -86t71.5 -30q33 0 62 17t46.5 50.5t17.5 80.5v257h111v-504zM429 699v-99h-297v99h297z" />
    <glyph glyph-name="Ubreve" unicode="&#x16c;" 
d="M209 13.5q-62 29.5 -100.5 88.5t-38.5 143v455h115v-433q0 -84 45.5 -128t110.5 -44q64 0 109.5 43.5t45.5 128.5v433h115v-455q0 -84 -38.5 -143t-100 -88.5t-131.5 -29.5t-132 29.5zM486 906q0 -63 -35.5 -106t-109.5 -43t-109.5 43t-35.5 106h83q0 -68 60 -68
q64 0 64 68h83z" />
    <glyph glyph-name="ubreve" unicode="&#x16d;" horiz-adv-x="576" 
d="M506 0h-109v67q-54 -78 -149 -78q-48 0 -91 21.5t-70 66t-27 110.5v317h110v-289q0 -56 27.5 -86t71.5 -30q33 0 62 17t46.5 50.5t17.5 80.5v257h111v-504zM428 749q0 -63 -35.5 -106t-109.5 -43t-109.5 43t-35.5 106h83q0 -67 62 -68q62 1 62 68h83z" />
    <glyph glyph-name="Uring" unicode="&#x16e;" 
d="M209 13.5q-62 29.5 -100.5 88.5t-38.5 143v455h115v-433q0 -84 45.5 -128t110.5 -44q64 0 109.5 43.5t45.5 128.5v433h115v-455q0 -84 -38.5 -143t-100 -88.5t-131.5 -29.5t-132 29.5zM261 918q31 32 78 32q46 0 79 -32.5t33 -77.5q0 -47 -32.5 -78.5t-79.5 -31.5
t-78 31.5t-31 78.5q0 46 31 78zM304 802.5q13 -14.5 35 -14.5t35.5 14.5t13.5 36.5t-13.5 36.5t-35.5 14.5t-35 -14.5t-13 -36.5t13 -36.5z" />
    <glyph glyph-name="uring" unicode="&#x16f;" horiz-adv-x="576" 
d="M506 0h-109v67q-54 -78 -149 -78q-48 0 -91 21.5t-70 66t-27 110.5v317h110v-289q0 -56 27.5 -86t71.5 -30q33 0 62 17t46.5 50.5t17.5 80.5v257h111v-504zM198.5 812.5q35.5 36.5 88.5 36.5q34 0 63.5 -17t46.5 -45.5t17 -62.5q0 -53 -37 -88.5t-90 -35.5t-88.5 35.5
t-35.5 88.5q0 52 35.5 88.5zM247 682q16 -17 40 -17t40.5 17t16.5 42q0 24 -16.5 41t-40.5 17t-40 -17t-16 -41q0 -25 16 -42z" />
    <glyph glyph-name="Uhungarumlaut" unicode="&#x170;" 
d="M209 13.5q-62 29.5 -100.5 88.5t-38.5 143v455h115v-433q0 -84 45.5 -128t110.5 -44q64 0 109.5 43.5t45.5 128.5v433h115v-455q0 -84 -38.5 -143t-100 -88.5t-131.5 -29.5t-132 29.5zM314 769h-83l55 131h108zM456 769h-85l78 131h108z" />
    <glyph glyph-name="uhungarumlaut" unicode="&#x171;" horiz-adv-x="576" 
d="M506 0h-109v67q-54 -78 -149 -78q-48 0 -91 21.5t-70 66t-27 110.5v317h110v-289q0 -56 27.5 -86t71.5 -30q33 0 62 17t46.5 50.5t17.5 80.5v257h111v-504zM247 600h-83l55 131h108zM389 600h-85l78 131h108z" />
    <glyph glyph-name="Uogonek" unicode="&#x172;" 
d="M611 700v-455q0 -76 -31 -131t-83 -87t-114 -40q-20 -14 -31.5 -32t-11.5 -36q0 -24 21.5 -37.5t60.5 -12.5v-74q-74 4 -115.5 30t-41.5 70q0 24 12 47.5t36 42.5q-65 6 -120.5 37t-89 88t-33.5 135v455h115v-433q0 -84 45.5 -128t110.5 -44q64 0 109.5 43.5t45.5 128.5
v433h115z" />
    <glyph glyph-name="uogonek" unicode="&#x173;" horiz-adv-x="576" 
d="M411.5 -35.5q-18.5 -22.5 -18.5 -45.5q0 -24 21.5 -37.5t60.5 -12.5v-74q-74 4 -115.5 30t-41.5 70q0 31 20 60.5t59 49.5v62q-54 -78 -149 -78q-48 0 -91 21.5t-70 66t-27 110.5v317h110v-289q0 -56 27.5 -86t71.5 -30q33 0 62 17t46.5 50.5t17.5 80.5v257h111v-504h-46
q-30 -13 -48.5 -35.5z" />
    <glyph glyph-name="Wcircumflex" unicode="&#x174;" horiz-adv-x="1024" 
d="M781 0h-110l-159 500l-160 -500h-109l-233 700h126l158 -504l158 504h119l159 -504l157 504h127zM640 750l-127 83l-128 -83l-55 70l182 125l183 -125z" />
    <glyph glyph-name="wcircumflex" unicode="&#x175;" horiz-adv-x="886" 
d="M679 0h-109l-127 329l-128 -329h-109l-186 504h124l116 -348l126 348h113l128 -348l116 348h123zM566 591l-127 83l-128 -83l-55 70l182 125l183 -125z" />
    <glyph glyph-name="Ycircumflex" unicode="&#x176;" horiz-adv-x="656" 
d="M385 0h-115v302l-260 398h141l177 -288l177 288h141l-261 -399v-301zM456 750l-127 83l-128 -83l-55 70l182 125l183 -125z" />
    <glyph glyph-name="ycircumflex" unicode="&#x177;" horiz-adv-x="610" 
d="M540 14q0 -78 -35.5 -134.5t-93 -85t-122.5 -28.5q-56 0 -107.5 21t-89.5 63.5t-52 104.5l105 36q12 -57 54 -90t95 -33q58 0 97.5 38.5t39.5 107.5v81q-24 -41 -62 -65.5t-89 -24.5q-50 0 -96 23t-75 70.5t-29 115.5v290h111v-273q0 -56 29.5 -87.5t77.5 -31.5
q55 0 93 40t38 110v242h111v-490zM432 591l-127 83l-128 -83l-55 70l182 125l183 -125z" />
    <glyph glyph-name="Ydieresis" unicode="&#x178;" horiz-adv-x="656" 
d="M385 0h-115v302l-260 398h141l177 -288l177 288h141l-261 -399v-301zM263 782q-21 -21 -52 -21q-30 0 -51 21t-21 51t21 51t51 21q31 0 52 -21t21 -51t-21 -51zM496.5 782q-21.5 -21 -52.5 -21q-30 0 -51 21t-21 51t21 51t51 21q31 0 52.5 -21t21.5 -51t-21.5 -51z" />
    <glyph glyph-name="Zacute" unicode="&#x179;" horiz-adv-x="584" 
d="M40 95l345 500h-337v105h479v-94l-346 -501h363v-105h-504v95zM481 933l27 -97l-250 -76l-30 96z" />
    <glyph glyph-name="zacute" unicode="&#x17a;" horiz-adv-x="524" 
d="M40 104l283 296h-272v104h417v-105l-274 -295h290v-104h-444v104zM431 762l27 -97l-250 -76l-30 96z" />
    <glyph glyph-name="Zdotaccent" unicode="&#x17b;" horiz-adv-x="584" 
d="M40 95l345 500h-337v105h479v-94l-346 -501h363v-105h-504v95zM245.5 883q20.5 21 50.5 21q31 0 52 -21t21 -52q0 -30 -21 -50.5t-52 -20.5q-30 0 -50.5 20.5t-20.5 50.5q0 31 20.5 52z" />
    <glyph glyph-name="zdotaccent" unicode="&#x17c;" horiz-adv-x="524" 
d="M40 104l283 296h-272v104h417v-105l-274 -295h290v-104h-444v104zM220.5 723q20.5 21 50.5 21q31 0 52 -21t21 -52q0 -30 -21 -50.5t-52 -20.5q-30 0 -50.5 20.5t-20.5 50.5q0 31 20.5 52z" />
    <glyph glyph-name="Zcaron" unicode="&#x17d;" horiz-adv-x="584" 
d="M40 95l345 500h-337v105h479v-94l-346 -501h363v-105h-504v95zM297 749l-182 125l52 70l131 -87l130 87l52 -70z" />
    <glyph glyph-name="zcaron" unicode="&#x17e;" horiz-adv-x="524" 
d="M40 104l283 296h-272v104h417v-105l-274 -295h290v-104h-444v104zM265 591l-182 125l52 70l131 -87l130 87l52 -70z" />
    <glyph glyph-name="longs" unicode="&#x17f;" horiz-adv-x="387" 
d="M118 402h-98v102h98v46q0 83 49 125.5t120 42.5q63 0 120 -34l-43 -86q-30 23 -67 23q-30 0 -49 -19t-19 -57v-545h-111v402z" />
    <glyph glyph-name="florin" unicode="&#x192;" horiz-adv-x="355" 
d="M216.5 602q-18.5 -19 -18.5 -57v-41h130v-102h-130v-469q0 -82 -47.5 -124.5t-116.5 -42.5q-61 0 -114 34l41 85q29 -22 63 -22q27 0 45 18.5t18 55.5v465h-98v102h98v46q0 83 49 125.5t120 42.5q63 0 119 -34l-42 -86q-32 23 -67 23q-31 0 -49.5 -19z" />
    <glyph glyph-name="Ohorn" unicode="&#x1a0;" horiz-adv-x="824" 
d="M741 507.5q33 -72.5 33 -157.5q0 -102 -47.5 -186t-130.5 -132t-184 -48t-184 48t-130.5 132t-47.5 186t47.5 186t130.5 132t184 48q71 0 135 -25q54 2 83.5 36t38.5 78l96 -25q-7 -47 -38 -88t-78 -62q59 -50 92 -122.5zM535 127q56 33 89 92t33 131t-33 131t-89 92
t-123 33t-123.5 -33t-89 -91.5t-32.5 -131.5t32.5 -131.5t89 -91.5t123.5 -33t123 33z" />
    <glyph glyph-name="ohorn" unicode="&#x1a1;" horiz-adv-x="607" 
d="M572 496q-29 -40 -72 -62q32 -36 49.5 -82.5t17.5 -98.5q0 -74 -34 -134.5t-94 -95t-136 -34.5q-75 0 -135 34.5t-94 95t-34 134.5t34 134.5t94 95t135 34.5q61 0 112 -23q41 10 64.5 41.5t31.5 69.5l96 -25q-6 -44 -35 -84zM414.5 138.5q43.5 45.5 43.5 115.5
t-43.5 115.5t-111.5 45.5q-67 0 -110.5 -45.5t-43.5 -115.5t43.5 -115.5t110.5 -45.5q68 0 111.5 45.5z" />
    <glyph glyph-name="Uhorn" unicode="&#x1af;" horiz-adv-x="768" 
d="M703 692.5q-37 -44.5 -92 -61.5v-386q0 -84 -38.5 -143t-100 -88.5t-131.5 -29.5t-132 29.5t-100.5 88.5t-38.5 143v455h115v-433q0 -84 45.5 -128t110.5 -44q64 0 109.5 43.5t45.5 128.5v433h29q56 0 87 34.5t40 79.5l96 -25q-8 -52 -45 -96.5z" />
    <glyph glyph-name="uhorn" unicode="&#x1b0;" horiz-adv-x="639" 
d="M582 506.5q-30 -40.5 -76 -62.5v-444h-109v67q-54 -78 -149 -78q-48 0 -91 21.5t-70 66t-27 110.5v317h110v-289q0 -56 27.5 -86t71.5 -30q33 0 62 17t46.5 50.5t17.5 80.5v257h1q56 0 87 34.5t40 79.5l96 -25q-7 -46 -37 -86.5z" />
    <glyph glyph-name="uni01CD" unicode="&#x1cd;" horiz-adv-x="699" 
d="M349 749l-182 125l52 70l131 -87l130 87l52 -70zM211 177l-65 -177h-126l274 700h113l272 -700h-126l-66 177h-276zM349 550l-99 -268h199z" />
    <glyph glyph-name="uni01CE" unicode="&#x1ce;" 
d="M630 -0.5q-24 -9.5 -50 -9.5q-40 0 -72.5 22.5t-42.5 64.5q-31 -43 -81 -65.5t-103 -22.5q-63 0 -118 31t-89 90.5t-34 141.5q0 85 36 145t94 90t123 30q49 0 92.5 -18t67.5 -57v62h109v-368q0 -24 10.5 -35t26.5 -11q10 0 21 4t19 9l32 -74q-17 -20 -41 -29.5z
M372.5 109q35.5 19 57 56t21.5 90t-21.5 89.5t-56 55t-74.5 18.5q-39 0 -73 -18.5t-55 -55.5t-21 -90t20.5 -90t54.5 -55.5t73 -18.5t74.5 19zM302 591l-182 125l52 70l131 -87l130 87l52 -70z" />
    <glyph glyph-name="uni01CF" unicode="&#x1cf;" horiz-adv-x="275" 
d="M80 700h115v-700h-115v700zM137 749l-182 125l52 70l131 -87l130 87l52 -70z" />
    <glyph glyph-name="uni01D0" unicode="&#x1d0;" horiz-adv-x="279" 
d="M84 504h111v-504h-111v504zM139 591l-182 125l52 70l131 -87l130 87l52 -70z" />
    <glyph glyph-name="uni01D1" unicode="&#x1d1;" horiz-adv-x="824" 
d="M596 668q83 -48 130.5 -132t47.5 -186t-47.5 -186t-130.5 -132t-184 -48t-184 48t-130.5 132t-47.5 186t47.5 186t130.5 132t184 48t184 -48zM288.5 573q-56.5 -33 -89 -91.5t-32.5 -131.5t32.5 -131.5t89 -91.5t123.5 -33t123 33t89 92t33 131t-33 131t-89 92t-123 33
t-123.5 -33zM412 749l-182 125l52 70l131 -87l130 87l52 -70z" />
    <glyph glyph-name="uni01D2" unicode="&#x1d2;" horiz-adv-x="607" 
d="M439 482.5q60 -34.5 94 -95t34 -134.5t-34 -134.5t-94 -95t-136 -34.5q-75 0 -135 34.5t-94 95t-34 134.5t34 134.5t94 95t135 34.5q76 0 136 -34.5zM192.5 369.5q-43.5 -45.5 -43.5 -115.5t43.5 -115.5t110.5 -45.5q68 0 111.5 45.5t43.5 115.5t-43.5 115.5t-111.5 45.5
q-67 0 -110.5 -45.5zM303 591l-182 125l52 70l131 -87l130 87l52 -70z" />
    <glyph glyph-name="uni01D3" unicode="&#x1d3;" 
d="M209 13.5q-62 29.5 -100.5 88.5t-38.5 143v455h115v-433q0 -84 45.5 -128t110.5 -44q64 0 109.5 43.5t45.5 128.5v433h115v-455q0 -84 -38.5 -143t-100 -88.5t-131.5 -29.5t-132 29.5zM340 749l-182 125l52 70l131 -87l130 87l52 -70z" />
    <glyph glyph-name="uni01D4" unicode="&#x1d4;" horiz-adv-x="576" 
d="M506 0h-109v67q-54 -78 -149 -78q-48 0 -91 21.5t-70 66t-27 110.5v317h110v-289q0 -56 27.5 -86t71.5 -30q33 0 62 17t46.5 50.5t17.5 80.5v257h111v-504zM292 591l-182 125l52 70l131 -87l130 87l52 -70z" />
    <glyph glyph-name="uni01D5" unicode="&#x1d5;" 
d="M489 1039v-99h-297v99h297zM209 13.5q-62 29.5 -100.5 88.5t-38.5 143v455h115v-433q0 -84 45.5 -128t110.5 -44q64 0 109.5 43.5t45.5 128.5v433h115v-455q0 -84 -38.5 -143t-100 -88.5t-131.5 -29.5t-132 29.5zM275 772q-21 -21 -52 -21q-30 0 -51 21t-21 51t21 51
t51 21q31 0 52 -21t21 -51t-21 -51zM508.5 772q-21.5 -21 -52.5 -21q-30 0 -51 21t-21 51t21 51t51 21q31 0 52.5 -21t21.5 -51t-21.5 -51z" />
    <glyph glyph-name="uni01D6" unicode="&#x1d6;" horiz-adv-x="576" 
d="M506 0h-109v67q-54 -78 -149 -78q-48 0 -91 21.5t-70 66t-27 110.5v317h110v-289q0 -56 27.5 -86t71.5 -30q33 0 62 17t46.5 50.5t17.5 80.5v257h111v-504zM218 603q-21 -21 -52 -21q-30 0 -51 21t-21 51t21 51t51 21q31 0 52 -21t21 -51t-21 -51zM451.5 603
q-21.5 -21 -52.5 -21q-30 0 -51 21t-21 51t21 51t51 21q31 0 52.5 -21t21.5 -51t-21.5 -51zM432 870v-99h-297v99h297z" />
    <glyph glyph-name="uni01D7" unicode="&#x1d7;" 
d="M292 979l164 68l33 -78l-164 -67zM275 772q-21 -21 -52 -21q-30 0 -51 21t-21 51t21 51t51 21q31 0 52 -21t21 -51t-21 -51zM508.5 772q-21.5 -21 -52.5 -21q-30 0 -51 21t-21 51t21 51t51 21q31 0 52.5 -21t21.5 -51t-21.5 -51zM209 13.5q-62 29.5 -100.5 88.5
t-38.5 143v455h115v-433q0 -84 45.5 -128t110.5 -44q64 0 109.5 43.5t45.5 128.5v433h115v-455q0 -84 -38.5 -143t-100 -88.5t-131.5 -29.5t-132 29.5z" />
    <glyph glyph-name="uni01D8" unicode="&#x1d8;" horiz-adv-x="576" 
d="M235 810l164 68l33 -78l-164 -67zM218 603q-21 -21 -52 -21q-30 0 -51 21t-21 51t21 51t51 21q31 0 52 -21t21 -51t-21 -51zM451.5 603q-21.5 -21 -52.5 -21q-30 0 -51 21t-21 51t21 51t51 21q31 0 52.5 -21t21.5 -51t-21.5 -51zM506 0h-109v67q-54 -78 -149 -78
q-48 0 -91 21.5t-70 66t-27 110.5v317h110v-289q0 -56 27.5 -86t71.5 -30q33 0 62 17t46.5 50.5t17.5 80.5v257h111v-504z" />
    <glyph glyph-name="uni01D9" unicode="&#x1d9;" 
d="M467 983l-126 -92l-126 92l47 61l79 -58l79 58zM209 13.5q-62 29.5 -100.5 88.5t-38.5 143v455h115v-433q0 -84 45.5 -128t110.5 -44q64 0 109.5 43.5t45.5 128.5v433h115v-455q0 -84 -38.5 -143t-100 -88.5t-131.5 -29.5t-132 29.5zM275 772q-21 -21 -52 -21
q-30 0 -51 21t-21 51t21 51t51 21q31 0 52 -21t21 -51t-21 -51zM508.5 772q-21.5 -21 -52.5 -21q-30 0 -51 21t-21 51t21 51t51 21q31 0 52.5 -21t21.5 -51t-21.5 -51z" />
    <glyph glyph-name="uni01DA" unicode="&#x1da;" horiz-adv-x="576" 
d="M506 0h-109v67q-54 -78 -149 -78q-48 0 -91 21.5t-70 66t-27 110.5v317h110v-289q0 -56 27.5 -86t71.5 -30q33 0 62 17t46.5 50.5t17.5 80.5v257h111v-504zM218 603q-21 -21 -52 -21q-30 0 -51 21t-21 51t21 51t51 21q31 0 52 -21t21 -51t-21 -51zM451.5 603
q-21.5 -21 -52.5 -21q-30 0 -51 21t-21 51t21 51t51 21q31 0 52.5 -21t21.5 -51t-21.5 -51zM410 814l-126 -92l-126 92l47 61l79 -58l79 58z" />
    <glyph glyph-name="uni01DB" unicode="&#x1db;" 
d="M191 970l33 78l164 -69l-33 -76zM275 772q-21 -21 -52 -21q-30 0 -51 21t-21 51t21 51t51 21q31 0 52 -21t21 -51t-21 -51zM508.5 772q-21.5 -21 -52.5 -21q-30 0 -51 21t-21 51t21 51t51 21q31 0 52.5 -21t21.5 -51t-21.5 -51zM209 13.5q-62 29.5 -100.5 88.5t-38.5 143
v455h115v-433q0 -84 45.5 -128t110.5 -44q64 0 109.5 43.5t45.5 128.5v433h115v-455q0 -84 -38.5 -143t-100 -88.5t-131.5 -29.5t-132 29.5z" />
    <glyph glyph-name="uni01DC" unicode="&#x1dc;" horiz-adv-x="576" 
d="M134 801l33 78l164 -69l-33 -76zM218 603q-21 -21 -52 -21q-30 0 -51 21t-21 51t21 51t51 21q31 0 52 -21t21 -51t-21 -51zM451.5 603q-21.5 -21 -52.5 -21q-30 0 -51 21t-21 51t21 51t51 21q31 0 52.5 -21t21.5 -51t-21.5 -51zM506 0h-109v67q-54 -78 -149 -78
q-48 0 -91 21.5t-70 66t-27 110.5v317h110v-289q0 -56 27.5 -86t71.5 -30q33 0 62 17t46.5 50.5t17.5 80.5v257h111v-504z" />
    <glyph glyph-name="Scommaaccent" unicode="&#x218;" horiz-adv-x="589" 
d="M379.5 600.5q-40.5 16.5 -78.5 16.5q-48 0 -79.5 -26t-31.5 -73q0 -50 35 -76t104 -49q75 -25 115.5 -44t70 -57t29.5 -100q0 -67 -34 -114t-90 -70.5t-123 -23.5q-69 0 -135.5 26t-116.5 76l76 91q34 -42 82.5 -65t99.5 -23q53 0 88 23t35 67q0 30 -18 50.5t-45 33
t-77 30.5q-65 24 -106.5 45.5t-72 63.5t-30.5 109q0 68 33.5 114.5t86.5 68.5t112 22q57 0 109 -21.5t90 -58.5l-62 -80q-26 28 -66.5 44.5zM266 -39l118 -46l-124 -282l-92 37z" />
    <glyph glyph-name="scommaaccent" unicode="&#x219;" horiz-adv-x="507" 
d="M448 66.5q-29 -37.5 -77.5 -57.5t-106.5 -20q-67 0 -131 26t-103 74l82 77q32 -40 75 -59t87 -19q39 0 65 15t26 37q0 18 -15 28.5t-35 16.5t-67 16q-54 12 -92.5 27.5t-65.5 47.5t-27 85q0 77 57.5 116.5t143.5 39.5q52 0 100 -15t86 -43l-63 -82q-25 20 -57 31.5
t-66 11.5q-39 0 -64 -15t-25 -42q0 -30 29 -43.5t90 -24.5q57 -11 94 -24t63 -41t26 -76q0 -50 -29 -87.5zM229 -39l118 -46l-124 -282l-92 37z" />
    <glyph glyph-name="uni021A" unicode="&#x21a;" horiz-adv-x="613" 
d="M364 0h-115v595h-229v105h573v-105h-229v-595zM265 -39l118 -46l-124 -282l-92 37z" />
    <glyph glyph-name="uni021B" unicode="&#x21b;" horiz-adv-x="437" 
d="M295 -11q-70 0 -118 43t-48 125v245h-109v102h109v129h110v-129h141v-102h-141v-239q0 -40 19.5 -58.5t51.5 -18.5q29 0 67 19l40 -82q-57 -34 -122 -34zM212 -39l118 -46l-124 -282l-92 37z" />
    <glyph glyph-name="uni0233" unicode="&#x233;" horiz-adv-x="610" 
d="M540 14q0 -78 -35.5 -134.5t-93 -85t-122.5 -28.5q-56 0 -107.5 21t-89.5 63.5t-52 104.5l105 36q12 -57 54 -90t95 -33q58 0 97.5 38.5t39.5 107.5v81q-24 -41 -62 -65.5t-89 -24.5q-50 0 -96 23t-75 70.5t-29 115.5v290h111v-273q0 -56 29.5 -87.5t77.5 -31.5
q55 0 93 40t38 110v242h111v-490zM439 699v-99h-297v99h297z" />
    <glyph glyph-name="uni0268" unicode="&#x268;" horiz-adv-x="277" 
d="M81.5 603.5q-22.5 22.5 -22.5 56.5t22.5 56.5t56.5 22.5t57 -22.5t23 -56.5t-23 -56.5t-57 -22.5t-56.5 22.5zM287 252h-93v-252h-111v252h-93v92h93v160h111v-160h93v-92z" />
    <glyph glyph-name="circumflex" unicode="&#x2c6;" horiz-adv-x="365" 
d="M310 591l-127 83l-128 -83l-55 70l182 125l183 -125z" />
    <glyph glyph-name="caron" unicode="&#x2c7;" horiz-adv-x="365" 
d="M182 591l-182 125l52 70l131 -87l130 87l52 -70z" />
    <glyph glyph-name="breve" unicode="&#x2d8;" horiz-adv-x="290" 
d="M290 749q0 -63 -35.5 -106t-109.5 -43t-109.5 43t-35.5 106h83q0 -67 62 -68q62 1 62 68h83z" />
    <glyph glyph-name="dotaccent" unicode="&#x2d9;" horiz-adv-x="144" 
d="M20.5 723q20.5 21 50.5 21q31 0 52 -21t21 -52q0 -30 -21 -50.5t-52 -20.5q-30 0 -50.5 20.5t-20.5 50.5q0 31 20.5 52z" />
    <glyph glyph-name="ring" unicode="&#x2da;" horiz-adv-x="251" 
d="M35.5 812.5q35.5 36.5 88.5 36.5q34 0 63.5 -17t46.5 -45.5t17 -62.5q0 -53 -37 -88.5t-90 -35.5t-88.5 35.5t-35.5 88.5q0 52 35.5 88.5zM84 682q16 -17 40 -17t40.5 17t16.5 42q0 24 -16.5 41t-40.5 17t-40 -17t-16 -41q0 -25 16 -42z" />
    <glyph glyph-name="ogonek" unicode="&#x2db;" horiz-adv-x="149" 
d="M92.5 -118.5q21.5 -13.5 60.5 -12.5v-74q-74 4 -115.5 30t-41.5 70q0 32 21 62t61 50h78q-38 -12 -61.5 -37t-23.5 -51q0 -24 21.5 -37.5z" />
    <glyph glyph-name="tilde" unicode="&#x2dc;" horiz-adv-x="365" 
d="M310.5 625.5q-25.5 -25.5 -57.5 -25.5q-17 0 -33.5 8t-36.5 22q-18 12 -29 17.5t-22 5.5q-15 0 -31 -13t-37 -37l-64 53q22 35 57 65.5t74 30.5q18 0 33.5 -7t38.5 -21q18 -11 28 -15.5t20 -4.5q14 0 25.5 11t26.5 31l62 -49q-29 -46 -54.5 -71.5z" />
    <glyph glyph-name="hungarumlaut" unicode="&#x2dd;" horiz-adv-x="366" 
d="M83 600h-83l55 131h108zM225 600h-85l78 131h108z" />
    <glyph glyph-name="gravecomb" unicode="&#x300;" horiz-adv-x="0" 
d="M-30 759l-250 76l27 97l253 -77z" />
    <glyph glyph-name="acutecomb" unicode="&#x301;" horiz-adv-x="0" 
d="M-27 933l27 -97l-250 -76l-30 96z" />
    <glyph glyph-name="uni0302" unicode="&#x302;" horiz-adv-x="0" 
d="M-55 750l-127 83l-128 -83l-55 70l182 125l183 -125z" />
    <glyph glyph-name="tildecomb" unicode="&#x303;" horiz-adv-x="0" 
d="M-54.5 786.5q-25.5 -25.5 -57.5 -25.5q-17 0 -33.5 8t-36.5 22q-18 12 -29 17.5t-22 5.5q-15 0 -31 -13t-37 -37l-64 53q22 35 57 65.5t74 30.5q18 0 33.5 -7t38.5 -21q18 -11 28 -15.5t20 -4.5q14 0 25.5 11t26.5 31l62 -49q-29 -46 -54.5 -71.5z" />
    <glyph glyph-name="uni0304" unicode="&#x304;" horiz-adv-x="0" 
d="M-470 769v-109h-260v109h260z" />
    <glyph glyph-name="uni0306" unicode="&#x306;" horiz-adv-x="0" 
d="M0 906q0 -63 -35.5 -106t-109.5 -43t-109.5 43t-35.5 106h83q0 -68 60 -68q64 0 64 68h83z" />
    <glyph glyph-name="uni0307" unicode="&#x307;" horiz-adv-x="0" 
d="M-123.5 883q20.5 21 50.5 21q31 0 52 -21t21 -52q0 -30 -21 -50.5t-52 -20.5q-30 0 -50.5 20.5t-20.5 50.5q0 31 20.5 52z" />
    <glyph glyph-name="uni0308" unicode="&#x308;" horiz-adv-x="0" 
d="M-255 782q-21 -21 -52 -21q-30 0 -51 21t-21 51t21 51t51 21q31 0 52 -21t21 -51t-21 -51zM-21.5 782q-21.5 -21 -52.5 -21q-30 0 -51 21t-21 51t21 51t51 21q31 0 52.5 -21t21.5 -51t-21.5 -51z" />
    <glyph glyph-name="hookabovecomb" unicode="&#x309;" horiz-adv-x="0" 
d="M4.5 828q10.5 9 11.5 25q0 15 -9.5 23.5t-24.5 8.5q-21 0 -43 -12l-25 57q45 20 80 20q43 0 67.5 -26.5t24.5 -61.5q0 -38 -27.5 -65t-66.5 -40l-21 51q23 11 33.5 20z" />
    <glyph glyph-name="uni030A" unicode="&#x30a;" horiz-adv-x="0" 
d="M-190 918q31 32 78 32q46 0 79 -32.5t33 -77.5q0 -47 -32.5 -78.5t-79.5 -31.5t-78 31.5t-31 78.5q0 46 31 78zM-147 802.5q13 -14.5 35 -14.5t35.5 14.5t13.5 36.5t-13.5 36.5t-35.5 14.5t-35 -14.5t-13 -36.5t13 -36.5z" />
    <glyph glyph-name="uni030B" unicode="&#x30b;" horiz-adv-x="0" 
d="M-243 769h-83l55 131h108zM-101 769h-85l78 131h108z" />
    <glyph glyph-name="uni030C" unicode="&#x30c;" horiz-adv-x="0" 
d="M-183 749l-182 125l52 70l131 -87l130 87l52 -70z" />
    <glyph glyph-name="uni031B" unicode="&#x31b;" horiz-adv-x="0" 
d="M52 760.5q19 37.5 17 80.5l91 1q1 -6 1 -17q0 -58 -36.5 -109.5t-99.5 -68.5q-6 -2 -24 -4l-18 67q50 13 69 50.5z" />
    <glyph glyph-name="dotbelowcomb" unicode="&#x323;" horiz-adv-x="0" 
d="M-134 -90.5q22 22.5 55 22.5q34 0 56.5 -22.5t22.5 -56.5q0 -33 -22.5 -55.5t-56.5 -22.5q-33 0 -55 22.5t-22 55.5q0 34 22 56.5z" />
    <glyph glyph-name="uni0326" unicode="&#x326;" horiz-adv-x="0" 
d="M-118 28l118 -46l-124 -282l-92 37z" />
    <glyph glyph-name="uni0327" unicode="&#x327;" horiz-adv-x="0" 
d="M-29.5 -89.5q29.5 -29.5 29.5 -67.5q0 -28 -16 -53t-46 -40.5t-70 -15.5q-38 0 -75 16t-63 45l48 51q19 -22 42 -33.5t46 -11.5q26 0 44.5 12.5t18.5 35.5q0 31 -33 45t-80 19l36 115h60l-27 -79q56 -9 85.5 -38.5z" />
    <glyph glyph-name="uni0328" unicode="&#x328;" horiz-adv-x="0" 
d="M-63.5 -118.5q21.5 -13.5 60.5 -12.5v-74q-74 4 -115.5 30t-41.5 70q0 32 21 62t61 50h78q-38 -12 -61.5 -37t-23.5 -51q0 -24 21.5 -37.5z" />
    <glyph glyph-name="uni0329" unicode="&#x329;" horiz-adv-x="0" 
d="M-45 -233v167h90v-167h-90z" />
    <glyph glyph-name="uni0394" unicode="&#x394;" horiz-adv-x="699" 
d="M679 0h-659l274 700h113zM514 105l-165 445l-164 -445h329z" />
    <glyph glyph-name="uni03A9" unicode="&#x3a9;" horiz-adv-x="734" 
d="M490 104h151v-105h-252v245q89 13 134 66t45 122q0 80 -56.5 127t-144.5 47q-89 0 -145 -47t-56 -126q0 -70 45 -123t134 -66v-245h-252v105h151v65q-87 30 -140.5 96.5t-53.5 163.5q0 86 42 151t114.5 100t160.5 35t160.5 -35t114.5 -100t42 -151q0 -97 -53.5 -163.5
t-140.5 -96.5v-65z" />
    <glyph glyph-name="uni03BC" unicode="&#x3bc;" horiz-adv-x="576" 
d="M506 0h-109v61q-45 -73 -130 -73q-54 0 -97 27v-236h-110v725h110v-288q0 -57 30.5 -87.5t71.5 -30.5q31 0 59.5 17.5t46 51.5t17.5 80v257h111v-504z" />
    <glyph glyph-name="pi" unicode="&#x3c0;" horiz-adv-x="868" 
d="M798 23q-57 -34 -122 -34q-70 0 -118 43t-48 125v245h-229v-402h-111v402h-100v102h681v-102h-131v-239q0 -40 19.5 -58.5t51.5 -18.5q29 0 67 19z" />
    <glyph glyph-name="uni0E3F" unicode="&#xe3f;" horiz-adv-x="607" 
d="M531 107q-26 -47 -78 -77t-124 -30v-104h-82v104h-167v700h167v107h82v-107q65 -1 110 -27t67 -67t22 -88q0 -51 -27 -91t-76 -55q66 -19 99 -64t33 -103q0 -51 -26 -98zM195 415h109q51 0 79 28.5t28 67.5q0 41 -26 62.5t-75 21.5h-115v-180zM408.5 135q32.5 30 32.5 72
q0 44 -33.5 74t-91.5 30h-121v-206h121q60 0 92.5 30z" />
    <glyph glyph-name="uni1E02" unicode="&#x1e02;" horiz-adv-x="607" 
d="M524 308q33 -45 33 -103q0 -51 -26.5 -98t-79 -77t-125.5 -30h-246v700h244q66 0 112 -26t69 -67.5t23 -88.5q0 -51 -27 -91t-76 -55q66 -19 99 -64zM304 415q51 0 79 28.5t28 67.5q0 41 -26 62.5t-75 21.5h-115v-180h109zM408.5 135q32.5 30 32.5 72q0 44 -33.5 74
t-91.5 30h-121v-206h121q60 0 92.5 30zM240.5 883q20.5 21 50.5 21q31 0 52 -21t21 -52q0 -30 -21 -50.5t-52 -20.5q-30 0 -50.5 20.5t-20.5 50.5q0 31 20.5 52z" />
    <glyph glyph-name="uni1E03" unicode="&#x1e03;" horiz-adv-x="633" 
d="M465 486.5q57 -30.5 92.5 -90t35.5 -142.5q0 -80 -34 -140t-90 -92.5t-120 -32.5q-48 0 -94 19t-76 55v-63h-109v700h111v-258q29 38 72 56.5t92 18.5q63 0 120 -30.5zM407 108.5q34 18.5 55 55.5t21 89q0 53 -21 90.5t-55.5 56t-73.5 18.5t-74 -19t-56.5 -56t-21.5 -89
t21.5 -89t57 -56t74.5 -19t73 18.5zM312.5 723q20.5 21 50.5 21q31 0 52 -21t21 -52q0 -30 -21 -50.5t-52 -20.5q-30 0 -50.5 20.5t-20.5 50.5q0 31 20.5 52z" />
    <glyph glyph-name="uni1E0A" unicode="&#x1e0a;" horiz-adv-x="728" 
d="M80 700h244q112 0 192 -47.5t121 -126t41 -168.5q0 -92 -41.5 -174t-125.5 -133t-204 -51h-227v700zM195 595v-490h122q78 0 133 34t83 90t28 121q0 64 -27.5 120t-81 90.5t-129.5 34.5h-128zM250.5 883q20.5 21 50.5 21q31 0 52 -21t21 -52q0 -30 -21 -50.5t-52 -20.5
q-30 0 -50.5 20.5t-20.5 50.5q0 31 20.5 52z" />
    <glyph glyph-name="uni1E0B" unicode="&#x1e0b;" horiz-adv-x="632" 
d="M562 0h-109v65q-34 -39 -78.5 -57.5t-94.5 -18.5q-63 0 -118 31.5t-88.5 92t-33.5 141.5q0 83 36 142.5t94 90t122 30.5q48 0 91 -17t68 -50v250h111v-700zM372.5 109q35.5 19 57 56t21.5 89t-21.5 89t-56.5 56t-74 19q-40 0 -74 -18.5t-55 -56t-21 -90.5q0 -77 43 -120
t106 -43q39 0 74.5 19zM239.5 723q20.5 21 50.5 21q31 0 52 -21t21 -52q0 -30 -21 -50.5t-52 -20.5q-30 0 -50.5 20.5t-20.5 50.5q0 31 20.5 52z" />
    <glyph glyph-name="uni1E0D" unicode="&#x1e0d;" horiz-adv-x="632" 
d="M562 0h-109v65q-34 -39 -78.5 -57.5t-94.5 -18.5q-63 0 -118 31.5t-88.5 92t-33.5 141.5q0 83 36 142.5t94 90t122 30.5q48 0 91 -17t68 -50v250h111v-700zM372.5 109q35.5 19 57 56t21.5 89t-21.5 89t-56.5 56t-74 19q-40 0 -74 -18.5t-55 -56t-21 -90.5q0 -77 43 -120
t106 -43q39 0 74.5 19zM228 -90.5q22 22.5 55 22.5q34 0 56.5 -22.5t22.5 -56.5q0 -33 -22.5 -55.5t-56.5 -22.5q-33 0 -55 22.5t-22 55.5q0 34 22 56.5z" />
    <glyph glyph-name="uni1E1E" unicode="&#x1e1e;" horiz-adv-x="552" 
d="M195 0h-115v700h412v-105h-297v-193h237v-105h-237v-297zM250.5 883q20.5 21 50.5 21q31 0 52 -21t21 -52q0 -30 -21 -50.5t-52 -20.5q-30 0 -50.5 20.5t-20.5 50.5q0 31 20.5 52z" />
    <glyph glyph-name="uni1E1F" unicode="&#x1e1f;" horiz-adv-x="387" 
d="M118 402h-98v102h98v46q0 83 49 125.5t120 42.5q63 0 120 -34l-43 -86q-30 23 -67 23q-30 0 -49 -19t-19 -57v-41h131v-102h-131v-402h-111v402zM226.5 883q20.5 21 50.5 21q31 0 52 -21t21 -52q0 -30 -21 -50.5t-52 -20.5q-30 0 -50.5 20.5t-20.5 50.5q0 31 20.5 52z
" />
    <glyph glyph-name="uni1E25" unicode="&#x1e25;" horiz-adv-x="591" 
d="M428.5 495.5q41.5 -21.5 67 -64t25.5 -102.5v-329h-111v290q0 61 -28 91t-74 30q-54 0 -90.5 -40t-36.5 -110v-261h-111v700h111v-269q27 43 68 64.5t90 21.5q48 0 89.5 -21.5zM233 -90.5q22 22.5 55 22.5q34 0 56.5 -22.5t22.5 -56.5q0 -33 -22.5 -55.5t-56.5 -22.5
q-33 0 -55 22.5t-22 55.5q0 34 22 56.5z" />
    <glyph glyph-name="uni1E33" unicode="&#x1e33;" horiz-adv-x="589" 
d="M182 229l-1 -229h-111v700h111v-416l215 220h159l-250 -237l279 -267h-163zM237 -90.5q22 22.5 55 22.5q34 0 56.5 -22.5t22.5 -56.5q0 -33 -22.5 -55.5t-56.5 -22.5q-33 0 -55 22.5t-22 55.5q0 34 22 56.5z" />
    <glyph glyph-name="uni1E34" unicode="&#x1e34;" horiz-adv-x="665" 
d="M195 303v-303h-115v700h115v-297l284 297h148l-329 -340l347 -360h-158zM457 -81v-99h-297v99h297z" />
    <glyph glyph-name="uni1E35" unicode="&#x1e35;" horiz-adv-x="589" 
d="M182 229l-1 -229h-111v700h111v-416l215 220h159l-250 -237l279 -267h-163zM437 -81v-99h-297v99h297z" />
    <glyph glyph-name="uni1E37" unicode="&#x1e37;" horiz-adv-x="415" 
d="M237 -11q-67 0 -112 41.5t-45 126.5v543h111v-537q0 -40 17.5 -58.5t46.5 -18.5q22 0 44 9l36 -83q-48 -23 -98 -23zM143 -90.5q22 22.5 55 22.5q34 0 56.5 -22.5t22.5 -56.5q0 -33 -22.5 -55.5t-56.5 -22.5q-33 0 -55 22.5t-22 55.5q0 34 22 56.5z" />
    <glyph glyph-name="uni1E39" unicode="&#x1e39;" horiz-adv-x="325" 
d="M227 -11q-67 0 -112 41.5t-45 126.5v543h111v-537q0 -40 17.5 -58.5t46.5 -18.5q22 0 44 9l36 -83q-48 -23 -98 -23zM133 -90.5q22 22.5 55 22.5q34 0 56.5 -22.5t22.5 -56.5q0 -33 -22.5 -55.5t-56.5 -22.5q-33 0 -55 22.5t-22 55.5q0 34 22 56.5zM317 859v-99h-297v99
h297z" />
    <glyph glyph-name="uni1E40" unicode="&#x1e40;" horiz-adv-x="871" 
d="M791 0h-115v485l-188 -328h-105l-188 328v-485h-115v700h128l227 -396l228 396h128v-700zM384.5 883q20.5 21 50.5 21q31 0 52 -21t21 -52q0 -30 -21 -50.5t-52 -20.5q-30 0 -50.5 20.5t-20.5 50.5q0 31 20.5 52z" />
    <glyph glyph-name="uni1E41" unicode="&#x1e41;" horiz-adv-x="857" 
d="M700.5 496.5q39.5 -20.5 63 -61.5t23.5 -101v-334h-111v303q0 52 -23.5 80t-63.5 28q-45 0 -75 -33.5t-30 -95.5v-282h-110v303q0 52 -25 80t-64 28q-43 0 -73.5 -34t-30.5 -95v-282h-111v504h109v-67q23 39 60.5 59.5t81.5 20.5q43 0 81 -22t58 -65q24 43 66 65t89 22
q46 0 85.5 -20.5zM401.5 723q20.5 21 50.5 21q31 0 52 -21t21 -52q0 -30 -21 -50.5t-52 -20.5q-30 0 -50.5 20.5t-20.5 50.5q0 31 20.5 52z" />
    <glyph glyph-name="uni1E43" unicode="&#x1e43;" horiz-adv-x="857" 
d="M700.5 496.5q39.5 -20.5 63 -61.5t23.5 -101v-334h-111v303q0 52 -23.5 80t-63.5 28q-45 0 -75 -33.5t-30 -95.5v-282h-110v303q0 52 -25 80t-64 28q-43 0 -73.5 -34t-30.5 -95v-282h-111v504h109v-67q23 39 60.5 59.5t81.5 20.5q43 0 81 -22t58 -65q24 43 66 65t89 22
q46 0 85.5 -20.5zM373 -90.5q22 22.5 55 22.5q34 0 56.5 -22.5t22.5 -56.5q0 -33 -22.5 -55.5t-56.5 -22.5q-33 0 -55 22.5t-22 55.5q0 34 22 56.5z" />
    <glyph glyph-name="uni1E47" unicode="&#x1e47;" horiz-adv-x="591" 
d="M70 504h109v-72q26 43 68.5 64t91.5 21q48 0 89.5 -21.5t67 -64t25.5 -102.5v-329h-111v290q0 61 -28 91t-74 30q-54 0 -90.5 -40t-36.5 -110v-261h-111v504zM250 -90.5q22 22.5 55 22.5q34 0 56.5 -22.5t22.5 -56.5q0 -33 -22.5 -55.5t-56.5 -22.5q-33 0 -55 22.5
t-22 55.5q0 34 22 56.5z" />
    <glyph glyph-name="uni1E56" unicode="&#x1e56;" horiz-adv-x="569" 
d="M443 671q48 -29 72 -75.5t24 -98.5q0 -53 -25.5 -101t-74 -77.5t-115.5 -29.5h-129v-289h-115v700h249q66 0 114 -29zM311 393q52 0 82 31.5t30 73.5q0 40 -28.5 68.5t-81.5 28.5h-118v-202h116zM229.5 883q20.5 21 50.5 21q31 0 52 -21t21 -52q0 -30 -21 -50.5
t-52 -20.5q-30 0 -50.5 20.5t-20.5 50.5q0 31 20.5 52z" />
    <glyph glyph-name="uni1E57" unicode="&#x1e57;" horiz-adv-x="633" 
d="M464.5 483q56.5 -30 92.5 -89t36 -142q0 -82 -34.5 -141.5t-90.5 -90.5t-120 -31q-47 0 -91 18t-76 54v-282h-111v725h109v-69q27 37 71 57.5t96 20.5q62 0 118.5 -30zM407 108.5q34 18.5 55 55.5t21 89t-21 88.5t-55.5 54.5t-73.5 18t-74 -18.5t-56.5 -54.5t-21.5 -87
q0 -52 21.5 -89t57 -56t74.5 -19t73 18.5zM308.5 723q20.5 21 50.5 21q31 0 52 -21t21 -52q0 -30 -21 -50.5t-52 -20.5q-30 0 -50.5 20.5t-20.5 50.5q0 31 20.5 52z" />
    <glyph glyph-name="uni1E5B" unicode="&#x1e5b;" horiz-adv-x="383" 
d="M373 499l-25 -112q-30 13 -64 13q-46 0 -74.5 -29.5t-28.5 -91.5v-279h-111v504h109v-61q19 35 53.5 51.5t74.5 16.5q33 0 66 -12zM72 -90.5q22 22.5 55 22.5q34 0 56.5 -22.5t22.5 -56.5q0 -33 -22.5 -55.5t-56.5 -22.5q-33 0 -55 22.5t-22 55.5q0 34 22 56.5z" />
    <glyph glyph-name="uni1E5D" unicode="&#x1e5d;" horiz-adv-x="383" 
d="M373 499l-25 -112q-30 13 -64 13q-46 0 -74.5 -29.5t-28.5 -91.5v-279h-111v504h109v-61q19 35 53.5 51.5t74.5 16.5q33 0 66 -12zM72 -90.5q22 22.5 55 22.5q34 0 56.5 -22.5t22.5 -56.5q0 -33 -22.5 -55.5t-56.5 -22.5q-33 0 -55 22.5t-22 55.5q0 34 22 56.5zM359 699
v-99h-297v99h297z" />
    <glyph glyph-name="uni1E60" unicode="&#x1e60;" horiz-adv-x="589" 
d="M379.5 600.5q-40.5 16.5 -78.5 16.5q-48 0 -79.5 -26t-31.5 -73q0 -50 35 -76t104 -49q75 -25 115.5 -44t70 -57t29.5 -100q0 -67 -34 -114t-90 -70.5t-123 -23.5q-69 0 -135.5 26t-116.5 76l76 91q34 -42 82.5 -65t99.5 -23q53 0 88 23t35 67q0 30 -18 50.5t-45 33
t-77 30.5q-65 24 -106.5 45.5t-72 63.5t-30.5 109q0 68 33.5 114.5t86.5 68.5t112 22q57 0 109 -21.5t90 -58.5l-62 -80q-26 28 -66.5 44.5zM249.5 883q20.5 21 50.5 21q31 0 52 -21t21 -52q0 -30 -21 -50.5t-52 -20.5q-30 0 -50.5 20.5t-20.5 50.5q0 31 20.5 52z" />
    <glyph glyph-name="uni1E61" unicode="&#x1e61;" horiz-adv-x="507" 
d="M448 66.5q-29 -37.5 -77.5 -57.5t-106.5 -20q-67 0 -131 26t-103 74l82 77q32 -40 75 -59t87 -19q39 0 65 15t26 37q0 18 -15 28.5t-35 16.5t-67 16q-54 12 -92.5 27.5t-65.5 47.5t-27 85q0 77 57.5 116.5t143.5 39.5q52 0 100 -15t86 -43l-63 -82q-25 20 -57 31.5
t-66 11.5q-39 0 -64 -15t-25 -42q0 -30 29 -43.5t90 -24.5q57 -11 94 -24t63 -41t26 -76q0 -50 -29 -87.5zM208.5 723q20.5 21 50.5 21q31 0 52 -21t21 -52q0 -30 -21 -50.5t-52 -20.5q-30 0 -50.5 20.5t-20.5 50.5q0 31 20.5 52z" />
    <glyph glyph-name="uni1E63" unicode="&#x1e63;" horiz-adv-x="507" 
d="M448 66.5q-29 -37.5 -77.5 -57.5t-106.5 -20q-67 0 -131 26t-103 74l82 77q32 -40 75 -59t87 -19q39 0 65 15t26 37q0 18 -15 28.5t-35 16.5t-67 16q-54 12 -92.5 27.5t-65.5 47.5t-27 85q0 77 57.5 116.5t143.5 39.5q52 0 100 -15t86 -43l-63 -82q-25 20 -57 31.5
t-66 11.5q-39 0 -64 -15t-25 -42q0 -30 29 -43.5t90 -24.5q57 -11 94 -24t63 -41t26 -76q0 -50 -29 -87.5zM218 -90.5q22 22.5 55 22.5q34 0 56.5 -22.5t22.5 -56.5q0 -33 -22.5 -55.5t-56.5 -22.5q-33 0 -55 22.5t-22 55.5q0 34 22 56.5z" />
    <glyph glyph-name="uni1E6A" unicode="&#x1e6a;" horiz-adv-x="613" 
d="M364 0h-115v595h-229v105h573v-105h-229v-595zM255.5 883q20.5 21 50.5 21q31 0 52 -21t21 -52q0 -30 -21 -50.5t-52 -20.5q-30 0 -50.5 20.5t-20.5 50.5q0 31 20.5 52z" />
    <glyph glyph-name="uni1E6B" unicode="&#x1e6b;" horiz-adv-x="437" 
d="M295 -11q-70 0 -118 43t-48 125v245h-109v102h109v129h110v-129h141v-102h-141v-239q0 -40 19.5 -58.5t51.5 -18.5q29 0 67 19l40 -82q-57 -34 -122 -34zM129 823.5q22 22.5 55 22.5q34 0 56.5 -22.5t22.5 -56.5q0 -33 -22.5 -55.5t-56.5 -22.5q-33 0 -55 22.5t-22 55.5
q0 34 22 56.5z" />
    <glyph glyph-name="uni1E6D" unicode="&#x1e6d;" horiz-adv-x="437" 
d="M295 -11q-70 0 -118 43t-48 125v245h-109v102h109v129h110v-129h141v-102h-141v-239q0 -40 19.5 -58.5t51.5 -18.5q29 0 67 19l40 -82q-57 -34 -122 -34zM208 -90.5q22 22.5 55 22.5q34 0 56.5 -22.5t22.5 -56.5q0 -33 -22.5 -55.5t-56.5 -22.5q-33 0 -55 22.5t-22 55.5
q0 34 22 56.5z" />
    <glyph glyph-name="uni1E6F" unicode="&#x1e6f;" horiz-adv-x="437" 
d="M295 -11q-70 0 -118 43t-48 125v245h-109v102h109v129h110v-129h141v-102h-141v-239q0 -40 19.5 -58.5t51.5 -18.5q29 0 67 19l40 -82q-57 -34 -122 -34zM407 -81v-99h-297v99h297z" />
    <glyph glyph-name="Wgrave" unicode="&#x1e80;" horiz-adv-x="1024" 
d="M781 0h-110l-159 500l-160 -500h-109l-233 700h126l158 -504l158 504h119l159 -504l157 504h127zM592 759l-250 76l27 97l253 -77z" />
    <glyph glyph-name="wgrave" unicode="&#x1e81;" horiz-adv-x="886" 
d="M679 0h-109l-127 329l-128 -329h-109l-186 504h124l116 -348l126 348h113l128 -348l116 348h123zM504 599l-250 76l27 97l253 -77z" />
    <glyph glyph-name="Wacute" unicode="&#x1e82;" horiz-adv-x="1024" 
d="M781 0h-110l-159 500l-160 -500h-109l-233 700h126l158 -504l158 504h119l159 -504l157 504h127zM669 933l27 -97l-250 -76l-30 96z" />
    <glyph glyph-name="wacute" unicode="&#x1e83;" horiz-adv-x="886" 
d="M679 0h-109l-127 329l-128 -329h-109l-186 504h124l116 -348l126 348h113l128 -348l116 348h123zM596 762l27 -97l-250 -76l-30 96z" />
    <glyph glyph-name="Wdieresis" unicode="&#x1e84;" horiz-adv-x="1024" 
d="M781 0h-110l-159 500l-160 -500h-109l-233 700h126l158 -504l158 504h119l159 -504l157 504h127zM447 782q-21 -21 -52 -21q-30 0 -51 21t-21 51t21 51t51 21q31 0 52 -21t21 -51t-21 -51zM680.5 782q-21.5 -21 -52.5 -21q-30 0 -51 21t-21 51t21 51t51 21q31 0 52.5 -21
t21.5 -51t-21.5 -51z" />
    <glyph glyph-name="wdieresis" unicode="&#x1e85;" horiz-adv-x="886" 
d="M679 0h-109l-127 329l-128 -329h-109l-186 504h124l116 -348l126 348h113l128 -348l116 348h123zM378 623q-21 -21 -52 -21q-30 0 -51 21t-21 51t21 51t51 21q31 0 52 -21t21 -51t-21 -51zM611.5 623q-21.5 -21 -52.5 -21q-30 0 -51 21t-21 51t21 51t51 21q31 0 52.5 -21
t21.5 -51t-21.5 -51z" />
    <glyph glyph-name="uni1E8F" unicode="&#x1e8f;" horiz-adv-x="610" 
d="M540 14q0 -78 -35.5 -134.5t-93 -85t-122.5 -28.5q-56 0 -107.5 21t-89.5 63.5t-52 104.5l105 36q12 -57 54 -90t95 -33q58 0 97.5 38.5t39.5 107.5v81q-24 -41 -62 -65.5t-89 -24.5q-50 0 -96 23t-75 70.5t-29 115.5v290h111v-273q0 -56 29.5 -87.5t77.5 -31.5
q55 0 93 40t38 110v242h111v-490zM238.5 723q20.5 21 50.5 21q31 0 52 -21t21 -52q0 -30 -21 -50.5t-52 -20.5q-30 0 -50.5 20.5t-20.5 50.5q0 31 20.5 52z" />
    <glyph glyph-name="uni1EA0" unicode="&#x1ea0;" horiz-adv-x="699" 
d="M211 177l-65 -177h-126l274 700h113l272 -700h-126l-66 177h-276zM349 550l-99 -268h199zM294 -90.5q22 22.5 55 22.5q34 0 56.5 -22.5t22.5 -56.5q0 -33 -22.5 -55.5t-56.5 -22.5q-33 0 -55 22.5t-22 55.5q0 34 22 56.5z" />
    <glyph glyph-name="uni1EA1" unicode="&#x1ea1;" 
d="M249 -90.5q22 22.5 55 22.5q34 0 56.5 -22.5t22.5 -56.5q0 -33 -22.5 -55.5t-56.5 -22.5q-33 0 -55 22.5t-22 55.5q0 34 22 56.5zM630 -0.5q-24 -9.5 -50 -9.5q-40 0 -72.5 22.5t-42.5 64.5q-31 -43 -81 -65.5t-103 -22.5q-63 0 -118 31t-89 90.5t-34 141.5q0 85 36 145
t94 90t123 30q49 0 92.5 -18t67.5 -57v62h109v-368q0 -24 10.5 -35t26.5 -11q10 0 21 4t19 9l32 -74q-17 -20 -41 -29.5zM372.5 109q35.5 19 57 56t21.5 90t-21.5 89.5t-56 55t-74.5 18.5q-39 0 -73 -18.5t-55 -55.5t-21 -90t20.5 -90t54.5 -55.5t73 -18.5t74.5 19z" />
    <glyph glyph-name="uni1EA2" unicode="&#x1ea2;" horiz-adv-x="699" 
d="M344.5 838.5q11.5 10.5 12.5 28.5q0 17 -11 27t-28 10q-23 0 -49 -14l-29 65q51 23 92 23q49 0 77.5 -30t28.5 -71q0 -44 -31.5 -75t-76.5 -45l-24 58q27 13 38.5 23.5zM211 177l-65 -177h-126l274 700h113l272 -700h-126l-66 177h-276zM349 550l-99 -268h199z" />
    <glyph glyph-name="uni1EA3" unicode="&#x1ea3;" 
d="M312.5 654.5q11.5 10.5 12.5 28.5q0 17 -11 27t-28 10q-23 0 -49 -14l-29 65q51 23 92 23q49 0 77.5 -30t28.5 -71q0 -44 -31.5 -75t-76.5 -45l-24 58q27 13 38.5 23.5zM630 -0.5q-24 -9.5 -50 -9.5q-40 0 -72.5 22.5t-42.5 64.5q-31 -43 -81 -65.5t-103 -22.5
q-63 0 -118 31t-89 90.5t-34 141.5q0 85 36 145t94 90t123 30q49 0 92.5 -18t67.5 -57v62h109v-368q0 -24 10.5 -35t26.5 -11q10 0 21 4t19 9l32 -74q-17 -20 -41 -29.5zM372.5 109q35.5 19 57 56t21.5 90t-21.5 89.5t-56 55t-74.5 18.5q-39 0 -73 -18.5t-55 -55.5t-21 -90
t20.5 -90t54.5 -55.5t73 -18.5t74.5 19z" />
    <glyph glyph-name="uni1EA4" unicode="&#x1ea4;" horiz-adv-x="699" 
d="M211 177l-65 -177h-126l274 700h113l272 -700h-126l-66 177h-276zM349 550l-99 -268h199zM477 740l-127 83l-128 -83l-55 70l182 125l183 -125zM163 938l108 141l67 -51l-108 -140z" />
    <glyph glyph-name="uni1EA5" unicode="&#x1ea5;" 
d="M630 -0.5q-24 -9.5 -50 -9.5q-40 0 -72.5 22.5t-42.5 64.5q-31 -43 -81 -65.5t-103 -22.5q-63 0 -118 31t-89 90.5t-34 141.5q0 85 36 145t94 90t123 30q49 0 92.5 -18t67.5 -57v62h109v-368q0 -24 10.5 -35t26.5 -11q10 0 21 4t19 9l32 -74q-17 -20 -41 -29.5z
M372.5 109q35.5 19 57 56t21.5 90t-21.5 89.5t-56 55t-74.5 18.5q-39 0 -73 -18.5t-55 -55.5t-21 -90t20.5 -90t54.5 -55.5t73 -18.5t74.5 19zM432 551l-127 83l-128 -83l-55 70l182 125l183 -125zM117 749l108 141l67 -51l-108 -140z" />
    <glyph glyph-name="uni1EA6" unicode="&#x1ea6;" horiz-adv-x="699" 
d="M361 1028l67 51l108 -141l-67 -50zM211 177l-65 -177h-126l274 700h113l272 -700h-126l-66 177h-276zM349 550l-99 -268h199zM477 740l-127 83l-128 -83l-55 70l182 125l183 -125z" />
    <glyph glyph-name="uni1EA7" unicode="&#x1ea7;" 
d="M630 -0.5q-24 -9.5 -50 -9.5q-40 0 -72.5 22.5t-42.5 64.5q-31 -43 -81 -65.5t-103 -22.5q-63 0 -118 31t-89 90.5t-34 141.5q0 85 36 145t94 90t123 30q49 0 92.5 -18t67.5 -57v62h109v-368q0 -24 10.5 -35t26.5 -11q10 0 21 4t19 9l32 -74q-17 -20 -41 -29.5z
M372.5 109q35.5 19 57 56t21.5 90t-21.5 89.5t-56 55t-74.5 18.5q-39 0 -73 -18.5t-55 -55.5t-21 -90t20.5 -90t54.5 -55.5t73 -18.5t74.5 19zM433 551l-127 83l-128 -83l-55 70l182 125l183 -125zM316 839l67 51l108 -141l-67 -50z" />
    <glyph glyph-name="uni1EA8" unicode="&#x1ea8;" horiz-adv-x="699" 
d="M211 177l-65 -177h-126l274 700h113l272 -700h-126l-66 177h-276zM349 550l-99 -268h199zM477 740l-127 83l-128 -83l-55 70l182 125l183 -125zM469.5 956q10.5 9 11.5 25q0 15 -9.5 23.5t-24.5 8.5q-21 0 -43 -12l-25 57q45 20 80 20q43 0 67.5 -26.5t24.5 -61.5
q0 -38 -27.5 -65t-66.5 -40l-21 51q23 11 33.5 20z" />
    <glyph glyph-name="uni1EA9" unicode="&#x1ea9;" 
d="M630 -0.5q-24 -9.5 -50 -9.5q-40 0 -72.5 22.5t-42.5 64.5q-31 -43 -81 -65.5t-103 -22.5q-63 0 -118 31t-89 90.5t-34 141.5q0 85 36 145t94 90t123 30q49 0 92.5 -18t67.5 -57v62h109v-368q0 -24 10.5 -35t26.5 -11q10 0 21 4t19 9l32 -74q-17 -20 -41 -29.5z
M372.5 109q35.5 19 57 56t21.5 90t-21.5 89.5t-56 55t-74.5 18.5q-39 0 -73 -18.5t-55 -55.5t-21 -90t20.5 -90t54.5 -55.5t73 -18.5t74.5 19zM432 551l-127 83l-128 -83l-55 70l182 125l183 -125zM424.5 767q10.5 9 11.5 25q0 15 -9.5 23.5t-24.5 8.5q-21 0 -43 -12l-25 57
q45 20 80 20q43 0 67.5 -26.5t24.5 -61.5q0 -38 -27.5 -65t-66.5 -40l-21 51q23 11 33.5 20z" />
    <glyph glyph-name="uni1EAA" unicode="&#x1eaa;" horiz-adv-x="699" 
d="M211 177l-65 -177h-126l274 700h113l272 -700h-126l-66 177h-276zM349 550l-99 -268h199zM477 740l-127 83l-128 -83l-55 70l182 125l183 -125zM383.5 953.5q-13.5 5.5 -30.5 15.5q-9 5 -18.5 9.5t-16.5 4.5q-12 0 -21.5 -9t-28.5 -32l-54 45q23 33 46 53.5t56 20.5
q14 0 27.5 -4.5t24 -10t13.5 -6.5q24 -13 33 -13q11 0 22 12.5t18 26.5l57 -32q-22 -38 -45 -62t-54 -24q-15 0 -28.5 5.5z" />
    <glyph glyph-name="uni1EAB" unicode="&#x1eab;" 
d="M630 -0.5q-24 -9.5 -50 -9.5q-40 0 -72.5 22.5t-42.5 64.5q-31 -43 -81 -65.5t-103 -22.5q-63 0 -118 31t-89 90.5t-34 141.5q0 85 36 145t94 90t123 30q49 0 92.5 -18t67.5 -57v62h109v-368q0 -24 10.5 -35t26.5 -11q10 0 21 4t19 9l32 -74q-17 -20 -41 -29.5z
M372.5 109q35.5 19 57 56t21.5 90t-21.5 89.5t-56 55t-74.5 18.5q-39 0 -73 -18.5t-55 -55.5t-21 -90t20.5 -90t54.5 -55.5t73 -18.5t74.5 19zM432 551l-127 83l-128 -83l-55 70l182 125l183 -125zM328.5 784.5q-13.5 5.5 -30.5 15.5q-9 5 -18.5 9.5t-16.5 4.5
q-12 0 -21.5 -9t-28.5 -32l-54 45q23 33 46 53.5t56 20.5q14 0 27.5 -4.5t24 -10t13.5 -6.5q24 -13 33 -13q11 0 22 12.5t18 26.5l57 -32q-22 -38 -45 -62t-54 -24q-15 0 -28.5 5.5z" />
    <glyph glyph-name="uni1EAC" unicode="&#x1eac;" horiz-adv-x="699" 
d="M477 750l-127 83l-128 -83l-55 70l182 125l183 -125zM211 177l-65 -177h-126l274 700h113l272 -700h-126l-66 177h-276zM349 550l-99 -268h199zM294 -90.5q22 22.5 55 22.5q34 0 56.5 -22.5t22.5 -56.5q0 -33 -22.5 -55.5t-56.5 -22.5q-33 0 -55 22.5t-22 55.5
q0 34 22 56.5z" />
    <glyph glyph-name="uni1EAD" unicode="&#x1ead;" 
d="M249 -90.5q22 22.5 55 22.5q34 0 56.5 -22.5t22.5 -56.5q0 -33 -22.5 -55.5t-56.5 -22.5q-33 0 -55 22.5t-22 55.5q0 34 22 56.5zM630 -0.5q-24 -9.5 -50 -9.5q-40 0 -72.5 22.5t-42.5 64.5q-31 -43 -81 -65.5t-103 -22.5q-63 0 -118 31t-89 90.5t-34 141.5q0 85 36 145
t94 90t123 30q49 0 92.5 -18t67.5 -57v62h109v-368q0 -24 10.5 -35t26.5 -11q10 0 21 4t19 9l32 -74q-17 -20 -41 -29.5zM372.5 109q35.5 19 57 56t21.5 90t-21.5 89.5t-56 55t-74.5 18.5q-39 0 -73 -18.5t-55 -55.5t-21 -90t20.5 -90t54.5 -55.5t73 -18.5t74.5 19zM431 591
l-127 83l-128 -83l-55 70l182 125l183 -125z" />
    <glyph glyph-name="uni1EAE" unicode="&#x1eae;" horiz-adv-x="699" 
d="M300 987l164 68l33 -78l-164 -67zM497 896q0 -63 -35.5 -106t-109.5 -43t-109.5 43t-35.5 106h83q0 -68 60 -68q64 0 64 68h83zM211 177l-65 -177h-126l274 700h113l272 -700h-126l-66 177h-276zM349 550l-99 -268h199z" />
    <glyph glyph-name="uni1EAF" unicode="&#x1eaf;" 
d="M259 820l164 68l33 -78l-164 -67zM456 729q0 -63 -35.5 -106t-109.5 -43t-109.5 43t-35.5 106h83q0 -67 62 -68q62 1 62 68h83zM630 -0.5q-24 -9.5 -50 -9.5q-40 0 -72.5 22.5t-42.5 64.5q-31 -43 -81 -65.5t-103 -22.5q-63 0 -118 31t-89 90.5t-34 141.5q0 85 36 145
t94 90t123 30q49 0 92.5 -18t67.5 -57v62h109v-368q0 -24 10.5 -35t26.5 -11q10 0 21 4t19 9l32 -74q-17 -20 -41 -29.5zM372.5 109q35.5 19 57 56t21.5 90t-21.5 89.5t-56 55t-74.5 18.5q-39 0 -73 -18.5t-55 -55.5t-21 -90t20.5 -90t54.5 -55.5t73 -18.5t74.5 19z" />
    <glyph glyph-name="uni1EB0" unicode="&#x1eb0;" horiz-adv-x="699" 
d="M205 977l33 78l164 -69l-33 -76zM495 896q0 -63 -35.5 -106t-109.5 -43t-109.5 43t-35.5 106h83q0 -68 60 -68q64 0 64 68h83zM211 177l-65 -177h-126l274 700h113l272 -700h-126l-66 177h-276zM349 550l-99 -268h199z" />
    <glyph glyph-name="uni1EB1" unicode="&#x1eb1;" 
d="M166 810l33 78l164 -69l-33 -76zM456 729q0 -63 -35.5 -106t-109.5 -43t-109.5 43t-35.5 106h83q0 -67 62 -68q62 1 62 68h83zM630 -0.5q-24 -9.5 -50 -9.5q-40 0 -72.5 22.5t-42.5 64.5q-31 -43 -81 -65.5t-103 -22.5q-63 0 -118 31t-89 90.5t-34 141.5q0 85 36 145
t94 90t123 30q49 0 92.5 -18t67.5 -57v62h109v-368q0 -24 10.5 -35t26.5 -11q10 0 21 4t19 9l32 -74q-17 -20 -41 -29.5zM372.5 109q35.5 19 57 56t21.5 90t-21.5 89.5t-56 55t-74.5 18.5q-39 0 -73 -18.5t-55 -55.5t-21 -90t20.5 -90t54.5 -55.5t73 -18.5t74.5 19z" />
    <glyph glyph-name="uni1EB2" unicode="&#x1eb2;" horiz-adv-x="699" 
d="M211 177l-65 -177h-126l274 700h113l272 -700h-126l-66 177h-276zM349 550l-99 -268h199zM495 896q0 -63 -35.5 -106t-109.5 -43t-109.5 43t-35.5 106h83q0 -68 60 -68q64 0 64 68h83zM352.5 971q10.5 9 11.5 25q0 15 -9.5 23.5t-24.5 8.5q-21 0 -43 -12l-25 57
q45 20 80 20q43 0 67.5 -26.5t24.5 -61.5q0 -38 -27.5 -65t-66.5 -40l-21 51q23 11 33.5 20z" />
    <glyph glyph-name="uni1EB3" unicode="&#x1eb3;" 
d="M630 -0.5q-24 -9.5 -50 -9.5q-40 0 -72.5 22.5t-42.5 64.5q-31 -43 -81 -65.5t-103 -22.5q-63 0 -118 31t-89 90.5t-34 141.5q0 85 36 145t94 90t123 30q49 0 92.5 -18t67.5 -57v62h109v-368q0 -24 10.5 -35t26.5 -11q10 0 21 4t19 9l32 -74q-17 -20 -41 -29.5z
M372.5 109q35.5 19 57 56t21.5 90t-21.5 89.5t-56 55t-74.5 18.5q-39 0 -73 -18.5t-55 -55.5t-21 -90t20.5 -90t54.5 -55.5t73 -18.5t74.5 19zM461 729q0 -63 -35.5 -106t-109.5 -43t-109.5 43t-35.5 106h83q0 -67 62 -68q62 1 62 68h83zM311.5 816q10.5 9 11.5 25
q0 15 -9.5 23.5t-24.5 8.5q-21 0 -43 -12l-25 57q45 20 80 20q43 0 67.5 -26.5t24.5 -61.5q0 -38 -27.5 -65t-66.5 -40l-21 51q23 11 33.5 20z" />
    <glyph glyph-name="uni1EB4" unicode="&#x1eb4;" horiz-adv-x="699" 
d="M211 177l-65 -177h-126l274 700h113l272 -700h-126l-66 177h-276zM349 550l-99 -268h199zM495 896q0 -63 -35.5 -106t-109.5 -43t-109.5 43t-35.5 106h83q0 -68 60 -68q64 0 64 68h83zM372.5 943.5q-13.5 5.5 -30.5 15.5q-9 5 -18.5 9.5t-16.5 4.5q-12 0 -21.5 -9
t-28.5 -32l-54 45q23 33 46 53.5t56 20.5q14 0 27.5 -4.5t24 -10t13.5 -6.5q24 -13 33 -13q11 0 22 12.5t18 26.5l57 -32q-22 -38 -45 -62t-54 -24q-15 0 -28.5 5.5z" />
    <glyph glyph-name="uni1EB5" unicode="&#x1eb5;" 
d="M339.5 783.5q-13.5 5.5 -30.5 15.5q-9 5 -18.5 9.5t-16.5 4.5q-12 0 -21.5 -9t-28.5 -32l-54 45q23 33 46 53.5t56 20.5q14 0 27.5 -4.5t24 -10t13.5 -6.5q24 -13 33 -13q11 0 22 12.5t18 26.5l57 -32q-22 -38 -45 -62t-54 -24q-15 0 -28.5 5.5zM630 -0.5
q-24 -9.5 -50 -9.5q-40 0 -72.5 22.5t-42.5 64.5q-31 -43 -81 -65.5t-103 -22.5q-63 0 -118 31t-89 90.5t-34 141.5q0 85 36 145t94 90t123 30q49 0 92.5 -18t67.5 -57v62h109v-368q0 -24 10.5 -35t26.5 -11q10 0 21 4t19 9l32 -74q-17 -20 -41 -29.5zM372.5 109
q35.5 19 57 56t21.5 90t-21.5 89.5t-56 55t-74.5 18.5q-39 0 -73 -18.5t-55 -55.5t-21 -90t20.5 -90t54.5 -55.5t73 -18.5t74.5 19zM461 729q0 -63 -35.5 -106t-109.5 -43t-109.5 43t-35.5 106h83q0 -67 62 -68q62 1 62 68h83z" />
    <glyph glyph-name="uni1EB6" unicode="&#x1eb6;" horiz-adv-x="699" 
d="M211 177l-65 -177h-126l274 700h113l272 -700h-126l-66 177h-276zM349 550l-99 -268h199zM495 906q0 -63 -35.5 -106t-109.5 -43t-109.5 43t-35.5 106h83q0 -68 60 -68q64 0 64 68h83zM294 -90.5q22 22.5 55 22.5q34 0 56.5 -22.5t22.5 -56.5q0 -33 -22.5 -55.5
t-56.5 -22.5q-33 0 -55 22.5t-22 55.5q0 34 22 56.5z" />
    <glyph glyph-name="uni1EB7" unicode="&#x1eb7;" 
d="M255 -90.5q22 22.5 55 22.5q34 0 56.5 -22.5t22.5 -56.5q0 -33 -22.5 -55.5t-56.5 -22.5q-33 0 -55 22.5t-22 55.5q0 34 22 56.5zM630 -0.5q-24 -9.5 -50 -9.5q-40 0 -72.5 22.5t-42.5 64.5q-31 -43 -81 -65.5t-103 -22.5q-63 0 -118 31t-89 90.5t-34 141.5q0 85 36 145
t94 90t123 30q49 0 92.5 -18t67.5 -57v62h109v-368q0 -24 10.5 -35t26.5 -11q10 0 21 4t19 9l32 -74q-17 -20 -41 -29.5zM372.5 109q35.5 19 57 56t21.5 90t-21.5 89.5t-56 55t-74.5 18.5q-39 0 -73 -18.5t-55 -55.5t-21 -90t20.5 -90t54.5 -55.5t73 -18.5t74.5 19zM456 749
q0 -63 -35.5 -106t-109.5 -43t-109.5 43t-35.5 106h83q0 -67 62 -68q62 1 62 68h83z" />
    <glyph glyph-name="uni1EB8" unicode="&#x1eb8;" horiz-adv-x="560" 
d="M195 595v-193h237v-105h-237v-192h305v-105h-420v700h412v-105h-297zM234 -90.5q22 22.5 55 22.5q34 0 56.5 -22.5t22.5 -56.5q0 -33 -22.5 -55.5t-56.5 -22.5q-33 0 -55 22.5t-22 55.5q0 34 22 56.5z" />
    <glyph glyph-name="uni1EB9" unicode="&#x1eb9;" horiz-adv-x="567" 
d="M523 203h-363q12 -56 52.5 -83t93.5 -27q43 0 80 17.5t62 53.5l71 -69q-41 -52 -97 -79t-120 -27q-67 0 -127.5 31.5t-97.5 91.5t-37 143q0 82 36 141.5t95 90t126 30.5q63 0 115.5 -28t83.5 -84.5t31 -138.5q0 -37 -4 -63zM201.5 386q-38.5 -32 -44.5 -91h259
q-1 59 -37 91t-87 32q-52 0 -90.5 -32zM238 -90.5q22 22.5 55 22.5q34 0 56.5 -22.5t22.5 -56.5q0 -33 -22.5 -55.5t-56.5 -22.5q-33 0 -55 22.5t-22 55.5q0 34 22 56.5z" />
    <glyph glyph-name="uni1EBA" unicode="&#x1eba;" horiz-adv-x="560" 
d="M284.5 838.5q11.5 10.5 12.5 28.5q0 17 -11 27t-28 10q-23 0 -49 -14l-29 65q51 23 92 23q49 0 77.5 -30t28.5 -71q0 -44 -31.5 -75t-76.5 -45l-24 58q27 13 38.5 23.5zM195 595v-193h237v-105h-237v-192h305v-105h-420v700h412v-105h-297z" />
    <glyph glyph-name="uni1EBB" unicode="&#x1ebb;" horiz-adv-x="567" 
d="M282.5 654.5q11.5 10.5 12.5 28.5q0 17 -11 27t-28 10q-23 0 -49 -14l-29 65q51 23 92 23q49 0 77.5 -30t28.5 -71q0 -44 -31.5 -75t-76.5 -45l-24 58q27 13 38.5 23.5zM523 203h-363q12 -56 52.5 -83t93.5 -27q43 0 80 17.5t62 53.5l71 -69q-41 -52 -97 -79t-120 -27
q-67 0 -127.5 31.5t-97.5 91.5t-37 143q0 82 36 141.5t95 90t126 30.5q63 0 115.5 -28t83.5 -84.5t31 -138.5q0 -37 -4 -63zM201.5 386q-38.5 -32 -44.5 -91h259q-1 59 -37 91t-87 32q-52 0 -90.5 -32z" />
    <glyph glyph-name="uni1EBC" unicode="&#x1ebc;" horiz-adv-x="560" 
d="M195 595v-193h237v-105h-237v-192h305v-105h-420v700h412v-105h-297zM418.5 786.5q-25.5 -25.5 -57.5 -25.5q-17 0 -33.5 8t-36.5 22q-18 12 -29 17.5t-22 5.5q-15 0 -31 -13t-37 -37l-64 53q22 35 57 65.5t74 30.5q18 0 33.5 -7t38.5 -21q18 -11 28 -15.5t20 -4.5
q14 0 25.5 11t26.5 31l62 -49q-29 -46 -54.5 -71.5z" />
    <glyph glyph-name="uni1EBD" unicode="&#x1ebd;" horiz-adv-x="567" 
d="M523 203h-363q12 -56 52.5 -83t93.5 -27q43 0 80 17.5t62 53.5l71 -69q-41 -52 -97 -79t-120 -27q-67 0 -127.5 31.5t-97.5 91.5t-37 143q0 82 36 141.5t95 90t126 30.5q63 0 115.5 -28t83.5 -84.5t31 -138.5q0 -37 -4 -63zM201.5 386q-38.5 -32 -44.5 -91h259
q-1 59 -37 91t-87 32q-52 0 -90.5 -32zM434.5 625.5q-25.5 -25.5 -57.5 -25.5q-17 0 -33.5 8t-36.5 22q-18 12 -29 17.5t-22 5.5q-15 0 -31 -13t-37 -37l-64 53q22 35 57 65.5t74 30.5q18 0 33.5 -7t38.5 -21q18 -11 28 -15.5t20 -4.5q14 0 25.5 11t26.5 31l62 -49
q-29 -46 -54.5 -71.5z" />
    <glyph glyph-name="uni1EBE" unicode="&#x1ebe;" horiz-adv-x="560" 
d="M195 595v-193h237v-105h-237v-192h305v-105h-420v700h412v-105h-297zM420 740l-127 83l-128 -83l-55 70l182 125l183 -125zM106 938l108 141l67 -51l-108 -140z" />
    <glyph glyph-name="uni1EBF" unicode="&#x1ebf;" horiz-adv-x="567" 
d="M523 203h-363q12 -56 52.5 -83t93.5 -27q43 0 80 17.5t62 53.5l71 -69q-41 -52 -97 -79t-120 -27q-67 0 -127.5 31.5t-97.5 91.5t-37 143q0 82 36 141.5t95 90t126 30.5q63 0 115.5 -28t83.5 -84.5t31 -138.5q0 -37 -4 -63zM201.5 386q-38.5 -32 -44.5 -91h259
q-1 59 -37 91t-87 32q-52 0 -90.5 -32zM420 571l-127 83l-128 -83l-55 70l182 125l183 -125zM106 769l108 141l67 -51l-108 -140z" />
    <glyph glyph-name="uni1EC0" unicode="&#x1ec0;" horiz-adv-x="560" 
d="M195 595v-193h237v-105h-237v-192h305v-105h-420v700h412v-105h-297zM303 1028l67 51l108 -141l-67 -50zM419 740l-127 83l-128 -83l-55 70l182 125l183 -125z" />
    <glyph glyph-name="uni1EC1" unicode="&#x1ec1;" horiz-adv-x="567" 
d="M523 203h-363q12 -56 52.5 -83t93.5 -27q43 0 80 17.5t62 53.5l71 -69q-41 -52 -97 -79t-120 -27q-67 0 -127.5 31.5t-97.5 91.5t-37 143q0 82 36 141.5t95 90t126 30.5q63 0 115.5 -28t83.5 -84.5t31 -138.5q0 -37 -4 -63zM201.5 386q-38.5 -32 -44.5 -91h259
q-1 59 -37 91t-87 32q-52 0 -90.5 -32zM418 551l-127 83l-128 -83l-55 70l182 125l183 -125zM302 839l67 51l108 -141l-67 -50z" />
    <glyph glyph-name="uni1EC2" unicode="&#x1ec2;" horiz-adv-x="560" 
d="M195 595v-193h237v-105h-237v-192h305v-105h-420v700h412v-105h-297zM419 740l-127 83l-128 -83l-55 70l182 125l183 -125zM411.5 956q10.5 9 11.5 25q0 15 -9.5 23.5t-24.5 8.5q-21 0 -43 -12l-25 57q45 20 80 20q43 0 67.5 -26.5t24.5 -61.5q0 -38 -27.5 -65t-66.5 -40
l-21 51q23 11 33.5 20z" />
    <glyph glyph-name="uni1EC3" unicode="&#x1ec3;" horiz-adv-x="567" 
d="M523 203h-363q12 -56 52.5 -83t93.5 -27q43 0 80 17.5t62 53.5l71 -69q-41 -52 -97 -79t-120 -27q-67 0 -127.5 31.5t-97.5 91.5t-37 143q0 82 36 141.5t95 90t126 30.5q63 0 115.5 -28t83.5 -84.5t31 -138.5q0 -37 -4 -63zM201.5 386q-38.5 -32 -44.5 -91h259
q-1 59 -37 91t-87 32q-52 0 -90.5 -32zM418 551l-127 83l-128 -83l-55 70l182 125l183 -125zM410.5 767q10.5 9 11.5 25q0 15 -9.5 23.5t-24.5 8.5q-21 0 -43 -12l-25 57q45 20 80 20q43 0 67.5 -26.5t24.5 -61.5q0 -38 -27.5 -65t-66.5 -40l-21 51q23 11 33.5 20z" />
    <glyph glyph-name="uni1EC4" unicode="&#x1ec4;" horiz-adv-x="560" 
d="M195 595v-193h237v-105h-237v-192h305v-105h-420v700h412v-105h-297zM419 740l-127 83l-128 -83l-55 70l182 125l183 -125zM325.5 953.5q-13.5 5.5 -30.5 15.5q-9 5 -18.5 9.5t-16.5 4.5q-12 0 -21.5 -9t-28.5 -32l-54 45q23 33 46 53.5t56 20.5q14 0 27.5 -4.5t24 -10
t13.5 -6.5q24 -13 33 -13q11 0 22 12.5t18 26.5l57 -32q-22 -38 -45 -62t-54 -24q-15 0 -28.5 5.5z" />
    <glyph glyph-name="uni1EC5" unicode="&#x1ec5;" horiz-adv-x="567" 
d="M523 203h-363q12 -56 52.5 -83t93.5 -27q43 0 80 17.5t62 53.5l71 -69q-41 -52 -97 -79t-120 -27q-67 0 -127.5 31.5t-97.5 91.5t-37 143q0 82 36 141.5t95 90t126 30.5q63 0 115.5 -28t83.5 -84.5t31 -138.5q0 -37 -4 -63zM201.5 386q-38.5 -32 -44.5 -91h259
q-1 59 -37 91t-87 32q-52 0 -90.5 -32zM419 551l-127 83l-128 -83l-55 70l182 125l183 -125zM315.5 784.5q-13.5 5.5 -30.5 15.5q-9 5 -18.5 9.5t-16.5 4.5q-12 0 -21.5 -9t-28.5 -32l-54 45q23 33 46 53.5t56 20.5q14 0 27.5 -4.5t24 -10t13.5 -6.5q24 -13 33 -13
q11 0 22 12.5t18 26.5l57 -32q-22 -38 -45 -62t-54 -24q-15 0 -28.5 5.5z" />
    <glyph glyph-name="uni1EC6" unicode="&#x1ec6;" horiz-adv-x="560" 
d="M236 -90.5q22 22.5 55 22.5q34 0 56.5 -22.5t22.5 -56.5q0 -33 -22.5 -55.5t-56.5 -22.5q-33 0 -55 22.5t-22 55.5q0 34 22 56.5zM195 595v-193h237v-105h-237v-192h305v-105h-420v700h412v-105h-297zM419 750l-127 83l-128 -83l-55 70l182 125l183 -125z" />
    <glyph glyph-name="uni1EC7" unicode="&#x1ec7;" horiz-adv-x="567" 
d="M247 -90.5q22 22.5 55 22.5q34 0 56.5 -22.5t22.5 -56.5q0 -33 -22.5 -55.5t-56.5 -22.5q-33 0 -55 22.5t-22 55.5q0 34 22 56.5zM523 203h-363q12 -56 52.5 -83t93.5 -27q43 0 80 17.5t62 53.5l71 -69q-41 -52 -97 -79t-120 -27q-67 0 -127.5 31.5t-97.5 91.5t-37 143
q0 82 36 141.5t95 90t126 30.5q63 0 115.5 -28t83.5 -84.5t31 -138.5q0 -37 -4 -63zM201.5 386q-38.5 -32 -44.5 -91h259q-1 59 -37 91t-87 32q-52 0 -90.5 -32zM430 591l-127 83l-128 -83l-55 70l182 125l183 -125z" />
    <glyph glyph-name="uni1EC8" unicode="&#x1ec8;" horiz-adv-x="275" 
d="M124 838.5q12 10.5 13 28.5q0 17 -11 27t-28 10q-23 0 -49 -14l-29 65q51 23 92 23q49 0 77.5 -30t28.5 -71q0 -44 -31.5 -75t-76.5 -45l-24 58q26 13 38 23.5zM80 700h115v-700h-115v700z" />
    <glyph glyph-name="uni1EC9" unicode="&#x1ec9;" horiz-adv-x="279" 
d="M122 654.5q12 10.5 13 28.5q0 17 -11 27t-28 10q-23 0 -49 -14l-29 65q51 23 92 23q49 0 77.5 -30t28.5 -71q0 -44 -31.5 -75t-76.5 -45l-24 58q26 13 38 23.5zM84 504h111v-504h-111v504z" />
    <glyph glyph-name="uni1ECA" unicode="&#x1eca;" horiz-adv-x="275" 
d="M79 700h115v-700h-115v700zM81 -90.5q22 22.5 55 22.5q34 0 56.5 -22.5t22.5 -56.5q0 -33 -22.5 -55.5t-56.5 -22.5q-33 0 -55 22.5t-22 55.5q0 34 22 56.5z" />
    <glyph glyph-name="uni1ECB" unicode="&#x1ecb;" horiz-adv-x="278" 
d="M83 504h111v-504h-111v504zM87.5 714q20.5 21 50.5 21q31 0 52 -21t21 -52q0 -30 -21 -50.5t-52 -20.5q-30 0 -50.5 20.5t-20.5 50.5q0 31 20.5 52zM83 -90.5q22 22.5 55 22.5q34 0 56.5 -22.5t22.5 -56.5q0 -33 -22.5 -55.5t-56.5 -22.5q-33 0 -55 22.5t-22 55.5
q0 34 22 56.5z" />
    <glyph glyph-name="uni1ECC" unicode="&#x1ecc;" horiz-adv-x="824" 
d="M596 668q83 -48 130.5 -132t47.5 -186t-47.5 -186t-130.5 -132t-184 -48t-184 48t-130.5 132t-47.5 186t47.5 186t130.5 132t184 48t184 -48zM288.5 573q-56.5 -33 -89 -91.5t-32.5 -131.5t32.5 -131.5t89 -91.5t123.5 -33t123 33t89 92t33 131t-33 131t-89 92t-123 33
t-123.5 -33zM356 -90.5q22 22.5 55 22.5q34 0 56.5 -22.5t22.5 -56.5q0 -33 -22.5 -55.5t-56.5 -22.5q-33 0 -55 22.5t-22 55.5q0 34 22 56.5z" />
    <glyph glyph-name="uni1ECD" unicode="&#x1ecd;" horiz-adv-x="607" 
d="M439 482.5q60 -34.5 94 -95t34 -134.5t-34 -134.5t-94 -95t-136 -34.5q-75 0 -135 34.5t-94 95t-34 134.5t34 134.5t94 95t135 34.5q76 0 136 -34.5zM192.5 369.5q-43.5 -45.5 -43.5 -115.5t43.5 -115.5t110.5 -45.5q68 0 111.5 45.5t43.5 115.5t-43.5 115.5t-111.5 45.5
q-67 0 -110.5 -45.5zM248 -90.5q22 22.5 55 22.5q34 0 56.5 -22.5t22.5 -56.5q0 -33 -22.5 -55.5t-56.5 -22.5q-33 0 -55 22.5t-22 55.5q0 34 22 56.5z" />
    <glyph glyph-name="uni1ECE" unicode="&#x1ece;" horiz-adv-x="824" 
d="M423 838.5q12 10.5 13 28.5q0 17 -11 27t-28 10q-23 0 -49 -14l-29 65q51 23 92 23q49 0 77.5 -30t28.5 -71q0 -44 -31.5 -75t-76.5 -45l-24 58q26 13 38 23.5zM596 668q83 -48 130.5 -132t47.5 -186t-47.5 -186t-130.5 -132t-184 -48t-184 48t-130.5 132t-47.5 186
t47.5 186t130.5 132t184 48t184 -48zM288.5 573q-56.5 -33 -89 -91.5t-32.5 -131.5t32.5 -131.5t89 -91.5t123.5 -33t123 33t89 92t33 131t-33 131t-89 92t-123 33t-123.5 -33z" />
    <glyph glyph-name="uni1ECF" unicode="&#x1ecf;" horiz-adv-x="607" 
d="M309.5 654.5q11.5 10.5 12.5 28.5q0 17 -11 27t-28 10q-23 0 -49 -14l-29 65q51 23 92 23q49 0 77.5 -30t28.5 -71q0 -44 -31.5 -75t-76.5 -45l-24 58q27 13 38.5 23.5zM439 482.5q60 -34.5 94 -95t34 -134.5t-34 -134.5t-94 -95t-136 -34.5q-75 0 -135 34.5t-94 95
t-34 134.5t34 134.5t94 95t135 34.5q76 0 136 -34.5zM192.5 369.5q-43.5 -45.5 -43.5 -115.5t43.5 -115.5t110.5 -45.5q68 0 111.5 45.5t43.5 115.5t-43.5 115.5t-111.5 45.5q-67 0 -110.5 -45.5z" />
    <glyph glyph-name="uni1ED0" unicode="&#x1ed0;" horiz-adv-x="824" 
d="M596 668q83 -48 130.5 -132t47.5 -186t-47.5 -186t-130.5 -132t-184 -48t-184 48t-130.5 132t-47.5 186t47.5 186t130.5 132t184 48t184 -48zM288.5 573q-56.5 -33 -89 -91.5t-32.5 -131.5t32.5 -131.5t89 -91.5t123.5 -33t123 33t89 92t33 131t-33 131t-89 92t-123 33
t-123.5 -33zM540 740l-127 83l-128 -83l-55 70l182 125l183 -125zM226 938l108 141l67 -51l-108 -140z" />
    <glyph glyph-name="uni1ED1" unicode="&#x1ed1;" horiz-adv-x="607" 
d="M439 482.5q60 -34.5 94 -95t34 -134.5t-34 -134.5t-94 -95t-136 -34.5q-75 0 -135 34.5t-94 95t-34 134.5t34 134.5t94 95t135 34.5q76 0 136 -34.5zM192.5 369.5q-43.5 -45.5 -43.5 -115.5t43.5 -115.5t110.5 -45.5q68 0 111.5 45.5t43.5 115.5t-43.5 115.5t-111.5 45.5
q-67 0 -110.5 -45.5zM431 551l-127 83l-128 -83l-55 70l182 125l183 -125zM117 749l108 141l67 -51l-108 -140z" />
    <glyph glyph-name="uni1ED2" unicode="&#x1ed2;" horiz-adv-x="824" 
d="M596 668q83 -48 130.5 -132t47.5 -186t-47.5 -186t-130.5 -132t-184 -48t-184 48t-130.5 132t-47.5 186t47.5 186t130.5 132t184 48t184 -48zM288.5 573q-56.5 -33 -89 -91.5t-32.5 -131.5t32.5 -131.5t89 -91.5t123.5 -33t123 33t89 92t33 131t-33 131t-89 92t-123 33
t-123.5 -33zM540 740l-127 83l-128 -83l-55 70l182 125l183 -125zM424 1028l67 51l108 -141l-67 -50z" />
    <glyph glyph-name="uni1ED3" unicode="&#x1ed3;" horiz-adv-x="607" 
d="M439 482.5q60 -34.5 94 -95t34 -134.5t-34 -134.5t-94 -95t-136 -34.5q-75 0 -135 34.5t-94 95t-34 134.5t34 134.5t94 95t135 34.5q76 0 136 -34.5zM192.5 369.5q-43.5 -45.5 -43.5 -115.5t43.5 -115.5t110.5 -45.5q68 0 111.5 45.5t43.5 115.5t-43.5 115.5t-111.5 45.5
q-67 0 -110.5 -45.5zM431 551l-127 83l-128 -83l-55 70l182 125l183 -125zM314 839l67 51l108 -141l-67 -50z" />
    <glyph glyph-name="uni1ED4" unicode="&#x1ed4;" horiz-adv-x="824" 
d="M596 668q83 -48 130.5 -132t47.5 -186t-47.5 -186t-130.5 -132t-184 -48t-184 48t-130.5 132t-47.5 186t47.5 186t130.5 132t184 48t184 -48zM288.5 573q-56.5 -33 -89 -91.5t-32.5 -131.5t32.5 -131.5t89 -91.5t123.5 -33t123 33t89 92t33 131t-33 131t-89 92t-123 33
t-123.5 -33zM540 740l-127 83l-128 -83l-55 70l182 125l183 -125zM532.5 956q10.5 9 11.5 25q0 15 -9.5 23.5t-24.5 8.5q-21 0 -43 -12l-25 57q45 20 80 20q43 0 67.5 -26.5t24.5 -61.5q0 -38 -27.5 -65t-66.5 -40l-21 51q23 11 33.5 20z" />
    <glyph glyph-name="uni1ED5" unicode="&#x1ed5;" horiz-adv-x="607" 
d="M439 482.5q60 -34.5 94 -95t34 -134.5t-34 -134.5t-94 -95t-136 -34.5q-75 0 -135 34.5t-94 95t-34 134.5t34 134.5t94 95t135 34.5q76 0 136 -34.5zM192.5 369.5q-43.5 -45.5 -43.5 -115.5t43.5 -115.5t110.5 -45.5q68 0 111.5 45.5t43.5 115.5t-43.5 115.5t-111.5 45.5
q-67 0 -110.5 -45.5zM431 551l-127 83l-128 -83l-55 70l182 125l183 -125zM424.5 767q10.5 9 11.5 25q0 15 -9.5 23.5t-24.5 8.5q-21 0 -43 -12l-25 57q45 20 80 20q43 0 67.5 -26.5t24.5 -61.5q0 -38 -27.5 -65t-66.5 -40l-21 51q23 11 33.5 20z" />
    <glyph glyph-name="uni1ED6" unicode="&#x1ed6;" horiz-adv-x="824" 
d="M596 668q83 -48 130.5 -132t47.5 -186t-47.5 -186t-130.5 -132t-184 -48t-184 48t-130.5 132t-47.5 186t47.5 186t130.5 132t184 48t184 -48zM288.5 573q-56.5 -33 -89 -91.5t-32.5 -131.5t32.5 -131.5t89 -91.5t123.5 -33t123 33t89 92t33 131t-33 131t-89 92t-123 33
t-123.5 -33zM540 740l-127 83l-128 -83l-55 70l182 125l183 -125zM446.5 953.5q-13.5 5.5 -30.5 15.5q-9 5 -18.5 9.5t-16.5 4.5q-12 0 -21.5 -9t-28.5 -32l-54 45q23 33 46 53.5t56 20.5q14 0 27.5 -4.5t24 -10t13.5 -6.5q24 -13 33 -13q11 0 22 12.5t18 26.5l57 -32
q-22 -38 -45 -62t-54 -24q-15 0 -28.5 5.5z" />
    <glyph glyph-name="uni1ED7" unicode="&#x1ed7;" horiz-adv-x="607" 
d="M439 482.5q60 -34.5 94 -95t34 -134.5t-34 -134.5t-94 -95t-136 -34.5q-75 0 -135 34.5t-94 95t-34 134.5t34 134.5t94 95t135 34.5q76 0 136 -34.5zM192.5 369.5q-43.5 -45.5 -43.5 -115.5t43.5 -115.5t110.5 -45.5q68 0 111.5 45.5t43.5 115.5t-43.5 115.5t-111.5 45.5
q-67 0 -110.5 -45.5zM431 551l-127 83l-128 -83l-55 70l182 125l183 -125zM328.5 784.5q-13.5 5.5 -30.5 15.5q-9 5 -18.5 9.5t-16.5 4.5q-12 0 -21.5 -9t-28.5 -32l-54 45q23 33 46 53.5t56 20.5q14 0 27.5 -4.5t24 -10t13.5 -6.5q24 -13 33 -13q11 0 22 12.5t18 26.5
l57 -32q-22 -38 -45 -62t-54 -24q-15 0 -28.5 5.5z" />
    <glyph glyph-name="uni1ED8" unicode="&#x1ed8;" horiz-adv-x="824" 
d="M540 750l-127 83l-128 -83l-55 70l182 125l183 -125zM596 668q83 -48 130.5 -132t47.5 -186t-47.5 -186t-130.5 -132t-184 -48t-184 48t-130.5 132t-47.5 186t47.5 186t130.5 132t184 48t184 -48zM288.5 573q-56.5 -33 -89 -91.5t-32.5 -131.5t32.5 -131.5t89 -91.5
t123.5 -33t123 33t89 92t33 131t-33 131t-89 92t-123 33t-123.5 -33zM356 -90.5q22 22.5 55 22.5q34 0 56.5 -22.5t22.5 -56.5q0 -33 -22.5 -55.5t-56.5 -22.5q-33 0 -55 22.5t-22 55.5q0 34 22 56.5z" />
    <glyph glyph-name="uni1ED9" unicode="&#x1ed9;" horiz-adv-x="607" 
d="M439 482.5q60 -34.5 94 -95t34 -134.5t-34 -134.5t-94 -95t-136 -34.5q-75 0 -135 34.5t-94 95t-34 134.5t34 134.5t94 95t135 34.5q76 0 136 -34.5zM192.5 369.5q-43.5 -45.5 -43.5 -115.5t43.5 -115.5t110.5 -45.5q68 0 111.5 45.5t43.5 115.5t-43.5 115.5t-111.5 45.5
q-67 0 -110.5 -45.5zM431 591l-127 83l-128 -83l-55 70l182 125l183 -125zM248 -90.5q22 22.5 55 22.5q34 0 56.5 -22.5t22.5 -56.5q0 -33 -22.5 -55.5t-56.5 -22.5q-33 0 -55 22.5t-22 55.5q0 34 22 56.5z" />
    <glyph glyph-name="uni1EDA" unicode="&#x1eda;" horiz-adv-x="824" 
d="M741 507.5q33 -72.5 33 -157.5q0 -102 -47.5 -186t-130.5 -132t-184 -48t-184 48t-130.5 132t-47.5 186t47.5 186t130.5 132t184 48q71 0 135 -25q54 2 83.5 36t38.5 78l96 -25q-7 -47 -38 -88t-78 -62q59 -50 92 -122.5zM535 127q56 33 89 92t33 131t-33 131t-89 92
t-123 33t-123.5 -33t-89 -91.5t-32.5 -131.5t32.5 -131.5t89 -91.5t123.5 -33t123 33zM572 933l27 -97l-250 -76l-30 96z" />
    <glyph glyph-name="uni1EDB" unicode="&#x1edb;" horiz-adv-x="607" 
d="M572 496q-29 -40 -72 -62q32 -36 49.5 -82.5t17.5 -98.5q0 -74 -34 -134.5t-94 -95t-136 -34.5q-75 0 -135 34.5t-94 95t-34 134.5t34 134.5t94 95t135 34.5q61 0 112 -23q41 10 64.5 41.5t31.5 69.5l96 -25q-6 -44 -35 -84zM414.5 138.5q43.5 45.5 43.5 115.5
t-43.5 115.5t-111.5 45.5q-67 0 -110.5 -45.5t-43.5 -115.5t43.5 -115.5t110.5 -45.5q68 0 111.5 45.5zM465 762l27 -97l-250 -76l-30 96z" />
    <glyph glyph-name="uni1EDC" unicode="&#x1edc;" horiz-adv-x="824" 
d="M741 507.5q33 -72.5 33 -157.5q0 -102 -47.5 -186t-130.5 -132t-184 -48t-184 48t-130.5 132t-47.5 186t47.5 186t130.5 132t184 48q71 0 135 -25q54 2 83.5 36t38.5 78l96 -25q-7 -47 -38 -88t-78 -62q59 -50 92 -122.5zM535 127q56 33 89 92t33 131t-33 131t-89 92
t-123 33t-123.5 -33t-89 -91.5t-32.5 -131.5t32.5 -131.5t89 -91.5t123.5 -33t123 33zM508 759l-250 76l27 97l253 -77z" />
    <glyph glyph-name="uni1EDD" unicode="&#x1edd;" horiz-adv-x="607" 
d="M572 496q-29 -40 -72 -62q32 -36 49.5 -82.5t17.5 -98.5q0 -74 -34 -134.5t-94 -95t-136 -34.5q-75 0 -135 34.5t-94 95t-34 134.5t34 134.5t94 95t135 34.5q61 0 112 -23q41 10 64.5 41.5t31.5 69.5l96 -25q-6 -44 -35 -84zM414.5 138.5q43.5 45.5 43.5 115.5
t-43.5 115.5t-111.5 45.5q-67 0 -110.5 -45.5t-43.5 -115.5t43.5 -115.5t110.5 -45.5q68 0 111.5 45.5zM388 599l-250 76l27 97l253 -77z" />
    <glyph glyph-name="uni1EDE" unicode="&#x1ede;" horiz-adv-x="824" 
d="M348 890l-29 65q51 23 92 23q49 0 77.5 -30t28.5 -71q0 -44 -31.5 -75t-76.5 -45l-24 58q26 13 38 23.5t13 28.5q0 17 -11 27t-28 10q-23 0 -49 -14zM741 507.5q33 -72.5 33 -157.5q0 -102 -47.5 -186t-130.5 -132t-184 -48t-184 48t-130.5 132t-47.5 186t47.5 186
t130.5 132t184 48q71 0 135 -25q54 2 83.5 36t38.5 78l96 -25q-7 -47 -38 -88t-78 -62q59 -50 92 -122.5zM535 127q56 33 89 92t33 131t-33 131t-89 92t-123 33t-123.5 -33t-89 -91.5t-32.5 -131.5t32.5 -131.5t89 -91.5t123.5 -33t123 33z" />
    <glyph glyph-name="uni1EDF" unicode="&#x1edf;" horiz-adv-x="607" 
d="M234 706l-29 65q51 23 92 23q49 0 77.5 -30t28.5 -71q0 -44 -31.5 -75t-76.5 -45l-24 58q27 13 38.5 23.5t12.5 28.5q0 17 -11 27t-28 10q-23 0 -49 -14zM572 496q-29 -40 -72 -62q32 -36 49.5 -82.5t17.5 -98.5q0 -74 -34 -134.5t-94 -95t-136 -34.5q-75 0 -135 34.5
t-94 95t-34 134.5t34 134.5t94 95t135 34.5q61 0 112 -23q41 10 64.5 41.5t31.5 69.5l96 -25q-6 -44 -35 -84zM414.5 138.5q43.5 45.5 43.5 115.5t-43.5 115.5t-111.5 45.5q-67 0 -110.5 -45.5t-43.5 -115.5t43.5 -115.5t110.5 -45.5q68 0 111.5 45.5z" />
    <glyph glyph-name="uni1EE0" unicode="&#x1ee0;" horiz-adv-x="824" 
d="M741 507.5q33 -72.5 33 -157.5q0 -102 -47.5 -186t-130.5 -132t-184 -48t-184 48t-130.5 132t-47.5 186t47.5 186t130.5 132t184 48q71 0 135 -25q54 2 83.5 36t38.5 78l96 -25q-7 -47 -38 -88t-78 -62q59 -50 92 -122.5zM535 127q56 33 89 92t33 131t-33 131t-89 92
t-123 33t-123.5 -33t-89 -91.5t-32.5 -131.5t32.5 -131.5t89 -91.5t123.5 -33t123 33zM543.5 786.5q-25.5 -25.5 -57.5 -25.5q-17 0 -33.5 8t-36.5 22q-18 12 -29 17.5t-22 5.5q-15 0 -31 -13t-37 -37l-64 53q22 35 57 65.5t74 30.5q18 0 33.5 -7t38.5 -21q18 -11 28 -15.5
t20 -4.5q14 0 25.5 11t26.5 31l62 -49q-29 -46 -54.5 -71.5z" />
    <glyph glyph-name="uni1EE1" unicode="&#x1ee1;" horiz-adv-x="607" 
d="M572 496q-29 -40 -72 -62q32 -36 49.5 -82.5t17.5 -98.5q0 -74 -34 -134.5t-94 -95t-136 -34.5q-75 0 -135 34.5t-94 95t-34 134.5t34 134.5t94 95t135 34.5q61 0 112 -23q41 10 64.5 41.5t31.5 69.5l96 -25q-6 -44 -35 -84zM414.5 138.5q43.5 45.5 43.5 115.5
t-43.5 115.5t-111.5 45.5q-67 0 -110.5 -45.5t-43.5 -115.5t43.5 -115.5t110.5 -45.5q68 0 111.5 45.5zM438.5 625.5q-25.5 -25.5 -57.5 -25.5q-17 0 -33.5 8t-36.5 22q-18 12 -29 17.5t-22 5.5q-15 0 -31 -13t-37 -37l-64 53q22 35 57 65.5t74 30.5q18 0 33.5 -7t38.5 -21
q18 -11 28 -15.5t20 -4.5q14 0 25.5 11t26.5 31l62 -49q-29 -46 -54.5 -71.5z" />
    <glyph glyph-name="uni1EE2" unicode="&#x1ee2;" horiz-adv-x="824" 
d="M741 507.5q33 -72.5 33 -157.5q0 -102 -47.5 -186t-130.5 -132t-184 -48t-184 48t-130.5 132t-47.5 186t47.5 186t130.5 132t184 48q71 0 135 -25q54 2 83.5 36t38.5 78l96 -25q-7 -47 -38 -88t-78 -62q59 -50 92 -122.5zM535 127q56 33 89 92t33 131t-33 131t-89 92
t-123 33t-123.5 -33t-89 -91.5t-32.5 -131.5t32.5 -131.5t89 -91.5t123.5 -33t123 33zM356 -90.5q22 22.5 55 22.5q34 0 56.5 -22.5t22.5 -56.5q0 -33 -22.5 -55.5t-56.5 -22.5q-33 0 -55 22.5t-22 55.5q0 34 22 56.5z" />
    <glyph glyph-name="uni1EE3" unicode="&#x1ee3;" horiz-adv-x="607" 
d="M572 496q-29 -40 -72 -62q32 -36 49.5 -82.5t17.5 -98.5q0 -74 -34 -134.5t-94 -95t-136 -34.5q-75 0 -135 34.5t-94 95t-34 134.5t34 134.5t94 95t135 34.5q61 0 112 -23q41 10 64.5 41.5t31.5 69.5l96 -25q-6 -44 -35 -84zM414.5 138.5q43.5 45.5 43.5 115.5
t-43.5 115.5t-111.5 45.5q-67 0 -110.5 -45.5t-43.5 -115.5t43.5 -115.5t110.5 -45.5q68 0 111.5 45.5zM248 -90.5q22 22.5 55 22.5q34 0 56.5 -22.5t22.5 -56.5q0 -33 -22.5 -55.5t-56.5 -22.5q-33 0 -55 22.5t-22 55.5q0 34 22 56.5z" />
    <glyph glyph-name="uni1EE4" unicode="&#x1ee4;" 
d="M209 13.5q-62 29.5 -100.5 88.5t-38.5 143v455h115v-433q0 -84 45.5 -128t110.5 -44q64 0 109.5 43.5t45.5 128.5v433h115v-455q0 -84 -38.5 -143t-100 -88.5t-131.5 -29.5t-132 29.5zM285 -90.5q22 22.5 55 22.5q34 0 56.5 -22.5t22.5 -56.5q0 -33 -22.5 -55.5
t-56.5 -22.5q-33 0 -55 22.5t-22 55.5q0 34 22 56.5z" />
    <glyph glyph-name="uni1EE5" unicode="&#x1ee5;" horiz-adv-x="576" 
d="M506 0h-109v67q-54 -78 -149 -78q-48 0 -91 21.5t-70 66t-27 110.5v317h110v-289q0 -56 27.5 -86t71.5 -30q33 0 62 17t46.5 50.5t17.5 80.5v257h111v-504zM207 -90.5q22 22.5 55 22.5q34 0 56.5 -22.5t22.5 -56.5q0 -33 -22.5 -55.5t-56.5 -22.5q-33 0 -55 22.5
t-22 55.5q0 34 22 56.5z" />
    <glyph glyph-name="uni1EE6" unicode="&#x1ee6;" 
d="M324 838.5q12 10.5 13 28.5q0 17 -11 27t-28 10q-23 0 -49 -14l-29 65q51 23 92 23q49 0 77.5 -30t28.5 -71q0 -44 -31.5 -75t-76.5 -45l-24 58q26 13 38 23.5zM209 13.5q-62 29.5 -100.5 88.5t-38.5 143v455h115v-433q0 -84 45.5 -128t110.5 -44q64 0 109.5 43.5
t45.5 128.5v433h115v-455q0 -84 -38.5 -143t-100 -88.5t-131.5 -29.5t-132 29.5z" />
    <glyph glyph-name="uni1EE7" unicode="&#x1ee7;" horiz-adv-x="576" 
d="M249.5 654.5q11.5 10.5 12.5 28.5q0 17 -11 27t-28 10q-23 0 -49 -14l-29 65q51 23 92 23q49 0 77.5 -30t28.5 -71q0 -44 -31.5 -75t-76.5 -45l-24 58q27 13 38.5 23.5zM506 0h-109v67q-54 -78 -149 -78q-48 0 -91 21.5t-70 66t-27 110.5v317h110v-289q0 -56 27.5 -86
t71.5 -30q33 0 62 17t46.5 50.5t17.5 80.5v257h111v-504z" />
    <glyph glyph-name="uni1EE8" unicode="&#x1ee8;" horiz-adv-x="768" 
d="M703 692.5q-37 -44.5 -92 -61.5v-386q0 -84 -38.5 -143t-100 -88.5t-131.5 -29.5t-132 29.5t-100.5 88.5t-38.5 143v455h115v-433q0 -84 45.5 -128t110.5 -44q64 0 109.5 43.5t45.5 128.5v433h29q56 0 87 34.5t40 79.5l96 -25q-8 -52 -45 -96.5zM495 933l27 -97l-250 -76
l-30 96z" />
    <glyph glyph-name="uni1EE9" unicode="&#x1ee9;" horiz-adv-x="639" 
d="M582 506.5q-30 -40.5 -76 -62.5v-444h-109v67q-54 -78 -149 -78q-48 0 -91 21.5t-70 66t-27 110.5v317h110v-289q0 -56 27.5 -86t71.5 -30q33 0 62 17t46.5 50.5t17.5 80.5v257h1q56 0 87 34.5t40 79.5l96 -25q-7 -46 -37 -86.5zM436 762l27 -97l-250 -76l-30 96z" />
    <glyph glyph-name="uni1EEA" unicode="&#x1eea;" horiz-adv-x="768" 
d="M703 692.5q-37 -44.5 -92 -61.5v-386q0 -84 -38.5 -143t-100 -88.5t-131.5 -29.5t-132 29.5t-100.5 88.5t-38.5 143v455h115v-433q0 -84 45.5 -128t110.5 -44q64 0 109.5 43.5t45.5 128.5v433h29q56 0 87 34.5t40 79.5l96 -25q-8 -52 -45 -96.5zM401 759l-250 76l27 97
l253 -77z" />
    <glyph glyph-name="uni1EEB" unicode="&#x1eeb;" horiz-adv-x="639" 
d="M582 506.5q-30 -40.5 -76 -62.5v-444h-109v67q-54 -78 -149 -78q-48 0 -91 21.5t-70 66t-27 110.5v317h110v-289q0 -56 27.5 -86t71.5 -30q33 0 62 17t46.5 50.5t17.5 80.5v257h1q56 0 87 34.5t40 79.5l96 -25q-7 -46 -37 -86.5zM357 599l-250 76l27 97l253 -77z" />
    <glyph glyph-name="uni1EEC" unicode="&#x1eec;" horiz-adv-x="768" 
d="M249 890l-29 65q51 23 92 23q49 0 77.5 -30t28.5 -71q0 -44 -31.5 -75t-76.5 -45l-24 58q26 13 38 23.5t13 28.5q0 17 -11 27t-28 10q-23 0 -49 -14zM703 692.5q-37 -44.5 -92 -61.5v-386q0 -84 -38.5 -143t-100 -88.5t-131.5 -29.5t-132 29.5t-100.5 88.5t-38.5 143v455
h115v-433q0 -84 45.5 -128t110.5 -44q64 0 109.5 43.5t45.5 128.5v433h29q56 0 87 34.5t40 79.5l96 -25q-8 -52 -45 -96.5z" />
    <glyph glyph-name="uni1EED" unicode="&#x1eed;" horiz-adv-x="639" 
d="M174 706l-29 65q51 23 92 23q49 0 77.5 -30t28.5 -71q0 -44 -31.5 -75t-76.5 -45l-24 58q27 13 38.5 23.5t12.5 28.5q0 17 -11 27t-28 10q-23 0 -49 -14zM582 506.5q-30 -40.5 -76 -62.5v-444h-109v67q-54 -78 -149 -78q-48 0 -91 21.5t-70 66t-27 110.5v317h110v-289
q0 -56 27.5 -86t71.5 -30q33 0 62 17t46.5 50.5t17.5 80.5v257h1q56 0 87 34.5t40 79.5l96 -25q-7 -46 -37 -86.5z" />
    <glyph glyph-name="uni1EEE" unicode="&#x1eee;" horiz-adv-x="768" 
d="M703 692.5q-37 -44.5 -92 -61.5v-386q0 -84 -38.5 -143t-100 -88.5t-131.5 -29.5t-132 29.5t-100.5 88.5t-38.5 143v455h115v-433q0 -84 45.5 -128t110.5 -44q64 0 109.5 43.5t45.5 128.5v433h29q56 0 87 34.5t40 79.5l96 -25q-8 -52 -45 -96.5zM468.5 786.5
q-25.5 -25.5 -57.5 -25.5q-17 0 -33.5 8t-36.5 22q-18 12 -29 17.5t-22 5.5q-15 0 -31 -13t-37 -37l-64 53q22 35 57 65.5t74 30.5q18 0 33.5 -7t38.5 -21q18 -11 28 -15.5t20 -4.5q14 0 25.5 11t26.5 31l62 -49q-29 -46 -54.5 -71.5z" />
    <glyph glyph-name="uni1EEF" unicode="&#x1eef;" horiz-adv-x="639" 
d="M582 506.5q-30 -40.5 -76 -62.5v-444h-109v67q-54 -78 -149 -78q-48 0 -91 21.5t-70 66t-27 110.5v317h110v-289q0 -56 27.5 -86t71.5 -30q33 0 62 17t46.5 50.5t17.5 80.5v257h1q56 0 87 34.5t40 79.5l96 -25q-7 -46 -37 -86.5zM420.5 625.5q-25.5 -25.5 -57.5 -25.5
q-17 0 -33.5 8t-36.5 22q-18 12 -29 17.5t-22 5.5q-15 0 -31 -13t-37 -37l-64 53q22 35 57 65.5t74 30.5q18 0 33.5 -7t38.5 -21q18 -11 28 -15.5t20 -4.5q14 0 25.5 11t26.5 31l62 -49q-29 -46 -54.5 -71.5z" />
    <glyph glyph-name="uni1EF0" unicode="&#x1ef0;" horiz-adv-x="768" 
d="M703 692.5q-37 -44.5 -92 -61.5v-386q0 -84 -38.5 -143t-100 -88.5t-131.5 -29.5t-132 29.5t-100.5 88.5t-38.5 143v455h115v-433q0 -84 45.5 -128t110.5 -44q64 0 109.5 43.5t45.5 128.5v433h29q56 0 87 34.5t40 79.5l96 -25q-8 -52 -45 -96.5zM285 -90.5
q22 22.5 55 22.5q34 0 56.5 -22.5t22.5 -56.5q0 -33 -22.5 -55.5t-56.5 -22.5q-33 0 -55 22.5t-22 55.5q0 34 22 56.5z" />
    <glyph glyph-name="uni1EF1" unicode="&#x1ef1;" horiz-adv-x="639" 
d="M582 506.5q-30 -40.5 -76 -62.5v-444h-109v67q-54 -78 -149 -78q-48 0 -91 21.5t-70 66t-27 110.5v317h110v-289q0 -56 27.5 -86t71.5 -30q33 0 62 17t46.5 50.5t17.5 80.5v257h1q56 0 87 34.5t40 79.5l96 -25q-7 -46 -37 -86.5zM207 -90.5q22 22.5 55 22.5
q34 0 56.5 -22.5t22.5 -56.5q0 -33 -22.5 -55.5t-56.5 -22.5q-33 0 -55 22.5t-22 55.5q0 34 22 56.5z" />
    <glyph glyph-name="Ygrave" unicode="&#x1ef2;" horiz-adv-x="656" 
d="M385 0h-115v302l-260 398h141l177 -288l177 288h141l-261 -399v-301zM409 759l-250 76l27 97l253 -77z" />
    <glyph glyph-name="ygrave" unicode="&#x1ef3;" horiz-adv-x="610" 
d="M540 14q0 -78 -35.5 -134.5t-93 -85t-122.5 -28.5q-56 0 -107.5 21t-89.5 63.5t-52 104.5l105 36q12 -57 54 -90t95 -33q58 0 97.5 38.5t39.5 107.5v81q-24 -41 -62 -65.5t-89 -24.5q-50 0 -96 23t-75 70.5t-29 115.5v290h111v-273q0 -56 29.5 -87.5t77.5 -31.5
q55 0 93 40t38 110v242h111v-490zM364 599l-250 76l27 97l253 -77z" />
    <glyph glyph-name="uni1EF4" unicode="&#x1ef4;" horiz-adv-x="656" 
d="M272 -90.5q22 22.5 55 22.5q34 0 56.5 -22.5t22.5 -56.5q0 -33 -22.5 -55.5t-56.5 -22.5q-33 0 -55 22.5t-22 55.5q0 34 22 56.5zM385 0h-115v302l-260 398h141l177 -288l177 288h141l-261 -399v-301z" />
    <glyph glyph-name="uni1EF5" unicode="&#x1ef5;" horiz-adv-x="673" 
d="M540 14q0 -78 -35.5 -134.5t-93 -85t-122.5 -28.5q-56 0 -107.5 21t-89.5 63.5t-52 104.5l105 36q12 -57 54 -90t95 -33q58 0 97.5 38.5t39.5 107.5v81q-24 -41 -62 -65.5t-89 -24.5q-50 0 -96 23t-75 70.5t-29 115.5v290h111v-273q0 -56 29.5 -87.5t77.5 -31.5
q55 0 93 40t38 110v242h111v-490zM519 -193.5q22 22.5 55 22.5q34 0 56.5 -22.5t22.5 -56.5q0 -33 -22.5 -55.5t-56.5 -22.5q-33 0 -55 22.5t-22 55.5q0 34 22 56.5z" />
    <glyph glyph-name="uni1EF6" unicode="&#x1ef6;" horiz-adv-x="656" 
d="M304.5 838.5q11.5 10.5 12.5 28.5q0 17 -11 27t-28 10q-23 0 -49 -14l-29 65q51 23 92 23q49 0 77.5 -30t28.5 -71q0 -44 -31.5 -75t-76.5 -45l-24 58q27 13 38.5 23.5zM385 0h-115v302l-260 398h141l177 -288l177 288h141l-261 -399v-301z" />
    <glyph glyph-name="uni1EF7" unicode="&#x1ef7;" horiz-adv-x="610" 
d="M285.5 654.5q11.5 10.5 12.5 28.5q0 17 -11 27t-28 10q-23 0 -49 -14l-29 65q51 23 92 23q49 0 77.5 -30t28.5 -71q0 -44 -31.5 -75t-76.5 -45l-24 58q27 13 38.5 23.5zM540 14q0 -78 -35.5 -134.5t-93 -85t-122.5 -28.5q-56 0 -107.5 21t-89.5 63.5t-52 104.5l105 36
q12 -57 54 -90t95 -33q58 0 97.5 38.5t39.5 107.5v81q-24 -41 -62 -65.5t-89 -24.5q-50 0 -96 23t-75 70.5t-29 115.5v290h111v-273q0 -56 29.5 -87.5t77.5 -31.5q55 0 93 40t38 110v242h111v-490z" />
    <glyph glyph-name="uni1EF8" unicode="&#x1ef8;" horiz-adv-x="656" 
d="M385 0h-115v302l-260 398h141l177 -288l177 288h141l-261 -399v-301zM450.5 786.5q-25.5 -25.5 -57.5 -25.5q-17 0 -33.5 8t-36.5 22q-18 12 -29 17.5t-22 5.5q-15 0 -31 -13t-37 -37l-64 53q22 35 57 65.5t74 30.5q18 0 33.5 -7t38.5 -21q18 -11 28 -15.5t20 -4.5
q14 0 25.5 11t26.5 31l62 -49q-29 -46 -54.5 -71.5z" />
    <glyph glyph-name="uni1EF9" unicode="&#x1ef9;" horiz-adv-x="610" 
d="M540 14q0 -78 -35.5 -134.5t-93 -85t-122.5 -28.5q-56 0 -107.5 21t-89.5 63.5t-52 104.5l105 36q12 -57 54 -90t95 -33q58 0 97.5 38.5t39.5 107.5v81q-24 -41 -62 -65.5t-89 -24.5q-50 0 -96 23t-75 70.5t-29 115.5v290h111v-273q0 -56 29.5 -87.5t77.5 -31.5
q55 0 93 40t38 110v242h111v-490zM460.5 625.5q-25.5 -25.5 -57.5 -25.5q-17 0 -33.5 8t-36.5 22q-18 12 -29 17.5t-22 5.5q-15 0 -31 -13t-37 -37l-64 53q22 35 57 65.5t74 30.5q18 0 33.5 -7t38.5 -21q18 -11 28 -15.5t20 -4.5q14 0 25.5 11t26.5 31l62 -49
q-29 -46 -54.5 -71.5z" />
    <glyph glyph-name="endash" unicode="&#x2013;" horiz-adv-x="478" 
d="M428 327v-102h-378v102h378z" />
    <glyph glyph-name="emdash" unicode="&#x2014;" horiz-adv-x="669" 
d="M619 327v-102h-569v102h569z" />
    <glyph glyph-name="quoteleft" unicode="&#x2018;" horiz-adv-x="256" 
d="M138 393l-118 46l124 282l92 -37z" />
    <glyph glyph-name="quoteright" unicode="&#x2019;" horiz-adv-x="256" 
d="M118 743l118 -46l-124 -282l-92 37z" />
    <glyph glyph-name="quotesinglbase" unicode="&#x201a;" horiz-adv-x="256" 
d="M118 138l118 -46l-124 -282l-92 37z" />
    <glyph glyph-name="quotedblleft" unicode="&#x201c;" horiz-adv-x="479" 
d="M138 393l-118 46l124 282l92 -37zM361 393l-118 46l124 282l92 -37z" />
    <glyph glyph-name="quotedblright" unicode="&#x201d;" horiz-adv-x="479" 
d="M118 743l118 -46l-124 -282l-92 37zM341 743l118 -46l-124 -282l-92 37z" />
    <glyph glyph-name="quotedblbase" unicode="&#x201e;" horiz-adv-x="479" 
d="M118 138l118 -46l-124 -282l-92 37zM341 138l118 -46l-124 -282l-92 37z" />
    <glyph glyph-name="dagger" unicode="&#x2020;" horiz-adv-x="441" 
d="M276 525h135v-103h-135v-422h-111v422h-135v103h135v175h111v-175z" />
    <glyph glyph-name="daggerdbl" unicode="&#x2021;" horiz-adv-x="441" 
d="M165 422h-135v103h135v175h111v-175h135v-103h-135v-144h135v-102h-135v-176h-111v176h-135v102h135v144z" />
    <glyph glyph-name="bullet" unicode="&#x2022;" horiz-adv-x="216" 
d="M163.5 216q-22.5 -23 -53.5 -23q-33 0 -56.5 23t-23.5 55t23 54.5t57 22.5q31 0 53.5 -22.5t22.5 -54.5t-22.5 -55z" />
    <glyph glyph-name="ellipsis" unicode="&#x2026;" horiz-adv-x="840" 
d="M84 123.5q22 22.5 55 22.5q34 0 56.5 -22.5t22.5 -56.5q0 -33 -22.5 -55.5t-56.5 -22.5q-33 0 -55 22.5t-22 55.5q0 34 22 56.5zM644 123.5q22 22.5 55 22.5q34 0 56.5 -22.5t22.5 -56.5q0 -33 -22.5 -55.5t-56.5 -22.5q-33 0 -55 22.5t-22 55.5q0 34 22 56.5zM364 123.5
q22 22.5 55 22.5q34 0 56.5 -22.5t22.5 -56.5q0 -33 -22.5 -55.5t-56.5 -22.5q-33 0 -55 22.5t-22 55.5q0 34 22 56.5z" />
    <glyph glyph-name="perthousand" unicode="&#x2030;" horiz-adv-x="1413" 
d="M259 42l429 674l64 -41l-430 -675zM64.5 625q24.5 43 66.5 68t93 25t94 -25t68 -68t25 -94t-25 -93t-68 -66.5t-94 -24.5t-93 24.5t-66.5 66.5t-24.5 93t24.5 94zM165 469.5q24 -23.5 60 -23.5q35 0 58 23.5t23 60.5t-23.5 61t-57.5 24q-36 0 -60 -24t-24 -61t24 -60.5z
M600.5 262q24.5 43 66.5 68t93 25t94 -25t68 -68t25 -94t-25 -93t-68 -66.5t-94 -24.5t-93 24.5t-66.5 66.5t-24.5 93t24.5 94zM701 106.5q24 -23.5 60 -23.5q35 0 58 23.5t23 60.5t-23.5 61t-57.5 24q-36 0 -60 -24t-24 -61t24 -60.5zM1026.5 262q24.5 43 66.5 68t93 25
t94 -25t68 -68t25 -94t-25 -93t-68 -66.5t-94 -24.5t-93 24.5t-66.5 66.5t-24.5 93t24.5 94zM1127 106.5q24 -23.5 60 -23.5q35 0 58 23.5t23 60.5t-23.5 61t-57.5 24q-36 0 -60 -24t-24 -61t24 -60.5z" />
    <glyph glyph-name="guilsinglleft" unicode="&#x2039;" horiz-adv-x="335" 
d="M295 121l-82 -69l-193 226l193 225l82 -69l-132 -156z" />
    <glyph glyph-name="guilsinglright" unicode="&#x203a;" horiz-adv-x="335" 
d="M50 434l82 69l193 -225l-193 -226l-82 69l132 157z" />
    <glyph glyph-name="fraction" unicode="&#x2044;" horiz-adv-x="643" 
d="M70 42l429 674l64 -41l-430 -675z" />
    <glyph glyph-name="franc" unicode="&#x20a3;" horiz-adv-x="582" 
d="M225 595v-193h237v-105h-237v-98h100v-71h-100v-128h-115v128h-100v71h100v501h412v-105h-297z" />
    <glyph glyph-name="dong" unicode="&#x20ab;" horiz-adv-x="532" 
d="M559 598h-82v-451h-94v46q-27 -26 -62.5 -40.5t-78.5 -14.5q-58 0 -103 27t-69.5 74.5t-24.5 107.5q0 65 28.5 112t75.5 71t102 24q41 0 75.5 -13t55.5 -34v91h-138v71h138v47h95v-47h82v-71zM348.5 259.5q33.5 33.5 33.5 87.5t-33 87.5t-89 33.5q-57 0 -89 -33t-32 -89
q0 -55 32 -87.5t88 -32.5t89.5 33.5zM45 81h432v-81h-432v81z" />
    <glyph glyph-name="Euro" unicode="&#x20ac;" horiz-adv-x="818" 
d="M788 203q-47 -107 -136 -163t-193 -56q-76 0 -145 30.5t-119 89t-70 140.5h-105v69h94q-1 11 -1 33q0 17 2 47h-95v69h108q23 81 76 138.5t124.5 86.5t149.5 29q82 0 153.5 -31t120.5 -89l-78 -84q-37 47 -89 71t-111 24q-74 0 -135 -37.5t-89 -107.5h341v-69h-358
q-3 -19 -3 -42q0 -14 2 -38h359v-69h-343q27 -72 87 -111t134 -39q73 0 133.5 40.5t93.5 118.5z" />
    <glyph glyph-name="uni20AD" unicode="&#x20ad;" horiz-adv-x="675" 
d="M655 0h-158l-292 303v-303h-115v315h-70v71h70v314h115v-297l284 297h148l-304 -314h321v-71h-303z" />
    <glyph glyph-name="uni2116" unicode="&#x2116;" horiz-adv-x="1153" 
d="M80 700h115l351 -495v495h115v-700h-115l-351 491v-491h-115v700zM766.5 625q24.5 43 66.5 68t93 25t94 -25t68 -68t25 -94t-25 -93t-68 -66.5t-94 -24.5t-93 24.5t-66.5 66.5t-24.5 93t24.5 94zM867 469.5q24 -23.5 60 -23.5q35 0 58 23.5t23 60.5t-23.5 61t-57.5 24
q-36 0 -60 -24t-24 -61t24 -60.5z" />
    <glyph glyph-name="trademark" unicode="&#x2122;" horiz-adv-x="776" 
d="M147 635h-107v65h285v-65h-108v-289h-70v289zM380 700h78l100 -188l99 188h79v-354h-68v217l-83 -141h-54l-83 141v-217h-68v354z" />
    <glyph glyph-name="uni2153" unicode="&#x2153;" horiz-adv-x="948" 
d="M203 42l429 674l64 -41l-430 -675zM133 616h-53v83h144v-424h-91v341zM847.5 188.5q20.5 -27.5 20.5 -67.5q0 -56 -43 -92t-108 -36q-50 0 -89.5 25t-57.5 69l77 47q8 -28 28.5 -44t46.5 -16q25 0 40 13.5t15 34.5q0 29 -30 44.5t-87 14.5v78q46 -1 73.5 14t27.5 42
q0 19 -13.5 31.5t-34.5 12.5q-25 0 -44 -14t-25 -37l-72 45q18 40 57.5 63.5t89.5 23.5q58 0 96 -32.5t38 -81.5q0 -35 -17.5 -60.5t-47.5 -36.5q39 -13 59.5 -40.5z" />
    <glyph glyph-name="uni2154" unicode="&#x2154;" horiz-adv-x="1035" 
d="M934.5 188.5q20.5 -27.5 20.5 -67.5q0 -56 -43 -92t-108 -36q-50 0 -89.5 25t-57.5 69l77 47q8 -28 28.5 -44t46.5 -16q25 0 40 13.5t15 34.5q0 29 -30 44.5t-87 14.5v78q46 -1 73.5 14t27.5 42q0 19 -13.5 31.5t-34.5 12.5q-25 0 -44 -14t-25 -37l-72 45
q18 40 57.5 63.5t89.5 23.5q58 0 96 -32.5t38 -81.5q0 -35 -17.5 -60.5t-47.5 -36.5q39 -13 59.5 -40.5zM297 42l429 674l64 -41l-430 -675zM380 276h-295v72l148 152q43 43 43 82q0 24 -13.5 38t-35.5 14q-26 0 -44.5 -18t-21.5 -46l-81 24q7 55 50 88.5t103 33.5
q62 0 101 -35t39 -92q0 -41 -20.5 -75.5t-53.5 -67.5l-90 -89h171v-81z" />
    <glyph glyph-name="uni2155" unicode="&#x2155;" horiz-adv-x="974" 
d="M204 42l429 674l64 -41l-430 -675zM133 616h-53v83h144v-424h-91v341zM849 36q-45 -43 -114 -43q-50 0 -91.5 26t-63.5 70l79 46q7 -27 29.5 -43.5t50.5 -16.5q29 0 46.5 17.5t17.5 46.5t-18.5 46.5t-48.5 17.5q-19 0 -36 -9t-29 -25h-65v255h248v-83h-170v-80
q35 24 75 24q58 0 96.5 -39.5t38.5 -99.5q0 -67 -45 -110z" />
    <glyph glyph-name="uni2156" unicode="&#x2156;" horiz-adv-x="1077" 
d="M297 42l429 674l64 -41l-430 -675zM952 36q-45 -43 -114 -43q-50 0 -91.5 26t-63.5 70l79 46q7 -27 29.5 -43.5t50.5 -16.5q29 0 46.5 17.5t17.5 46.5t-18.5 46.5t-48.5 17.5q-19 0 -36 -9t-29 -25h-65v255h248v-83h-170v-80q35 24 75 24q58 0 96.5 -39.5t38.5 -99.5
q0 -67 -45 -110zM380 276h-295v72l148 152q43 43 43 82q0 24 -13.5 38t-35.5 14q-26 0 -44.5 -18t-21.5 -46l-81 24q7 55 50 88.5t103 33.5q62 0 101 -35t39 -92q0 -41 -20.5 -75.5t-53.5 -67.5l-90 -89h171v-81z" />
    <glyph glyph-name="uni2157" unicode="&#x2157;" horiz-adv-x="1053" 
d="M273 42l429 674l64 -41l-430 -675zM928 36q-45 -43 -114 -43q-50 0 -91.5 26t-63.5 70l79 46q7 -27 29.5 -43.5t50.5 -16.5q29 0 46.5 17.5t17.5 46.5t-18.5 46.5t-48.5 17.5q-19 0 -36 -9t-29 -25h-65v255h248v-83h-170v-80q35 24 75 24q58 0 96.5 -39.5t38.5 -99.5
q0 -67 -45 -110zM357.5 464.5q20.5 -27.5 20.5 -67.5q0 -56 -43 -92t-108 -36q-50 0 -89.5 25t-57.5 69l77 47q8 -28 28.5 -44t46.5 -16q25 0 40 13.5t15 34.5q0 29 -30 44.5t-87 14.5v78q46 -1 73.5 14t27.5 42q0 19 -13.5 31.5t-34.5 12.5q-25 0 -44 -14t-25 -37l-72 45
q18 40 57.5 63.5t89.5 23.5q58 0 96 -32.5t38 -81.5q0 -35 -17.5 -60.5t-47.5 -36.5q39 -13 59.5 -40.5z" />
    <glyph glyph-name="uni2158" unicode="&#x2158;" horiz-adv-x="1101" 
d="M320 42l429 674l64 -41l-430 -675zM976 36q-45 -43 -114 -43q-50 0 -91.5 26t-63.5 70l79 46q7 -27 29.5 -43.5t50.5 -16.5q29 0 46.5 17.5t17.5 46.5t-18.5 46.5t-48.5 17.5q-19 0 -36 -9t-29 -25h-65v255h248v-83h-170v-80q35 24 75 24q58 0 96.5 -39.5t38.5 -99.5
q0 -67 -45 -110zM408 371h-61v-95h-91v95h-176v77l174 252h93v-248h61v-81zM182 452h74v112z" />
    <glyph glyph-name="uni2159" unicode="&#x2159;" horiz-adv-x="956" 
d="M203 42l429 674l64 -41l-430 -675zM133 616h-53v83h144v-424h-91v341zM835.5 255.5q40.5 -40.5 40.5 -102.5q0 -40 -18 -77t-53.5 -60t-85.5 -23q-79 0 -126 55.5t-47 149.5q0 63 25 118.5t76.5 89.5t127.5 34q15 0 24 -2l6 -86q-6 1 -14 2t-15 1q-97 0 -128 -88
q34 29 84 29q63 0 103.5 -40.5zM766.5 94q18.5 20 18.5 54q0 32 -18.5 50.5t-50.5 18.5q-31 0 -50 -19t-19 -50q0 -33 19 -53.5t50 -20.5q32 0 50.5 20z" />
    <glyph glyph-name="uni215A" unicode="&#x215a;" horiz-adv-x="1030" 
d="M276 42l429 674l64 -41l-430 -675zM909.5 255.5q40.5 -40.5 40.5 -102.5q0 -40 -18 -77t-53.5 -60t-85.5 -23q-79 0 -126 55.5t-47 149.5q0 63 25 118.5t76.5 89.5t127.5 34q15 0 24 -2l6 -86q-6 1 -14 2t-15 1q-97 0 -128 -88q34 29 84 29q63 0 103.5 -40.5zM840.5 94
q18.5 20 18.5 54q0 32 -18.5 50.5t-50.5 18.5q-31 0 -50 -19t-19 -50q0 -33 19 -53.5t50 -20.5q32 0 50.5 20zM349 312q-45 -43 -114 -43q-50 0 -91.5 26t-63.5 70l79 46q7 -27 29.5 -43.5t50.5 -16.5q29 0 46.5 17.5t17.5 46.5t-18.5 46.5t-48.5 17.5q-19 0 -36 -9t-29 -25
h-65v255h248v-83h-170v-80q35 24 75 24q58 0 96.5 -39.5t38.5 -99.5q0 -67 -45 -110z" />
    <glyph glyph-name="oneeighth" unicode="&#x215b;" horiz-adv-x="963" 
d="M203 42l429 674l64 -41l-430 -675zM133 616h-53v83h144v-424h-91v341zM883 126q0 -38 -20.5 -68.5t-56.5 -47.5t-80 -17q-39 0 -75.5 15.5t-59.5 45.5t-23 72q0 35 18.5 63t52.5 43q-26 15 -40.5 39t-14.5 53q0 49 41.5 82t103.5 33q61 0 100.5 -32.5t39.5 -83.5
q0 -29 -15.5 -54t-41.5 -39q71 -35 71 -104zM689 349.5q-14 -12.5 -14 -32.5q0 -22 16.5 -32.5t47.5 -18.5q19 10 29 24t10 30q0 19 -14 30.5t-37 11.5q-24 0 -38 -12.5zM776 85q18 14 18 37q0 44 -86 69q-22 -7 -36.5 -24.5t-14.5 -38.5q0 -26 19 -41.5t51 -15.5
q31 0 49 14z" />
    <glyph glyph-name="threeeighths" unicode="&#x215c;" horiz-adv-x="1013" 
d="M253 42l429 674l64 -41l-430 -675zM933 126q0 -38 -20.5 -68.5t-56.5 -47.5t-80 -17q-39 0 -75.5 15.5t-59.5 45.5t-23 72q0 35 18.5 63t52.5 43q-26 15 -40.5 39t-14.5 53q0 49 41.5 82t103.5 33q61 0 100.5 -32.5t39.5 -83.5q0 -29 -15.5 -54t-41.5 -39q71 -35 71 -104
zM739 349.5q-14 -12.5 -14 -32.5q0 -22 16.5 -32.5t47.5 -18.5q19 10 29 24t10 30q0 19 -14 30.5t-37 11.5q-24 0 -38 -12.5zM826 85q18 14 18 37q0 44 -86 69q-22 -7 -36.5 -24.5t-14.5 -38.5q0 -26 19 -41.5t51 -15.5q31 0 49 14zM357.5 464.5q20.5 -27.5 20.5 -67.5
q0 -56 -43 -92t-108 -36q-50 0 -89.5 25t-57.5 69l77 47q8 -28 28.5 -44t46.5 -16q25 0 40 13.5t15 34.5q0 29 -30 44.5t-87 14.5v78q46 -1 73.5 14t27.5 42q0 19 -13.5 31.5t-34.5 12.5q-25 0 -44 -14t-25 -37l-72 45q18 40 57.5 63.5t89.5 23.5q58 0 96 -32.5t38 -81.5
q0 -35 -17.5 -60.5t-47.5 -36.5q39 -13 59.5 -40.5z" />
    <glyph glyph-name="fiveeighths" unicode="&#x215d;" horiz-adv-x="1026" 
d="M946 126q0 -38 -20.5 -68.5t-56.5 -47.5t-80 -17q-39 0 -75.5 15.5t-59.5 45.5t-23 72q0 35 18.5 63t52.5 43q-26 15 -40.5 39t-14.5 53q0 49 41.5 82t103.5 33q61 0 100.5 -32.5t39.5 -83.5q0 -29 -15.5 -54t-41.5 -39q71 -35 71 -104zM752 349.5q-14 -12.5 -14 -32.5
q0 -22 16.5 -32.5t47.5 -18.5q19 10 29 24t10 30q0 19 -14 30.5t-37 11.5q-24 0 -38 -12.5zM839 85q18 14 18 37q0 44 -86 69q-22 -7 -36.5 -24.5t-14.5 -38.5q0 -26 19 -41.5t51 -15.5q31 0 49 14zM276 42l429 674l64 -41l-430 -675zM349 312q-45 -43 -114 -43
q-50 0 -91.5 26t-63.5 70l79 46q7 -27 29.5 -43.5t50.5 -16.5q29 0 46.5 17.5t17.5 46.5t-18.5 46.5t-48.5 17.5q-19 0 -36 -9t-29 -25h-65v255h248v-83h-170v-80q35 24 75 24q58 0 96.5 -39.5t38.5 -99.5q0 -67 -45 -110z" />
    <glyph glyph-name="seveneighths" unicode="&#x215e;" horiz-adv-x="1001" 
d="M241 42l429 674l64 -41l-430 -675zM921 126q0 -38 -20.5 -68.5t-56.5 -47.5t-80 -17q-39 0 -75.5 15.5t-59.5 45.5t-23 72q0 35 18.5 63t52.5 43q-26 15 -40.5 39t-14.5 53q0 49 41.5 82t103.5 33q61 0 100.5 -32.5t39.5 -83.5q0 -29 -15.5 -54t-41.5 -39q71 -35 71 -104
zM727 349.5q-14 -12.5 -14 -32.5q0 -22 16.5 -32.5t47.5 -18.5q19 10 29 24t10 30q0 19 -14 30.5t-37 11.5q-24 0 -38 -12.5zM814 85q18 14 18 37q0 44 -86 69q-22 -7 -36.5 -24.5t-14.5 -38.5q0 -26 19 -41.5t51 -15.5q31 0 49 14zM391 616l-173 -340h-98l178 335h-218v89
h311v-84z" />
    <glyph glyph-name="minus" unicode="&#x2212;" horiz-adv-x="446" 
d="M40 326h366v-101h-366v101z" />
    <glyph glyph-name="infinity" unicode="&#x221e;" horiz-adv-x="849" 
d="M710.5 489.5q48.5 -27.5 78.5 -79.5t30 -121t-30 -121t-79.5 -80t-105.5 -28q-53 0 -101.5 27.5t-83.5 82.5q-31 -55 -77.5 -82.5t-99.5 -27.5q-54 0 -103 27.5t-79 79t-30 120.5t30 121.5t79.5 80.5t104.5 28q54 0 102.5 -27.5t83.5 -83.5q32 55 78.5 83t99.5 28
q54 0 102.5 -27.5zM332.5 206.5q38.5 34.5 46.5 93.5q-15 51 -51 80.5t-77 29.5q-44 0 -75.5 -32t-31.5 -90q0 -55 30 -85.5t73 -30.5q47 0 85.5 34.5zM674 199q32 32 32 89q0 56 -30 86t-74 30q-47 0 -85.5 -34t-46.5 -93q16 -51 51.5 -80.5t76.5 -29.5q44 0 76 32z" />
    <glyph glyph-name="uniA729" unicode="&#xa729;" horiz-adv-x="820" 
d="M570 194q102 -14 149 -69.5t47 -132.5q0 -68 -34.5 -119.5t-91.5 -79t-122 -27.5q-69 0 -132 31t-101 91l91 69q25 -44 66.5 -66.5t86.5 -22.5q53 0 90.5 31t37.5 79q0 58 -55.5 91.5t-153.5 33.5v105l184 194h-381v-402h-110v402h-121v102h121v129h110v-129h519v-105z
" />
    <glyph glyph-name="fl" unicode="&#xfb02;" horiz-adv-x="723" 
d="M625 -11q-67 0 -112 41.5t-45 126.5v245h-239v-402h-111v402h-98v102h98v46q0 83 48 125.5t118 42.5q61 0 117 -34l-42 -86q-32 23 -65 23q-30 0 -47.5 -19t-17.5 -57v-41h239v196h111v-537q0 -40 17.5 -58.5t46.5 -18.5q21 0 43 9l37 -83q-48 -23 -98 -23z" />
    <glyph glyph-name="null" horiz-adv-x="21" 
 />
    <glyph glyph-name="i.loclTRK" horiz-adv-x="279" 
d="M84 504h111v-504h-111v504zM87.5 714q20.5 21 50.5 21q31 0 52 -21t21 -52q0 -30 -21 -50.5t-52 -20.5q-30 0 -50.5 20.5t-20.5 50.5q0 31 20.5 52z" />
    <glyph glyph-name="f_f_l" horiz-adv-x="1063" 
d="M1063 12q-48 -23 -98 -23q-67 0 -112 41.5t-45 126.5v245h-239v-402h-111v402h-229v-402h-111v402h-98v102h98v46q0 83 47.5 125.5t117.5 42.5q60 0 116 -34l-42 -86q-32 23 -64 23q-30 0 -47 -18.5t-17 -57.5v-41h229v46q0 83 48 125.5t118 42.5q61 0 117 -34l-42 -86
q-32 23 -65 23q-30 0 -47.5 -19t-17.5 -57v-41h239v196h111v-537q0 -40 17.5 -58.5t46.5 -18.5q21 0 43 9z" />
    <glyph glyph-name="zero.dnom" horiz-adv-x="366" 
d="M62 52.5q-44 59.5 -44 163.5q0 105 44 164t122 59q77 0 120.5 -59t43.5 -164q0 -104 -43.5 -163.5t-120.5 -59.5q-78 0 -122 59.5zM255 216q0 72 -17.5 106.5t-53.5 34.5q-73 0 -73 -141t73 -141q71 0 71 141z" />
    <glyph glyph-name="one.dnom" horiz-adv-x="360" 
d="M166 341h-53v83h144v-424h-91v341z" />
    <glyph glyph-name="two.dnom" horiz-adv-x="360" 
d="M330 0h-295v72l148 152q43 43 43 82q0 24 -13.5 38t-35.5 14q-26 0 -44.5 -18t-21.5 -46l-81 24q7 55 50 88.5t103 33.5q62 0 101 -35t39 -92q0 -41 -20.5 -75.5t-53.5 -67.5l-90 -89h171v-81z" />
    <glyph glyph-name="three.dnom" horiz-adv-x="360" 
d="M309.5 188.5q20.5 -27.5 20.5 -67.5q0 -56 -43 -92t-108 -36q-50 0 -89.5 25t-57.5 69l77 47q8 -28 28.5 -44t46.5 -16q25 0 40 13.5t15 34.5q0 29 -30 44.5t-87 14.5v78q46 -1 73.5 14t27.5 42q0 19 -13.5 31.5t-34.5 12.5q-25 0 -44 -14t-25 -37l-72 45
q18 40 57.5 63.5t89.5 23.5q58 0 96 -32.5t38 -81.5q0 -35 -17.5 -60.5t-47.5 -36.5q39 -13 59.5 -40.5z" />
    <glyph glyph-name="four.dnom" horiz-adv-x="360" 
d="M344 95h-61v-95h-91v95h-176v77l174 252h93v-248h61v-81zM118 176h74v112z" />
    <glyph glyph-name="five.dnom" horiz-adv-x="360" 
d="M292 36q-45 -43 -114 -43q-50 0 -91.5 26t-63.5 70l79 46q7 -27 29.5 -43.5t50.5 -16.5q29 0 46.5 17.5t17.5 46.5t-18.5 46.5t-48.5 17.5q-19 0 -36 -9t-29 -25h-65v255h248v-83h-170v-80q35 24 75 24q58 0 96.5 -39.5t38.5 -99.5q0 -67 -45 -110z" />
    <glyph glyph-name="six.dnom" horiz-adv-x="360" 
d="M305.5 255.5q40.5 -40.5 40.5 -102.5q0 -40 -18 -77t-53.5 -60t-85.5 -23q-79 0 -126 55.5t-47 149.5q0 63 25 118.5t76.5 89.5t127.5 34q15 0 24 -2l6 -86q-6 1 -14 2t-15 1q-97 0 -128 -88q34 29 84 29q63 0 103.5 -40.5zM236.5 94q18.5 20 18.5 54q0 32 -18.5 50.5
t-50.5 18.5q-31 0 -50 -19t-19 -50q0 -33 19 -53.5t50 -20.5q32 0 50.5 20z" />
    <glyph glyph-name="seven.dnom" horiz-adv-x="360" 
d="M336 340l-173 -340h-98l178 335h-218v89h311v-84z" />
    <glyph glyph-name="eight.dnom" horiz-adv-x="360" 
d="M340 126q0 -38 -20.5 -68.5t-56.5 -47.5t-80 -17q-39 0 -75.5 15.5t-59.5 45.5t-23 72q0 35 18.5 63t52.5 43q-26 15 -40.5 39t-14.5 53q0 49 41.5 82t103.5 33q61 0 100.5 -32.5t39.5 -83.5q0 -29 -15.5 -54t-41.5 -39q71 -35 71 -104zM146 349.5q-14 -12.5 -14 -32.5
q0 -22 16.5 -32.5t47.5 -18.5q19 10 29 24t10 30q0 19 -14 30.5t-37 11.5q-24 0 -38 -12.5zM233 85q18 14 18 37q0 44 -86 69q-22 -7 -36.5 -24.5t-14.5 -38.5q0 -26 19 -41.5t51 -15.5q31 0 49 14z" />
    <glyph glyph-name="nine.dnom" horiz-adv-x="360" 
d="M56.5 180.5q-40.5 40.5 -40.5 102.5q0 39 18 75t53.5 59t85.5 23q78 0 125.5 -55.5t47.5 -146.5q0 -62 -25 -118t-76.5 -91.5t-127.5 -35.5q-15 0 -24 1l-6 87q6 -1 14 -2t15 -1q49 0 80.5 22t47.5 68q-34 -28 -84 -28q-63 0 -103.5 40.5zM126 339.5q-19 -19.5 -19 -51.5
t18.5 -50.5t50.5 -18.5q31 0 50 19t19 50q0 32 -19 51.5t-50 19.5t-50 -19.5z" />
    <glyph glyph-name="zero.numr" horiz-adv-x="366" 
d="M62 328.5q-44 59.5 -44 163.5q0 105 44 164t122 59q77 0 120.5 -59t43.5 -164q0 -104 -43.5 -163.5t-120.5 -59.5q-78 0 -122 59.5zM255 492q0 72 -17.5 106.5t-53.5 34.5q-73 0 -73 -141t73 -141q71 0 71 141z" />
    <glyph glyph-name="one.numr" horiz-adv-x="360" 
d="M166 617h-53v83h144v-424h-91v341z" />
    <glyph glyph-name="two.numr" horiz-adv-x="360" 
d="M330 276h-295v72l148 152q43 43 43 82q0 24 -13.5 38t-35.5 14q-26 0 -44.5 -18t-21.5 -46l-81 24q7 55 50 88.5t103 33.5q62 0 101 -35t39 -92q0 -41 -20.5 -75.5t-53.5 -67.5l-90 -89h171v-81z" />
    <glyph glyph-name="three.numr" horiz-adv-x="360" 
d="M309.5 464.5q20.5 -27.5 20.5 -67.5q0 -56 -43 -92t-108 -36q-50 0 -89.5 25t-57.5 69l77 47q8 -28 28.5 -44t46.5 -16q25 0 40 13.5t15 34.5q0 29 -30 44.5t-87 14.5v78q46 -1 73.5 14t27.5 42q0 19 -13.5 31.5t-34.5 12.5q-25 0 -44 -14t-25 -37l-72 45
q18 40 57.5 63.5t89.5 23.5q58 0 96 -32.5t38 -81.5q0 -35 -17.5 -60.5t-47.5 -36.5q39 -13 59.5 -40.5z" />
    <glyph glyph-name="four.numr" horiz-adv-x="360" 
d="M344 371h-61v-95h-91v95h-176v77l174 252h93v-248h61v-81zM118 452h74v112z" />
    <glyph glyph-name="five.numr" horiz-adv-x="360" 
d="M292 312q-45 -43 -114 -43q-50 0 -91.5 26t-63.5 70l79 46q7 -27 29.5 -43.5t50.5 -16.5q29 0 46.5 17.5t17.5 46.5t-18.5 46.5t-48.5 17.5q-19 0 -36 -9t-29 -25h-65v255h248v-83h-170v-80q35 24 75 24q58 0 96.5 -39.5t38.5 -99.5q0 -67 -45 -110z" />
    <glyph glyph-name="six.numr" horiz-adv-x="360" 
d="M305.5 531.5q40.5 -40.5 40.5 -102.5q0 -40 -18 -77t-53.5 -60t-85.5 -23q-79 0 -126 55.5t-47 149.5q0 63 25 118.5t76.5 89.5t127.5 34q15 0 24 -2l6 -86q-6 1 -14 2t-15 1q-97 0 -128 -88q34 29 84 29q63 0 103.5 -40.5zM236.5 370q18.5 20 18.5 54q0 32 -18.5 50.5
t-50.5 18.5q-31 0 -50 -19t-19 -50q0 -33 19 -53.5t50 -20.5q32 0 50.5 20z" />
    <glyph glyph-name="seven.numr" horiz-adv-x="360" 
d="M336 616l-173 -340h-98l178 335h-218v89h311v-84z" />
    <glyph glyph-name="eight.numr" horiz-adv-x="360" 
d="M340 402q0 -38 -20.5 -68.5t-56.5 -47.5t-80 -17q-39 0 -75.5 15.5t-59.5 45.5t-23 72q0 35 18.5 63t52.5 43q-26 15 -40.5 39t-14.5 53q0 49 41.5 82t103.5 33q61 0 100.5 -32.5t39.5 -83.5q0 -29 -15.5 -54t-41.5 -39q71 -35 71 -104zM146 625.5q-14 -12.5 -14 -32.5
q0 -22 16.5 -32.5t47.5 -18.5q19 10 29 24t10 30q0 19 -14 30.5t-37 11.5q-24 0 -38 -12.5zM233 361q18 14 18 37q0 44 -86 69q-22 -7 -36.5 -24.5t-14.5 -38.5q0 -26 19 -41.5t51 -15.5q31 0 49 14z" />
    <glyph glyph-name="nine.numr" horiz-adv-x="360" 
d="M56.5 456.5q-40.5 40.5 -40.5 102.5q0 39 18 75t53.5 59t85.5 23q78 0 125.5 -55.5t47.5 -146.5q0 -62 -25 -118t-76.5 -91.5t-127.5 -35.5q-15 0 -24 1l-6 87q6 -1 14 -2t15 -1q49 0 80.5 22t47.5 68q-34 -28 -84 -28q-63 0 -103.5 40.5zM126 615.5q-19 -19.5 -19 -51.5
t18.5 -50.5t50.5 -18.5q31 0 50 19t19 50q0 32 -19 51.5t-50 19.5t-50 -19.5z" />
    <glyph glyph-name="acute.001" horiz-adv-x="175" 
d="M0 948l108 141l67 -51l-108 -140z" />
    <glyph glyph-name="caron.001" horiz-adv-x="252" 
d="M252 990l-126 -92l-126 92l47 61l79 -58l79 58z" />
    <glyph glyph-name="circumflex.001" horiz-adv-x="252" 
d="M126 956l-79 -58l-47 61l126 92l126 -92l-47 -61z" />
    <glyph glyph-name="grave.001" horiz-adv-x="175" 
d="M0 1038l67 51l108 -141l-67 -50z" />
    <glyph glyph-name="tilde.001" horiz-adv-x="297" 
d="M169.5 953.5q-13.5 5.5 -30.5 15.5q-9 5 -18.5 9.5t-16.5 4.5q-12 0 -21.5 -9t-28.5 -32l-54 45q23 33 46 53.5t56 20.5q14 0 27.5 -4.5t24 -10t13.5 -6.5q24 -13 33 -13q11 0 22 12.5t18 26.5l57 -32q-22 -38 -45 -62t-54 -24q-15 0 -28.5 5.5z" />
    <glyph glyph-name="acute.cap" horiz-adv-x="280" 
d="M253 933l27 -97l-250 -76l-30 96z" />
    <glyph glyph-name="breve.cap" horiz-adv-x="290" 
d="M290 906q0 -63 -35.5 -106t-109.5 -43t-109.5 43t-35.5 106h83q0 -68 60 -68q64 0 64 68h83z" />
    <glyph glyph-name="caron.cap" horiz-adv-x="365" 
d="M182 749l-182 125l52 70l131 -87l130 87l52 -70z" />
    <glyph glyph-name="cedilla.cap" horiz-adv-x="270" 
d="M240.5 -89.5q29.5 -29.5 29.5 -67.5q0 -28 -16 -53t-46 -40.5t-70 -15.5q-38 0 -75 16t-63 45l48 51q19 -22 42 -33.5t46 -11.5q26 0 44.5 12.5t18.5 35.5q0 31 -33 45t-80 19l36 115h60l-27 -79q56 -9 85.5 -38.5z" />
    <glyph glyph-name="circumflex.cap" horiz-adv-x="365" 
d="M310 750l-127 83l-128 -83l-55 70l182 125l183 -125z" />
    <glyph glyph-name="dieresis.cap" horiz-adv-x="379" 
d="M124 782q-21 -21 -52 -21q-30 0 -51 21t-21 51t21 51t51 21q31 0 52 -21t21 -51t-21 -51zM357.5 782q-21.5 -21 -52.5 -21q-30 0 -51 21t-21 51t21 51t51 21q31 0 52.5 -21t21.5 -51t-21.5 -51z" />
    <glyph glyph-name="dotaccent.cap" horiz-adv-x="144" 
d="M20.5 883q20.5 21 50.5 21q31 0 52 -21t21 -52q0 -30 -21 -50.5t-52 -20.5q-30 0 -50.5 20.5t-20.5 50.5q0 31 20.5 52z" />
    <glyph glyph-name="grave.cap" horiz-adv-x="280" 
d="M250 759l-250 76l27 97l253 -77z" />
    <glyph glyph-name="hungarumlaut.cap" horiz-adv-x="326" 
d="M83 769h-83l55 131h108zM225 769h-85l78 131h108z" />
    <glyph glyph-name="macron.cap" horiz-adv-x="297" 
d="M297 869v-109h-297v109h297z" />
    <glyph glyph-name="ogonek.cap" horiz-adv-x="160" 
d="M96.5 -118.5q21.5 -13.5 60.5 -12.5v-74q-74 4 -115.5 30t-41.5 70q0 32 21 62t61 50h78q-38 -12 -61.5 -37t-23.5 -51q0 -24 21.5 -37.5z" />
    <glyph glyph-name="ring.cap" horiz-adv-x="221" 
d="M31 918q31 32 78 32q46 0 79 -32.5t33 -77.5q0 -47 -32.5 -78.5t-79.5 -31.5t-78 31.5t-31 78.5q0 46 31 78zM74 802.5q13 -14.5 35 -14.5t35.5 14.5t13.5 36.5t-13.5 36.5t-35.5 14.5t-35 -14.5t-13 -36.5t13 -36.5z" />
    <glyph glyph-name="tilde.cap" horiz-adv-x="365" 
d="M310.5 786.5q-25.5 -25.5 -57.5 -25.5q-17 0 -33.5 8t-36.5 22q-18 12 -29 17.5t-22 5.5q-15 0 -31 -13t-37 -37l-64 53q22 35 57 65.5t74 30.5q18 0 33.5 -7t38.5 -21q18 -11 28 -15.5t20 -4.5q14 0 25.5 11t26.5 31l62 -49q-29 -46 -54.5 -71.5z" />
    <glyph glyph-name="horn" horiz-adv-x="1" 
d="M87 753.5q31 34.5 40 79.5l96 -25q-6 -42 -32.5 -80.5t-69.5 -62.5t-95 -24q-8 0 -26 2v76q56 0 87 34.5z" />
    </font>
</defs>
</svg>
